G04 #@! TF.GenerationSoftware,KiCad,Pcbnew,(2017-02-19 revision a416f3a4e)-master*
G04 #@! TF.CreationDate,2017-04-26T11:10:12+02:00*
G04 #@! TF.ProjectId,ardumower mega shield svn,617264756D6F776572206D6567612073,1.3*
G04 #@! TF.FileFunction,Soldermask,Bot*
G04 #@! TF.FilePolarity,Negative*
%FSLAX46Y46*%
G04 Gerber Fmt 4.6, Leading zero omitted, Abs format (unit mm)*
G04 Created by KiCad (PCBNEW (2017-02-19 revision a416f3a4e)-master) date 04/26/17 11:10:12*
%MOMM*%
%LPD*%
G01*
G04 APERTURE LIST*
%ADD10C,0.100000*%
%ADD11O,1.727200X2.032000*%
%ADD12C,2.750000*%
%ADD13C,2.000000*%
%ADD14C,1.524000*%
%ADD15O,1.524000X2.540000*%
%ADD16C,3.937000*%
%ADD17R,1.700000X1.700000*%
%ADD18O,1.700000X1.700000*%
%ADD19R,2.499360X1.501140*%
%ADD20O,2.499360X1.501140*%
%ADD21R,1.300000X1.300000*%
%ADD22C,1.300000*%
%ADD23C,1.998980*%
%ADD24C,2.301240*%
%ADD25C,1.501140*%
%ADD26C,3.200000*%
%ADD27C,10.000000*%
%ADD28C,2.500000*%
%ADD29R,2.500000X2.500000*%
%ADD30R,2.600000X2.600000*%
%ADD31C,2.600000*%
%ADD32C,3.100000*%
%ADD33C,2.999740*%
%ADD34O,2.032000X2.540000*%
%ADD35O,2.540000X2.032000*%
%ADD36O,2.032000X1.727200*%
%ADD37R,2.032000X1.727200*%
%ADD38R,1.720000X1.720000*%
%ADD39O,2.032000X1.720000*%
%ADD40O,2.023000X1.720000*%
%ADD41R,2.032000X1.720000*%
%ADD42R,2.032000X1.700000*%
%ADD43O,2.032000X1.710000*%
%ADD44R,2.032000X1.710000*%
%ADD45C,2.400000*%
%ADD46R,0.660400X4.000000*%
%ADD47R,1.524000X1.524000*%
%ADD48O,1.727200X1.727200*%
%ADD49C,1.727200*%
%ADD50R,1.501140X2.499360*%
%ADD51O,1.501140X2.499360*%
%ADD52R,1.600000X1.600000*%
%ADD53O,1.600000X1.600000*%
G04 APERTURE END LIST*
D10*
D11*
X43408600Y-121259600D03*
X45948600Y-121259600D03*
X48488600Y-121259600D03*
X51028600Y-121259600D03*
X53568600Y-121259600D03*
X56108600Y-121259600D03*
X40868600Y-124434600D03*
X43408600Y-124434600D03*
X45948600Y-124434600D03*
X48488600Y-124434600D03*
X51028600Y-124434600D03*
X53568600Y-124434600D03*
X56108600Y-124434600D03*
X43408600Y-130784600D03*
X45948600Y-130784600D03*
X48488600Y-130784600D03*
X51028600Y-130784600D03*
X53568600Y-130784600D03*
X56108600Y-130784600D03*
X56108600Y-130784600D03*
X56108600Y-130784600D03*
X56108600Y-127609600D03*
X53568600Y-127609600D03*
X51028600Y-127609600D03*
X48488600Y-127609600D03*
X45948600Y-127609600D03*
X43408600Y-127609600D03*
D12*
X54367000Y-97326000D03*
X103367000Y-39326000D03*
X103367000Y-97326000D03*
X54367000Y-39326000D03*
D13*
X252031500Y-35496500D03*
X252031500Y-76263500D03*
D14*
X230124000Y-39370000D03*
X230124000Y-41910000D03*
X230124000Y-49530000D03*
X230124000Y-52070000D03*
X230124000Y-54610000D03*
X230124000Y-62230000D03*
X230124000Y-64770000D03*
X250952000Y-47498000D03*
X250952000Y-51054000D03*
X250952000Y-54610000D03*
X250952000Y-58166000D03*
X250952000Y-61722000D03*
X250952000Y-65278000D03*
X227584000Y-34290000D03*
X227584000Y-36830000D03*
X227584000Y-39370000D03*
X227584000Y-41910000D03*
X227584000Y-44450000D03*
X227584000Y-46990000D03*
X227584000Y-49530000D03*
X227584000Y-52070000D03*
X227584000Y-54610000D03*
X227584000Y-57150000D03*
X227584000Y-59690000D03*
X227584000Y-62230000D03*
X227584000Y-64770000D03*
X227584000Y-67310000D03*
X227584000Y-69850000D03*
X227584000Y-72390000D03*
X227584000Y-74930000D03*
X227584000Y-77470000D03*
X253492000Y-65278000D03*
X253492000Y-61722000D03*
X253492000Y-58166000D03*
X253492000Y-54610000D03*
X253492000Y-51054000D03*
X253492000Y-47498000D03*
X253492000Y-95758000D03*
X253492000Y-99314000D03*
X253492000Y-102870000D03*
X253492000Y-106426000D03*
X253492000Y-109982000D03*
X253492000Y-113538000D03*
X227584000Y-125730000D03*
X227584000Y-123190000D03*
X227584000Y-120650000D03*
X227584000Y-118110000D03*
X227584000Y-115570000D03*
X227584000Y-113030000D03*
X227584000Y-110490000D03*
X227584000Y-107950000D03*
X227584000Y-105410000D03*
X227584000Y-102870000D03*
X227584000Y-100330000D03*
X227584000Y-97790000D03*
X227584000Y-95250000D03*
X227584000Y-92710000D03*
X227584000Y-90170000D03*
X227584000Y-87630000D03*
X227584000Y-85090000D03*
X227584000Y-82550000D03*
X250952000Y-113538000D03*
X250952000Y-109982000D03*
X250952000Y-106426000D03*
X250952000Y-102870000D03*
X250952000Y-99314000D03*
X250952000Y-95758000D03*
X230124000Y-113030000D03*
X230124000Y-110490000D03*
X230124000Y-102870000D03*
X230124000Y-100330000D03*
X230124000Y-97790000D03*
X230124000Y-90170000D03*
X230124000Y-87630000D03*
D13*
X252031500Y-124523500D03*
X252031500Y-83756500D03*
D15*
X124460000Y-68580000D03*
X127000000Y-68580000D03*
X115316000Y-116840000D03*
X117856000Y-116840000D03*
D14*
X193040000Y-73660000D03*
X190500000Y-73660000D03*
X193040000Y-76200000D03*
X190500000Y-76200000D03*
X193040000Y-78740000D03*
X190500000Y-78740000D03*
X193040000Y-81280000D03*
X190500000Y-81280000D03*
X193040000Y-83820000D03*
X190500000Y-83820000D03*
X193040000Y-86360000D03*
X190500000Y-86360000D03*
X193040000Y-88900000D03*
X190500000Y-88900000D03*
X193040000Y-91440000D03*
X190500000Y-91440000D03*
X193040000Y-93980000D03*
X190500000Y-93980000D03*
X193040000Y-96520000D03*
X190500000Y-96520000D03*
X193040000Y-99060000D03*
X190500000Y-99060000D03*
X193040000Y-101600000D03*
X190500000Y-101600000D03*
X190500000Y-104140000D03*
X193040000Y-104140000D03*
X193040000Y-116840000D03*
X190500000Y-116840000D03*
X193040000Y-106680000D03*
X190500000Y-106680000D03*
X193040000Y-109220000D03*
X190500000Y-109220000D03*
X193040000Y-111760000D03*
X190500000Y-111760000D03*
X193040000Y-114300000D03*
X190500000Y-114300000D03*
D16*
X110490000Y-68580000D03*
X111760000Y-116840000D03*
X186690000Y-116840000D03*
X193040000Y-68580000D03*
D15*
X134620000Y-68580000D03*
X120396000Y-116840000D03*
X122936000Y-116840000D03*
X125476000Y-116840000D03*
X128016000Y-116840000D03*
X130556000Y-116840000D03*
X133096000Y-116840000D03*
X135636000Y-116840000D03*
X138176000Y-116840000D03*
X142240000Y-116840000D03*
X144780000Y-116840000D03*
X147320000Y-116840000D03*
X149860000Y-116840000D03*
X152400000Y-116840000D03*
X154940000Y-116840000D03*
X157480000Y-116840000D03*
X160020000Y-116840000D03*
X129540000Y-68580000D03*
X132080000Y-68580000D03*
X137160000Y-68580000D03*
X139700000Y-68580000D03*
X142240000Y-68580000D03*
X152400000Y-68580000D03*
X149860000Y-68580000D03*
X147320000Y-68580000D03*
X154940000Y-68580000D03*
X157480000Y-68580000D03*
X160020000Y-68580000D03*
X177800000Y-68580000D03*
X175260000Y-68580000D03*
X172720000Y-68580000D03*
X162560000Y-68580000D03*
X165100000Y-68580000D03*
X170180000Y-68580000D03*
X180340000Y-68580000D03*
X182880000Y-68580000D03*
X185420000Y-68580000D03*
X187960000Y-68580000D03*
X182880000Y-116840000D03*
X180340000Y-116840000D03*
X177800000Y-116840000D03*
X175260000Y-116840000D03*
X172720000Y-116840000D03*
X170180000Y-116840000D03*
X167640000Y-116840000D03*
X165100000Y-116840000D03*
D17*
X152400000Y-52070000D03*
D18*
X152400000Y-54610000D03*
X152400000Y-57150000D03*
D17*
X143510000Y-52070000D03*
D18*
X143510000Y-54610000D03*
X143510000Y-57150000D03*
D17*
X134620000Y-52070000D03*
D18*
X134620000Y-54610000D03*
X134620000Y-57150000D03*
D17*
X125730000Y-52070000D03*
D18*
X125730000Y-54610000D03*
X125730000Y-57150000D03*
D17*
X116840000Y-52070000D03*
D18*
X116840000Y-54610000D03*
X116840000Y-57150000D03*
D17*
X107950000Y-52070000D03*
D18*
X107950000Y-54610000D03*
X107950000Y-57150000D03*
D17*
X58547000Y-133985000D03*
D18*
X61087000Y-133985000D03*
X63627000Y-133985000D03*
D17*
X41275000Y-133985000D03*
D18*
X43815000Y-133985000D03*
X46355000Y-133985000D03*
D17*
X37465000Y-133350000D03*
D18*
X37465000Y-130810000D03*
X37465000Y-128270000D03*
D17*
X52705000Y-133985000D03*
D18*
X50165000Y-133985000D03*
D17*
X67437000Y-137668000D03*
D18*
X69977000Y-137668000D03*
D17*
X67437000Y-133985000D03*
D18*
X69977000Y-133985000D03*
D17*
X86360000Y-80010000D03*
D18*
X83820000Y-80010000D03*
X81280000Y-80010000D03*
X78740000Y-80010000D03*
X76200000Y-80010000D03*
X73660000Y-80010000D03*
X71120000Y-80010000D03*
X68580000Y-80010000D03*
D17*
X86360000Y-77470000D03*
D18*
X83820000Y-77470000D03*
X81280000Y-77470000D03*
X78740000Y-77470000D03*
X76200000Y-77470000D03*
X73660000Y-77470000D03*
X71120000Y-77470000D03*
X68580000Y-77470000D03*
D17*
X86360000Y-74930000D03*
D18*
X83820000Y-74930000D03*
X81280000Y-74930000D03*
X78740000Y-74930000D03*
X76200000Y-74930000D03*
X73660000Y-74930000D03*
X71120000Y-74930000D03*
X68580000Y-74930000D03*
D17*
X86360000Y-69850000D03*
D18*
X83820000Y-69850000D03*
X81280000Y-69850000D03*
X78740000Y-69850000D03*
X76200000Y-69850000D03*
X73660000Y-69850000D03*
X71120000Y-69850000D03*
X68580000Y-69850000D03*
D17*
X86360000Y-67310000D03*
D18*
X83820000Y-67310000D03*
X81280000Y-67310000D03*
X78740000Y-67310000D03*
X76200000Y-67310000D03*
X73660000Y-67310000D03*
X71120000Y-67310000D03*
X68580000Y-67310000D03*
D17*
X86360000Y-64770000D03*
D18*
X83820000Y-64770000D03*
X81280000Y-64770000D03*
X78740000Y-64770000D03*
X76200000Y-64770000D03*
X73660000Y-64770000D03*
X71120000Y-64770000D03*
X68580000Y-64770000D03*
D17*
X86360000Y-62230000D03*
D18*
X83820000Y-62230000D03*
X81280000Y-62230000D03*
X78740000Y-62230000D03*
X76200000Y-62230000D03*
X73660000Y-62230000D03*
X71120000Y-62230000D03*
X68580000Y-62230000D03*
D19*
X252603000Y-136017000D03*
D20*
X252603000Y-141097000D03*
D21*
X121920000Y-111125000D03*
D22*
X119420000Y-111125000D03*
D20*
X247523000Y-141097000D03*
D19*
X247523000Y-136017000D03*
D22*
X230124000Y-85210000D03*
D21*
X230124000Y-92710000D03*
X230124000Y-59690000D03*
D22*
X230124000Y-67190000D03*
D23*
X246380000Y-44196000D03*
X246380000Y-59436000D03*
X246888000Y-102616000D03*
X246888000Y-117856000D03*
X246888000Y-78232000D03*
X246888000Y-93472000D03*
D24*
X239268000Y-63500000D03*
X239268000Y-38501320D03*
X239776000Y-122428000D03*
X239776000Y-97429320D03*
X239776000Y-68473320D03*
X239776000Y-93472000D03*
D25*
X183007000Y-139700000D03*
X183007000Y-137160000D03*
D14*
X183007000Y-135890000D03*
X183007000Y-140970000D03*
D26*
X30480000Y-87630000D03*
X30480000Y-142240000D03*
X148590000Y-33020000D03*
X148590000Y-137541000D03*
X266700000Y-33020000D03*
X266700000Y-87630000D03*
X266700000Y-142240000D03*
D27*
X18415000Y-40640000D03*
X18415000Y-87630000D03*
X18415000Y-124460000D03*
X278765000Y-40640000D03*
X278765000Y-87630000D03*
X278765000Y-124460000D03*
D26*
X272415000Y-133985000D03*
X281305000Y-133985000D03*
D28*
X260731000Y-102950000D03*
D29*
X260731000Y-107950000D03*
X260731000Y-97790000D03*
D28*
X260731000Y-92790000D03*
X260731000Y-82630000D03*
D29*
X260731000Y-87630000D03*
D28*
X260731000Y-54690000D03*
D29*
X260731000Y-59690000D03*
D28*
X260731000Y-44530000D03*
D29*
X260731000Y-49530000D03*
D28*
X260731000Y-34370000D03*
D29*
X260731000Y-39370000D03*
D13*
X200903840Y-46177200D03*
X193304160Y-46177200D03*
X199644000Y-46177200D03*
X194564000Y-46177200D03*
D14*
X210693000Y-109601000D03*
X208153000Y-109601000D03*
X218313000Y-109601000D03*
X211455000Y-95377000D03*
X214757000Y-95377000D03*
D13*
X204343000Y-109601000D03*
X222123000Y-109601000D03*
X204343000Y-93853000D03*
X222123000Y-93853000D03*
D14*
X215773000Y-109601000D03*
X213233000Y-109601000D03*
X213233000Y-107061000D03*
X215773000Y-107061000D03*
D30*
X261112000Y-123190000D03*
X261112000Y-120650000D03*
D31*
X261112000Y-115570000D03*
D30*
X261112000Y-123190000D03*
X199390000Y-126619000D03*
X201930000Y-126619000D03*
D31*
X207010000Y-126619000D03*
D30*
X199390000Y-126619000D03*
X261112000Y-74930000D03*
X261112000Y-72390000D03*
D31*
X261112000Y-67310000D03*
D30*
X261112000Y-74930000D03*
D14*
X193294000Y-125603000D03*
X157734000Y-125603000D03*
X152654000Y-125603000D03*
X155194000Y-125603000D03*
X157734000Y-123063000D03*
X155194000Y-123063000D03*
X157734000Y-140081000D03*
X155194000Y-140081000D03*
D32*
X188224000Y-139817000D03*
D14*
X193294000Y-140081000D03*
X193294000Y-123063000D03*
X152654000Y-123063000D03*
X152654000Y-140081000D03*
D33*
X222123000Y-141351000D03*
X222123000Y-136271000D03*
X222123000Y-131191000D03*
X214503000Y-141351000D03*
X214503000Y-136271000D03*
X214503000Y-131191000D03*
X214503000Y-115951000D03*
X222123000Y-115951000D03*
D25*
X205994000Y-103759000D03*
X205994000Y-106299000D03*
D14*
X205994000Y-107569000D03*
X205994000Y-102489000D03*
D34*
X203962000Y-116967000D03*
X206502000Y-116967000D03*
X201422000Y-116967000D03*
D35*
X243713000Y-141097000D03*
X243713000Y-136017000D03*
X243713000Y-138557000D03*
D36*
X81280000Y-57070000D03*
X81280000Y-54570000D03*
D37*
X81280000Y-52070000D03*
D38*
X222250000Y-36830000D03*
D39*
X222250000Y-39330000D03*
D40*
X222250000Y-41830000D03*
D39*
X222250000Y-44330000D03*
D38*
X214630000Y-36830000D03*
D39*
X214630000Y-39330000D03*
D40*
X214630000Y-41830000D03*
D39*
X214630000Y-44330000D03*
D41*
X107950000Y-36830000D03*
D39*
X107950000Y-39330000D03*
X107950000Y-41830000D03*
X107950000Y-44330000D03*
X107950000Y-46830000D03*
X118110000Y-46830000D03*
X118110000Y-44330000D03*
X118110000Y-41830000D03*
X118110000Y-39330000D03*
D41*
X118110000Y-36830000D03*
D39*
X125730000Y-46830000D03*
X125730000Y-44330000D03*
X125730000Y-41830000D03*
X125730000Y-39330000D03*
D41*
X125730000Y-36830000D03*
X134620000Y-36830000D03*
D39*
X134620000Y-39330000D03*
X134620000Y-41830000D03*
X134620000Y-44330000D03*
X134620000Y-46830000D03*
D42*
X143510000Y-36830000D03*
D39*
X143510000Y-39330000D03*
X143510000Y-41830000D03*
X143510000Y-44330000D03*
X143510000Y-46830000D03*
X152400000Y-46830000D03*
X152400000Y-44330000D03*
X152400000Y-41830000D03*
X152400000Y-39330000D03*
D41*
X152400000Y-36830000D03*
D38*
X214630000Y-64770000D03*
D39*
X214630000Y-67270000D03*
D40*
X214630000Y-69770000D03*
D39*
X214630000Y-72270000D03*
X222250000Y-59570000D03*
D40*
X222250000Y-57070000D03*
D39*
X222250000Y-54570000D03*
D38*
X222250000Y-52070000D03*
D41*
X54610000Y-44450000D03*
D39*
X54610000Y-46950000D03*
X54610000Y-49450000D03*
X98425000Y-41830000D03*
X98425000Y-39330000D03*
D41*
X98425000Y-36830000D03*
D39*
X179070000Y-41830000D03*
X179070000Y-39330000D03*
D41*
X179070000Y-36830000D03*
X161290000Y-52070000D03*
D39*
X161290000Y-54570000D03*
X161290000Y-57070000D03*
X170180000Y-57070000D03*
X170180000Y-54570000D03*
D41*
X170180000Y-52070000D03*
X170180000Y-36830000D03*
D39*
X170180000Y-39330000D03*
X170180000Y-41830000D03*
X179070000Y-57070000D03*
X179070000Y-54570000D03*
D41*
X179070000Y-52070000D03*
D39*
X161290000Y-41830000D03*
X161290000Y-39330000D03*
D41*
X161290000Y-36830000D03*
X222250000Y-67310000D03*
D39*
X222250000Y-69810000D03*
X222250000Y-72310000D03*
D41*
X214630000Y-81280000D03*
D43*
X214630000Y-83780000D03*
X214630000Y-86280000D03*
X222250000Y-83780000D03*
X222250000Y-81280000D03*
X72390000Y-54650000D03*
X72390000Y-57150000D03*
D39*
X205740000Y-46830000D03*
X205740000Y-44330000D03*
X205740000Y-41830000D03*
X205740000Y-39330000D03*
D41*
X205740000Y-36830000D03*
D43*
X63500000Y-49330000D03*
X63500000Y-46830000D03*
X63500000Y-44330000D03*
X63500000Y-41830000D03*
X63500000Y-39330000D03*
D44*
X63500000Y-36830000D03*
D43*
X90170000Y-49330000D03*
X90170000Y-46830000D03*
X90170000Y-44330000D03*
X90170000Y-41830000D03*
X90170000Y-39330000D03*
D44*
X90170000Y-36830000D03*
X214630000Y-52070000D03*
D43*
X214630000Y-54570000D03*
X214630000Y-57070000D03*
D44*
X205740000Y-55880000D03*
D43*
X205740000Y-58380000D03*
X205740000Y-60880000D03*
D26*
X30480000Y-33020000D03*
D43*
X196850000Y-41830000D03*
X196850000Y-39330000D03*
D44*
X196850000Y-36830000D03*
D43*
X187960000Y-41830000D03*
X187960000Y-39330000D03*
D44*
X187960000Y-36830000D03*
X196850000Y-52070000D03*
D43*
X196850000Y-54570000D03*
X196850000Y-57070000D03*
X187960000Y-57070000D03*
X187960000Y-54570000D03*
D44*
X187960000Y-52070000D03*
D45*
X244760000Y-41529000D03*
X232760000Y-41529000D03*
X236062000Y-66802000D03*
X248062000Y-66802000D03*
X232760000Y-37211000D03*
X244760000Y-37211000D03*
X236062000Y-33147000D03*
X248062000Y-33147000D03*
X232633000Y-119761000D03*
X244633000Y-119761000D03*
X236062000Y-124460000D03*
X248062000Y-124460000D03*
X232760000Y-115316000D03*
X244760000Y-115316000D03*
X236443000Y-111760000D03*
X248443000Y-111760000D03*
X232760000Y-84201000D03*
X244760000Y-84201000D03*
X236062000Y-79756000D03*
X248062000Y-79756000D03*
X232760000Y-71120000D03*
X244760000Y-71120000D03*
X247935000Y-75565000D03*
X235935000Y-75565000D03*
X235935000Y-106807000D03*
X247935000Y-106807000D03*
X248062000Y-62611000D03*
X236062000Y-62611000D03*
D23*
X240030000Y-102331520D03*
X234950000Y-102331520D03*
X234950000Y-59278520D03*
X240030000Y-59278520D03*
D41*
X45720000Y-36830000D03*
D39*
X45720000Y-39330000D03*
X45720000Y-41830000D03*
X45720000Y-44330000D03*
X45720000Y-46830000D03*
D28*
X235157000Y-128016000D03*
D29*
X240157000Y-128016000D03*
D41*
X36830000Y-36830000D03*
D39*
X36830000Y-39330000D03*
X36830000Y-41830000D03*
X36830000Y-44330000D03*
X36830000Y-46830000D03*
D46*
X161925000Y-91567000D03*
X160655000Y-91567000D03*
X159385000Y-91567000D03*
X158115000Y-91567000D03*
X156845000Y-91567000D03*
X155575000Y-91567000D03*
X154305000Y-91567000D03*
X153035000Y-91567000D03*
X153035000Y-96393000D03*
X154305000Y-96393000D03*
X155575000Y-96393000D03*
X156845000Y-96393000D03*
X158115000Y-96393000D03*
X159385000Y-96393000D03*
X160655000Y-96393000D03*
X161925000Y-96393000D03*
X135255000Y-96393000D03*
X133985000Y-96393000D03*
X132715000Y-96393000D03*
X131445000Y-96393000D03*
X130175000Y-96393000D03*
X128905000Y-96393000D03*
X127635000Y-96393000D03*
X126365000Y-96393000D03*
X126365000Y-91567000D03*
X127635000Y-91567000D03*
X128905000Y-91567000D03*
X130175000Y-91567000D03*
X131445000Y-91567000D03*
X132715000Y-91567000D03*
X133985000Y-91567000D03*
X135255000Y-91567000D03*
X149225000Y-91567000D03*
X147955000Y-91567000D03*
X146685000Y-91567000D03*
X145415000Y-91567000D03*
X144145000Y-91567000D03*
X142875000Y-91567000D03*
X141605000Y-91567000D03*
X140335000Y-91567000D03*
X140335000Y-96393000D03*
X141605000Y-96393000D03*
X142875000Y-96393000D03*
X144145000Y-96393000D03*
X145415000Y-96393000D03*
X146685000Y-96393000D03*
X147955000Y-96393000D03*
X149225000Y-96393000D03*
D18*
X141478000Y-136906000D03*
D17*
X144018000Y-136906000D03*
D18*
X143383000Y-124714000D03*
X145923000Y-124714000D03*
D17*
X148463000Y-124714000D03*
D11*
X30480000Y-59690000D03*
D36*
X30480000Y-62230000D03*
X30480000Y-64770000D03*
X30480000Y-67310000D03*
X30480000Y-69850000D03*
X30480000Y-72390000D03*
X30480000Y-74930000D03*
X30480000Y-77470000D03*
X30480000Y-80010000D03*
D37*
X30480000Y-82550000D03*
D26*
X138684000Y-44196000D03*
X156591000Y-44196000D03*
X165481000Y-44196000D03*
X129794000Y-44196000D03*
D28*
X246319522Y-88077522D03*
X249996478Y-91754478D03*
D39*
X72390000Y-44330000D03*
D40*
X72390000Y-41830000D03*
D39*
X72390000Y-39330000D03*
D38*
X72390000Y-36830000D03*
D39*
X81280000Y-44330000D03*
D40*
X81280000Y-41830000D03*
D39*
X81280000Y-39330000D03*
D38*
X81280000Y-36830000D03*
D18*
X68580000Y-72390000D03*
X71120000Y-72390000D03*
X73660000Y-72390000D03*
X76200000Y-72390000D03*
X78740000Y-72390000D03*
X81280000Y-72390000D03*
X83820000Y-72390000D03*
D17*
X86360000Y-72390000D03*
D18*
X46355000Y-137795000D03*
X43815000Y-137795000D03*
D17*
X41275000Y-137795000D03*
X58547000Y-137668000D03*
D18*
X61087000Y-137668000D03*
X63627000Y-137668000D03*
X33655000Y-128270000D03*
X33655000Y-130810000D03*
D17*
X33655000Y-133350000D03*
D47*
X52348000Y-110871000D03*
X52348000Y-113411000D03*
X52348000Y-115951000D03*
X52348000Y-105791000D03*
X52348000Y-108331000D03*
X52348000Y-103251000D03*
X52348000Y-100711000D03*
X30988000Y-112141000D03*
X30988000Y-107061000D03*
X30988000Y-109601000D03*
X30988000Y-104521000D03*
X30988000Y-101981000D03*
D26*
X30848000Y-95521000D03*
D47*
X53848000Y-113411000D03*
X53848000Y-115951000D03*
X53848000Y-110871000D03*
X53848000Y-108331000D03*
X53848000Y-105791000D03*
X53848000Y-103251000D03*
X53848000Y-100711000D03*
X29718000Y-101981000D03*
X29718000Y-104521000D03*
X29718000Y-107061000D03*
X29718000Y-109601000D03*
X29718000Y-112141000D03*
D48*
X62230000Y-125730000D03*
X62230000Y-128270000D03*
X64770000Y-125730000D03*
X64770000Y-128270000D03*
X67310000Y-125730000D03*
X67310000Y-128270000D03*
X69850000Y-125730000D03*
D49*
X69850000Y-128270000D03*
D26*
X113411000Y-95123000D03*
X113411000Y-36703000D03*
X201041000Y-36703000D03*
X201041000Y-95123000D03*
D33*
X230378000Y-135636000D03*
X235458000Y-135636000D03*
X237998000Y-135636000D03*
X227838000Y-135636000D03*
X257175000Y-133985000D03*
X267335000Y-133985000D03*
X264795000Y-133985000D03*
X259715000Y-133985000D03*
D50*
X251968000Y-130048000D03*
D51*
X246888000Y-130048000D03*
D13*
X110490000Y-106807000D03*
X115570000Y-106807000D03*
X109230160Y-106807000D03*
X116829840Y-106807000D03*
D18*
X38100000Y-57150000D03*
X38100000Y-59690000D03*
X38100000Y-62230000D03*
X38100000Y-64770000D03*
X38100000Y-67310000D03*
X38100000Y-69850000D03*
X38100000Y-72390000D03*
X38100000Y-74930000D03*
X38100000Y-77470000D03*
X38100000Y-80010000D03*
X38100000Y-82550000D03*
X38100000Y-85090000D03*
X38100000Y-87630000D03*
D17*
X38100000Y-90170000D03*
D18*
X48387000Y-75946000D03*
X50927000Y-75946000D03*
X48387000Y-78486000D03*
X50927000Y-78486000D03*
X48387000Y-81026000D03*
X50927000Y-81026000D03*
X48387000Y-83566000D03*
X50927000Y-83566000D03*
X48387000Y-86106000D03*
X50927000Y-86106000D03*
X48387000Y-88646000D03*
X50927000Y-88646000D03*
X48387000Y-91186000D03*
D17*
X50927000Y-91186000D03*
D52*
X222123000Y-121666000D03*
D53*
X214503000Y-121666000D03*
D14*
X122174000Y-106553000D03*
X122174000Y-101473000D03*
D25*
X122174000Y-102743000D03*
X122174000Y-105283000D03*
D18*
X125730000Y-113665000D03*
D17*
X128270000Y-113665000D03*
D14*
X134112000Y-138303000D03*
X129032000Y-138303000D03*
D25*
X130302000Y-138303000D03*
X132842000Y-138303000D03*
X97282000Y-139446000D03*
X97282000Y-136906000D03*
D14*
X97282000Y-135636000D03*
X97282000Y-140716000D03*
D25*
X74295000Y-139446000D03*
X74295000Y-136906000D03*
D14*
X74295000Y-135636000D03*
X74295000Y-140716000D03*
D18*
X162560000Y-63627000D03*
D17*
X160020000Y-63627000D03*
M02*
