M48
;DRILL file {KiCad (2017-02-19 revision a416f3a4e)-master} date 04/18/17 11:18:32
;FORMAT={-:-/ absolute / metric / decimal}
FMAT,2
METRIC,TZ
T1C0.635
T2C0.762
T3C0.800
T4C0.800
T5C0.812
T6C0.813
T7C0.820
T8C0.848
T9C0.900
T10C1.000
T11C1.001
T12C1.016
T13C1.143
T14C1.199
T15C1.300
T16C1.349
T17C1.400
T18C2.000
T19C2.200
T20C2.750
T21C3.100
T22C3.175
T23C3.200
T24C6.500
T25C3.200
%
G90
G05
M71
T1
X30.48Y-50.165
X33.528Y-41.91
X34.29Y-31.623
X34.544Y-118.999
X34.544Y-120.269
X34.544Y-121.666
X35.052Y-34.417
X35.306Y-51.816
X35.687Y-33.02
X36.195Y-140.97
X37.338Y-54.229
X37.465Y-116.713
X38.1Y-141.097
X39.37Y-68.58
X39.37Y-103.378
X40.259Y-36.83
X40.259Y-45.974
X40.259Y-49.911
X40.259Y-51.181
X41.402Y-98.806
X41.402Y-109.474
X42.164Y-95.059
X43.434Y-39.37
X43.688Y-103.251
X43.815Y-100.457
X44.958Y-49.911
X44.958Y-59.69
X45.466Y-105.41
X45.847Y-86.741
X46.101Y-57.15
X46.101Y-59.69
X46.228Y-58.293
X46.609Y-74.549
X47.18Y-96.456
X47.625Y-73.66
X48.006Y-69.913
X48.26Y-93.853
X48.387Y-41.275
X48.768Y-54.991
X49.657Y-93.789
X49.784Y-64.77
X49.784Y-67.31
X49.784Y-73.787
X50.292Y-60.198
X50.292Y-61.468
X50.419Y-70.866
X50.673Y-109.601
X51.562Y-54.991
X51.943Y-37.465
X52.07Y-49.53
X52.578Y-61.468
X53.213Y-87.376
X53.594Y-55.054
X53.594Y-64.77
X53.594Y-66.04
X53.594Y-67.31
X53.594Y-69.85
X55.118Y-34.671
X55.372Y-74.93
X55.88Y-89.916
X55.88Y-93.472
X55.88Y-108.458
X56.007Y-82.486
X56.134Y-95.504
X56.261Y-102.235
X56.388Y-137.668
X56.388Y-141.351
X56.642Y-36.703
X56.896Y-86.106
X57.785Y-112.141
X59.182Y-38.1
X59.182Y-113.284
X59.309Y-110.871
X59.436Y-55.118
X59.436Y-62.738
X59.436Y-63.881
X59.436Y-66.04
X59.436Y-109.347
X60.325Y-120.65
X60.579Y-124.333
X60.706Y-55.118
X60.706Y-72.39
X60.706Y-80.391
X61.087Y-106.299
X61.341Y-87.249
X61.341Y-94.615
X61.785Y-33.02
X61.976Y-55.118
X61.976Y-79.121
X61.976Y-80.391
X62.357Y-51.943
X62.611Y-74.93
X62.738Y-98.425
X62.738Y-106.172
X62.865Y-60.008
X62.865Y-64.897
X62.992Y-90.932
X63.119Y-81.915
X63.119Y-86.995
X63.246Y-67.564
X63.373Y-79.121
X63.5Y-31.623
X63.754Y-63.881
X63.754Y-65.659
X63.754Y-77.597
X63.881Y-51.943
X64.135Y-109.982
X64.262Y-102.235
X65.151Y-94.615
X65.278Y-61.214
X65.596Y-132.651
X66.802Y-39.37
X68.072Y-118.364
X68.199Y-59.055
X68.326Y-88.773
X68.707Y-49.403
X68.707Y-50.8
X69.469Y-59.436
X69.977Y-131.445
X69.977Y-141.351
X70.104Y-82.359
X70.104Y-106.172
X71.501Y-127.
X72.517Y-33.274
X72.644Y-91.059
X73.787Y-109.22
X73.787Y-133.731
X74.93Y-39.37
X75.565Y-104.521
X77.089Y-36.83
X77.216Y-100.33
X77.216Y-102.235
X77.216Y-117.094
X77.216Y-129.286
X80.645Y-123.952
X81.915Y-127.635
X82.042Y-126.238
X82.804Y-117.094
X83.185Y-34.417
X84.074Y-56.896
X84.455Y-41.021
X84.836Y-49.911
X85.852Y-49.022
X86.906Y-34.315
X86.919Y-36.17
X86.995Y-125.73
X86.995Y-129.54
X88.392Y-56.261
X88.519Y-53.848
X88.9Y-81.026
X89.789Y-58.039
X89.789Y-127.762
X90.678Y-125.476
X91.186Y-126.619
X91.948Y-58.166
X92.202Y-55.88
X92.456Y-59.309
X92.964Y-45.593
X92.964Y-47.117
X92.964Y-84.074
X93.345Y-50.927
X93.853Y-124.206
X94.488Y-135.89
X94.615Y-60.325
X94.742Y-61.595
X94.742Y-62.865
X95.504Y-71.247
X96.266Y-52.07
X96.52Y-43.942
X96.901Y-131.842
X100.076Y-46.609
X100.457Y-54.61
X100.457Y-55.88
X100.457Y-123.063
X101.219Y-127.381
X102.235Y-123.063
X102.235Y-125.603
X102.362Y-83.693
X103.505Y-60.325
X103.505Y-61.595
X103.505Y-62.865
X104.775Y-67.056
X105.664Y-49.276
X106.553Y-69.596
X107.95Y-70.358
X110.109Y-31.496
X110.49Y-77.851
X110.871Y-55.753
X111.252Y-127.381
X112.395Y-60.325
X112.395Y-61.595
X112.395Y-62.865
X114.554Y-49.276
X116.967Y-128.778
X118.237Y-85.09
X118.364Y-136.398
X119.253Y-79.629
X119.507Y-78.359
X119.761Y-55.753
X119.761Y-128.651
X120.015Y-98.044
X120.523Y-79.629
X121.285Y-60.325
X121.285Y-61.595
X121.285Y-62.865
X121.285Y-76.073
X121.285Y-125.349
X121.793Y-81.534
X122.301Y-67.31
X123.317Y-49.276
X123.698Y-79.629
X124.587Y-107.823
X125.222Y-79.629
X125.476Y-120.396
X126.365Y-106.807
X127.635Y-106.807
X128.651Y-123.19
X128.802Y-55.777
X128.905Y-101.727
X128.905Y-107.823
X130.175Y-60.325
X130.175Y-61.595
X130.175Y-62.865
X130.175Y-101.727
X130.556Y-123.19
X130.81Y-66.802
X131.191Y-82.677
X131.445Y-101.727
X131.445Y-105.537
X131.826Y-123.19
X132.207Y-127.889
X132.334Y-87.122
X132.461Y-49.276
X133.096Y-123.19
X133.223Y-84.709
X133.985Y-100.838
X133.985Y-107.569
X134.62Y-111.76
X135.001Y-80.137
X135.001Y-81.407
X135.128Y-130.048
X135.636Y-123.317
X136.652Y-85.852
X137.692Y-55.753
X138.176Y-73.914
X138.176Y-123.317
X138.303Y-85.598
X138.938Y-105.41
X139.065Y-60.325
X139.065Y-61.595
X139.065Y-62.865
X139.192Y-99.695
X141.097Y-111.633
X141.351Y-49.276
X141.351Y-106.172
X142.24Y-121.92
X142.748Y-113.665
X142.875Y-101.727
X142.875Y-107.823
X143.129Y-71.374
X144.145Y-101.727
X144.145Y-113.538
X144.653Y-69.723
X144.653Y-121.92
X144.78Y-66.802
X145.161Y-105.791
X146.558Y-55.753
X146.685Y-101.727
X146.685Y-105.664
X147.32Y-120.396
X147.955Y-60.325
X147.955Y-61.595
X147.955Y-62.865
X147.955Y-107.823
X148.844Y-88.265
X149.225Y-100.838
X149.225Y-111.633
X150.241Y-49.276
X150.241Y-80.518
X150.495Y-75.311
X151.194Y-105.219
X151.257Y-98.425
X152.146Y-99.695
X152.4Y-64.262
X153.035Y-107.061
X153.67Y-136.271
X154.686Y-83.693
X155.575Y-58.293
X155.575Y-101.727
X155.575Y-107.823
X155.829Y-80.137
X155.829Y-82.804
X155.956Y-54.483
X156.718Y-55.88
X156.845Y-47.879
X156.845Y-101.727
X156.972Y-62.865
X157.099Y-107.696
X157.353Y-85.217
X158.115Y-101.727
X158.369Y-137.856
X159.004Y-106.426
X159.385Y-107.569
X160.02Y-105.537
X160.655Y-106.68
X160.909Y-85.217
X161.163Y-121.92
X161.163Y-125.603
X161.925Y-106.553
X161.925Y-111.633
X162.052Y-121.031
X162.56Y-122.301
X163.449Y-121.285
X164.084Y-97.028
X164.084Y-111.633
X164.211Y-86.614
X164.465Y-85.217
X164.846Y-57.087
X165.354Y-97.409
X165.354Y-105.664
X165.481Y-59.817
X165.481Y-107.569
X165.608Y-131.318
X165.735Y-139.573
X166.243Y-80.137
X166.37Y-101.727
X166.37Y-106.553
X166.497Y-56.134
X166.941Y-64.516
X167.132Y-136.271
X167.45Y-62.166
X167.64Y-131.318
X168.021Y-35.56
X168.021Y-85.217
X168.402Y-136.271
X168.529Y-91.948
X168.91Y-99.314
X168.91Y-107.188
X169.799Y-80.899
X170.053Y-86.36
X170.18Y-44.323
X170.18Y-112.776
X170.18Y-131.318
X171.069Y-87.249
X171.196Y-111.76
X171.45Y-99.314
X171.45Y-118.364
X171.577Y-85.217
X172.466Y-91.948
X172.593Y-44.323
X172.72Y-101.727
X172.72Y-131.318
X173.355Y-81.28
X173.482Y-90.932
X173.546Y-49.276
X173.609Y-97.155
X174.371Y-91.821
X174.371Y-131.318
X174.752Y-102.743
X174.752Y-111.379
X175.006Y-66.421
X175.133Y-85.217
X175.895Y-131.318
X176.149Y-47.752
X176.149Y-114.808
X176.784Y-52.07
X176.911Y-93.853
X177.292Y-131.318
X177.419Y-65.405
X177.419Y-87.249
X178.308Y-78.105
X178.435Y-66.294
X178.689Y-85.217
X178.689Y-86.36
X178.75Y-137.856
X179.324Y-123.952
X180.022Y-73.406
X180.152Y-108.204
X180.848Y-121.285
X181.102Y-73.914
X181.864Y-49.34
X181.864Y-83.185
X182.245Y-77.914
X182.245Y-112.776
X182.753Y-56.832
X182.753Y-84.074
X183.388Y-107.315
X183.642Y-131.318
X184.023Y-52.07
X184.658Y-82.105
X187.96Y-66.421
X188.087Y-97.79
X188.468Y-102.87
X188.468Y-107.95
X189.611Y-61.468
X190.5Y-60.389
X191.008Y-141.097
X192.024Y-138.557
X194.691Y-115.57
X195.326Y-116.713
X195.326Y-128.27
X196.469Y-86.36
X196.85Y-59.944
X197.866Y-118.999
X199.263Y-54.57
X200.152Y-106.299
X200.66Y-58.356
X200.66Y-59.563
X201.041Y-105.156
X201.676Y-50.8
X208.661Y-65.722
X208.915Y-86.36
X208.915Y-93.091
X209.296Y-138.557
X209.296Y-140.335
X210.693Y-102.235
X211.201Y-85.471
X211.836Y-50.292
X211.899Y-77.724
X212.344Y-122.555
X213.36Y-60.134
X214.185Y-61.15
X215.773Y-73.914
X215.773Y-103.251
X216.027Y-77.66
X216.027Y-78.867
X216.408Y-79.947
X216.789Y-89.916
X216.916Y-85.217
X216.916Y-86.804
X217.805Y-62.23
X217.805Y-90.678
X218.44Y-47.498
X218.44Y-63.373
X218.567Y-36.83
X218.821Y-31.877
X219.075Y-90.678
X220.091Y-92.837
X220.091Y-106.426
X220.218Y-91.44
X220.345Y-97.028
X220.726Y-105.41
X221.043Y-78.867
X221.361Y-85.852
X221.996Y-62.23
X222.25Y-87.757
X223.139Y-61.341
X223.329Y-79.692
X224.155Y-53.149
X224.155Y-106.426
X224.269Y-82.855
X224.282Y-97.536
X224.282Y-107.823
X225.679Y-64.77
X225.679Y-97.663
X225.679Y-104.14
X225.679Y-106.553
X235.839Y-108.712
X235.966Y-87.63
X245.491Y-51.054
X255.778Y-32.004
T2
X74.295Y-135.636
X74.295Y-140.716
X97.282Y-135.636
X97.282Y-140.716
X122.174Y-101.473
X122.174Y-106.553
X129.032Y-138.303
X134.112Y-138.303
X152.654Y-123.063
X152.654Y-125.603
X152.654Y-140.081
X155.194Y-123.063
X155.194Y-125.603
X155.194Y-140.081
X157.734Y-123.063
X157.734Y-125.603
X157.734Y-140.081
X183.007Y-135.89
X183.007Y-140.97
X193.294Y-123.063
X193.294Y-125.603
X193.294Y-140.081
X205.994Y-102.489
X205.994Y-107.569
X208.153Y-109.601
X210.693Y-109.601
X211.455Y-95.377
X213.233Y-107.061
X213.233Y-109.601
X214.757Y-95.377
X215.773Y-107.061
X215.773Y-109.601
X218.313Y-109.601
X227.584Y-34.29
X227.584Y-36.83
X227.584Y-39.37
X227.584Y-41.91
X227.584Y-44.45
X227.584Y-46.99
X227.584Y-49.53
X227.584Y-52.07
X227.584Y-54.61
X227.584Y-57.15
X227.584Y-59.69
X227.584Y-62.23
X227.584Y-64.77
X227.584Y-67.31
X227.584Y-69.85
X227.584Y-72.39
X227.584Y-74.93
X227.584Y-77.47
X227.584Y-82.55
X227.584Y-85.09
X227.584Y-87.63
X227.584Y-90.17
X227.584Y-92.71
X227.584Y-95.25
X227.584Y-97.79
X227.584Y-100.33
X227.584Y-102.87
X227.584Y-105.41
X227.584Y-107.95
X227.584Y-110.49
X227.584Y-113.03
X227.584Y-115.57
X227.584Y-118.11
X227.584Y-120.65
X227.584Y-123.19
X227.584Y-125.73
X230.124Y-39.37
X230.124Y-41.91
X230.124Y-49.53
X230.124Y-52.07
X230.124Y-54.61
X230.124Y-62.23
X230.124Y-64.77
X230.124Y-87.63
X230.124Y-90.17
X230.124Y-97.79
X230.124Y-100.33
X230.124Y-102.87
X230.124Y-110.49
X230.124Y-113.03
X250.952Y-47.498
X250.952Y-51.054
X250.952Y-54.61
X250.952Y-58.166
X250.952Y-61.722
X250.952Y-65.278
X250.952Y-95.758
X250.952Y-99.314
X250.952Y-102.87
X250.952Y-106.426
X250.952Y-109.982
X250.952Y-113.538
X253.492Y-47.498
X253.492Y-51.054
X253.492Y-54.61
X253.492Y-58.166
X253.492Y-61.722
X253.492Y-65.278
X253.492Y-95.758
X253.492Y-99.314
X253.492Y-102.87
X253.492Y-106.426
X253.492Y-109.982
X253.492Y-113.538
T3
X121.92Y-111.125
X214.503Y-121.666
X218.186Y-121.666
X222.123Y-121.666
X230.124Y-59.69
X230.124Y-67.19
X230.124Y-85.21
X230.124Y-92.71
T4
X74.295Y-136.906
X74.295Y-139.446
X97.282Y-136.906
X97.282Y-139.446
X119.42Y-111.125
X122.174Y-102.743
X122.174Y-105.283
X130.302Y-138.303
X132.842Y-138.303
X183.007Y-137.16
X183.007Y-139.7
X205.994Y-103.759
X205.994Y-106.299
T5
X115.316Y-116.84
X124.46Y-68.58
X127.Y-68.58
T6
X117.856Y-116.84
X120.396Y-116.84
X122.936Y-116.84
X125.476Y-116.84
X128.016Y-116.84
X129.54Y-68.58
X130.556Y-116.84
X132.08Y-68.58
X133.096Y-116.84
X134.62Y-68.58
X135.636Y-116.84
X137.16Y-68.58
X138.176Y-116.84
X139.7Y-68.58
X142.24Y-68.58
X142.24Y-116.84
X144.78Y-116.84
X147.32Y-68.58
X147.32Y-116.84
X149.86Y-68.58
X149.86Y-116.84
X152.4Y-68.58
X152.4Y-116.84
X154.94Y-68.58
X154.94Y-116.84
X157.48Y-68.58
X157.48Y-116.84
X160.02Y-68.58
X160.02Y-116.84
X162.56Y-68.58
X165.1Y-68.58
X165.1Y-116.84
X167.64Y-116.84
X170.18Y-68.58
X170.18Y-116.84
X172.72Y-68.58
X172.72Y-116.84
X175.26Y-68.58
X175.26Y-116.84
X177.8Y-68.58
X177.8Y-116.84
X180.34Y-68.58
X180.34Y-116.84
X182.88Y-68.58
X182.88Y-116.84
X185.42Y-68.58
X187.96Y-68.58
X190.5Y-73.66
X190.5Y-76.2
X190.5Y-78.74
X190.5Y-81.28
X190.5Y-83.82
X190.5Y-86.36
X190.5Y-88.9
X190.5Y-91.44
X190.5Y-93.98
X190.5Y-96.52
X190.5Y-99.06
X190.5Y-101.6
X190.5Y-104.14
X190.5Y-106.68
X190.5Y-109.22
X190.5Y-111.76
X190.5Y-114.3
X190.5Y-116.84
X193.04Y-73.66
X193.04Y-76.2
X193.04Y-78.74
X193.04Y-81.28
X193.04Y-83.82
X193.04Y-86.36
X193.04Y-88.9
X193.04Y-91.44
X193.04Y-93.98
X193.04Y-96.52
X193.04Y-99.06
X193.04Y-101.6
X193.04Y-104.14
X193.04Y-106.68
X193.04Y-109.22
X193.04Y-111.76
X193.04Y-114.3
X193.04Y-116.84
T7
X246.32Y-88.078
X249.996Y-91.754
T8
X246.38Y-44.196
X246.38Y-59.436
X246.888Y-78.232
X246.888Y-93.472
X246.888Y-102.616
X246.888Y-117.856
T9
X81.28Y-52.07
X81.28Y-54.57
X81.28Y-57.07
T10
X29.718Y-101.981
X29.718Y-104.521
X29.718Y-107.061
X29.718Y-109.601
X29.718Y-112.141
X30.988Y-101.981
X30.988Y-104.521
X30.988Y-107.061
X30.988Y-109.601
X30.988Y-112.141
X33.655Y-128.27
X33.655Y-130.81
X33.655Y-133.35
X37.465Y-128.27
X37.465Y-130.81
X37.465Y-133.35
X38.1Y-57.15
X38.1Y-59.69
X38.1Y-62.23
X38.1Y-64.77
X38.1Y-67.31
X38.1Y-69.85
X38.1Y-72.39
X38.1Y-74.93
X38.1Y-77.47
X38.1Y-80.01
X38.1Y-82.55
X38.1Y-85.09
X38.1Y-87.63
X38.1Y-90.17
X41.275Y-133.985
X41.275Y-137.795
X43.815Y-133.985
X43.815Y-137.795
X46.355Y-133.985
X46.355Y-137.795
X48.387Y-75.946
X48.387Y-78.486
X48.387Y-81.026
X48.387Y-83.566
X48.387Y-86.106
X48.387Y-88.646
X48.387Y-91.186
X50.165Y-133.985
X50.927Y-75.946
X50.927Y-78.486
X50.927Y-81.026
X50.927Y-83.566
X50.927Y-86.106
X50.927Y-88.646
X50.927Y-91.186
X52.348Y-100.711
X52.348Y-103.251
X52.348Y-105.791
X52.348Y-108.331
X52.348Y-110.871
X52.348Y-113.411
X52.348Y-115.951
X52.705Y-133.985
X53.848Y-100.711
X53.848Y-103.251
X53.848Y-105.791
X53.848Y-108.331
X53.848Y-110.871
X53.848Y-113.411
X53.848Y-115.951
X58.547Y-133.985
X58.547Y-137.668
X61.087Y-133.985
X61.087Y-137.668
X63.627Y-133.985
X63.627Y-137.668
X67.437Y-133.985
X67.437Y-137.668
X68.58Y-62.23
X68.58Y-64.77
X68.58Y-67.31
X68.58Y-69.85
X68.58Y-72.39
X68.58Y-74.93
X68.58Y-77.47
X68.58Y-80.01
X69.977Y-133.985
X69.977Y-137.668
X71.12Y-62.23
X71.12Y-64.77
X71.12Y-67.31
X71.12Y-69.85
X71.12Y-72.39
X71.12Y-74.93
X71.12Y-77.47
X71.12Y-80.01
X73.66Y-62.23
X73.66Y-64.77
X73.66Y-67.31
X73.66Y-69.85
X73.66Y-72.39
X73.66Y-74.93
X73.66Y-77.47
X73.66Y-80.01
X76.2Y-62.23
X76.2Y-64.77
X76.2Y-67.31
X76.2Y-69.85
X76.2Y-72.39
X76.2Y-74.93
X76.2Y-77.47
X76.2Y-80.01
X78.74Y-62.23
X78.74Y-64.77
X78.74Y-67.31
X78.74Y-69.85
X78.74Y-72.39
X78.74Y-74.93
X78.74Y-77.47
X78.74Y-80.01
X81.28Y-62.23
X81.28Y-64.77
X81.28Y-67.31
X81.28Y-69.85
X81.28Y-72.39
X81.28Y-74.93
X81.28Y-77.47
X81.28Y-80.01
X83.82Y-62.23
X83.82Y-64.77
X83.82Y-67.31
X83.82Y-69.85
X83.82Y-72.39
X83.82Y-74.93
X83.82Y-77.47
X83.82Y-80.01
X86.36Y-62.23
X86.36Y-64.77
X86.36Y-67.31
X86.36Y-69.85
X86.36Y-72.39
X86.36Y-74.93
X86.36Y-77.47
X86.36Y-80.01
X107.95Y-52.07
X107.95Y-54.61
X107.95Y-57.15
X116.84Y-52.07
X116.84Y-54.61
X116.84Y-57.15
X125.73Y-52.07
X125.73Y-54.61
X125.73Y-57.15
X125.73Y-113.665
X128.27Y-113.665
X134.62Y-52.07
X134.62Y-54.61
X134.62Y-57.15
X141.478Y-136.906
X143.383Y-124.714
X143.51Y-52.07
X143.51Y-54.61
X143.51Y-57.15
X144.018Y-136.906
X145.923Y-124.714
X148.463Y-124.714
X152.4Y-52.07
X152.4Y-54.61
X152.4Y-57.15
X160.02Y-63.627
X162.56Y-63.627
T11
X109.23Y-106.807
X110.49Y-106.807
X115.57Y-106.807
X116.83Y-106.807
X193.304Y-46.177
X194.564Y-46.177
X199.644Y-46.177
X200.904Y-46.177
X239.268Y-63.5
X239.776Y-93.472
X239.776Y-122.428
X246.888Y-130.048
X247.523Y-136.017
X247.523Y-141.097
X251.968Y-130.048
X252.603Y-136.017
X252.603Y-141.097
T12
X30.48Y-59.69
X30.48Y-62.23
X30.48Y-64.77
X30.48Y-67.31
X30.48Y-69.85
X30.48Y-72.39
X30.48Y-74.93
X30.48Y-77.47
X30.48Y-80.01
X30.48Y-82.55
X36.83Y-36.83
X36.83Y-39.33
X36.83Y-41.83
X36.83Y-44.33
X36.83Y-46.83
X40.869Y-124.435
X43.409Y-121.26
X43.409Y-124.435
X43.409Y-127.61
X43.409Y-130.785
X45.72Y-36.83
X45.72Y-39.33
X45.72Y-41.83
X45.72Y-44.33
X45.72Y-46.83
X45.949Y-121.26
X45.949Y-124.435
X45.949Y-127.61
X45.949Y-130.785
X48.489Y-121.26
X48.489Y-124.435
X48.489Y-127.61
X48.489Y-130.785
X51.029Y-121.26
X51.029Y-124.435
X51.029Y-127.61
X51.029Y-130.785
X53.569Y-121.26
X53.569Y-124.435
X53.569Y-127.61
X53.569Y-130.785
X54.61Y-44.45
X54.61Y-46.95
X54.61Y-49.45
X56.109Y-121.26
X56.109Y-124.435
X56.109Y-127.61
X56.109Y-130.785
X56.109Y-130.785
X56.109Y-130.785
X62.23Y-125.73
X62.23Y-128.27
X63.5Y-36.83
X63.5Y-39.33
X63.5Y-41.83
X63.5Y-44.33
X63.5Y-46.83
X63.5Y-49.33
X64.77Y-125.73
X64.77Y-128.27
X67.31Y-125.73
X67.31Y-128.27
X69.85Y-125.73
X69.85Y-128.27
X72.39Y-36.83
X72.39Y-39.33
X72.39Y-41.83
X72.39Y-44.33
X72.39Y-54.65
X72.39Y-57.15
X81.28Y-36.83
X81.28Y-39.33
X81.28Y-41.83
X81.28Y-44.33
X90.17Y-36.83
X90.17Y-39.33
X90.17Y-41.83
X90.17Y-44.33
X90.17Y-46.83
X90.17Y-49.33
X98.425Y-36.83
X98.425Y-39.33
X98.425Y-41.83
X107.95Y-36.83
X107.95Y-39.33
X107.95Y-41.83
X107.95Y-44.33
X107.95Y-46.83
X118.11Y-36.83
X118.11Y-39.33
X118.11Y-41.83
X118.11Y-44.33
X118.11Y-46.83
X125.73Y-36.83
X125.73Y-39.33
X125.73Y-41.83
X125.73Y-44.33
X125.73Y-46.83
X134.62Y-36.83
X134.62Y-39.33
X134.62Y-41.83
X134.62Y-44.33
X134.62Y-46.83
X143.51Y-36.83
X143.51Y-39.33
X143.51Y-41.83
X143.51Y-44.33
X143.51Y-46.83
X152.4Y-36.83
X152.4Y-39.33
X152.4Y-41.83
X152.4Y-44.33
X152.4Y-46.83
X161.29Y-36.83
X161.29Y-39.33
X161.29Y-41.83
X161.29Y-52.07
X161.29Y-54.57
X161.29Y-57.07
X170.18Y-36.83
X170.18Y-39.33
X170.18Y-41.83
X170.18Y-52.07
X170.18Y-54.57
X170.18Y-57.07
X179.07Y-36.83
X179.07Y-39.33
X179.07Y-41.83
X179.07Y-52.07
X179.07Y-54.57
X179.07Y-57.07
X187.96Y-36.83
X187.96Y-39.33
X187.96Y-41.83
X187.96Y-52.07
X187.96Y-54.57
X187.96Y-57.07
X196.85Y-36.83
X196.85Y-39.33
X196.85Y-41.83
X196.85Y-52.07
X196.85Y-54.57
X196.85Y-57.07
X205.74Y-36.83
X205.74Y-39.33
X205.74Y-41.83
X205.74Y-44.33
X205.74Y-46.83
X205.74Y-55.88
X205.74Y-58.38
X205.74Y-60.88
X214.63Y-36.83
X214.63Y-39.33
X214.63Y-41.83
X214.63Y-44.33
X214.63Y-52.07
X214.63Y-54.57
X214.63Y-57.07
X214.63Y-64.77
X214.63Y-67.27
X214.63Y-69.77
X214.63Y-72.27
X214.63Y-81.28
X214.63Y-83.78
X214.63Y-86.28
X222.25Y-36.83
X222.25Y-39.33
X222.25Y-41.83
X222.25Y-44.33
X222.25Y-52.07
X222.25Y-54.57
X222.25Y-57.07
X222.25Y-59.57
X222.25Y-67.31
X222.25Y-69.81
X222.25Y-72.31
X222.25Y-81.28
X222.25Y-83.78
X234.95Y-59.279
X234.95Y-102.332
X240.03Y-59.279
X240.03Y-102.332
T13
X201.422Y-116.967
X203.962Y-116.967
X206.502Y-116.967
X243.713Y-136.017
X243.713Y-138.557
X243.713Y-141.097
T14
X214.503Y-115.951
X214.503Y-131.191
X214.503Y-136.271
X214.503Y-141.351
X222.123Y-115.951
X222.123Y-131.191
X222.123Y-136.271
X222.123Y-141.351
X239.268Y-38.501
X239.776Y-68.473
X239.776Y-97.429
T15
X201.93Y-126.619
X207.01Y-126.619
X235.157Y-128.016
X240.157Y-128.016
X260.731Y-34.37
X260.731Y-39.37
X260.731Y-44.53
X260.731Y-49.53
X260.731Y-54.69
X260.731Y-59.69
X260.731Y-82.63
X260.731Y-87.63
X260.731Y-92.79
X260.731Y-97.79
X260.731Y-102.95
X260.731Y-107.95
X261.112Y-67.31
X261.112Y-72.39
X261.112Y-115.57
X261.112Y-120.65
T16
X227.838Y-135.636
X230.378Y-135.636
X235.458Y-135.636
X237.998Y-135.636
X257.175Y-133.985
X259.715Y-133.985
X264.795Y-133.985
X267.335Y-133.985
T17
X232.633Y-119.761
X232.76Y-37.211
X232.76Y-41.529
X232.76Y-71.12
X232.76Y-84.201
X232.76Y-115.316
X235.935Y-75.565
X235.935Y-106.807
X236.062Y-33.147
X236.062Y-62.611
X236.062Y-66.802
X236.062Y-79.756
X236.062Y-124.46
X236.443Y-111.76
X244.633Y-119.761
X244.76Y-37.211
X244.76Y-41.529
X244.76Y-71.12
X244.76Y-84.201
X244.76Y-115.316
X247.935Y-75.565
X247.935Y-106.807
X248.062Y-33.147
X248.062Y-62.611
X248.062Y-66.802
X248.062Y-79.756
X248.062Y-124.46
X248.443Y-111.76
T18
X204.343Y-93.853
X204.343Y-109.601
X222.123Y-93.853
X222.123Y-109.601
X252.031Y-35.496
X252.031Y-76.263
X252.031Y-83.757
X252.031Y-124.523
T19
X227.914Y-130.632
X227.914Y-140.64
X237.922Y-130.632
X237.922Y-140.64
X257.251Y-128.981
X257.251Y-138.989
X267.259Y-128.981
X267.259Y-138.989
T20
X54.367Y-39.326
X54.367Y-97.326
X103.367Y-39.326
X103.367Y-97.326
T21
X188.224Y-139.817
T22
X110.49Y-68.58
X111.76Y-116.84
X186.69Y-116.84
X193.04Y-68.58
T23
X30.48Y-33.02
X30.48Y-87.63
X30.48Y-142.24
X30.848Y-95.521
X129.794Y-44.196
X138.684Y-44.196
X148.59Y-33.02
X148.59Y-137.541
X156.591Y-44.196
X165.481Y-44.196
X266.7Y-33.02
X266.7Y-87.63
X266.7Y-142.24
X272.415Y-133.985
X281.305Y-133.985
T24
X18.415Y-40.64
X18.415Y-87.63
X18.415Y-124.46
X278.765Y-40.64
X278.765Y-87.63
X278.765Y-124.46
T25
X113.411Y-36.703
X113.411Y-95.123
X201.041Y-36.703
X201.041Y-95.123
T15
X199.09Y-126.619G85X199.69Y-126.619
G05
X199.09Y-126.619G85X199.69Y-126.619
G05
X261.112Y-75.23G85X261.112Y-74.63
G05
X261.112Y-75.23G85X261.112Y-74.63
G05
X261.112Y-123.49G85X261.112Y-122.89
G05
X261.112Y-123.49G85X261.112Y-122.89
G05
T0
M30
