G04 #@! TF.GenerationSoftware,KiCad,Pcbnew,(2017-02-19 revision a416f3a4e)-master*
G04 #@! TF.CreationDate,2017-04-26T11:10:12+02:00*
G04 #@! TF.ProjectId,ardumower mega shield svn,617264756D6F776572206D6567612073,1.3*
G04 #@! TF.FileFunction,Paste,Top*
G04 #@! TF.FilePolarity,Positive*
%FSLAX46Y46*%
G04 Gerber Fmt 4.6, Leading zero omitted, Abs format (unit mm)*
G04 Created by KiCad (PCBNEW (2017-02-19 revision a416f3a4e)-master) date 04/26/17 11:10:12*
%MOMM*%
%LPD*%
G01*
G04 APERTURE LIST*
%ADD10C,0.100000*%
%ADD11R,2.500000X1.800000*%
%ADD12R,1.600200X1.168400*%
%ADD13R,0.800100X0.800100*%
%ADD14R,1.250000X1.000000*%
%ADD15R,1.597660X1.800860*%
%ADD16R,4.191000X3.556000*%
%ADD17R,1.981200X0.558800*%
%ADD18R,1.699260X1.300480*%
%ADD19R,4.600000X1.390000*%
%ADD20R,9.400000X10.800000*%
%ADD21R,0.660400X2.032000*%
%ADD22R,1.300480X1.699260*%
%ADD23R,1.000000X1.250000*%
%ADD24R,1.000000X1.600000*%
%ADD25R,1.600000X1.000000*%
%ADD26R,1.950000X0.600000*%
%ADD27R,0.900000X0.500000*%
%ADD28R,0.500000X0.900000*%
%ADD29R,0.600000X0.800000*%
%ADD30R,0.800000X0.600000*%
%ADD31R,0.800000X0.900000*%
%ADD32R,0.900000X1.700000*%
%ADD33R,1.700000X0.900000*%
G04 APERTURE END LIST*
D10*
D11*
X135477000Y-73914000D03*
X131477000Y-73914000D03*
X122714000Y-132588000D03*
X126714000Y-132588000D03*
D12*
X174371000Y-46482000D03*
X174371000Y-44958000D03*
D13*
X170561000Y-137050780D03*
X171511000Y-139049760D03*
X169611000Y-139049760D03*
D14*
X126238000Y-138319000D03*
X126238000Y-140319000D03*
X99060000Y-131842000D03*
X99060000Y-133842000D03*
X94996000Y-133842000D03*
X94996000Y-131842000D03*
X122555000Y-127397000D03*
X122555000Y-129397000D03*
D15*
X196446140Y-139954000D03*
X199285860Y-139954000D03*
D16*
X135128000Y-132588000D03*
X141478000Y-132588000D03*
D17*
X101523800Y-60325000D03*
X101523800Y-61595000D03*
X101523800Y-62865000D03*
X101523800Y-64135000D03*
X96596200Y-64135000D03*
X96596200Y-62865000D03*
X96596200Y-61595000D03*
X96596200Y-60325000D03*
X110413800Y-60325000D03*
X110413800Y-61595000D03*
X110413800Y-62865000D03*
X110413800Y-64135000D03*
X105486200Y-64135000D03*
X105486200Y-62865000D03*
X105486200Y-61595000D03*
X105486200Y-60325000D03*
X119303800Y-60325000D03*
X119303800Y-61595000D03*
X119303800Y-62865000D03*
X119303800Y-64135000D03*
X114376200Y-64135000D03*
X114376200Y-62865000D03*
X114376200Y-61595000D03*
X114376200Y-60325000D03*
X123266200Y-60325000D03*
X123266200Y-61595000D03*
X123266200Y-62865000D03*
X123266200Y-64135000D03*
X128193800Y-64135000D03*
X128193800Y-62865000D03*
X128193800Y-61595000D03*
X128193800Y-60325000D03*
X137083800Y-60325000D03*
X137083800Y-61595000D03*
X137083800Y-62865000D03*
X137083800Y-64135000D03*
X132156200Y-64135000D03*
X132156200Y-62865000D03*
X132156200Y-61595000D03*
X132156200Y-60325000D03*
X141046200Y-60325000D03*
X141046200Y-61595000D03*
X141046200Y-62865000D03*
X141046200Y-64135000D03*
X145973800Y-64135000D03*
X145973800Y-62865000D03*
X145973800Y-61595000D03*
X145973800Y-60325000D03*
X149936200Y-60325000D03*
X149936200Y-61595000D03*
X149936200Y-62865000D03*
X149936200Y-64135000D03*
X154863800Y-64135000D03*
X154863800Y-62865000D03*
X154863800Y-61595000D03*
X154863800Y-60325000D03*
D13*
X184673240Y-108651000D03*
X184673240Y-110551000D03*
X186672220Y-109601000D03*
X186545220Y-103378000D03*
X184546240Y-104328000D03*
X184546240Y-102428000D03*
X184546240Y-96713000D03*
X184546240Y-98613000D03*
X186545220Y-97663000D03*
X49022000Y-100728780D03*
X49972000Y-102727760D03*
X48072000Y-102727760D03*
X40782240Y-95570000D03*
X40782240Y-97470000D03*
X42781220Y-96520000D03*
X42781220Y-101600000D03*
X40782240Y-102550000D03*
X40782240Y-100650000D03*
X40782240Y-104333000D03*
X40782240Y-106233000D03*
X42781220Y-105283000D03*
D18*
X179197000Y-130583940D03*
X179197000Y-134084060D03*
D19*
X114554000Y-135763000D03*
D20*
X105404000Y-135763000D03*
D19*
X114554000Y-133223000D03*
X114554000Y-138303000D03*
X90678000Y-138430000D03*
X90678000Y-133350000D03*
D20*
X81528000Y-135890000D03*
D19*
X90678000Y-135890000D03*
D15*
X65554860Y-104140000D03*
X62715140Y-104140000D03*
X62715140Y-107950000D03*
X65554860Y-107950000D03*
X65554860Y-96520000D03*
X62715140Y-96520000D03*
X62715140Y-85090000D03*
X65554860Y-85090000D03*
X65554860Y-100330000D03*
X62715140Y-100330000D03*
X62715140Y-88900000D03*
X65554860Y-88900000D03*
X65554860Y-92710000D03*
X62715140Y-92710000D03*
D13*
X161907220Y-135509000D03*
X159908240Y-136459000D03*
X159908240Y-134559000D03*
X162702240Y-139385000D03*
X162702240Y-141285000D03*
X164701220Y-140335000D03*
X61722000Y-69105780D03*
X62672000Y-71104760D03*
X60772000Y-71104760D03*
D21*
X165100000Y-109753400D03*
X166370000Y-109753400D03*
X167640000Y-109753400D03*
X168910000Y-109753400D03*
X170180000Y-109753400D03*
X171450000Y-109753400D03*
X172720000Y-109753400D03*
X172720000Y-103606600D03*
X171450000Y-103606600D03*
X170180000Y-103606600D03*
X168910000Y-103606600D03*
X167640000Y-103606600D03*
X166370000Y-103606600D03*
X165100000Y-103606600D03*
X161925000Y-103606600D03*
X160655000Y-103606600D03*
X159385000Y-103606600D03*
X158115000Y-103606600D03*
X156845000Y-103606600D03*
X155575000Y-103606600D03*
X154305000Y-103606600D03*
X153035000Y-103606600D03*
X153035000Y-109753400D03*
X154305000Y-109753400D03*
X155575000Y-109753400D03*
X156845000Y-109753400D03*
X158115000Y-109753400D03*
X159385000Y-109753400D03*
X160655000Y-109753400D03*
X161925000Y-109753400D03*
X135255000Y-109753400D03*
X133985000Y-109753400D03*
X132715000Y-109753400D03*
X131445000Y-109753400D03*
X130175000Y-109753400D03*
X128905000Y-109753400D03*
X127635000Y-109753400D03*
X126365000Y-109753400D03*
X126365000Y-103606600D03*
X127635000Y-103606600D03*
X128905000Y-103606600D03*
X130175000Y-103606600D03*
X131445000Y-103606600D03*
X132715000Y-103606600D03*
X133985000Y-103606600D03*
X135255000Y-103606600D03*
X149225000Y-103606600D03*
X147955000Y-103606600D03*
X146685000Y-103606600D03*
X145415000Y-103606600D03*
X144145000Y-103606600D03*
X142875000Y-103606600D03*
X141605000Y-103606600D03*
X140335000Y-103606600D03*
X140335000Y-109753400D03*
X141605000Y-109753400D03*
X142875000Y-109753400D03*
X144145000Y-109753400D03*
X145415000Y-109753400D03*
X146685000Y-109753400D03*
X147955000Y-109753400D03*
X149225000Y-109753400D03*
D14*
X160274000Y-114030000D03*
X160274000Y-112030000D03*
X137414000Y-107712000D03*
X137414000Y-109712000D03*
X151130000Y-109712000D03*
X151130000Y-107712000D03*
X157988000Y-112030000D03*
X157988000Y-114030000D03*
D22*
X201449940Y-113030000D03*
X204950060Y-113030000D03*
D23*
X48784000Y-52324000D03*
X50784000Y-52324000D03*
D13*
X75057000Y-92346780D03*
X76007000Y-94345760D03*
X74107000Y-94345760D03*
X70170000Y-94345760D03*
X72070000Y-94345760D03*
X71120000Y-92346780D03*
X78613000Y-87647780D03*
X79563000Y-89646760D03*
X77663000Y-89646760D03*
X73853000Y-89646760D03*
X75753000Y-89646760D03*
X74803000Y-87647780D03*
X75057000Y-83583780D03*
X76007000Y-85582760D03*
X74107000Y-85582760D03*
X70297000Y-85582760D03*
X72197000Y-85582760D03*
X71247000Y-83583780D03*
X143068000Y-94726760D03*
X144968000Y-94726760D03*
X144018000Y-92727780D03*
X147828000Y-92727780D03*
X148778000Y-94726760D03*
X146878000Y-94726760D03*
X57851000Y-58658760D03*
X59751000Y-58658760D03*
X58801000Y-56659780D03*
X62484000Y-56659780D03*
X63434000Y-58658760D03*
X61534000Y-58658760D03*
X95951000Y-126095760D03*
X97851000Y-126095760D03*
X96901000Y-124096780D03*
X96901000Y-127652780D03*
X97851000Y-129651760D03*
X95951000Y-129651760D03*
X83454240Y-127701000D03*
X83454240Y-129601000D03*
X85453220Y-128651000D03*
X84455000Y-124096780D03*
X85405000Y-126095760D03*
X83505000Y-126095760D03*
X115890000Y-127365760D03*
X117790000Y-127365760D03*
X116840000Y-125366780D03*
X106426000Y-125366780D03*
X107376000Y-127365760D03*
X105476000Y-127365760D03*
X152890220Y-86106000D03*
X150891240Y-87056000D03*
X150891240Y-85156000D03*
X158496000Y-87647780D03*
X159446000Y-89646760D03*
X157546000Y-89646760D03*
X144000220Y-85979000D03*
X142001240Y-86929000D03*
X142001240Y-85029000D03*
D24*
X102132000Y-57150000D03*
X105132000Y-57150000D03*
X110895000Y-57150000D03*
X113895000Y-57150000D03*
X122785000Y-57150000D03*
X119785000Y-57150000D03*
X93623000Y-57150000D03*
X96623000Y-57150000D03*
X131802000Y-57277000D03*
X128802000Y-57277000D03*
X137692000Y-57150000D03*
X140692000Y-57150000D03*
X149582000Y-57150000D03*
X146582000Y-57150000D03*
X110895000Y-54610000D03*
X113895000Y-54610000D03*
X119785000Y-54610000D03*
X122785000Y-54610000D03*
X131802000Y-54610000D03*
X128802000Y-54610000D03*
X137692000Y-54610000D03*
X140692000Y-54610000D03*
X149582000Y-54610000D03*
X146582000Y-54610000D03*
X102132000Y-54610000D03*
X105132000Y-54610000D03*
X96623000Y-54610000D03*
X93623000Y-54610000D03*
X51030000Y-96774000D03*
X48030000Y-96774000D03*
D25*
X38100000Y-136168000D03*
X38100000Y-139168000D03*
X59563000Y-125627000D03*
X59563000Y-128627000D03*
D24*
X44934000Y-54737000D03*
X41934000Y-54737000D03*
D26*
X46100000Y-72390000D03*
X46100000Y-71120000D03*
X46100000Y-69850000D03*
X46100000Y-68580000D03*
X46100000Y-67310000D03*
X46100000Y-66040000D03*
X46100000Y-64770000D03*
X46100000Y-63500000D03*
X46100000Y-62230000D03*
X46100000Y-60960000D03*
X55500000Y-60960000D03*
X55500000Y-62230000D03*
X55500000Y-63500000D03*
X55500000Y-64770000D03*
X55500000Y-66040000D03*
X55500000Y-67310000D03*
X55500000Y-68580000D03*
X55500000Y-69850000D03*
X55500000Y-71120000D03*
X55500000Y-72390000D03*
D27*
X145923000Y-76466000D03*
X145923000Y-77966000D03*
X99314000Y-54725000D03*
X99314000Y-53225000D03*
X129159000Y-76974000D03*
X129159000Y-78474000D03*
X85344000Y-44716000D03*
X85344000Y-46216000D03*
X183578500Y-62813500D03*
X183578500Y-64313500D03*
X210312000Y-43295000D03*
X210312000Y-41795000D03*
X123698000Y-78474000D03*
X123698000Y-76974000D03*
X118110000Y-76974000D03*
X118110000Y-78474000D03*
X114300000Y-76847000D03*
X114300000Y-78347000D03*
D28*
X210959000Y-76454000D03*
X212459000Y-76454000D03*
D27*
X209042000Y-89142000D03*
X209042000Y-87642000D03*
X210312000Y-49518000D03*
X210312000Y-48018000D03*
X204089000Y-69965000D03*
X204089000Y-68465000D03*
X201041000Y-41922000D03*
X201041000Y-43422000D03*
X203581000Y-66790000D03*
X203581000Y-65290000D03*
D28*
X87110000Y-53848000D03*
X85610000Y-53848000D03*
D27*
X173926500Y-62750000D03*
X173926500Y-64250000D03*
X58674000Y-49415000D03*
X58674000Y-50915000D03*
D28*
X56654000Y-35052000D03*
X58154000Y-35052000D03*
D27*
X143891000Y-75831000D03*
X143891000Y-77331000D03*
X140208000Y-77331000D03*
X140208000Y-75831000D03*
X154940000Y-77204000D03*
X154940000Y-75704000D03*
X160528000Y-75831000D03*
X160528000Y-77331000D03*
X85344000Y-36056000D03*
X85344000Y-34556000D03*
D28*
X90182000Y-53848000D03*
X91682000Y-53848000D03*
D27*
X51435000Y-57900000D03*
X51435000Y-56400000D03*
X132842000Y-78474000D03*
X132842000Y-76974000D03*
X94107000Y-34556000D03*
X94107000Y-36056000D03*
X139827000Y-86729000D03*
X139827000Y-85229000D03*
X146177000Y-85229000D03*
X146177000Y-86729000D03*
X148844000Y-86729000D03*
X148844000Y-85229000D03*
X154686000Y-86856000D03*
X154686000Y-85356000D03*
X161163000Y-87896000D03*
X161163000Y-89396000D03*
X163068000Y-89396000D03*
X163068000Y-87896000D03*
D28*
X182868000Y-110490000D03*
X181368000Y-110490000D03*
X186424000Y-106426000D03*
X184924000Y-106426000D03*
X181368000Y-104267000D03*
X182868000Y-104267000D03*
D27*
X130175000Y-48526000D03*
X130175000Y-50026000D03*
D28*
X180352000Y-106426000D03*
X181852000Y-106426000D03*
X181368000Y-98552000D03*
X182868000Y-98552000D03*
X180352000Y-100711000D03*
X181852000Y-100711000D03*
X208292000Y-113030000D03*
X209792000Y-113030000D03*
X113907000Y-127381000D03*
X112407000Y-127381000D03*
D27*
X109220000Y-125869000D03*
X109220000Y-127369000D03*
D28*
X113907000Y-125603000D03*
X112407000Y-125603000D03*
D27*
X88646000Y-125718000D03*
X88646000Y-124218000D03*
X99695000Y-124218000D03*
X99695000Y-125718000D03*
X99695000Y-128766000D03*
X99695000Y-127266000D03*
D28*
X93968000Y-128143000D03*
X92468000Y-128143000D03*
X87134000Y-127762000D03*
X88634000Y-127762000D03*
X93968000Y-126111000D03*
X92468000Y-126111000D03*
X81649000Y-129159000D03*
X80149000Y-129159000D03*
X90690000Y-124206000D03*
X92190000Y-124206000D03*
X49772000Y-104775000D03*
X48272000Y-104775000D03*
X44716000Y-102235000D03*
X46216000Y-102235000D03*
D27*
X38608000Y-95770000D03*
X38608000Y-97270000D03*
X38481000Y-100850000D03*
X38481000Y-102350000D03*
X38481000Y-104533000D03*
X38481000Y-106033000D03*
D28*
X46216000Y-96520000D03*
X44716000Y-96520000D03*
X44716000Y-98933000D03*
X46216000Y-98933000D03*
X47891000Y-98933000D03*
X49391000Y-98933000D03*
D27*
X60833000Y-66052000D03*
X60833000Y-67552000D03*
D28*
X85737000Y-58039000D03*
X87237000Y-58039000D03*
X85737000Y-56261000D03*
X87237000Y-56261000D03*
D27*
X164465000Y-79744000D03*
X164465000Y-78244000D03*
D28*
X207720500Y-80772000D03*
X209220500Y-80772000D03*
D29*
X211924000Y-91313000D03*
X210224000Y-91313000D03*
X214161000Y-76454000D03*
X215861000Y-76454000D03*
D30*
X138430000Y-82511000D03*
X138430000Y-80811000D03*
X141986000Y-82511000D03*
X141986000Y-80811000D03*
D29*
X168617000Y-132969000D03*
X166917000Y-132969000D03*
X175856000Y-132715000D03*
X174156000Y-132715000D03*
X187921000Y-121793000D03*
X186221000Y-121793000D03*
X172300000Y-134747000D03*
X170600000Y-134747000D03*
D30*
X140208000Y-78779000D03*
X140208000Y-80479000D03*
X143891000Y-78779000D03*
X143891000Y-80479000D03*
D29*
X207620500Y-85026500D03*
X209320500Y-85026500D03*
X207620500Y-82677000D03*
X209320500Y-82677000D03*
D30*
X178689000Y-84035000D03*
X178689000Y-82335000D03*
X180467000Y-84860500D03*
X180467000Y-83160500D03*
X176911000Y-84860500D03*
X176911000Y-83160500D03*
X175133000Y-84035000D03*
X175133000Y-82335000D03*
X173355000Y-84860500D03*
X173355000Y-83160500D03*
X127254000Y-84162000D03*
X127254000Y-82462000D03*
X134874000Y-85305000D03*
X134874000Y-83605000D03*
X171577000Y-84035000D03*
X171577000Y-82335000D03*
X125476000Y-83400000D03*
X125476000Y-81700000D03*
X136652000Y-82716000D03*
X136652000Y-84416000D03*
X169799000Y-84860500D03*
X169799000Y-83160500D03*
X168021000Y-84035000D03*
X168021000Y-82335000D03*
X180467000Y-77685000D03*
X180467000Y-75985000D03*
X178689000Y-76796000D03*
X178689000Y-75096000D03*
X176911000Y-75985000D03*
X176911000Y-77685000D03*
X175133000Y-76796000D03*
X175133000Y-75096000D03*
X173355000Y-75985000D03*
X173355000Y-77685000D03*
X171577000Y-75096000D03*
X171577000Y-76796000D03*
X169799000Y-75985000D03*
X169799000Y-77685000D03*
X168021000Y-75096000D03*
X168021000Y-76796000D03*
X166243000Y-75985000D03*
X166243000Y-77685000D03*
X164465000Y-75096000D03*
X164465000Y-76796000D03*
X162687000Y-83160500D03*
X162687000Y-84860500D03*
X160909000Y-82335000D03*
X160909000Y-84035000D03*
X166243000Y-83160500D03*
X166243000Y-84860500D03*
X164465000Y-82335000D03*
X164465000Y-84035000D03*
X153162000Y-77382000D03*
X153162000Y-79082000D03*
X151384000Y-76493000D03*
X151384000Y-78193000D03*
X145923000Y-80811000D03*
X145923000Y-82511000D03*
X148463000Y-76493000D03*
X148463000Y-78193000D03*
D29*
X180506000Y-79629000D03*
X182206000Y-79629000D03*
D30*
X182245000Y-75096000D03*
X182245000Y-76796000D03*
X129159000Y-80811000D03*
X129159000Y-82511000D03*
X127254000Y-80733000D03*
X127254000Y-79033000D03*
X159131000Y-83160500D03*
X159131000Y-84860500D03*
X157353000Y-82335000D03*
X157353000Y-84035000D03*
X114300000Y-80811000D03*
X114300000Y-82511000D03*
X112395000Y-78525000D03*
X112395000Y-80225000D03*
X158750000Y-77382000D03*
X158750000Y-79082000D03*
X156972000Y-78193000D03*
X156972000Y-76493000D03*
X118110000Y-82511000D03*
X118110000Y-80811000D03*
X116205000Y-80225000D03*
X116205000Y-78525000D03*
X132842000Y-80811000D03*
X132842000Y-82511000D03*
X131064000Y-79033000D03*
X131064000Y-80733000D03*
X123698000Y-80811000D03*
X123698000Y-82511000D03*
X121793000Y-78525000D03*
X121793000Y-80225000D03*
D27*
X119634000Y-127369000D03*
X119634000Y-125869000D03*
D28*
X113145000Y-52070000D03*
X111645000Y-52070000D03*
D27*
X112395000Y-50026000D03*
X112395000Y-48526000D03*
X121793000Y-45073000D03*
X121793000Y-43573000D03*
D28*
X122035000Y-52070000D03*
X120535000Y-52070000D03*
D27*
X138811000Y-50026000D03*
X138811000Y-48526000D03*
D28*
X130925000Y-52070000D03*
X129425000Y-52070000D03*
X139942000Y-51943000D03*
X138442000Y-51943000D03*
D27*
X147828000Y-48399000D03*
X147828000Y-49899000D03*
D28*
X147332000Y-52070000D03*
X148832000Y-52070000D03*
D27*
X191770000Y-38620000D03*
X191770000Y-40120000D03*
X182880000Y-40120000D03*
X182880000Y-38620000D03*
X174625000Y-38620000D03*
X174625000Y-40120000D03*
D28*
X104382000Y-52070000D03*
X102882000Y-52070000D03*
D27*
X103124000Y-50026000D03*
X103124000Y-48526000D03*
D31*
X173355000Y-87646000D03*
X174305000Y-89646000D03*
X172405000Y-89646000D03*
D27*
X176276000Y-89396000D03*
X176276000Y-87896000D03*
X178689000Y-89396000D03*
X178689000Y-87896000D03*
D31*
X166751000Y-87646000D03*
X167701000Y-89646000D03*
X165801000Y-89646000D03*
D27*
X169545000Y-87896000D03*
X169545000Y-89396000D03*
X167132000Y-92976000D03*
X167132000Y-94476000D03*
D31*
X170053000Y-92853000D03*
X171003000Y-94853000D03*
X169103000Y-94853000D03*
D27*
X173101000Y-94603000D03*
X173101000Y-93103000D03*
X175641000Y-94603000D03*
X175641000Y-93103000D03*
D32*
X176964000Y-139954000D03*
X174064000Y-139954000D03*
X176964000Y-137287000D03*
X174064000Y-137287000D03*
X217096000Y-98933000D03*
X214196000Y-98933000D03*
X217096000Y-101600000D03*
X214196000Y-101600000D03*
X40460000Y-69850000D03*
X43360000Y-69850000D03*
X40460000Y-72390000D03*
X43360000Y-72390000D03*
X40460000Y-64770000D03*
X43360000Y-64770000D03*
X40460000Y-74930000D03*
X43360000Y-74930000D03*
X43360000Y-77470000D03*
X40460000Y-77470000D03*
X43360000Y-67310000D03*
X40460000Y-67310000D03*
X43360000Y-62230000D03*
X40460000Y-62230000D03*
X70665000Y-100330000D03*
X67765000Y-100330000D03*
X148770000Y-97155000D03*
X145870000Y-97155000D03*
D33*
X68072000Y-94541000D03*
X68072000Y-91641000D03*
D32*
X67765000Y-96520000D03*
X70665000Y-96520000D03*
X72464000Y-96520000D03*
X75364000Y-96520000D03*
D33*
X70739000Y-90223000D03*
X70739000Y-87323000D03*
D32*
X141806000Y-89789000D03*
X144706000Y-89789000D03*
X80952000Y-92837000D03*
X78052000Y-92837000D03*
D33*
X68072000Y-86540000D03*
X68072000Y-83640000D03*
D32*
X67765000Y-104140000D03*
X70665000Y-104140000D03*
X70665000Y-107950000D03*
X67765000Y-107950000D03*
D33*
X53530500Y-55700000D03*
X53530500Y-58600000D03*
X79121000Y-83005000D03*
X79121000Y-85905000D03*
X55880000Y-55700000D03*
X55880000Y-58600000D03*
X163957000Y-136451000D03*
X163957000Y-133551000D03*
X160274000Y-141277000D03*
X160274000Y-138377000D03*
D32*
X173810000Y-134747000D03*
X176710000Y-134747000D03*
X169365000Y-126746000D03*
X172265000Y-126746000D03*
X169344000Y-129286000D03*
X166444000Y-129286000D03*
X169238000Y-140970000D03*
X172138000Y-140970000D03*
D33*
X167259000Y-141023000D03*
X167259000Y-138123000D03*
X181737000Y-133657000D03*
X181737000Y-130757000D03*
D31*
X179197000Y-62246000D03*
X180147000Y-64246000D03*
X178247000Y-64246000D03*
D27*
X181864000Y-62813500D03*
X181864000Y-64313500D03*
X185293000Y-64313500D03*
X185293000Y-62813500D03*
D31*
X169545000Y-62246000D03*
X170495000Y-64246000D03*
X168595000Y-64246000D03*
D27*
X172212000Y-62750000D03*
X172212000Y-64250000D03*
X175895000Y-64250000D03*
X175895000Y-62750000D03*
X99695000Y-50026000D03*
X99695000Y-48526000D03*
X97917000Y-48526000D03*
X97917000Y-50026000D03*
X96139000Y-50026000D03*
X96139000Y-48526000D03*
X94361000Y-48526000D03*
X94361000Y-50026000D03*
X58674000Y-47105000D03*
X58674000Y-45605000D03*
X58674000Y-41009000D03*
X58674000Y-39509000D03*
X210312000Y-52820000D03*
X210312000Y-51320000D03*
X210312000Y-56249000D03*
X210312000Y-54749000D03*
D28*
X183884000Y-121793000D03*
X182384000Y-121793000D03*
D33*
X30480000Y-52525000D03*
X30480000Y-55425000D03*
D30*
X143510000Y-98259000D03*
X143510000Y-96559000D03*
D31*
X137541000Y-92853000D03*
X138491000Y-94853000D03*
X136591000Y-94853000D03*
D27*
X140843000Y-93230000D03*
X140843000Y-94730000D03*
X141478000Y-96786000D03*
X141478000Y-98286000D03*
D29*
X135802000Y-97028000D03*
X137502000Y-97028000D03*
D27*
X134493000Y-94349000D03*
X134493000Y-92849000D03*
M02*
