G04 #@! TF.GenerationSoftware,KiCad,Pcbnew,(2017-02-19 revision a416f3a4e)-master*
G04 #@! TF.CreationDate,2017-04-26T11:10:12+02:00*
G04 #@! TF.ProjectId,ardumower mega shield svn,617264756D6F776572206D6567612073,1.3*
G04 #@! TF.FileFunction,Soldermask,Top*
G04 #@! TF.FilePolarity,Negative*
%FSLAX46Y46*%
G04 Gerber Fmt 4.6, Leading zero omitted, Abs format (unit mm)*
G04 Created by KiCad (PCBNEW (2017-02-19 revision a416f3a4e)-master) date 04/26/17 11:10:12*
%MOMM*%
%LPD*%
G01*
G04 APERTURE LIST*
%ADD10C,0.100000*%
%ADD11R,2.500000X1.800000*%
%ADD12O,1.727200X2.032000*%
%ADD13C,2.750000*%
%ADD14C,2.000000*%
%ADD15C,1.524000*%
%ADD16R,1.600200X1.168400*%
%ADD17O,1.524000X2.540000*%
%ADD18C,3.937000*%
%ADD19R,1.700000X1.700000*%
%ADD20O,1.700000X1.700000*%
%ADD21R,0.800100X0.800100*%
%ADD22R,2.499360X1.501140*%
%ADD23O,2.499360X1.501140*%
%ADD24R,1.300000X1.300000*%
%ADD25C,1.300000*%
%ADD26C,1.998980*%
%ADD27C,2.301240*%
%ADD28C,1.501140*%
%ADD29C,3.200000*%
%ADD30C,10.000000*%
%ADD31C,2.500000*%
%ADD32R,2.500000X2.500000*%
%ADD33R,2.600000X2.600000*%
%ADD34C,2.600000*%
%ADD35C,3.100000*%
%ADD36C,2.999740*%
%ADD37R,1.250000X1.000000*%
%ADD38R,1.597660X1.800860*%
%ADD39R,4.191000X3.556000*%
%ADD40R,2.381200X0.958800*%
%ADD41R,1.699260X1.300480*%
%ADD42R,4.600000X1.390000*%
%ADD43R,9.400000X10.800000*%
%ADD44O,2.032000X2.540000*%
%ADD45O,2.540000X2.032000*%
%ADD46O,2.032000X1.727200*%
%ADD47R,2.032000X1.727200*%
%ADD48R,1.720000X1.720000*%
%ADD49O,2.032000X1.720000*%
%ADD50O,2.023000X1.720000*%
%ADD51R,2.032000X1.720000*%
%ADD52R,2.032000X1.700000*%
%ADD53O,2.032000X1.710000*%
%ADD54R,2.032000X1.710000*%
%ADD55R,0.660400X2.032000*%
%ADD56R,1.300480X1.699260*%
%ADD57R,1.000000X1.250000*%
%ADD58C,2.400000*%
%ADD59R,1.000000X1.600000*%
%ADD60R,1.600000X1.000000*%
%ADD61R,1.950000X0.600000*%
%ADD62R,0.900000X0.500000*%
%ADD63R,0.500000X0.900000*%
%ADD64R,0.600000X0.800000*%
%ADD65R,0.800000X0.600000*%
%ADD66R,0.800000X0.900000*%
%ADD67R,0.900000X1.700000*%
%ADD68R,1.700000X0.900000*%
%ADD69R,1.524000X1.524000*%
%ADD70O,1.727200X1.727200*%
%ADD71C,1.727200*%
%ADD72R,1.501140X2.499360*%
%ADD73O,1.501140X2.499360*%
%ADD74R,1.600000X1.600000*%
%ADD75O,1.600000X1.600000*%
G04 APERTURE END LIST*
D10*
G36*
X173456600Y-45643800D02*
X173456600Y-45796200D01*
X175285400Y-45796200D01*
X175285400Y-45643800D01*
X173456600Y-45643800D01*
G37*
D11*
X135477000Y-73914000D03*
X131477000Y-73914000D03*
X122714000Y-132588000D03*
X126714000Y-132588000D03*
D12*
X43408600Y-121259600D03*
X45948600Y-121259600D03*
X48488600Y-121259600D03*
X51028600Y-121259600D03*
X53568600Y-121259600D03*
X56108600Y-121259600D03*
X40868600Y-124434600D03*
X43408600Y-124434600D03*
X45948600Y-124434600D03*
X48488600Y-124434600D03*
X51028600Y-124434600D03*
X53568600Y-124434600D03*
X56108600Y-124434600D03*
X43408600Y-130784600D03*
X45948600Y-130784600D03*
X48488600Y-130784600D03*
X51028600Y-130784600D03*
X53568600Y-130784600D03*
X56108600Y-130784600D03*
X56108600Y-130784600D03*
X56108600Y-130784600D03*
X56108600Y-127609600D03*
X53568600Y-127609600D03*
X51028600Y-127609600D03*
X48488600Y-127609600D03*
X45948600Y-127609600D03*
X43408600Y-127609600D03*
D13*
X54367000Y-97326000D03*
X103367000Y-39326000D03*
X103367000Y-97326000D03*
X54367000Y-39326000D03*
D14*
X252031500Y-35496500D03*
X252031500Y-76263500D03*
D15*
X230124000Y-39370000D03*
X230124000Y-41910000D03*
X230124000Y-49530000D03*
X230124000Y-52070000D03*
X230124000Y-54610000D03*
X230124000Y-62230000D03*
X230124000Y-64770000D03*
X250952000Y-47498000D03*
X250952000Y-51054000D03*
X250952000Y-54610000D03*
X250952000Y-58166000D03*
X250952000Y-61722000D03*
X250952000Y-65278000D03*
X227584000Y-34290000D03*
X227584000Y-36830000D03*
X227584000Y-39370000D03*
X227584000Y-41910000D03*
X227584000Y-44450000D03*
X227584000Y-46990000D03*
X227584000Y-49530000D03*
X227584000Y-52070000D03*
X227584000Y-54610000D03*
X227584000Y-57150000D03*
X227584000Y-59690000D03*
X227584000Y-62230000D03*
X227584000Y-64770000D03*
X227584000Y-67310000D03*
X227584000Y-69850000D03*
X227584000Y-72390000D03*
X227584000Y-74930000D03*
X227584000Y-77470000D03*
X253492000Y-65278000D03*
X253492000Y-61722000D03*
X253492000Y-58166000D03*
X253492000Y-54610000D03*
X253492000Y-51054000D03*
X253492000Y-47498000D03*
X253492000Y-95758000D03*
X253492000Y-99314000D03*
X253492000Y-102870000D03*
X253492000Y-106426000D03*
X253492000Y-109982000D03*
X253492000Y-113538000D03*
X227584000Y-125730000D03*
X227584000Y-123190000D03*
X227584000Y-120650000D03*
X227584000Y-118110000D03*
X227584000Y-115570000D03*
X227584000Y-113030000D03*
X227584000Y-110490000D03*
X227584000Y-107950000D03*
X227584000Y-105410000D03*
X227584000Y-102870000D03*
X227584000Y-100330000D03*
X227584000Y-97790000D03*
X227584000Y-95250000D03*
X227584000Y-92710000D03*
X227584000Y-90170000D03*
X227584000Y-87630000D03*
X227584000Y-85090000D03*
X227584000Y-82550000D03*
X250952000Y-113538000D03*
X250952000Y-109982000D03*
X250952000Y-106426000D03*
X250952000Y-102870000D03*
X250952000Y-99314000D03*
X250952000Y-95758000D03*
X230124000Y-113030000D03*
X230124000Y-110490000D03*
X230124000Y-102870000D03*
X230124000Y-100330000D03*
X230124000Y-97790000D03*
X230124000Y-90170000D03*
X230124000Y-87630000D03*
D14*
X252031500Y-124523500D03*
X252031500Y-83756500D03*
D16*
X174371000Y-46482000D03*
X174371000Y-44958000D03*
D17*
X124460000Y-68580000D03*
X127000000Y-68580000D03*
X115316000Y-116840000D03*
X117856000Y-116840000D03*
D15*
X193040000Y-73660000D03*
X190500000Y-73660000D03*
X193040000Y-76200000D03*
X190500000Y-76200000D03*
X193040000Y-78740000D03*
X190500000Y-78740000D03*
X193040000Y-81280000D03*
X190500000Y-81280000D03*
X193040000Y-83820000D03*
X190500000Y-83820000D03*
X193040000Y-86360000D03*
X190500000Y-86360000D03*
X193040000Y-88900000D03*
X190500000Y-88900000D03*
X193040000Y-91440000D03*
X190500000Y-91440000D03*
X193040000Y-93980000D03*
X190500000Y-93980000D03*
X193040000Y-96520000D03*
X190500000Y-96520000D03*
X193040000Y-99060000D03*
X190500000Y-99060000D03*
X193040000Y-101600000D03*
X190500000Y-101600000D03*
X190500000Y-104140000D03*
X193040000Y-104140000D03*
X193040000Y-116840000D03*
X190500000Y-116840000D03*
X193040000Y-106680000D03*
X190500000Y-106680000D03*
X193040000Y-109220000D03*
X190500000Y-109220000D03*
X193040000Y-111760000D03*
X190500000Y-111760000D03*
X193040000Y-114300000D03*
X190500000Y-114300000D03*
D18*
X110490000Y-68580000D03*
X111760000Y-116840000D03*
X186690000Y-116840000D03*
X193040000Y-68580000D03*
D17*
X134620000Y-68580000D03*
X120396000Y-116840000D03*
X122936000Y-116840000D03*
X125476000Y-116840000D03*
X128016000Y-116840000D03*
X130556000Y-116840000D03*
X133096000Y-116840000D03*
X135636000Y-116840000D03*
X138176000Y-116840000D03*
X142240000Y-116840000D03*
X144780000Y-116840000D03*
X147320000Y-116840000D03*
X149860000Y-116840000D03*
X152400000Y-116840000D03*
X154940000Y-116840000D03*
X157480000Y-116840000D03*
X160020000Y-116840000D03*
X129540000Y-68580000D03*
X132080000Y-68580000D03*
X137160000Y-68580000D03*
X139700000Y-68580000D03*
X142240000Y-68580000D03*
X152400000Y-68580000D03*
X149860000Y-68580000D03*
X147320000Y-68580000D03*
X154940000Y-68580000D03*
X157480000Y-68580000D03*
X160020000Y-68580000D03*
X177800000Y-68580000D03*
X175260000Y-68580000D03*
X172720000Y-68580000D03*
X162560000Y-68580000D03*
X165100000Y-68580000D03*
X170180000Y-68580000D03*
X180340000Y-68580000D03*
X182880000Y-68580000D03*
X185420000Y-68580000D03*
X187960000Y-68580000D03*
X182880000Y-116840000D03*
X180340000Y-116840000D03*
X177800000Y-116840000D03*
X175260000Y-116840000D03*
X172720000Y-116840000D03*
X170180000Y-116840000D03*
X167640000Y-116840000D03*
X165100000Y-116840000D03*
D19*
X152400000Y-52070000D03*
D20*
X152400000Y-54610000D03*
X152400000Y-57150000D03*
D19*
X143510000Y-52070000D03*
D20*
X143510000Y-54610000D03*
X143510000Y-57150000D03*
D19*
X134620000Y-52070000D03*
D20*
X134620000Y-54610000D03*
X134620000Y-57150000D03*
D19*
X125730000Y-52070000D03*
D20*
X125730000Y-54610000D03*
X125730000Y-57150000D03*
D19*
X116840000Y-52070000D03*
D20*
X116840000Y-54610000D03*
X116840000Y-57150000D03*
D19*
X107950000Y-52070000D03*
D20*
X107950000Y-54610000D03*
X107950000Y-57150000D03*
D19*
X58547000Y-133985000D03*
D20*
X61087000Y-133985000D03*
X63627000Y-133985000D03*
D19*
X41275000Y-133985000D03*
D20*
X43815000Y-133985000D03*
X46355000Y-133985000D03*
D19*
X37465000Y-133350000D03*
D20*
X37465000Y-130810000D03*
X37465000Y-128270000D03*
D19*
X52705000Y-133985000D03*
D20*
X50165000Y-133985000D03*
D19*
X67437000Y-137668000D03*
D20*
X69977000Y-137668000D03*
D19*
X67437000Y-133985000D03*
D20*
X69977000Y-133985000D03*
D19*
X86360000Y-80010000D03*
D20*
X83820000Y-80010000D03*
X81280000Y-80010000D03*
X78740000Y-80010000D03*
X76200000Y-80010000D03*
X73660000Y-80010000D03*
X71120000Y-80010000D03*
X68580000Y-80010000D03*
D19*
X86360000Y-77470000D03*
D20*
X83820000Y-77470000D03*
X81280000Y-77470000D03*
X78740000Y-77470000D03*
X76200000Y-77470000D03*
X73660000Y-77470000D03*
X71120000Y-77470000D03*
X68580000Y-77470000D03*
D19*
X86360000Y-74930000D03*
D20*
X83820000Y-74930000D03*
X81280000Y-74930000D03*
X78740000Y-74930000D03*
X76200000Y-74930000D03*
X73660000Y-74930000D03*
X71120000Y-74930000D03*
X68580000Y-74930000D03*
D19*
X86360000Y-69850000D03*
D20*
X83820000Y-69850000D03*
X81280000Y-69850000D03*
X78740000Y-69850000D03*
X76200000Y-69850000D03*
X73660000Y-69850000D03*
X71120000Y-69850000D03*
X68580000Y-69850000D03*
D19*
X86360000Y-67310000D03*
D20*
X83820000Y-67310000D03*
X81280000Y-67310000D03*
X78740000Y-67310000D03*
X76200000Y-67310000D03*
X73660000Y-67310000D03*
X71120000Y-67310000D03*
X68580000Y-67310000D03*
D19*
X86360000Y-64770000D03*
D20*
X83820000Y-64770000D03*
X81280000Y-64770000D03*
X78740000Y-64770000D03*
X76200000Y-64770000D03*
X73660000Y-64770000D03*
X71120000Y-64770000D03*
X68580000Y-64770000D03*
D19*
X86360000Y-62230000D03*
D20*
X83820000Y-62230000D03*
X81280000Y-62230000D03*
X78740000Y-62230000D03*
X76200000Y-62230000D03*
X73660000Y-62230000D03*
X71120000Y-62230000D03*
X68580000Y-62230000D03*
D21*
X170561000Y-137050780D03*
X171511000Y-139049760D03*
X169611000Y-139049760D03*
D22*
X252603000Y-136017000D03*
D23*
X252603000Y-141097000D03*
D24*
X121920000Y-111125000D03*
D25*
X119420000Y-111125000D03*
D23*
X247523000Y-141097000D03*
D22*
X247523000Y-136017000D03*
D25*
X230124000Y-85210000D03*
D24*
X230124000Y-92710000D03*
X230124000Y-59690000D03*
D25*
X230124000Y-67190000D03*
D26*
X246380000Y-44196000D03*
X246380000Y-59436000D03*
X246888000Y-102616000D03*
X246888000Y-117856000D03*
X246888000Y-78232000D03*
X246888000Y-93472000D03*
D27*
X239268000Y-63500000D03*
X239268000Y-38501320D03*
X239776000Y-122428000D03*
X239776000Y-97429320D03*
X239776000Y-68473320D03*
X239776000Y-93472000D03*
D28*
X183007000Y-139700000D03*
X183007000Y-137160000D03*
D15*
X183007000Y-135890000D03*
X183007000Y-140970000D03*
D29*
X30480000Y-87630000D03*
X30480000Y-142240000D03*
X148590000Y-33020000D03*
X148590000Y-137541000D03*
X266700000Y-33020000D03*
X266700000Y-87630000D03*
X266700000Y-142240000D03*
D30*
X18415000Y-40640000D03*
X18415000Y-87630000D03*
X18415000Y-124460000D03*
X278765000Y-40640000D03*
X278765000Y-87630000D03*
X278765000Y-124460000D03*
D29*
X272415000Y-133985000D03*
X281305000Y-133985000D03*
D31*
X260731000Y-102950000D03*
D32*
X260731000Y-107950000D03*
X260731000Y-97790000D03*
D31*
X260731000Y-92790000D03*
X260731000Y-82630000D03*
D32*
X260731000Y-87630000D03*
D31*
X260731000Y-54690000D03*
D32*
X260731000Y-59690000D03*
D31*
X260731000Y-44530000D03*
D32*
X260731000Y-49530000D03*
D31*
X260731000Y-34370000D03*
D32*
X260731000Y-39370000D03*
D14*
X200903840Y-46177200D03*
X193304160Y-46177200D03*
X199644000Y-46177200D03*
X194564000Y-46177200D03*
D15*
X210693000Y-109601000D03*
X208153000Y-109601000D03*
X218313000Y-109601000D03*
X211455000Y-95377000D03*
X214757000Y-95377000D03*
D14*
X204343000Y-109601000D03*
X222123000Y-109601000D03*
X204343000Y-93853000D03*
X222123000Y-93853000D03*
D15*
X215773000Y-109601000D03*
X213233000Y-109601000D03*
X213233000Y-107061000D03*
X215773000Y-107061000D03*
D33*
X261112000Y-123190000D03*
X261112000Y-120650000D03*
D34*
X261112000Y-115570000D03*
D33*
X261112000Y-123190000D03*
X199390000Y-126619000D03*
X201930000Y-126619000D03*
D34*
X207010000Y-126619000D03*
D33*
X199390000Y-126619000D03*
X261112000Y-74930000D03*
X261112000Y-72390000D03*
D34*
X261112000Y-67310000D03*
D33*
X261112000Y-74930000D03*
D15*
X193294000Y-125603000D03*
X157734000Y-125603000D03*
X152654000Y-125603000D03*
X155194000Y-125603000D03*
X157734000Y-123063000D03*
X155194000Y-123063000D03*
X157734000Y-140081000D03*
X155194000Y-140081000D03*
D35*
X188224000Y-139817000D03*
D15*
X193294000Y-140081000D03*
X193294000Y-123063000D03*
X152654000Y-123063000D03*
X152654000Y-140081000D03*
D36*
X222123000Y-141351000D03*
X222123000Y-136271000D03*
X222123000Y-131191000D03*
X214503000Y-141351000D03*
X214503000Y-136271000D03*
X214503000Y-131191000D03*
X214503000Y-115951000D03*
X222123000Y-115951000D03*
D28*
X205994000Y-103759000D03*
X205994000Y-106299000D03*
D15*
X205994000Y-107569000D03*
X205994000Y-102489000D03*
D37*
X126238000Y-138319000D03*
X126238000Y-140319000D03*
X99060000Y-131842000D03*
X99060000Y-133842000D03*
X94996000Y-133842000D03*
X94996000Y-131842000D03*
X122555000Y-127397000D03*
X122555000Y-129397000D03*
D38*
X196446140Y-139954000D03*
X199285860Y-139954000D03*
D39*
X135128000Y-132588000D03*
X141478000Y-132588000D03*
D40*
X101523800Y-60325000D03*
X101523800Y-61595000D03*
X101523800Y-62865000D03*
X101523800Y-64135000D03*
X96596200Y-64135000D03*
X96596200Y-62865000D03*
X96596200Y-61595000D03*
X96596200Y-60325000D03*
X110413800Y-60325000D03*
X110413800Y-61595000D03*
X110413800Y-62865000D03*
X110413800Y-64135000D03*
X105486200Y-64135000D03*
X105486200Y-62865000D03*
X105486200Y-61595000D03*
X105486200Y-60325000D03*
X119303800Y-60325000D03*
X119303800Y-61595000D03*
X119303800Y-62865000D03*
X119303800Y-64135000D03*
X114376200Y-64135000D03*
X114376200Y-62865000D03*
X114376200Y-61595000D03*
X114376200Y-60325000D03*
X123266200Y-60325000D03*
X123266200Y-61595000D03*
X123266200Y-62865000D03*
X123266200Y-64135000D03*
X128193800Y-64135000D03*
X128193800Y-62865000D03*
X128193800Y-61595000D03*
X128193800Y-60325000D03*
X137083800Y-60325000D03*
X137083800Y-61595000D03*
X137083800Y-62865000D03*
X137083800Y-64135000D03*
X132156200Y-64135000D03*
X132156200Y-62865000D03*
X132156200Y-61595000D03*
X132156200Y-60325000D03*
X141046200Y-60325000D03*
X141046200Y-61595000D03*
X141046200Y-62865000D03*
X141046200Y-64135000D03*
X145973800Y-64135000D03*
X145973800Y-62865000D03*
X145973800Y-61595000D03*
X145973800Y-60325000D03*
X149936200Y-60325000D03*
X149936200Y-61595000D03*
X149936200Y-62865000D03*
X149936200Y-64135000D03*
X154863800Y-64135000D03*
X154863800Y-62865000D03*
X154863800Y-61595000D03*
X154863800Y-60325000D03*
D21*
X184673240Y-108651000D03*
X184673240Y-110551000D03*
X186672220Y-109601000D03*
X186545220Y-103378000D03*
X184546240Y-104328000D03*
X184546240Y-102428000D03*
X184546240Y-96713000D03*
X184546240Y-98613000D03*
X186545220Y-97663000D03*
X49022000Y-100728780D03*
X49972000Y-102727760D03*
X48072000Y-102727760D03*
X40782240Y-95570000D03*
X40782240Y-97470000D03*
X42781220Y-96520000D03*
X42781220Y-101600000D03*
X40782240Y-102550000D03*
X40782240Y-100650000D03*
X40782240Y-104333000D03*
X40782240Y-106233000D03*
X42781220Y-105283000D03*
D41*
X179197000Y-130583940D03*
X179197000Y-134084060D03*
D42*
X114554000Y-135763000D03*
D43*
X105404000Y-135763000D03*
D42*
X114554000Y-133223000D03*
X114554000Y-138303000D03*
X90678000Y-138430000D03*
X90678000Y-133350000D03*
D43*
X81528000Y-135890000D03*
D42*
X90678000Y-135890000D03*
D44*
X203962000Y-116967000D03*
X206502000Y-116967000D03*
X201422000Y-116967000D03*
D45*
X243713000Y-141097000D03*
X243713000Y-136017000D03*
X243713000Y-138557000D03*
D38*
X65554860Y-104140000D03*
X62715140Y-104140000D03*
X62715140Y-107950000D03*
X65554860Y-107950000D03*
X65554860Y-96520000D03*
X62715140Y-96520000D03*
X62715140Y-85090000D03*
X65554860Y-85090000D03*
X65554860Y-100330000D03*
X62715140Y-100330000D03*
X62715140Y-88900000D03*
X65554860Y-88900000D03*
X65554860Y-92710000D03*
X62715140Y-92710000D03*
D21*
X161907220Y-135509000D03*
X159908240Y-136459000D03*
X159908240Y-134559000D03*
X162702240Y-139385000D03*
X162702240Y-141285000D03*
X164701220Y-140335000D03*
X61722000Y-69105780D03*
X62672000Y-71104760D03*
X60772000Y-71104760D03*
D46*
X81280000Y-57070000D03*
X81280000Y-54570000D03*
D47*
X81280000Y-52070000D03*
D48*
X222250000Y-36830000D03*
D49*
X222250000Y-39330000D03*
D50*
X222250000Y-41830000D03*
D49*
X222250000Y-44330000D03*
D48*
X214630000Y-36830000D03*
D49*
X214630000Y-39330000D03*
D50*
X214630000Y-41830000D03*
D49*
X214630000Y-44330000D03*
D51*
X107950000Y-36830000D03*
D49*
X107950000Y-39330000D03*
X107950000Y-41830000D03*
X107950000Y-44330000D03*
X107950000Y-46830000D03*
X118110000Y-46830000D03*
X118110000Y-44330000D03*
X118110000Y-41830000D03*
X118110000Y-39330000D03*
D51*
X118110000Y-36830000D03*
D49*
X125730000Y-46830000D03*
X125730000Y-44330000D03*
X125730000Y-41830000D03*
X125730000Y-39330000D03*
D51*
X125730000Y-36830000D03*
X134620000Y-36830000D03*
D49*
X134620000Y-39330000D03*
X134620000Y-41830000D03*
X134620000Y-44330000D03*
X134620000Y-46830000D03*
D52*
X143510000Y-36830000D03*
D49*
X143510000Y-39330000D03*
X143510000Y-41830000D03*
X143510000Y-44330000D03*
X143510000Y-46830000D03*
X152400000Y-46830000D03*
X152400000Y-44330000D03*
X152400000Y-41830000D03*
X152400000Y-39330000D03*
D51*
X152400000Y-36830000D03*
D48*
X214630000Y-64770000D03*
D49*
X214630000Y-67270000D03*
D50*
X214630000Y-69770000D03*
D49*
X214630000Y-72270000D03*
X222250000Y-59570000D03*
D50*
X222250000Y-57070000D03*
D49*
X222250000Y-54570000D03*
D48*
X222250000Y-52070000D03*
D51*
X54610000Y-44450000D03*
D49*
X54610000Y-46950000D03*
X54610000Y-49450000D03*
X98425000Y-41830000D03*
X98425000Y-39330000D03*
D51*
X98425000Y-36830000D03*
D49*
X179070000Y-41830000D03*
X179070000Y-39330000D03*
D51*
X179070000Y-36830000D03*
X161290000Y-52070000D03*
D49*
X161290000Y-54570000D03*
X161290000Y-57070000D03*
X170180000Y-57070000D03*
X170180000Y-54570000D03*
D51*
X170180000Y-52070000D03*
X170180000Y-36830000D03*
D49*
X170180000Y-39330000D03*
X170180000Y-41830000D03*
X179070000Y-57070000D03*
X179070000Y-54570000D03*
D51*
X179070000Y-52070000D03*
D49*
X161290000Y-41830000D03*
X161290000Y-39330000D03*
D51*
X161290000Y-36830000D03*
X222250000Y-67310000D03*
D49*
X222250000Y-69810000D03*
X222250000Y-72310000D03*
D51*
X214630000Y-81280000D03*
D53*
X214630000Y-83780000D03*
X214630000Y-86280000D03*
X222250000Y-83780000D03*
X222250000Y-81280000D03*
X72390000Y-54650000D03*
X72390000Y-57150000D03*
D49*
X205740000Y-46830000D03*
X205740000Y-44330000D03*
X205740000Y-41830000D03*
X205740000Y-39330000D03*
D51*
X205740000Y-36830000D03*
D53*
X63500000Y-49330000D03*
X63500000Y-46830000D03*
X63500000Y-44330000D03*
X63500000Y-41830000D03*
X63500000Y-39330000D03*
D54*
X63500000Y-36830000D03*
D53*
X90170000Y-49330000D03*
X90170000Y-46830000D03*
X90170000Y-44330000D03*
X90170000Y-41830000D03*
X90170000Y-39330000D03*
D54*
X90170000Y-36830000D03*
X214630000Y-52070000D03*
D53*
X214630000Y-54570000D03*
X214630000Y-57070000D03*
D54*
X205740000Y-55880000D03*
D53*
X205740000Y-58380000D03*
X205740000Y-60880000D03*
D29*
X30480000Y-33020000D03*
D55*
X165100000Y-109753400D03*
X166370000Y-109753400D03*
X167640000Y-109753400D03*
X168910000Y-109753400D03*
X170180000Y-109753400D03*
X171450000Y-109753400D03*
X172720000Y-109753400D03*
X172720000Y-103606600D03*
X171450000Y-103606600D03*
X170180000Y-103606600D03*
X168910000Y-103606600D03*
X167640000Y-103606600D03*
X166370000Y-103606600D03*
X165100000Y-103606600D03*
X161925000Y-103606600D03*
X160655000Y-103606600D03*
X159385000Y-103606600D03*
X158115000Y-103606600D03*
X156845000Y-103606600D03*
X155575000Y-103606600D03*
X154305000Y-103606600D03*
X153035000Y-103606600D03*
X153035000Y-109753400D03*
X154305000Y-109753400D03*
X155575000Y-109753400D03*
X156845000Y-109753400D03*
X158115000Y-109753400D03*
X159385000Y-109753400D03*
X160655000Y-109753400D03*
X161925000Y-109753400D03*
X135255000Y-109753400D03*
X133985000Y-109753400D03*
X132715000Y-109753400D03*
X131445000Y-109753400D03*
X130175000Y-109753400D03*
X128905000Y-109753400D03*
X127635000Y-109753400D03*
X126365000Y-109753400D03*
X126365000Y-103606600D03*
X127635000Y-103606600D03*
X128905000Y-103606600D03*
X130175000Y-103606600D03*
X131445000Y-103606600D03*
X132715000Y-103606600D03*
X133985000Y-103606600D03*
X135255000Y-103606600D03*
X149225000Y-103606600D03*
X147955000Y-103606600D03*
X146685000Y-103606600D03*
X145415000Y-103606600D03*
X144145000Y-103606600D03*
X142875000Y-103606600D03*
X141605000Y-103606600D03*
X140335000Y-103606600D03*
X140335000Y-109753400D03*
X141605000Y-109753400D03*
X142875000Y-109753400D03*
X144145000Y-109753400D03*
X145415000Y-109753400D03*
X146685000Y-109753400D03*
X147955000Y-109753400D03*
X149225000Y-109753400D03*
D53*
X196850000Y-41830000D03*
X196850000Y-39330000D03*
D54*
X196850000Y-36830000D03*
D53*
X187960000Y-41830000D03*
X187960000Y-39330000D03*
D54*
X187960000Y-36830000D03*
X196850000Y-52070000D03*
D53*
X196850000Y-54570000D03*
X196850000Y-57070000D03*
X187960000Y-57070000D03*
X187960000Y-54570000D03*
D54*
X187960000Y-52070000D03*
D37*
X160274000Y-114030000D03*
X160274000Y-112030000D03*
X137414000Y-107712000D03*
X137414000Y-109712000D03*
X151130000Y-109712000D03*
X151130000Y-107712000D03*
X157988000Y-112030000D03*
X157988000Y-114030000D03*
D56*
X201449940Y-113030000D03*
X204950060Y-113030000D03*
D57*
X48784000Y-52324000D03*
X50784000Y-52324000D03*
D21*
X75057000Y-92346780D03*
X76007000Y-94345760D03*
X74107000Y-94345760D03*
X70170000Y-94345760D03*
X72070000Y-94345760D03*
X71120000Y-92346780D03*
X78613000Y-87647780D03*
X79563000Y-89646760D03*
X77663000Y-89646760D03*
X73853000Y-89646760D03*
X75753000Y-89646760D03*
X74803000Y-87647780D03*
X75057000Y-83583780D03*
X76007000Y-85582760D03*
X74107000Y-85582760D03*
X70297000Y-85582760D03*
X72197000Y-85582760D03*
X71247000Y-83583780D03*
X143068000Y-94726760D03*
X144968000Y-94726760D03*
X144018000Y-92727780D03*
X147828000Y-92727780D03*
X148778000Y-94726760D03*
X146878000Y-94726760D03*
X57851000Y-58658760D03*
X59751000Y-58658760D03*
X58801000Y-56659780D03*
X62484000Y-56659780D03*
X63434000Y-58658760D03*
X61534000Y-58658760D03*
D58*
X244760000Y-41529000D03*
X232760000Y-41529000D03*
X236062000Y-66802000D03*
X248062000Y-66802000D03*
X232760000Y-37211000D03*
X244760000Y-37211000D03*
X236062000Y-33147000D03*
X248062000Y-33147000D03*
X232633000Y-119761000D03*
X244633000Y-119761000D03*
X236062000Y-124460000D03*
X248062000Y-124460000D03*
X232760000Y-115316000D03*
X244760000Y-115316000D03*
X236443000Y-111760000D03*
X248443000Y-111760000D03*
X232760000Y-84201000D03*
X244760000Y-84201000D03*
X236062000Y-79756000D03*
X248062000Y-79756000D03*
X232760000Y-71120000D03*
X244760000Y-71120000D03*
X247935000Y-75565000D03*
X235935000Y-75565000D03*
X235935000Y-106807000D03*
X247935000Y-106807000D03*
X248062000Y-62611000D03*
X236062000Y-62611000D03*
D26*
X240030000Y-102331520D03*
X234950000Y-102331520D03*
X234950000Y-59278520D03*
X240030000Y-59278520D03*
D21*
X95951000Y-126095760D03*
X97851000Y-126095760D03*
X96901000Y-124096780D03*
X96901000Y-127652780D03*
X97851000Y-129651760D03*
X95951000Y-129651760D03*
X83454240Y-127701000D03*
X83454240Y-129601000D03*
X85453220Y-128651000D03*
X84455000Y-124096780D03*
X85405000Y-126095760D03*
X83505000Y-126095760D03*
X115890000Y-127365760D03*
X117790000Y-127365760D03*
X116840000Y-125366780D03*
X106426000Y-125366780D03*
X107376000Y-127365760D03*
X105476000Y-127365760D03*
D51*
X45720000Y-36830000D03*
D49*
X45720000Y-39330000D03*
X45720000Y-41830000D03*
X45720000Y-44330000D03*
X45720000Y-46830000D03*
D31*
X235157000Y-128016000D03*
D32*
X240157000Y-128016000D03*
D51*
X36830000Y-36830000D03*
D49*
X36830000Y-39330000D03*
X36830000Y-41830000D03*
X36830000Y-44330000D03*
X36830000Y-46830000D03*
D21*
X152890220Y-86106000D03*
X150891240Y-87056000D03*
X150891240Y-85156000D03*
X158496000Y-87647780D03*
X159446000Y-89646760D03*
X157546000Y-89646760D03*
X144000220Y-85979000D03*
X142001240Y-86929000D03*
X142001240Y-85029000D03*
D20*
X141478000Y-136906000D03*
D19*
X144018000Y-136906000D03*
D20*
X143383000Y-124714000D03*
X145923000Y-124714000D03*
D19*
X148463000Y-124714000D03*
D12*
X30480000Y-59690000D03*
D46*
X30480000Y-62230000D03*
X30480000Y-64770000D03*
X30480000Y-67310000D03*
X30480000Y-69850000D03*
X30480000Y-72390000D03*
X30480000Y-74930000D03*
X30480000Y-77470000D03*
X30480000Y-80010000D03*
D47*
X30480000Y-82550000D03*
D59*
X102132000Y-57150000D03*
X105132000Y-57150000D03*
X110895000Y-57150000D03*
X113895000Y-57150000D03*
X122785000Y-57150000D03*
X119785000Y-57150000D03*
X93623000Y-57150000D03*
X96623000Y-57150000D03*
X131802000Y-57277000D03*
X128802000Y-57277000D03*
X137692000Y-57150000D03*
X140692000Y-57150000D03*
X149582000Y-57150000D03*
X146582000Y-57150000D03*
X110895000Y-54610000D03*
X113895000Y-54610000D03*
X119785000Y-54610000D03*
X122785000Y-54610000D03*
X131802000Y-54610000D03*
X128802000Y-54610000D03*
X137692000Y-54610000D03*
X140692000Y-54610000D03*
X149582000Y-54610000D03*
X146582000Y-54610000D03*
X102132000Y-54610000D03*
X105132000Y-54610000D03*
X96623000Y-54610000D03*
X93623000Y-54610000D03*
D29*
X138684000Y-44196000D03*
X156591000Y-44196000D03*
D59*
X51030000Y-96774000D03*
X48030000Y-96774000D03*
D60*
X38100000Y-136168000D03*
X38100000Y-139168000D03*
X59563000Y-125627000D03*
X59563000Y-128627000D03*
D59*
X44934000Y-54737000D03*
X41934000Y-54737000D03*
D29*
X165481000Y-44196000D03*
X129794000Y-44196000D03*
D31*
X246319522Y-88077522D03*
X249996478Y-91754478D03*
D49*
X72390000Y-44330000D03*
D50*
X72390000Y-41830000D03*
D49*
X72390000Y-39330000D03*
D48*
X72390000Y-36830000D03*
D61*
X46100000Y-72390000D03*
X46100000Y-71120000D03*
X46100000Y-69850000D03*
X46100000Y-68580000D03*
X46100000Y-67310000D03*
X46100000Y-66040000D03*
X46100000Y-64770000D03*
X46100000Y-63500000D03*
X46100000Y-62230000D03*
X46100000Y-60960000D03*
X55500000Y-60960000D03*
X55500000Y-62230000D03*
X55500000Y-63500000D03*
X55500000Y-64770000D03*
X55500000Y-66040000D03*
X55500000Y-67310000D03*
X55500000Y-68580000D03*
X55500000Y-69850000D03*
X55500000Y-71120000D03*
X55500000Y-72390000D03*
D49*
X81280000Y-44330000D03*
D50*
X81280000Y-41830000D03*
D49*
X81280000Y-39330000D03*
D48*
X81280000Y-36830000D03*
D62*
X145923000Y-76466000D03*
X145923000Y-77966000D03*
X99314000Y-54725000D03*
X99314000Y-53225000D03*
X129159000Y-76974000D03*
X129159000Y-78474000D03*
X85344000Y-44716000D03*
X85344000Y-46216000D03*
X183578500Y-62813500D03*
X183578500Y-64313500D03*
X210312000Y-43295000D03*
X210312000Y-41795000D03*
X123698000Y-78474000D03*
X123698000Y-76974000D03*
X118110000Y-76974000D03*
X118110000Y-78474000D03*
X114300000Y-76847000D03*
X114300000Y-78347000D03*
D63*
X210959000Y-76454000D03*
X212459000Y-76454000D03*
D62*
X209042000Y-89142000D03*
X209042000Y-87642000D03*
X210312000Y-49518000D03*
X210312000Y-48018000D03*
X204089000Y-69965000D03*
X204089000Y-68465000D03*
X201041000Y-41922000D03*
X201041000Y-43422000D03*
X203581000Y-66790000D03*
X203581000Y-65290000D03*
D63*
X87110000Y-53848000D03*
X85610000Y-53848000D03*
D62*
X173926500Y-62750000D03*
X173926500Y-64250000D03*
X58674000Y-49415000D03*
X58674000Y-50915000D03*
D63*
X56654000Y-35052000D03*
X58154000Y-35052000D03*
D62*
X143891000Y-75831000D03*
X143891000Y-77331000D03*
X140208000Y-77331000D03*
X140208000Y-75831000D03*
X154940000Y-77204000D03*
X154940000Y-75704000D03*
X160528000Y-75831000D03*
X160528000Y-77331000D03*
X85344000Y-36056000D03*
X85344000Y-34556000D03*
D63*
X90182000Y-53848000D03*
X91682000Y-53848000D03*
D62*
X51435000Y-57900000D03*
X51435000Y-56400000D03*
X132842000Y-78474000D03*
X132842000Y-76974000D03*
X94107000Y-34556000D03*
X94107000Y-36056000D03*
X139827000Y-86729000D03*
X139827000Y-85229000D03*
X146177000Y-85229000D03*
X146177000Y-86729000D03*
X148844000Y-86729000D03*
X148844000Y-85229000D03*
X154686000Y-86856000D03*
X154686000Y-85356000D03*
X161163000Y-87896000D03*
X161163000Y-89396000D03*
X163068000Y-89396000D03*
X163068000Y-87896000D03*
D63*
X182868000Y-110490000D03*
X181368000Y-110490000D03*
X186424000Y-106426000D03*
X184924000Y-106426000D03*
X181368000Y-104267000D03*
X182868000Y-104267000D03*
D62*
X130175000Y-48526000D03*
X130175000Y-50026000D03*
D63*
X180352000Y-106426000D03*
X181852000Y-106426000D03*
X181368000Y-98552000D03*
X182868000Y-98552000D03*
X180352000Y-100711000D03*
X181852000Y-100711000D03*
X208292000Y-113030000D03*
X209792000Y-113030000D03*
X113907000Y-127381000D03*
X112407000Y-127381000D03*
D62*
X109220000Y-125869000D03*
X109220000Y-127369000D03*
D63*
X113907000Y-125603000D03*
X112407000Y-125603000D03*
D62*
X88646000Y-125718000D03*
X88646000Y-124218000D03*
X99695000Y-124218000D03*
X99695000Y-125718000D03*
X99695000Y-128766000D03*
X99695000Y-127266000D03*
D63*
X93968000Y-128143000D03*
X92468000Y-128143000D03*
X87134000Y-127762000D03*
X88634000Y-127762000D03*
X93968000Y-126111000D03*
X92468000Y-126111000D03*
X81649000Y-129159000D03*
X80149000Y-129159000D03*
X90690000Y-124206000D03*
X92190000Y-124206000D03*
X49772000Y-104775000D03*
X48272000Y-104775000D03*
X44716000Y-102235000D03*
X46216000Y-102235000D03*
D62*
X38608000Y-95770000D03*
X38608000Y-97270000D03*
X38481000Y-100850000D03*
X38481000Y-102350000D03*
X38481000Y-104533000D03*
X38481000Y-106033000D03*
D63*
X46216000Y-96520000D03*
X44716000Y-96520000D03*
X44716000Y-98933000D03*
X46216000Y-98933000D03*
X47891000Y-98933000D03*
X49391000Y-98933000D03*
D62*
X60833000Y-66052000D03*
X60833000Y-67552000D03*
D63*
X85737000Y-58039000D03*
X87237000Y-58039000D03*
X85737000Y-56261000D03*
X87237000Y-56261000D03*
D62*
X164465000Y-79744000D03*
X164465000Y-78244000D03*
D63*
X207720500Y-80772000D03*
X209220500Y-80772000D03*
D64*
X211924000Y-91313000D03*
X210224000Y-91313000D03*
X214161000Y-76454000D03*
X215861000Y-76454000D03*
D65*
X138430000Y-82511000D03*
X138430000Y-80811000D03*
X141986000Y-82511000D03*
X141986000Y-80811000D03*
D64*
X168617000Y-132969000D03*
X166917000Y-132969000D03*
X175856000Y-132715000D03*
X174156000Y-132715000D03*
X187921000Y-121793000D03*
X186221000Y-121793000D03*
X172300000Y-134747000D03*
X170600000Y-134747000D03*
D65*
X140208000Y-78779000D03*
X140208000Y-80479000D03*
X143891000Y-78779000D03*
X143891000Y-80479000D03*
D64*
X207620500Y-85026500D03*
X209320500Y-85026500D03*
X207620500Y-82677000D03*
X209320500Y-82677000D03*
D65*
X178689000Y-84035000D03*
X178689000Y-82335000D03*
X180467000Y-84860500D03*
X180467000Y-83160500D03*
X176911000Y-84860500D03*
X176911000Y-83160500D03*
X175133000Y-84035000D03*
X175133000Y-82335000D03*
X173355000Y-84860500D03*
X173355000Y-83160500D03*
X127254000Y-84162000D03*
X127254000Y-82462000D03*
X134874000Y-85305000D03*
X134874000Y-83605000D03*
X171577000Y-84035000D03*
X171577000Y-82335000D03*
X125476000Y-83400000D03*
X125476000Y-81700000D03*
X136652000Y-82716000D03*
X136652000Y-84416000D03*
X169799000Y-84860500D03*
X169799000Y-83160500D03*
X168021000Y-84035000D03*
X168021000Y-82335000D03*
X180467000Y-77685000D03*
X180467000Y-75985000D03*
X178689000Y-76796000D03*
X178689000Y-75096000D03*
X176911000Y-75985000D03*
X176911000Y-77685000D03*
X175133000Y-76796000D03*
X175133000Y-75096000D03*
X173355000Y-75985000D03*
X173355000Y-77685000D03*
X171577000Y-75096000D03*
X171577000Y-76796000D03*
X169799000Y-75985000D03*
X169799000Y-77685000D03*
X168021000Y-75096000D03*
X168021000Y-76796000D03*
X166243000Y-75985000D03*
X166243000Y-77685000D03*
X164465000Y-75096000D03*
X164465000Y-76796000D03*
X162687000Y-83160500D03*
X162687000Y-84860500D03*
X160909000Y-82335000D03*
X160909000Y-84035000D03*
X166243000Y-83160500D03*
X166243000Y-84860500D03*
X164465000Y-82335000D03*
X164465000Y-84035000D03*
X153162000Y-77382000D03*
X153162000Y-79082000D03*
X151384000Y-76493000D03*
X151384000Y-78193000D03*
X145923000Y-80811000D03*
X145923000Y-82511000D03*
X148463000Y-76493000D03*
X148463000Y-78193000D03*
D64*
X180506000Y-79629000D03*
X182206000Y-79629000D03*
D65*
X182245000Y-75096000D03*
X182245000Y-76796000D03*
X129159000Y-80811000D03*
X129159000Y-82511000D03*
X127254000Y-80733000D03*
X127254000Y-79033000D03*
X159131000Y-83160500D03*
X159131000Y-84860500D03*
X157353000Y-82335000D03*
X157353000Y-84035000D03*
X114300000Y-80811000D03*
X114300000Y-82511000D03*
X112395000Y-78525000D03*
X112395000Y-80225000D03*
X158750000Y-77382000D03*
X158750000Y-79082000D03*
X156972000Y-78193000D03*
X156972000Y-76493000D03*
X118110000Y-82511000D03*
X118110000Y-80811000D03*
X116205000Y-80225000D03*
X116205000Y-78525000D03*
X132842000Y-80811000D03*
X132842000Y-82511000D03*
X131064000Y-79033000D03*
X131064000Y-80733000D03*
X123698000Y-80811000D03*
X123698000Y-82511000D03*
X121793000Y-78525000D03*
X121793000Y-80225000D03*
D62*
X119634000Y-127369000D03*
X119634000Y-125869000D03*
D63*
X113145000Y-52070000D03*
X111645000Y-52070000D03*
D62*
X112395000Y-50026000D03*
X112395000Y-48526000D03*
X121793000Y-45073000D03*
X121793000Y-43573000D03*
D63*
X122035000Y-52070000D03*
X120535000Y-52070000D03*
D62*
X138811000Y-50026000D03*
X138811000Y-48526000D03*
D63*
X130925000Y-52070000D03*
X129425000Y-52070000D03*
X139942000Y-51943000D03*
X138442000Y-51943000D03*
D62*
X147828000Y-48399000D03*
X147828000Y-49899000D03*
D63*
X147332000Y-52070000D03*
X148832000Y-52070000D03*
D62*
X191770000Y-38620000D03*
X191770000Y-40120000D03*
X182880000Y-40120000D03*
X182880000Y-38620000D03*
X174625000Y-38620000D03*
X174625000Y-40120000D03*
D63*
X104382000Y-52070000D03*
X102882000Y-52070000D03*
D62*
X103124000Y-50026000D03*
X103124000Y-48526000D03*
D66*
X173355000Y-87646000D03*
X174305000Y-89646000D03*
X172405000Y-89646000D03*
D62*
X176276000Y-89396000D03*
X176276000Y-87896000D03*
X178689000Y-89396000D03*
X178689000Y-87896000D03*
D66*
X166751000Y-87646000D03*
X167701000Y-89646000D03*
X165801000Y-89646000D03*
D62*
X169545000Y-87896000D03*
X169545000Y-89396000D03*
X167132000Y-92976000D03*
X167132000Y-94476000D03*
D66*
X170053000Y-92853000D03*
X171003000Y-94853000D03*
X169103000Y-94853000D03*
D62*
X173101000Y-94603000D03*
X173101000Y-93103000D03*
X175641000Y-94603000D03*
X175641000Y-93103000D03*
D67*
X176964000Y-139954000D03*
X174064000Y-139954000D03*
X176964000Y-137287000D03*
X174064000Y-137287000D03*
X217096000Y-98933000D03*
X214196000Y-98933000D03*
X217096000Y-101600000D03*
X214196000Y-101600000D03*
D20*
X68580000Y-72390000D03*
X71120000Y-72390000D03*
X73660000Y-72390000D03*
X76200000Y-72390000D03*
X78740000Y-72390000D03*
X81280000Y-72390000D03*
X83820000Y-72390000D03*
D19*
X86360000Y-72390000D03*
D67*
X40460000Y-69850000D03*
X43360000Y-69850000D03*
X40460000Y-72390000D03*
X43360000Y-72390000D03*
X40460000Y-64770000D03*
X43360000Y-64770000D03*
X40460000Y-74930000D03*
X43360000Y-74930000D03*
X43360000Y-77470000D03*
X40460000Y-77470000D03*
X43360000Y-67310000D03*
X40460000Y-67310000D03*
X43360000Y-62230000D03*
X40460000Y-62230000D03*
X70665000Y-100330000D03*
X67765000Y-100330000D03*
X148770000Y-97155000D03*
X145870000Y-97155000D03*
D68*
X68072000Y-94541000D03*
X68072000Y-91641000D03*
D67*
X67765000Y-96520000D03*
X70665000Y-96520000D03*
X72464000Y-96520000D03*
X75364000Y-96520000D03*
D68*
X70739000Y-90223000D03*
X70739000Y-87323000D03*
D67*
X141806000Y-89789000D03*
X144706000Y-89789000D03*
X80952000Y-92837000D03*
X78052000Y-92837000D03*
D68*
X68072000Y-86540000D03*
X68072000Y-83640000D03*
D67*
X67765000Y-104140000D03*
X70665000Y-104140000D03*
X70665000Y-107950000D03*
X67765000Y-107950000D03*
D68*
X53530500Y-55700000D03*
X53530500Y-58600000D03*
X79121000Y-83005000D03*
X79121000Y-85905000D03*
X55880000Y-55700000D03*
X55880000Y-58600000D03*
X163957000Y-136451000D03*
X163957000Y-133551000D03*
X160274000Y-141277000D03*
X160274000Y-138377000D03*
D67*
X173810000Y-134747000D03*
X176710000Y-134747000D03*
X169365000Y-126746000D03*
X172265000Y-126746000D03*
X169344000Y-129286000D03*
X166444000Y-129286000D03*
X169238000Y-140970000D03*
X172138000Y-140970000D03*
D68*
X167259000Y-141023000D03*
X167259000Y-138123000D03*
X181737000Y-133657000D03*
X181737000Y-130757000D03*
D20*
X46355000Y-137795000D03*
X43815000Y-137795000D03*
D19*
X41275000Y-137795000D03*
X58547000Y-137668000D03*
D20*
X61087000Y-137668000D03*
X63627000Y-137668000D03*
X33655000Y-128270000D03*
X33655000Y-130810000D03*
D19*
X33655000Y-133350000D03*
D69*
X52348000Y-110871000D03*
X52348000Y-113411000D03*
X52348000Y-115951000D03*
X52348000Y-105791000D03*
X52348000Y-108331000D03*
X52348000Y-103251000D03*
X52348000Y-100711000D03*
X30988000Y-112141000D03*
X30988000Y-107061000D03*
X30988000Y-109601000D03*
X30988000Y-104521000D03*
X30988000Y-101981000D03*
D29*
X30848000Y-95521000D03*
D69*
X53848000Y-113411000D03*
X53848000Y-115951000D03*
X53848000Y-110871000D03*
X53848000Y-108331000D03*
X53848000Y-105791000D03*
X53848000Y-103251000D03*
X53848000Y-100711000D03*
X29718000Y-101981000D03*
X29718000Y-104521000D03*
X29718000Y-107061000D03*
X29718000Y-109601000D03*
X29718000Y-112141000D03*
D70*
X62230000Y-125730000D03*
X62230000Y-128270000D03*
X64770000Y-125730000D03*
X64770000Y-128270000D03*
X67310000Y-125730000D03*
X67310000Y-128270000D03*
X69850000Y-125730000D03*
D71*
X69850000Y-128270000D03*
D66*
X179197000Y-62246000D03*
X180147000Y-64246000D03*
X178247000Y-64246000D03*
D62*
X181864000Y-62813500D03*
X181864000Y-64313500D03*
X185293000Y-64313500D03*
X185293000Y-62813500D03*
D66*
X169545000Y-62246000D03*
X170495000Y-64246000D03*
X168595000Y-64246000D03*
D62*
X172212000Y-62750000D03*
X172212000Y-64250000D03*
X175895000Y-64250000D03*
X175895000Y-62750000D03*
D29*
X113411000Y-95123000D03*
X113411000Y-36703000D03*
X201041000Y-36703000D03*
X201041000Y-95123000D03*
D62*
X99695000Y-50026000D03*
X99695000Y-48526000D03*
X97917000Y-48526000D03*
X97917000Y-50026000D03*
X96139000Y-50026000D03*
X96139000Y-48526000D03*
X94361000Y-48526000D03*
X94361000Y-50026000D03*
D36*
X230378000Y-135636000D03*
X235458000Y-135636000D03*
X237998000Y-135636000D03*
X227838000Y-135636000D03*
X257175000Y-133985000D03*
X267335000Y-133985000D03*
X264795000Y-133985000D03*
X259715000Y-133985000D03*
D62*
X58674000Y-47105000D03*
X58674000Y-45605000D03*
X58674000Y-41009000D03*
X58674000Y-39509000D03*
D72*
X251968000Y-130048000D03*
D73*
X246888000Y-130048000D03*
D14*
X110490000Y-106807000D03*
X115570000Y-106807000D03*
X109230160Y-106807000D03*
X116829840Y-106807000D03*
D20*
X38100000Y-57150000D03*
X38100000Y-59690000D03*
X38100000Y-62230000D03*
X38100000Y-64770000D03*
X38100000Y-67310000D03*
X38100000Y-69850000D03*
X38100000Y-72390000D03*
X38100000Y-74930000D03*
X38100000Y-77470000D03*
X38100000Y-80010000D03*
X38100000Y-82550000D03*
X38100000Y-85090000D03*
X38100000Y-87630000D03*
D19*
X38100000Y-90170000D03*
D20*
X48387000Y-75946000D03*
X50927000Y-75946000D03*
X48387000Y-78486000D03*
X50927000Y-78486000D03*
X48387000Y-81026000D03*
X50927000Y-81026000D03*
X48387000Y-83566000D03*
X50927000Y-83566000D03*
X48387000Y-86106000D03*
X50927000Y-86106000D03*
X48387000Y-88646000D03*
X50927000Y-88646000D03*
X48387000Y-91186000D03*
D19*
X50927000Y-91186000D03*
D62*
X210312000Y-52820000D03*
X210312000Y-51320000D03*
X210312000Y-56249000D03*
X210312000Y-54749000D03*
D63*
X183884000Y-121793000D03*
X182384000Y-121793000D03*
D74*
X222123000Y-121666000D03*
D75*
X214503000Y-121666000D03*
D68*
X30480000Y-52525000D03*
X30480000Y-55425000D03*
D15*
X122174000Y-106553000D03*
X122174000Y-101473000D03*
D28*
X122174000Y-102743000D03*
X122174000Y-105283000D03*
D65*
X143510000Y-98259000D03*
X143510000Y-96559000D03*
D20*
X125730000Y-113665000D03*
D19*
X128270000Y-113665000D03*
D66*
X137541000Y-92853000D03*
X138491000Y-94853000D03*
X136591000Y-94853000D03*
D62*
X140843000Y-93230000D03*
X140843000Y-94730000D03*
X141478000Y-96786000D03*
X141478000Y-98286000D03*
D15*
X134112000Y-138303000D03*
X129032000Y-138303000D03*
D28*
X130302000Y-138303000D03*
X132842000Y-138303000D03*
X97282000Y-139446000D03*
X97282000Y-136906000D03*
D15*
X97282000Y-135636000D03*
X97282000Y-140716000D03*
D28*
X74295000Y-139446000D03*
X74295000Y-136906000D03*
D15*
X74295000Y-135636000D03*
X74295000Y-140716000D03*
D20*
X162560000Y-63627000D03*
D19*
X160020000Y-63627000D03*
D64*
X135802000Y-97028000D03*
X137502000Y-97028000D03*
D62*
X134493000Y-94349000D03*
X134493000Y-92849000D03*
M02*
