  0
SECTION
  2
HEADER
  9
$ACADVER
  1
AC1015
  9
$ACADMAINTVER
 70
     6
  9
$DWGCODEPAGE
  3
ANSI_1252
  9
$INSBASE
 10
0.0
 20
0.0
 30
0.0
  9
$EXTMIN
 10
0.0
 20
0.0
 30
0.0
  9
$EXTMAX
 10
420.0
 20
594.0
 30
0.0
  9
$LIMMIN
 10
0.0
 20
0.0
  9
$LIMMAX
 10
420.0
 20
594.0
  9
$ORTHOMODE
 70
     0
  9
$REGENMODE
 70
     1
  9
$FILLMODE
 70
     1
  9
$QTEXTMODE
 70
     0
  9
$MIRRTEXT
 70
     1
  9
$LTSCALE
 40
1.0
  9
$ATTMODE
 70
     1
  9
$TEXTSIZE
 40
2.5
  9
$TRACEWID
 40
1.0
  9
$TEXTSTYLE
  7
Standard
  9
$CLAYER
  8
0
  9
$CELTYPE
  6
ByLayer
  9
$CECOLOR
 62
   256
  9
$CELTSCALE
 40
1.0
  9
$DISPSILH
 70
     0
  9
$DIMSCALE
 40
1.0
  9
$DIMASZ
 40
2.5
  9
$DIMEXO
 40
0.625
  9
$DIMDLI
 40
3.75
  9
$DIMRND
 40
0.0
  9
$DIMDLE
 40
0.0
  9
$DIMEXE
 40
1.25
  9
$DIMTP
 40
0.0
  9
$DIMTM
 40
0.0
  9
$DIMTXT
 40
2.5
  9
$DIMCEN
 40
2.5
  9
$DIMTSZ
 40
0.0
  9
$DIMTOL
 70
     0
  9
$DIMLIM
 70
     0
  9
$DIMTIH
 70
     0
  9
$DIMTOH
 70
     0
  9
$DIMSE1
 70
     0
  9
$DIMSE2
 70
     0
  9
$DIMTAD
 70
     1
  9
$DIMZIN
 70
     8
  9
$DIMBLK
  1

  9
$DIMASO
 70
     1
  9
$DIMSHO
 70
     1
  9
$DIMPOST
  1

  9
$DIMAPOST
  1

  9
$DIMALT
 70
     0
  9
$DIMALTD
 70
     3
  9
$DIMALTF
 40
0.0393700787
  9
$DIMLFAC
 40
1.0
  9
$DIMTOFL
 70
     1
  9
$DIMTVP
 40
0.0
  9
$DIMTIX
 70
     0
  9
$DIMSOXD
 70
     0
  9
$DIMSAH
 70
     0
  9
$DIMBLK1
  1

  9
$DIMBLK2
  1

  9
$DIMSTYLE
  2
ISO-25
  9
$DIMCLRD
 70
     0
  9
$DIMCLRE
 70
     0
  9
$DIMCLRT
 70
     0
  9
$DIMTFAC
 40
1.0
  9
$DIMGAP
 40
0.625
  9
$DIMJUST
 70
     0
  9
$DIMSD1
 70
     0
  9
$DIMSD2
 70
     0
  9
$DIMTOLJ
 70
     0
  9
$DIMTZIN
 70
     8
  9
$DIMALTZ
 70
     0
  9
$DIMALTTZ
 70
     0
  9
$DIMUPT
 70
     0
  9
$DIMDEC
 70
     2
  9
$DIMTDEC
 70
     2
  9
$DIMALTU
 70
     2
  9
$DIMALTTD
 70
     3
  9
$DIMTXSTY
  7
Standard
  9
$DIMAUNIT
 70
     0
  9
$DIMADEC
 70
     0
  9
$DIMALTRND
 40
0.0
  9
$DIMAZIN
 70
     0
  9
$DIMDSEP
 70
    44
  9
$DIMATFIT
 70
     3
  9
$DIMFRAC
 70
     0
  9
$DIMLDRBLK
  1

  9
$DIMLUNIT
 70
     2
  9
$DIMLWD
 70
    -2
  9
$DIMLWE
 70
    -2
  9
$DIMTMOVE
 70
     0
  9
$LUNITS
 70
     2
  9
$LUPREC
 70
     4
  9
$SKETCHINC
 40
1.0
  9
$FILLETRAD
 40
10.0
  9
$AUNITS
 70
     0
  9
$AUPREC
 70
     0
  9
$MENU
  1
.
  9
$ELEVATION
 40
0.0
  9
$PELEVATION
 40
0.0
  9
$THICKNESS
 40
0.0
  9
$LIMCHECK
 70
     0
  9
$CHAMFERA
 40
10.0
  9
$CHAMFERB
 40
10.0
  9
$CHAMFERC
 40
20.0
  9
$CHAMFERD
 40
0.0
  9
$SKPOLY
 70
     0
  9
$TDCREATE
 40
2456821.919899467
  9
$TDUCREATE
 40
2456821.836566134
  9
$TDUPDATE
 40
2456821.91990794
  9
$TDUUPDATE
 40
2456821.836574607
  9
$TDINDWG
 40
0.0000000116
  9
$TDUSRTIMER
 40
0.0000000116
  9
$USRTIMER
 70
     1
  9
$ANGBASE
 50
0.0
  9
$ANGDIR
 70
     0
  9
$PDMODE
 70
     0
  9
$PDSIZE
 40
0.0
  9
$PLINEWID
 40
0.0
  9
$SPLFRAME
 70
     0
  9
$SPLINETYPE
 70
     6
  9
$SPLINESEGS
 70
     8
  9
$HANDSEED
  5
1B3
  9
$SURFTAB1
 70
     6
  9
$SURFTAB2
 70
     6
  9
$SURFTYPE
 70
     6
  9
$SURFU
 70
     6
  9
$SURFV
 70
     6
  9
$UCSBASE
  2

  9
$UCSNAME
  2

  9
$UCSORG
 10
0.0
 20
0.0
 30
0.0
  9
$UCSXDIR
 10
1.0
 20
0.0
 30
0.0
  9
$UCSYDIR
 10
0.0
 20
1.0
 30
0.0
  9
$UCSORTHOREF
  2

  9
$UCSORTHOVIEW
 70
     0
  9
$UCSORGTOP
 10
0.0
 20
0.0
 30
0.0
  9
$UCSORGBOTTOM
 10
0.0
 20
0.0
 30
0.0
  9
$UCSORGLEFT
 10
0.0
 20
0.0
 30
0.0
  9
$UCSORGRIGHT
 10
0.0
 20
0.0
 30
0.0
  9
$UCSORGFRONT
 10
0.0
 20
0.0
 30
0.0
  9
$UCSORGBACK
 10
0.0
 20
0.0
 30
0.0
  9
$PUCSBASE
  2

  9
$PUCSNAME
  2

  9
$PUCSORG
 10
0.0
 20
0.0
 30
0.0
  9
$PUCSXDIR
 10
1.0
 20
0.0
 30
0.0
  9
$PUCSYDIR
 10
0.0
 20
1.0
 30
0.0
  9
$PUCSORTHOREF
  2

  9
$PUCSORTHOVIEW
 70
     0
  9
$PUCSORGTOP
 10
0.0
 20
0.0
 30
0.0
  9
$PUCSORGBOTTOM
 10
0.0
 20
0.0
 30
0.0
  9
$PUCSORGLEFT
 10
0.0
 20
0.0
 30
0.0
  9
$PUCSORGRIGHT
 10
0.0
 20
0.0
 30
0.0
  9
$PUCSORGFRONT
 10
0.0
 20
0.0
 30
0.0
  9
$PUCSORGBACK
 10
0.0
 20
0.0
 30
0.0
  9
$USERI1
 70
     0
  9
$USERI2
 70
     0
  9
$USERI3
 70
     0
  9
$USERI4
 70
     0
  9
$USERI5
 70
     0
  9
$USERR1
 40
0.0
  9
$USERR2
 40
0.0
  9
$USERR3
 40
0.0
  9
$USERR4
 40
0.0
  9
$USERR5
 40
0.0
  9
$WORLDVIEW
 70
     1
  9
$SHADEDGE
 70
     3
  9
$SHADEDIF
 70
    70
  9
$TILEMODE
 70
     1
  9
$MAXACTVP
 70
    64
  9
$PINSBASE
 10
0.0
 20
0.0
 30
0.0
  9
$PLIMCHECK
 70
     0
  9
$PEXTMIN
 10
0.0
 20
0.0
 30
0.0
  9
$PEXTMAX
 10
420.0
 20
594.0
 30
0.0
  9
$PLIMMIN
 10
0.0
 20
0.0
  9
$PLIMMAX
 10
420.0
 20
594.0
  9
$UNITMODE
 70
     0
  9
$VISRETAIN
 70
     1
  9
$PLINEGEN
 70
     0
  9
$PSLTSCALE
 70
     1
  9
$TREEDEPTH
 70
  3020
  9
$CMLSTYLE
  2
Standard
  9
$CMLJUST
 70
     0
  9
$CMLSCALE
 40
20.0
  9
$PROXYGRAPHICS
 70
     1
  9
$MEASUREMENT
 70
     1
  9
$CELWEIGHT
370
    -1
  9
$ENDCAPS
280
     0
  9
$JOINSTYLE
280
     0
  9
$LWDISPLAY
290
     0
  9
$INSUNITS
 70
     4
  9
$HYPERLINKBASE
  1

  9
$STYLESHEET
  1

  9
$XEDIT
290
     1
  9
$CEPSNTYPE
380
     0
  9
$PSTYLEMODE
290
     1
  9
$FINGERPRINTGUID
  2
{B76752F8-890A-4215-AC6D-78E2DD528AF8}
  9
$VERSIONGUID
  2
{FAEB1C32-E019-11D5-929B-00C0DF256EC4}
  9
$EXTNAMES
290
     1
  9
$PSVPSCALE
 40
0.0
  9
$OLESTARTUP
290
     0
  0
ENDSEC
  0
SECTION
  2
CLASSES
  0
CLASS
  1
ACDBDICTIONARYWDFLT
  2
AcDbDictionaryWithDefault
  3
ObjectDBX Classes
 90
        0
280
     0
281
     0
  0
CLASS
  1
VISUALSTYLE
  2
AcDbVisualStyle
  3
ObjectDBX Classes
 90
     4095
280
     0
281
     0
  0
CLASS
  1
MATERIAL
  2
AcDbMaterial
  3
ObjectDBX Classes
 90
     1153
280
     0
281
     0
  0
CLASS
  1
DICTIONARYVAR
  2
AcDbDictionaryVar
  3
ObjectDBX Classes
 90
        0
280
     0
281
     0
  0
CLASS
  1
ACDBPLACEHOLDER
  2
AcDbPlaceHolder
  3
ObjectDBX Classes
 90
        0
280
     0
281
     0
  0
CLASS
  1
LAYOUT
  2
AcDbLayout
  3
ObjectDBX Classes
 90
        0
280
     0
281
     0
  0
ENDSEC
  0
SECTION
  2
TABLES
  0
TABLE
  2
VPORT
  5
8
330
0
100
AcDbSymbolTable
 70
     1
  0
VPORT
  5
29
330
8
100
AcDbSymbolTableRecord
100
AcDbViewportTableRecord
  2
*Active
 70
     0
 10
0.0
 20
0.0
 11
1.0
 21
1.0
 12
344.1869158879
 22
148.5
 13
0.0
 23
0.0
 14
10.0
 24
10.0
 15
10.0
 25
10.0
 16
0.0
 26
0.0
 36
1.0
 17
0.0
 27
0.0
 37
0.0
 40
297.0
 41
1.9729729729
 42
50.0
 43
0.0
 44
0.0
 50
0.0
 51
0.0
 71
     0
 72
   100
 73
     1
 74
     3
 75
     0
 76
     0
 77
     0
 78
     0
281
     0
 65
     1
110
0.0
120
0.0
130
0.0
111
1.0
121
0.0
131
0.0
112
0.0
122
1.0
132
0.0
 79
     0
146
0.0
  0
ENDTAB
  0
TABLE
  2
LTYPE
  5
5
330
0
100
AcDbSymbolTable
 70
     2
  0
LTYPE
  5
14
330
5
100
AcDbSymbolTableRecord
100
AcDbLinetypeTableRecord
  2
ByBlock
 70
     0
  3

 72
    65
 73
     0
 40
0.0
  0
LTYPE
  5
15
330
5
100
AcDbSymbolTableRecord
100
AcDbLinetypeTableRecord
  2
ByLayer
 70
     0
  3

 72
    65
 73
     0
 40
0.0
  0
LTYPE
  5
16
330
5
100
AcDbSymbolTableRecord
100
AcDbLinetypeTableRecord
  2
Continuous
 70
     0
  3
Solid line
 72
    65
 73
     0
 40
0.0
  0
LTYPE
  5
42
330
5
100
AcDbSymbolTableRecord
100
AcDbLinetypeTableRecord
  2
CENTER2
 70
     0
  3
Center (.5x) ___ _ ___ _ ___ _ ___ _ ___ _ ___
 72
    65
 73
     4
 40
28.575
 49
19.05
 74
     4
 75
     0
340
0
 46
0.0
 50
0.0
 44
0.0
 45
0.0
 49
-3.175
 74
     4
 75
     0
340
0
 46
0.0
 50
0.0
 44
0.0
 45
0.0
 49
3.175
 74
     4
 75
     0
340
0
 46
0.0
 50
0.0
 44
0.0
 45
0.0
 49
-3.175
 74
     4
 75
     0
340
0
 46
0.0
 50
0.0
 44
0.0
 45
0.0
  0
ENDTAB
  0
TABLE
  2
LAYER
  5
2
330
0
100
AcDbSymbolTable
 70
     4
  0
LAYER
  5
10
330
2
100
AcDbSymbolTableRecord
100
AcDbLayerTableRecord
  2
0
 70
     0
 62
     7
  6
Continuous
370
    -3
390
F
  0
LAYER
  5
3F
330
2
100
AcDbSymbolTableRecord
100
AcDbLayerTableRecord
  2
Maﬂe
 70
     0
 62
     7
  6
Continuous
370
    -3
390
F
  0
LAYER
  5
9B
330
2
100
AcDbSymbolTableRecord
100
AcDbLayerTableRecord
  2
Default
 70
     0
 62
     7
  6
Continuous
370
    -3
390
F
  0
LAYER
  5
9E
330
2
100
AcDbSymbolTableRecord
100
AcDbLayerTableRecord
  2
BODENPLATTE
 70
     0
 62
     7
  6
Continuous
370
    -3
390
F
  0
ENDTAB
  0
TABLE
  2
STYLE
  5
3
330
0
100
AcDbSymbolTable
 70
     3
  0
STYLE
  5
11
330
3
100
AcDbSymbolTableRecord
100
AcDbTextStyleTableRecord
  2
Standard
 70
     0
 40
0.0
 41
1.0
 50
0.0
 71
     0
 42
2.5
  3
txt
  4

  0
STYLE
  5
BF
330
3
100
AcDbSymbolTableRecord
100
AcDbTextStyleTableRecord
  2
SEACAD_Solid_Edge_ISO
 70
     0
 40
0.0
 41
1.0
 50
0.0
 71
     0
 42
0.2
  3
seiso.ttf
  4

1001
ACAD
1000
Solid Edge ISO
1071
        0
  0
STYLE
  5
D3
330
3
100
AcDbSymbolTableRecord
100
AcDbTextStyleTableRecord
  2
SEACAD_Solid_Edge_ISO1_Symbols
 70
     0
 40
0.0
 41
1.0
 50
0.0
 71
     0
 42
0.2
  3
semeci1.ttf
  4

1001
ACAD
1000
Solid Edge ISO1 Symbols
1071
        0
  0
ENDTAB
  0
TABLE
  2
VIEW
  5
6
330
0
100
AcDbSymbolTable
 70
     0
  0
ENDTAB
  0
TABLE
  2
UCS
  5
7
330
0
100
AcDbSymbolTable
 70
     0
  0
ENDTAB
  0
TABLE
  2
APPID
  5
9
330
0
100
AcDbSymbolTable
 70
     1
  0
APPID
  5
12
330
9
100
AcDbSymbolTableRecord
100
AcDbRegAppTableRecord
  2
ACAD
 70
     0
  0
ENDTAB
  0
TABLE
  2
DIMSTYLE
  5
A
330
0
100
AcDbSymbolTable
 70
     3
100
AcDbDimStyleTable
  0
DIMSTYLE
105
27
330
A
100
AcDbSymbolTableRecord
100
AcDbDimStyleTableRecord
  2
ISO-25
 70
     0
 41
2.5
 42
0.625
 43
3.75
 44
1.25
 73
     0
 74
     0
 77
     1
 78
     8
140
2.5
141
2.5
143
0.0393700787
147
0.625
171
     3
172
     1
178
     0
271
     2
272
     2
274
     3
278
    44
283
     0
284
     8
340
11
  0
DIMSTYLE
105
AD
330
A
100
AcDbSymbolTableRecord
100
AcDbDimStyleTableRecord
  2
Standard
 70
     0
178
     0
340
11
  0
DIMSTYLE
105
C0
102
{ACAD_REACTORS
330
C1
330
C9
330
D2
330
DD
330
E7
330
F1
330
FB
330
105
330
10F
330
119
330
123
330
12D
330
137
330
141
330
14A
330
154
330
15E
330
168
330
172
330
17C
102
}
330
A
100
AcDbSymbolTableRecord
100
AcDbDimStyleTableRecord
  2
ISO
 70
     0
 41
3.5
 42
0.0
 44
1.75
 78
     8
140
3.5
141
1.75
147
1.75
172
     1
173
     1
178
     0
271
     2
272
     2
278
    44
284
     8
340
BF
343
BA
344
BA
  0
ENDTAB
  0
TABLE
  2
BLOCK_RECORD
  5
1
330
0
100
AcDbSymbolTable
 70
    35
  0
BLOCK_RECORD
  5
1F
330
1
100
AcDbSymbolTableRecord
100
AcDbBlockTableRecord
  2
*Model_Space
340
22
  0
BLOCK_RECORD
  5
1B
330
1
100
AcDbSymbolTableRecord
100
AcDbBlockTableRecord
  2
*Paper_Space
340
1E
  0
BLOCK_RECORD
  5
40
330
1
100
AcDbSymbolTableRecord
100
AcDbBlockTableRecord
  2
SEANNOT_GROUP
340
0
102
{BLKREFS
331
41
102
}
  0
BLOCK_RECORD
  5
4B
330
1
100
AcDbSymbolTableRecord
100
AcDbBlockTableRecord
  2
SEANNOT_GROUP1
340
0
102
{BLKREFS
331
4C
102
}
  0
BLOCK_RECORD
  5
55
330
1
100
AcDbSymbolTableRecord
100
AcDbBlockTableRecord
  2
SEANNOT_GROUP2
340
0
102
{BLKREFS
331
56
102
}
  0
BLOCK_RECORD
  5
5F
330
1
100
AcDbSymbolTableRecord
100
AcDbBlockTableRecord
  2
SEANNOT_GROUP3
340
0
102
{BLKREFS
331
60
102
}
  0
BLOCK_RECORD
  5
69
330
1
100
AcDbSymbolTableRecord
100
AcDbBlockTableRecord
  2
SEANNOT_GROUP4
340
0
102
{BLKREFS
331
6A
102
}
  0
BLOCK_RECORD
  5
73
330
1
100
AcDbSymbolTableRecord
100
AcDbBlockTableRecord
  2
SEANNOT_GROUP5
340
0
102
{BLKREFS
331
74
102
}
  0
BLOCK_RECORD
  5
7D
330
1
100
AcDbSymbolTableRecord
100
AcDbBlockTableRecord
  2
SEANNOT_GROUP6
340
0
102
{BLKREFS
331
7E
102
}
  0
BLOCK_RECORD
  5
87
330
1
100
AcDbSymbolTableRecord
100
AcDbBlockTableRecord
  2
SEANNOT_GROUP7
340
0
102
{BLKREFS
331
88
102
}
  0
BLOCK_RECORD
  5
91
330
1
100
AcDbSymbolTableRecord
100
AcDbBlockTableRecord
  2
SEANNOT_GROUP8
340
0
102
{BLKREFS
331
92
102
}
  0
BLOCK_RECORD
  5
96
330
1
100
AcDbSymbolTableRecord
100
AcDbBlockTableRecord
  2
SEANNOT_GROUP9
340
0
102
{BLKREFS
331
97
102
}
  0
BLOCK_RECORD
  5
9C
330
1
100
AcDbSymbolTableRecord
100
AcDbBlockTableRecord
  2
SE
340
0
102
{BLKREFS
331
9D
102
}
  0
BLOCK_RECORD
  5
AE
330
1
100
AcDbSymbolTableRecord
100
AcDbBlockTableRecord
  2
_OBLIQUE
340
0
  0
BLOCK_RECORD
  5
B2
330
1
100
AcDbSymbolTableRecord
100
AcDbBlockTableRecord
  2
_DOT
340
0
  0
BLOCK_RECORD
  5
BA
330
1
100
AcDbSymbolTableRecord
100
AcDbBlockTableRecord
  2
_SE_FILLED
340
0
  0
BLOCK_RECORD
  5
C2
330
1
100
AcDbSymbolTableRecord
100
AcDbBlockTableRecord
  2
DMBLK1
340
0
  0
BLOCK_RECORD
  5
CA
330
1
100
AcDbSymbolTableRecord
100
AcDbBlockTableRecord
  2
DMBLK2
340
0
  0
BLOCK_RECORD
  5
D4
330
1
100
AcDbSymbolTableRecord
100
AcDbBlockTableRecord
  2
DMBLK3
340
0
  0
BLOCK_RECORD
  5
DE
330
1
100
AcDbSymbolTableRecord
100
AcDbBlockTableRecord
  2
DMBLK4
340
0
  0
BLOCK_RECORD
  5
E8
330
1
100
AcDbSymbolTableRecord
100
AcDbBlockTableRecord
  2
DMBLK5
340
0
  0
BLOCK_RECORD
  5
F2
330
1
100
AcDbSymbolTableRecord
100
AcDbBlockTableRecord
  2
DMBLK6
340
0
  0
BLOCK_RECORD
  5
FC
330
1
100
AcDbSymbolTableRecord
100
AcDbBlockTableRecord
  2
DMBLK7
340
0
  0
BLOCK_RECORD
  5
106
330
1
100
AcDbSymbolTableRecord
100
AcDbBlockTableRecord
  2
DMBLK8
340
0
  0
BLOCK_RECORD
  5
110
330
1
100
AcDbSymbolTableRecord
100
AcDbBlockTableRecord
  2
DMBLK9
340
0
  0
BLOCK_RECORD
  5
11A
330
1
100
AcDbSymbolTableRecord
100
AcDbBlockTableRecord
  2
DMBLK10
340
0
  0
BLOCK_RECORD
  5
124
330
1
100
AcDbSymbolTableRecord
100
AcDbBlockTableRecord
  2
DMBLK11
340
0
  0
BLOCK_RECORD
  5
12E
330
1
100
AcDbSymbolTableRecord
100
AcDbBlockTableRecord
  2
DMBLK12
340
0
  0
BLOCK_RECORD
  5
138
330
1
100
AcDbSymbolTableRecord
100
AcDbBlockTableRecord
  2
DMBLK13
340
0
  0
BLOCK_RECORD
  5
142
330
1
100
AcDbSymbolTableRecord
100
AcDbBlockTableRecord
  2
DMBLK14
340
0
  0
BLOCK_RECORD
  5
14B
330
1
100
AcDbSymbolTableRecord
100
AcDbBlockTableRecord
  2
DMBLK15
340
0
  0
BLOCK_RECORD
  5
155
330
1
100
AcDbSymbolTableRecord
100
AcDbBlockTableRecord
  2
DMBLK16
340
0
  0
BLOCK_RECORD
  5
15F
330
1
100
AcDbSymbolTableRecord
100
AcDbBlockTableRecord
  2
DMBLK17
340
0
  0
BLOCK_RECORD
  5
169
330
1
100
AcDbSymbolTableRecord
100
AcDbBlockTableRecord
  2
DMBLK18
340
0
  0
BLOCK_RECORD
  5
173
330
1
100
AcDbSymbolTableRecord
100
AcDbBlockTableRecord
  2
DMBLK19
340
0
  0
BLOCK_RECORD
  5
17D
330
1
100
AcDbSymbolTableRecord
100
AcDbBlockTableRecord
  2
DMBLK20
340
0
  0
ENDTAB
  0
ENDSEC
  0
SECTION
  2
BLOCKS
  0
BLOCK
  5
20
330
1F
100
AcDbEntity
  8
0
100
AcDbBlockBegin
  2
*Model_Space
 70
     0
 10
0.0
 20
0.0
 30
0.0
  3
*Model_Space
  1

  0
ENDBLK
  5
21
330
1F
100
AcDbEntity
  8
0
100
AcDbBlockEnd
  0
BLOCK
  5
1C
330
1B
100
AcDbEntity
 67
     1
  8
0
100
AcDbBlockBegin
  2
*Paper_Space
 70
     0
 10
0.0
 20
0.0
 30
0.0
  3
*Paper_Space
  1

  0
ENDBLK
  5
1D
330
1B
100
AcDbEntity
 67
     1
  8
0
100
AcDbBlockEnd
  0
BLOCK
  5
49
330
40
100
AcDbEntity
  8
0
100
AcDbBlockBegin
  2
SEANNOT_GROUP
 70
     0
 10
0.0
 20
0.0
 30
0.0
  3
SEANNOT_GROUP
  1

  0
LINE
  5
43
330
40
100
AcDbEntity
  8
Maﬂe
  6
CENTER2
 62
     7
100
AcDbLine
 10
98.5757862732
 20
116.9891762682
 30
0.0
 11
84.575785841
 21
116.9891762682
 31
0.0
  0
LINE
  5
44
330
40
100
AcDbEntity
  8
Maﬂe
  6
CENTER2
 62
     7
100
AcDbLine
 10
91.5757860571
 20
123.9891764843
 30
0.0
 11
91.5757860571
 21
109.9891760522
 31
0.0
  0
LINE
  5
45
330
40
100
AcDbEntity
  8
Maﬂe
  6
CENTER2
 62
     7
100
AcDbLine
 10
100.3257863272
 20
116.9891762682
 30
0.0
 11
99.0757860571
 21
116.9891762682
 31
0.0
  0
LINE
  5
46
330
40
100
AcDbEntity
  8
Maﬂe
  6
CENTER2
 62
     7
100
AcDbLine
 10
91.5757860571
 20
125.7391765383
 30
0.0
 11
91.5757860571
 21
124.4891762682
 31
0.0
  0
LINE
  5
47
330
40
100
AcDbEntity
  8
Maﬂe
  6
CENTER2
 62
     7
100
AcDbLine
 10
82.825785787
 20
116.9891762682
 30
0.0
 11
84.0757860571
 21
116.9891762682
 31
0.0
  0
LINE
  5
48
330
40
100
AcDbEntity
  8
Maﬂe
  6
CENTER2
 62
     7
100
AcDbLine
 10
91.5757860571
 20
108.2391759982
 30
0.0
 11
91.5757860571
 21
109.4891762682
 31
0.0
  0
ENDBLK
  5
4A
330
40
100
AcDbEntity
  8
0
100
AcDbBlockEnd
  0
BLOCK
  5
53
330
4B
100
AcDbEntity
  8
0
100
AcDbBlockBegin
  2
SEANNOT_GROUP1
 70
     0
 10
0.0
 20
0.0
 30
0.0
  3
SEANNOT_GROUP1
  1

  0
LINE
  5
4D
330
4B
100
AcDbEntity
  8
Maﬂe
  6
CENTER2
 62
     7
100
AcDbLine
 10
98.5757862732
 20
400.9891762682
 30
0.0
 11
84.575785841
 21
400.9891762682
 31
0.0
  0
LINE
  5
4E
330
4B
100
AcDbEntity
  8
Maﬂe
  6
CENTER2
 62
     7
100
AcDbLine
 10
91.5757860571
 20
407.9891764843
 30
0.0
 11
91.5757860571
 21
393.9891760522
 31
0.0
  0
LINE
  5
4F
330
4B
100
AcDbEntity
  8
Maﬂe
  6
CENTER2
 62
     7
100
AcDbLine
 10
100.3257863272
 20
400.9891762682
 30
0.0
 11
99.0757860571
 21
400.9891762682
 31
0.0
  0
LINE
  5
50
330
4B
100
AcDbEntity
  8
Maﬂe
  6
CENTER2
 62
     7
100
AcDbLine
 10
91.5757860571
 20
409.7391765383
 30
0.0
 11
91.5757860571
 21
408.4891762682
 31
0.0
  0
LINE
  5
51
330
4B
100
AcDbEntity
  8
Maﬂe
  6
CENTER2
 62
     7
100
AcDbLine
 10
82.825785787
 20
400.9891762682
 30
0.0
 11
84.0757860571
 21
400.9891762682
 31
0.0
  0
LINE
  5
52
330
4B
100
AcDbEntity
  8
Maﬂe
  6
CENTER2
 62
     7
100
AcDbLine
 10
91.5757860571
 20
392.2391759982
 30
0.0
 11
91.5757860571
 21
393.4891762682
 31
0.0
  0
ENDBLK
  5
54
330
4B
100
AcDbEntity
  8
0
100
AcDbBlockEnd
  0
BLOCK
  5
5D
330
55
100
AcDbEntity
  8
0
100
AcDbBlockBegin
  2
SEANNOT_GROUP2
 70
     0
 10
0.0
 20
0.0
 30
0.0
  3
SEANNOT_GROUP2
  1

  0
LINE
  5
57
330
55
100
AcDbEntity
  8
Maﬂe
  6
CENTER2
 62
     7
100
AcDbLine
 10
211.5757862732
 20
462.9891762682
 30
0.0
 11
197.575785841
 21
462.9891762682
 31
0.0
  0
LINE
  5
58
330
55
100
AcDbEntity
  8
Maﬂe
  6
CENTER2
 62
     7
100
AcDbLine
 10
204.5757860571
 20
469.9891764843
 30
0.0
 11
204.5757860571
 21
455.9891760522
 31
0.0
  0
LINE
  5
59
330
55
100
AcDbEntity
  8
Maﬂe
  6
CENTER2
 62
     7
100
AcDbLine
 10
213.3257863272
 20
462.9891762682
 30
0.0
 11
212.0757860571
 21
462.9891762682
 31
0.0
  0
LINE
  5
5A
330
55
100
AcDbEntity
  8
Maﬂe
  6
CENTER2
 62
     7
100
AcDbLine
 10
204.5757860571
 20
471.7391765383
 30
0.0
 11
204.5757860571
 21
470.4891762682
 31
0.0
  0
LINE
  5
5B
330
55
100
AcDbEntity
  8
Maﬂe
  6
CENTER2
 62
     7
100
AcDbLine
 10
195.825785787
 20
462.9891762682
 30
0.0
 11
197.0757860571
 21
462.9891762682
 31
0.0
  0
LINE
  5
5C
330
55
100
AcDbEntity
  8
Maﬂe
  6
CENTER2
 62
     7
100
AcDbLine
 10
204.5757860571
 20
454.2391759982
 30
0.0
 11
204.5757860571
 21
455.4891762682
 31
0.0
  0
ENDBLK
  5
5E
330
55
100
AcDbEntity
  8
0
100
AcDbBlockEnd
  0
BLOCK
  5
67
330
5F
100
AcDbEntity
  8
0
100
AcDbBlockBegin
  2
SEANNOT_GROUP3
 70
     0
 10
0.0
 20
0.0
 30
0.0
  3
SEANNOT_GROUP3
  1

  0
LINE
  5
61
330
5F
100
AcDbEntity
  8
Maﬂe
  6
CENTER2
 62
     7
100
AcDbLine
 10
228.5757862732
 20
164.9891762682
 30
0.0
 11
214.575785841
 21
164.9891762682
 31
0.0
  0
LINE
  5
62
330
5F
100
AcDbEntity
  8
Maﬂe
  6
CENTER2
 62
     7
100
AcDbLine
 10
221.5757860571
 20
171.9891764843
 30
0.0
 11
221.5757860571
 21
157.9891760522
 31
0.0
  0
LINE
  5
63
330
5F
100
AcDbEntity
  8
Maﬂe
  6
CENTER2
 62
     7
100
AcDbLine
 10
230.3257863272
 20
164.9891762682
 30
0.0
 11
229.0757860571
 21
164.9891762682
 31
0.0
  0
LINE
  5
64
330
5F
100
AcDbEntity
  8
Maﬂe
  6
CENTER2
 62
     7
100
AcDbLine
 10
221.5757860571
 20
173.7391765383
 30
0.0
 11
221.5757860571
 21
172.4891762682
 31
0.0
  0
LINE
  5
65
330
5F
100
AcDbEntity
  8
Maﬂe
  6
CENTER2
 62
     7
100
AcDbLine
 10
212.825785787
 20
164.9891762682
 30
0.0
 11
214.0757860571
 21
164.9891762682
 31
0.0
  0
LINE
  5
66
330
5F
100
AcDbEntity
  8
Maﬂe
  6
CENTER2
 62
     7
100
AcDbLine
 10
221.5757860571
 20
156.2391759982
 30
0.0
 11
221.5757860571
 21
157.4891762682
 31
0.0
  0
ENDBLK
  5
68
330
5F
100
AcDbEntity
  8
0
100
AcDbBlockEnd
  0
BLOCK
  5
71
330
69
100
AcDbEntity
  8
0
100
AcDbBlockBegin
  2
SEANNOT_GROUP4
 70
     0
 10
0.0
 20
0.0
 30
0.0
  3
SEANNOT_GROUP4
  1

  0
LINE
  5
6B
330
69
100
AcDbEntity
  8
Maﬂe
  6
CENTER2
 62
     7
100
AcDbLine
 10
228.5757862732
 20
248.9891762682
 30
0.0
 11
214.575785841
 21
248.9891762682
 31
0.0
  0
LINE
  5
6C
330
69
100
AcDbEntity
  8
Maﬂe
  6
CENTER2
 62
     7
100
AcDbLine
 10
221.5757860571
 20
255.9891764843
 30
0.0
 11
221.5757860571
 21
241.9891760522
 31
0.0
  0
LINE
  5
6D
330
69
100
AcDbEntity
  8
Maﬂe
  6
CENTER2
 62
     7
100
AcDbLine
 10
230.3257863272
 20
248.9891762682
 30
0.0
 11
259.0757860571
 21
248.9891762682
 31
0.0
  0
LINE
  5
6E
330
69
100
AcDbEntity
  8
Maﬂe
  6
CENTER2
 62
     7
100
AcDbLine
 10
221.5757860571
 20
257.7391765383
 30
0.0
 11
221.5757860571
 21
286.4891762682
 31
0.0
  0
LINE
  5
6F
330
69
100
AcDbEntity
  8
Maﬂe
  6
CENTER2
 62
     7
100
AcDbLine
 10
212.825785787
 20
248.9891762682
 30
0.0
 11
184.0757860571
 21
248.9891762682
 31
0.0
  0
LINE
  5
70
330
69
100
AcDbEntity
  8
Maﬂe
  6
CENTER2
 62
     7
100
AcDbLine
 10
221.5757860571
 20
240.2391759982
 30
0.0
 11
221.5757860571
 21
211.4891762682
 31
0.0
  0
ENDBLK
  5
72
330
69
100
AcDbEntity
  8
0
100
AcDbBlockEnd
  0
BLOCK
  5
7B
330
73
100
AcDbEntity
  8
0
100
AcDbBlockBegin
  2
SEANNOT_GROUP5
 70
     0
 10
0.0
 20
0.0
 30
0.0
  3
SEANNOT_GROUP5
  1

  0
LINE
  5
75
330
73
100
AcDbEntity
  8
Maﬂe
  6
CENTER2
 62
     7
100
AcDbLine
 10
245.5757862732
 20
462.9891762682
 30
0.0
 11
231.575785841
 21
462.9891762682
 31
0.0
  0
LINE
  5
76
330
73
100
AcDbEntity
  8
Maﬂe
  6
CENTER2
 62
     7
100
AcDbLine
 10
238.5757860571
 20
469.9891764843
 30
0.0
 11
238.5757860571
 21
455.9891760522
 31
0.0
  0
LINE
  5
77
330
73
100
AcDbEntity
  8
Maﬂe
  6
CENTER2
 62
     7
100
AcDbLine
 10
247.3257863272
 20
462.9891762682
 30
0.0
 11
246.0757860571
 21
462.9891762682
 31
0.0
  0
LINE
  5
78
330
73
100
AcDbEntity
  8
Maﬂe
  6
CENTER2
 62
     7
100
AcDbLine
 10
238.5757860571
 20
471.7391765383
 30
0.0
 11
238.5757860571
 21
470.4891762682
 31
0.0
  0
LINE
  5
79
330
73
100
AcDbEntity
  8
Maﬂe
  6
CENTER2
 62
     7
100
AcDbLine
 10
229.825785787
 20
462.9891762682
 30
0.0
 11
231.0757860571
 21
462.9891762682
 31
0.0
  0
LINE
  5
7A
330
73
100
AcDbEntity
  8
Maﬂe
  6
CENTER2
 62
     7
100
AcDbLine
 10
238.5757860571
 20
454.2391759982
 30
0.0
 11
238.5757860571
 21
455.4891762682
 31
0.0
  0
ENDBLK
  5
7C
330
73
100
AcDbEntity
  8
0
100
AcDbBlockEnd
  0
BLOCK
  5
85
330
7D
100
AcDbEntity
  8
0
100
AcDbBlockBegin
  2
SEANNOT_GROUP6
 70
     0
 10
0.0
 20
0.0
 30
0.0
  3
SEANNOT_GROUP6
  1

  0
LINE
  5
7F
330
7D
100
AcDbEntity
  8
Maﬂe
  6
CENTER2
 62
     7
100
AcDbLine
 10
358.5757862732
 20
116.9891762682
 30
0.0
 11
344.575785841
 21
116.9891762682
 31
0.0
  0
LINE
  5
80
330
7D
100
AcDbEntity
  8
Maﬂe
  6
CENTER2
 62
     7
100
AcDbLine
 10
351.5757860571
 20
123.9891764843
 30
0.0
 11
351.5757860571
 21
109.9891760522
 31
0.0
  0
LINE
  5
81
330
7D
100
AcDbEntity
  8
Maﬂe
  6
CENTER2
 62
     7
100
AcDbLine
 10
360.3257863272
 20
116.9891762682
 30
0.0
 11
359.0757860571
 21
116.9891762682
 31
0.0
  0
LINE
  5
82
330
7D
100
AcDbEntity
  8
Maﬂe
  6
CENTER2
 62
     7
100
AcDbLine
 10
351.5757860571
 20
125.7391765383
 30
0.0
 11
351.5757860571
 21
124.4891762682
 31
0.0
  0
LINE
  5
83
330
7D
100
AcDbEntity
  8
Maﬂe
  6
CENTER2
 62
     7
100
AcDbLine
 10
342.825785787
 20
116.9891762682
 30
0.0
 11
344.0757860571
 21
116.9891762682
 31
0.0
  0
LINE
  5
84
330
7D
100
AcDbEntity
  8
Maﬂe
  6
CENTER2
 62
     7
100
AcDbLine
 10
351.5757860571
 20
108.2391759982
 30
0.0
 11
351.5757860571
 21
109.4891762682
 31
0.0
  0
ENDBLK
  5
86
330
7D
100
AcDbEntity
  8
0
100
AcDbBlockEnd
  0
BLOCK
  5
8F
330
87
100
AcDbEntity
  8
0
100
AcDbBlockBegin
  2
SEANNOT_GROUP7
 70
     0
 10
0.0
 20
0.0
 30
0.0
  3
SEANNOT_GROUP7
  1

  0
LINE
  5
89
330
87
100
AcDbEntity
  8
Maﬂe
  6
CENTER2
 62
     7
100
AcDbLine
 10
358.5757862732
 20
400.9891762682
 30
0.0
 11
344.575785841
 21
400.9891762682
 31
0.0
  0
LINE
  5
8A
330
87
100
AcDbEntity
  8
Maﬂe
  6
CENTER2
 62
     7
100
AcDbLine
 10
351.5757860571
 20
407.9891764843
 30
0.0
 11
351.5757860571
 21
393.9891760522
 31
0.0
  0
LINE
  5
8B
330
87
100
AcDbEntity
  8
Maﬂe
  6
CENTER2
 62
     7
100
AcDbLine
 10
360.3257863272
 20
400.9891762682
 30
0.0
 11
359.0757860571
 21
400.9891762682
 31
0.0
  0
LINE
  5
8C
330
87
100
AcDbEntity
  8
Maﬂe
  6
CENTER2
 62
     7
100
AcDbLine
 10
351.5757860571
 20
409.7391765383
 30
0.0
 11
351.5757860571
 21
408.4891762682
 31
0.0
  0
LINE
  5
8D
330
87
100
AcDbEntity
  8
Maﬂe
  6
CENTER2
 62
     7
100
AcDbLine
 10
342.825785787
 20
400.9891762682
 30
0.0
 11
344.0757860571
 21
400.9891762682
 31
0.0
  0
LINE
  5
8E
330
87
100
AcDbEntity
  8
Maﬂe
  6
CENTER2
 62
     7
100
AcDbLine
 10
351.5757860571
 20
392.2391759982
 30
0.0
 11
351.5757860571
 21
393.4891762682
 31
0.0
  0
ENDBLK
  5
90
330
87
100
AcDbEntity
  8
0
100
AcDbBlockEnd
  0
BLOCK
  5
94
330
91
100
AcDbEntity
  8
0
100
AcDbBlockBegin
  2
SEANNOT_GROUP8
 70
     0
 10
0.0
 20
0.0
 30
0.0
  3
SEANNOT_GROUP8
  1

  0
LINE
  5
93
330
91
100
AcDbEntity
  8
Maﬂe
  6
CENTER2
 62
     7
100
AcDbLine
 10
221.4330471162
 20
484.4339889342
 30
0.0
 11
224.0087096774
 21
421.3305429712
 31
0.0
  0
ENDBLK
  5
95
330
91
100
AcDbEntity
  8
0
100
AcDbBlockEnd
  0
BLOCK
  5
99
330
96
100
AcDbEntity
  8
0
100
AcDbBlockBegin
  2
SEANNOT_GROUP9
 70
     0
 10
0.0
 20
0.0
 30
0.0
  3
SEANNOT_GROUP9
  1

  0
LINE
  5
98
330
96
100
AcDbEntity
  8
Maﬂe
  6
CENTER2
 62
     7
100
AcDbLine
 10
221.5757860571
 20
85.4891762682
 30
0.0
 11
221.5757860571
 21
484.4369007748
 31
0.0
  0
ENDBLK
  5
9A
330
96
100
AcDbEntity
  8
0
100
AcDbBlockEnd
  0
BLOCK
  5
AB
330
9C
100
AcDbEntity
  8
0
100
AcDbBlockBegin
  2
SE
 70
     0
 10
0.0
 20
0.0
 30
0.0
  3
SE
  1

  0
ARC
  5
9F
330
9C
100
AcDbEntity
  8
BODENPLATTE
  6
Continuous
 62
     7
100
AcDbCircle
 10
221.5757860571
 20
180.9371762682
 30
0.0
 40
299.9997245065401
100
AcDbArc
 50
59.3361390618
 51
120.6638609382
  0
LINE
  5
A0
330
9C
100
AcDbEntity
  8
BODENPLATTE
  6
Continuous
 62
     7
100
AcDbLine
 10
68.5757860571
 20
438.9891762682
 30
0.0
 11
68.5757860571
 21
88.9891762682
 31
0.0
  0
LINE
  5
A1
330
9C
100
AcDbEntity
  8
BODENPLATTE
  6
Continuous
 62
     7
100
AcDbLine
 10
68.5757860571
 20
88.9891762682
 30
0.0
 11
374.5757860571
 21
88.9891762682
 31
0.0
  0
LINE
  5
A2
330
9C
100
AcDbEntity
  8
BODENPLATTE
  6
Continuous
 62
     7
100
AcDbLine
 10
374.5757860571
 20
88.9891762682
 30
0.0
 11
374.5757860571
 21
438.9891762682
 31
0.0
  0
CIRCLE
  5
A3
330
9C
100
AcDbEntity
  8
BODENPLATTE
  6
Continuous
 62
     7
100
AcDbCircle
 10
221.5757860571
 20
164.9891762682
 30
0.0
 40
4.0
  0
CIRCLE
  5
A4
330
9C
100
AcDbEntity
  8
BODENPLATTE
  6
Continuous
 62
     7
100
AcDbCircle
 10
221.5757860571
 20
248.9891762682
 30
0.0
 40
34.0
  0
CIRCLE
  5
A5
330
9C
100
AcDbEntity
  8
BODENPLATTE
  6
Continuous
 62
     7
100
AcDbCircle
 10
91.5757860571
 20
400.9891762682
 30
0.0
 40
4.0
  0
CIRCLE
  5
A6
330
9C
100
AcDbEntity
  8
BODENPLATTE
  6
Continuous
 62
     7
100
AcDbCircle
 10
351.5757860571
 20
400.9891762682
 30
0.0
 40
4.0
  0
CIRCLE
  5
A7
330
9C
100
AcDbEntity
  8
BODENPLATTE
  6
Continuous
 62
     7
100
AcDbCircle
 10
351.5757860571
 20
116.9891762682
 30
0.0
 40
4.0
  0
CIRCLE
  5
A8
330
9C
100
AcDbEntity
  8
BODENPLATTE
  6
Continuous
 62
     7
100
AcDbCircle
 10
91.5757860571
 20
116.9891762682
 30
0.0
 40
4.0
  0
CIRCLE
  5
A9
330
9C
100
AcDbEntity
  8
BODENPLATTE
  6
Continuous
 62
     7
100
AcDbCircle
 10
204.5757860571
 20
462.9891762682
 30
0.0
 40
4.0
  0
CIRCLE
  5
AA
330
9C
100
AcDbEntity
  8
BODENPLATTE
  6
Continuous
 62
     7
100
AcDbCircle
 10
238.5757860571
 20
462.9891762682
 30
0.0
 40
4.0
  0
ENDBLK
  5
AC
330
9C
100
AcDbEntity
  8
0
100
AcDbBlockEnd
  0
BLOCK
  5
AF
330
AE
100
AcDbEntity
  8
0
100
AcDbBlockBegin
  2
_OBLIQUE
 70
     0
 10
0.0
 20
0.0
 30
0.0
  3
_OBLIQUE
  1

  0
LINE
  5
B1
330
AE
100
AcDbEntity
  8
0
  6
ByBlock
 62
     0
370
    -2
100
AcDbLine
 10
-0.5
 20
-0.5
 30
0.0
 11
0.5
 21
0.5
 31
0.0
  0
ENDBLK
  5
B0
330
AE
100
AcDbEntity
  8
0
100
AcDbBlockEnd
  0
BLOCK
  5
B3
330
B2
100
AcDbEntity
  8
0
100
AcDbBlockBegin
  2
_DOT
 70
     0
 10
0.0
 20
0.0
 30
0.0
  3
_DOT
  1

  0
POLYLINE
  5
B5
330
B2
100
AcDbEntity
  8
0
  6
ByBlock
 62
     0
100
AcDb2dPolyline
 66
     1
 10
0.0
 20
0.0
 30
0.0
 70
     1
 40
0.5
 41
0.5
  0
VERTEX
  5
B7
330
B5
100
AcDbEntity
  8
0
  6
ByBlock
 62
     0
100
AcDbVertex
100
AcDb2dVertex
 10
-0.25
 20
0.0
 30
0.0
 42
1.0
  0
VERTEX
  5
B8
330
B5
100
AcDbEntity
  8
0
  6
ByBlock
 62
     0
100
AcDbVertex
100
AcDb2dVertex
 10
0.25
 20
0.0
 30
0.0
 42
1.0
  0
SEQEND
  5
B9
330
B5
100
AcDbEntity
  8
0
  6
ByBlock
 62
     0
  0
LINE
  5
B6
330
B2
100
AcDbEntity
  8
0
  6
ByBlock
 62
     0
370
    -2
100
AcDbLine
 10
-0.5
 20
0.0
 30
0.0
 11
-1.0
 21
0.0
 31
0.0
  0
ENDBLK
  5
B4
330
B2
100
AcDbEntity
  8
0
100
AcDbBlockEnd
  0
BLOCK
  5
BD
330
BA
100
AcDbEntity
  8
0
100
AcDbBlockBegin
  2
_SE_FILLED
 70
     0
 10
0.0
 20
0.0
 30
0.0
  3
_SE_FILLED
  1

  0
SOLID
  5
BB
330
BA
100
AcDbEntity
  8
0
 62
     0
100
AcDbTrace
 10
0.0
 20
0.0
 30
0.0
 11
-1.0
 21
-0.1665
 31
0.0
 12
-1.0
 22
0.1665
 32
0.0
 13
0.0
 23
0.0
 33
0.0
  0
LINE
  5
BC
330
BA
100
AcDbEntity
  8
0
 62
     0
100
AcDbLine
 10
0.0
 20
0.0
 30
0.0
 11
-1.0
 21
0.0
 31
0.0
  0
ENDBLK
  5
BE
330
BA
100
AcDbEntity
  8
0
100
AcDbBlockEnd
  0
BLOCK
  5
C7
330
C2
100
AcDbEntity
  8
0
100
AcDbBlockBegin
  2
DMBLK1
 70
     0
 10
0.0
 20
0.0
 30
0.0
  3
DMBLK1
  1

  0
LINE
  5
C3
330
C2
100
AcDbEntity
  8
Maﬂe
  6
Continuous
 62
     7
100
AcDbLine
 10
221.5757860571
 20
180.9371762682
 30
0.0
 11
349.0142868085
 21
481.3681884858
 31
0.0
  0
HATCH
  5
C4
330
C2
100
AcDbEntity
  8
Maﬂe
  6
Continuous
 62
     7
100
AcDbHatch
 10
0.0
 20
0.0
 30
0.0
210
0.0
220
0.0
230
1.0
  2
SOLID
 70
     1
 71
     0
 91
        1
 92
        1
 93
        3
 72
     1
 10
339.5570780846126
 20
460.5669991599345
 11
338.7273258551505
 21
457.1171020900612
 72
     1
 10
338.7273258551505
 20
457.1171020900612
 11
340.631112148925
 21
460.1114094060618
 72
     1
 10
340.631112148925
 20
460.1114094060618
 11
339.5570780846126
 21
460.5669991599345
 97
        0
 75
     0
 76
     1
 98
        0
  0
TEXT
  5
C5
330
C2
100
AcDbEntity
  8
Maﬂe
  6
Continuous
 62
     7
100
AcDbText
 10
343.7729741735
 20
471.252695528
 30
0.0
 40
3.5
  1
R
 50
67.0140438024
  7
SEACAD_Solid_Edge_ISO
 11
340.55087208
 21
472.6194647475
 31
0.0
100
AcDbText
 73
     3
  0
TEXT
  5
C6
330
C2
100
AcDbEntity
  8
Maﬂe
  6
Continuous
 62
     7
100
AcDbText
 10
345.4006720621
 20
475.089926203
 30
0.0
 40
3.5
  1
300
 50
67.0140438024
  7
SEACAD_Solid_Edge_ISO
 11
342.1785699686
 21
476.4566954224
 31
0.0
100
AcDbText
 73
     3
  0
ENDBLK
  5
C8
330
C2
100
AcDbEntity
  8
0
100
AcDbBlockEnd
  0
BLOCK
  5
D0
330
CA
100
AcDbEntity
  8
0
100
AcDbBlockBegin
  2
DMBLK2
 70
     0
 10
0.0
 20
0.0
 30
0.0
  3
DMBLK2
  1

  0
HATCH
  5
CB
330
CA
100
AcDbEntity
  8
Maﬂe
  6
Continuous
 62
     7
100
AcDbHatch
 10
0.0
 20
0.0
 30
0.0
210
0.0
220
0.0
230
1.0
  2
SOLID
 70
     1
 71
     0
 91
        1
 92
        1
 93
        3
 72
     1
 10
182.0594847747232
 20
177.4371761602107
 11
183.226151477401
 21
177.4371761602107
 72
     1
 10
183.226151477401
 20
177.4371761602107
 11
182.6428181260621
 21
180.9371762682441
 72
     1
 10
182.6428181260621
 20
180.9371762682441
 11
182.0594847747232
 21
177.4371761602107
 97
        0
 75
     0
 76
     1
 98
        0
  0
HATCH
  5
CC
330
CA
100
AcDbEntity
  8
Maﬂe
  6
Continuous
 62
     7
100
AcDbHatch
 10
0.0
 20
0.0
 30
0.0
210
0.0
220
0.0
230
1.0
  2
SOLID
 70
     1
 71
     0
 91
        1
 92
        1
 93
        3
 72
     1
 10
182.0594847747232
 20
92.48917379944952
 11
182.6428181260621
 21
88.9891736914161
 72
     1
 10
182.6428181260621
 20
88.9891736914161
 11
183.226151477401
 21
92.48917379944952
 72
     1
 10
183.226151477401
 20
92.48917379944952
 11
182.0594847747232
 21
92.48917379944952
 97
        0
 75
     0
 76
     1
 98
        0
  0
LINE
  5
CD
330
CA
100
AcDbEntity
  8
Maﬂe
  6
Continuous
 62
     7
100
AcDbLine
 10
221.5757860571
 20
180.9371762682
 30
0.0
 11
180.892818072
 21
180.9371762682
 31
0.0
  0
LINE
  5
CE
330
CA
100
AcDbEntity
  8
Maﬂe
  6
Continuous
 62
     7
100
AcDbLine
 10
182.6428181261
 20
180.9371762682
 30
0.0
 11
182.6428181261
 21
88.9891736914
 31
0.0
  0
TEXT
  5
CF
330
CA
100
AcDbEntity
  8
Maﬂe
  6
Continuous
 62
     7
100
AcDbText
 10
181.7678181261
 20
130.7870386162
 30
0.0
 40
3.5
  1
91,95
 50
90.0
  7
SEACAD_Solid_Edge_ISO
 11
178.2678181261
 21
130.7870386162
 31
0.0
100
AcDbText
 73
     3
  0
ENDBLK
  5
D1
330
CA
100
AcDbEntity
  8
0
100
AcDbBlockEnd
  0
BLOCK
  5
DB
330
D4
100
AcDbEntity
  8
0
100
AcDbBlockBegin
  2
DMBLK3
 70
     0
 10
0.0
 20
0.0
 30
0.0
  3
DMBLK3
  1

  0
LINE
  5
D5
330
D4
100
AcDbEntity
  8
Maﬂe
  6
Continuous
 62
     7
100
AcDbLine
 10
213.8785749899
 20
457.1190721104
 30
0.0
 11
201.192953463
 21
465.1237597592
 31
0.0
  0
LINE
  5
D6
330
D4
100
AcDbEntity
  8
Maﬂe
  6
Continuous
 62
     7
100
AcDbLine
 10
201.1929537843
 20
465.1237595565
 30
0.0
 11
188.144994688
 21
473.3570839386
 31
0.0
  0
HATCH
  5
D7
330
D4
100
AcDbEntity
  8
Maﬂe
  6
Continuous
 62
     7
100
AcDbHatch
 10
0.0
 20
0.0
 30
0.0
210
0.0
220
0.0
230
1.0
  2
SOLID
 70
     1
 71
     0
 91
        1
 92
        1
 93
        3
 72
     1
 10
210.6073032541003
 20
458.4935028235302
 11
211.2298900657113
 21
459.4801622668768
 72
     1
 10
211.2298900657113
 20
459.4801622668768
 11
207.9586183298659
 21
460.8545929800366
 72
     1
 10
207.9586183298659
 20
460.8545929800366
 11
210.6073032541003
 21
458.4935028235302
 97
        0
 75
     0
 76
     1
 98
        0
  0
HATCH
  5
D8
330
D4
100
AcDbEntity
  8
Maﬂe
  6
Continuous
 62
     7
100
AcDbHatch
 10
0.0
 20
0.0
 30
0.0
210
0.0
220
0.0
230
1.0
  2
SOLID
 70
     1
 71
     0
 91
        1
 92
        1
 93
        3
 72
     1
 10
197.9216820484772
 20
466.4981902696114
 11
201.1929537843226
 21
465.1237595564516
 72
     1
 10
201.1929537843226
 20
465.1237595564516
 11
198.5442688600882
 21
467.4848497129581
 72
     1
 10
198.5442688600882
 20
467.4848497129581
 11
197.9216820484772
 21
466.4981902696114
 97
        0
 75
     0
 76
     1
 98
        0
  0
TEXT
  5
D9
330
D4
100
AcDbEntity
  8
Maﬂe
  6
Continuous
 62
     7
100
AcDbText
 10
189.6479268475
 20
473.4433625671
 30
0.0
 40
3.5
  1
O
 50
327.7478790689
  7
SEACAD_Solid_Edge_ISO1_Symbols
 11
191.5156872247
 21
476.4033408058
 31
0.0
100
AcDbText
 73
     3
  0
TEXT
  5
DA
330
D4
100
AcDbEntity
  8
Maﬂe
  6
Continuous
 62
     7
100
AcDbText
 10
194.7199594277
 20
470.2428858335
 30
0.0
 40
3.5
  1
8
 50
327.7478790689
  7
SEACAD_Solid_Edge_ISO
 11
196.5877198049
 21
473.2028640722
 31
0.0
100
AcDbText
 73
     3
  0
ENDBLK
  5
DC
330
D4
100
AcDbEntity
  8
0
100
AcDbBlockEnd
  0
BLOCK
  5
E5
330
DE
100
AcDbEntity
  8
0
100
AcDbBlockBegin
  2
DMBLK4
 70
     0
 10
0.0
 20
0.0
 30
0.0
  3
DMBLK4
  1

  0
LINE
  5
DF
330
DE
100
AcDbEntity
  8
Maﬂe
  6
Continuous
 62
     7
100
AcDbLine
 10
246.6417599536
 20
455.5098668179
 30
0.0
 11
235.6427044192
 21
465.7089253642
 31
0.0
  0
LINE
  5
E0
330
DE
100
AcDbEntity
  8
Maﬂe
  6
Continuous
 62
     7
100
AcDbLine
 10
235.6427046978
 20
465.7089251059
 30
0.0
 11
224.5708767778
 21
475.975463066
 31
0.0
  0
HATCH
  5
E1
330
DE
100
AcDbEntity
  8
Maﬂe
  6
Continuous
 62
     7
100
AcDbHatch
 10
0.0
 20
0.0
 30
0.0
210
0.0
220
0.0
230
1.0
  2
SOLID
 70
     1
 71
     0
 91
        1
 92
        1
 93
        3
 72
     1
 10
243.6786836339595
 20
457.4619060795063
 11
244.47194373608
 21
458.3173881690445
 72
     1
 10
244.47194373608
 20
458.3173881690445
 11
241.5088674164051
 21
460.2694274306373
 72
     1
 10
241.5088674164051
 20
460.2694274306373
 11
243.6786836339594
 21
457.4619060795063
 97
        0
 75
     0
 76
     1
 98
        0
  0
HATCH
  5
E2
330
DE
100
AcDbEntity
  8
Maﬂe
  6
Continuous
 62
     7
100
AcDbHatch
 10
0.0
 20
0.0
 30
0.0
210
0.0
220
0.0
230
1.0
  2
SOLID
 70
     1
 71
     0
 91
        1
 92
        1
 93
        3
 72
     1
 10
232.6796283781085
 20
467.6609643674436
 11
235.6427046977835
 21
465.7089251058509
 72
     1
 10
235.6427046977835
 20
465.7089251058509
 11
233.4728884802291
 21
468.5164464569819
 72
     1
 10
233.4728884802291
 20
468.5164464569819
 11
232.6796283781085
 21
467.6609643674437
 97
        0
 75
     0
 76
     1
 98
        0
  0
TEXT
  5
E3
330
DE
100
AcDbEntity
  8
Maﬂe
  6
Continuous
 62
     7
100
AcDbText
 10
226.0640777263
 20
475.7841517878
 30
0.0
 40
3.5
  1
O
 50
317.1612634403
  7
SEACAD_Solid_Edge_ISO1_Symbols
 11
228.4438579592
 21
478.3505979772
 31
0.0
100
AcDbText
 73
     3
  0
TEXT
  5
E4
330
DE
100
AcDbEntity
  8
Maﬂe
  6
Continuous
 62
     7
100
AcDbText
 10
230.4617785329
 20
471.7063100262
 30
0.0
 40
3.5
  1
8
 50
317.1612634403
  7
SEACAD_Solid_Edge_ISO
 11
232.8415587658
 21
474.2727562156
 31
0.0
100
AcDbText
 73
     3
  0
ENDBLK
  5
E6
330
DE
100
AcDbEntity
  8
0
100
AcDbBlockEnd
  0
BLOCK
  5
EF
330
E8
100
AcDbEntity
  8
0
100
AcDbBlockBegin
  2
DMBLK5
 70
     0
 10
0.0
 20
0.0
 30
0.0
  3
DMBLK5
  1

  0
LINE
  5
E9
330
E8
100
AcDbEntity
  8
Maﬂe
  6
Continuous
 62
     7
100
AcDbLine
 10
99.1083179575
 20
392.9728823663
 30
0.0
 11
88.8366833415
 21
403.9041924522
 31
0.0
  0
LINE
  5
EA
330
E8
100
AcDbEntity
  8
Maﬂe
  6
Continuous
 62
     7
100
AcDbLine
 10
88.8366836017
 20
403.9041921753
 30
0.0
 11
78.5498463729
 21
414.8516812318
 31
0.0
  0
HATCH
  5
EB
330
E8
100
AcDbEntity
  8
Maﬂe
  6
Continuous
 62
     7
100
AcDbHatch
 10
0.0
 20
0.0
 30
0.0
210
0.0
220
0.0
230
1.0
  2
SOLID
 70
     1
 71
     0
 91
        1
 92
        1
 93
        3
 72
     1
 10
96.28649673545357
 20
395.1240689099703
 11
97.13670973459838
 21
395.922973817467
 72
     1
 10
97.13670973459838
 20
395.922973817467
 11
94.3148885125359
 21
398.0741603611531
 72
     1
 10
94.3148885125359
 20
398.0741603611531
 11
96.28649673545357
 21
395.1240689099703
 97
        0
 75
     0
 76
     1
 98
        0
  0
HATCH
  5
EC
330
E8
100
AcDbEntity
  8
Maﬂe
  6
Continuous
 62
     7
100
AcDbHatch
 10
0.0
 20
0.0
 30
0.0
210
0.0
220
0.0
230
1.0
  2
SOLID
 70
     1
 71
     0
 91
        1
 92
        1
 93
        3
 72
     1
 10
86.01486237959014
 20
406.0553787190212
 11
88.83668360165262
 21
403.9041921753351
 72
     1
 10
88.83668360165262
 20
403.9041921753351
 11
86.86507537873496
 21
406.8542836265179
 72
     1
 10
86.86507537873496
 20
406.8542836265179
 11
86.01486237959014
 21
406.0553787190212
 97
        0
 75
     0
 76
     1
 98
        0
  0
TEXT
  5
ED
330
E8
100
AcDbEntity
  8
Maﬂe
  6
Continuous
 62
     7
100
AcDbText
 10
80.0263559718
 20
414.5581365467
 30
0.0
 40
3.5
  1
O
 50
313.217963006
  7
SEACAD_Solid_Edge_ISO1_Symbols
 11
82.5769948905
 21
416.9548511952
 31
0.0
100
AcDbText
 73
     3
  0
TEXT
  5
EE
330
E8
100
AcDbEntity
  8
Maﬂe
  6
Continuous
 62
     7
100
AcDbText
 10
84.133215483
 20
410.1875220851
 30
0.0
 40
3.5
  1
8
 50
313.217963006
  7
SEACAD_Solid_Edge_ISO
 11
86.6838544017
 21
412.5842367336
 31
0.0
100
AcDbText
 73
     3
  0
ENDBLK
  5
F0
330
E8
100
AcDbEntity
  8
0
100
AcDbBlockEnd
  0
BLOCK
  5
F9
330
F2
100
AcDbEntity
  8
0
100
AcDbBlockBegin
  2
DMBLK6
 70
     0
 10
0.0
 20
0.0
 30
0.0
  3
DMBLK6
  1

  0
LINE
  5
F3
330
F2
100
AcDbEntity
  8
Maﬂe
  6
Continuous
 62
     7
100
AcDbLine
 10
359.0230387399
 20
392.8935952371
 30
0.0
 11
348.8676939684
 21
403.9330241378
 31
0.0
  0
LINE
  5
F4
330
F2
100
AcDbEntity
  8
Maﬂe
  6
Continuous
 62
     7
100
AcDbLine
 10
348.8676942256
 20
403.9330238581
 30
0.0
 11
336.4843440402
 21
417.3944195075
 31
0.0
  0
HATCH
  5
F5
330
F2
100
AcDbEntity
  8
Maﬂe
  6
Continuous
 62
     7
100
AcDbHatch
 10
0.0
 20
0.0
 30
0.0
210
0.0
220
0.0
230
1.0
  2
SOLID
 70
     1
 71
     0
 91
        1
 92
        1
 93
        3
 72
     1
 10
356.2241471941002
 20
395.0745318867738
 11
357.082769434317
 21
395.8643920286611
 72
     1
 10
357.082769434317
 20
395.8643920286611
 11
354.2838778885467
 21
398.0453286783678
 72
     1
 10
354.2838778885467
 20
398.0453286783678
 11
356.2241471941002
 21
395.0745318867738
 97
        0
 75
     0
 76
     1
 98
        0
  0
HATCH
  5
F6
330
F2
100
AcDbEntity
  8
Maﬂe
  6
Continuous
 62
     7
100
AcDbHatch
 10
0.0
 20
0.0
 30
0.0
210
0.0
220
0.0
230
1.0
  2
SOLID
 70
     1
 71
     0
 91
        1
 92
        1
 93
        3
 72
     1
 10
346.0688026798716
 20
406.1139605078271
 11
348.8676942256419
 21
403.9330238581205
 72
     1
 10
348.8676942256419
 20
403.9330238581205
 11
346.9274249200884
 21
406.9038206497144
 72
     1
 10
346.9274249200883
 20
406.9038206497144
 11
346.0688026798716
 21
406.1139605078271
 97
        0
 75
     0
 76
     1
 98
        0
  0
TEXT
  5
F7
330
F2
100
AcDbEntity
  8
Maﬂe
  6
Continuous
 62
     7
100
AcDbText
 10
337.9576641996
 20
417.0852608628
 30
0.0
 40
3.5
  1
O
 50
312.6114422077
  7
SEACAD_Solid_Edge_ISO1_Symbols
 11
340.5335308407
 21
419.4548412153
 31
0.0
100
AcDbText
 73
     3
  0
TEXT
  5
F8
330
F2
100
AcDbEntity
  8
Maﬂe
  6
Continuous
 62
     7
100
AcDbText
 10
342.0180280875
 20
412.6714177624
 30
0.0
 40
3.5
  1
8
 50
312.6114422077
  7
SEACAD_Solid_Edge_ISO
 11
344.5938947286
 21
415.040998115
 31
0.0
100
AcDbText
 73
     3
  0
ENDBLK
  5
FA
330
F2
100
AcDbEntity
  8
0
100
AcDbBlockEnd
  0
BLOCK
  5
103
330
FC
100
AcDbEntity
  8
0
100
AcDbBlockBegin
  2
DMBLK7
 70
     0
 10
0.0
 20
0.0
 30
0.0
  3
DMBLK7
  1

  0
HATCH
  5
FD
330
FC
100
AcDbEntity
  8
Maﬂe
  6
Continuous
 62
     7
100
AcDbHatch
 10
0.0
 20
0.0
 30
0.0
210
0.0
220
0.0
230
1.0
  2
SOLID
 70
     1
 71
     0
 91
        1
 92
        1
 93
        3
 72
     1
 10
208.0757861651277
 20
435.3741846995943
 11
208.0757861651277
 21
436.5408514022721
 72
     1
 10
208.0757861651277
 20
436.5408514022721
 11
204.5757860570943
 21
435.9575180509332
 72
     1
 10
204.5757860570943
 20
435.9575180509332
 11
208.0757861651277
 21
435.3741846995943
 97
        0
 75
     0
 76
     1
 98
        0
  0
HATCH
  5
FE
330
FC
100
AcDbEntity
  8
Maﬂe
  6
Continuous
 62
     7
100
AcDbHatch
 10
0.0
 20
0.0
 30
0.0
210
0.0
220
0.0
230
1.0
  2
SOLID
 70
     1
 71
     0
 91
        1
 92
        1
 93
        3
 72
     1
 10
235.0757877968049
 20
435.3741846995943
 11
238.5757879048383
 21
435.9575180509332
 72
     1
 10
238.5757879048383
 20
435.9575180509332
 11
235.0757877968049
 21
436.5408514022721
 72
     1
 10
235.0757877968049
 20
436.5408514022721
 11
235.0757877968049
 21
435.3741846995943
 97
        0
 75
     0
 76
     1
 98
        0
  0
LINE
  5
FF
330
FC
100
AcDbEntity
  8
Maﬂe
  6
Continuous
 62
     7
100
AcDbLine
 10
204.5757860571
 20
462.9891762682
 30
0.0
 11
204.5757860571
 21
434.2075179969
 31
0.0
  0
LINE
  5
100
330
FC
100
AcDbEntity
  8
Maﬂe
  6
Continuous
 62
     7
100
AcDbLine
 10
238.5757860571
 20
462.9891762682
 30
0.0
 11
238.5757860571
 21
434.2075179969
 31
0.0
  0
LINE
  5
101
330
FC
100
AcDbEntity
  8
Maﬂe
  6
Continuous
 62
     7
100
AcDbLine
 10
204.5757860571
 20
435.9575180509
 30
0.0
 11
238.5757879048
 21
435.9575180509
 31
0.0
  0
TEXT
  5
102
330
FC
100
AcDbEntity
  8
Maﬂe
  6
Continuous
 62
     7
100
AcDbText
 10
212.8721254613
 20
436.8325180509
 30
0.0
 40
3.5
  1
34
  7
SEACAD_Solid_Edge_ISO
 11
212.8721254613
 21
440.3325180509
 31
0.0
100
AcDbText
 73
     3
  0
ENDBLK
  5
104
330
FC
100
AcDbEntity
  8
0
100
AcDbBlockEnd
  0
BLOCK
  5
10D
330
106
100
AcDbEntity
  8
0
100
AcDbBlockBegin
  2
DMBLK8
 70
     0
 10
0.0
 20
0.0
 30
0.0
  3
DMBLK8
  1

  0
HATCH
  5
107
330
106
100
AcDbEntity
  8
Maﬂe
  6
Continuous
 62
     7
100
AcDbHatch
 10
0.0
 20
0.0
 30
0.0
210
0.0
220
0.0
230
1.0
  2
SOLID
 70
     1
 71
     0
 91
        1
 92
        1
 93
        3
 72
     1
 10
154.3492385855362
 20
404.4891763762775
 11
153.1825718828584
 21
404.4891763762775
 72
     1
 10
153.1825718828584
 20
404.4891763762775
 11
153.7659052341973
 21
400.9891762682441
 72
     1
 10
153.7659052341973
 20
400.9891762682441
 11
154.3492385855362
 21
404.4891763762775
 97
        0
 75
     0
 76
     1
 98
        0
  0
HATCH
  5
108
330
106
100
AcDbEntity
  8
Maﬂe
  6
Continuous
 62
     7
100
AcDbHatch
 10
0.0
 20
0.0
 30
0.0
210
0.0
220
0.0
230
1.0
  2
SOLID
 70
     1
 71
     0
 91
        1
 92
        1
 93
        3
 72
     1
 10
154.3492385855362
 20
459.4891751469317
 11
153.7659052341973
 21
462.9891752549651
 72
     1
 10
153.7659052341973
 20
462.9891752549651
 11
153.1825718828584
 21
459.4891751469317
 72
     1
 10
153.1825718828584
 20
459.4891751469317
 11
154.3492385855362
 21
459.4891751469317
 97
        0
 75
     0
 76
     1
 98
        0
  0
LINE
  5
109
330
106
100
AcDbEntity
  8
Maﬂe
  6
Continuous
 62
     7
100
AcDbLine
 10
91.5757860571
 20
400.9891762682
 30
0.0
 11
155.5159052882
 21
400.9891762682
 31
0.0
  0
LINE
  5
10A
330
106
100
AcDbEntity
  8
Maﬂe
  6
Continuous
 62
     7
100
AcDbLine
 10
204.5757860571
 20
462.9891762682
 30
0.0
 11
152.0159051802
 21
462.9891762682
 31
0.0
  0
LINE
  5
10B
330
106
100
AcDbEntity
  8
Maﬂe
  6
Continuous
 62
     7
100
AcDbLine
 10
153.7659052342
 20
400.9891762682
 30
0.0
 11
153.7659052342
 21
462.989175255
 31
0.0
  0
TEXT
  5
10C
330
106
100
AcDbEntity
  8
Maﬂe
  6
Continuous
 62
     7
100
AcDbText
 10
152.8909052342
 20
429.8414484889
 30
0.0
 40
3.5
  1
62
 50
90.0
  7
SEACAD_Solid_Edge_ISO
 11
149.3909052342
 21
429.8414484889
 31
0.0
100
AcDbText
 73
     3
  0
ENDBLK
  5
10E
330
106
100
AcDbEntity
  8
0
100
AcDbBlockEnd
  0
BLOCK
  5
117
330
110
100
AcDbEntity
  8
0
100
AcDbBlockBegin
  2
DMBLK9
 70
     0
 10
0.0
 20
0.0
 30
0.0
  3
DMBLK9
  1

  0
HATCH
  5
111
330
110
100
AcDbEntity
  8
Maﬂe
  6
Continuous
 62
     7
100
AcDbHatch
 10
0.0
 20
0.0
 30
0.0
210
0.0
220
0.0
230
1.0
  2
SOLID
 70
     1
 71
     0
 91
        1
 92
        1
 93
        3
 72
     1
 10
95.07578616512768
 20
381.3083973842256
 11
95.07578616512768
 21
382.4750640869034
 72
     1
 10
95.07578616512768
 20
382.4750640869034
 11
91.57578605709426
 21
381.8917307355645
 72
     1
 10
91.57578605709426
 20
381.8917307355645
 11
95.07578616512768
 21
381.3083973842256
 97
        0
 75
     0
 76
     1
 98
        0
  0
HATCH
  5
112
330
110
100
AcDbEntity
  8
Maﬂe
  6
Continuous
 62
     7
100
AcDbHatch
 10
0.0
 20
0.0
 30
0.0
210
0.0
220
0.0
230
1.0
  2
SOLID
 70
     1
 71
     0
 91
        1
 92
        1
 93
        3
 72
     1
 10
348.0757764123177
 20
381.3083973842256
 11
351.5757765203511
 21
381.8917307355645
 72
     1
 10
351.5757765203511
 20
381.8917307355645
 11
348.0757764123177
 21
382.4750640869034
 72
     1
 10
348.0757764123177
 20
382.4750640869034
 11
348.0757764123177
 21
381.3083973842256
 97
        0
 75
     0
 76
     1
 98
        0
  0
LINE
  5
113
330
110
100
AcDbEntity
  8
Maﬂe
  6
Continuous
 62
     7
100
AcDbLine
 10
91.5757860571
 20
400.9891762682
 30
0.0
 11
91.5757860571
 21
380.1417306815
 31
0.0
  0
LINE
  5
114
330
110
100
AcDbEntity
  8
Maﬂe
  6
Continuous
 62
     7
100
AcDbLine
 10
351.5757860571
 20
396.9891762682
 30
0.0
 11
351.5757860571
 21
380.1417306815
 31
0.0
  0
LINE
  5
115
330
110
100
AcDbEntity
  8
Maﬂe
  6
Continuous
 62
     7
100
AcDbLine
 10
91.5757860571
 20
381.8917307356
 30
0.0
 11
351.5757765204
 21
381.8917307356
 31
0.0
  0
TEXT
  5
116
330
110
100
AcDbEntity
  8
Maﬂe
  6
Continuous
 62
     7
100
AcDbText
 10
201.0998989427
 20
382.7667307356
 30
0.0
 40
3.5
  1
260
  7
SEACAD_Solid_Edge_ISO
 11
201.0998989427
 21
386.2667307356
 31
0.0
100
AcDbText
 73
     3
  0
ENDBLK
  5
118
330
110
100
AcDbEntity
  8
0
100
AcDbBlockEnd
  0
BLOCK
  5
121
330
11A
100
AcDbEntity
  8
0
100
AcDbBlockBegin
  2
DMBLK10
 70
     0
 10
0.0
 20
0.0
 30
0.0
  3
DMBLK10
  1

  0
LINE
  5
11B
330
11A
100
AcDbEntity
  8
Maﬂe
  6
Continuous
 62
     7
100
AcDbLine
 10
246.5211711211
 20
272.0917251322
 30
0.0
 11
196.6303982818
 21
225.8866248933
 31
0.0
  0
LINE
  5
11C
330
11A
100
AcDbEntity
  8
Maﬂe
  6
Continuous
 62
     7
100
AcDbLine
 10
196.6304009931
 20
225.8866274043
 30
0.0
 11
176.3395175621
 21
207.0947296342
 31
0.0
  0
HATCH
  5
11D
330
11A
100
AcDbEntity
  8
Maﬂe
  6
Continuous
 62
     7
100
AcDbHatch
 10
0.0
 20
0.0
 30
0.0
210
0.0
220
0.0
230
1.0
  2
SOLID
 70
     1
 71
     0
 91
        1
 92
        1
 93
        3
 72
     1
 10
244.3496310279669
 20
269.2855369383594
 11
246.5211711210727
 21
272.0917251321647
 72
     1
 10
246.5211711210727
 20
272.0917251321648
 11
243.5568964836574
 21
270.141506060113
 72
     1
 10
243.5568964836574
 20
270.141506060113
 11
244.3496310279669
 21
269.2855369383594
 97
        0
 75
     0
 76
     1
 98
        0
  0
HATCH
  5
11E
330
11A
100
AcDbEntity
  8
Maﬂe
  6
Continuous
 62
     7
100
AcDbHatch
 10
0.0
 20
0.0
 30
0.0
210
0.0
220
0.0
230
1.0
  2
SOLID
 70
     1
 71
     0
 91
        1
 92
        1
 93
        3
 72
     1
 10
199.5946756305311
 20
227.8368464763752
 11
198.8019410862216
 21
228.6928155981287
 72
     1
 10
198.8019410862216
 20
228.6928155981287
 11
196.6304009931158
 21
225.8866274043235
 72
     1
 10
196.6304009931158
 20
225.8866274043235
 11
199.5946756305311
 21
227.8368464763752
 97
        0
 75
     0
 76
     1
 98
        0
  0
TEXT
  5
11F
330
11A
100
AcDbEntity
  8
Maﬂe
  6
Continuous
 62
     7
100
AcDbText
 10
176.643733154
 20
208.5690767122
 30
0.0
 40
3.5
  1
O
 50
42.8035474251
  7
SEACAD_Solid_Edge_ISO1_Symbols
 11
174.2655295945
 21
211.1369839982
 31
0.0
100
AcDbText
 73
     3
  0
TEXT
  5
120
330
11A
100
AcDbEntity
  8
Maﬂe
  6
Continuous
 62
     7
100
AcDbText
 10
181.0439376039
 20
212.6442167854
 30
0.0
 40
3.5
  1
68
 50
42.8035474251
  7
SEACAD_Solid_Edge_ISO
 11
178.6657340444
 21
215.2121240713
 31
0.0
100
AcDbText
 73
     3
  0
ENDBLK
  5
122
330
11A
100
AcDbEntity
  8
0
100
AcDbBlockEnd
  0
BLOCK
  5
12B
330
124
100
AcDbEntity
  8
0
100
AcDbBlockBegin
  2
DMBLK11
 70
     0
 10
0.0
 20
0.0
 30
0.0
  3
DMBLK11
  1

  0
LINE
  5
125
330
124
100
AcDbEntity
  8
Maﬂe
  6
Continuous
 62
     7
100
AcDbLine
 10
99.1876125134
 20
109.0481371201
 30
0.0
 11
88.8078489553
 21
119.8768270852
 31
0.0
  0
LINE
  5
126
330
124
100
AcDbEntity
  8
Maﬂe
  6
Continuous
 62
     7
100
AcDbLine
 10
88.8078492183
 20
119.8768268109
 30
0.0
 11
75.5117084882
 21
133.7480277196
 31
0.0
  0
HATCH
  5
127
330
124
100
AcDbEntity
  8
Maﬂe
  6
Continuous
 62
     7
100
AcDbHatch
 10
0.0
 20
0.0
 30
0.0
210
0.0
220
0.0
230
1.0
  2
SOLID
 70
     1
 71
     0
 91
        1
 92
        1
 93
        3
 72
     1
 10
96.34455198752255
 20
111.1711739547286
 11
97.18678342178215
 21
111.9784888909723
 72
     1
 10
97.18678342178215
 20
111.9784888909723
 11
94.34372289592129
 21
114.1015257256292
 72
     1
 10
94.34372289592129
 20
114.1015257256292
 11
96.34455198752255
 21
111.1711739547286
 97
        0
 75
     0
 76
     1
 98
        0
  0
HATCH
  5
128
330
124
100
AcDbEntity
  8
Maﬂe
  6
Continuous
 62
     7
100
AcDbHatch
 10
0.0
 20
0.0
 30
0.0
210
0.0
220
0.0
230
1.0
  2
SOLID
 70
     1
 71
     0
 91
        1
 92
        1
 93
        3
 72
     1
 10
85.96478869240639
 20
121.9998636455159
 11
88.80784921826725
 21
119.876826810859
 72
     1
 10
88.80784921826725
 20
119.876826810859
 11
86.80702012666599
 21
122.8071785817596
 72
     1
 10
86.80702012666598
 20
122.8071785817596
 11
85.96478869240637
 21
121.9998636455159
 97
        0
 75
     0
 76
     1
 98
        0
  0
TEXT
  5
129
330
124
100
AcDbEntity
  8
Maﬂe
  6
Continuous
 62
     7
100
AcDbText
 10
76.9910624408
 20
133.4691711961
 30
0.0
 40
3.5
  1
O
 50
313.7873822168
  7
SEACAD_Solid_Edge_ISO1_Symbols
 11
79.5177566656
 21
135.8911159301
 31
0.0
100
AcDbText
 73
     3
  0
TEXT
  5
12A
330
124
100
AcDbEntity
  8
Maﬂe
  6
Continuous
 62
     7
100
AcDbText
 10
81.14115464
 20
129.1395868563
 30
0.0
 40
3.5
  1
8
 50
313.7873822168
  7
SEACAD_Solid_Edge_ISO
 11
83.6678488647
 21
131.5615315903
 31
0.0
100
AcDbText
 73
     3
  0
ENDBLK
  5
12C
330
124
100
AcDbEntity
  8
0
100
AcDbBlockEnd
  0
BLOCK
  5
135
330
12E
100
AcDbEntity
  8
0
100
AcDbBlockBegin
  2
DMBLK12
 70
     0
 10
0.0
 20
0.0
 30
0.0
  3
DMBLK12
  1

  0
LINE
  5
12F
330
12E
100
AcDbEntity
  8
Maﬂe
  6
Continuous
 62
     7
100
AcDbLine
 10
229.9845598002
 20
157.8974537066
 30
0.0
 11
218.5180499201
 21
167.5679846668
 31
0.0
  0
LINE
  5
130
330
12E
100
AcDbEntity
  8
Maﬂe
  6
Continuous
 62
     7
100
AcDbLine
 10
218.5180502106
 20
167.5679844218
 30
0.0
 11
207.0243444286
 21
177.2614516384
 31
0.0
  0
HATCH
  5
131
330
12E
100
AcDbEntity
  8
Maﬂe
  6
Continuous
 62
     7
100
AcDbHatch
 10
0.0
 20
0.0
 30
0.0
210
0.0
220
0.0
230
1.0
  2
SOLID
 70
     1
 71
     0
 91
        1
 92
        1
 93
        3
 72
     1
 10
226.9329646512333
 20
159.7079910859404
 11
227.6851170525736
 21
160.5998307353701
 72
     1
 10
227.6851170525736
 20
160.5998307353701
 11
224.6335219036142
 21
162.4103681146764
 72
     1
 10
224.6335219036142
 20
162.4103681146764
 11
226.9329646512333
 21
159.7079910859404
 97
        0
 75
     0
 76
     1
 98
        0
  0
HATCH
  5
132
330
12E
100
AcDbEntity
  8
Maﬂe
  6
Continuous
 62
     7
100
AcDbHatch
 10
0.0
 20
0.0
 30
0.0
210
0.0
220
0.0
230
1.0
  2
SOLID
 70
     1
 71
     0
 91
        1
 92
        1
 93
        3
 72
     1
 10
215.4664550616149
 20
169.3785218011181
 11
218.5180502105744
 21
167.5679844218118
 72
     1
 10
218.5180502105744
 20
167.5679844218118
 11
216.2186074629553
 21
170.2703614505479
 72
     1
 10
216.2186074629553
 20
170.2703614505479
 11
215.4664550616149
 21
169.3785218011181
 97
        0
 75
     0
 76
     1
 98
        0
  0
TEXT
  5
133
330
12E
100
AcDbEntity
  8
Maﬂe
  6
Continuous
 62
     7
100
AcDbText
 10
208.5248907393
 20
177.1405710001
 30
0.0
 40
3.5
  1
O
 50
319.8566609925
  7
SEACAD_Solid_Edge_ISO1_Symbols
 11
210.7813478737
 21
179.8160898658
 31
0.0
100
AcDbText
 73
     3
  0
TEXT
  5
134
330
12E
100
AcDbEntity
  8
Maﬂe
  6
Continuous
 62
     7
100
AcDbText
 10
213.1094916254
 20
173.2740479454
 30
0.0
 40
3.5
  1
8
 50
319.8566609925
  7
SEACAD_Solid_Edge_ISO
 11
215.3659487598
 21
175.9495668111
 31
0.0
100
AcDbText
 73
     3
  0
ENDBLK
  5
136
330
12E
100
AcDbEntity
  8
0
100
AcDbBlockEnd
  0
BLOCK
  5
13F
330
138
100
AcDbEntity
  8
0
100
AcDbBlockBegin
  2
DMBLK13
 70
     0
 10
0.0
 20
0.0
 30
0.0
  3
DMBLK13
  1

  0
LINE
  5
139
330
138
100
AcDbEntity
  8
Maﬂe
  6
Continuous
 62
     7
100
AcDbLine
 10
359.6717648917
 20
109.5423560433
 30
0.0
 11
348.6317935318
 21
119.6971110995
 31
0.0
  0
LINE
  5
13A
330
138
100
AcDbEntity
  8
Maﬂe
  6
Continuous
 62
     7
100
AcDbLine
 10
348.6317938114
 20
119.6971108423
 30
0.0
 11
337.4333624902
 21
129.9976200894
 31
0.0
  0
HATCH
  5
13B
330
138
100
AcDbEntity
  8
Maﬂe
  6
Continuous
 62
     7
100
AcDbHatch
 10
0.0
 20
0.0
 30
0.0
210
0.0
220
0.0
230
1.0
  2
SOLID
 70
     1
 71
     0
 91
        1
 92
        1
 93
        3
 72
     1
 10
356.7008644596776
 20
111.4824666529966
 11
357.4906787348243
 21
112.3411310844898
 72
     1
 10
357.4906787348243
 20
112.3411310844898
 11
354.5197783027713
 21
114.2812416941833
 72
     1
 10
354.5197783027713
 20
114.2812416941833
 11
356.7008644596776
 21
111.4824666529966
 97
        0
 75
     0
 76
     1
 98
        0
  0
HATCH
  5
13C
330
138
100
AcDbEntity
  8
Maﬂe
  6
Continuous
 62
     7
100
AcDbHatch
 10
0.0
 20
0.0
 30
0.0
210
0.0
220
0.0
230
1.0
  2
SOLID
 70
     1
 71
     0
 91
        1
 92
        1
 93
        3
 72
     1
 10
345.6608933793642
 20
121.6372214519983
 11
348.6317938114173
 21
119.6971108423049
 72
     1
 10
348.6317938114173
 20
119.6971108423049
 11
346.4507076545109
 21
122.4958858834916
 72
     1
 10
346.4507076545109
 20
122.4958858834916
 11
345.6608933793642
 21
121.6372214519983
 97
        0
 75
     0
 76
     1
 98
        0
  0
TEXT
  5
13D
330
138
100
AcDbEntity
  8
Maﬂe
  6
Continuous
 62
     7
100
AcDbText
 10
338.9273205264
 20
129.8123136847
 30
0.0
 40
3.5
  1
O
 50
317.3916184003
  7
SEACAD_Solid_Edge_ISO1_Symbols
 11
341.2967632787
 21
132.3883068997
 31
0.0
100
AcDbText
 73
     3
  0
TEXT
  5
13E
330
138
100
AcDbEntity
  8
Maﬂe
  6
Continuous
 62
     7
100
AcDbText
 10
343.3413805158
 20
125.7521855799
 30
0.0
 40
3.5
  1
8
 50
317.3916184003
  7
SEACAD_Solid_Edge_ISO
 11
345.7108232681
 21
128.3281787948
 31
0.0
100
AcDbText
 73
     3
  0
ENDBLK
  5
140
330
138
100
AcDbEntity
  8
0
100
AcDbBlockEnd
  0
BLOCK
  5
148
330
142
100
AcDbEntity
  8
0
100
AcDbBlockBegin
  2
DMBLK14
 70
     0
 10
0.0
 20
0.0
 30
0.0
  3
DMBLK14
  1

  0
HATCH
  5
143
330
142
100
AcDbEntity
  8
Maﬂe
  6
Continuous
 62
     7
100
AcDbHatch
 10
0.0
 20
0.0
 30
0.0
210
0.0
220
0.0
230
1.0
  2
SOLID
 70
     1
 71
     0
 91
        1
 92
        1
 93
        3
 72
     1
 10
243.7513247987673
 20
161.4891761602107
 11
243.1679914474284
 21
164.9891762682441
 72
     1
 10
243.1679914474284
 20
164.9891762682441
 11
242.5846580960895
 21
161.4891761602107
 72
     1
 10
242.5846580960895
 20
161.4891761602107
 11
243.7513247987673
 21
161.4891761602107
 97
        0
 75
     0
 76
     1
 98
        0
  0
HATCH
  5
144
330
142
100
AcDbEntity
  8
Maﬂe
  6
Continuous
 62
     7
100
AcDbHatch
 10
0.0
 20
0.0
 30
0.0
210
0.0
220
0.0
230
1.0
  2
SOLID
 70
     1
 71
     0
 91
        1
 92
        1
 93
        3
 72
     1
 10
243.7513247987673
 20
92.48917882006796
 11
242.5846580960895
 21
92.48917882006796
 72
     1
 10
242.5846580960895
 20
92.48917882006796
 11
243.1679914474284
 21
88.98917871203454
 72
     1
 10
243.1679914474284
 20
88.98917871203454
 11
243.7513247987673
 21
92.48917882006796
 97
        0
 75
     0
 76
     1
 98
        0
  0
LINE
  5
145
330
142
100
AcDbEntity
  8
Maﬂe
  6
Continuous
 62
     7
100
AcDbLine
 10
221.5757860571
 20
164.9891762682
 30
0.0
 11
244.9179915014
 21
164.9891762682
 31
0.0
  0
LINE
  5
146
330
142
100
AcDbEntity
  8
Maﬂe
  6
Continuous
 62
     7
100
AcDbLine
 10
243.1679914474
 20
164.9891762682
 30
0.0
 11
243.1679914474
 21
88.989178712
 31
0.0
  0
TEXT
  5
147
330
142
100
AcDbEntity
  8
Maﬂe
  6
Continuous
 62
     7
100
AcDbText
 10
242.2929914474
 20
124.8016774901
 30
0.0
 40
3.5
  1
76
 50
90.0
  7
SEACAD_Solid_Edge_ISO
 11
238.7929914474
 21
124.8016774901
 31
0.0
100
AcDbText
 73
     3
  0
ENDBLK
  5
149
330
142
100
AcDbEntity
  8
0
100
AcDbBlockEnd
  0
BLOCK
  5
152
330
14B
100
AcDbEntity
  8
0
100
AcDbBlockBegin
  2
DMBLK15
 70
     0
 10
0.0
 20
0.0
 30
0.0
  3
DMBLK15
  1

  0
HATCH
  5
14C
330
14B
100
AcDbEntity
  8
Maﬂe
  6
Continuous
 62
     7
100
AcDbHatch
 10
0.0
 20
0.0
 30
0.0
210
0.0
220
0.0
230
1.0
  2
SOLID
 70
     1
 71
     0
 91
        1
 92
        1
 93
        3
 72
     1
 10
95.07578616512768
 20
77.4866771864288
 11
95.07578616512768
 21
78.65334388910662
 72
     1
 10
95.07578616512768
 20
78.65334388910662
 11
91.57578605709426
 21
78.07001053776771
 72
     1
 10
91.57578605709426
 20
78.07001053776771
 11
95.07578616512768
 21
77.4866771864288
 97
        0
 75
     0
 76
     1
 98
        0
  0
HATCH
  5
14D
330
14B
100
AcDbEntity
  8
Maﬂe
  6
Continuous
 62
     7
100
AcDbHatch
 10
0.0
 20
0.0
 30
0.0
210
0.0
220
0.0
230
1.0
  2
SOLID
 70
     1
 71
     0
 91
        1
 92
        1
 93
        3
 72
     1
 10
348.0757764123177
 20
77.4866771864288
 11
351.5757765203511
 21
78.07001053776771
 72
     1
 10
351.5757765203511
 20
78.07001053776771
 11
348.0757764123177
 21
78.65334388910662
 72
     1
 10
348.0757764123177
 20
78.65334388910662
 11
348.0757764123177
 21
77.4866771864288
 97
        0
 75
     0
 76
     1
 98
        0
  0
LINE
  5
14E
330
14B
100
AcDbEntity
  8
Maﬂe
  6
Continuous
 62
     7
100
AcDbLine
 10
91.5757860571
 20
116.9891762682
 30
0.0
 11
91.5757860571
 21
76.3200104838
 31
0.0
  0
LINE
  5
14F
330
14B
100
AcDbEntity
  8
Maﬂe
  6
Continuous
 62
     7
100
AcDbLine
 10
351.5757860571
 20
116.9891762682
 30
0.0
 11
351.5757860571
 21
76.3200104838
 31
0.0
  0
LINE
  5
150
330
14B
100
AcDbEntity
  8
Maﬂe
  6
Continuous
 62
     7
100
AcDbLine
 10
91.5757860571
 20
78.0700105378
 30
0.0
 11
351.5757765204
 21
78.0700105378
 31
0.0
  0
TEXT
  5
151
330
14B
100
AcDbEntity
  8
Maﬂe
  6
Continuous
 62
     7
100
AcDbText
 10
218.3939631069
 20
78.9450105378
 30
0.0
 40
3.5
  1
260
  7
SEACAD_Solid_Edge_ISO
 11
218.3939631069
 21
82.4450105378
 31
0.0
100
AcDbText
 73
     3
  0
ENDBLK
  5
153
330
14B
100
AcDbEntity
  8
0
100
AcDbBlockEnd
  0
BLOCK
  5
15C
330
155
100
AcDbEntity
  8
0
100
AcDbBlockBegin
  2
DMBLK16
 70
     0
 10
0.0
 20
0.0
 30
0.0
  3
DMBLK16
  1

  0
HATCH
  5
156
330
155
100
AcDbEntity
  8
Maﬂe
  6
Continuous
 62
     7
100
AcDbHatch
 10
0.0
 20
0.0
 30
0.0
210
0.0
220
0.0
230
1.0
  2
SOLID
 70
     1
 71
     0
 91
        1
 92
        1
 93
        3
 72
     1
 10
72.0757861651277
 20
64.76686990433862
 11
72.0757861651277
 21
65.93353660701644
 72
     1
 10
72.0757861651277
 20
65.93353660701644
 11
68.57578605709428
 21
65.35020325567753
 72
     1
 10
68.57578605709428
 20
65.35020325567753
 11
72.0757861651277
 21
64.76686990433862
 97
        0
 75
     0
 76
     1
 98
        0
  0
HATCH
  5
157
330
155
100
AcDbEntity
  8
Maﬂe
  6
Continuous
 62
     7
100
AcDbHatch
 10
0.0
 20
0.0
 30
0.0
210
0.0
220
0.0
230
1.0
  2
SOLID
 70
     1
 71
     0
 91
        1
 92
        1
 93
        3
 72
     1
 10
371.0757802270149
 20
64.76686990433862
 11
374.5757803350484
 21
65.35020325567753
 72
     1
 10
374.5757803350484
 20
65.35020325567753
 11
371.0757802270149
 21
65.93353660701644
 72
     1
 10
371.0757802270149
 20
65.93353660701644
 11
371.0757802270149
 21
64.76686990433862
 97
        0
 75
     0
 76
     1
 98
        0
  0
LINE
  5
158
330
155
100
AcDbEntity
  8
Maﬂe
  6
Continuous
 62
     7
100
AcDbLine
 10
68.5757860571
 20
88.9891762682
 30
0.0
 11
68.5757860571
 21
63.6002032017
 31
0.0
  0
LINE
  5
159
330
155
100
AcDbEntity
  8
Maﬂe
  6
Continuous
 62
     7
100
AcDbLine
 10
374.5757860571
 20
88.9891762682
 30
0.0
 11
374.5757860571
 21
63.6002032017
 31
0.0
  0
LINE
  5
15A
330
155
100
AcDbEntity
  8
Maﬂe
  6
Continuous
 62
     7
100
AcDbLine
 10
68.5757860571
 20
65.3502032557
 30
0.0
 11
374.575780335
 21
65.3502032557
 31
0.0
  0
TEXT
  5
15B
330
155
100
AcDbEntity
  8
Maﬂe
  6
Continuous
 62
     7
100
AcDbText
 10
218.5530559233
 20
66.2252032557
 30
0.0
 40
3.5
  1
306
  7
SEACAD_Solid_Edge_ISO
 11
218.5530559233
 21
69.7252032557
 31
0.0
100
AcDbText
 73
     3
  0
ENDBLK
  5
15D
330
155
100
AcDbEntity
  8
0
100
AcDbBlockEnd
  0
BLOCK
  5
166
330
15F
100
AcDbEntity
  8
0
100
AcDbBlockBegin
  2
DMBLK17
 70
     0
 10
0.0
 20
0.0
 30
0.0
  3
DMBLK17
  1

  0
HATCH
  5
160
330
15F
100
AcDbEntity
  8
Maﬂe
  6
Continuous
 62
     7
100
AcDbHatch
 10
0.0
 20
0.0
 30
0.0
210
0.0
220
0.0
230
1.0
  2
SOLID
 70
     1
 71
     0
 91
        1
 92
        1
 93
        3
 72
     1
 10
387.6668766251252
 20
113.4891761602107
 11
387.0835432737862
 21
116.9891762682441
 72
     1
 10
387.0835432737862
 20
116.9891762682441
 11
386.5002099224473
 21
113.4891761602107
 72
     1
 10
386.5002099224473
 20
113.4891761602107
 11
387.6668766251252
 21
113.4891761602107
 97
        0
 75
     0
 76
     1
 98
        0
  0
HATCH
  5
161
330
15F
100
AcDbEntity
  8
Maﬂe
  6
Continuous
 62
     7
100
AcDbHatch
 10
0.0
 20
0.0
 30
0.0
210
0.0
220
0.0
230
1.0
  2
SOLID
 70
     1
 71
     0
 91
        1
 92
        1
 93
        3
 72
     1
 10
387.6668766251252
 20
92.48917551201016
 11
386.5002099224473
 21
92.48917551201016
 72
     1
 10
386.5002099224473
 20
92.48917551201016
 11
387.0835432737862
 21
88.98917540397674
 72
     1
 10
387.0835432737862
 20
88.98917540397674
 11
387.6668766251252
 21
92.48917551201016
 97
        0
 75
     0
 76
     1
 98
        0
  0
LINE
  5
162
330
15F
100
AcDbEntity
  8
Maﬂe
  6
Continuous
 62
     7
100
AcDbLine
 10
351.5757860571
 20
116.9891762682
 30
0.0
 11
388.8335433278
 21
116.9891762682
 31
0.0
  0
LINE
  5
163
330
15F
100
AcDbEntity
  8
Maﬂe
  6
Continuous
 62
     7
100
AcDbLine
 10
374.5757860571
 20
88.9891762682
 30
0.0
 11
388.8335433278
 21
88.9891762682
 31
0.0
  0
LINE
  5
164
330
15F
100
AcDbEntity
  8
Maﬂe
  6
Continuous
 62
     7
100
AcDbLine
 10
387.0835432738
 20
116.9891762682
 30
0.0
 11
387.0835432738
 21
88.989175404
 31
0.0
  0
TEXT
  5
165
330
15F
100
AcDbEntity
  8
Maﬂe
  6
Continuous
 62
     7
100
AcDbText
 10
386.2085432738
 20
100.8016758361
 30
0.0
 40
3.5
  1
28
 50
90.0
  7
SEACAD_Solid_Edge_ISO
 11
382.7085432738
 21
100.8016758361
 31
0.0
100
AcDbText
 73
     3
  0
ENDBLK
  5
167
330
15F
100
AcDbEntity
  8
0
100
AcDbBlockEnd
  0
BLOCK
  5
170
330
169
100
AcDbEntity
  8
0
100
AcDbBlockBegin
  2
DMBLK18
 70
     0
 10
0.0
 20
0.0
 30
0.0
  3
DMBLK18
  1

  0
HATCH
  5
16A
330
169
100
AcDbEntity
  8
Maﬂe
  6
Continuous
 62
     7
100
AcDbHatch
 10
0.0
 20
0.0
 30
0.0
210
0.0
220
0.0
230
1.0
  2
SOLID
 70
     1
 71
     0
 91
        1
 92
        1
 93
        3
 72
     1
 10
60.27945062006964
 20
245.4891761602107
 11
61.44611732274744
 21
245.4891761602107
 72
     1
 10
61.44611732274744
 20
245.4891761602107
 11
60.86278397140854
 21
248.9891762682441
 72
     1
 10
60.86278397140854
 20
248.9891762682441
 11
60.27945062006964
 21
245.4891761602107
 97
        0
 75
     0
 76
     1
 98
        0
  0
HATCH
  5
16B
330
169
100
AcDbEntity
  8
Maﬂe
  6
Continuous
 62
     7
100
AcDbHatch
 10
0.0
 20
0.0
 30
0.0
210
0.0
220
0.0
230
1.0
  2
SOLID
 70
     1
 71
     0
 91
        1
 92
        1
 93
        3
 72
     1
 10
60.27945062006964
 20
92.4891799525562
 11
60.86278397140854
 21
88.98917984452278
 72
     1
 10
60.86278397140854
 20
88.98917984452278
 11
61.44611732274744
 21
92.4891799525562
 72
     1
 10
61.44611732274744
 20
92.4891799525562
 11
60.27945062006964
 21
92.4891799525562
 97
        0
 75
     0
 76
     1
 98
        0
  0
LINE
  5
16C
330
169
100
AcDbEntity
  8
Maﬂe
  6
Continuous
 62
     7
100
AcDbLine
 10
221.5757860571
 20
248.9891762682
 30
0.0
 11
59.1127839174
 21
248.9891762682
 31
0.0
  0
LINE
  5
16D
330
169
100
AcDbEntity
  8
Maﬂe
  6
Continuous
 62
     7
100
AcDbLine
 10
221.5757860571
 20
88.9891762682
 30
0.0
 11
59.1127839174
 21
88.9891762682
 31
0.0
  0
LINE
  5
16E
330
169
100
AcDbEntity
  8
Maﬂe
  6
Continuous
 62
     7
100
AcDbLine
 10
60.8627839714
 20
248.9891762682
 30
0.0
 11
60.8627839714
 21
88.9891798445
 31
0.0
  0
TEXT
  5
16F
330
169
100
AcDbEntity
  8
Maﬂe
  6
Continuous
 62
     7
100
AcDbText
 10
59.9877839714
 20
166.16531442
 30
0.0
 40
3.5
  1
160
 50
90.0
  7
SEACAD_Solid_Edge_ISO
 11
56.4877839714
 21
166.16531442
 31
0.0
100
AcDbText
 73
     3
  0
ENDBLK
  5
171
330
169
100
AcDbEntity
  8
0
100
AcDbBlockEnd
  0
BLOCK
  5
17A
330
173
100
AcDbEntity
  8
0
100
AcDbBlockBegin
  2
DMBLK19
 70
     0
 10
0.0
 20
0.0
 30
0.0
  3
DMBLK19
  1

  0
HATCH
  5
174
330
173
100
AcDbEntity
  8
Maﬂe
  6
Continuous
 62
     7
100
AcDbHatch
 10
0.0
 20
0.0
 30
0.0
210
0.0
220
0.0
230
1.0
  2
SOLID
 70
     1
 71
     0
 91
        1
 92
        1
 93
        3
 72
     1
 10
75.97347734357369
 20
120.4891763762775
 11
76.5568106949126
 21
116.9891762682441
 72
     1
 10
76.5568106949126
 20
116.9891762682441
 11
77.1401440462515
 21
120.4891763762775
 72
     1
 10
77.1401440462515
 20
120.4891763762775
 11
75.97347734357369
 21
120.4891763762775
 97
        0
 75
     0
 76
     1
 98
        0
  0
HATCH
  5
175
330
173
100
AcDbEntity
  8
Maﬂe
  6
Continuous
 62
     7
100
AcDbHatch
 10
0.0
 20
0.0
 30
0.0
210
0.0
220
0.0
230
1.0
  2
SOLID
 70
     1
 71
     0
 91
        1
 92
        1
 93
        3
 72
     1
 10
75.97347734357369
 20
397.4891854585353
 11
77.1401440462515
 21
397.4891854585353
 72
     1
 10
77.1401440462515
 20
397.4891854585353
 11
76.5568106949126
 21
400.9891855665687
 72
     1
 10
76.5568106949126
 20
400.9891855665687
 11
75.97347734357369
 21
397.4891854585353
 97
        0
 75
     0
 76
     1
 98
        0
  0
LINE
  5
176
330
173
100
AcDbEntity
  8
Maﬂe
  6
Continuous
 62
     7
100
AcDbLine
 10
91.5757860571
 20
116.9891762682
 30
0.0
 11
74.8068106409
 21
116.9891762682
 31
0.0
  0
LINE
  5
177
330
173
100
AcDbEntity
  8
Maﬂe
  6
Continuous
 62
     7
100
AcDbLine
 10
91.5757860571
 20
400.9891762682
 30
0.0
 11
74.8068106409
 21
400.9891762682
 31
0.0
  0
LINE
  5
178
330
173
100
AcDbEntity
  8
Maﬂe
  6
Continuous
 62
     7
100
AcDbLine
 10
76.5568106949
 20
116.9891762682
 30
0.0
 11
76.5568106949
 21
400.9891855666
 31
0.0
  0
TEXT
  5
179
330
173
100
AcDbEntity
  8
Maﬂe
  6
Continuous
 62
     7
100
AcDbText
 10
75.6818106949
 20
255.7675900083
 30
0.0
 40
3.5
  1
284
 50
90.0
  7
SEACAD_Solid_Edge_ISO
 11
72.1818106949
 21
255.7675900083
 31
0.0
100
AcDbText
 73
     3
  0
ENDBLK
  5
17B
330
173
100
AcDbEntity
  8
0
100
AcDbBlockEnd
  0
BLOCK
  5
184
330
17D
100
AcDbEntity
  8
0
100
AcDbBlockBegin
  2
DMBLK20
 70
     0
 10
0.0
 20
0.0
 30
0.0
  3
DMBLK20
  1

  0
HATCH
  5
17E
330
17D
100
AcDbEntity
  8
Maﬂe
  6
Continuous
 62
     7
100
AcDbHatch
 10
0.0
 20
0.0
 30
0.0
210
0.0
220
0.0
230
1.0
  2
SOLID
 70
     1
 71
     0
 91
        1
 92
        1
 93
        3
 72
     1
 10
37.02093119408145
 20
435.4891761602107
 11
38.18759789675925
 21
435.4891761602107
 72
     1
 10
38.18759789675925
 20
435.4891761602107
 11
37.60426454542035
 21
438.9891762682441
 72
     1
 10
37.60426454542035
 20
438.9891762682441
 11
37.02093119408145
 21
435.4891761602107
 97
        0
 75
     0
 76
     1
 98
        0
  0
HATCH
  5
17F
330
17D
100
AcDbEntity
  8
Maﬂe
  6
Continuous
 62
     7
100
AcDbHatch
 10
0.0
 20
0.0
 30
0.0
210
0.0
220
0.0
230
1.0
  2
SOLID
 70
     1
 71
     0
 91
        1
 92
        1
 93
        3
 72
     1
 10
37.02093119408145
 20
92.48918233674198
 11
37.60426454542035
 21
88.98918222870856
 72
     1
 10
37.60426454542035
 20
88.98918222870856
 11
38.18759789675925
 21
92.48918233674198
 72
     1
 10
38.18759789675925
 20
92.48918233674198
 11
37.02093119408145
 21
92.48918233674198
 97
        0
 75
     0
 76
     1
 98
        0
  0
LINE
  5
180
330
17D
100
AcDbEntity
  8
Maﬂe
  6
Continuous
 62
     7
100
AcDbLine
 10
68.5757860571
 20
438.9891762682
 30
0.0
 11
35.8542644914
 21
438.9891762682
 31
0.0
  0
LINE
  5
181
330
17D
100
AcDbEntity
  8
Maﬂe
  6
Continuous
 62
     7
100
AcDbLine
 10
68.5757860571
 20
88.9891762682
 30
0.0
 11
35.8542644914
 21
88.9891762682
 31
0.0
  0
LINE
  5
182
330
17D
100
AcDbEntity
  8
Maﬂe
  6
Continuous
 62
     7
100
AcDbLine
 10
37.6042645454
 20
438.9891762682
 30
0.0
 11
37.6042645454
 21
88.9891822287
 31
0.0
  0
TEXT
  5
183
330
17D
100
AcDbEntity
  8
Maﬂe
  6
Continuous
 62
     7
100
AcDbText
 10
36.7292645454
 20
261.0459974303
 30
0.0
 40
3.5
  1
350
 50
90.0
  7
SEACAD_Solid_Edge_ISO
 11
33.2292645454
 21
261.0459974303
 31
0.0
100
AcDbText
 73
     3
  0
ENDBLK
  5
185
330
17D
100
AcDbEntity
  8
0
100
AcDbBlockEnd
  0
ENDSEC
  0
SECTION
  2
ENTITIES
  0
INSERT
  5
41
330
1F
100
AcDbEntity
  8
Maﬂe
100
AcDbBlockReference
  2
SEANNOT_GROUP
 10
0.0
 20
0.0
 30
0.0
  0
INSERT
  5
4C
330
1F
100
AcDbEntity
  8
Maﬂe
100
AcDbBlockReference
  2
SEANNOT_GROUP1
 10
0.0
 20
0.0
 30
0.0
  0
INSERT
  5
56
330
1F
100
AcDbEntity
  8
Maﬂe
100
AcDbBlockReference
  2
SEANNOT_GROUP2
 10
0.0
 20
0.0
 30
0.0
  0
INSERT
  5
60
330
1F
100
AcDbEntity
  8
Maﬂe
100
AcDbBlockReference
  2
SEANNOT_GROUP3
 10
0.0
 20
0.0
 30
0.0
  0
INSERT
  5
6A
330
1F
100
AcDbEntity
  8
Maﬂe
100
AcDbBlockReference
  2
SEANNOT_GROUP4
 10
0.0
 20
0.0
 30
0.0
  0
INSERT
  5
74
330
1F
100
AcDbEntity
  8
Maﬂe
100
AcDbBlockReference
  2
SEANNOT_GROUP5
 10
0.0
 20
0.0
 30
0.0
  0
INSERT
  5
7E
330
1F
100
AcDbEntity
  8
Maﬂe
100
AcDbBlockReference
  2
SEANNOT_GROUP6
 10
0.0
 20
0.0
 30
0.0
  0
INSERT
  5
88
330
1F
100
AcDbEntity
  8
Maﬂe
100
AcDbBlockReference
  2
SEANNOT_GROUP7
 10
0.0
 20
0.0
 30
0.0
  0
INSERT
  5
92
330
1F
100
AcDbEntity
  8
Maﬂe
100
AcDbBlockReference
  2
SEANNOT_GROUP8
 10
0.0
 20
0.0
 30
0.0
  0
INSERT
  5
97
330
1F
100
AcDbEntity
  8
Maﬂe
100
AcDbBlockReference
  2
SEANNOT_GROUP9
 10
0.0
 20
0.0
 30
0.0
  0
INSERT
  5
9D
330
1F
100
AcDbEntity
  8
Default
100
AcDbBlockReference
  2
SE
 10
0.0
 20
0.0
 30
0.0
  0
DIMENSION
  5
C1
330
1F
100
AcDbEntity
  8
Maﬂe
  6
Continuous
 62
     7
100
AcDbDimension
  2
DMBLK1
 10
221.5757860571
 20
180.9371762682
 30
0.0
 11
344.10013047
 21
469.7832674904
 31
0.0
 70
   164
  1
\A1;<>
 71
     5
 42
-1.0
  3
ISO
100
AcDbRadialDimension
 15
338.7273258552
 25
457.1171020901
 35
0.0
 40
0.0
  0
DIMENSION
  5
C9
330
1F
100
AcDbEntity
  8
Maﬂe
  6
Continuous
 62
     7
100
AcDbDimension
  2
DMBLK2
 10
182.6428181261
 20
180.9371762682
 30
0.0
 11
182.6428181261
 21
134.9631749798
 31
0.0
 70
   161
  1
\A1;<>
 71
     5
 42
-1.0
  3
ISO
100
AcDbAlignedDimension
 13
221.5757860571
 23
180.9371762682
 33
0.0
 14
221.5757860571
 24
88.9891762682
 34
0.0
1001
ACAD
1000
DSTYLE
1002
{
1070
    73
1070
     0
1070
    74
1070
     0
1070
    77
1070
     1
1070
     0
1002
}
  0
DIMENSION
  5
D2
330
1F
100
AcDbEntity
  8
Maﬂe
  6
Continuous
 62
     7
100
AcDbDimension
  2
DMBLK3
 10
207.9586183299
 20
460.85459298
 30
0.0
 11
197.1726342325
 21
467.6606003563
 31
0.0
 70
   163
  1
\A1;<>
 71
     5
 42
-1.0
  3
ISO
100
AcDbDiametricDimension
 15
201.1929537843
 25
465.1237595565
 35
0.0
 40
0.0
1001
ACAD
1000
DSTYLE
1002
{
1070
    73
1070
     0
1070
    74
1070
     0
1070
    77
1070
     1
1070
   279
1070
     1
1070
     0
1002
}
  0
DIMENSION
  5
DD
330
1F
100
AcDbEntity
  8
Maﬂe
  6
Continuous
 62
     7
100
AcDbDimension
  2
DMBLK4
 10
241.5088674164
 20
460.2694274306
 30
0.0
 11
232.3982826706
 21
468.7173697946
 31
0.0
 70
   163
  1
\A1;<>
 71
     5
 42
-1.0
  3
ISO
100
AcDbDiametricDimension
 15
235.6427046978
 25
465.7089251059
 35
0.0
 40
0.0
1001
ACAD
1000
DSTYLE
1002
{
1070
    73
1070
     0
1070
    74
1070
     0
1070
    77
1070
     1
1070
   279
1070
     1
1070
     0
1002
}
  0
DIMENSION
  5
E7
330
1F
100
AcDbEntity
  8
Maﬂe
  6
Continuous
 62
     7
100
AcDbDimension
  2
DMBLK5
 10
94.3148885125
 20
398.0741603612
 30
0.0
 11
85.8595879294
 21
407.0724859441
 31
0.0
 70
   163
  1
\A1;<>
 71
     5
 42
-1.0
  3
ISO
100
AcDbDiametricDimension
 15
88.8366836017
 25
403.9041921753
 35
0.0
 40
0.0
1001
ACAD
1000
DSTYLE
1002
{
1070
    73
1070
     0
1070
    74
1070
     0
1070
    77
1070
     1
1070
   279
1070
     1
1070
     0
1002
}
  0
DIMENSION
  5
F1
330
1F
100
AcDbEntity
  8
Maﬂe
  6
Continuous
 62
     7
100
AcDbDimension
  2
DMBLK6
 10
354.2838778885
 20
398.0453286784
 30
0.0
 11
343.7113293204
 21
409.5382814874
 31
0.0
 70
   163
  1
\A1;<>
 71
     5
 42
-1.0
  3
ISO
100
AcDbDiametricDimension
 15
348.8676942256
 25
403.9330238581
 35
0.0
 40
0.0
1001
ACAD
1000
DSTYLE
1002
{
1070
    73
1070
     0
1070
    74
1070
     0
1070
    77
1070
     1
1070
   279
1070
     1
1070
     0
1002
}
  0
DIMENSION
  5
FB
330
1F
100
AcDbEntity
  8
Maﬂe
  6
Continuous
 62
     7
100
AcDbDimension
  2
DMBLK7
 10
204.5757860571
 20
435.9575180509
 30
0.0
 11
214.8209890976
 21
435.9575180509
 31
0.0
 70
   161
  1
\A1;<>
 71
     5
 42
-1.0
  3
ISO
100
AcDbAlignedDimension
 13
204.5757860571
 23
462.9891762682
 33
0.0
 14
238.5757860571
 24
462.9891762682
 34
0.0
1001
ACAD
1000
DSTYLE
1002
{
1070
    73
1070
     0
1070
    74
1070
     0
1070
    77
1070
     1
1070
     0
1002
}
  0
DIMENSION
  5
105
330
1F
100
AcDbEntity
  8
Maﬂe
  6
Continuous
 62
     7
100
AcDbDimension
  2
DMBLK8
 10
153.7659052342
 20
462.9891762682
 30
0.0
 11
153.7659052342
 21
431.9891757616
 31
0.0
 70
   160
  1
\A1;<>
 71
     5
 42
-1.0
  3
ISO
100
AcDbAlignedDimension
 13
91.5757860571
 23
400.9891762682
 33
0.0
 14
204.5757860571
 24
462.9891762682
 34
0.0
 50
90.0
100
AcDbRotatedDimension
1001
ACAD
1000
DSTYLE
1002
{
1070
    73
1070
     0
1070
    74
1070
     0
1070
    77
1070
     1
1070
     0
1002
}
  0
DIMENSION
  5
10F
330
1F
100
AcDbEntity
  8
Maﬂe
  6
Continuous
 62
     7
100
AcDbDimension
  2
DMBLK9
 10
351.5757860571
 20
381.8917307356
 30
0.0
 11
204.2817171246
 21
381.8917307356
 31
0.0
 70
   160
  1
\A1;<>
 71
     5
 42
-1.0
  3
ISO
100
AcDbAlignedDimension
 13
91.5757860571
 23
400.9891762682
 33
0.0
 14
351.5757860571
 24
396.9891762682
 34
0.0
100
AcDbRotatedDimension
1001
ACAD
1000
DSTYLE
1002
{
1070
    73
1070
     0
1070
    74
1070
     0
1070
    77
1070
     1
1070
     0
1002
}
  0
DIMENSION
  5
119
330
1F
100
AcDbEntity
  8
Maﬂe
  6
Continuous
 62
     7
100
AcDbDimension
  2
DMBLK10
 10
246.5211711211
 20
272.0917251322
 30
0.0
 11
185.7471401514
 21
215.8073656591
 31
0.0
 70
   163
  1
\A1;<>
 71
     5
 42
-1.0
  3
ISO
100
AcDbDiametricDimension
 15
196.6304009931
 25
225.8866274043
 35
0.0
 40
0.0
1001
ACAD
1000
DSTYLE
1002
{
1070
    73
1070
     0
1070
    74
1070
     0
1070
    77
1070
     1
1070
   279
1070
     1
1070
     0
1002
}
  0
DIMENSION
  5
123
330
1F
100
AcDbEntity
  8
Maﬂe
  6
Continuous
 62
     7
100
AcDbDimension
  2
DMBLK11
 10
94.3437228959
 20
114.1015257256
 30
0.0
 11
82.8983992986
 21
126.0418613693
 31
0.0
 70
   163
  1
\A1;<>
 71
     5
 42
-1.0
  3
ISO
100
AcDbDiametricDimension
 15
88.8078492183
 25
119.8768268109
 35
0.0
 40
0.0
1001
ACAD
1000
DSTYLE
1002
{
1070
    73
1070
     0
1070
    74
1070
     0
1070
    77
1070
     1
1070
   279
1070
     1
1070
     0
1002
}
  0
DIMENSION
  5
12D
330
1F
100
AcDbEntity
  8
Maﬂe
  6
Continuous
 62
     7
100
AcDbDimension
  2
DMBLK12
 10
224.6335219036
 20
162.4103681147
 30
0.0
 11
215.1844118593
 21
170.3794809646
 31
0.0
 70
   163
  1
\A1;<>
 71
     5
 42
-1.0
  3
ISO
100
AcDbDiametricDimension
 15
218.5180502106
 25
167.5679844218
 35
0.0
 40
0.0
1001
ACAD
1000
DSTYLE
1002
{
1070
    73
1070
     0
1070
    74
1070
     0
1070
    77
1070
     1
1070
   279
1070
     1
1070
     0
1002
}
  0
DIMENSION
  5
137
330
1F
100
AcDbEntity
  8
Maﬂe
  6
Continuous
 62
     7
100
AcDbDimension
  2
DMBLK13
 10
354.5197783028
 20
114.2812416942
 30
0.0
 11
345.2898858624
 21
122.7710551068
 31
0.0
 70
   163
  1
\A1;<>
 71
     5
 42
-1.0
  3
ISO
100
AcDbDiametricDimension
 15
348.6317938114
 25
119.6971108423
 35
0.0
 40
0.0
1001
ACAD
1000
DSTYLE
1002
{
1070
    73
1070
     0
1070
    74
1070
     0
1070
    77
1070
     1
1070
   279
1070
     1
1070
     0
1002
}
  0
DIMENSION
  5
141
330
1F
100
AcDbEntity
  8
Maﬂe
  6
Continuous
 62
     7
100
AcDbDimension
  2
DMBLK14
 10
243.1679914474
 20
164.9891762682
 30
0.0
 11
243.1679914474
 21
126.9891774901
 31
0.0
 70
   161
  1
\A1;<>
 71
     5
 42
-1.0
  3
ISO
100
AcDbAlignedDimension
 13
221.5757860571
 23
164.9891762682
 33
0.0
 14
221.5757860571
 24
88.9891762682
 34
0.0
1001
ACAD
1000
DSTYLE
1002
{
1070
    73
1070
     0
1070
    74
1070
     0
1070
    77
1070
     1
1070
     0
1002
}
  0
DIMENSION
  5
14A
330
1F
100
AcDbEntity
  8
Maﬂe
  6
Continuous
 62
     7
100
AcDbDimension
  2
DMBLK15
 10
91.5757860571
 20
78.0700105378
 30
0.0
 11
221.5757812887
 21
78.0700105378
 31
0.0
 70
   161
  1
\A1;<>
 71
     5
 42
-1.0
  3
ISO
100
AcDbAlignedDimension
 13
91.5757860571
 23
116.9891762682
 33
0.0
 14
351.5757860571
 24
116.9891762682
 34
0.0
1001
ACAD
1000
DSTYLE
1002
{
1070
    73
1070
     0
1070
    74
1070
     0
1070
    77
1070
     1
1070
     0
1002
}
  0
DIMENSION
  5
154
330
1F
100
AcDbEntity
  8
Maﬂe
  6
Continuous
 62
     7
100
AcDbDimension
  2
DMBLK16
 10
68.5757860571
 20
65.3502032557
 30
0.0
 11
221.5757831961
 21
65.3502032557
 31
0.0
 70
   161
  1
\A1;<>
 71
     5
 42
-1.0
  3
ISO
100
AcDbAlignedDimension
 13
68.5757860571
 23
88.9891762682
 33
0.0
 14
374.5757860571
 24
88.9891762682
 34
0.0
1001
ACAD
1000
DSTYLE
1002
{
1070
    73
1070
     0
1070
    74
1070
     0
1070
    77
1070
     1
1070
     0
1002
}
  0
DIMENSION
  5
15E
330
1F
100
AcDbEntity
  8
Maﬂe
  6
Continuous
 62
     7
100
AcDbDimension
  2
DMBLK17
 10
387.0835432738
 20
88.9891762682
 30
0.0
 11
387.0835432738
 21
102.9891758361
 31
0.0
 70
   160
  1
\A1;<>
 71
     5
 42
-1.0
  3
ISO
100
AcDbAlignedDimension
 13
351.5757860571
 23
116.9891762682
 33
0.0
 14
374.5757860571
 24
88.9891762682
 34
0.0
 50
90.0
100
AcDbRotatedDimension
1001
ACAD
1000
DSTYLE
1002
{
1070
    73
1070
     0
1070
    74
1070
     0
1070
    77
1070
     1
1070
     0
1002
}
  0
DIMENSION
  5
168
330
1F
100
AcDbEntity
  8
Maﬂe
  6
Continuous
 62
     7
100
AcDbDimension
  2
DMBLK18
 10
60.8627839714
 20
248.9891762682
 30
0.0
 11
60.8627839714
 21
168.9891780564
 31
0.0
 70
   161
  1
\A1;<>
 71
     5
 42
-1.0
  3
ISO
100
AcDbAlignedDimension
 13
221.5757860571
 23
248.9891762682
 33
0.0
 14
221.5757860571
 24
88.9891762682
 34
0.0
1001
ACAD
1000
DSTYLE
1002
{
1070
    73
1070
     0
1070
    74
1070
     0
1070
    77
1070
     1
1070
     0
1002
}
  0
DIMENSION
  5
172
330
1F
100
AcDbEntity
  8
Maﬂe
  6
Continuous
 62
     7
100
AcDbDimension
  2
DMBLK19
 10
76.5568106949
 20
116.9891762682
 30
0.0
 11
76.5568106949
 21
258.9891809174
 31
0.0
 70
   161
  1
\A1;<>
 71
     5
 42
-1.0
  3
ISO
100
AcDbAlignedDimension
 13
91.5757860571
 23
116.9891762682
 33
0.0
 14
91.5757860571
 24
400.9891762682
 34
0.0
1001
ACAD
1000
DSTYLE
1002
{
1070
    73
1070
     0
1070
    74
1070
     0
1070
    77
1070
     1
1070
     0
1002
}
  0
DIMENSION
  5
17C
330
1F
100
AcDbEntity
  8
Maﬂe
  6
Continuous
 62
     7
100
AcDbDimension
  2
DMBLK20
 10
37.6042645454
 20
438.9891762682
 30
0.0
 11
37.6042645454
 21
263.9891792485
 31
0.0
 70
   161
  1
\A1;<>
 71
     5
 42
-1.0
  3
ISO
100
AcDbAlignedDimension
 13
68.5757860571
 23
438.9891762682
 33
0.0
 14
68.5757860571
 24
88.9891762682
 34
0.0
1001
ACAD
1000
DSTYLE
1002
{
1070
    73
1070
     0
1070
    74
1070
     0
1070
    77
1070
     1
1070
     0
1002
}
  0
ENDSEC
  0
SECTION
  2
OBJECTS
  0
DICTIONARY
  5
C
330
0
100
AcDbDictionary
281
     1
  3
ACAD_GROUP
350
D
  3
ACAD_LAYOUT
350
1A
  3
ACAD_MATERIAL
350
3B
  3
ACAD_MLEADERSTYLE
350
188
  3
ACAD_MLINESTYLE
350
17
  3
ACAD_PLOTSETTINGS
350
19
  3
ACAD_PLOTSTYLENAME
350
E
  3
ACAD_VISUALSTYLE
350
2A
  3
AcDbVariableDictionary
350
186
  0
DICTIONARY
  5
D
102
{ACAD_REACTORS
330
C
102
}
330
C
100
AcDbDictionary
281
     1
  0
DICTIONARY
  5
1A
102
{ACAD_REACTORS
330
C
102
}
330
C
100
AcDbDictionary
281
     1
  3
Layout1
350
1E
  3
Model
350
22
  0
DICTIONARY
  5
3B
102
{ACAD_REACTORS
330
C
102
}
330
C
100
AcDbDictionary
281
     1
  3
ByBlock
350
3D
  3
ByLayer
350
3C
  3
Global
350
3E
  0
DICTIONARY
  5
188
102
{ACAD_REACTORS
330
C
102
}
330
C
100
AcDbDictionary
281
     1
  0
DICTIONARY
  5
17
102
{ACAD_REACTORS
330
C
102
}
330
C
100
AcDbDictionary
281
     1
  3
Standard
350
18
  0
DICTIONARY
  5
19
102
{ACAD_REACTORS
330
C
102
}
330
C
100
AcDbDictionary
281
     1
  0
ACDBDICTIONARYWDFLT
  5
E
102
{ACAD_REACTORS
330
C
102
}
330
C
100
AcDbDictionary
281
     1
  3
Normal
350
F
100
AcDbDictionaryWithDefault
340
F
  0
DICTIONARY
  5
2A
102
{ACAD_REACTORS
330
C
102
}
330
C
100
AcDbDictionary
281
     1
  3
2dWireframe
350
2F
  3
3D Hidden
350
31
  3
3dWireframe
350
30
  3
Basic
350
32
  3
Brighten
350
36
  3
ColorChange
350
3A
  3
Conceptual
350
34
  3
Dim
350
35
  3
Facepattern
350
39
  3
Flat
350
2B
  3
FlatWithEdges
350
2C
  3
Gouraud
350
2D
  3
GouraudWithEdges
350
2E
  3
Linepattern
350
38
  3
Realistic
350
33
  3
Thicken
350
37
  0
DICTIONARY
  5
186
102
{ACAD_REACTORS
330
C
102
}
330
C
100
AcDbDictionary
281
     1
  3
DIMASSOC
350
18B
  3
HIDETEXT
350
18C
  3
PSOLHEIGHT
350
18A
  3
PSOLWIDTH
350
189
  0
LAYOUT
  5
1E
102
{ACAD_REACTORS
330
1A
102
}
330
1A
100
AcDbPlotSettings
  1

  2
none_device
  4

  6

 40
0.0
 41
0.0
 42
0.0
 43
0.0
 44
0.0
 45
0.0
 46
0.0
 47
0.0
 48
0.0
 49
0.0
140
0.0
141
0.0
142
1.0
143
1.0
 70
   688
 72
     0
 73
     0
 74
     5
  7

 75
    16
147
1.0
148
0.0
149
0.0
100
AcDbLayout
  1
Layout1
 70
     1
 71
     1
 10
0.0
 20
0.0
 11
420.0
 21
594.0
 12
0.0
 22
0.0
 32
0.0
 14
0.0
 24
0.0
 34
0.0
 15
420.0
 25
594.0
 35
0.0
146
0.0
 13
0.0
 23
0.0
 33
0.0
 16
1.0
 26
0.0
 36
0.0
 17
0.0
 27
1.0
 37
0.0
 76
     0
330
1B
  0
LAYOUT
  5
22
102
{ACAD_REACTORS
330
1A
102
}
330
1A
100
AcDbPlotSettings
  1

  2
none_device
  4

  6

 40
0.0
 41
0.0
 42
0.0
 43
0.0
 44
0.0
 45
0.0
 46
0.0
 47
0.0
 48
0.0
 49
0.0
140
0.0
141
0.0
142
1.0
143
1.0
 70
  1712
 72
     0
 73
     0
 74
     0
  7

 75
     0
147
1.0
148
0.0
149
0.0
100
AcDbLayout
  1
Model
 70
     1
 71
     0
 10
0.0
 20
0.0
 11
420.0
 21
594.0
 12
0.0
 22
0.0
 32
0.0
 14
0.0
 24
0.0
 34
0.0
 15
420.0
 25
594.0
 35
0.0
146
0.0
 13
0.0
 23
0.0
 33
0.0
 16
1.0
 26
0.0
 36
0.0
 17
0.0
 27
1.0
 37
0.0
 76
     0
330
1F
331
29
  0
MATERIAL
  5
3D
102
{ACAD_REACTORS
330
3B
102
}
102
{ACAD_XDICTIONARY
360
1AF
102
}
330
3B
100
AcDbMaterial
  1
ByBlock
  0
MATERIAL
  5
3C
102
{ACAD_REACTORS
330
3B
102
}
102
{ACAD_XDICTIONARY
360
1AD
102
}
330
3B
100
AcDbMaterial
  1
ByLayer
  0
MATERIAL
  5
3E
102
{ACAD_REACTORS
330
3B
102
}
102
{ACAD_XDICTIONARY
360
1B1
102
}
330
3B
100
AcDbMaterial
  1
Global
  0
MLINESTYLE
  5
18
102
{ACAD_REACTORS
330
17
102
}
330
17
100
AcDbMlineStyle
  2
Standard
 70
     0
  3

 62
   256
 51
90.0
 52
90.0
 71
     2
 49
0.5
 62
   256
  6
BYLAYER
 49
-0.5
 62
   256
  6
BYLAYER
  0
ACDBPLACEHOLDER
  5
F
102
{ACAD_REACTORS
330
E
102
}
330
E
  0
VISUALSTYLE
  5
2F
102
{ACAD_REACTORS
330
2A
102
}
102
{ACAD_XDICTIONARY
360
195
102
}
330
2A
100
AcDbVisualStyle
  2
2dWireframe
 70
     4
 71
     0
 72
     2
 73
     0
 90
        0
 40
-0.6
 41
-30.0
 62
     5
 63
     7
 74
     1
 91
        4
 64
     7
 65
   257
 75
     1
175
     1
 42
1.0
 92
        0
 66
   257
 43
1.0
 76
     1
 77
     6
 78
     2
 67
     7
 79
     5
170
     0
171
     0
290
     0
174
     0
 93
        1
 44
0.0
173
     0
291
     0
 45
0.0
1001
ACAD
1000
AcDbSavedByObjectVersion
1070
     0
  0
VISUALSTYLE
  5
31
102
{ACAD_REACTORS
330
2A
102
}
102
{ACAD_XDICTIONARY
360
199
102
}
330
2A
100
AcDbVisualStyle
  2
3D Hidden
 70
     6
 71
     1
 72
     2
 73
     2
 90
        0
 40
-0.6
 41
-30.0
 62
     5
 63
     7
 74
     2
 91
        2
 64
     7
 65
   257
 75
     2
175
     1
 42
40.0
 92
        0
 66
   257
 43
1.0
 76
     1
 77
     6
 78
     2
 67
     7
 79
     3
170
     0
171
     0
290
     0
174
     0
 93
        1
 44
0.0
173
     0
291
     0
 45
0.0
1001
ACAD
1000
AcDbSavedByObjectVersion
1070
     0
  0
VISUALSTYLE
  5
30
102
{ACAD_REACTORS
330
2A
102
}
102
{ACAD_XDICTIONARY
360
197
102
}
330
2A
100
AcDbVisualStyle
  2
3dWireframe
 70
     5
 71
     0
 72
     2
 73
     0
 90
        0
 40
-0.6
 41
-30.0
 62
     5
 63
     7
 74
     1
 91
        4
 64
     7
 65
   257
 75
     1
175
     1
 42
1.0
 92
        0
 66
   257
 43
1.0
 76
     1
 77
     6
 78
     2
 67
     7
 79
     5
170
     0
171
     0
290
     0
174
     0
 93
        1
 44
0.0
173
     0
291
     0
 45
0.0
1001
ACAD
1000
AcDbSavedByObjectVersion
1070
     0
  0
VISUALSTYLE
  5
32
102
{ACAD_REACTORS
330
2A
102
}
102
{ACAD_XDICTIONARY
360
19B
102
}
330
2A
100
AcDbVisualStyle
  2
Basic
 70
     7
 71
     1
 72
     0
 73
     1
 90
        0
 40
-0.6
 41
-30.0
 62
     5
 63
     7
 74
     0
 91
        4
 64
     7
 65
   257
 75
     1
175
     1
 42
1.0
 92
        8
 66
     7
 43
1.0
 76
     1
 77
     6
 78
     2
 67
     7
 79
     5
170
     0
171
     0
290
     0
174
     0
 93
        1
 44
0.0
173
     0
291
     1
 45
0.0
1001
ACAD
1000
AcDbSavedByObjectVersion
1070
     0
  0
VISUALSTYLE
  5
36
102
{ACAD_REACTORS
330
2A
102
}
102
{ACAD_XDICTIONARY
360
1A3
102
}
330
2A
100
AcDbVisualStyle
  2
Brighten
 70
    12
 71
     2
 72
     2
 73
     0
 90
        0
 40
-0.6
 41
-30.0
 62
     5
 63
     7
 74
     1
 91
        4
 64
     7
 65
   257
 75
     1
175
     1
 42
1.0
 92
        8
 66
     7
 43
1.0
 76
     1
 77
     6
 78
     2
 67
     7
 79
     5
170
     0
171
     0
290
     0
174
     0
 93
        1
 44
50.0
173
     0
291
     1
 45
0.0
1001
ACAD
1000
AcDbSavedByObjectVersion
1070
     0
  0
VISUALSTYLE
  5
3A
102
{ACAD_REACTORS
330
2A
102
}
102
{ACAD_XDICTIONARY
360
1AB
102
}
330
2A
100
AcDbVisualStyle
  2
ColorChange
 70
    16
 71
     2
 72
     2
 73
     3
 90
        0
 40
-0.6
 41
-30.0
 62
     5
 63
     8
 74
     1
 91
        4
 64
     7
 65
   257
 75
     1
175
     1
 42
1.0
 92
        8
 66
     8
 43
1.0
 76
     1
 77
     6
 78
     2
 67
     7
 79
     5
170
     0
171
     0
290
     0
174
     0
 93
        1
 44
0.0
173
     0
291
     1
 45
0.0
1001
ACAD
1000
AcDbSavedByObjectVersion
1070
     0
  0
VISUALSTYLE
  5
34
102
{ACAD_REACTORS
330
2A
102
}
102
{ACAD_XDICTIONARY
360
19F
102
}
330
2A
100
AcDbVisualStyle
  2
Conceptual
 70
     9
 71
     3
 72
     2
 73
     0
 90
        0
 40
-0.6
 41
-30.0
 62
     5
 63
     7
 74
     2
 91
        2
 64
     7
 65
   257
 75
     1
175
     1
 42
40.0
 92
        8
 66
     7
 43
1.0
 76
     1
 77
     6
 78
     2
 67
     7
 79
     3
170
     0
171
     0
290
     0
174
     0
 93
        1
 44
0.0
173
     0
291
     0
 45
0.0
1001
ACAD
1000
AcDbSavedByObjectVersion
1070
     0
  0
VISUALSTYLE
  5
35
102
{ACAD_REACTORS
330
2A
102
}
102
{ACAD_XDICTIONARY
360
1A1
102
}
330
2A
100
AcDbVisualStyle
  2
Dim
 70
    11
 71
     2
 72
     2
 73
     0
 90
        0
 40
-0.6
 41
-30.0
 62
     5
 63
     7
 74
     1
 91
        4
 64
     7
 65
   257
 75
     1
175
     1
 42
1.0
 92
        8
 66
     7
 43
1.0
 76
     1
 77
     6
 78
     2
 67
     7
 79
     5
170
     0
171
     0
290
     0
174
     0
 93
        1
 44
-50.0
173
     0
291
     1
 45
0.0
1001
ACAD
1000
AcDbSavedByObjectVersion
1070
     0
  0
VISUALSTYLE
  5
39
102
{ACAD_REACTORS
330
2A
102
}
102
{ACAD_XDICTIONARY
360
1A9
102
}
330
2A
100
AcDbVisualStyle
  2
Facepattern
 70
    15
 71
     2
 72
     2
 73
     0
 90
        0
 40
-0.6
 41
-30.0
 62
     5
 63
     7
 74
     1
 91
        4
 64
     7
 65
   257
 75
     1
175
     1
 42
1.0
 92
        8
 66
     7
 43
1.0
 76
     1
 77
     6
 78
     2
 67
     7
 79
     5
170
     0
171
     0
290
     0
174
     0
 93
        1
 44
0.0
173
     0
291
     1
 45
0.0
1001
ACAD
1000
AcDbSavedByObjectVersion
1070
     0
  0
VISUALSTYLE
  5
2B
102
{ACAD_REACTORS
330
2A
102
}
102
{ACAD_XDICTIONARY
360
18D
102
}
330
2A
100
AcDbVisualStyle
  2
Flat
 70
     0
 71
     2
 72
     1
 73
     1
 90
        2
 40
-0.6
 41
30.0
 62
     5
 63
     7
 74
     0
 91
        4
 64
     7
 65
   257
 75
     1
175
     1
 42
1.0
 92
        8
 66
     7
 43
1.0
 76
     1
 77
     6
 78
     2
 67
     7
 79
     5
170
     0
171
     0
290
     0
174
     0
 93
       13
 44
0.0
173
     0
291
     1
 45
0.0
1001
ACAD
1000
AcDbSavedByObjectVersion
1070
     0
  0
VISUALSTYLE
  5
2C
102
{ACAD_REACTORS
330
2A
102
}
102
{ACAD_XDICTIONARY
360
18F
102
}
330
2A
100
AcDbVisualStyle
  2
FlatWithEdges
 70
     1
 71
     2
 72
     1
 73
     1
 90
        2
 40
-0.6
 41
30.0
 62
     5
 63
     7
 74
     1
 91
        4
 64
     7
 65
   257
 75
     1
175
     1
 42
1.0
 92
        0
 66
   257
 43
1.0
 76
     1
 77
     6
 78
     2
 67
     7
 79
     5
170
     0
171
     0
290
     0
174
     0
 93
       13
 44
0.0
173
     0
291
     1
 45
0.0
1001
ACAD
1000
AcDbSavedByObjectVersion
1070
     0
  0
VISUALSTYLE
  5
2D
102
{ACAD_REACTORS
330
2A
102
}
102
{ACAD_XDICTIONARY
360
191
102
}
330
2A
100
AcDbVisualStyle
  2
Gouraud
 70
     2
 71
     2
 72
     2
 73
     1
 90
        2
 40
-0.6
 41
30.0
 62
     5
 63
     7
 74
     0
 91
        4
 64
     7
 65
   257
 75
     1
175
     1
 42
1.0
 92
        0
 66
     7
 43
1.0
 76
     1
 77
     6
 78
     2
 67
     7
 79
     5
170
     0
171
     0
290
     0
174
     0
 93
       13
 44
0.0
173
     0
291
     1
 45
0.0
1001
ACAD
1000
AcDbSavedByObjectVersion
1070
     0
  0
VISUALSTYLE
  5
2E
102
{ACAD_REACTORS
330
2A
102
}
102
{ACAD_XDICTIONARY
360
193
102
}
330
2A
100
AcDbVisualStyle
  2
GouraudWithEdges
 70
     3
 71
     2
 72
     2
 73
     1
 90
        2
 40
-0.6
 41
30.0
 62
     5
 63
     7
 74
     1
 91
        4
 64
     7
 65
   257
 75
     1
175
     1
 42
1.0
 92
        0
 66
   257
 43
1.0
 76
     1
 77
     6
 78
     2
 67
     7
 79
     5
170
     0
171
     0
290
     0
174
     0
 93
       13
 44
0.0
173
     0
291
     1
 45
0.0
1001
ACAD
1000
AcDbSavedByObjectVersion
1070
     0
  0
VISUALSTYLE
  5
38
102
{ACAD_REACTORS
330
2A
102
}
102
{ACAD_XDICTIONARY
360
1A7
102
}
330
2A
100
AcDbVisualStyle
  2
Linepattern
 70
    14
 71
     2
 72
     2
 73
     0
 90
        0
 40
-0.6
 41
-30.0
 62
     5
 63
     7
 74
     1
 91
        4
 64
     7
 65
   257
 75
     7
175
     7
 42
1.0
 92
        8
 66
     7
 43
1.0
 76
     1
 77
     6
 78
     2
 67
     7
 79
     5
170
     0
171
     0
290
     0
174
     0
 93
        1
 44
0.0
173
     0
291
     1
 45
0.0
1001
ACAD
1000
AcDbSavedByObjectVersion
1070
     0
  0
VISUALSTYLE
  5
33
102
{ACAD_REACTORS
330
2A
102
}
102
{ACAD_XDICTIONARY
360
19D
102
}
330
2A
100
AcDbVisualStyle
  2
Realistic
 70
     8
 71
     2
 72
     2
 73
     0
 90
        0
 40
-0.6
 41
-30.0
 62
     5
 63
     7
 74
     1
 91
        0
 64
     7
 65
   257
 75
     1
175
     1
 42
1.0
 92
        8
 66
     8
 43
1.0
 76
     1
 77
     6
 78
     2
 67
     7
 79
     5
170
     0
171
     0
290
     0
174
     0
 93
       13
 44
0.0
173
     0
291
     0
 45
0.0
1001
ACAD
1000
AcDbSavedByObjectVersion
1070
     0
  0
VISUALSTYLE
  5
37
102
{ACAD_REACTORS
330
2A
102
}
102
{ACAD_XDICTIONARY
360
1A5
102
}
330
2A
100
AcDbVisualStyle
  2
Thicken
 70
    13
 71
     2
 72
     2
 73
     0
 90
        0
 40
-0.6
 41
-30.0
 62
     5
 63
     7
 74
     1
 91
        4
 64
     7
 65
   257
 75
     1
175
     1
 42
1.0
 92
       12
 66
     7
 43
1.0
 76
     1
 77
     6
 78
     2
 67
     7
 79
     5
170
     0
171
     0
290
     0
174
     0
 93
        1
 44
0.0
173
     0
291
     1
 45
0.0
1001
ACAD
1000
AcDbSavedByObjectVersion
1070
     0
  0
DICTIONARYVAR
  5
18B
102
{ACAD_REACTORS
330
186
102
}
330
186
100
DictionaryVariables
280
     0
  1
2
  0
DICTIONARYVAR
  5
18C
102
{ACAD_REACTORS
330
186
102
}
330
186
100
DictionaryVariables
280
     0
  1
1
  0
DICTIONARYVAR
  5
18A
102
{ACAD_REACTORS
330
186
102
}
330
186
100
DictionaryVariables
280
     0
  1
80.000000
  0
DICTIONARYVAR
  5
189
102
{ACAD_REACTORS
330
186
102
}
330
186
100
DictionaryVariables
280
     0
  1
5.000000
  0
DICTIONARY
  5
1AF
330
3D
100
AcDbDictionary
280
     1
281
     1
  3
ACAD_XREC_ROUNDTRIP
360
1B0
  0
DICTIONARY
  5
1AD
330
3C
100
AcDbDictionary
280
     1
281
     1
  3
ACAD_XREC_ROUNDTRIP
360
1AE
  0
DICTIONARY
  5
1B1
330
3E
100
AcDbDictionary
280
     1
281
     1
  3
ACAD_XREC_ROUNDTRIP
360
1B2
  0
DICTIONARY
  5
195
330
2F
100
AcDbDictionary
280
     1
281
     1
  3
ACAD_XREC_ROUNDTRIP
360
196
  0
DICTIONARY
  5
199
330
31
100
AcDbDictionary
280
     1
281
     1
  3
ACAD_XREC_ROUNDTRIP
360
19A
  0
DICTIONARY
  5
197
330
30
100
AcDbDictionary
280
     1
281
     1
  3
ACAD_XREC_ROUNDTRIP
360
198
  0
DICTIONARY
  5
19B
330
32
100
AcDbDictionary
280
     1
281
     1
  3
ACAD_XREC_ROUNDTRIP
360
19C
  0
DICTIONARY
  5
1A3
330
36
100
AcDbDictionary
280
     1
281
     1
  3
ACAD_XREC_ROUNDTRIP
360
1A4
  0
DICTIONARY
  5
1AB
330
3A
100
AcDbDictionary
280
     1
281
     1
  3
ACAD_XREC_ROUNDTRIP
360
1AC
  0
DICTIONARY
  5
19F
330
34
100
AcDbDictionary
280
     1
281
     1
  3
ACAD_XREC_ROUNDTRIP
360
1A0
  0
DICTIONARY
  5
1A1
330
35
100
AcDbDictionary
280
     1
281
     1
  3
ACAD_XREC_ROUNDTRIP
360
1A2
  0
DICTIONARY
  5
1A9
330
39
100
AcDbDictionary
280
     1
281
     1
  3
ACAD_XREC_ROUNDTRIP
360
1AA
  0
DICTIONARY
  5
18D
330
2B
100
AcDbDictionary
280
     1
281
     1
  3
ACAD_XREC_ROUNDTRIP
360
18E
  0
DICTIONARY
  5
18F
330
2C
100
AcDbDictionary
280
     1
281
     1
  3
ACAD_XREC_ROUNDTRIP
360
190
  0
DICTIONARY
  5
191
330
2D
100
AcDbDictionary
280
     1
281
     1
  3
ACAD_XREC_ROUNDTRIP
360
192
  0
DICTIONARY
  5
193
330
2E
100
AcDbDictionary
280
     1
281
     1
  3
ACAD_XREC_ROUNDTRIP
360
194
  0
DICTIONARY
  5
1A7
330
38
100
AcDbDictionary
280
     1
281
     1
  3
ACAD_XREC_ROUNDTRIP
360
1A8
  0
DICTIONARY
  5
19D
330
33
100
AcDbDictionary
280
     1
281
     1
  3
ACAD_XREC_ROUNDTRIP
360
19E
  0
DICTIONARY
  5
1A5
330
37
100
AcDbDictionary
280
     1
281
     1
  3
ACAD_XREC_ROUNDTRIP
360
1A6
  0
XRECORD
  5
1B0
102
{ACAD_REACTORS
330
1AF
102
}
330
1AF
100
AcDbXrecord
280
     1
102
MATERIAL
148
0.0
149
0.0
149
0.0
 93
        0
 94
      127
282
     0
 72
     1
 77
     1
171
     1
175
     1
179
     1
273
     0
  0
XRECORD
  5
1AE
102
{ACAD_REACTORS
330
1AD
102
}
330
1AD
100
AcDbXrecord
280
     1
102
MATERIAL
148
0.0
149
0.0
149
0.0
 93
        0
 94
      127
282
     0
 72
     1
 77
     1
171
     1
175
     1
179
     1
273
     0
  0
XRECORD
  5
1B2
102
{ACAD_REACTORS
330
1B1
102
}
330
1B1
100
AcDbXrecord
280
     1
102
MATERIAL
148
0.0
149
0.0
149
0.0
 93
        0
 94
      127
282
     0
 72
     1
 77
     1
171
     1
175
     1
179
     1
273
     0
  0
XRECORD
  5
196
102
{ACAD_REACTORS
330
195
102
}
330
195
100
AcDbXrecord
280
     1
102
RTVSPropertyOp0
 70
     1
102
RTVSPropertyOp1
 70
     1
102
RTVSPropertyOp2
 70
     1
102
RTVSPropertyOp3
 70
     1
102
RTVSPropertyOp4
 70
     1
102
RTVSPropertyOp5
 70
     1
102
RTVSPropertyOp6
 70
     1
102
RTVSPropertyOp7
 70
     1
102
RTVSPropertyOp8
 70
     1
102
RTVSPropertyOp9
 70
     1
102
RTVSPropertyOp10
 70
     1
102
RTVSPropertyOp11
 70
     1
102
RTVSPropertyOp12
 70
     1
102
RTVSPropertyOp13
 70
     1
102
RTVSPropertyOp14
 70
     1
102
RTVSPropertyOp15
 70
     1
102
RTVSPropertyOp16
 70
     1
102
RTVSPropertyOp17
 70
     1
102
RTVSPropertyOp18
 70
     1
102
RTVSPropertyOp19
 70
     1
102
RTVSPropertyOp20
 70
     1
102
RTVSPropertyOp21
 70
     1
102
RTVSPropertyOp22
 70
     1
102
RTVSPropertyOp23
 70
     1
102
RTVSPropertyOp24
 70
     1
102
RTVSPropertyOp25
 70
     1
102
RTVSPropertyOp26
 70
     1
102
RTVSPropertyOp27
 70
     1
102
RTVSPropertyOp28
 70
     1
102
RTVSPropertyOp29
 70
     1
102
RTVSPropertyOp30
 70
     1
102
RTVSPropertyOp31
 70
     1
102
RTVSPropertyOp32
 70
     1
  0
XRECORD
  5
19A
102
{ACAD_REACTORS
330
199
102
}
330
199
100
AcDbXrecord
280
     1
102
RTVSPropertyOp0
 70
     1
102
RTVSPropertyOp1
 70
     1
102
RTVSPropertyOp2
 70
     1
102
RTVSPropertyOp3
 70
     1
102
RTVSPropertyOp4
 70
     1
102
RTVSPropertyOp5
 70
     1
102
RTVSPropertyOp6
 70
     1
102
RTVSPropertyOp7
 70
     1
102
RTVSPropertyOp8
 70
     1
102
RTVSPropertyOp9
 70
     1
102
RTVSPropertyOp10
 70
     1
102
RTVSPropertyOp11
 70
     1
102
RTVSPropertyOp12
 70
     1
102
RTVSPropertyOp13
 70
     1
102
RTVSPropertyOp14
 70
     1
102
RTVSPropertyOp15
 70
     1
102
RTVSPropertyOp16
 70
     1
102
RTVSPropertyOp17
 70
     1
102
RTVSPropertyOp18
 70
     1
102
RTVSPropertyOp19
 70
     1
102
RTVSPropertyOp20
 70
     1
102
RTVSPropertyOp21
 70
     1
102
RTVSPropertyOp22
 70
     1
102
RTVSPropertyOp23
 70
     1
102
RTVSPropertyOp24
 70
     1
102
RTVSPropertyOp25
 70
     1
102
RTVSPropertyOp26
 70
     1
102
RTVSPropertyOp27
 70
     1
102
RTVSPropertyOp28
 70
     1
102
RTVSPropertyOp29
 70
     1
102
RTVSPropertyOp30
 70
     1
102
RTVSPropertyOp31
 70
     1
102
RTVSPropertyOp32
 70
     1
  0
XRECORD
  5
198
102
{ACAD_REACTORS
330
197
102
}
330
197
100
AcDbXrecord
280
     1
102
RTVSPropertyOp0
 70
     1
102
RTVSPropertyOp1
 70
     1
102
RTVSPropertyOp2
 70
     1
102
RTVSPropertyOp3
 70
     1
102
RTVSPropertyOp4
 70
     1
102
RTVSPropertyOp5
 70
     1
102
RTVSPropertyOp6
 70
     1
102
RTVSPropertyOp7
 70
     1
102
RTVSPropertyOp8
 70
     1
102
RTVSPropertyOp9
 70
     1
102
RTVSPropertyOp10
 70
     1
102
RTVSPropertyOp11
 70
     1
102
RTVSPropertyOp12
 70
     1
102
RTVSPropertyOp13
 70
     1
102
RTVSPropertyOp14
 70
     1
102
RTVSPropertyOp15
 70
     1
102
RTVSPropertyOp16
 70
     1
102
RTVSPropertyOp17
 70
     1
102
RTVSPropertyOp18
 70
     1
102
RTVSPropertyOp19
 70
     1
102
RTVSPropertyOp20
 70
     1
102
RTVSPropertyOp21
 70
     1
102
RTVSPropertyOp22
 70
     1
102
RTVSPropertyOp23
 70
     1
102
RTVSPropertyOp24
 70
     1
102
RTVSPropertyOp25
 70
     1
102
RTVSPropertyOp26
 70
     1
102
RTVSPropertyOp27
 70
     1
102
RTVSPropertyOp28
 70
     1
102
RTVSPropertyOp29
 70
     1
102
RTVSPropertyOp30
 70
     1
102
RTVSPropertyOp31
 70
     1
102
RTVSPropertyOp32
 70
     1
  0
XRECORD
  5
19C
102
{ACAD_REACTORS
330
19B
102
}
330
19B
100
AcDbXrecord
280
     1
102
RTVSPropertyOp0
 70
     1
102
RTVSPropertyOp1
 70
     1
102
RTVSPropertyOp2
 70
     1
102
RTVSPropertyOp3
 70
     1
102
RTVSPropertyOp4
 70
     1
102
RTVSPropertyOp5
 70
     1
102
RTVSPropertyOp6
 70
     1
102
RTVSPropertyOp7
 70
     1
102
RTVSPropertyOp8
 70
     1
102
RTVSPropertyOp9
 70
     1
102
RTVSPropertyOp10
 70
     1
102
RTVSPropertyOp11
 70
     1
102
RTVSPropertyOp12
 70
     1
102
RTVSPropertyOp13
 70
     1
102
RTVSPropertyOp14
 70
     1
102
RTVSPropertyOp15
 70
     1
102
RTVSPropertyOp16
 70
     1
102
RTVSPropertyOp17
 70
     1
102
RTVSPropertyOp18
 70
     1
102
RTVSPropertyOp19
 70
     1
102
RTVSPropertyOp20
 70
     1
102
RTVSPropertyOp21
 70
     1
102
RTVSPropertyOp22
 70
     1
102
RTVSPropertyOp23
 70
     1
102
RTVSPropertyOp24
 70
     1
102
RTVSPropertyOp25
 70
     1
102
RTVSPropertyOp26
 70
     1
102
RTVSPropertyOp27
 70
     1
102
RTVSPropertyOp28
 70
     1
102
RTVSPropertyOp29
 70
     1
102
RTVSPropertyOp30
 70
     1
102
RTVSPropertyOp31
 70
     1
102
RTVSPropertyOp32
 70
     1
  0
XRECORD
  5
1A4
102
{ACAD_REACTORS
330
1A3
102
}
330
1A3
100
AcDbXrecord
280
     1
102
RTVSPropertyOp0
 70
     1
102
RTVSPropertyOp1
 70
     1
102
RTVSPropertyOp2
 70
     1
102
RTVSPropertyOp3
 70
     1
102
RTVSPropertyOp4
 70
     1
102
RTVSPropertyOp5
 70
     1
102
RTVSPropertyOp6
 70
     1
102
RTVSPropertyOp7
 70
     1
102
RTVSPropertyOp8
 70
     1
102
RTVSPropertyOp9
 70
     1
102
RTVSPropertyOp10
 70
     1
102
RTVSPropertyOp11
 70
     1
102
RTVSPropertyOp12
 70
     1
102
RTVSPropertyOp13
 70
     1
102
RTVSPropertyOp14
 70
     1
102
RTVSPropertyOp15
 70
     1
102
RTVSPropertyOp16
 70
     1
102
RTVSPropertyOp17
 70
     1
102
RTVSPropertyOp18
 70
     1
102
RTVSPropertyOp19
 70
     1
102
RTVSPropertyOp20
 70
     1
102
RTVSPropertyOp21
 70
     1
102
RTVSPropertyOp22
 70
     1
102
RTVSPropertyOp23
 70
     1
102
RTVSPropertyOp24
 70
     1
102
RTVSPropertyOp25
 70
     1
102
RTVSPropertyOp26
 70
     1
102
RTVSPropertyOp27
 70
     1
102
RTVSPropertyOp28
 70
     1
102
RTVSPropertyOp29
 70
     1
102
RTVSPropertyOp30
 70
     1
102
RTVSPropertyOp31
 70
     1
102
RTVSPropertyOp32
 70
     1
  0
XRECORD
  5
1AC
102
{ACAD_REACTORS
330
1AB
102
}
330
1AB
100
AcDbXrecord
280
     1
102
RTVSPropertyOp0
 70
     1
102
RTVSPropertyOp1
 70
     1
102
RTVSPropertyOp2
 70
     1
102
RTVSPropertyOp3
 70
     1
102
RTVSPropertyOp4
 70
     1
102
RTVSPropertyOp5
 70
     1
102
RTVSPropertyOp6
 70
     1
102
RTVSPropertyOp7
 70
     1
102
RTVSPropertyOp8
 70
     1
102
RTVSPropertyOp9
 70
     1
102
RTVSPropertyOp10
 70
     1
102
RTVSPropertyOp11
 70
     1
102
RTVSPropertyOp12
 70
     1
102
RTVSPropertyOp13
 70
     1
102
RTVSPropertyOp14
 70
     1
102
RTVSPropertyOp15
 70
     1
102
RTVSPropertyOp16
 70
     1
102
RTVSPropertyOp17
 70
     1
102
RTVSPropertyOp18
 70
     1
102
RTVSPropertyOp19
 70
     1
102
RTVSPropertyOp20
 70
     1
102
RTVSPropertyOp21
 70
     1
102
RTVSPropertyOp22
 70
     1
102
RTVSPropertyOp23
 70
     1
102
RTVSPropertyOp24
 70
     1
102
RTVSPropertyOp25
 70
     1
102
RTVSPropertyOp26
 70
     1
102
RTVSPropertyOp27
 70
     1
102
RTVSPropertyOp28
 70
     1
102
RTVSPropertyOp29
 70
     1
102
RTVSPropertyOp30
 70
     1
102
RTVSPropertyOp31
 70
     1
102
RTVSPropertyOp32
 70
     1
  0
XRECORD
  5
1A0
102
{ACAD_REACTORS
330
19F
102
}
330
19F
100
AcDbXrecord
280
     1
102
RTVSPropertyOp0
 70
     1
102
RTVSPropertyOp1
 70
     1
102
RTVSPropertyOp2
 70
     1
102
RTVSPropertyOp3
 70
     1
102
RTVSPropertyOp4
 70
     1
102
RTVSPropertyOp5
 70
     1
102
RTVSPropertyOp6
 70
     1
102
RTVSPropertyOp7
 70
     1
102
RTVSPropertyOp8
 70
     1
102
RTVSPropertyOp9
 70
     1
102
RTVSPropertyOp10
 70
     1
102
RTVSPropertyOp11
 70
     1
102
RTVSPropertyOp12
 70
     1
102
RTVSPropertyOp13
 70
     1
102
RTVSPropertyOp14
 70
     1
102
RTVSPropertyOp15
 70
     1
102
RTVSPropertyOp16
 70
     1
102
RTVSPropertyOp17
 70
     1
102
RTVSPropertyOp18
 70
     1
102
RTVSPropertyOp19
 70
     1
102
RTVSPropertyOp20
 70
     1
102
RTVSPropertyOp21
 70
     1
102
RTVSPropertyOp22
 70
     1
102
RTVSPropertyOp23
 70
     1
102
RTVSPropertyOp24
 70
     1
102
RTVSPropertyOp25
 70
     1
102
RTVSPropertyOp26
 70
     1
102
RTVSPropertyOp27
 70
     1
102
RTVSPropertyOp28
 70
     1
102
RTVSPropertyOp29
 70
     1
102
RTVSPropertyOp30
 70
     1
102
RTVSPropertyOp31
 70
     1
102
RTVSPropertyOp32
 70
     1
  0
XRECORD
  5
1A2
102
{ACAD_REACTORS
330
1A1
102
}
330
1A1
100
AcDbXrecord
280
     1
102
RTVSPropertyOp0
 70
     1
102
RTVSPropertyOp1
 70
     1
102
RTVSPropertyOp2
 70
     1
102
RTVSPropertyOp3
 70
     1
102
RTVSPropertyOp4
 70
     1
102
RTVSPropertyOp5
 70
     1
102
RTVSPropertyOp6
 70
     1
102
RTVSPropertyOp7
 70
     1
102
RTVSPropertyOp8
 70
     1
102
RTVSPropertyOp9
 70
     1
102
RTVSPropertyOp10
 70
     1
102
RTVSPropertyOp11
 70
     1
102
RTVSPropertyOp12
 70
     1
102
RTVSPropertyOp13
 70
     1
102
RTVSPropertyOp14
 70
     1
102
RTVSPropertyOp15
 70
     1
102
RTVSPropertyOp16
 70
     1
102
RTVSPropertyOp17
 70
     1
102
RTVSPropertyOp18
 70
     1
102
RTVSPropertyOp19
 70
     1
102
RTVSPropertyOp20
 70
     1
102
RTVSPropertyOp21
 70
     1
102
RTVSPropertyOp22
 70
     1
102
RTVSPropertyOp23
 70
     1
102
RTVSPropertyOp24
 70
     1
102
RTVSPropertyOp25
 70
     1
102
RTVSPropertyOp26
 70
     1
102
RTVSPropertyOp27
 70
     1
102
RTVSPropertyOp28
 70
     1
102
RTVSPropertyOp29
 70
     1
102
RTVSPropertyOp30
 70
     1
102
RTVSPropertyOp31
 70
     1
102
RTVSPropertyOp32
 70
     1
  0
XRECORD
  5
1AA
102
{ACAD_REACTORS
330
1A9
102
}
330
1A9
100
AcDbXrecord
280
     1
102
RTVSPropertyOp0
 70
     1
102
RTVSPropertyOp1
 70
     1
102
RTVSPropertyOp2
 70
     1
102
RTVSPropertyOp3
 70
     1
102
RTVSPropertyOp4
 70
     1
102
RTVSPropertyOp5
 70
     1
102
RTVSPropertyOp6
 70
     1
102
RTVSPropertyOp7
 70
     1
102
RTVSPropertyOp8
 70
     1
102
RTVSPropertyOp9
 70
     1
102
RTVSPropertyOp10
 70
     1
102
RTVSPropertyOp11
 70
     1
102
RTVSPropertyOp12
 70
     1
102
RTVSPropertyOp13
 70
     1
102
RTVSPropertyOp14
 70
     1
102
RTVSPropertyOp15
 70
     1
102
RTVSPropertyOp16
 70
     1
102
RTVSPropertyOp17
 70
     1
102
RTVSPropertyOp18
 70
     1
102
RTVSPropertyOp19
 70
     1
102
RTVSPropertyOp20
 70
     1
102
RTVSPropertyOp21
 70
     1
102
RTVSPropertyOp22
 70
     1
102
RTVSPropertyOp23
 70
     1
102
RTVSPropertyOp24
 70
     1
102
RTVSPropertyOp25
 70
     1
102
RTVSPropertyOp26
 70
     1
102
RTVSPropertyOp27
 70
     1
102
RTVSPropertyOp28
 70
     1
102
RTVSPropertyOp29
 70
     1
102
RTVSPropertyOp30
 70
     1
102
RTVSPropertyOp31
 70
     1
102
RTVSPropertyOp32
 70
     1
  0
XRECORD
  5
18E
102
{ACAD_REACTORS
330
18D
102
}
330
18D
100
AcDbXrecord
280
     1
102
RTVSPropertyOp0
 70
     1
102
RTVSPropertyOp1
 70
     1
102
RTVSPropertyOp2
 70
     1
102
RTVSPropertyOp3
 70
     1
102
RTVSPropertyOp4
 70
     1
102
RTVSPropertyOp5
 70
     1
102
RTVSPropertyOp6
 70
     1
102
RTVSPropertyOp7
 70
     1
102
RTVSPropertyOp8
 70
     1
102
RTVSPropertyOp9
 70
     1
102
RTVSPropertyOp10
 70
     1
102
RTVSPropertyOp11
 70
     1
102
RTVSPropertyOp12
 70
     1
102
RTVSPropertyOp13
 70
     1
102
RTVSPropertyOp14
 70
     1
102
RTVSPropertyOp15
 70
     1
102
RTVSPropertyOp16
 70
     1
102
RTVSPropertyOp17
 70
     1
102
RTVSPropertyOp18
 70
     1
102
RTVSPropertyOp19
 70
     1
102
RTVSPropertyOp20
 70
     1
102
RTVSPropertyOp21
 70
     1
102
RTVSPropertyOp22
 70
     1
102
RTVSPropertyOp23
 70
     1
102
RTVSPropertyOp24
 70
     1
102
RTVSPropertyOp25
 70
     1
102
RTVSPropertyOp26
 70
     1
102
RTVSPropertyOp27
 70
     1
102
RTVSPropertyOp28
 70
     1
102
RTVSPropertyOp29
 70
     1
102
RTVSPropertyOp30
 70
     1
102
RTVSPropertyOp31
 70
     1
102
RTVSPropertyOp32
 70
     1
  0
XRECORD
  5
190
102
{ACAD_REACTORS
330
18F
102
}
330
18F
100
AcDbXrecord
280
     1
102
RTVSPropertyOp0
 70
     1
102
RTVSPropertyOp1
 70
     1
102
RTVSPropertyOp2
 70
     1
102
RTVSPropertyOp3
 70
     1
102
RTVSPropertyOp4
 70
     1
102
RTVSPropertyOp5
 70
     1
102
RTVSPropertyOp6
 70
     1
102
RTVSPropertyOp7
 70
     1
102
RTVSPropertyOp8
 70
     1
102
RTVSPropertyOp9
 70
     1
102
RTVSPropertyOp10
 70
     1
102
RTVSPropertyOp11
 70
     1
102
RTVSPropertyOp12
 70
     1
102
RTVSPropertyOp13
 70
     1
102
RTVSPropertyOp14
 70
     1
102
RTVSPropertyOp15
 70
     1
102
RTVSPropertyOp16
 70
     1
102
RTVSPropertyOp17
 70
     1
102
RTVSPropertyOp18
 70
     1
102
RTVSPropertyOp19
 70
     1
102
RTVSPropertyOp20
 70
     1
102
RTVSPropertyOp21
 70
     1
102
RTVSPropertyOp22
 70
     1
102
RTVSPropertyOp23
 70
     1
102
RTVSPropertyOp24
 70
     1
102
RTVSPropertyOp25
 70
     1
102
RTVSPropertyOp26
 70
     1
102
RTVSPropertyOp27
 70
     1
102
RTVSPropertyOp28
 70
     1
102
RTVSPropertyOp29
 70
     1
102
RTVSPropertyOp30
 70
     1
102
RTVSPropertyOp31
 70
     1
102
RTVSPropertyOp32
 70
     1
  0
XRECORD
  5
192
102
{ACAD_REACTORS
330
191
102
}
330
191
100
AcDbXrecord
280
     1
102
RTVSPropertyOp0
 70
     1
102
RTVSPropertyOp1
 70
     1
102
RTVSPropertyOp2
 70
     1
102
RTVSPropertyOp3
 70
     1
102
RTVSPropertyOp4
 70
     1
102
RTVSPropertyOp5
 70
     1
102
RTVSPropertyOp6
 70
     1
102
RTVSPropertyOp7
 70
     1
102
RTVSPropertyOp8
 70
     1
102
RTVSPropertyOp9
 70
     1
102
RTVSPropertyOp10
 70
     1
102
RTVSPropertyOp11
 70
     1
102
RTVSPropertyOp12
 70
     1
102
RTVSPropertyOp13
 70
     1
102
RTVSPropertyOp14
 70
     1
102
RTVSPropertyOp15
 70
     1
102
RTVSPropertyOp16
 70
     1
102
RTVSPropertyOp17
 70
     1
102
RTVSPropertyOp18
 70
     1
102
RTVSPropertyOp19
 70
     1
102
RTVSPropertyOp20
 70
     1
102
RTVSPropertyOp21
 70
     1
102
RTVSPropertyOp22
 70
     1
102
RTVSPropertyOp23
 70
     1
102
RTVSPropertyOp24
 70
     1
102
RTVSPropertyOp25
 70
     1
102
RTVSPropertyOp26
 70
     1
102
RTVSPropertyOp27
 70
     1
102
RTVSPropertyOp28
 70
     1
102
RTVSPropertyOp29
 70
     1
102
RTVSPropertyOp30
 70
     1
102
RTVSPropertyOp31
 70
     1
102
RTVSPropertyOp32
 70
     1
  0
XRECORD
  5
194
102
{ACAD_REACTORS
330
193
102
}
330
193
100
AcDbXrecord
280
     1
102
RTVSPropertyOp0
 70
     1
102
RTVSPropertyOp1
 70
     1
102
RTVSPropertyOp2
 70
     1
102
RTVSPropertyOp3
 70
     1
102
RTVSPropertyOp4
 70
     1
102
RTVSPropertyOp5
 70
     1
102
RTVSPropertyOp6
 70
     1
102
RTVSPropertyOp7
 70
     1
102
RTVSPropertyOp8
 70
     1
102
RTVSPropertyOp9
 70
     1
102
RTVSPropertyOp10
 70
     1
102
RTVSPropertyOp11
 70
     1
102
RTVSPropertyOp12
 70
     1
102
RTVSPropertyOp13
 70
     1
102
RTVSPropertyOp14
 70
     1
102
RTVSPropertyOp15
 70
     1
102
RTVSPropertyOp16
 70
     1
102
RTVSPropertyOp17
 70
     1
102
RTVSPropertyOp18
 70
     1
102
RTVSPropertyOp19
 70
     1
102
RTVSPropertyOp20
 70
     1
102
RTVSPropertyOp21
 70
     1
102
RTVSPropertyOp22
 70
     1
102
RTVSPropertyOp23
 70
     1
102
RTVSPropertyOp24
 70
     1
102
RTVSPropertyOp25
 70
     1
102
RTVSPropertyOp26
 70
     1
102
RTVSPropertyOp27
 70
     1
102
RTVSPropertyOp28
 70
     1
102
RTVSPropertyOp29
 70
     1
102
RTVSPropertyOp30
 70
     1
102
RTVSPropertyOp31
 70
     1
102
RTVSPropertyOp32
 70
     1
  0
XRECORD
  5
1A8
102
{ACAD_REACTORS
330
1A7
102
}
330
1A7
100
AcDbXrecord
280
     1
102
RTVSPropertyOp0
 70
     1
102
RTVSPropertyOp1
 70
     1
102
RTVSPropertyOp2
 70
     1
102
RTVSPropertyOp3
 70
     1
102
RTVSPropertyOp4
 70
     1
102
RTVSPropertyOp5
 70
     1
102
RTVSPropertyOp6
 70
     1
102
RTVSPropertyOp7
 70
     1
102
RTVSPropertyOp8
 70
     1
102
RTVSPropertyOp9
 70
     1
102
RTVSPropertyOp10
 70
     1
102
RTVSPropertyOp11
 70
     1
102
RTVSPropertyOp12
 70
     1
102
RTVSPropertyOp13
 70
     1
102
RTVSPropertyOp14
 70
     1
102
RTVSPropertyOp15
 70
     1
102
RTVSPropertyOp16
 70
     1
102
RTVSPropertyOp17
 70
     1
102
RTVSPropertyOp18
 70
     1
102
RTVSPropertyOp19
 70
     1
102
RTVSPropertyOp20
 70
     1
102
RTVSPropertyOp21
 70
     1
102
RTVSPropertyOp22
 70
     1
102
RTVSPropertyOp23
 70
     1
102
RTVSPropertyOp24
 70
     1
102
RTVSPropertyOp25
 70
     1
102
RTVSPropertyOp26
 70
     1
102
RTVSPropertyOp27
 70
     1
102
RTVSPropertyOp28
 70
     1
102
RTVSPropertyOp29
 70
     1
102
RTVSPropertyOp30
 70
     1
102
RTVSPropertyOp31
 70
     1
102
RTVSPropertyOp32
 70
     1
  0
XRECORD
  5
19E
102
{ACAD_REACTORS
330
19D
102
}
330
19D
100
AcDbXrecord
280
     1
102
RTVSPropertyOp0
 70
     1
102
RTVSPropertyOp1
 70
     1
102
RTVSPropertyOp2
 70
     1
102
RTVSPropertyOp3
 70
     1
102
RTVSPropertyOp4
 70
     1
102
RTVSPropertyOp5
 70
     1
102
RTVSPropertyOp6
 70
     1
102
RTVSPropertyOp7
 70
     1
102
RTVSPropertyOp8
 70
     1
102
RTVSPropertyOp9
 70
     1
102
RTVSPropertyOp10
 70
     1
102
RTVSPropertyOp11
 70
     1
102
RTVSPropertyOp12
 70
     1
102
RTVSPropertyOp13
 70
     1
102
RTVSPropertyOp14
 70
     1
102
RTVSPropertyOp15
 70
     1
102
RTVSPropertyOp16
 70
     1
102
RTVSPropertyOp17
 70
     1
102
RTVSPropertyOp18
 70
     1
102
RTVSPropertyOp19
 70
     1
102
RTVSPropertyOp20
 70
     1
102
RTVSPropertyOp21
 70
     1
102
RTVSPropertyOp22
 70
     1
102
RTVSPropertyOp23
 70
     1
102
RTVSPropertyOp24
 70
     1
102
RTVSPropertyOp25
 70
     1
102
RTVSPropertyOp26
 70
     1
102
RTVSPropertyOp27
 70
     1
102
RTVSPropertyOp28
 70
     1
102
RTVSPropertyOp29
 70
     1
102
RTVSPropertyOp30
 70
     1
102
RTVSPropertyOp31
 70
     1
102
RTVSPropertyOp32
 70
     1
  0
XRECORD
  5
1A6
102
{ACAD_REACTORS
330
1A5
102
}
330
1A5
100
AcDbXrecord
280
     1
102
RTVSPropertyOp0
 70
     1
102
RTVSPropertyOp1
 70
     1
102
RTVSPropertyOp2
 70
     1
102
RTVSPropertyOp3
 70
     1
102
RTVSPropertyOp4
 70
     1
102
RTVSPropertyOp5
 70
     1
102
RTVSPropertyOp6
 70
     1
102
RTVSPropertyOp7
 70
     1
102
RTVSPropertyOp8
 70
     1
102
RTVSPropertyOp9
 70
     1
102
RTVSPropertyOp10
 70
     1
102
RTVSPropertyOp11
 70
     1
102
RTVSPropertyOp12
 70
     1
102
RTVSPropertyOp13
 70
     1
102
RTVSPropertyOp14
 70
     1
102
RTVSPropertyOp15
 70
     1
102
RTVSPropertyOp16
 70
     1
102
RTVSPropertyOp17
 70
     1
102
RTVSPropertyOp18
 70
     1
102
RTVSPropertyOp19
 70
     1
102
RTVSPropertyOp20
 70
     1
102
RTVSPropertyOp21
 70
     1
102
RTVSPropertyOp22
 70
     1
102
RTVSPropertyOp23
 70
     1
102
RTVSPropertyOp24
 70
     1
102
RTVSPropertyOp25
 70
     1
102
RTVSPropertyOp26
 70
     1
102
RTVSPropertyOp27
 70
     1
102
RTVSPropertyOp28
 70
     1
102
RTVSPropertyOp29
 70
     1
102
RTVSPropertyOp30
 70
     1
102
RTVSPropertyOp31
 70
     1
102
RTVSPropertyOp32
 70
     1
  0
ENDSEC
  0
EOF
