  0
SECTION
  2
HEADER
  9
$ACADVER
  1
AC1015
  9
$ACADMAINTVER
 70
     6
  9
$DWGCODEPAGE
  3
ANSI_1252
  9
$INSBASE
 10
0.0
 20
0.0
 30
0.0
  9
$EXTMIN
 10
0.0
 20
0.0
 30
0.0
  9
$EXTMAX
 10
594.0
 20
420.0
 30
0.0
  9
$LIMMIN
 10
0.0
 20
0.0
  9
$LIMMAX
 10
594.0
 20
420.0
  9
$ORTHOMODE
 70
     0
  9
$REGENMODE
 70
     1
  9
$FILLMODE
 70
     1
  9
$QTEXTMODE
 70
     0
  9
$MIRRTEXT
 70
     1
  9
$LTSCALE
 40
1.0
  9
$ATTMODE
 70
     1
  9
$TEXTSIZE
 40
2.5
  9
$TRACEWID
 40
1.0
  9
$TEXTSTYLE
  7
Standard
  9
$CLAYER
  8
0
  9
$CELTYPE
  6
ByLayer
  9
$CECOLOR
 62
   256
  9
$CELTSCALE
 40
1.0
  9
$DISPSILH
 70
     0
  9
$DIMSCALE
 40
1.0
  9
$DIMASZ
 40
2.5
  9
$DIMEXO
 40
0.625
  9
$DIMDLI
 40
3.75
  9
$DIMRND
 40
0.0
  9
$DIMDLE
 40
0.0
  9
$DIMEXE
 40
1.25
  9
$DIMTP
 40
0.0
  9
$DIMTM
 40
0.0
  9
$DIMTXT
 40
2.5
  9
$DIMCEN
 40
2.5
  9
$DIMTSZ
 40
0.0
  9
$DIMTOL
 70
     0
  9
$DIMLIM
 70
     0
  9
$DIMTIH
 70
     0
  9
$DIMTOH
 70
     0
  9
$DIMSE1
 70
     0
  9
$DIMSE2
 70
     0
  9
$DIMTAD
 70
     1
  9
$DIMZIN
 70
     8
  9
$DIMBLK
  1

  9
$DIMASO
 70
     1
  9
$DIMSHO
 70
     1
  9
$DIMPOST
  1

  9
$DIMAPOST
  1

  9
$DIMALT
 70
     0
  9
$DIMALTD
 70
     3
  9
$DIMALTF
 40
0.0393700787
  9
$DIMLFAC
 40
1.0
  9
$DIMTOFL
 70
     1
  9
$DIMTVP
 40
0.0
  9
$DIMTIX
 70
     0
  9
$DIMSOXD
 70
     0
  9
$DIMSAH
 70
     0
  9
$DIMBLK1
  1

  9
$DIMBLK2
  1

  9
$DIMSTYLE
  2
ISO-25
  9
$DIMCLRD
 70
     0
  9
$DIMCLRE
 70
     0
  9
$DIMCLRT
 70
     0
  9
$DIMTFAC
 40
1.0
  9
$DIMGAP
 40
0.625
  9
$DIMJUST
 70
     0
  9
$DIMSD1
 70
     0
  9
$DIMSD2
 70
     0
  9
$DIMTOLJ
 70
     0
  9
$DIMTZIN
 70
     8
  9
$DIMALTZ
 70
     0
  9
$DIMALTTZ
 70
     0
  9
$DIMUPT
 70
     0
  9
$DIMDEC
 70
     2
  9
$DIMTDEC
 70
     2
  9
$DIMALTU
 70
     2
  9
$DIMALTTD
 70
     3
  9
$DIMTXSTY
  7
Standard
  9
$DIMAUNIT
 70
     0
  9
$DIMADEC
 70
     0
  9
$DIMALTRND
 40
0.0
  9
$DIMAZIN
 70
     0
  9
$DIMDSEP
 70
    44
  9
$DIMATFIT
 70
     3
  9
$DIMFRAC
 70
     0
  9
$DIMLDRBLK
  1

  9
$DIMLUNIT
 70
     2
  9
$DIMLWD
 70
    -2
  9
$DIMLWE
 70
    -2
  9
$DIMTMOVE
 70
     0
  9
$LUNITS
 70
     2
  9
$LUPREC
 70
     4
  9
$SKETCHINC
 40
1.0
  9
$FILLETRAD
 40
10.0
  9
$AUNITS
 70
     0
  9
$AUPREC
 70
     0
  9
$MENU
  1
.
  9
$ELEVATION
 40
0.0
  9
$PELEVATION
 40
0.0
  9
$THICKNESS
 40
0.0
  9
$LIMCHECK
 70
     0
  9
$CHAMFERA
 40
10.0
  9
$CHAMFERB
 40
10.0
  9
$CHAMFERC
 40
20.0
  9
$CHAMFERD
 40
0.0
  9
$SKPOLY
 70
     0
  9
$TDCREATE
 40
2456821.920725498
  9
$TDUCREATE
 40
2456821.837392164
  9
$TDUPDATE
 40
2456821.920728067
  9
$TDUUPDATE
 40
2456821.837394734
  9
$TDINDWG
 40
0.0000000116
  9
$TDUSRTIMER
 40
0.0000000116
  9
$USRTIMER
 70
     1
  9
$ANGBASE
 50
0.0
  9
$ANGDIR
 70
     0
  9
$PDMODE
 70
     0
  9
$PDSIZE
 40
0.0
  9
$PLINEWID
 40
0.0
  9
$SPLFRAME
 70
     0
  9
$SPLINETYPE
 70
     6
  9
$SPLINESEGS
 70
     8
  9
$HANDSEED
  5
1A6
  9
$SURFTAB1
 70
     6
  9
$SURFTAB2
 70
     6
  9
$SURFTYPE
 70
     6
  9
$SURFU
 70
     6
  9
$SURFV
 70
     6
  9
$UCSBASE
  2

  9
$UCSNAME
  2

  9
$UCSORG
 10
0.0
 20
0.0
 30
0.0
  9
$UCSXDIR
 10
1.0
 20
0.0
 30
0.0
  9
$UCSYDIR
 10
0.0
 20
1.0
 30
0.0
  9
$UCSORTHOREF
  2

  9
$UCSORTHOVIEW
 70
     0
  9
$UCSORGTOP
 10
0.0
 20
0.0
 30
0.0
  9
$UCSORGBOTTOM
 10
0.0
 20
0.0
 30
0.0
  9
$UCSORGLEFT
 10
0.0
 20
0.0
 30
0.0
  9
$UCSORGRIGHT
 10
0.0
 20
0.0
 30
0.0
  9
$UCSORGFRONT
 10
0.0
 20
0.0
 30
0.0
  9
$UCSORGBACK
 10
0.0
 20
0.0
 30
0.0
  9
$PUCSBASE
  2

  9
$PUCSNAME
  2

  9
$PUCSORG
 10
0.0
 20
0.0
 30
0.0
  9
$PUCSXDIR
 10
1.0
 20
0.0
 30
0.0
  9
$PUCSYDIR
 10
0.0
 20
1.0
 30
0.0
  9
$PUCSORTHOREF
  2

  9
$PUCSORTHOVIEW
 70
     0
  9
$PUCSORGTOP
 10
0.0
 20
0.0
 30
0.0
  9
$PUCSORGBOTTOM
 10
0.0
 20
0.0
 30
0.0
  9
$PUCSORGLEFT
 10
0.0
 20
0.0
 30
0.0
  9
$PUCSORGRIGHT
 10
0.0
 20
0.0
 30
0.0
  9
$PUCSORGFRONT
 10
0.0
 20
0.0
 30
0.0
  9
$PUCSORGBACK
 10
0.0
 20
0.0
 30
0.0
  9
$USERI1
 70
     0
  9
$USERI2
 70
     0
  9
$USERI3
 70
     0
  9
$USERI4
 70
     0
  9
$USERI5
 70
     0
  9
$USERR1
 40
0.0
  9
$USERR2
 40
0.0
  9
$USERR3
 40
0.0
  9
$USERR4
 40
0.0
  9
$USERR5
 40
0.0
  9
$WORLDVIEW
 70
     1
  9
$SHADEDGE
 70
     3
  9
$SHADEDIF
 70
    70
  9
$TILEMODE
 70
     1
  9
$MAXACTVP
 70
    64
  9
$PINSBASE
 10
0.0
 20
0.0
 30
0.0
  9
$PLIMCHECK
 70
     0
  9
$PEXTMIN
 10
0.0
 20
0.0
 30
0.0
  9
$PEXTMAX
 10
594.0
 20
420.0
 30
0.0
  9
$PLIMMIN
 10
0.0
 20
0.0
  9
$PLIMMAX
 10
594.0
 20
420.0
  9
$UNITMODE
 70
     0
  9
$VISRETAIN
 70
     1
  9
$PLINEGEN
 70
     0
  9
$PSLTSCALE
 70
     1
  9
$TREEDEPTH
 70
  3020
  9
$CMLSTYLE
  2
Standard
  9
$CMLJUST
 70
     0
  9
$CMLSCALE
 40
20.0
  9
$PROXYGRAPHICS
 70
     1
  9
$MEASUREMENT
 70
     1
  9
$CELWEIGHT
370
    -1
  9
$ENDCAPS
280
     0
  9
$JOINSTYLE
280
     0
  9
$LWDISPLAY
290
     0
  9
$INSUNITS
 70
     4
  9
$HYPERLINKBASE
  1

  9
$STYLESHEET
  1

  9
$XEDIT
290
     1
  9
$CEPSNTYPE
380
     0
  9
$PSTYLEMODE
290
     1
  9
$FINGERPRINTGUID
  2
{F2F16BE7-BDC1-424D-ABA8-6647EF97787A}
  9
$VERSIONGUID
  2
{FAEB1C32-E019-11D5-929B-00C0DF256EC4}
  9
$EXTNAMES
290
     1
  9
$PSVPSCALE
 40
0.0
  9
$OLESTARTUP
290
     0
  0
ENDSEC
  0
SECTION
  2
CLASSES
  0
CLASS
  1
ACDBDICTIONARYWDFLT
  2
AcDbDictionaryWithDefault
  3
ObjectDBX Classes
 90
        0
280
     0
281
     0
  0
CLASS
  1
VISUALSTYLE
  2
AcDbVisualStyle
  3
ObjectDBX Classes
 90
     4095
280
     0
281
     0
  0
CLASS
  1
MATERIAL
  2
AcDbMaterial
  3
ObjectDBX Classes
 90
     1153
280
     0
281
     0
  0
CLASS
  1
DICTIONARYVAR
  2
AcDbDictionaryVar
  3
ObjectDBX Classes
 90
        0
280
     0
281
     0
  0
CLASS
  1
ACDBPLACEHOLDER
  2
AcDbPlaceHolder
  3
ObjectDBX Classes
 90
        0
280
     0
281
     0
  0
CLASS
  1
LAYOUT
  2
AcDbLayout
  3
ObjectDBX Classes
 90
        0
280
     0
281
     0
  0
ENDSEC
  0
SECTION
  2
TABLES
  0
TABLE
  2
VPORT
  5
8
330
0
100
AcDbSymbolTable
 70
     1
  0
VPORT
  5
29
330
8
100
AcDbSymbolTableRecord
100
AcDbViewportTableRecord
  2
*Active
 70
     0
 10
0.0
 20
0.0
 11
1.0
 21
1.0
 12
344.1869158879
 22
148.5
 13
0.0
 23
0.0
 14
10.0
 24
10.0
 15
10.0
 25
10.0
 16
0.0
 26
0.0
 36
1.0
 17
0.0
 27
0.0
 37
0.0
 40
297.0
 41
1.9729729729
 42
50.0
 43
0.0
 44
0.0
 50
0.0
 51
0.0
 71
     0
 72
   100
 73
     1
 74
     3
 75
     0
 76
     0
 77
     0
 78
     0
281
     0
 65
     1
110
0.0
120
0.0
130
0.0
111
1.0
121
0.0
131
0.0
112
0.0
122
1.0
132
0.0
 79
     0
146
0.0
  0
ENDTAB
  0
TABLE
  2
LTYPE
  5
5
330
0
100
AcDbSymbolTable
 70
     2
  0
LTYPE
  5
14
330
5
100
AcDbSymbolTableRecord
100
AcDbLinetypeTableRecord
  2
ByBlock
 70
     0
  3

 72
    65
 73
     0
 40
0.0
  0
LTYPE
  5
15
330
5
100
AcDbSymbolTableRecord
100
AcDbLinetypeTableRecord
  2
ByLayer
 70
     0
  3

 72
    65
 73
     0
 40
0.0
  0
LTYPE
  5
16
330
5
100
AcDbSymbolTableRecord
100
AcDbLinetypeTableRecord
  2
Continuous
 70
     0
  3
Solid line
 72
    65
 73
     0
 40
0.0
  0
LTYPE
  5
42
330
5
100
AcDbSymbolTableRecord
100
AcDbLinetypeTableRecord
  2
CENTER2
 70
     0
  3
Center (.5x) ___ _ ___ _ ___ _ ___ _ ___ _ ___
 72
    65
 73
     4
 40
28.575
 49
19.05
 74
     4
 75
     0
340
0
 46
0.0
 50
0.0
 44
0.0
 45
0.0
 49
-3.175
 74
     4
 75
     0
340
0
 46
0.0
 50
0.0
 44
0.0
 45
0.0
 49
3.175
 74
     4
 75
     0
340
0
 46
0.0
 50
0.0
 44
0.0
 45
0.0
 49
-3.175
 74
     4
 75
     0
340
0
 46
0.0
 50
0.0
 44
0.0
 45
0.0
  0
ENDTAB
  0
TABLE
  2
LAYER
  5
2
330
0
100
AcDbSymbolTable
 70
     5
  0
LAYER
  5
10
330
2
100
AcDbSymbolTableRecord
100
AcDbLayerTableRecord
  2
0
 70
     0
 62
     7
  6
Continuous
370
    -3
390
F
  0
LAYER
  5
3F
330
2
100
AcDbSymbolTableRecord
100
AcDbLayerTableRecord
  2
Maﬂe
 70
     0
 62
     7
  6
Continuous
370
    -3
390
F
  0
LAYER
  5
AF
330
2
100
AcDbSymbolTableRecord
100
AcDbLayerTableRecord
  2
Default
 70
     0
 62
     7
  6
Continuous
370
    -3
390
F
  0
LAYER
  5
B2
330
2
100
AcDbSymbolTableRecord
100
AcDbLayerTableRecord
  2
FRONT_3_US
 70
     0
 62
     7
  6
Continuous
370
    -3
390
F
  0
LAYER
  5
13C
330
2
100
AcDbSymbolTableRecord
100
AcDbLayerTableRecord
  2
Tiefe
 70
     0
 62
     7
  6
Continuous
370
    -3
390
F
  0
ENDTAB
  0
TABLE
  2
STYLE
  5
3
330
0
100
AcDbSymbolTable
 70
     3
  0
STYLE
  5
11
330
3
100
AcDbSymbolTableRecord
100
AcDbTextStyleTableRecord
  2
Standard
 70
     0
 40
0.0
 41
1.0
 50
0.0
 71
     0
 42
2.5
  3
txt
  4

  0
STYLE
  5
D5
330
3
100
AcDbSymbolTableRecord
100
AcDbTextStyleTableRecord
  2
SEACAD_Solid_Edge_ISO
 70
     0
 40
0.0
 41
1.0
 50
0.0
 71
     0
 42
0.2
  3
seiso.ttf
  4

1001
ACAD
1000
Solid Edge ISO
1071
        0
  0
STYLE
  5
10A
330
3
100
AcDbSymbolTableRecord
100
AcDbTextStyleTableRecord
  2
SEACAD_Solid_Edge_ISO1_Symbols
 70
     0
 40
0.0
 41
1.0
 50
0.0
 71
     0
 42
0.2
  3
semeci1.ttf
  4

1001
ACAD
1000
Solid Edge ISO1 Symbols
1071
        0
  0
ENDTAB
  0
TABLE
  2
VIEW
  5
6
330
0
100
AcDbSymbolTable
 70
     0
  0
ENDTAB
  0
TABLE
  2
UCS
  5
7
330
0
100
AcDbSymbolTable
 70
     0
  0
ENDTAB
  0
TABLE
  2
APPID
  5
9
330
0
100
AcDbSymbolTable
 70
     1
  0
APPID
  5
12
330
9
100
AcDbSymbolTableRecord
100
AcDbRegAppTableRecord
  2
ACAD
 70
     0
  0
ENDTAB
  0
TABLE
  2
DIMSTYLE
  5
A
330
0
100
AcDbSymbolTable
 70
     3
100
AcDbDimStyleTable
  0
DIMSTYLE
105
27
330
A
100
AcDbSymbolTableRecord
100
AcDbDimStyleTableRecord
  2
ISO-25
 70
     0
 41
2.5
 42
0.625
 43
3.75
 44
1.25
 73
     0
 74
     0
 77
     1
 78
     8
140
2.5
141
2.5
143
0.0393700787
147
0.625
171
     3
172
     1
178
     0
271
     2
272
     2
274
     3
278
    44
283
     0
284
     8
340
11
  0
DIMSTYLE
105
C3
330
A
100
AcDbSymbolTableRecord
100
AcDbDimStyleTableRecord
  2
Standard
 70
     0
178
     0
340
11
  0
DIMSTYLE
105
D6
102
{ACAD_REACTORS
330
D7
330
E1
330
EB
330
F5
330
FF
330
109
330
114
330
11E
330
128
330
132
330
15B
330
165
330
16F
102
}
330
A
100
AcDbSymbolTableRecord
100
AcDbDimStyleTableRecord
  2
ISO
 70
     0
 41
3.5
 42
0.0
 44
1.75
 73
     0
 74
     0
 77
     1
 78
     8
140
3.5
141
1.75
147
1.75
172
     1
173
     1
178
     0
271
     2
272
     2
278
    44
284
     8
340
D5
343
D0
344
D0
  0
ENDTAB
  0
TABLE
  2
BLOCK_RECORD
  5
1
330
0
100
AcDbSymbolTable
 70
    31
  0
BLOCK_RECORD
  5
1F
330
1
100
AcDbSymbolTableRecord
100
AcDbBlockTableRecord
  2
*Model_Space
340
22
  0
BLOCK_RECORD
  5
1B
330
1
100
AcDbSymbolTableRecord
100
AcDbBlockTableRecord
  2
*Paper_Space
340
1E
  0
BLOCK_RECORD
  5
40
330
1
100
AcDbSymbolTableRecord
100
AcDbBlockTableRecord
  2
SEANNOT_GROUP
340
0
102
{BLKREFS
331
41
102
}
  0
BLOCK_RECORD
  5
4B
330
1
100
AcDbSymbolTableRecord
100
AcDbBlockTableRecord
  2
SEANNOT_GROUP1
340
0
102
{BLKREFS
331
4C
102
}
  0
BLOCK_RECORD
  5
55
330
1
100
AcDbSymbolTableRecord
100
AcDbBlockTableRecord
  2
SEANNOT_GROUP2
340
0
102
{BLKREFS
331
56
102
}
  0
BLOCK_RECORD
  5
5F
330
1
100
AcDbSymbolTableRecord
100
AcDbBlockTableRecord
  2
SEANNOT_GROUP3
340
0
102
{BLKREFS
331
60
102
}
  0
BLOCK_RECORD
  5
69
330
1
100
AcDbSymbolTableRecord
100
AcDbBlockTableRecord
  2
SEANNOT_GROUP4
340
0
102
{BLKREFS
331
6A
102
}
  0
BLOCK_RECORD
  5
73
330
1
100
AcDbSymbolTableRecord
100
AcDbBlockTableRecord
  2
SEANNOT_GROUP5
340
0
102
{BLKREFS
331
74
102
}
  0
BLOCK_RECORD
  5
7D
330
1
100
AcDbSymbolTableRecord
100
AcDbBlockTableRecord
  2
SEANNOT_GROUP6
340
0
102
{BLKREFS
331
7E
102
}
  0
BLOCK_RECORD
  5
87
330
1
100
AcDbSymbolTableRecord
100
AcDbBlockTableRecord
  2
SEANNOT_GROUP7
340
0
102
{BLKREFS
331
88
102
}
  0
BLOCK_RECORD
  5
91
330
1
100
AcDbSymbolTableRecord
100
AcDbBlockTableRecord
  2
SEANNOT_GROUP8
340
0
102
{BLKREFS
331
92
102
}
  0
BLOCK_RECORD
  5
9B
330
1
100
AcDbSymbolTableRecord
100
AcDbBlockTableRecord
  2
SEANNOT_GROUP9
340
0
102
{BLKREFS
331
9C
102
}
  0
BLOCK_RECORD
  5
A5
330
1
100
AcDbSymbolTableRecord
100
AcDbBlockTableRecord
  2
SEANNOT_GROUP10
340
0
102
{BLKREFS
331
A6
102
}
  0
BLOCK_RECORD
  5
AA
330
1
100
AcDbSymbolTableRecord
100
AcDbBlockTableRecord
  2
SEANNOT_GROUP11
340
0
102
{BLKREFS
331
AB
102
}
  0
BLOCK_RECORD
  5
B0
330
1
100
AcDbSymbolTableRecord
100
AcDbBlockTableRecord
  2
SE
340
0
102
{BLKREFS
331
B1
102
}
  0
BLOCK_RECORD
  5
C4
330
1
100
AcDbSymbolTableRecord
100
AcDbBlockTableRecord
  2
_OBLIQUE
340
0
  0
BLOCK_RECORD
  5
C8
330
1
100
AcDbSymbolTableRecord
100
AcDbBlockTableRecord
  2
_DOT
340
0
  0
BLOCK_RECORD
  5
D0
330
1
100
AcDbSymbolTableRecord
100
AcDbBlockTableRecord
  2
_SE_FILLED
340
0
  0
BLOCK_RECORD
  5
D8
330
1
100
AcDbSymbolTableRecord
100
AcDbBlockTableRecord
  2
DMBLK68
340
0
  0
BLOCK_RECORD
  5
E2
330
1
100
AcDbSymbolTableRecord
100
AcDbBlockTableRecord
  2
DMBLK69
340
0
  0
BLOCK_RECORD
  5
EC
330
1
100
AcDbSymbolTableRecord
100
AcDbBlockTableRecord
  2
DMBLK70
340
0
  0
BLOCK_RECORD
  5
F6
330
1
100
AcDbSymbolTableRecord
100
AcDbBlockTableRecord
  2
DMBLK71
340
0
  0
BLOCK_RECORD
  5
100
330
1
100
AcDbSymbolTableRecord
100
AcDbBlockTableRecord
  2
DMBLK72
340
0
  0
BLOCK_RECORD
  5
10B
330
1
100
AcDbSymbolTableRecord
100
AcDbBlockTableRecord
  2
DMBLK73
340
0
  0
BLOCK_RECORD
  5
115
330
1
100
AcDbSymbolTableRecord
100
AcDbBlockTableRecord
  2
DMBLK74
340
0
  0
BLOCK_RECORD
  5
11F
330
1
100
AcDbSymbolTableRecord
100
AcDbBlockTableRecord
  2
DMBLK75
340
0
  0
BLOCK_RECORD
  5
129
330
1
100
AcDbSymbolTableRecord
100
AcDbBlockTableRecord
  2
DMBLK76
340
0
  0
BLOCK_RECORD
  5
133
330
1
100
AcDbSymbolTableRecord
100
AcDbBlockTableRecord
  2
DMBLK77
340
0
  0
BLOCK_RECORD
  5
13D
330
1
100
AcDbSymbolTableRecord
100
AcDbBlockTableRecord
  2
SE1
340
0
102
{BLKREFS
331
13E
102
}
  0
BLOCK_RECORD
  5
15C
330
1
100
AcDbSymbolTableRecord
100
AcDbBlockTableRecord
  2
DMBLK78
340
0
  0
BLOCK_RECORD
  5
166
330
1
100
AcDbSymbolTableRecord
100
AcDbBlockTableRecord
  2
DMBLK79
340
0
  0
BLOCK_RECORD
  5
170
330
1
100
AcDbSymbolTableRecord
100
AcDbBlockTableRecord
  2
DMBLK80
340
0
  0
ENDTAB
  0
ENDSEC
  0
SECTION
  2
BLOCKS
  0
BLOCK
  5
20
330
1F
100
AcDbEntity
  8
0
100
AcDbBlockBegin
  2
*Model_Space
 70
     0
 10
0.0
 20
0.0
 30
0.0
  3
*Model_Space
  1

  0
ENDBLK
  5
21
330
1F
100
AcDbEntity
  8
0
100
AcDbBlockEnd
  0
BLOCK
  5
1C
330
1B
100
AcDbEntity
 67
     1
  8
0
100
AcDbBlockBegin
  2
*Paper_Space
 70
     0
 10
0.0
 20
0.0
 30
0.0
  3
*Paper_Space
  1

  0
ENDBLK
  5
1D
330
1B
100
AcDbEntity
 67
     1
  8
0
100
AcDbBlockEnd
  0
BLOCK
  5
49
330
40
100
AcDbEntity
  8
0
100
AcDbBlockBegin
  2
SEANNOT_GROUP
 70
     0
 10
0.0
 20
0.0
 30
0.0
  3
SEANNOT_GROUP
  1

  0
LINE
  5
43
330
40
100
AcDbEntity
  8
Maﬂe
  6
CENTER2
 62
     7
100
AcDbLine
 10
168.3502279276
 20
168.3149284732
 30
0.0
 11
154.3502274955
 21
168.3149284732
 31
0.0
  0
LINE
  5
44
330
40
100
AcDbEntity
  8
Maﬂe
  6
CENTER2
 62
     7
100
AcDbLine
 10
161.3502277115
 20
175.3149286892
 30
0.0
 11
161.3502277115
 21
161.3149282571
 31
0.0
  0
LINE
  5
45
330
40
100
AcDbEntity
  8
Maﬂe
  6
CENTER2
 62
     7
100
AcDbLine
 10
170.1002279816
 20
168.3149284732
 30
0.0
 11
167.8502277115
 21
168.3149284732
 31
0.0
  0
LINE
  5
46
330
40
100
AcDbEntity
  8
Maﬂe
  6
CENTER2
 62
     7
100
AcDbLine
 10
161.3502277115
 20
177.0649287433
 30
0.0
 11
161.3502277115
 21
174.8149284732
 31
0.0
  0
LINE
  5
47
330
40
100
AcDbEntity
  8
Maﬂe
  6
CENTER2
 62
     7
100
AcDbLine
 10
152.6002274415
 20
168.3149284732
 30
0.0
 11
154.8502277115
 21
168.3149284732
 31
0.0
  0
LINE
  5
48
330
40
100
AcDbEntity
  8
Maﬂe
  6
CENTER2
 62
     7
100
AcDbLine
 10
161.3502277115
 20
159.5649282031
 30
0.0
 11
161.3502277115
 21
161.8149284732
 31
0.0
  0
ENDBLK
  5
4A
330
40
100
AcDbEntity
  8
0
100
AcDbBlockEnd
  0
BLOCK
  5
53
330
4B
100
AcDbEntity
  8
0
100
AcDbBlockBegin
  2
SEANNOT_GROUP1
 70
     0
 10
0.0
 20
0.0
 30
0.0
  3
SEANNOT_GROUP1
  1

  0
LINE
  5
4D
330
4B
100
AcDbEntity
  8
Maﬂe
  6
CENTER2
 62
     7
100
AcDbLine
 10
168.3502279276
 20
248.3149284732
 30
0.0
 11
154.3502274955
 21
248.3149284732
 31
0.0
  0
LINE
  5
4E
330
4B
100
AcDbEntity
  8
Maﬂe
  6
CENTER2
 62
     7
100
AcDbLine
 10
161.3502277115
 20
255.3149286892
 30
0.0
 11
161.3502277115
 21
241.3149282571
 31
0.0
  0
LINE
  5
4F
330
4B
100
AcDbEntity
  8
Maﬂe
  6
CENTER2
 62
     7
100
AcDbLine
 10
170.1002279816
 20
248.3149284732
 30
0.0
 11
167.8502277115
 21
248.3149284732
 31
0.0
  0
LINE
  5
50
330
4B
100
AcDbEntity
  8
Maﬂe
  6
CENTER2
 62
     7
100
AcDbLine
 10
161.3502277115
 20
257.0649287433
 30
0.0
 11
161.3502277115
 21
254.8149284732
 31
0.0
  0
LINE
  5
51
330
4B
100
AcDbEntity
  8
Maﬂe
  6
CENTER2
 62
     7
100
AcDbLine
 10
152.6002274415
 20
248.3149284732
 30
0.0
 11
154.8502277115
 21
248.3149284732
 31
0.0
  0
LINE
  5
52
330
4B
100
AcDbEntity
  8
Maﬂe
  6
CENTER2
 62
     7
100
AcDbLine
 10
161.3502277115
 20
239.5649282031
 30
0.0
 11
161.3502277115
 21
241.8149284732
 31
0.0
  0
ENDBLK
  5
54
330
4B
100
AcDbEntity
  8
0
100
AcDbBlockEnd
  0
BLOCK
  5
5D
330
55
100
AcDbEntity
  8
0
100
AcDbBlockBegin
  2
SEANNOT_GROUP2
 70
     0
 10
0.0
 20
0.0
 30
0.0
  3
SEANNOT_GROUP2
  1

  0
LINE
  5
57
330
55
100
AcDbEntity
  8
Maﬂe
  6
CENTER2
 62
     7
100
AcDbLine
 10
200.3502279276
 20
208.3149284732
 30
0.0
 11
186.3502274955
 21
208.3149284732
 31
0.0
  0
LINE
  5
58
330
55
100
AcDbEntity
  8
Maﬂe
  6
CENTER2
 62
     7
100
AcDbLine
 10
193.3502277115
 20
215.3149286892
 30
0.0
 11
193.3502277115
 21
201.3149282571
 31
0.0
  0
LINE
  5
59
330
55
100
AcDbEntity
  8
Maﬂe
  6
CENTER2
 62
     7
100
AcDbLine
 10
202.1002279816
 20
208.3149284732
 30
0.0
 11
204.8502277115
 21
208.3149284732
 31
0.0
  0
LINE
  5
5A
330
55
100
AcDbEntity
  8
Maﬂe
  6
CENTER2
 62
     7
100
AcDbLine
 10
193.3502277115
 20
217.0649287433
 30
0.0
 11
193.3502277115
 21
219.8149284732
 31
0.0
  0
LINE
  5
5B
330
55
100
AcDbEntity
  8
Maﬂe
  6
CENTER2
 62
     7
100
AcDbLine
 10
184.6002274415
 20
208.3149284732
 30
0.0
 11
181.8502277115
 21
208.3149284732
 31
0.0
  0
LINE
  5
5C
330
55
100
AcDbEntity
  8
Maﬂe
  6
CENTER2
 62
     7
100
AcDbLine
 10
193.3502277115
 20
199.5649282031
 30
0.0
 11
193.3502277115
 21
196.8149284732
 31
0.0
  0
ENDBLK
  5
5E
330
55
100
AcDbEntity
  8
0
100
AcDbBlockEnd
  0
BLOCK
  5
67
330
5F
100
AcDbEntity
  8
0
100
AcDbBlockBegin
  2
SEANNOT_GROUP3
 70
     0
 10
0.0
 20
0.0
 30
0.0
  3
SEANNOT_GROUP3
  1

  0
LINE
  5
61
330
5F
100
AcDbEntity
  8
Maﬂe
  6
CENTER2
 62
     7
100
AcDbLine
 10
226.3502279276
 20
208.3149284732
 30
0.0
 11
212.3502274955
 21
208.3149284732
 31
0.0
  0
LINE
  5
62
330
5F
100
AcDbEntity
  8
Maﬂe
  6
CENTER2
 62
     7
100
AcDbLine
 10
219.3502277115
 20
215.3149286892
 30
0.0
 11
219.3502277115
 21
201.3149282571
 31
0.0
  0
LINE
  5
63
330
5F
100
AcDbEntity
  8
Maﬂe
  6
CENTER2
 62
     7
100
AcDbLine
 10
228.1002279816
 20
208.3149284732
 30
0.0
 11
230.8502277115
 21
208.3149284732
 31
0.0
  0
LINE
  5
64
330
5F
100
AcDbEntity
  8
Maﬂe
  6
CENTER2
 62
     7
100
AcDbLine
 10
219.3502277115
 20
217.0649287433
 30
0.0
 11
219.3502277115
 21
219.8149284732
 31
0.0
  0
LINE
  5
65
330
5F
100
AcDbEntity
  8
Maﬂe
  6
CENTER2
 62
     7
100
AcDbLine
 10
210.6002274415
 20
208.3149284732
 30
0.0
 11
207.8502277115
 21
208.3149284732
 31
0.0
  0
LINE
  5
66
330
5F
100
AcDbEntity
  8
Maﬂe
  6
CENTER2
 62
     7
100
AcDbLine
 10
219.3502277115
 20
199.5649282031
 30
0.0
 11
219.3502277115
 21
196.8149284732
 31
0.0
  0
ENDBLK
  5
68
330
5F
100
AcDbEntity
  8
0
100
AcDbBlockEnd
  0
BLOCK
  5
71
330
69
100
AcDbEntity
  8
0
100
AcDbBlockBegin
  2
SEANNOT_GROUP4
 70
     0
 10
0.0
 20
0.0
 30
0.0
  3
SEANNOT_GROUP4
  1

  0
LINE
  5
6B
330
69
100
AcDbEntity
  8
Maﬂe
  6
CENTER2
 62
     7
100
AcDbLine
 10
285.3502279276
 20
208.3149284732
 30
0.0
 11
271.3502274955
 21
208.3149284732
 31
0.0
  0
LINE
  5
6C
330
69
100
AcDbEntity
  8
Maﬂe
  6
CENTER2
 62
     7
100
AcDbLine
 10
278.3502277115
 20
215.3149286892
 30
0.0
 11
278.3502277115
 21
201.3149282571
 31
0.0
  0
LINE
  5
6D
330
69
100
AcDbEntity
  8
Maﬂe
  6
CENTER2
 62
     7
100
AcDbLine
 10
287.1002279816
 20
208.3149284732
 30
0.0
 11
289.8502277115
 21
208.3149284732
 31
0.0
  0
LINE
  5
6E
330
69
100
AcDbEntity
  8
Maﬂe
  6
CENTER2
 62
     7
100
AcDbLine
 10
278.3502277115
 20
217.0649287433
 30
0.0
 11
278.3502277115
 21
219.8149284732
 31
0.0
  0
LINE
  5
6F
330
69
100
AcDbEntity
  8
Maﬂe
  6
CENTER2
 62
     7
100
AcDbLine
 10
269.6002274415
 20
208.3149284732
 30
0.0
 11
266.8502277115
 21
208.3149284732
 31
0.0
  0
LINE
  5
70
330
69
100
AcDbEntity
  8
Maﬂe
  6
CENTER2
 62
     7
100
AcDbLine
 10
278.3502277115
 20
199.5649282031
 30
0.0
 11
278.3502277115
 21
196.8149284732
 31
0.0
  0
ENDBLK
  5
72
330
69
100
AcDbEntity
  8
0
100
AcDbBlockEnd
  0
BLOCK
  5
7B
330
73
100
AcDbEntity
  8
0
100
AcDbBlockBegin
  2
SEANNOT_GROUP5
 70
     0
 10
0.0
 20
0.0
 30
0.0
  3
SEANNOT_GROUP5
  1

  0
LINE
  5
75
330
73
100
AcDbEntity
  8
Maﬂe
  6
CENTER2
 62
     7
100
AcDbLine
 10
311.3502279276
 20
208.3149284732
 30
0.0
 11
297.3502274955
 21
208.3149284732
 31
0.0
  0
LINE
  5
76
330
73
100
AcDbEntity
  8
Maﬂe
  6
CENTER2
 62
     7
100
AcDbLine
 10
304.3502277115
 20
215.3149286892
 30
0.0
 11
304.3502277115
 21
201.3149282571
 31
0.0
  0
LINE
  5
77
330
73
100
AcDbEntity
  8
Maﬂe
  6
CENTER2
 62
     7
100
AcDbLine
 10
313.1002279816
 20
208.3149284732
 30
0.0
 11
315.8502277115
 21
208.3149284732
 31
0.0
  0
LINE
  5
78
330
73
100
AcDbEntity
  8
Maﬂe
  6
CENTER2
 62
     7
100
AcDbLine
 10
304.3502277115
 20
217.0649287433
 30
0.0
 11
304.3502277115
 21
219.8149284732
 31
0.0
  0
LINE
  5
79
330
73
100
AcDbEntity
  8
Maﬂe
  6
CENTER2
 62
     7
100
AcDbLine
 10
295.6002274415
 20
208.3149284732
 30
0.0
 11
292.8502277115
 21
208.3149284732
 31
0.0
  0
LINE
  5
7A
330
73
100
AcDbEntity
  8
Maﬂe
  6
CENTER2
 62
     7
100
AcDbLine
 10
304.3502277115
 20
199.5649282031
 30
0.0
 11
304.3502277115
 21
196.8149284732
 31
0.0
  0
ENDBLK
  5
7C
330
73
100
AcDbEntity
  8
0
100
AcDbBlockEnd
  0
BLOCK
  5
85
330
7D
100
AcDbEntity
  8
0
100
AcDbBlockBegin
  2
SEANNOT_GROUP6
 70
     0
 10
0.0
 20
0.0
 30
0.0
  3
SEANNOT_GROUP6
  1

  0
LINE
  5
7F
330
7D
100
AcDbEntity
  8
Maﬂe
  6
CENTER2
 62
     7
100
AcDbLine
 10
370.3502279276
 20
208.3149284732
 30
0.0
 11
356.3502274955
 21
208.3149284732
 31
0.0
  0
LINE
  5
80
330
7D
100
AcDbEntity
  8
Maﬂe
  6
CENTER2
 62
     7
100
AcDbLine
 10
363.3502277115
 20
215.3149286892
 30
0.0
 11
363.3502277115
 21
201.3149282571
 31
0.0
  0
LINE
  5
81
330
7D
100
AcDbEntity
  8
Maﬂe
  6
CENTER2
 62
     7
100
AcDbLine
 10
372.1002279816
 20
208.3149284732
 30
0.0
 11
374.8502277115
 21
208.3149284732
 31
0.0
  0
LINE
  5
82
330
7D
100
AcDbEntity
  8
Maﬂe
  6
CENTER2
 62
     7
100
AcDbLine
 10
363.3502277115
 20
217.0649287433
 30
0.0
 11
363.3502277115
 21
219.8149284732
 31
0.0
  0
LINE
  5
83
330
7D
100
AcDbEntity
  8
Maﬂe
  6
CENTER2
 62
     7
100
AcDbLine
 10
354.6002274415
 20
208.3149284732
 30
0.0
 11
351.8502277115
 21
208.3149284732
 31
0.0
  0
LINE
  5
84
330
7D
100
AcDbEntity
  8
Maﬂe
  6
CENTER2
 62
     7
100
AcDbLine
 10
363.3502277115
 20
199.5649282031
 30
0.0
 11
363.3502277115
 21
196.8149284732
 31
0.0
  0
ENDBLK
  5
86
330
7D
100
AcDbEntity
  8
0
100
AcDbBlockEnd
  0
BLOCK
  5
8F
330
87
100
AcDbEntity
  8
0
100
AcDbBlockBegin
  2
SEANNOT_GROUP7
 70
     0
 10
0.0
 20
0.0
 30
0.0
  3
SEANNOT_GROUP7
  1

  0
LINE
  5
89
330
87
100
AcDbEntity
  8
Maﬂe
  6
CENTER2
 62
     7
100
AcDbLine
 10
396.3502279276
 20
208.3149284732
 30
0.0
 11
382.3502274955
 21
208.3149284732
 31
0.0
  0
LINE
  5
8A
330
87
100
AcDbEntity
  8
Maﬂe
  6
CENTER2
 62
     7
100
AcDbLine
 10
389.3502277115
 20
215.3149286892
 30
0.0
 11
389.3502277115
 21
201.3149282571
 31
0.0
  0
LINE
  5
8B
330
87
100
AcDbEntity
  8
Maﬂe
  6
CENTER2
 62
     7
100
AcDbLine
 10
398.1002279816
 20
208.3149284732
 30
0.0
 11
400.8502277115
 21
208.3149284732
 31
0.0
  0
LINE
  5
8C
330
87
100
AcDbEntity
  8
Maﬂe
  6
CENTER2
 62
     7
100
AcDbLine
 10
389.3502277115
 20
217.0649287433
 30
0.0
 11
389.3502277115
 21
219.8149284732
 31
0.0
  0
LINE
  5
8D
330
87
100
AcDbEntity
  8
Maﬂe
  6
CENTER2
 62
     7
100
AcDbLine
 10
380.6002274415
 20
208.3149284732
 30
0.0
 11
377.8502277115
 21
208.3149284732
 31
0.0
  0
LINE
  5
8E
330
87
100
AcDbEntity
  8
Maﬂe
  6
CENTER2
 62
     7
100
AcDbLine
 10
389.3502277115
 20
199.5649282031
 30
0.0
 11
389.3502277115
 21
196.8149284732
 31
0.0
  0
ENDBLK
  5
90
330
87
100
AcDbEntity
  8
0
100
AcDbBlockEnd
  0
BLOCK
  5
99
330
91
100
AcDbEntity
  8
0
100
AcDbBlockBegin
  2
SEANNOT_GROUP8
 70
     0
 10
0.0
 20
0.0
 30
0.0
  3
SEANNOT_GROUP8
  1

  0
LINE
  5
93
330
91
100
AcDbEntity
  8
Maﬂe
  6
CENTER2
 62
     7
100
AcDbLine
 10
428.3502279276
 20
168.3149284732
 30
0.0
 11
414.3502274955
 21
168.3149284732
 31
0.0
  0
LINE
  5
94
330
91
100
AcDbEntity
  8
Maﬂe
  6
CENTER2
 62
     7
100
AcDbLine
 10
421.3502277115
 20
175.3149286892
 30
0.0
 11
421.3502277115
 21
161.3149282571
 31
0.0
  0
LINE
  5
95
330
91
100
AcDbEntity
  8
Maﬂe
  6
CENTER2
 62
     7
100
AcDbLine
 10
430.1002279816
 20
168.3149284732
 30
0.0
 11
427.8502277115
 21
168.3149284732
 31
0.0
  0
LINE
  5
96
330
91
100
AcDbEntity
  8
Maﬂe
  6
CENTER2
 62
     7
100
AcDbLine
 10
421.3502277115
 20
177.0649287433
 30
0.0
 11
421.3502277115
 21
174.8149284732
 31
0.0
  0
LINE
  5
97
330
91
100
AcDbEntity
  8
Maﬂe
  6
CENTER2
 62
     7
100
AcDbLine
 10
412.6002274415
 20
168.3149284732
 30
0.0
 11
414.8502277115
 21
168.3149284732
 31
0.0
  0
LINE
  5
98
330
91
100
AcDbEntity
  8
Maﬂe
  6
CENTER2
 62
     7
100
AcDbLine
 10
421.3502277115
 20
159.5649282031
 30
0.0
 11
421.3502277115
 21
161.8149284732
 31
0.0
  0
ENDBLK
  5
9A
330
91
100
AcDbEntity
  8
0
100
AcDbBlockEnd
  0
BLOCK
  5
A3
330
9B
100
AcDbEntity
  8
0
100
AcDbBlockBegin
  2
SEANNOT_GROUP9
 70
     0
 10
0.0
 20
0.0
 30
0.0
  3
SEANNOT_GROUP9
  1

  0
LINE
  5
9D
330
9B
100
AcDbEntity
  8
Maﬂe
  6
CENTER2
 62
     7
100
AcDbLine
 10
428.3502279276
 20
248.3149284732
 30
0.0
 11
414.3502274955
 21
248.3149284732
 31
0.0
  0
LINE
  5
9E
330
9B
100
AcDbEntity
  8
Maﬂe
  6
CENTER2
 62
     7
100
AcDbLine
 10
421.3502277115
 20
255.3149286892
 30
0.0
 11
421.3502277115
 21
241.3149282571
 31
0.0
  0
LINE
  5
9F
330
9B
100
AcDbEntity
  8
Maﬂe
  6
CENTER2
 62
     7
100
AcDbLine
 10
430.1002279816
 20
248.3149284732
 30
0.0
 11
427.8502277115
 21
248.3149284732
 31
0.0
  0
LINE
  5
A0
330
9B
100
AcDbEntity
  8
Maﬂe
  6
CENTER2
 62
     7
100
AcDbLine
 10
421.3502277115
 20
257.0649287433
 30
0.0
 11
421.3502277115
 21
254.8149284732
 31
0.0
  0
LINE
  5
A1
330
9B
100
AcDbEntity
  8
Maﬂe
  6
CENTER2
 62
     7
100
AcDbLine
 10
412.6002274415
 20
248.3149284732
 30
0.0
 11
414.8502277115
 21
248.3149284732
 31
0.0
  0
LINE
  5
A2
330
9B
100
AcDbEntity
  8
Maﬂe
  6
CENTER2
 62
     7
100
AcDbLine
 10
421.3502277115
 20
239.5649282031
 30
0.0
 11
421.3502277115
 21
241.8149284732
 31
0.0
  0
ENDBLK
  5
A4
330
9B
100
AcDbEntity
  8
0
100
AcDbBlockEnd
  0
BLOCK
  5
A8
330
A5
100
AcDbEntity
  8
0
100
AcDbBlockBegin
  2
SEANNOT_GROUP10
 70
     0
 10
0.0
 20
0.0
 30
0.0
  3
SEANNOT_GROUP10
  1

  0
LINE
  5
A7
330
A5
100
AcDbEntity
  8
Maﬂe
  6
CENTER2
 62
     7
100
AcDbLine
 10
291.3502277115
 20
271.8149284732
 30
0.0
 11
291.3502277115
 21
144.8149284732
 31
0.0
  0
ENDBLK
  5
A9
330
A5
100
AcDbEntity
  8
0
100
AcDbBlockEnd
  0
BLOCK
  5
AD
330
AA
100
AcDbEntity
  8
0
100
AcDbBlockBegin
  2
SEANNOT_GROUP11
 70
     0
 10
0.0
 20
0.0
 30
0.0
  3
SEANNOT_GROUP11
  1

  0
LINE
  5
AC
330
AA
100
AcDbEntity
  8
Maﬂe
  6
CENTER2
 62
     7
100
AcDbLine
 10
444.8502277115
 20
208.3149284732
 30
0.0
 11
137.8502277115
 21
208.3149284732
 31
0.0
  0
ENDBLK
  5
AE
330
AA
100
AcDbEntity
  8
0
100
AcDbBlockEnd
  0
BLOCK
  5
C1
330
B0
100
AcDbEntity
  8
0
100
AcDbBlockBegin
  2
SE
 70
     0
 10
0.0
 20
0.0
 30
0.0
  3
SE
  1

  0
LINE
  5
B3
330
B0
100
AcDbEntity
  8
FRONT_3_US
  6
Continuous
 62
     7
100
AcDbLine
 10
141.3502277115
 20
148.3149284732
 30
0.0
 11
141.3502277115
 21
268.3149284732
 31
0.0
  0
LINE
  5
B4
330
B0
100
AcDbEntity
  8
FRONT_3_US
  6
Continuous
 62
     7
100
AcDbLine
 10
441.3502277115
 20
148.3149284732
 30
0.0
 11
141.3502277115
 21
148.3149284732
 31
0.0
  0
LINE
  5
B5
330
B0
100
AcDbEntity
  8
FRONT_3_US
  6
Continuous
 62
     7
100
AcDbLine
 10
441.3502277115
 20
268.3149284732
 30
0.0
 11
441.3502277115
 21
148.3149284732
 31
0.0
  0
LINE
  5
B6
330
B0
100
AcDbEntity
  8
FRONT_3_US
  6
Continuous
 62
     7
100
AcDbLine
 10
141.3502277115
 20
268.3149284732
 30
0.0
 11
441.3502277115
 21
268.3149284732
 31
0.0
  0
CIRCLE
  5
B7
330
B0
100
AcDbEntity
  8
FRONT_3_US
  6
Continuous
 62
     7
100
AcDbCircle
 10
421.3502277115
 20
168.3149284732
 30
0.0
 40
3.0
  0
CIRCLE
  5
B8
330
B0
100
AcDbEntity
  8
FRONT_3_US
  6
Continuous
 62
     7
100
AcDbCircle
 10
421.3502277115
 20
248.3149284732
 30
0.0
 40
3.0
  0
CIRCLE
  5
B9
330
B0
100
AcDbEntity
  8
FRONT_3_US
  6
Continuous
 62
     7
100
AcDbCircle
 10
161.3502277115
 20
248.3149284732
 30
0.0
 40
3.0
  0
CIRCLE
  5
BA
330
B0
100
AcDbEntity
  8
FRONT_3_US
  6
Continuous
 62
     7
100
AcDbCircle
 10
161.3502277115
 20
168.3149284732
 30
0.0
 40
3.0
  0
CIRCLE
  5
BB
330
B0
100
AcDbEntity
  8
FRONT_3_US
  6
Continuous
 62
     7
100
AcDbCircle
 10
193.3502277115
 20
208.3149284732
 30
0.0
 40
8.0
  0
CIRCLE
  5
BC
330
B0
100
AcDbEntity
  8
FRONT_3_US
  6
Continuous
 62
     7
100
AcDbCircle
 10
219.3502277115
 20
208.3149284732
 30
0.0
 40
8.0
  0
CIRCLE
  5
BD
330
B0
100
AcDbEntity
  8
FRONT_3_US
  6
Continuous
 62
     7
100
AcDbCircle
 10
278.3502277115
 20
208.3149284732
 30
0.0
 40
8.0
  0
CIRCLE
  5
BE
330
B0
100
AcDbEntity
  8
FRONT_3_US
  6
Continuous
 62
     7
100
AcDbCircle
 10
304.3502277115
 20
208.3149284732
 30
0.0
 40
8.0
  0
CIRCLE
  5
BF
330
B0
100
AcDbEntity
  8
FRONT_3_US
  6
Continuous
 62
     7
100
AcDbCircle
 10
363.3502277115
 20
208.3149284732
 30
0.0
 40
8.0
  0
CIRCLE
  5
C0
330
B0
100
AcDbEntity
  8
FRONT_3_US
  6
Continuous
 62
     7
100
AcDbCircle
 10
389.3502277115
 20
208.3149284732
 30
0.0
 40
8.0
  0
ENDBLK
  5
C2
330
B0
100
AcDbEntity
  8
0
100
AcDbBlockEnd
  0
BLOCK
  5
C5
330
C4
100
AcDbEntity
  8
0
100
AcDbBlockBegin
  2
_OBLIQUE
 70
     0
 10
0.0
 20
0.0
 30
0.0
  3
_OBLIQUE
  1

  0
LINE
  5
C7
330
C4
100
AcDbEntity
  8
0
  6
ByBlock
 62
     0
370
    -2
100
AcDbLine
 10
-0.5
 20
-0.5
 30
0.0
 11
0.5
 21
0.5
 31
0.0
  0
ENDBLK
  5
C6
330
C4
100
AcDbEntity
  8
0
100
AcDbBlockEnd
  0
BLOCK
  5
C9
330
C8
100
AcDbEntity
  8
0
100
AcDbBlockBegin
  2
_DOT
 70
     0
 10
0.0
 20
0.0
 30
0.0
  3
_DOT
  1

  0
POLYLINE
  5
CB
330
C8
100
AcDbEntity
  8
0
  6
ByBlock
 62
     0
100
AcDb2dPolyline
 66
     1
 10
0.0
 20
0.0
 30
0.0
 70
     1
 40
0.5
 41
0.5
  0
VERTEX
  5
CD
330
CB
100
AcDbEntity
  8
0
  6
ByBlock
 62
     0
100
AcDbVertex
100
AcDb2dVertex
 10
-0.25
 20
0.0
 30
0.0
 42
1.0
  0
VERTEX
  5
CE
330
CB
100
AcDbEntity
  8
0
  6
ByBlock
 62
     0
100
AcDbVertex
100
AcDb2dVertex
 10
0.25
 20
0.0
 30
0.0
 42
1.0
  0
SEQEND
  5
CF
330
CB
100
AcDbEntity
  8
0
  6
ByBlock
 62
     0
  0
LINE
  5
CC
330
C8
100
AcDbEntity
  8
0
  6
ByBlock
 62
     0
370
    -2
100
AcDbLine
 10
-0.5
 20
0.0
 30
0.0
 11
-1.0
 21
0.0
 31
0.0
  0
ENDBLK
  5
CA
330
C8
100
AcDbEntity
  8
0
100
AcDbBlockEnd
  0
BLOCK
  5
D3
330
D0
100
AcDbEntity
  8
0
100
AcDbBlockBegin
  2
_SE_FILLED
 70
     0
 10
0.0
 20
0.0
 30
0.0
  3
_SE_FILLED
  1

  0
SOLID
  5
D1
330
D0
100
AcDbEntity
  8
0
 62
     0
100
AcDbTrace
 10
0.0
 20
0.0
 30
0.0
 11
-1.0
 21
-0.1665
 31
0.0
 12
-1.0
 22
0.1665
 32
0.0
 13
0.0
 23
0.0
 33
0.0
  0
LINE
  5
D2
330
D0
100
AcDbEntity
  8
0
 62
     0
100
AcDbLine
 10
0.0
 20
0.0
 30
0.0
 11
-1.0
 21
0.0
 31
0.0
  0
ENDBLK
  5
D4
330
D0
100
AcDbEntity
  8
0
100
AcDbBlockEnd
  0
BLOCK
  5
DF
330
D8
100
AcDbEntity
  8
0
100
AcDbBlockBegin
  2
DMBLK68
 70
     0
 10
0.0
 20
0.0
 30
0.0
  3
DMBLK68
  1

  0
HATCH
  5
D9
330
D8
100
AcDbEntity
  8
Maﬂe
  6
Continuous
 62
     7
100
AcDbHatch
 10
0.0
 20
0.0
 30
0.0
210
0.0
220
0.0
230
1.0
  2
SOLID
 70
     1
 71
     0
 91
        1
 92
        1
 93
        3
 72
     1
 10
144.8502278195823
 20
286.3664982112832
 11
141.3502277115489
 21
285.7831648599442
 72
     1
 10
141.3502277115489
 20
285.7831648599442
 11
144.8502278195823
 21
285.1998315086053
 72
     1
 10
144.8502278195823
 20
285.1998315086053
 11
144.8502278195823
 21
286.3664982112832
 97
        0
 75
     0
 76
     1
 98
        0
  0
HATCH
  5
DA
330
D8
100
AcDbEntity
  8
Maﬂe
  6
Continuous
 62
     7
100
AcDbHatch
 10
0.0
 20
0.0
 30
0.0
210
0.0
220
0.0
230
1.0
  2
SOLID
 70
     1
 71
     0
 91
        1
 92
        1
 93
        3
 72
     1
 10
437.8502395244444
 20
286.3664982112832
 11
437.8502395244444
 21
285.1998315086053
 72
     1
 10
437.8502395244444
 20
285.1998315086053
 11
441.3502396324778
 21
285.7831648599442
 72
     1
 10
441.3502396324778
 20
285.7831648599442
 11
437.8502395244444
 21
286.3664982112832
 97
        0
 75
     0
 76
     1
 98
        0
  0
LINE
  5
DB
330
D8
100
AcDbEntity
  8
Maﬂe
  6
Continuous
 62
     7
100
AcDbLine
 10
141.3502277115
 20
268.3149284732
 30
0.0
 11
141.3502277115
 21
287.533164914
 31
0.0
  0
LINE
  5
DC
330
D8
100
AcDbEntity
  8
Maﬂe
  6
Continuous
 62
     7
100
AcDbLine
 10
441.3502277115
 20
268.3149284732
 30
0.0
 11
441.3502277115
 21
287.533164914
 31
0.0
  0
LINE
  5
DD
330
D8
100
AcDbEntity
  8
Maﬂe
  6
Continuous
 62
     7
100
AcDbLine
 10
141.3502277115
 20
285.7831648599
 30
0.0
 11
441.3502396325
 21
285.7831648599
 31
0.0
  0
TEXT
  5
DE
330
D8
100
AcDbEntity
  8
Maﬂe
  6
Continuous
 62
     7
100
AcDbText
 10
288.3672791266
 20
286.6581648599
 30
0.0
 40
3.5
  1
300
  7
SEACAD_Solid_Edge_ISO
 11
288.3672791266
 21
290.1581648599
 31
0.0
100
AcDbText
 73
     3
  0
ENDBLK
  5
E0
330
D8
100
AcDbEntity
  8
0
100
AcDbBlockEnd
  0
BLOCK
  5
E9
330
E2
100
AcDbEntity
  8
0
100
AcDbBlockBegin
  2
DMBLK69
 70
     0
 10
0.0
 20
0.0
 30
0.0
  3
DMBLK69
  1

  0
HATCH
  5
E3
330
E2
100
AcDbEntity
  8
Maﬂe
  6
Continuous
 62
     7
100
AcDbHatch
 10
0.0
 20
0.0
 30
0.0
210
0.0
220
0.0
230
1.0
  2
SOLID
 70
     1
 71
     0
 91
        1
 92
        1
 93
        3
 72
     1
 10
113.5701592165484
 20
151.8149285812017
 11
114.1534925678873
 21
148.3149284731683
 72
     1
 10
114.1534925678873
 20
148.3149284731683
 11
114.7368259192262
 21
151.8149285812017
 72
     1
 10
114.7368259192262
 20
151.8149285812017
 11
113.5701592165484
 21
151.8149285812017
 97
        0
 75
     0
 76
     1
 98
        0
  0
HATCH
  5
E4
330
E2
100
AcDbEntity
  8
Maﬂe
  6
Continuous
 62
     7
100
AcDbHatch
 10
0.0
 20
0.0
 30
0.0
210
0.0
220
0.0
230
1.0
  2
SOLID
 70
     1
 71
     0
 91
        1
 92
        1
 93
        3
 72
     1
 10
113.5701592165484
 20
264.8149256829259
 11
114.7368259192262
 21
264.8149256829259
 72
     1
 10
114.7368259192262
 20
264.8149256829259
 11
114.1534925678873
 21
268.3149257909593
 72
     1
 10
114.1534925678873
 20
268.3149257909593
 11
113.5701592165484
 21
264.8149256829259
 97
        0
 75
     0
 76
     1
 98
        0
  0
LINE
  5
E5
330
E2
100
AcDbEntity
  8
Maﬂe
  6
Continuous
 62
     7
100
AcDbLine
 10
141.3502277115
 20
148.3149284732
 30
0.0
 11
112.4034925139
 21
148.3149284732
 31
0.0
  0
LINE
  5
E6
330
E2
100
AcDbEntity
  8
Maﬂe
  6
Continuous
 62
     7
100
AcDbLine
 10
141.3502277115
 20
268.3149284732
 30
0.0
 11
112.4034925139
 21
268.3149284732
 31
0.0
  0
LINE
  5
E7
330
E2
100
AcDbEntity
  8
Maﬂe
  6
Continuous
 62
     7
100
AcDbLine
 10
114.1534925679
 20
148.3149284732
 30
0.0
 11
114.1534925679
 21
268.314925791
 31
0.0
  0
TEXT
  5
E8
330
E2
100
AcDbEntity
  8
Maﬂe
  6
Continuous
 62
     7
100
AcDbText
 10
113.2784925679
 20
205.4910634957
 30
0.0
 40
3.5
  1
120
 50
90.0
  7
SEACAD_Solid_Edge_ISO
 11
109.7784925679
 21
205.4910634957
 31
0.0
100
AcDbText
 73
     3
  0
ENDBLK
  5
EA
330
E2
100
AcDbEntity
  8
0
100
AcDbBlockEnd
  0
BLOCK
  5
F3
330
EC
100
AcDbEntity
  8
0
100
AcDbBlockBegin
  2
DMBLK70
 70
     0
 10
0.0
 20
0.0
 30
0.0
  3
DMBLK70
  1

  0
HATCH
  5
ED
330
EC
100
AcDbEntity
  8
Maﬂe
  6
Continuous
 62
     7
100
AcDbHatch
 10
0.0
 20
0.0
 30
0.0
210
0.0
220
0.0
230
1.0
  2
SOLID
 70
     1
 71
     0
 91
        1
 92
        1
 93
        3
 72
     1
 10
157.8502276035154
 20
138.6895243903087
 11
161.3502277115488
 21
139.2728577416476
 72
     1
 10
161.3502277115488
 20
139.2728577416476
 11
157.8502276035154
 21
139.8561910929865
 72
     1
 10
157.8502276035154
 20
139.8561910929865
 11
157.8502276035154
 21
138.6895243903087
 97
        0
 75
     0
 76
     1
 98
        0
  0
HATCH
  5
EE
330
EC
100
AcDbEntity
  8
Maﬂe
  6
Continuous
 62
     7
100
AcDbHatch
 10
0.0
 20
0.0
 30
0.0
210
0.0
220
0.0
230
1.0
  2
SOLID
 70
     1
 71
     0
 91
        1
 92
        1
 93
        3
 72
     1
 10
144.8502282666171
 20
138.6895243903087
 11
144.8502282666171
 21
139.8561910929865
 72
     1
 10
144.8502282666171
 20
139.8561910929865
 11
141.3502281585837
 21
139.2728577416476
 72
     1
 10
141.3502281585837
 20
139.2728577416476
 11
144.8502282666171
 21
138.6895243903087
 97
        0
 75
     0
 76
     1
 98
        0
  0
LINE
  5
EF
330
EC
100
AcDbEntity
  8
Maﬂe
  6
Continuous
 62
     7
100
AcDbLine
 10
161.3502277115
 20
168.3149284732
 30
0.0
 11
161.3502277115
 21
137.5228576876
 31
0.0
  0
LINE
  5
F0
330
EC
100
AcDbEntity
  8
Maﬂe
  6
Continuous
 62
     7
100
AcDbLine
 10
141.3502277115
 20
148.3149284732
 30
0.0
 11
141.3502277115
 21
137.5228576876
 31
0.0
  0
LINE
  5
F1
330
EC
100
AcDbEntity
  8
Maﬂe
  6
Continuous
 62
     7
100
AcDbLine
 10
161.3502277115
 20
139.2728577416
 30
0.0
 11
141.3502281586
 21
139.2728577416
 31
0.0
  0
TEXT
  5
F2
330
EC
100
AcDbEntity
  8
Maﬂe
  6
Continuous
 62
     7
100
AcDbText
 10
149.2422733896
 20
140.1478577416
 30
0.0
 40
3.5
  1
20
  7
SEACAD_Solid_Edge_ISO
 11
149.2422733896
 21
143.6478577416
 31
0.0
100
AcDbText
 73
     3
  0
ENDBLK
  5
F4
330
EC
100
AcDbEntity
  8
0
100
AcDbBlockEnd
  0
BLOCK
  5
FD
330
F6
100
AcDbEntity
  8
0
100
AcDbBlockBegin
  2
DMBLK71
 70
     0
 10
0.0
 20
0.0
 30
0.0
  3
DMBLK71
  1

  0
HATCH
  5
F7
330
F6
100
AcDbEntity
  8
Maﬂe
  6
Continuous
 62
     7
100
AcDbHatch
 10
0.0
 20
0.0
 30
0.0
210
0.0
220
0.0
230
1.0
  2
SOLID
 70
     1
 71
     0
 91
        1
 92
        1
 93
        3
 72
     1
 10
189.8502276035154
 20
128.450279914348
 11
193.3502277115488
 21
129.0336132656869
 72
     1
 10
193.3502277115488
 20
129.0336132656869
 11
189.8502276035154
 21
129.6169466170258
 72
     1
 10
189.8502276035154
 20
129.6169466170258
 11
189.8502276035154
 21
128.450279914348
 97
        0
 75
     0
 76
     1
 98
        0
  0
HATCH
  5
F8
330
F6
100
AcDbEntity
  8
Maﬂe
  6
Continuous
 62
     7
100
AcDbHatch
 10
0.0
 20
0.0
 30
0.0
210
0.0
220
0.0
230
1.0
  2
SOLID
 70
     1
 71
     0
 91
        1
 92
        1
 93
        3
 72
     1
 10
144.8502267466986
 20
128.450279914348
 11
144.8502267466986
 21
129.6169466170258
 72
     1
 10
144.8502267466986
 20
129.6169466170258
 11
141.3502266386652
 21
129.0336132656869
 72
     1
 10
141.3502266386652
 20
129.0336132656869
 11
144.8502267466986
 21
128.450279914348
 97
        0
 75
     0
 76
     1
 98
        0
  0
LINE
  5
F9
330
F6
100
AcDbEntity
  8
Maﬂe
  6
Continuous
 62
     7
100
AcDbLine
 10
193.3502277115
 20
208.3149284732
 30
0.0
 11
193.3502277115
 21
127.2836132117
 31
0.0
  0
LINE
  5
FA
330
F6
100
AcDbEntity
  8
Maﬂe
  6
Continuous
 62
     7
100
AcDbLine
 10
141.3502277115
 20
148.3149284732
 30
0.0
 11
141.3502277115
 21
127.2836132117
 31
0.0
  0
LINE
  5
FB
330
F6
100
AcDbEntity
  8
Maﬂe
  6
Continuous
 62
     7
100
AcDbLine
 10
193.3502277115
 20
129.0336132657
 30
0.0
 11
141.3502266387
 21
129.0336132657
 31
0.0
  0
TEXT
  5
FC
330
F6
100
AcDbEntity
  8
Maﬂe
  6
Continuous
 62
     7
100
AcDbText
 10
165.2820453569
 20
129.9086132657
 30
0.0
 40
3.5
  1
52
  7
SEACAD_Solid_Edge_ISO
 11
165.2820453569
 21
133.4086132657
 31
0.0
100
AcDbText
 73
     3
  0
ENDBLK
  5
FE
330
F6
100
AcDbEntity
  8
0
100
AcDbBlockEnd
  0
BLOCK
  5
107
330
100
100
AcDbEntity
  8
0
100
AcDbBlockBegin
  2
DMBLK72
 70
     0
 10
0.0
 20
0.0
 30
0.0
  3
DMBLK72
  1

  0
HATCH
  5
101
330
100
100
AcDbEntity
  8
Maﬂe
  6
Continuous
 62
     7
100
AcDbHatch
 10
0.0
 20
0.0
 30
0.0
210
0.0
220
0.0
230
1.0
  2
SOLID
 70
     1
 71
     0
 91
        1
 92
        1
 93
        3
 72
     1
 10
281.8502278195822
 20
185.7260371079134
 11
281.8502278195822
 21
186.8927038105911
 72
     1
 10
281.8502278195822
 20
186.8927038105911
 11
278.3502277115488
 21
186.3093704592522
 72
     1
 10
278.3502277115488
 20
186.3093704592522
 11
281.8502278195822
 21
185.7260371079134
 97
        0
 75
     0
 76
     1
 98
        0
  0
HATCH
  5
102
330
100
100
AcDbEntity
  8
Maﬂe
  6
Continuous
 62
     7
100
AcDbHatch
 10
0.0
 20
0.0
 30
0.0
210
0.0
220
0.0
230
1.0
  2
SOLID
 70
     1
 71
     0
 91
        1
 92
        1
 93
        3
 72
     1
 10
300.8502281399572
 20
185.7260371079134
 11
304.3502282479906
 21
186.3093704592522
 72
     1
 10
304.3502282479906
 20
186.3093704592522
 11
300.8502281399572
 21
186.8927038105911
 72
     1
 10
300.8502281399572
 20
186.8927038105911
 11
300.8502281399572
 21
185.7260371079134
 97
        0
 75
     0
 76
     1
 98
        0
  0
LINE
  5
103
330
100
100
AcDbEntity
  8
Maﬂe
  6
Continuous
 62
     7
100
AcDbLine
 10
278.3502277115
 20
208.3149284732
 30
0.0
 11
278.3502277115
 21
184.5593704052
 31
0.0
  0
LINE
  5
104
330
100
100
AcDbEntity
  8
Maﬂe
  6
Continuous
 62
     7
100
AcDbLine
 10
304.3502277115
 20
208.3149284732
 30
0.0
 11
304.3502277115
 21
184.5593704052
 31
0.0
  0
LINE
  5
105
330
100
100
AcDbEntity
  8
Maﬂe
  6
Continuous
 62
     7
100
AcDbLine
 10
278.3502277115
 20
186.3093704593
 30
0.0
 11
304.350228248
 21
186.3093704593
 31
0.0
  0
TEXT
  5
106
330
100
100
AcDbEntity
  8
Maﬂe
  6
Continuous
 62
     7
100
AcDbText
 10
284.0825362266
 20
187.1843704593
 30
0.0
 40
3.5
  1
26
  7
SEACAD_Solid_Edge_ISO
 11
284.0825362266
 21
190.6843704593
 31
0.0
100
AcDbText
 73
     3
  0
ENDBLK
  5
108
330
100
100
AcDbEntity
  8
0
100
AcDbBlockEnd
  0
BLOCK
  5
112
330
10B
100
AcDbEntity
  8
0
100
AcDbBlockBegin
  2
DMBLK73
 70
     0
 10
0.0
 20
0.0
 30
0.0
  3
DMBLK73
  1

  0
LINE
  5
10C
330
10B
100
AcDbEntity
  8
Maﬂe
  6
Continuous
 62
     7
100
AcDbLine
 10
298.5031082779
 20
202.8549656227
 30
0.0
 11
310.1973477007
 21
213.7748918423
 31
0.0
  0
LINE
  5
10D
330
10B
100
AcDbEntity
  8
Maﬂe
  6
Continuous
 62
     7
100
AcDbLine
 10
310.1973471452
 20
213.7748913236
 30
0.0
 11
323.4985111096
 21
226.1953424428
 31
0.0
  0
HATCH
  5
10E
330
10B
100
AcDbEntity
  8
Maﬂe
  6
Continuous
 62
     7
100
AcDbHatch
 10
0.0
 20
0.0
 30
0.0
210
0.0
220
0.0
230
1.0
  2
SOLID
 70
     1
 71
     0
 91
        1
 92
        1
 93
        3
 72
     1
 10
300.6631008056084
 20
205.6700519153733
 11
298.5031082778921
 21
202.8549656226945
 72
     1
 10
298.5031082778921
 20
202.8549656226945
 11
301.4593454125466
 21
204.8173469716448
 72
     1
 10
301.4593454125466
 20
204.8173469716448
 11
300.6631008056084
 21
205.6700519153733
 97
        0
 75
     0
 76
     1
 98
        0
  0
HATCH
  5
10F
330
10B
100
AcDbEntity
  8
Maﬂe
  6
Continuous
 62
     7
100
AcDbHatch
 10
0.0
 20
0.0
 30
0.0
210
0.0
220
0.0
230
1.0
  2
SOLID
 70
     1
 71
     0
 91
        1
 92
        1
 93
        3
 72
     1
 10
307.2411100105512
 20
211.8125099746917
 11
308.0373546174893
 21
210.9598050309632
 72
     1
 10
308.0373546174893
 20
210.9598050309632
 11
310.1973471452056
 21
213.774891323642
 72
     1
 10
310.1973471452056
 20
213.7748913236421
 11
307.2411100105512
 21
211.8125099746917
 97
        0
 75
     0
 76
     1
 98
        0
  0
TEXT
  5
110
330
10B
100
AcDbEntity
  8
Maﬂe
  6
Continuous
 62
     7
100
AcDbText
 10
315.0063089315
 20
219.4626069723
 30
0.0
 40
3.5
  1
O
 50
43.0389480736
  7
SEACAD_Solid_Edge_ISO1_Symbols
 11
312.6175751844
 21
222.0207217245
 31
0.0
100
AcDbText
 73
     3
  0
TEXT
  5
111
330
10B
100
AcDbEntity
  8
Maﬂe
  6
Continuous
 62
     7
100
AcDbText
 10
319.3897335113
 20
223.5557909127
 30
0.0
 40
3.5
  1
16
 50
43.0389480736
  7
SEACAD_Solid_Edge_ISO
 11
317.0009997642
 21
226.1139056649
 31
0.0
100
AcDbText
 73
     3
  0
ENDBLK
  5
113
330
10B
100
AcDbEntity
  8
0
100
AcDbBlockEnd
  0
BLOCK
  5
11C
330
115
100
AcDbEntity
  8
0
100
AcDbBlockBegin
  2
DMBLK74
 70
     0
 10
0.0
 20
0.0
 30
0.0
  3
DMBLK74
  1

  0
HATCH
  5
116
330
115
100
AcDbEntity
  8
Maﬂe
  6
Continuous
 62
     7
100
AcDbHatch
 10
0.0
 20
0.0
 30
0.0
210
0.0
220
0.0
230
1.0
  2
SOLID
 70
     1
 71
     0
 91
        1
 92
        1
 93
        3
 72
     1
 10
451.2814036221062
 20
164.8149283651348
 11
450.6980702707672
 21
168.3149284731683
 72
     1
 10
450.6980702707672
 20
168.3149284731683
 11
450.1147369194283
 21
164.8149283651348
 72
     1
 10
450.1147369194283
 20
164.8149283651348
 11
451.2814036221062
 21
164.8149283651348
 97
        0
 75
     0
 76
     1
 98
        0
  0
HATCH
  5
117
330
115
100
AcDbEntity
  8
Maﬂe
  6
Continuous
 62
     7
100
AcDbHatch
 10
0.0
 20
0.0
 30
0.0
210
0.0
220
0.0
230
1.0
  2
SOLID
 70
     1
 71
     0
 91
        1
 92
        1
 93
        3
 72
     1
 10
451.2814036221062
 20
151.8149290282365
 11
450.1147369194283
 21
151.8149290282365
 72
     1
 10
450.1147369194283
 20
151.8149290282365
 11
450.6980702707672
 21
148.3149289202031
 72
     1
 10
450.6980702707672
 20
148.3149289202031
 11
451.2814036221062
 21
151.8149290282365
 97
        0
 75
     0
 76
     1
 98
        0
  0
LINE
  5
118
330
115
100
AcDbEntity
  8
Maﬂe
  6
Continuous
 62
     7
100
AcDbLine
 10
421.3502277115
 20
168.3149284732
 30
0.0
 11
452.4480703248
 21
168.3149284732
 31
0.0
  0
LINE
  5
119
330
115
100
AcDbEntity
  8
Maﬂe
  6
Continuous
 62
     7
100
AcDbLine
 10
441.3502277115
 20
148.3149284732
 30
0.0
 11
452.4480703248
 21
148.3149284732
 31
0.0
  0
LINE
  5
11A
330
115
100
AcDbEntity
  8
Maﬂe
  6
Continuous
 62
     7
100
AcDbLine
 10
450.6980702708
 20
168.3149284732
 30
0.0
 11
450.6980702708
 21
148.3149289202
 31
0.0
  0
TEXT
  5
11B
330
115
100
AcDbEntity
  8
Maﬂe
  6
Continuous
 62
     7
100
AcDbText
 10
449.8230702708
 20
156.2069741512
 30
0.0
 40
3.5
  1
20
 50
90.0
  7
SEACAD_Solid_Edge_ISO
 11
446.3230702708
 21
156.2069741512
 31
0.0
100
AcDbText
 73
     3
  0
ENDBLK
  5
11D
330
115
100
AcDbEntity
  8
0
100
AcDbBlockEnd
  0
BLOCK
  5
126
330
11F
100
AcDbEntity
  8
0
100
AcDbBlockBegin
  2
DMBLK75
 70
     0
 10
0.0
 20
0.0
 30
0.0
  3
DMBLK75
  1

  0
HATCH
  5
120
330
11F
100
AcDbEntity
  8
Maﬂe
  6
Continuous
 62
     7
100
AcDbHatch
 10
0.0
 20
0.0
 30
0.0
210
0.0
220
0.0
230
1.0
  2
SOLID
 70
     1
 71
     0
 91
        1
 92
        1
 93
        3
 72
     1
 10
460.2407413483415
 20
204.8149283651348
 11
459.6574079970026
 21
208.3149284731683
 72
     1
 10
459.6574079970026
 20
208.3149284731683
 11
459.0740746456637
 21
204.8149283651348
 72
     1
 10
459.0740746456637
 20
204.8149283651348
 11
460.2407413483415
 21
204.8149283651348
 97
        0
 75
     0
 76
     1
 98
        0
  0
HATCH
  5
121
330
11F
100
AcDbEntity
  8
Maﬂe
  6
Continuous
 62
     7
100
AcDbHatch
 10
0.0
 20
0.0
 30
0.0
210
0.0
220
0.0
230
1.0
  2
SOLID
 70
     1
 71
     0
 91
        1
 92
        1
 93
        3
 72
     1
 10
460.2407413483415
 20
151.8149299223062
 11
459.0740746456637
 21
151.8149299223062
 72
     1
 10
459.0740746456637
 20
151.8149299223062
 11
459.6574079970026
 21
148.3149298142728
 72
     1
 10
459.6574079970026
 20
148.3149298142728
 11
460.2407413483415
 21
151.8149299223062
 97
        0
 75
     0
 76
     1
 98
        0
  0
LINE
  5
122
330
11F
100
AcDbEntity
  8
Maﬂe
  6
Continuous
 62
     7
100
AcDbLine
 10
389.3502277115
 20
208.3149284732
 30
0.0
 11
461.407408051
 21
208.3149284732
 31
0.0
  0
LINE
  5
123
330
11F
100
AcDbEntity
  8
Maﬂe
  6
Continuous
 62
     7
100
AcDbLine
 10
441.3502277115
 20
148.3149284732
 30
0.0
 11
461.407408051
 21
148.3149284732
 31
0.0
  0
LINE
  5
124
330
11F
100
AcDbEntity
  8
Maﬂe
  6
Continuous
 62
     7
100
AcDbLine
 10
459.657407997
 20
208.3149284732
 30
0.0
 11
459.657407997
 21
148.3149298143
 31
0.0
  0
TEXT
  5
125
330
11F
100
AcDbEntity
  8
Maﬂe
  6
Continuous
 62
     7
100
AcDbText
 10
458.782407997
 20
176.2069745983
 30
0.0
 40
3.5
  1
60
 50
90.0
  7
SEACAD_Solid_Edge_ISO
 11
455.282407997
 21
176.2069745983
 31
0.0
100
AcDbText
 73
     3
  0
ENDBLK
  5
127
330
11F
100
AcDbEntity
  8
0
100
AcDbBlockEnd
  0
BLOCK
  5
130
330
129
100
AcDbEntity
  8
0
100
AcDbBlockBegin
  2
DMBLK76
 70
     0
 10
0.0
 20
0.0
 30
0.0
  3
DMBLK76
  1

  0
HATCH
  5
12A
330
129
100
AcDbEntity
  8
Maﬂe
  6
Continuous
 62
     7
100
AcDbHatch
 10
0.0
 20
0.0
 30
0.0
210
0.0
220
0.0
230
1.0
  2
SOLID
 70
     1
 71
     0
 91
        1
 92
        1
 93
        3
 72
     1
 10
451.9213563413177
 20
251.8149285812017
 11
450.7546896386399
 21
251.8149285812017
 72
     1
 10
450.7546896386399
 20
251.8149285812017
 11
451.3380229899788
 21
248.3149284731683
 72
     1
 10
451.3380229899788
 20
248.3149284731683
 11
451.9213563413177
 21
251.8149285812017
 97
        0
 75
     0
 76
     1
 98
        0
  0
HATCH
  5
12B
330
129
100
AcDbEntity
  8
Maﬂe
  6
Continuous
 62
     7
100
AcDbHatch
 10
0.0
 20
0.0
 30
0.0
210
0.0
220
0.0
230
1.0
  2
SOLID
 70
     1
 71
     0
 91
        1
 92
        1
 93
        3
 72
     1
 10
451.9213563413177
 20
264.8149279181
 11
451.3380229899788
 21
268.3149280261334
 72
     1
 10
451.3380229899788
 20
268.3149280261334
 11
450.7546896386399
 21
264.8149279181
 72
     1
 10
450.7546896386399
 20
264.8149279181
 11
451.9213563413177
 21
264.8149279181
 97
        0
 75
     0
 76
     1
 98
        0
  0
LINE
  5
12C
330
129
100
AcDbEntity
  8
Maﬂe
  6
Continuous
 62
     7
100
AcDbLine
 10
421.3502277115
 20
248.3149284732
 30
0.0
 11
453.088023044
 21
248.3149284732
 31
0.0
  0
LINE
  5
12D
330
129
100
AcDbEntity
  8
Maﬂe
  6
Continuous
 62
     7
100
AcDbLine
 10
441.3502277115
 20
268.3149284732
 30
0.0
 11
453.088023044
 21
268.3149284732
 31
0.0
  0
LINE
  5
12E
330
129
100
AcDbEntity
  8
Maﬂe
  6
Continuous
 62
     7
100
AcDbLine
 10
451.33802299
 20
248.3149284732
 30
0.0
 11
451.33802299
 21
268.3149280261
 31
0.0
  0
TEXT
  5
12F
330
129
100
AcDbEntity
  8
Maﬂe
  6
Continuous
 62
     7
100
AcDbText
 10
450.46302299
 20
256.2069737042
 30
0.0
 40
3.5
  1
20
 50
90.0
  7
SEACAD_Solid_Edge_ISO
 11
446.96302299
 21
256.2069737042
 31
0.0
100
AcDbText
 73
     3
  0
ENDBLK
  5
131
330
129
100
AcDbEntity
  8
0
100
AcDbBlockEnd
  0
BLOCK
  5
13A
330
133
100
AcDbEntity
  8
0
100
AcDbBlockBegin
  2
DMBLK77
 70
     0
 10
0.0
 20
0.0
 30
0.0
  3
DMBLK77
  1

  0
HATCH
  5
134
330
133
100
AcDbEntity
  8
Maﬂe
  6
Continuous
 62
     7
100
AcDbHatch
 10
0.0
 20
0.0
 30
0.0
210
0.0
220
0.0
230
1.0
  2
SOLID
 70
     1
 71
     0
 91
        1
 92
        1
 93
        3
 72
     1
 10
157.8502276035154
 20
278.4059193375296
 11
157.8502276035154
 21
277.2392526348518
 72
     1
 10
157.8502276035154
 20
277.2392526348518
 11
161.3502277115488
 21
277.8225859861907
 72
     1
 10
161.3502277115488
 20
277.8225859861907
 11
157.8502276035154
 21
278.4059193375296
 97
        0
 75
     0
 76
     1
 98
        0
  0
HATCH
  5
135
330
133
100
AcDbEntity
  8
Maﬂe
  6
Continuous
 62
     7
100
AcDbHatch
 10
0.0
 20
0.0
 30
0.0
210
0.0
220
0.0
230
1.0
  2
SOLID
 70
     1
 71
     0
 91
        1
 92
        1
 93
        3
 72
     1
 10
144.8502282666171
 20
278.4059193375296
 11
141.3502281585837
 21
277.8225859861907
 72
     1
 10
141.3502281585837
 20
277.8225859861907
 11
144.8502282666171
 21
277.2392526348518
 72
     1
 10
144.8502282666171
 20
277.2392526348518
 11
144.8502282666171
 21
278.4059193375296
 97
        0
 75
     0
 76
     1
 98
        0
  0
LINE
  5
136
330
133
100
AcDbEntity
  8
Maﬂe
  6
Continuous
 62
     7
100
AcDbLine
 10
161.3502277115
 20
248.3149284732
 30
0.0
 11
161.3502277115
 21
279.5725860402
 31
0.0
  0
LINE
  5
137
330
133
100
AcDbEntity
  8
Maﬂe
  6
Continuous
 62
     7
100
AcDbLine
 10
141.3502277115
 20
268.3149284732
 30
0.0
 11
141.3502277115
 21
279.5725860402
 31
0.0
  0
LINE
  5
138
330
133
100
AcDbEntity
  8
Maﬂe
  6
Continuous
 62
     7
100
AcDbLine
 10
161.3502277115
 20
277.8225859862
 30
0.0
 11
141.3502281586
 21
277.8225859862
 31
0.0
  0
TEXT
  5
139
330
133
100
AcDbEntity
  8
Maﬂe
  6
Continuous
 62
     7
100
AcDbText
 10
149.2422733896
 20
278.6975859862
 30
0.0
 40
3.5
  1
20
  7
SEACAD_Solid_Edge_ISO
 11
149.2422733896
 21
282.1975859862
 31
0.0
100
AcDbText
 73
     3
  0
ENDBLK
  5
13B
330
133
100
AcDbEntity
  8
0
100
AcDbBlockEnd
  0
BLOCK
  5
159
330
13D
100
AcDbEntity
  8
0
100
AcDbBlockBegin
  2
SE1
 70
     0
 10
0.0
 20
0.0
 30
0.0
  3
SE1
  1

  0
LINE
  5
13F
330
13D
100
AcDbEntity
  8
FRONT_3_US
  6
Continuous
 62
     7
100
AcDbLine
 10
141.3502277115
 20
114.5886016942
 30
0.0
 11
441.3502277115
 21
114.5886016942
 31
0.0
  0
LINE
  5
140
330
13D
100
AcDbEntity
  8
FRONT_3_US
  6
Continuous
 62
     7
100
AcDbLine
 10
141.3502277115
 20
106.5886016942
 30
0.0
 11
441.3502277115
 21
106.5886016942
 31
0.0
  0
LINE
  5
141
330
13D
100
AcDbEntity
  8
FRONT_3_US
  6
Continuous
 62
     7
100
AcDbLine
 10
141.3502277115
 20
114.5886016942
 30
0.0
 11
141.3502277115
 21
106.5886016942
 31
0.0
  0
LINE
  5
142
330
13D
100
AcDbEntity
  8
FRONT_3_US
  6
Continuous
 62
     7
100
AcDbLine
 10
441.3502277115
 20
114.5886016942
 30
0.0
 11
441.3502277115
 21
106.5886016942
 31
0.0
  0
LINE
  5
143
330
13D
100
AcDbEntity
  8
FRONT_3_US
  6
Continuous
 62
     7
100
AcDbLine
 10
201.3502277115
 20
107.0886016942
 30
0.0
 11
185.3502277115
 21
107.0886016942
 31
0.0
  0
LINE
  5
144
330
13D
100
AcDbEntity
  8
FRONT_3_US
  6
Continuous
 62
     7
100
AcDbLine
 10
227.3502277115
 20
107.0886016942
 30
0.0
 11
211.3502277115
 21
107.0886016942
 31
0.0
  0
LINE
  5
145
330
13D
100
AcDbEntity
  8
FRONT_3_US
  6
Continuous
 62
     7
100
AcDbLine
 10
286.3502277115
 20
107.0886016942
 30
0.0
 11
270.3502277115
 21
107.0886016942
 31
0.0
  0
LINE
  5
146
330
13D
100
AcDbEntity
  8
FRONT_3_US
  6
Continuous
 62
     7
100
AcDbLine
 10
296.3502277115
 20
107.0886016942
 30
0.0
 11
312.3502277115
 21
107.0886016942
 31
0.0
  0
LINE
  5
147
330
13D
100
AcDbEntity
  8
FRONT_3_US
  6
Continuous
 62
     7
100
AcDbLine
 10
355.3502277115
 20
107.0886016942
 30
0.0
 11
371.3502277115
 21
107.0886016942
 31
0.0
  0
LINE
  5
148
330
13D
100
AcDbEntity
  8
FRONT_3_US
  6
Continuous
 62
     7
100
AcDbLine
 10
381.3502277115
 20
107.0886016942
 30
0.0
 11
397.3502277115
 21
107.0886016942
 31
0.0
  0
LINE
  5
149
330
13D
100
AcDbEntity
  8
FRONT_3_US
  6
Continuous
 62
     7
100
AcDbLine
 10
418.3502277115
 20
114.5886016942
 30
0.0
 11
418.3502277115
 21
106.5886016942
 31
0.0
  0
LINE
  5
14A
330
13D
100
AcDbEntity
  8
FRONT_3_US
  6
Continuous
 62
     7
100
AcDbLine
 10
424.3502277115
 20
106.5886016942
 30
0.0
 11
424.3502277115
 21
114.5886016942
 31
0.0
  0
LINE
  5
14B
330
13D
100
AcDbEntity
  8
FRONT_3_US
  6
Continuous
 62
     7
100
AcDbLine
 10
158.3502277115
 20
114.5886016942
 30
0.0
 11
158.3502277115
 21
106.5886016942
 31
0.0
  0
LINE
  5
14C
330
13D
100
AcDbEntity
  8
FRONT_3_US
  6
Continuous
 62
     7
100
AcDbLine
 10
164.3502277115
 20
106.5886016942
 30
0.0
 11
164.3502277115
 21
114.5886016942
 31
0.0
  0
LINE
  5
14D
330
13D
100
AcDbEntity
  8
FRONT_3_US
  6
Continuous
 62
     7
100
AcDbLine
 10
270.3502277115
 20
114.5886016942
 30
0.0
 11
270.3502277115
 21
107.0886016942
 31
0.0
  0
LINE
  5
14E
330
13D
100
AcDbEntity
  8
FRONT_3_US
  6
Continuous
 62
     7
100
AcDbLine
 10
286.3502277115
 20
107.0886016942
 30
0.0
 11
286.3502277115
 21
114.5886016942
 31
0.0
  0
LINE
  5
14F
330
13D
100
AcDbEntity
  8
FRONT_3_US
  6
Continuous
 62
     7
100
AcDbLine
 10
296.3502277115
 20
114.5886016942
 30
0.0
 11
296.3502277115
 21
107.0886016942
 31
0.0
  0
LINE
  5
150
330
13D
100
AcDbEntity
  8
FRONT_3_US
  6
Continuous
 62
     7
100
AcDbLine
 10
312.3502277115
 20
107.0886016942
 30
0.0
 11
312.3502277115
 21
114.5886016942
 31
0.0
  0
LINE
  5
151
330
13D
100
AcDbEntity
  8
FRONT_3_US
  6
Continuous
 62
     7
100
AcDbLine
 10
185.3502277115
 20
114.5886016942
 30
0.0
 11
185.3502277115
 21
107.0886016942
 31
0.0
  0
LINE
  5
152
330
13D
100
AcDbEntity
  8
FRONT_3_US
  6
Continuous
 62
     7
100
AcDbLine
 10
201.3502277115
 20
107.0886016942
 30
0.0
 11
201.3502277115
 21
114.5886016942
 31
0.0
  0
LINE
  5
153
330
13D
100
AcDbEntity
  8
FRONT_3_US
  6
Continuous
 62
     7
100
AcDbLine
 10
211.3502277115
 20
114.5886016942
 30
0.0
 11
211.3502277115
 21
107.0886016942
 31
0.0
  0
LINE
  5
154
330
13D
100
AcDbEntity
  8
FRONT_3_US
  6
Continuous
 62
     7
100
AcDbLine
 10
227.3502277115
 20
107.0886016942
 30
0.0
 11
227.3502277115
 21
114.5886016942
 31
0.0
  0
LINE
  5
155
330
13D
100
AcDbEntity
  8
FRONT_3_US
  6
Continuous
 62
     7
100
AcDbLine
 10
355.3502277115
 20
114.5886016942
 30
0.0
 11
355.3502277115
 21
107.0886016942
 31
0.0
  0
LINE
  5
156
330
13D
100
AcDbEntity
  8
FRONT_3_US
  6
Continuous
 62
     7
100
AcDbLine
 10
371.3502277115
 20
107.0886016942
 30
0.0
 11
371.3502277115
 21
114.5886016942
 31
0.0
  0
LINE
  5
157
330
13D
100
AcDbEntity
  8
FRONT_3_US
  6
Continuous
 62
     7
100
AcDbLine
 10
381.3502277115
 20
114.5886016942
 30
0.0
 11
381.3502277115
 21
107.0886016942
 31
0.0
  0
LINE
  5
158
330
13D
100
AcDbEntity
  8
FRONT_3_US
  6
Continuous
 62
     7
100
AcDbLine
 10
397.3502277115
 20
107.0886016942
 30
0.0
 11
397.3502277115
 21
114.5886016942
 31
0.0
  0
ENDBLK
  5
15A
330
13D
100
AcDbEntity
  8
0
100
AcDbBlockEnd
  0
BLOCK
  5
163
330
15C
100
AcDbEntity
  8
0
100
AcDbBlockBegin
  2
DMBLK78
 70
     0
 10
0.0
 20
0.0
 30
0.0
  3
DMBLK78
  1

  0
HATCH
  5
15D
330
15C
100
AcDbEntity
  8
Maﬂe
  6
Continuous
 62
     7
100
AcDbHatch
 10
0.0
 20
0.0
 30
0.0
210
0.0
220
0.0
230
1.0
  2
SOLID
 70
     1
 71
     0
 91
        1
 92
        1
 93
        3
 72
     1
 10
448.0931455665087
 20
118.0886018021871
 11
446.9264788638308
 21
118.0886018021871
 72
     1
 10
446.9264788638308
 20
118.0886018021871
 11
447.5098122151697
 21
114.5886016941537
 72
     1
 10
447.5098122151697
 20
114.5886016941537
 11
448.0931455665087
 21
118.0886018021871
 97
        0
 75
     0
 76
     1
 98
        0
  0
HATCH
  5
15E
330
15C
100
AcDbEntity
  8
Maﬂe
  6
Continuous
 62
     7
100
AcDbHatch
 10
0.0
 20
0.0
 30
0.0
210
0.0
220
0.0
230
1.0
  2
SOLID
 70
     1
 71
     0
 91
        1
 92
        1
 93
        3
 72
     1
 10
448.0931455665087
 20
103.0886015861203
 11
447.5098122151697
 21
106.5886016941537
 72
     1
 10
447.5098122151697
 20
106.5886016941537
 11
446.9264788638308
 21
103.0886015861203
 72
     1
 10
446.9264788638308
 20
103.0886015861203
 11
448.0931455665087
 21
103.0886015861203
 97
        0
 75
     0
 76
     1
 98
        0
  0
LINE
  5
15F
330
15C
100
AcDbEntity
  8
Maﬂe
  6
Continuous
 62
     7
100
AcDbLine
 10
441.3502277115
 20
114.5886016942
 30
0.0
 11
449.2598122692
 21
114.5886016942
 31
0.0
  0
LINE
  5
160
330
15C
100
AcDbEntity
  8
Maﬂe
  6
Continuous
 62
     7
100
AcDbLine
 10
441.3502277115
 20
106.5886016942
 30
0.0
 11
449.2598122692
 21
106.5886016942
 31
0.0
  0
LINE
  5
161
330
15C
100
AcDbEntity
  8
Maﬂe
  6
Continuous
 62
     7
100
AcDbLine
 10
447.5098122152
 20
121.5886019102
 30
0.0
 11
447.5098122152
 21
99.5886020294
 31
0.0
  0
TEXT
  5
162
330
15C
100
AcDbEntity
  8
Maﬂe
  6
Continuous
 62
     7
100
AcDbText
 10
446.6348122152
 20
109.4749651405
 30
0.0
 40
3.5
  1
8
 50
90.0
  7
SEACAD_Solid_Edge_ISO
 11
443.1348122152
 21
109.4749651405
 31
0.0
100
AcDbText
 73
     3
  0
ENDBLK
  5
164
330
15C
100
AcDbEntity
  8
0
100
AcDbBlockEnd
  0
BLOCK
  5
16D
330
166
100
AcDbEntity
  8
0
100
AcDbBlockBegin
  2
DMBLK79
 70
     0
 10
0.0
 20
0.0
 30
0.0
  3
DMBLK79
  1

  0
HATCH
  5
167
330
166
100
AcDbEntity
  8
Maﬂe
  6
Continuous
 62
     7
100
AcDbHatch
 10
0.0
 20
0.0
 30
0.0
210
0.0
220
0.0
230
1.0
  2
SOLID
 70
     1
 71
     0
 91
        1
 92
        1
 93
        3
 72
     1
 10
144.8502278195823
 20
92.1613780632833
 11
144.8502278195823
 21
93.32804476596111
 72
     1
 10
144.8502278195823
 20
93.32804476596111
 11
141.3502277115489
 21
92.7447114146222
 72
     1
 10
141.3502277115489
 20
92.7447114146222
 11
144.8502278195823
 21
92.1613780632833
 97
        0
 75
     0
 76
     1
 98
        0
  0
HATCH
  5
168
330
166
100
AcDbEntity
  8
Maﬂe
  6
Continuous
 62
     7
100
AcDbHatch
 10
0.0
 20
0.0
 30
0.0
210
0.0
220
0.0
230
1.0
  2
SOLID
 70
     1
 71
     0
 91
        1
 92
        1
 93
        3
 72
     1
 10
437.8502395244444
 20
92.1613780632833
 11
441.3502396324778
 21
92.7447114146222
 72
     1
 10
441.3502396324778
 20
92.7447114146222
 11
437.8502395244444
 21
93.32804476596111
 72
     1
 10
437.8502395244444
 20
93.32804476596111
 11
437.8502395244444
 21
92.1613780632833
 97
        0
 75
     0
 76
     1
 98
        0
  0
LINE
  5
169
330
166
100
AcDbEntity
  8
Maﬂe
  6
Continuous
 62
     7
100
AcDbLine
 10
141.3502277115
 20
106.5886016942
 30
0.0
 11
141.3502277115
 21
90.9947113606
 31
0.0
  0
LINE
  5
16A
330
166
100
AcDbEntity
  8
Maﬂe
  6
Continuous
 62
     7
100
AcDbLine
 10
441.3502277115
 20
106.5886016942
 30
0.0
 11
441.3502277115
 21
90.9947113606
 31
0.0
  0
LINE
  5
16B
330
166
100
AcDbEntity
  8
Maﬂe
  6
Continuous
 62
     7
100
AcDbLine
 10
141.3502277115
 20
92.7447114146
 30
0.0
 11
441.3502396325
 21
92.7447114146
 31
0.0
  0
TEXT
  5
16C
330
166
100
AcDbEntity
  8
Maﬂe
  6
Continuous
 62
     7
100
AcDbText
 10
288.3672791266
 20
93.6197114146
 30
0.0
 40
3.5
  1
300
  7
SEACAD_Solid_Edge_ISO
 11
288.3672791266
 21
97.1197114146
 31
0.0
100
AcDbText
 73
     3
  0
ENDBLK
  5
16E
330
166
100
AcDbEntity
  8
0
100
AcDbBlockEnd
  0
BLOCK
  5
177
330
170
100
AcDbEntity
  8
0
100
AcDbBlockBegin
  2
DMBLK80
 70
     0
 10
0.0
 20
0.0
 30
0.0
  3
DMBLK80
  1

  0
HATCH
  5
171
330
170
100
AcDbEntity
  8
Maﬂe
  6
Continuous
 62
     7
100
AcDbHatch
 10
0.0
 20
0.0
 30
0.0
210
0.0
220
0.0
230
1.0
  2
SOLID
 70
     1
 71
     0
 91
        1
 92
        1
 93
        3
 72
     1
 10
279.3872710675751
 20
118.0886018021871
 11
278.2206043648972
 21
118.0886018021871
 72
     1
 10
278.2206043648972
 20
118.0886018021871
 11
278.8039377162361
 21
114.5886016941537
 72
     1
 10
278.8039377162361
 20
114.5886016941537
 11
279.3872710675751
 21
118.0886018021871
 97
        0
 75
     0
 76
     1
 98
        0
  0
HATCH
  5
172
330
170
100
AcDbEntity
  8
Maﬂe
  6
Continuous
 62
     7
100
AcDbHatch
 10
0.0
 20
0.0
 30
0.0
210
0.0
220
0.0
230
1.0
  2
SOLID
 70
     1
 71
     0
 91
        1
 92
        1
 93
        3
 72
     1
 10
279.3872710675751
 20
103.5886015861203
 11
278.8039377162361
 21
107.0886016941537
 72
     1
 10
278.8039377162361
 20
107.0886016941537
 11
278.2206043648972
 21
103.5886015861203
 72
     1
 10
278.2206043648972
 20
103.5886015861203
 11
279.3872710675751
 21
103.5886015861203
 97
        0
 75
     0
 76
     1
 98
        0
  0
LINE
  5
173
330
170
100
AcDbEntity
  8
Maﬂe
  6
Continuous
 62
     7
100
AcDbLine
 10
270.3502277115
 20
114.5886016942
 30
0.0
 11
280.5539377703
 21
114.5886016942
 31
0.0
  0
LINE
  5
174
330
170
100
AcDbEntity
  8
Maﬂe
  6
Continuous
 62
     7
100
AcDbLine
 10
270.3502277115
 20
107.0886016942
 30
0.0
 11
280.5539377703
 21
107.0886016942
 31
0.0
  0
LINE
  5
175
330
170
100
AcDbEntity
  8
Maﬂe
  6
Continuous
 62
     7
100
AcDbLine
 10
278.8039377162
 20
121.5886019102
 30
0.0
 11
278.8039377162
 21
94.3643843687
 31
0.0
  0
TEXT
  5
176
330
170
100
AcDbEntity
  8
Maﬂe
  6
Continuous
 62
     7
100
AcDbText
 10
277.9289377162
 20
95.589383775
 30
0.0
 40
3.5
  1
7,5
 50
90.0
  7
SEACAD_Solid_Edge_ISO
 11
274.4289377162
 21
95.589383775
 31
0.0
100
AcDbText
 73
     3
  0
ENDBLK
  5
178
330
170
100
AcDbEntity
  8
0
100
AcDbBlockEnd
  0
ENDSEC
  0
SECTION
  2
ENTITIES
  0
INSERT
  5
41
330
1F
100
AcDbEntity
  8
Maﬂe
100
AcDbBlockReference
  2
SEANNOT_GROUP
 10
0.0
 20
0.0
 30
0.0
  0
INSERT
  5
4C
330
1F
100
AcDbEntity
  8
Maﬂe
100
AcDbBlockReference
  2
SEANNOT_GROUP1
 10
0.0
 20
0.0
 30
0.0
  0
INSERT
  5
56
330
1F
100
AcDbEntity
  8
Maﬂe
100
AcDbBlockReference
  2
SEANNOT_GROUP2
 10
0.0
 20
0.0
 30
0.0
  0
INSERT
  5
60
330
1F
100
AcDbEntity
  8
Maﬂe
100
AcDbBlockReference
  2
SEANNOT_GROUP3
 10
0.0
 20
0.0
 30
0.0
  0
INSERT
  5
6A
330
1F
100
AcDbEntity
  8
Maﬂe
100
AcDbBlockReference
  2
SEANNOT_GROUP4
 10
0.0
 20
0.0
 30
0.0
  0
INSERT
  5
74
330
1F
100
AcDbEntity
  8
Maﬂe
100
AcDbBlockReference
  2
SEANNOT_GROUP5
 10
0.0
 20
0.0
 30
0.0
  0
INSERT
  5
7E
330
1F
100
AcDbEntity
  8
Maﬂe
100
AcDbBlockReference
  2
SEANNOT_GROUP6
 10
0.0
 20
0.0
 30
0.0
  0
INSERT
  5
88
330
1F
100
AcDbEntity
  8
Maﬂe
100
AcDbBlockReference
  2
SEANNOT_GROUP7
 10
0.0
 20
0.0
 30
0.0
  0
INSERT
  5
92
330
1F
100
AcDbEntity
  8
Maﬂe
100
AcDbBlockReference
  2
SEANNOT_GROUP8
 10
0.0
 20
0.0
 30
0.0
  0
INSERT
  5
9C
330
1F
100
AcDbEntity
  8
Maﬂe
100
AcDbBlockReference
  2
SEANNOT_GROUP9
 10
0.0
 20
0.0
 30
0.0
  0
INSERT
  5
A6
330
1F
100
AcDbEntity
  8
Maﬂe
100
AcDbBlockReference
  2
SEANNOT_GROUP10
 10
0.0
 20
0.0
 30
0.0
  0
INSERT
  5
AB
330
1F
100
AcDbEntity
  8
Maﬂe
100
AcDbBlockReference
  2
SEANNOT_GROUP11
 10
0.0
 20
0.0
 30
0.0
  0
INSERT
  5
B1
330
1F
100
AcDbEntity
  8
Default
100
AcDbBlockReference
  2
SE
 10
0.0
 20
0.0
 30
0.0
  0
DIMENSION
  5
D7
330
1F
100
AcDbEntity
  8
Maﬂe
  6
Continuous
 62
     7
100
AcDbDimension
  2
DMBLK68
 10
141.3502277115
 20
285.7831648599
 30
0.0
 11
291.350233672
 21
285.7831648599
 31
0.0
 70
   161
  1
\A1;<>
 71
     5
 42
-1.0
  3
ISO
100
AcDbAlignedDimension
 13
141.3502277115
 23
268.3149284732
 33
0.0
 14
441.3502277115
 24
268.3149284732
 34
0.0
  0
DIMENSION
  5
E1
330
1F
100
AcDbEntity
  8
Maﬂe
  6
Continuous
 62
     7
100
AcDbDimension
  2
DMBLK69
 10
114.1534925679
 20
148.3149284732
 30
0.0
 11
114.1534925679
 21
208.3149271321
 31
0.0
 70
   161
  1
\A1;<>
 71
     5
 42
-1.0
  3
ISO
100
AcDbAlignedDimension
 13
141.3502277115
 23
148.3149284732
 33
0.0
 14
141.3502277115
 24
268.3149284732
 34
0.0
  0
DIMENSION
  5
EB
330
1F
100
AcDbEntity
  8
Maﬂe
  6
Continuous
 62
     7
100
AcDbDimension
  2
DMBLK70
 10
141.3502277115
 20
139.2728577416
 30
0.0
 11
151.3502279351
 21
139.2728577416
 31
0.0
 70
   160
  1
\A1;<>
 71
     5
 42
-1.0
  3
ISO
100
AcDbAlignedDimension
 13
161.3502277115
 23
168.3149284732
 33
0.0
 14
141.3502277115
 24
148.3149284732
 34
0.0
100
AcDbRotatedDimension
  0
DIMENSION
  5
F5
330
1F
100
AcDbEntity
  8
Maﬂe
  6
Continuous
 62
     7
100
AcDbDimension
  2
DMBLK71
 10
141.3502277115
 20
129.0336132657
 30
0.0
 11
167.3502271751
 21
129.0336132657
 31
0.0
 70
   160
  1
\A1;<>
 71
     5
 42
-1.0
  3
ISO
100
AcDbAlignedDimension
 13
193.3502277115
 23
208.3149284732
 33
0.0
 14
141.3502277115
 24
148.3149284732
 34
0.0
100
AcDbRotatedDimension
  0
DIMENSION
  5
FF
330
1F
100
AcDbEntity
  8
Maﬂe
  6
Continuous
 62
     7
100
AcDbDimension
  2
DMBLK72
 10
278.3502277115
 20
186.3093704593
 30
0.0
 11
286.2302634994
 21
186.3093704593
 31
0.0
 70
   161
  1
\A1;<>
 71
     5
 42
-1.0
  3
ISO
100
AcDbAlignedDimension
 13
278.3502277115
 23
208.3149284732
 33
0.0
 14
304.3502277115
 24
208.3149284732
 34
0.0
  0
DIMENSION
  5
109
330
1F
100
AcDbEntity
  8
Maﬂe
  6
Continuous
 62
     7
100
AcDbDimension
  2
DMBLK73
 10
298.5031082779
 20
202.8549656227
 30
0.0
 11
314.708152205
 21
217.9870214728
 31
0.0
 70
   163
  1
\A1;<>
 71
     5
 42
-1.0
  3
ISO
100
AcDbDiametricDimension
 15
310.1973471452
 25
213.7748913236
 35
0.0
 40
0.0
1001
ACAD
1000
DSTYLE
1002
{
1070
   279
1070
     1
1070
     0
1002
}
  0
DIMENSION
  5
114
330
1F
100
AcDbEntity
  8
Maﬂe
  6
Continuous
 62
     7
100
AcDbDimension
  2
DMBLK74
 10
450.6980702708
 20
148.3149284732
 30
0.0
 11
450.6980702708
 21
158.3149286967
 31
0.0
 70
   160
  1
\A1;<>
 71
     5
 42
-1.0
  3
ISO
100
AcDbAlignedDimension
 13
421.3502277115
 23
168.3149284732
 33
0.0
 14
441.3502277115
 24
148.3149284732
 34
0.0
 50
90.0
100
AcDbRotatedDimension
  0
DIMENSION
  5
11E
330
1F
100
AcDbEntity
  8
Maﬂe
  6
Continuous
 62
     7
100
AcDbDimension
  2
DMBLK75
 10
459.657407997
 20
148.3149284732
 30
0.0
 11
459.657407997
 21
178.3149291437
 31
0.0
 70
   160
  1
\A1;<>
 71
     5
 42
-1.0
  3
ISO
100
AcDbAlignedDimension
 13
389.3502277115
 23
208.3149284732
 33
0.0
 14
441.3502277115
 24
148.3149284732
 34
0.0
 50
90.0
100
AcDbRotatedDimension
  0
DIMENSION
  5
128
330
1F
100
AcDbEntity
  8
Maﬂe
  6
Continuous
 62
     7
100
AcDbDimension
  2
DMBLK76
 10
451.33802299
 20
268.3149284732
 30
0.0
 11
451.33802299
 21
258.3149282497
 31
0.0
 70
   160
  1
\A1;<>
 71
     5
 42
-1.0
  3
ISO
100
AcDbAlignedDimension
 13
421.3502277115
 23
248.3149284732
 33
0.0
 14
441.3502277115
 24
268.3149284732
 34
0.0
 50
90.0
100
AcDbRotatedDimension
  0
DIMENSION
  5
132
330
1F
100
AcDbEntity
  8
Maﬂe
  6
Continuous
 62
     7
100
AcDbDimension
  2
DMBLK77
 10
141.3502277115
 20
277.8225859862
 30
0.0
 11
151.3502279351
 21
277.8225859862
 31
0.0
 70
   160
  1
\A1;<>
 71
     5
 42
-1.0
  3
ISO
100
AcDbAlignedDimension
 13
161.3502277115
 23
248.3149284732
 33
0.0
 14
141.3502277115
 24
268.3149284732
 34
0.0
100
AcDbRotatedDimension
  0
INSERT
  5
13E
330
1F
100
AcDbEntity
  8
Tiefe
100
AcDbBlockReference
  2
SE1
 10
0.0
 20
0.0
 30
0.0
  0
DIMENSION
  5
15B
330
1F
100
AcDbEntity
  8
Maﬂe
  6
Continuous
 62
     7
100
AcDbDimension
  2
DMBLK78
 10
447.5098122152
 20
114.5886016942
 30
0.0
 11
447.5098122152
 21
110.5886015042
 31
0.0
 70
   161
  1
\A1;<>
 71
     5
 42
-1.0
  3
ISO
100
AcDbAlignedDimension
 13
441.3502277115
 23
114.5886016942
 33
0.0
 14
441.3502277115
 24
106.5886016942
 34
0.0
  0
DIMENSION
  5
165
330
1F
100
AcDbEntity
  8
Maﬂe
  6
Continuous
 62
     7
100
AcDbDimension
  2
DMBLK79
 10
141.3502277115
 20
92.7447114146
 30
0.0
 11
291.350233672
 21
92.7447114146
 31
0.0
 70
   161
  1
\A1;<>
 71
     5
 42
-1.0
  3
ISO
100
AcDbAlignedDimension
 13
141.3502277115
 23
106.5886016942
 33
0.0
 14
441.3502277115
 24
106.5886016942
 34
0.0
  0
DIMENSION
  5
16F
330
1F
100
AcDbEntity
  8
Maﬂe
  6
Continuous
 62
     7
100
AcDbDimension
  2
DMBLK80
 10
278.8039377162
 20
114.5886016942
 30
0.0
 11
278.8039377162
 21
101.6666565022
 31
0.0
 70
   161
  1
\A1;<>
 71
     5
 42
-1.0
  3
ISO
100
AcDbAlignedDimension
 13
270.3502277115
 23
114.5886016942
 33
0.0
 14
270.3502277115
 24
107.0886016942
 34
0.0
  0
ENDSEC
  0
SECTION
  2
OBJECTS
  0
DICTIONARY
  5
C
330
0
100
AcDbDictionary
281
     1
  3
ACAD_GROUP
350
D
  3
ACAD_LAYOUT
350
1A
  3
ACAD_MATERIAL
350
3B
  3
ACAD_MLEADERSTYLE
350
17B
  3
ACAD_MLINESTYLE
350
17
  3
ACAD_PLOTSETTINGS
350
19
  3
ACAD_PLOTSTYLENAME
350
E
  3
ACAD_VISUALSTYLE
350
2A
  3
AcDbVariableDictionary
350
179
  0
DICTIONARY
  5
D
102
{ACAD_REACTORS
330
C
102
}
330
C
100
AcDbDictionary
281
     1
  0
DICTIONARY
  5
1A
102
{ACAD_REACTORS
330
C
102
}
330
C
100
AcDbDictionary
281
     1
  3
Layout1
350
1E
  3
Model
350
22
  0
DICTIONARY
  5
3B
102
{ACAD_REACTORS
330
C
102
}
330
C
100
AcDbDictionary
281
     1
  3
ByBlock
350
3D
  3
ByLayer
350
3C
  3
Global
350
3E
  0
DICTIONARY
  5
17B
102
{ACAD_REACTORS
330
C
102
}
330
C
100
AcDbDictionary
281
     1
  0
DICTIONARY
  5
17
102
{ACAD_REACTORS
330
C
102
}
330
C
100
AcDbDictionary
281
     1
  3
Standard
350
18
  0
DICTIONARY
  5
19
102
{ACAD_REACTORS
330
C
102
}
330
C
100
AcDbDictionary
281
     1
  0
ACDBDICTIONARYWDFLT
  5
E
102
{ACAD_REACTORS
330
C
102
}
330
C
100
AcDbDictionary
281
     1
  3
Normal
350
F
100
AcDbDictionaryWithDefault
340
F
  0
DICTIONARY
  5
2A
102
{ACAD_REACTORS
330
C
102
}
330
C
100
AcDbDictionary
281
     1
  3
2dWireframe
350
2F
  3
3D Hidden
350
31
  3
3dWireframe
350
30
  3
Basic
350
32
  3
Brighten
350
36
  3
ColorChange
350
3A
  3
Conceptual
350
34
  3
Dim
350
35
  3
Facepattern
350
39
  3
Flat
350
2B
  3
FlatWithEdges
350
2C
  3
Gouraud
350
2D
  3
GouraudWithEdges
350
2E
  3
Linepattern
350
38
  3
Realistic
350
33
  3
Thicken
350
37
  0
DICTIONARY
  5
179
102
{ACAD_REACTORS
330
C
102
}
330
C
100
AcDbDictionary
281
     1
  3
DIMASSOC
350
17E
  3
HIDETEXT
350
17F
  3
PSOLHEIGHT
350
17D
  3
PSOLWIDTH
350
17C
  0
LAYOUT
  5
1E
102
{ACAD_REACTORS
330
1A
102
}
330
1A
100
AcDbPlotSettings
  1

  2
none_device
  4

  6

 40
0.0
 41
0.0
 42
0.0
 43
0.0
 44
0.0
 45
0.0
 46
0.0
 47
0.0
 48
0.0
 49
0.0
140
0.0
141
0.0
142
1.0
143
1.0
 70
   688
 72
     0
 73
     0
 74
     5
  7

 75
    16
147
1.0
148
0.0
149
0.0
100
AcDbLayout
  1
Layout1
 70
     1
 71
     1
 10
0.0
 20
0.0
 11
594.0
 21
420.0
 12
0.0
 22
0.0
 32
0.0
 14
0.0
 24
0.0
 34
0.0
 15
594.0
 25
420.0
 35
0.0
146
0.0
 13
0.0
 23
0.0
 33
0.0
 16
1.0
 26
0.0
 36
0.0
 17
0.0
 27
1.0
 37
0.0
 76
     0
330
1B
  0
LAYOUT
  5
22
102
{ACAD_REACTORS
330
1A
102
}
330
1A
100
AcDbPlotSettings
  1

  2
none_device
  4

  6

 40
0.0
 41
0.0
 42
0.0
 43
0.0
 44
0.0
 45
0.0
 46
0.0
 47
0.0
 48
0.0
 49
0.0
140
0.0
141
0.0
142
1.0
143
1.0
 70
  1712
 72
     0
 73
     0
 74
     0
  7

 75
     0
147
1.0
148
0.0
149
0.0
100
AcDbLayout
  1
Model
 70
     1
 71
     0
 10
0.0
 20
0.0
 11
594.0
 21
420.0
 12
0.0
 22
0.0
 32
0.0
 14
0.0
 24
0.0
 34
0.0
 15
594.0
 25
420.0
 35
0.0
146
0.0
 13
0.0
 23
0.0
 33
0.0
 16
1.0
 26
0.0
 36
0.0
 17
0.0
 27
1.0
 37
0.0
 76
     0
330
1F
331
29
  0
MATERIAL
  5
3D
102
{ACAD_REACTORS
330
3B
102
}
102
{ACAD_XDICTIONARY
360
1A2
102
}
330
3B
100
AcDbMaterial
  1
ByBlock
  0
MATERIAL
  5
3C
102
{ACAD_REACTORS
330
3B
102
}
102
{ACAD_XDICTIONARY
360
1A0
102
}
330
3B
100
AcDbMaterial
  1
ByLayer
  0
MATERIAL
  5
3E
102
{ACAD_REACTORS
330
3B
102
}
102
{ACAD_XDICTIONARY
360
1A4
102
}
330
3B
100
AcDbMaterial
  1
Global
  0
MLINESTYLE
  5
18
102
{ACAD_REACTORS
330
17
102
}
330
17
100
AcDbMlineStyle
  2
Standard
 70
     0
  3

 62
   256
 51
90.0
 52
90.0
 71
     2
 49
0.5
 62
   256
  6
BYLAYER
 49
-0.5
 62
   256
  6
BYLAYER
  0
ACDBPLACEHOLDER
  5
F
102
{ACAD_REACTORS
330
E
102
}
330
E
  0
VISUALSTYLE
  5
2F
102
{ACAD_REACTORS
330
2A
102
}
102
{ACAD_XDICTIONARY
360
188
102
}
330
2A
100
AcDbVisualStyle
  2
2dWireframe
 70
     4
 71
     0
 72
     2
 73
     0
 90
        0
 40
-0.6
 41
-30.0
 62
     5
 63
     7
 74
     1
 91
        4
 64
     7
 65
   257
 75
     1
175
     1
 42
1.0
 92
        0
 66
   257
 43
1.0
 76
     1
 77
     6
 78
     2
 67
     7
 79
     5
170
     0
171
     0
290
     0
174
     0
 93
        1
 44
0.0
173
     0
291
     0
 45
0.0
1001
ACAD
1000
AcDbSavedByObjectVersion
1070
     0
  0
VISUALSTYLE
  5
31
102
{ACAD_REACTORS
330
2A
102
}
102
{ACAD_XDICTIONARY
360
18C
102
}
330
2A
100
AcDbVisualStyle
  2
3D Hidden
 70
     6
 71
     1
 72
     2
 73
     2
 90
        0
 40
-0.6
 41
-30.0
 62
     5
 63
     7
 74
     2
 91
        2
 64
     7
 65
   257
 75
     2
175
     1
 42
40.0
 92
        0
 66
   257
 43
1.0
 76
     1
 77
     6
 78
     2
 67
     7
 79
     3
170
     0
171
     0
290
     0
174
     0
 93
        1
 44
0.0
173
     0
291
     0
 45
0.0
1001
ACAD
1000
AcDbSavedByObjectVersion
1070
     0
  0
VISUALSTYLE
  5
30
102
{ACAD_REACTORS
330
2A
102
}
102
{ACAD_XDICTIONARY
360
18A
102
}
330
2A
100
AcDbVisualStyle
  2
3dWireframe
 70
     5
 71
     0
 72
     2
 73
     0
 90
        0
 40
-0.6
 41
-30.0
 62
     5
 63
     7
 74
     1
 91
        4
 64
     7
 65
   257
 75
     1
175
     1
 42
1.0
 92
        0
 66
   257
 43
1.0
 76
     1
 77
     6
 78
     2
 67
     7
 79
     5
170
     0
171
     0
290
     0
174
     0
 93
        1
 44
0.0
173
     0
291
     0
 45
0.0
1001
ACAD
1000
AcDbSavedByObjectVersion
1070
     0
  0
VISUALSTYLE
  5
32
102
{ACAD_REACTORS
330
2A
102
}
102
{ACAD_XDICTIONARY
360
18E
102
}
330
2A
100
AcDbVisualStyle
  2
Basic
 70
     7
 71
     1
 72
     0
 73
     1
 90
        0
 40
-0.6
 41
-30.0
 62
     5
 63
     7
 74
     0
 91
        4
 64
     7
 65
   257
 75
     1
175
     1
 42
1.0
 92
        8
 66
     7
 43
1.0
 76
     1
 77
     6
 78
     2
 67
     7
 79
     5
170
     0
171
     0
290
     0
174
     0
 93
        1
 44
0.0
173
     0
291
     1
 45
0.0
1001
ACAD
1000
AcDbSavedByObjectVersion
1070
     0
  0
VISUALSTYLE
  5
36
102
{ACAD_REACTORS
330
2A
102
}
102
{ACAD_XDICTIONARY
360
196
102
}
330
2A
100
AcDbVisualStyle
  2
Brighten
 70
    12
 71
     2
 72
     2
 73
     0
 90
        0
 40
-0.6
 41
-30.0
 62
     5
 63
     7
 74
     1
 91
        4
 64
     7
 65
   257
 75
     1
175
     1
 42
1.0
 92
        8
 66
     7
 43
1.0
 76
     1
 77
     6
 78
     2
 67
     7
 79
     5
170
     0
171
     0
290
     0
174
     0
 93
        1
 44
50.0
173
     0
291
     1
 45
0.0
1001
ACAD
1000
AcDbSavedByObjectVersion
1070
     0
  0
VISUALSTYLE
  5
3A
102
{ACAD_REACTORS
330
2A
102
}
102
{ACAD_XDICTIONARY
360
19E
102
}
330
2A
100
AcDbVisualStyle
  2
ColorChange
 70
    16
 71
     2
 72
     2
 73
     3
 90
        0
 40
-0.6
 41
-30.0
 62
     5
 63
     8
 74
     1
 91
        4
 64
     7
 65
   257
 75
     1
175
     1
 42
1.0
 92
        8
 66
     8
 43
1.0
 76
     1
 77
     6
 78
     2
 67
     7
 79
     5
170
     0
171
     0
290
     0
174
     0
 93
        1
 44
0.0
173
     0
291
     1
 45
0.0
1001
ACAD
1000
AcDbSavedByObjectVersion
1070
     0
  0
VISUALSTYLE
  5
34
102
{ACAD_REACTORS
330
2A
102
}
102
{ACAD_XDICTIONARY
360
192
102
}
330
2A
100
AcDbVisualStyle
  2
Conceptual
 70
     9
 71
     3
 72
     2
 73
     0
 90
        0
 40
-0.6
 41
-30.0
 62
     5
 63
     7
 74
     2
 91
        2
 64
     7
 65
   257
 75
     1
175
     1
 42
40.0
 92
        8
 66
     7
 43
1.0
 76
     1
 77
     6
 78
     2
 67
     7
 79
     3
170
     0
171
     0
290
     0
174
     0
 93
        1
 44
0.0
173
     0
291
     0
 45
0.0
1001
ACAD
1000
AcDbSavedByObjectVersion
1070
     0
  0
VISUALSTYLE
  5
35
102
{ACAD_REACTORS
330
2A
102
}
102
{ACAD_XDICTIONARY
360
194
102
}
330
2A
100
AcDbVisualStyle
  2
Dim
 70
    11
 71
     2
 72
     2
 73
     0
 90
        0
 40
-0.6
 41
-30.0
 62
     5
 63
     7
 74
     1
 91
        4
 64
     7
 65
   257
 75
     1
175
     1
 42
1.0
 92
        8
 66
     7
 43
1.0
 76
     1
 77
     6
 78
     2
 67
     7
 79
     5
170
     0
171
     0
290
     0
174
     0
 93
        1
 44
-50.0
173
     0
291
     1
 45
0.0
1001
ACAD
1000
AcDbSavedByObjectVersion
1070
     0
  0
VISUALSTYLE
  5
39
102
{ACAD_REACTORS
330
2A
102
}
102
{ACAD_XDICTIONARY
360
19C
102
}
330
2A
100
AcDbVisualStyle
  2
Facepattern
 70
    15
 71
     2
 72
     2
 73
     0
 90
        0
 40
-0.6
 41
-30.0
 62
     5
 63
     7
 74
     1
 91
        4
 64
     7
 65
   257
 75
     1
175
     1
 42
1.0
 92
        8
 66
     7
 43
1.0
 76
     1
 77
     6
 78
     2
 67
     7
 79
     5
170
     0
171
     0
290
     0
174
     0
 93
        1
 44
0.0
173
     0
291
     1
 45
0.0
1001
ACAD
1000
AcDbSavedByObjectVersion
1070
     0
  0
VISUALSTYLE
  5
2B
102
{ACAD_REACTORS
330
2A
102
}
102
{ACAD_XDICTIONARY
360
180
102
}
330
2A
100
AcDbVisualStyle
  2
Flat
 70
     0
 71
     2
 72
     1
 73
     1
 90
        2
 40
-0.6
 41
30.0
 62
     5
 63
     7
 74
     0
 91
        4
 64
     7
 65
   257
 75
     1
175
     1
 42
1.0
 92
        8
 66
     7
 43
1.0
 76
     1
 77
     6
 78
     2
 67
     7
 79
     5
170
     0
171
     0
290
     0
174
     0
 93
       13
 44
0.0
173
     0
291
     1
 45
0.0
1001
ACAD
1000
AcDbSavedByObjectVersion
1070
     0
  0
VISUALSTYLE
  5
2C
102
{ACAD_REACTORS
330
2A
102
}
102
{ACAD_XDICTIONARY
360
182
102
}
330
2A
100
AcDbVisualStyle
  2
FlatWithEdges
 70
     1
 71
     2
 72
     1
 73
     1
 90
        2
 40
-0.6
 41
30.0
 62
     5
 63
     7
 74
     1
 91
        4
 64
     7
 65
   257
 75
     1
175
     1
 42
1.0
 92
        0
 66
   257
 43
1.0
 76
     1
 77
     6
 78
     2
 67
     7
 79
     5
170
     0
171
     0
290
     0
174
     0
 93
       13
 44
0.0
173
     0
291
     1
 45
0.0
1001
ACAD
1000
AcDbSavedByObjectVersion
1070
     0
  0
VISUALSTYLE
  5
2D
102
{ACAD_REACTORS
330
2A
102
}
102
{ACAD_XDICTIONARY
360
184
102
}
330
2A
100
AcDbVisualStyle
  2
Gouraud
 70
     2
 71
     2
 72
     2
 73
     1
 90
        2
 40
-0.6
 41
30.0
 62
     5
 63
     7
 74
     0
 91
        4
 64
     7
 65
   257
 75
     1
175
     1
 42
1.0
 92
        0
 66
     7
 43
1.0
 76
     1
 77
     6
 78
     2
 67
     7
 79
     5
170
     0
171
     0
290
     0
174
     0
 93
       13
 44
0.0
173
     0
291
     1
 45
0.0
1001
ACAD
1000
AcDbSavedByObjectVersion
1070
     0
  0
VISUALSTYLE
  5
2E
102
{ACAD_REACTORS
330
2A
102
}
102
{ACAD_XDICTIONARY
360
186
102
}
330
2A
100
AcDbVisualStyle
  2
GouraudWithEdges
 70
     3
 71
     2
 72
     2
 73
     1
 90
        2
 40
-0.6
 41
30.0
 62
     5
 63
     7
 74
     1
 91
        4
 64
     7
 65
   257
 75
     1
175
     1
 42
1.0
 92
        0
 66
   257
 43
1.0
 76
     1
 77
     6
 78
     2
 67
     7
 79
     5
170
     0
171
     0
290
     0
174
     0
 93
       13
 44
0.0
173
     0
291
     1
 45
0.0
1001
ACAD
1000
AcDbSavedByObjectVersion
1070
     0
  0
VISUALSTYLE
  5
38
102
{ACAD_REACTORS
330
2A
102
}
102
{ACAD_XDICTIONARY
360
19A
102
}
330
2A
100
AcDbVisualStyle
  2
Linepattern
 70
    14
 71
     2
 72
     2
 73
     0
 90
        0
 40
-0.6
 41
-30.0
 62
     5
 63
     7
 74
     1
 91
        4
 64
     7
 65
   257
 75
     7
175
     7
 42
1.0
 92
        8
 66
     7
 43
1.0
 76
     1
 77
     6
 78
     2
 67
     7
 79
     5
170
     0
171
     0
290
     0
174
     0
 93
        1
 44
0.0
173
     0
291
     1
 45
0.0
1001
ACAD
1000
AcDbSavedByObjectVersion
1070
     0
  0
VISUALSTYLE
  5
33
102
{ACAD_REACTORS
330
2A
102
}
102
{ACAD_XDICTIONARY
360
190
102
}
330
2A
100
AcDbVisualStyle
  2
Realistic
 70
     8
 71
     2
 72
     2
 73
     0
 90
        0
 40
-0.6
 41
-30.0
 62
     5
 63
     7
 74
     1
 91
        0
 64
     7
 65
   257
 75
     1
175
     1
 42
1.0
 92
        8
 66
     8
 43
1.0
 76
     1
 77
     6
 78
     2
 67
     7
 79
     5
170
     0
171
     0
290
     0
174
     0
 93
       13
 44
0.0
173
     0
291
     0
 45
0.0
1001
ACAD
1000
AcDbSavedByObjectVersion
1070
     0
  0
VISUALSTYLE
  5
37
102
{ACAD_REACTORS
330
2A
102
}
102
{ACAD_XDICTIONARY
360
198
102
}
330
2A
100
AcDbVisualStyle
  2
Thicken
 70
    13
 71
     2
 72
     2
 73
     0
 90
        0
 40
-0.6
 41
-30.0
 62
     5
 63
     7
 74
     1
 91
        4
 64
     7
 65
   257
 75
     1
175
     1
 42
1.0
 92
       12
 66
     7
 43
1.0
 76
     1
 77
     6
 78
     2
 67
     7
 79
     5
170
     0
171
     0
290
     0
174
     0
 93
        1
 44
0.0
173
     0
291
     1
 45
0.0
1001
ACAD
1000
AcDbSavedByObjectVersion
1070
     0
  0
DICTIONARYVAR
  5
17E
102
{ACAD_REACTORS
330
179
102
}
330
179
100
DictionaryVariables
280
     0
  1
2
  0
DICTIONARYVAR
  5
17F
102
{ACAD_REACTORS
330
179
102
}
330
179
100
DictionaryVariables
280
     0
  1
1
  0
DICTIONARYVAR
  5
17D
102
{ACAD_REACTORS
330
179
102
}
330
179
100
DictionaryVariables
280
     0
  1
80.000000
  0
DICTIONARYVAR
  5
17C
102
{ACAD_REACTORS
330
179
102
}
330
179
100
DictionaryVariables
280
     0
  1
5.000000
  0
DICTIONARY
  5
1A2
330
3D
100
AcDbDictionary
280
     1
281
     1
  3
ACAD_XREC_ROUNDTRIP
360
1A3
  0
DICTIONARY
  5
1A0
330
3C
100
AcDbDictionary
280
     1
281
     1
  3
ACAD_XREC_ROUNDTRIP
360
1A1
  0
DICTIONARY
  5
1A4
330
3E
100
AcDbDictionary
280
     1
281
     1
  3
ACAD_XREC_ROUNDTRIP
360
1A5
  0
DICTIONARY
  5
188
330
2F
100
AcDbDictionary
280
     1
281
     1
  3
ACAD_XREC_ROUNDTRIP
360
189
  0
DICTIONARY
  5
18C
330
31
100
AcDbDictionary
280
     1
281
     1
  3
ACAD_XREC_ROUNDTRIP
360
18D
  0
DICTIONARY
  5
18A
330
30
100
AcDbDictionary
280
     1
281
     1
  3
ACAD_XREC_ROUNDTRIP
360
18B
  0
DICTIONARY
  5
18E
330
32
100
AcDbDictionary
280
     1
281
     1
  3
ACAD_XREC_ROUNDTRIP
360
18F
  0
DICTIONARY
  5
196
330
36
100
AcDbDictionary
280
     1
281
     1
  3
ACAD_XREC_ROUNDTRIP
360
197
  0
DICTIONARY
  5
19E
330
3A
100
AcDbDictionary
280
     1
281
     1
  3
ACAD_XREC_ROUNDTRIP
360
19F
  0
DICTIONARY
  5
192
330
34
100
AcDbDictionary
280
     1
281
     1
  3
ACAD_XREC_ROUNDTRIP
360
193
  0
DICTIONARY
  5
194
330
35
100
AcDbDictionary
280
     1
281
     1
  3
ACAD_XREC_ROUNDTRIP
360
195
  0
DICTIONARY
  5
19C
330
39
100
AcDbDictionary
280
     1
281
     1
  3
ACAD_XREC_ROUNDTRIP
360
19D
  0
DICTIONARY
  5
180
330
2B
100
AcDbDictionary
280
     1
281
     1
  3
ACAD_XREC_ROUNDTRIP
360
181
  0
DICTIONARY
  5
182
330
2C
100
AcDbDictionary
280
     1
281
     1
  3
ACAD_XREC_ROUNDTRIP
360
183
  0
DICTIONARY
  5
184
330
2D
100
AcDbDictionary
280
     1
281
     1
  3
ACAD_XREC_ROUNDTRIP
360
185
  0
DICTIONARY
  5
186
330
2E
100
AcDbDictionary
280
     1
281
     1
  3
ACAD_XREC_ROUNDTRIP
360
187
  0
DICTIONARY
  5
19A
330
38
100
AcDbDictionary
280
     1
281
     1
  3
ACAD_XREC_ROUNDTRIP
360
19B
  0
DICTIONARY
  5
190
330
33
100
AcDbDictionary
280
     1
281
     1
  3
ACAD_XREC_ROUNDTRIP
360
191
  0
DICTIONARY
  5
198
330
37
100
AcDbDictionary
280
     1
281
     1
  3
ACAD_XREC_ROUNDTRIP
360
199
  0
XRECORD
  5
1A3
102
{ACAD_REACTORS
330
1A2
102
}
330
1A2
100
AcDbXrecord
280
     1
102
MATERIAL
148
0.0
149
0.0
149
0.0
 93
        0
 94
      127
282
     0
 72
     1
 77
     1
171
     1
175
     1
179
     1
273
     0
  0
XRECORD
  5
1A1
102
{ACAD_REACTORS
330
1A0
102
}
330
1A0
100
AcDbXrecord
280
     1
102
MATERIAL
148
0.0
149
0.0
149
0.0
 93
        0
 94
      127
282
     0
 72
     1
 77
     1
171
     1
175
     1
179
     1
273
     0
  0
XRECORD
  5
1A5
102
{ACAD_REACTORS
330
1A4
102
}
330
1A4
100
AcDbXrecord
280
     1
102
MATERIAL
148
0.0
149
0.0
149
0.0
 93
        0
 94
      127
282
     0
 72
     1
 77
     1
171
     1
175
     1
179
     1
273
     0
  0
XRECORD
  5
189
102
{ACAD_REACTORS
330
188
102
}
330
188
100
AcDbXrecord
280
     1
102
RTVSPropertyOp0
 70
     1
102
RTVSPropertyOp1
 70
     1
102
RTVSPropertyOp2
 70
     1
102
RTVSPropertyOp3
 70
     1
102
RTVSPropertyOp4
 70
     1
102
RTVSPropertyOp5
 70
     1
102
RTVSPropertyOp6
 70
     1
102
RTVSPropertyOp7
 70
     1
102
RTVSPropertyOp8
 70
     1
102
RTVSPropertyOp9
 70
     1
102
RTVSPropertyOp10
 70
     1
102
RTVSPropertyOp11
 70
     1
102
RTVSPropertyOp12
 70
     1
102
RTVSPropertyOp13
 70
     1
102
RTVSPropertyOp14
 70
     1
102
RTVSPropertyOp15
 70
     1
102
RTVSPropertyOp16
 70
     1
102
RTVSPropertyOp17
 70
     1
102
RTVSPropertyOp18
 70
     1
102
RTVSPropertyOp19
 70
     1
102
RTVSPropertyOp20
 70
     1
102
RTVSPropertyOp21
 70
     1
102
RTVSPropertyOp22
 70
     1
102
RTVSPropertyOp23
 70
     1
102
RTVSPropertyOp24
 70
     1
102
RTVSPropertyOp25
 70
     1
102
RTVSPropertyOp26
 70
     1
102
RTVSPropertyOp27
 70
     1
102
RTVSPropertyOp28
 70
     1
102
RTVSPropertyOp29
 70
     1
102
RTVSPropertyOp30
 70
     1
102
RTVSPropertyOp31
 70
     1
102
RTVSPropertyOp32
 70
     1
  0
XRECORD
  5
18D
102
{ACAD_REACTORS
330
18C
102
}
330
18C
100
AcDbXrecord
280
     1
102
RTVSPropertyOp0
 70
     1
102
RTVSPropertyOp1
 70
     1
102
RTVSPropertyOp2
 70
     1
102
RTVSPropertyOp3
 70
     1
102
RTVSPropertyOp4
 70
     1
102
RTVSPropertyOp5
 70
     1
102
RTVSPropertyOp6
 70
     1
102
RTVSPropertyOp7
 70
     1
102
RTVSPropertyOp8
 70
     1
102
RTVSPropertyOp9
 70
     1
102
RTVSPropertyOp10
 70
     1
102
RTVSPropertyOp11
 70
     1
102
RTVSPropertyOp12
 70
     1
102
RTVSPropertyOp13
 70
     1
102
RTVSPropertyOp14
 70
     1
102
RTVSPropertyOp15
 70
     1
102
RTVSPropertyOp16
 70
     1
102
RTVSPropertyOp17
 70
     1
102
RTVSPropertyOp18
 70
     1
102
RTVSPropertyOp19
 70
     1
102
RTVSPropertyOp20
 70
     1
102
RTVSPropertyOp21
 70
     1
102
RTVSPropertyOp22
 70
     1
102
RTVSPropertyOp23
 70
     1
102
RTVSPropertyOp24
 70
     1
102
RTVSPropertyOp25
 70
     1
102
RTVSPropertyOp26
 70
     1
102
RTVSPropertyOp27
 70
     1
102
RTVSPropertyOp28
 70
     1
102
RTVSPropertyOp29
 70
     1
102
RTVSPropertyOp30
 70
     1
102
RTVSPropertyOp31
 70
     1
102
RTVSPropertyOp32
 70
     1
  0
XRECORD
  5
18B
102
{ACAD_REACTORS
330
18A
102
}
330
18A
100
AcDbXrecord
280
     1
102
RTVSPropertyOp0
 70
     1
102
RTVSPropertyOp1
 70
     1
102
RTVSPropertyOp2
 70
     1
102
RTVSPropertyOp3
 70
     1
102
RTVSPropertyOp4
 70
     1
102
RTVSPropertyOp5
 70
     1
102
RTVSPropertyOp6
 70
     1
102
RTVSPropertyOp7
 70
     1
102
RTVSPropertyOp8
 70
     1
102
RTVSPropertyOp9
 70
     1
102
RTVSPropertyOp10
 70
     1
102
RTVSPropertyOp11
 70
     1
102
RTVSPropertyOp12
 70
     1
102
RTVSPropertyOp13
 70
     1
102
RTVSPropertyOp14
 70
     1
102
RTVSPropertyOp15
 70
     1
102
RTVSPropertyOp16
 70
     1
102
RTVSPropertyOp17
 70
     1
102
RTVSPropertyOp18
 70
     1
102
RTVSPropertyOp19
 70
     1
102
RTVSPropertyOp20
 70
     1
102
RTVSPropertyOp21
 70
     1
102
RTVSPropertyOp22
 70
     1
102
RTVSPropertyOp23
 70
     1
102
RTVSPropertyOp24
 70
     1
102
RTVSPropertyOp25
 70
     1
102
RTVSPropertyOp26
 70
     1
102
RTVSPropertyOp27
 70
     1
102
RTVSPropertyOp28
 70
     1
102
RTVSPropertyOp29
 70
     1
102
RTVSPropertyOp30
 70
     1
102
RTVSPropertyOp31
 70
     1
102
RTVSPropertyOp32
 70
     1
  0
XRECORD
  5
18F
102
{ACAD_REACTORS
330
18E
102
}
330
18E
100
AcDbXrecord
280
     1
102
RTVSPropertyOp0
 70
     1
102
RTVSPropertyOp1
 70
     1
102
RTVSPropertyOp2
 70
     1
102
RTVSPropertyOp3
 70
     1
102
RTVSPropertyOp4
 70
     1
102
RTVSPropertyOp5
 70
     1
102
RTVSPropertyOp6
 70
     1
102
RTVSPropertyOp7
 70
     1
102
RTVSPropertyOp8
 70
     1
102
RTVSPropertyOp9
 70
     1
102
RTVSPropertyOp10
 70
     1
102
RTVSPropertyOp11
 70
     1
102
RTVSPropertyOp12
 70
     1
102
RTVSPropertyOp13
 70
     1
102
RTVSPropertyOp14
 70
     1
102
RTVSPropertyOp15
 70
     1
102
RTVSPropertyOp16
 70
     1
102
RTVSPropertyOp17
 70
     1
102
RTVSPropertyOp18
 70
     1
102
RTVSPropertyOp19
 70
     1
102
RTVSPropertyOp20
 70
     1
102
RTVSPropertyOp21
 70
     1
102
RTVSPropertyOp22
 70
     1
102
RTVSPropertyOp23
 70
     1
102
RTVSPropertyOp24
 70
     1
102
RTVSPropertyOp25
 70
     1
102
RTVSPropertyOp26
 70
     1
102
RTVSPropertyOp27
 70
     1
102
RTVSPropertyOp28
 70
     1
102
RTVSPropertyOp29
 70
     1
102
RTVSPropertyOp30
 70
     1
102
RTVSPropertyOp31
 70
     1
102
RTVSPropertyOp32
 70
     1
  0
XRECORD
  5
197
102
{ACAD_REACTORS
330
196
102
}
330
196
100
AcDbXrecord
280
     1
102
RTVSPropertyOp0
 70
     1
102
RTVSPropertyOp1
 70
     1
102
RTVSPropertyOp2
 70
     1
102
RTVSPropertyOp3
 70
     1
102
RTVSPropertyOp4
 70
     1
102
RTVSPropertyOp5
 70
     1
102
RTVSPropertyOp6
 70
     1
102
RTVSPropertyOp7
 70
     1
102
RTVSPropertyOp8
 70
     1
102
RTVSPropertyOp9
 70
     1
102
RTVSPropertyOp10
 70
     1
102
RTVSPropertyOp11
 70
     1
102
RTVSPropertyOp12
 70
     1
102
RTVSPropertyOp13
 70
     1
102
RTVSPropertyOp14
 70
     1
102
RTVSPropertyOp15
 70
     1
102
RTVSPropertyOp16
 70
     1
102
RTVSPropertyOp17
 70
     1
102
RTVSPropertyOp18
 70
     1
102
RTVSPropertyOp19
 70
     1
102
RTVSPropertyOp20
 70
     1
102
RTVSPropertyOp21
 70
     1
102
RTVSPropertyOp22
 70
     1
102
RTVSPropertyOp23
 70
     1
102
RTVSPropertyOp24
 70
     1
102
RTVSPropertyOp25
 70
     1
102
RTVSPropertyOp26
 70
     1
102
RTVSPropertyOp27
 70
     1
102
RTVSPropertyOp28
 70
     1
102
RTVSPropertyOp29
 70
     1
102
RTVSPropertyOp30
 70
     1
102
RTVSPropertyOp31
 70
     1
102
RTVSPropertyOp32
 70
     1
  0
XRECORD
  5
19F
102
{ACAD_REACTORS
330
19E
102
}
330
19E
100
AcDbXrecord
280
     1
102
RTVSPropertyOp0
 70
     1
102
RTVSPropertyOp1
 70
     1
102
RTVSPropertyOp2
 70
     1
102
RTVSPropertyOp3
 70
     1
102
RTVSPropertyOp4
 70
     1
102
RTVSPropertyOp5
 70
     1
102
RTVSPropertyOp6
 70
     1
102
RTVSPropertyOp7
 70
     1
102
RTVSPropertyOp8
 70
     1
102
RTVSPropertyOp9
 70
     1
102
RTVSPropertyOp10
 70
     1
102
RTVSPropertyOp11
 70
     1
102
RTVSPropertyOp12
 70
     1
102
RTVSPropertyOp13
 70
     1
102
RTVSPropertyOp14
 70
     1
102
RTVSPropertyOp15
 70
     1
102
RTVSPropertyOp16
 70
     1
102
RTVSPropertyOp17
 70
     1
102
RTVSPropertyOp18
 70
     1
102
RTVSPropertyOp19
 70
     1
102
RTVSPropertyOp20
 70
     1
102
RTVSPropertyOp21
 70
     1
102
RTVSPropertyOp22
 70
     1
102
RTVSPropertyOp23
 70
     1
102
RTVSPropertyOp24
 70
     1
102
RTVSPropertyOp25
 70
     1
102
RTVSPropertyOp26
 70
     1
102
RTVSPropertyOp27
 70
     1
102
RTVSPropertyOp28
 70
     1
102
RTVSPropertyOp29
 70
     1
102
RTVSPropertyOp30
 70
     1
102
RTVSPropertyOp31
 70
     1
102
RTVSPropertyOp32
 70
     1
  0
XRECORD
  5
193
102
{ACAD_REACTORS
330
192
102
}
330
192
100
AcDbXrecord
280
     1
102
RTVSPropertyOp0
 70
     1
102
RTVSPropertyOp1
 70
     1
102
RTVSPropertyOp2
 70
     1
102
RTVSPropertyOp3
 70
     1
102
RTVSPropertyOp4
 70
     1
102
RTVSPropertyOp5
 70
     1
102
RTVSPropertyOp6
 70
     1
102
RTVSPropertyOp7
 70
     1
102
RTVSPropertyOp8
 70
     1
102
RTVSPropertyOp9
 70
     1
102
RTVSPropertyOp10
 70
     1
102
RTVSPropertyOp11
 70
     1
102
RTVSPropertyOp12
 70
     1
102
RTVSPropertyOp13
 70
     1
102
RTVSPropertyOp14
 70
     1
102
RTVSPropertyOp15
 70
     1
102
RTVSPropertyOp16
 70
     1
102
RTVSPropertyOp17
 70
     1
102
RTVSPropertyOp18
 70
     1
102
RTVSPropertyOp19
 70
     1
102
RTVSPropertyOp20
 70
     1
102
RTVSPropertyOp21
 70
     1
102
RTVSPropertyOp22
 70
     1
102
RTVSPropertyOp23
 70
     1
102
RTVSPropertyOp24
 70
     1
102
RTVSPropertyOp25
 70
     1
102
RTVSPropertyOp26
 70
     1
102
RTVSPropertyOp27
 70
     1
102
RTVSPropertyOp28
 70
     1
102
RTVSPropertyOp29
 70
     1
102
RTVSPropertyOp30
 70
     1
102
RTVSPropertyOp31
 70
     1
102
RTVSPropertyOp32
 70
     1
  0
XRECORD
  5
195
102
{ACAD_REACTORS
330
194
102
}
330
194
100
AcDbXrecord
280
     1
102
RTVSPropertyOp0
 70
     1
102
RTVSPropertyOp1
 70
     1
102
RTVSPropertyOp2
 70
     1
102
RTVSPropertyOp3
 70
     1
102
RTVSPropertyOp4
 70
     1
102
RTVSPropertyOp5
 70
     1
102
RTVSPropertyOp6
 70
     1
102
RTVSPropertyOp7
 70
     1
102
RTVSPropertyOp8
 70
     1
102
RTVSPropertyOp9
 70
     1
102
RTVSPropertyOp10
 70
     1
102
RTVSPropertyOp11
 70
     1
102
RTVSPropertyOp12
 70
     1
102
RTVSPropertyOp13
 70
     1
102
RTVSPropertyOp14
 70
     1
102
RTVSPropertyOp15
 70
     1
102
RTVSPropertyOp16
 70
     1
102
RTVSPropertyOp17
 70
     1
102
RTVSPropertyOp18
 70
     1
102
RTVSPropertyOp19
 70
     1
102
RTVSPropertyOp20
 70
     1
102
RTVSPropertyOp21
 70
     1
102
RTVSPropertyOp22
 70
     1
102
RTVSPropertyOp23
 70
     1
102
RTVSPropertyOp24
 70
     1
102
RTVSPropertyOp25
 70
     1
102
RTVSPropertyOp26
 70
     1
102
RTVSPropertyOp27
 70
     1
102
RTVSPropertyOp28
 70
     1
102
RTVSPropertyOp29
 70
     1
102
RTVSPropertyOp30
 70
     1
102
RTVSPropertyOp31
 70
     1
102
RTVSPropertyOp32
 70
     1
  0
XRECORD
  5
19D
102
{ACAD_REACTORS
330
19C
102
}
330
19C
100
AcDbXrecord
280
     1
102
RTVSPropertyOp0
 70
     1
102
RTVSPropertyOp1
 70
     1
102
RTVSPropertyOp2
 70
     1
102
RTVSPropertyOp3
 70
     1
102
RTVSPropertyOp4
 70
     1
102
RTVSPropertyOp5
 70
     1
102
RTVSPropertyOp6
 70
     1
102
RTVSPropertyOp7
 70
     1
102
RTVSPropertyOp8
 70
     1
102
RTVSPropertyOp9
 70
     1
102
RTVSPropertyOp10
 70
     1
102
RTVSPropertyOp11
 70
     1
102
RTVSPropertyOp12
 70
     1
102
RTVSPropertyOp13
 70
     1
102
RTVSPropertyOp14
 70
     1
102
RTVSPropertyOp15
 70
     1
102
RTVSPropertyOp16
 70
     1
102
RTVSPropertyOp17
 70
     1
102
RTVSPropertyOp18
 70
     1
102
RTVSPropertyOp19
 70
     1
102
RTVSPropertyOp20
 70
     1
102
RTVSPropertyOp21
 70
     1
102
RTVSPropertyOp22
 70
     1
102
RTVSPropertyOp23
 70
     1
102
RTVSPropertyOp24
 70
     1
102
RTVSPropertyOp25
 70
     1
102
RTVSPropertyOp26
 70
     1
102
RTVSPropertyOp27
 70
     1
102
RTVSPropertyOp28
 70
     1
102
RTVSPropertyOp29
 70
     1
102
RTVSPropertyOp30
 70
     1
102
RTVSPropertyOp31
 70
     1
102
RTVSPropertyOp32
 70
     1
  0
XRECORD
  5
181
102
{ACAD_REACTORS
330
180
102
}
330
180
100
AcDbXrecord
280
     1
102
RTVSPropertyOp0
 70
     1
102
RTVSPropertyOp1
 70
     1
102
RTVSPropertyOp2
 70
     1
102
RTVSPropertyOp3
 70
     1
102
RTVSPropertyOp4
 70
     1
102
RTVSPropertyOp5
 70
     1
102
RTVSPropertyOp6
 70
     1
102
RTVSPropertyOp7
 70
     1
102
RTVSPropertyOp8
 70
     1
102
RTVSPropertyOp9
 70
     1
102
RTVSPropertyOp10
 70
     1
102
RTVSPropertyOp11
 70
     1
102
RTVSPropertyOp12
 70
     1
102
RTVSPropertyOp13
 70
     1
102
RTVSPropertyOp14
 70
     1
102
RTVSPropertyOp15
 70
     1
102
RTVSPropertyOp16
 70
     1
102
RTVSPropertyOp17
 70
     1
102
RTVSPropertyOp18
 70
     1
102
RTVSPropertyOp19
 70
     1
102
RTVSPropertyOp20
 70
     1
102
RTVSPropertyOp21
 70
     1
102
RTVSPropertyOp22
 70
     1
102
RTVSPropertyOp23
 70
     1
102
RTVSPropertyOp24
 70
     1
102
RTVSPropertyOp25
 70
     1
102
RTVSPropertyOp26
 70
     1
102
RTVSPropertyOp27
 70
     1
102
RTVSPropertyOp28
 70
     1
102
RTVSPropertyOp29
 70
     1
102
RTVSPropertyOp30
 70
     1
102
RTVSPropertyOp31
 70
     1
102
RTVSPropertyOp32
 70
     1
  0
XRECORD
  5
183
102
{ACAD_REACTORS
330
182
102
}
330
182
100
AcDbXrecord
280
     1
102
RTVSPropertyOp0
 70
     1
102
RTVSPropertyOp1
 70
     1
102
RTVSPropertyOp2
 70
     1
102
RTVSPropertyOp3
 70
     1
102
RTVSPropertyOp4
 70
     1
102
RTVSPropertyOp5
 70
     1
102
RTVSPropertyOp6
 70
     1
102
RTVSPropertyOp7
 70
     1
102
RTVSPropertyOp8
 70
     1
102
RTVSPropertyOp9
 70
     1
102
RTVSPropertyOp10
 70
     1
102
RTVSPropertyOp11
 70
     1
102
RTVSPropertyOp12
 70
     1
102
RTVSPropertyOp13
 70
     1
102
RTVSPropertyOp14
 70
     1
102
RTVSPropertyOp15
 70
     1
102
RTVSPropertyOp16
 70
     1
102
RTVSPropertyOp17
 70
     1
102
RTVSPropertyOp18
 70
     1
102
RTVSPropertyOp19
 70
     1
102
RTVSPropertyOp20
 70
     1
102
RTVSPropertyOp21
 70
     1
102
RTVSPropertyOp22
 70
     1
102
RTVSPropertyOp23
 70
     1
102
RTVSPropertyOp24
 70
     1
102
RTVSPropertyOp25
 70
     1
102
RTVSPropertyOp26
 70
     1
102
RTVSPropertyOp27
 70
     1
102
RTVSPropertyOp28
 70
     1
102
RTVSPropertyOp29
 70
     1
102
RTVSPropertyOp30
 70
     1
102
RTVSPropertyOp31
 70
     1
102
RTVSPropertyOp32
 70
     1
  0
XRECORD
  5
185
102
{ACAD_REACTORS
330
184
102
}
330
184
100
AcDbXrecord
280
     1
102
RTVSPropertyOp0
 70
     1
102
RTVSPropertyOp1
 70
     1
102
RTVSPropertyOp2
 70
     1
102
RTVSPropertyOp3
 70
     1
102
RTVSPropertyOp4
 70
     1
102
RTVSPropertyOp5
 70
     1
102
RTVSPropertyOp6
 70
     1
102
RTVSPropertyOp7
 70
     1
102
RTVSPropertyOp8
 70
     1
102
RTVSPropertyOp9
 70
     1
102
RTVSPropertyOp10
 70
     1
102
RTVSPropertyOp11
 70
     1
102
RTVSPropertyOp12
 70
     1
102
RTVSPropertyOp13
 70
     1
102
RTVSPropertyOp14
 70
     1
102
RTVSPropertyOp15
 70
     1
102
RTVSPropertyOp16
 70
     1
102
RTVSPropertyOp17
 70
     1
102
RTVSPropertyOp18
 70
     1
102
RTVSPropertyOp19
 70
     1
102
RTVSPropertyOp20
 70
     1
102
RTVSPropertyOp21
 70
     1
102
RTVSPropertyOp22
 70
     1
102
RTVSPropertyOp23
 70
     1
102
RTVSPropertyOp24
 70
     1
102
RTVSPropertyOp25
 70
     1
102
RTVSPropertyOp26
 70
     1
102
RTVSPropertyOp27
 70
     1
102
RTVSPropertyOp28
 70
     1
102
RTVSPropertyOp29
 70
     1
102
RTVSPropertyOp30
 70
     1
102
RTVSPropertyOp31
 70
     1
102
RTVSPropertyOp32
 70
     1
  0
XRECORD
  5
187
102
{ACAD_REACTORS
330
186
102
}
330
186
100
AcDbXrecord
280
     1
102
RTVSPropertyOp0
 70
     1
102
RTVSPropertyOp1
 70
     1
102
RTVSPropertyOp2
 70
     1
102
RTVSPropertyOp3
 70
     1
102
RTVSPropertyOp4
 70
     1
102
RTVSPropertyOp5
 70
     1
102
RTVSPropertyOp6
 70
     1
102
RTVSPropertyOp7
 70
     1
102
RTVSPropertyOp8
 70
     1
102
RTVSPropertyOp9
 70
     1
102
RTVSPropertyOp10
 70
     1
102
RTVSPropertyOp11
 70
     1
102
RTVSPropertyOp12
 70
     1
102
RTVSPropertyOp13
 70
     1
102
RTVSPropertyOp14
 70
     1
102
RTVSPropertyOp15
 70
     1
102
RTVSPropertyOp16
 70
     1
102
RTVSPropertyOp17
 70
     1
102
RTVSPropertyOp18
 70
     1
102
RTVSPropertyOp19
 70
     1
102
RTVSPropertyOp20
 70
     1
102
RTVSPropertyOp21
 70
     1
102
RTVSPropertyOp22
 70
     1
102
RTVSPropertyOp23
 70
     1
102
RTVSPropertyOp24
 70
     1
102
RTVSPropertyOp25
 70
     1
102
RTVSPropertyOp26
 70
     1
102
RTVSPropertyOp27
 70
     1
102
RTVSPropertyOp28
 70
     1
102
RTVSPropertyOp29
 70
     1
102
RTVSPropertyOp30
 70
     1
102
RTVSPropertyOp31
 70
     1
102
RTVSPropertyOp32
 70
     1
  0
XRECORD
  5
19B
102
{ACAD_REACTORS
330
19A
102
}
330
19A
100
AcDbXrecord
280
     1
102
RTVSPropertyOp0
 70
     1
102
RTVSPropertyOp1
 70
     1
102
RTVSPropertyOp2
 70
     1
102
RTVSPropertyOp3
 70
     1
102
RTVSPropertyOp4
 70
     1
102
RTVSPropertyOp5
 70
     1
102
RTVSPropertyOp6
 70
     1
102
RTVSPropertyOp7
 70
     1
102
RTVSPropertyOp8
 70
     1
102
RTVSPropertyOp9
 70
     1
102
RTVSPropertyOp10
 70
     1
102
RTVSPropertyOp11
 70
     1
102
RTVSPropertyOp12
 70
     1
102
RTVSPropertyOp13
 70
     1
102
RTVSPropertyOp14
 70
     1
102
RTVSPropertyOp15
 70
     1
102
RTVSPropertyOp16
 70
     1
102
RTVSPropertyOp17
 70
     1
102
RTVSPropertyOp18
 70
     1
102
RTVSPropertyOp19
 70
     1
102
RTVSPropertyOp20
 70
     1
102
RTVSPropertyOp21
 70
     1
102
RTVSPropertyOp22
 70
     1
102
RTVSPropertyOp23
 70
     1
102
RTVSPropertyOp24
 70
     1
102
RTVSPropertyOp25
 70
     1
102
RTVSPropertyOp26
 70
     1
102
RTVSPropertyOp27
 70
     1
102
RTVSPropertyOp28
 70
     1
102
RTVSPropertyOp29
 70
     1
102
RTVSPropertyOp30
 70
     1
102
RTVSPropertyOp31
 70
     1
102
RTVSPropertyOp32
 70
     1
  0
XRECORD
  5
191
102
{ACAD_REACTORS
330
190
102
}
330
190
100
AcDbXrecord
280
     1
102
RTVSPropertyOp0
 70
     1
102
RTVSPropertyOp1
 70
     1
102
RTVSPropertyOp2
 70
     1
102
RTVSPropertyOp3
 70
     1
102
RTVSPropertyOp4
 70
     1
102
RTVSPropertyOp5
 70
     1
102
RTVSPropertyOp6
 70
     1
102
RTVSPropertyOp7
 70
     1
102
RTVSPropertyOp8
 70
     1
102
RTVSPropertyOp9
 70
     1
102
RTVSPropertyOp10
 70
     1
102
RTVSPropertyOp11
 70
     1
102
RTVSPropertyOp12
 70
     1
102
RTVSPropertyOp13
 70
     1
102
RTVSPropertyOp14
 70
     1
102
RTVSPropertyOp15
 70
     1
102
RTVSPropertyOp16
 70
     1
102
RTVSPropertyOp17
 70
     1
102
RTVSPropertyOp18
 70
     1
102
RTVSPropertyOp19
 70
     1
102
RTVSPropertyOp20
 70
     1
102
RTVSPropertyOp21
 70
     1
102
RTVSPropertyOp22
 70
     1
102
RTVSPropertyOp23
 70
     1
102
RTVSPropertyOp24
 70
     1
102
RTVSPropertyOp25
 70
     1
102
RTVSPropertyOp26
 70
     1
102
RTVSPropertyOp27
 70
     1
102
RTVSPropertyOp28
 70
     1
102
RTVSPropertyOp29
 70
     1
102
RTVSPropertyOp30
 70
     1
102
RTVSPropertyOp31
 70
     1
102
RTVSPropertyOp32
 70
     1
  0
XRECORD
  5
199
102
{ACAD_REACTORS
330
198
102
}
330
198
100
AcDbXrecord
280
     1
102
RTVSPropertyOp0
 70
     1
102
RTVSPropertyOp1
 70
     1
102
RTVSPropertyOp2
 70
     1
102
RTVSPropertyOp3
 70
     1
102
RTVSPropertyOp4
 70
     1
102
RTVSPropertyOp5
 70
     1
102
RTVSPropertyOp6
 70
     1
102
RTVSPropertyOp7
 70
     1
102
RTVSPropertyOp8
 70
     1
102
RTVSPropertyOp9
 70
     1
102
RTVSPropertyOp10
 70
     1
102
RTVSPropertyOp11
 70
     1
102
RTVSPropertyOp12
 70
     1
102
RTVSPropertyOp13
 70
     1
102
RTVSPropertyOp14
 70
     1
102
RTVSPropertyOp15
 70
     1
102
RTVSPropertyOp16
 70
     1
102
RTVSPropertyOp17
 70
     1
102
RTVSPropertyOp18
 70
     1
102
RTVSPropertyOp19
 70
     1
102
RTVSPropertyOp20
 70
     1
102
RTVSPropertyOp21
 70
     1
102
RTVSPropertyOp22
 70
     1
102
RTVSPropertyOp23
 70
     1
102
RTVSPropertyOp24
 70
     1
102
RTVSPropertyOp25
 70
     1
102
RTVSPropertyOp26
 70
     1
102
RTVSPropertyOp27
 70
     1
102
RTVSPropertyOp28
 70
     1
102
RTVSPropertyOp29
 70
     1
102
RTVSPropertyOp30
 70
     1
102
RTVSPropertyOp31
 70
     1
102
RTVSPropertyOp32
 70
     1
  0
ENDSEC
  0
EOF
