  0
SECTION
  2
HEADER
  9
$ACADVER
  1
AC1015
  9
$ACADMAINTVER
 70
     6
  9
$DWGCODEPAGE
  3
ANSI_1252
  9
$INSBASE
 10
0.0
 20
0.0
 30
0.0
  9
$EXTMIN
 10
0.0
 20
0.0
 30
0.0
  9
$EXTMAX
 10
594.0
 20
420.0
 30
0.0
  9
$LIMMIN
 10
0.0
 20
0.0
  9
$LIMMAX
 10
594.0
 20
420.0
  9
$ORTHOMODE
 70
     0
  9
$REGENMODE
 70
     1
  9
$FILLMODE
 70
     1
  9
$QTEXTMODE
 70
     0
  9
$MIRRTEXT
 70
     1
  9
$LTSCALE
 40
1.0
  9
$ATTMODE
 70
     1
  9
$TEXTSIZE
 40
2.5
  9
$TRACEWID
 40
1.0
  9
$TEXTSTYLE
  7
Standard
  9
$CLAYER
  8
0
  9
$CELTYPE
  6
ByLayer
  9
$CECOLOR
 62
   256
  9
$CELTSCALE
 40
1.0
  9
$DISPSILH
 70
     0
  9
$DIMSCALE
 40
1.0
  9
$DIMASZ
 40
2.5
  9
$DIMEXO
 40
0.625
  9
$DIMDLI
 40
3.75
  9
$DIMRND
 40
0.0
  9
$DIMDLE
 40
0.0
  9
$DIMEXE
 40
1.25
  9
$DIMTP
 40
0.0
  9
$DIMTM
 40
0.0
  9
$DIMTXT
 40
2.5
  9
$DIMCEN
 40
2.5
  9
$DIMTSZ
 40
0.0
  9
$DIMTOL
 70
     0
  9
$DIMLIM
 70
     0
  9
$DIMTIH
 70
     0
  9
$DIMTOH
 70
     0
  9
$DIMSE1
 70
     0
  9
$DIMSE2
 70
     0
  9
$DIMTAD
 70
     1
  9
$DIMZIN
 70
     8
  9
$DIMBLK
  1

  9
$DIMASO
 70
     1
  9
$DIMSHO
 70
     1
  9
$DIMPOST
  1

  9
$DIMAPOST
  1

  9
$DIMALT
 70
     0
  9
$DIMALTD
 70
     3
  9
$DIMALTF
 40
0.0393700787
  9
$DIMLFAC
 40
1.0
  9
$DIMTOFL
 70
     1
  9
$DIMTVP
 40
0.0
  9
$DIMTIX
 70
     0
  9
$DIMSOXD
 70
     0
  9
$DIMSAH
 70
     0
  9
$DIMBLK1
  1

  9
$DIMBLK2
  1

  9
$DIMSTYLE
  2
ISO-25
  9
$DIMCLRD
 70
     0
  9
$DIMCLRE
 70
     0
  9
$DIMCLRT
 70
     0
  9
$DIMTFAC
 40
1.0
  9
$DIMGAP
 40
0.625
  9
$DIMJUST
 70
     0
  9
$DIMSD1
 70
     0
  9
$DIMSD2
 70
     0
  9
$DIMTOLJ
 70
     0
  9
$DIMTZIN
 70
     8
  9
$DIMALTZ
 70
     0
  9
$DIMALTTZ
 70
     0
  9
$DIMUPT
 70
     0
  9
$DIMDEC
 70
     2
  9
$DIMTDEC
 70
     2
  9
$DIMALTU
 70
     2
  9
$DIMALTTD
 70
     3
  9
$DIMTXSTY
  7
Standard
  9
$DIMAUNIT
 70
     0
  9
$DIMADEC
 70
     0
  9
$DIMALTRND
 40
0.0
  9
$DIMAZIN
 70
     0
  9
$DIMDSEP
 70
    44
  9
$DIMATFIT
 70
     3
  9
$DIMFRAC
 70
     0
  9
$DIMLDRBLK
  1

  9
$DIMLUNIT
 70
     2
  9
$DIMLWD
 70
    -2
  9
$DIMLWE
 70
    -2
  9
$DIMTMOVE
 70
     0
  9
$LUNITS
 70
     2
  9
$LUPREC
 70
     4
  9
$SKETCHINC
 40
1.0
  9
$FILLETRAD
 40
10.0
  9
$AUNITS
 70
     0
  9
$AUPREC
 70
     0
  9
$MENU
  1
.
  9
$ELEVATION
 40
0.0
  9
$PELEVATION
 40
0.0
  9
$THICKNESS
 40
0.0
  9
$LIMCHECK
 70
     0
  9
$CHAMFERA
 40
10.0
  9
$CHAMFERB
 40
10.0
  9
$CHAMFERC
 40
20.0
  9
$CHAMFERD
 40
0.0
  9
$SKPOLY
 70
     0
  9
$TDCREATE
 40
2456821.931082697
  9
$TDUCREATE
 40
2456821.847749364
  9
$TDUPDATE
 40
2456821.931084584
  9
$TDUUPDATE
 40
2456821.84775125
  9
$TDINDWG
 40
0.0000000116
  9
$TDUSRTIMER
 40
0.0000000116
  9
$USRTIMER
 70
     1
  9
$ANGBASE
 50
0.0
  9
$ANGDIR
 70
     0
  9
$PDMODE
 70
     0
  9
$PDSIZE
 40
0.0
  9
$PLINEWID
 40
0.0
  9
$SPLFRAME
 70
     0
  9
$SPLINETYPE
 70
     6
  9
$SPLINESEGS
 70
     8
  9
$HANDSEED
  5
13C
  9
$SURFTAB1
 70
     6
  9
$SURFTAB2
 70
     6
  9
$SURFTYPE
 70
     6
  9
$SURFU
 70
     6
  9
$SURFV
 70
     6
  9
$UCSBASE
  2

  9
$UCSNAME
  2

  9
$UCSORG
 10
0.0
 20
0.0
 30
0.0
  9
$UCSXDIR
 10
1.0
 20
0.0
 30
0.0
  9
$UCSYDIR
 10
0.0
 20
1.0
 30
0.0
  9
$UCSORTHOREF
  2

  9
$UCSORTHOVIEW
 70
     0
  9
$UCSORGTOP
 10
0.0
 20
0.0
 30
0.0
  9
$UCSORGBOTTOM
 10
0.0
 20
0.0
 30
0.0
  9
$UCSORGLEFT
 10
0.0
 20
0.0
 30
0.0
  9
$UCSORGRIGHT
 10
0.0
 20
0.0
 30
0.0
  9
$UCSORGFRONT
 10
0.0
 20
0.0
 30
0.0
  9
$UCSORGBACK
 10
0.0
 20
0.0
 30
0.0
  9
$PUCSBASE
  2

  9
$PUCSNAME
  2

  9
$PUCSORG
 10
0.0
 20
0.0
 30
0.0
  9
$PUCSXDIR
 10
1.0
 20
0.0
 30
0.0
  9
$PUCSYDIR
 10
0.0
 20
1.0
 30
0.0
  9
$PUCSORTHOREF
  2

  9
$PUCSORTHOVIEW
 70
     0
  9
$PUCSORGTOP
 10
0.0
 20
0.0
 30
0.0
  9
$PUCSORGBOTTOM
 10
0.0
 20
0.0
 30
0.0
  9
$PUCSORGLEFT
 10
0.0
 20
0.0
 30
0.0
  9
$PUCSORGRIGHT
 10
0.0
 20
0.0
 30
0.0
  9
$PUCSORGFRONT
 10
0.0
 20
0.0
 30
0.0
  9
$PUCSORGBACK
 10
0.0
 20
0.0
 30
0.0
  9
$USERI1
 70
     0
  9
$USERI2
 70
     0
  9
$USERI3
 70
     0
  9
$USERI4
 70
     0
  9
$USERI5
 70
     0
  9
$USERR1
 40
0.0
  9
$USERR2
 40
0.0
  9
$USERR3
 40
0.0
  9
$USERR4
 40
0.0
  9
$USERR5
 40
0.0
  9
$WORLDVIEW
 70
     1
  9
$SHADEDGE
 70
     3
  9
$SHADEDIF
 70
    70
  9
$TILEMODE
 70
     1
  9
$MAXACTVP
 70
    64
  9
$PINSBASE
 10
0.0
 20
0.0
 30
0.0
  9
$PLIMCHECK
 70
     0
  9
$PEXTMIN
 10
0.0
 20
0.0
 30
0.0
  9
$PEXTMAX
 10
594.0
 20
420.0
 30
0.0
  9
$PLIMMIN
 10
0.0
 20
0.0
  9
$PLIMMAX
 10
594.0
 20
420.0
  9
$UNITMODE
 70
     0
  9
$VISRETAIN
 70
     1
  9
$PLINEGEN
 70
     0
  9
$PSLTSCALE
 70
     1
  9
$TREEDEPTH
 70
  3020
  9
$CMLSTYLE
  2
Standard
  9
$CMLJUST
 70
     0
  9
$CMLSCALE
 40
20.0
  9
$PROXYGRAPHICS
 70
     1
  9
$MEASUREMENT
 70
     1
  9
$CELWEIGHT
370
    -1
  9
$ENDCAPS
280
     0
  9
$JOINSTYLE
280
     0
  9
$LWDISPLAY
290
     0
  9
$INSUNITS
 70
     4
  9
$HYPERLINKBASE
  1

  9
$STYLESHEET
  1

  9
$XEDIT
290
     1
  9
$CEPSNTYPE
380
     0
  9
$PSTYLEMODE
290
     1
  9
$FINGERPRINTGUID
  2
{555C55F8-CE5A-4ED0-A730-6A5E6CB6D85B}
  9
$VERSIONGUID
  2
{FAEB1C32-E019-11D5-929B-00C0DF256EC4}
  9
$EXTNAMES
290
     1
  9
$PSVPSCALE
 40
0.0
  9
$OLESTARTUP
290
     0
  0
ENDSEC
  0
SECTION
  2
CLASSES
  0
CLASS
  1
ACDBDICTIONARYWDFLT
  2
AcDbDictionaryWithDefault
  3
ObjectDBX Classes
 90
        0
280
     0
281
     0
  0
CLASS
  1
VISUALSTYLE
  2
AcDbVisualStyle
  3
ObjectDBX Classes
 90
     4095
280
     0
281
     0
  0
CLASS
  1
MATERIAL
  2
AcDbMaterial
  3
ObjectDBX Classes
 90
     1153
280
     0
281
     0
  0
CLASS
  1
DICTIONARYVAR
  2
AcDbDictionaryVar
  3
ObjectDBX Classes
 90
        0
280
     0
281
     0
  0
CLASS
  1
ACDBPLACEHOLDER
  2
AcDbPlaceHolder
  3
ObjectDBX Classes
 90
        0
280
     0
281
     0
  0
CLASS
  1
LAYOUT
  2
AcDbLayout
  3
ObjectDBX Classes
 90
        0
280
     0
281
     0
  0
ENDSEC
  0
SECTION
  2
TABLES
  0
TABLE
  2
VPORT
  5
8
330
0
100
AcDbSymbolTable
 70
     1
  0
VPORT
  5
29
330
8
100
AcDbSymbolTableRecord
100
AcDbViewportTableRecord
  2
*Active
 70
     0
 10
0.0
 20
0.0
 11
1.0
 21
1.0
 12
344.1869158879
 22
148.5
 13
0.0
 23
0.0
 14
10.0
 24
10.0
 15
10.0
 25
10.0
 16
0.0
 26
0.0
 36
1.0
 17
0.0
 27
0.0
 37
0.0
 40
297.0
 41
1.9729729729
 42
50.0
 43
0.0
 44
0.0
 50
0.0
 51
0.0
 71
     0
 72
   100
 73
     1
 74
     3
 75
     0
 76
     0
 77
     0
 78
     0
281
     0
 65
     1
110
0.0
120
0.0
130
0.0
111
1.0
121
0.0
131
0.0
112
0.0
122
1.0
132
0.0
 79
     0
146
0.0
  0
ENDTAB
  0
TABLE
  2
LTYPE
  5
5
330
0
100
AcDbSymbolTable
 70
     2
  0
LTYPE
  5
14
330
5
100
AcDbSymbolTableRecord
100
AcDbLinetypeTableRecord
  2
ByBlock
 70
     0
  3

 72
    65
 73
     0
 40
0.0
  0
LTYPE
  5
15
330
5
100
AcDbSymbolTableRecord
100
AcDbLinetypeTableRecord
  2
ByLayer
 70
     0
  3

 72
    65
 73
     0
 40
0.0
  0
LTYPE
  5
16
330
5
100
AcDbSymbolTableRecord
100
AcDbLinetypeTableRecord
  2
Continuous
 70
     0
  3
Solid line
 72
    65
 73
     0
 40
0.0
  0
LTYPE
  5
42
330
5
100
AcDbSymbolTableRecord
100
AcDbLinetypeTableRecord
  2
CENTER2
 70
     0
  3
Center (.5x) ___ _ ___ _ ___ _ ___ _ ___ _ ___
 72
    65
 73
     4
 40
28.575
 49
19.05
 74
     4
 75
     0
340
0
 46
0.0
 50
0.0
 44
0.0
 45
0.0
 49
-3.175
 74
     4
 75
     0
340
0
 46
0.0
 50
0.0
 44
0.0
 45
0.0
 49
3.175
 74
     4
 75
     0
340
0
 46
0.0
 50
0.0
 44
0.0
 45
0.0
 49
-3.175
 74
     4
 75
     0
340
0
 46
0.0
 50
0.0
 44
0.0
 45
0.0
  0
ENDTAB
  0
TABLE
  2
LAYER
  5
2
330
0
100
AcDbSymbolTable
 70
     4
  0
LAYER
  5
10
330
2
100
AcDbSymbolTableRecord
100
AcDbLayerTableRecord
  2
0
 70
     0
 62
     7
  6
Continuous
370
    -3
390
F
  0
LAYER
  5
3F
330
2
100
AcDbSymbolTableRecord
100
AcDbLayerTableRecord
  2
Maﬂe
 70
     0
 62
     7
  6
Continuous
370
    -3
390
F
  0
LAYER
  5
6E
330
2
100
AcDbSymbolTableRecord
100
AcDbLayerTableRecord
  2
Default
 70
     0
 62
     7
  6
Continuous
370
    -3
390
F
  0
LAYER
  5
71
330
2
100
AcDbSymbolTableRecord
100
AcDbLayerTableRecord
  2
UNTERFAHRSCHUTZ_
 70
     0
 62
     7
  6
Continuous
370
    -3
390
F
  0
ENDTAB
  0
TABLE
  2
STYLE
  5
3
330
0
100
AcDbSymbolTable
 70
     3
  0
STYLE
  5
11
330
3
100
AcDbSymbolTableRecord
100
AcDbTextStyleTableRecord
  2
Standard
 70
     0
 40
0.0
 41
1.0
 50
0.0
 71
     0
 42
2.5
  3
txt
  4

  0
STYLE
  5
B2
330
3
100
AcDbSymbolTableRecord
100
AcDbTextStyleTableRecord
  2
SEACAD_Solid_Edge_ISO
 70
     0
 40
0.0
 41
1.0
 50
0.0
 71
     0
 42
0.2
  3
seiso.ttf
  4

1001
ACAD
1000
Solid Edge ISO
1071
        0
  0
STYLE
  5
EB
330
3
100
AcDbSymbolTableRecord
100
AcDbTextStyleTableRecord
  2
SEACAD_Solid_Edge_ISO1_Symbols
 70
     0
 40
0.0
 41
1.0
 50
0.0
 71
     0
 42
0.2
  3
semeci1.ttf
  4

1001
ACAD
1000
Solid Edge ISO1 Symbols
1071
        0
  0
ENDTAB
  0
TABLE
  2
VIEW
  5
6
330
0
100
AcDbSymbolTable
 70
     0
  0
ENDTAB
  0
TABLE
  2
UCS
  5
7
330
0
100
AcDbSymbolTable
 70
     0
  0
ENDTAB
  0
TABLE
  2
APPID
  5
9
330
0
100
AcDbSymbolTable
 70
     1
  0
APPID
  5
12
330
9
100
AcDbSymbolTableRecord
100
AcDbRegAppTableRecord
  2
ACAD
 70
     0
  0
ENDTAB
  0
TABLE
  2
DIMSTYLE
  5
A
330
0
100
AcDbSymbolTable
 70
     3
100
AcDbDimStyleTable
  0
DIMSTYLE
105
27
330
A
100
AcDbSymbolTableRecord
100
AcDbDimStyleTableRecord
  2
ISO-25
 70
     0
 41
2.5
 42
0.625
 43
3.75
 44
1.25
 73
     0
 74
     0
 77
     1
 78
     8
140
2.5
141
2.5
143
0.0393700787
147
0.625
171
     3
172
     1
178
     0
271
     2
272
     2
274
     3
278
    44
283
     0
284
     8
340
11
  0
DIMSTYLE
105
A0
330
A
100
AcDbSymbolTableRecord
100
AcDbDimStyleTableRecord
  2
Standard
 70
     0
178
     0
340
11
  0
DIMSTYLE
105
B3
102
{ACAD_REACTORS
330
B4
330
BE
330
C8
330
D2
330
DA
330
E2
330
EA
330
F5
330
FD
330
105
102
}
330
A
100
AcDbSymbolTableRecord
100
AcDbDimStyleTableRecord
  2
ISO
 70
     0
 41
3.5
 42
0.0
 44
1.75
 73
     0
 74
     0
 77
     1
 78
     8
140
3.5
141
1.75
147
1.75
172
     1
173
     1
178
     0
271
     2
272
     2
278
    44
284
     8
340
B2
343
AD
344
AD
  0
ENDTAB
  0
TABLE
  2
BLOCK_RECORD
  5
1
330
0
100
AcDbSymbolTable
 70
    21
  0
BLOCK_RECORD
  5
1F
330
1
100
AcDbSymbolTableRecord
100
AcDbBlockTableRecord
  2
*Model_Space
340
22
  0
BLOCK_RECORD
  5
1B
330
1
100
AcDbSymbolTableRecord
100
AcDbBlockTableRecord
  2
*Paper_Space
340
1E
  0
BLOCK_RECORD
  5
40
330
1
100
AcDbSymbolTableRecord
100
AcDbBlockTableRecord
  2
SEANNOT_GROUP
340
0
102
{BLKREFS
331
41
102
}
  0
BLOCK_RECORD
  5
4B
330
1
100
AcDbSymbolTableRecord
100
AcDbBlockTableRecord
  2
SEANNOT_GROUP1
340
0
102
{BLKREFS
331
4C
102
}
  0
BLOCK_RECORD
  5
55
330
1
100
AcDbSymbolTableRecord
100
AcDbBlockTableRecord
  2
SEANNOT_GROUP2
340
0
102
{BLKREFS
331
56
102
}
  0
BLOCK_RECORD
  5
5F
330
1
100
AcDbSymbolTableRecord
100
AcDbBlockTableRecord
  2
SEANNOT_GROUP3
340
0
102
{BLKREFS
331
60
102
}
  0
BLOCK_RECORD
  5
69
330
1
100
AcDbSymbolTableRecord
100
AcDbBlockTableRecord
  2
SEANNOT_GROUP4
340
0
102
{BLKREFS
331
6A
102
}
  0
BLOCK_RECORD
  5
6F
330
1
100
AcDbSymbolTableRecord
100
AcDbBlockTableRecord
  2
SE
340
0
102
{BLKREFS
331
70
102
}
  0
BLOCK_RECORD
  5
8C
330
1
100
AcDbSymbolTableRecord
100
AcDbBlockTableRecord
  2
SE1
340
0
102
{BLKREFS
331
8D
102
}
  0
BLOCK_RECORD
  5
A1
330
1
100
AcDbSymbolTableRecord
100
AcDbBlockTableRecord
  2
_OBLIQUE
340
0
  0
BLOCK_RECORD
  5
A5
330
1
100
AcDbSymbolTableRecord
100
AcDbBlockTableRecord
  2
_DOT
340
0
  0
BLOCK_RECORD
  5
AD
330
1
100
AcDbSymbolTableRecord
100
AcDbBlockTableRecord
  2
_SE_FILLED
340
0
  0
BLOCK_RECORD
  5
B5
330
1
100
AcDbSymbolTableRecord
100
AcDbBlockTableRecord
  2
DMBLK147
340
0
  0
BLOCK_RECORD
  5
BF
330
1
100
AcDbSymbolTableRecord
100
AcDbBlockTableRecord
  2
DMBLK148
340
0
  0
BLOCK_RECORD
  5
C9
330
1
100
AcDbSymbolTableRecord
100
AcDbBlockTableRecord
  2
DMBLK149
340
0
  0
BLOCK_RECORD
  5
D3
330
1
100
AcDbSymbolTableRecord
100
AcDbBlockTableRecord
  2
DMBLK150
340
0
  0
BLOCK_RECORD
  5
DB
330
1
100
AcDbSymbolTableRecord
100
AcDbBlockTableRecord
  2
DMBLK151
340
0
  0
BLOCK_RECORD
  5
E3
330
1
100
AcDbSymbolTableRecord
100
AcDbBlockTableRecord
  2
DMBLK152
340
0
  0
BLOCK_RECORD
  5
EC
330
1
100
AcDbSymbolTableRecord
100
AcDbBlockTableRecord
  2
DMBLK153
340
0
  0
BLOCK_RECORD
  5
F6
330
1
100
AcDbSymbolTableRecord
100
AcDbBlockTableRecord
  2
DMBLK154
340
0
  0
BLOCK_RECORD
  5
FE
330
1
100
AcDbSymbolTableRecord
100
AcDbBlockTableRecord
  2
DMBLK155
340
0
  0
BLOCK_RECORD
  5
106
330
1
100
AcDbSymbolTableRecord
100
AcDbBlockTableRecord
  2
DMBLK156
340
0
  0
ENDTAB
  0
ENDSEC
  0
SECTION
  2
BLOCKS
  0
BLOCK
  5
20
330
1F
100
AcDbEntity
  8
0
100
AcDbBlockBegin
  2
*Model_Space
 70
     0
 10
0.0
 20
0.0
 30
0.0
  3
*Model_Space
  1

  0
ENDBLK
  5
21
330
1F
100
AcDbEntity
  8
0
100
AcDbBlockEnd
  0
BLOCK
  5
1C
330
1B
100
AcDbEntity
 67
     1
  8
0
100
AcDbBlockBegin
  2
*Paper_Space
 70
     0
 10
0.0
 20
0.0
 30
0.0
  3
*Paper_Space
  1

  0
ENDBLK
  5
1D
330
1B
100
AcDbEntity
 67
     1
  8
0
100
AcDbBlockEnd
  0
BLOCK
  5
49
330
40
100
AcDbEntity
  8
0
100
AcDbBlockBegin
  2
SEANNOT_GROUP
 70
     0
 10
0.0
 20
0.0
 30
0.0
  3
SEANNOT_GROUP
  1

  0
LINE
  5
43
330
40
100
AcDbEntity
  8
Maﬂe
  6
CENTER2
 62
     7
100
AcDbLine
 10
184.5109309904
 20
186.1603765957
 30
0.0
 11
170.5109305583
 21
186.1603765957
 31
0.0
  0
LINE
  5
44
330
40
100
AcDbEntity
  8
Maﬂe
  6
CENTER2
 62
     7
100
AcDbLine
 10
177.5109307743
 20
193.1603768117
 30
0.0
 11
177.5109307743
 21
179.1603763796
 31
0.0
  0
LINE
  5
45
330
40
100
AcDbEntity
  8
Maﬂe
  6
CENTER2
 62
     7
100
AcDbLine
 10
186.2609310444
 20
186.1603765957
 30
0.0
 11
185.0109307743
 21
186.1603765957
 31
0.0
  0
LINE
  5
46
330
40
100
AcDbEntity
  8
Maﬂe
  6
CENTER2
 62
     7
100
AcDbLine
 10
177.5109307743
 20
194.9103768657
 30
0.0
 11
177.5109307743
 21
193.6603765957
 31
0.0
  0
LINE
  5
47
330
40
100
AcDbEntity
  8
Maﬂe
  6
CENTER2
 62
     7
100
AcDbLine
 10
168.7609305042
 20
186.1603765957
 30
0.0
 11
170.0109307743
 21
186.1603765957
 31
0.0
  0
LINE
  5
48
330
40
100
AcDbEntity
  8
Maﬂe
  6
CENTER2
 62
     7
100
AcDbLine
 10
177.5109307743
 20
177.4103763256
 30
0.0
 11
177.5109307743
 21
178.6603765957
 31
0.0
  0
ENDBLK
  5
4A
330
40
100
AcDbEntity
  8
0
100
AcDbBlockEnd
  0
BLOCK
  5
53
330
4B
100
AcDbEntity
  8
0
100
AcDbBlockBegin
  2
SEANNOT_GROUP1
 70
     0
 10
0.0
 20
0.0
 30
0.0
  3
SEANNOT_GROUP1
  1

  0
LINE
  5
4D
330
4B
100
AcDbEntity
  8
Maﬂe
  6
CENTER2
 62
     7
100
AcDbLine
 10
297.5109309904
 20
124.1603765957
 30
0.0
 11
283.5109305583
 21
124.1603765957
 31
0.0
  0
LINE
  5
4E
330
4B
100
AcDbEntity
  8
Maﬂe
  6
CENTER2
 62
     7
100
AcDbLine
 10
290.5109307743
 20
131.1603768117
 30
0.0
 11
290.5109307743
 21
117.1603763796
 31
0.0
  0
LINE
  5
4F
330
4B
100
AcDbEntity
  8
Maﬂe
  6
CENTER2
 62
     7
100
AcDbLine
 10
299.2609310444
 20
124.1603765957
 30
0.0
 11
298.0109307743
 21
124.1603765957
 31
0.0
  0
LINE
  5
50
330
4B
100
AcDbEntity
  8
Maﬂe
  6
CENTER2
 62
     7
100
AcDbLine
 10
290.5109307743
 20
132.9103768657
 30
0.0
 11
290.5109307743
 21
131.6603765957
 31
0.0
  0
LINE
  5
51
330
4B
100
AcDbEntity
  8
Maﬂe
  6
CENTER2
 62
     7
100
AcDbLine
 10
281.7609305042
 20
124.1603765957
 30
0.0
 11
283.0109307743
 21
124.1603765957
 31
0.0
  0
LINE
  5
52
330
4B
100
AcDbEntity
  8
Maﬂe
  6
CENTER2
 62
     7
100
AcDbLine
 10
290.5109307743
 20
115.4103763256
 30
0.0
 11
290.5109307743
 21
116.6603765957
 31
0.0
  0
ENDBLK
  5
54
330
4B
100
AcDbEntity
  8
0
100
AcDbBlockEnd
  0
BLOCK
  5
5D
330
55
100
AcDbEntity
  8
0
100
AcDbBlockBegin
  2
SEANNOT_GROUP2
 70
     0
 10
0.0
 20
0.0
 30
0.0
  3
SEANNOT_GROUP2
  1

  0
LINE
  5
57
330
55
100
AcDbEntity
  8
Maﬂe
  6
CENTER2
 62
     7
100
AcDbLine
 10
331.5109309904
 20
124.1603765957
 30
0.0
 11
317.5109305583
 21
124.1603765957
 31
0.0
  0
LINE
  5
58
330
55
100
AcDbEntity
  8
Maﬂe
  6
CENTER2
 62
     7
100
AcDbLine
 10
324.5109307743
 20
131.1603768117
 30
0.0
 11
324.5109307743
 21
117.1603763796
 31
0.0
  0
LINE
  5
59
330
55
100
AcDbEntity
  8
Maﬂe
  6
CENTER2
 62
     7
100
AcDbLine
 10
333.2609310444
 20
124.1603765957
 30
0.0
 11
332.0109307743
 21
124.1603765957
 31
0.0
  0
LINE
  5
5A
330
55
100
AcDbEntity
  8
Maﬂe
  6
CENTER2
 62
     7
100
AcDbLine
 10
324.5109307743
 20
132.9103768657
 30
0.0
 11
324.5109307743
 21
131.6603765957
 31
0.0
  0
LINE
  5
5B
330
55
100
AcDbEntity
  8
Maﬂe
  6
CENTER2
 62
     7
100
AcDbLine
 10
315.7609305042
 20
124.1603765957
 30
0.0
 11
317.0109307743
 21
124.1603765957
 31
0.0
  0
LINE
  5
5C
330
55
100
AcDbEntity
  8
Maﬂe
  6
CENTER2
 62
     7
100
AcDbLine
 10
324.5109307743
 20
115.4103763256
 30
0.0
 11
324.5109307743
 21
116.6603765957
 31
0.0
  0
ENDBLK
  5
5E
330
55
100
AcDbEntity
  8
0
100
AcDbBlockEnd
  0
BLOCK
  5
67
330
5F
100
AcDbEntity
  8
0
100
AcDbBlockBegin
  2
SEANNOT_GROUP3
 70
     0
 10
0.0
 20
0.0
 30
0.0
  3
SEANNOT_GROUP3
  1

  0
LINE
  5
61
330
5F
100
AcDbEntity
  8
Maﬂe
  6
CENTER2
 62
     7
100
AcDbLine
 10
444.5109309904
 20
186.1603765957
 30
0.0
 11
430.5109305583
 21
186.1603765957
 31
0.0
  0
LINE
  5
62
330
5F
100
AcDbEntity
  8
Maﬂe
  6
CENTER2
 62
     7
100
AcDbLine
 10
437.5109307743
 20
193.1603768117
 30
0.0
 11
437.5109307743
 21
179.1603763796
 31
0.0
  0
LINE
  5
63
330
5F
100
AcDbEntity
  8
Maﬂe
  6
CENTER2
 62
     7
100
AcDbLine
 10
446.2609310444
 20
186.1603765957
 30
0.0
 11
445.0109307743
 21
186.1603765957
 31
0.0
  0
LINE
  5
64
330
5F
100
AcDbEntity
  8
Maﬂe
  6
CENTER2
 62
     7
100
AcDbLine
 10
437.5109307743
 20
194.9103768657
 30
0.0
 11
437.5109307743
 21
193.6603765957
 31
0.0
  0
LINE
  5
65
330
5F
100
AcDbEntity
  8
Maﬂe
  6
CENTER2
 62
     7
100
AcDbLine
 10
428.7609305042
 20
186.1603765957
 30
0.0
 11
430.0109307743
 21
186.1603765957
 31
0.0
  0
LINE
  5
66
330
5F
100
AcDbEntity
  8
Maﬂe
  6
CENTER2
 62
     7
100
AcDbLine
 10
437.5109307743
 20
177.4103763256
 30
0.0
 11
437.5109307743
 21
178.6603765957
 31
0.0
  0
ENDBLK
  5
68
330
5F
100
AcDbEntity
  8
0
100
AcDbBlockEnd
  0
BLOCK
  5
6C
330
69
100
AcDbEntity
  8
0
100
AcDbBlockBegin
  2
SEANNOT_GROUP4
 70
     0
 10
0.0
 20
0.0
 30
0.0
  3
SEANNOT_GROUP4
  1

  0
LINE
  5
6B
330
69
100
AcDbEntity
  8
Maﬂe
  6
CENTER2
 62
     7
100
AcDbLine
 10
183.4147825033
 20
51.7158779438
 30
0.0
 11
183.4147825033
 21
186.8674558969
 31
0.0
  0
ENDBLK
  5
6D
330
69
100
AcDbEntity
  8
0
100
AcDbBlockEnd
  0
BLOCK
  5
8A
330
6F
100
AcDbEntity
  8
0
100
AcDbBlockBegin
  2
SE
 70
     0
 10
0.0
 20
0.0
 30
0.0
  3
SE
  1

  0
LINE
  5
72
330
6F
100
AcDbEntity
  8
UNTERFAHRSCHUTZ_
  6
Continuous
 62
     7
100
AcDbLine
 10
192.5109307743
 20
30.119066644
 30
0.0
 11
201.1279520509
 21
30.119066644
 31
0.0
  0
LINE
  5
73
330
6F
100
AcDbEntity
  8
UNTERFAHRSCHUTZ_
  6
Continuous
 62
     7
100
AcDbLine
 10
201.1279520509
 20
30.119066644
 30
0.0
 11
413.8939094977
 21
30.119066644
 31
0.0
  0
LINE
  5
74
330
6F
100
AcDbEntity
  8
UNTERFAHRSCHUTZ_
  6
Continuous
 62
     7
100
AcDbLine
 10
413.8939094977
 20
30.119066644
 30
0.0
 11
422.5109307743
 21
30.119066644
 31
0.0
  0
LINE
  5
75
330
6F
100
AcDbEntity
  8
UNTERFAHRSCHUTZ_
  6
Continuous
 62
     7
100
AcDbLine
 10
422.5109307743
 20
30.119066644
 30
0.0
 11
452.5109307743
 21
30.119066644
 31
0.0
  0
LINE
  5
76
330
6F
100
AcDbEntity
  8
UNTERFAHRSCHUTZ_
  6
Continuous
 62
     7
100
AcDbLine
 10
162.5109307743
 20
30.119066644
 30
0.0
 11
192.5109307743
 21
30.119066644
 31
0.0
  0
LINE
  5
77
330
6F
100
AcDbEntity
  8
UNTERFAHRSCHUTZ_
  6
Continuous
 62
     7
100
AcDbLine
 10
162.5109307743
 20
22.119066644
 30
0.0
 11
192.5109307743
 21
22.119066644
 31
0.0
  0
LINE
  5
78
330
6F
100
AcDbEntity
  8
UNTERFAHRSCHUTZ_
  6
Continuous
 62
     7
100
AcDbLine
 10
422.5109307743
 20
22.119066644
 30
0.0
 11
452.5109307743
 21
22.119066644
 31
0.0
  0
LINE
  5
79
330
6F
100
AcDbEntity
  8
UNTERFAHRSCHUTZ_
  6
Continuous
 62
     7
100
AcDbLine
 10
413.8939094977
 20
22.119066644
 30
0.0
 11
422.5109307743
 21
22.119066644
 31
0.0
  0
LINE
  5
7A
330
6F
100
AcDbEntity
  8
UNTERFAHRSCHUTZ_
  6
Continuous
 62
     7
100
AcDbLine
 10
201.1279520509
 20
22.119066644
 30
0.0
 11
413.8939094977
 21
22.119066644
 31
0.0
  0
LINE
  5
7B
330
6F
100
AcDbEntity
  8
UNTERFAHRSCHUTZ_
  6
Continuous
 62
     7
100
AcDbLine
 10
192.5109307743
 20
22.119066644
 30
0.0
 11
201.1279520509
 21
22.119066644
 31
0.0
  0
LINE
  5
7C
330
6F
100
AcDbEntity
  8
UNTERFAHRSCHUTZ_
  6
Continuous
 62
     7
100
AcDbLine
 10
192.5109307743
 20
30.119066644
 30
0.0
 11
192.5109307743
 21
22.119066644
 31
0.0
  0
LINE
  5
7D
330
6F
100
AcDbEntity
  8
UNTERFAHRSCHUTZ_
  6
Continuous
 62
     7
100
AcDbLine
 10
162.5109307743
 20
30.119066644
 30
0.0
 11
162.5109307743
 21
22.119066644
 31
0.0
  0
LINE
  5
7E
330
6F
100
AcDbEntity
  8
UNTERFAHRSCHUTZ_
  6
Continuous
 62
     7
100
AcDbLine
 10
174.9181002647
 20
30.119066644
 30
0.0
 11
174.9181002647
 21
22.119066644
 31
0.0
  0
LINE
  5
7F
330
6F
100
AcDbEntity
  8
UNTERFAHRSCHUTZ_
  6
Continuous
 62
     7
100
AcDbLine
 10
440.103761284
 20
30.119066644
 30
0.0
 11
440.103761284
 21
22.119066644
 31
0.0
  0
LINE
  5
80
330
6F
100
AcDbEntity
  8
UNTERFAHRSCHUTZ_
  6
Continuous
 62
     7
100
AcDbLine
 10
452.5109307743
 20
30.119066644
 30
0.0
 11
452.5109307743
 21
22.119066644
 31
0.0
  0
LINE
  5
81
330
6F
100
AcDbEntity
  8
UNTERFAHRSCHUTZ_
  6
Continuous
 62
     7
100
AcDbLine
 10
422.5109307743
 20
30.119066644
 30
0.0
 11
422.5109307743
 21
22.119066644
 31
0.0
  0
LINE
  5
82
330
6F
100
AcDbEntity
  8
UNTERFAHRSCHUTZ_
  6
Continuous
 62
     7
100
AcDbLine
 10
181.5109307743
 20
22.119066644
 30
0.0
 11
181.5109307743
 21
30.119066644
 31
0.0
  0
LINE
  5
83
330
6F
100
AcDbEntity
  8
UNTERFAHRSCHUTZ_
  6
Continuous
 62
     7
100
AcDbLine
 10
173.5109307743
 20
30.119066644
 30
0.0
 11
173.5109307743
 21
22.119066644
 31
0.0
  0
LINE
  5
84
330
6F
100
AcDbEntity
  8
UNTERFAHRSCHUTZ_
  6
Continuous
 62
     7
100
AcDbLine
 10
294.5109307743
 20
22.119066644
 30
0.0
 11
294.5109307743
 21
30.119066644
 31
0.0
  0
LINE
  5
85
330
6F
100
AcDbEntity
  8
UNTERFAHRSCHUTZ_
  6
Continuous
 62
     7
100
AcDbLine
 10
286.5109307743
 20
30.119066644
 30
0.0
 11
286.5109307743
 21
22.119066644
 31
0.0
  0
LINE
  5
86
330
6F
100
AcDbEntity
  8
UNTERFAHRSCHUTZ_
  6
Continuous
 62
     7
100
AcDbLine
 10
441.5109307743
 20
22.119066644
 30
0.0
 11
441.5109307743
 21
30.119066644
 31
0.0
  0
LINE
  5
87
330
6F
100
AcDbEntity
  8
UNTERFAHRSCHUTZ_
  6
Continuous
 62
     7
100
AcDbLine
 10
433.5109307743
 20
30.119066644
 30
0.0
 11
433.5109307743
 21
22.119066644
 31
0.0
  0
LINE
  5
88
330
6F
100
AcDbEntity
  8
UNTERFAHRSCHUTZ_
  6
Continuous
 62
     7
100
AcDbLine
 10
328.5109307743
 20
22.119066644
 30
0.0
 11
328.5109307743
 21
30.119066644
 31
0.0
  0
LINE
  5
89
330
6F
100
AcDbEntity
  8
UNTERFAHRSCHUTZ_
  6
Continuous
 62
     7
100
AcDbLine
 10
320.5109307743
 20
30.119066644
 30
0.0
 11
320.5109307743
 21
22.119066644
 31
0.0
  0
ENDBLK
  5
8B
330
6F
100
AcDbEntity
  8
0
100
AcDbBlockEnd
  0
BLOCK
  5
9E
330
8C
100
AcDbEntity
  8
0
100
AcDbBlockBegin
  2
SE1
 70
     0
 10
0.0
 20
0.0
 30
0.0
  3
SE1
  1

  0
LINE
  5
8E
330
8C
100
AcDbEntity
  8
UNTERFAHRSCHUTZ_
  6
Continuous
 62
     7
100
AcDbLine
 10
192.5109307743
 20
186.1603765957
 30
0.0
 11
192.5109307743
 21
172.4786734143
 31
0.0
  0
ARC
  5
8F
330
8C
100
AcDbEntity
  8
UNTERFAHRSCHUTZ_
  6
Continuous
 62
     7
100
AcDbCircle
 10
177.5109307743
 20
186.1603765957
 30
0.0
 40
14.99999999999999
100
AcDbArc
 50
0.0
 51
180.0
  0
LINE
  5
90
330
8C
100
AcDbEntity
  8
UNTERFAHRSCHUTZ_
  6
Continuous
 62
     7
100
AcDbLine
 10
162.5109307743
 20
163.1603765957
 30
0.0
 11
162.5109307743
 21
186.1603765957
 31
0.0
  0
ARC
  5
91
330
8C
100
AcDbEntity
  8
UNTERFAHRSCHUTZ_
  6
Continuous
 62
     7
100
AcDbCircle
 10
192.5109307743
 20
163.1603765957
 30
0.0
 40
29.99999999999986
100
AcDbArc
 50
180.0
 51
234.0960865254
  0
ARC
  5
92
330
8C
100
AcDbEntity
  8
UNTERFAHRSCHUTZ_
  6
Continuous
 62
     7
100
AcDbCircle
 10
307.5109307743
 20
407.9683765957
 30
0.0
 40
299.9999999999999
100
AcDbArc
 50
243.7699676761
 51
296.2300323239
  0
ARC
  5
93
330
8C
100
AcDbEntity
  8
UNTERFAHRSCHUTZ_
  6
Continuous
 62
     7
100
AcDbCircle
 10
422.5109307743
 20
163.1603765957
 30
0.0
 40
29.99999999999999
100
AcDbArc
 50
305.9039134746
 51
0.0
  0
LINE
  5
94
330
8C
100
AcDbEntity
  8
UNTERFAHRSCHUTZ_
  6
Continuous
 62
     7
100
AcDbLine
 10
452.5109307743
 20
186.1603765957
 30
0.0
 11
452.5109307743
 21
163.1603765957
 31
0.0
  0
ARC
  5
95
330
8C
100
AcDbEntity
  8
UNTERFAHRSCHUTZ_
  6
Continuous
 62
     7
100
AcDbCircle
 10
437.5109307743
 20
186.1603765957
 30
0.0
 40
15.0
100
AcDbArc
 50
0.0
 51
180.0
  0
LINE
  5
96
330
8C
100
AcDbEntity
  8
UNTERFAHRSCHUTZ_
  6
Continuous
 62
     7
100
AcDbLine
 10
422.5109307743
 20
172.4786734143
 30
0.0
 11
422.5109307743
 21
186.1603765957
 31
0.0
  0
ARC
  5
97
330
8C
100
AcDbEntity
  8
UNTERFAHRSCHUTZ_
  6
Continuous
 62
     7
100
AcDbCircle
 10
407.5109307743
 20
172.4786734143
 30
0.0
 40
14.99999999999972
100
AcDbArc
 50
295.184336534
 51
0.0
  0
ARC
  5
98
330
8C
100
AcDbEntity
  8
UNTERFAHRSCHUTZ_
  6
Continuous
 62
     7
100
AcDbCircle
 10
307.5109307743
 20
385.1403765957
 30
0.0
 40
249.9999999999998
100
AcDbArc
 50
244.815663466
 51
295.184336534
  0
ARC
  5
99
330
8C
100
AcDbEntity
  8
UNTERFAHRSCHUTZ_
  6
Continuous
 62
     7
100
AcDbCircle
 10
207.5109307743
 20
172.4786734143
 30
0.0
 40
15.0
100
AcDbArc
 50
180.0
 51
244.815663466
  0
CIRCLE
  5
9A
330
8C
100
AcDbEntity
  8
UNTERFAHRSCHUTZ_
  6
Continuous
 62
     7
100
AcDbCircle
 10
177.5109307743
 20
186.1603765957
 30
0.0
 40
4.0
  0
CIRCLE
  5
9B
330
8C
100
AcDbEntity
  8
UNTERFAHRSCHUTZ_
  6
Continuous
 62
     7
100
AcDbCircle
 10
290.5109307743
 20
124.1603765957
 30
0.0
 40
4.0
  0
CIRCLE
  5
9C
330
8C
100
AcDbEntity
  8
UNTERFAHRSCHUTZ_
  6
Continuous
 62
     7
100
AcDbCircle
 10
437.5109307743
 20
186.1603765957
 30
0.0
 40
4.0
  0
CIRCLE
  5
9D
330
8C
100
AcDbEntity
  8
UNTERFAHRSCHUTZ_
  6
Continuous
 62
     7
100
AcDbCircle
 10
324.5109307743
 20
124.1603765957
 30
0.0
 40
4.0
  0
ENDBLK
  5
9F
330
8C
100
AcDbEntity
  8
0
100
AcDbBlockEnd
  0
BLOCK
  5
A2
330
A1
100
AcDbEntity
  8
0
100
AcDbBlockBegin
  2
_OBLIQUE
 70
     0
 10
0.0
 20
0.0
 30
0.0
  3
_OBLIQUE
  1

  0
LINE
  5
A4
330
A1
100
AcDbEntity
  8
0
  6
ByBlock
 62
     0
370
    -2
100
AcDbLine
 10
-0.5
 20
-0.5
 30
0.0
 11
0.5
 21
0.5
 31
0.0
  0
ENDBLK
  5
A3
330
A1
100
AcDbEntity
  8
0
100
AcDbBlockEnd
  0
BLOCK
  5
A6
330
A5
100
AcDbEntity
  8
0
100
AcDbBlockBegin
  2
_DOT
 70
     0
 10
0.0
 20
0.0
 30
0.0
  3
_DOT
  1

  0
POLYLINE
  5
A8
330
A5
100
AcDbEntity
  8
0
  6
ByBlock
 62
     0
100
AcDb2dPolyline
 66
     1
 10
0.0
 20
0.0
 30
0.0
 70
     1
 40
0.5
 41
0.5
  0
VERTEX
  5
AA
330
A8
100
AcDbEntity
  8
0
  6
ByBlock
 62
     0
100
AcDbVertex
100
AcDb2dVertex
 10
-0.25
 20
0.0
 30
0.0
 42
1.0
  0
VERTEX
  5
AB
330
A8
100
AcDbEntity
  8
0
  6
ByBlock
 62
     0
100
AcDbVertex
100
AcDb2dVertex
 10
0.25
 20
0.0
 30
0.0
 42
1.0
  0
SEQEND
  5
AC
330
A8
100
AcDbEntity
  8
0
  6
ByBlock
 62
     0
  0
LINE
  5
A9
330
A5
100
AcDbEntity
  8
0
  6
ByBlock
 62
     0
370
    -2
100
AcDbLine
 10
-0.5
 20
0.0
 30
0.0
 11
-1.0
 21
0.0
 31
0.0
  0
ENDBLK
  5
A7
330
A5
100
AcDbEntity
  8
0
100
AcDbBlockEnd
  0
BLOCK
  5
B0
330
AD
100
AcDbEntity
  8
0
100
AcDbBlockBegin
  2
_SE_FILLED
 70
     0
 10
0.0
 20
0.0
 30
0.0
  3
_SE_FILLED
  1

  0
SOLID
  5
AE
330
AD
100
AcDbEntity
  8
0
 62
     0
100
AcDbTrace
 10
0.0
 20
0.0
 30
0.0
 11
-1.0
 21
-0.1665
 31
0.0
 12
-1.0
 22
0.1665
 32
0.0
 13
0.0
 23
0.0
 33
0.0
  0
LINE
  5
AF
330
AD
100
AcDbEntity
  8
0
 62
     0
100
AcDbLine
 10
0.0
 20
0.0
 30
0.0
 11
-1.0
 21
0.0
 31
0.0
  0
ENDBLK
  5
B1
330
AD
100
AcDbEntity
  8
0
100
AcDbBlockEnd
  0
BLOCK
  5
BC
330
B5
100
AcDbEntity
  8
0
100
AcDbBlockBegin
  2
DMBLK147
 70
     0
 10
0.0
 20
0.0
 30
0.0
  3
DMBLK147
  1

  0
HATCH
  5
B6
330
B5
100
AcDbEntity
  8
Maﬂe
  6
Continuous
 62
     7
100
AcDbHatch
 10
0.0
 20
0.0
 30
0.0
210
0.0
220
0.0
230
1.0
  2
SOLID
 70
     1
 71
     0
 91
        1
 92
        1
 93
        3
 72
     1
 10
294.0109308823597
 20
85.3386296124052
 11
294.0109308823597
 21
86.50529631508302
 72
     1
 10
294.0109308823597
 20
86.50529631508302
 11
290.5109307743263
 21
85.92196296374411
 72
     1
 10
290.5109307743263
 20
85.92196296374411
 11
294.0109308823597
 21
85.3386296124052
 97
        0
 75
     0
 76
     1
 98
        0
  0
HATCH
  5
B7
330
B5
100
AcDbEntity
  8
Maﬂe
  6
Continuous
 62
     7
100
AcDbHatch
 10
0.0
 20
0.0
 30
0.0
210
0.0
220
0.0
230
1.0
  2
SOLID
 70
     1
 71
     0
 91
        1
 92
        1
 93
        3
 72
     1
 10
321.0109306662929
 20
85.3386296124052
 11
324.5109307743263
 21
85.92196296374411
 72
     1
 10
324.5109307743263
 20
85.92196296374411
 11
321.0109306662929
 21
86.50529631508302
 72
     1
 10
321.0109306662929
 20
86.50529631508302
 11
321.0109306662929
 21
85.3386296124052
 97
        0
 75
     0
 76
     1
 98
        0
  0
LINE
  5
B8
330
B5
100
AcDbEntity
  8
Maﬂe
  6
Continuous
 62
     7
100
AcDbLine
 10
290.5109307743
 20
124.1603765957
 30
0.0
 11
290.5109307743
 21
84.1719629097
 31
0.0
  0
LINE
  5
B9
330
B5
100
AcDbEntity
  8
Maﬂe
  6
Continuous
 62
     7
100
AcDbLine
 10
324.5109307743
 20
124.1603765957
 30
0.0
 11
324.5109307743
 21
84.1719629097
 31
0.0
  0
LINE
  5
BA
330
B5
100
AcDbEntity
  8
Maﬂe
  6
Continuous
 62
     7
100
AcDbLine
 10
290.5109307743
 20
85.9219629637
 30
0.0
 11
342.4481122769
 21
85.9219629637
 31
0.0
  0
TEXT
  5
BB
330
B5
100
AcDbEntity
  8
Maﬂe
  6
Continuous
 62
     7
100
AcDbText
 10
337.3253852464
 20
86.7969629637
 30
0.0
 40
3.5
  1
34
  7
SEACAD_Solid_Edge_ISO
 11
337.3253852464
 21
90.2969629637
 31
0.0
100
AcDbText
 73
     3
  0
ENDBLK
  5
BD
330
B5
100
AcDbEntity
  8
0
100
AcDbBlockEnd
  0
BLOCK
  5
C6
330
BF
100
AcDbEntity
  8
0
100
AcDbBlockBegin
  2
DMBLK148
 70
     0
 10
0.0
 20
0.0
 30
0.0
  3
DMBLK148
  1

  0
HATCH
  5
C0
330
BF
100
AcDbEntity
  8
Maﬂe
  6
Continuous
 62
     7
100
AcDbHatch
 10
0.0
 20
0.0
 30
0.0
210
0.0
220
0.0
230
1.0
  2
SOLID
 70
     1
 71
     0
 91
        1
 92
        1
 93
        3
 72
     1
 10
181.0109308823597
 20
222.0937085701318
 11
177.5109307743263
 21
221.5103752187929
 72
     1
 10
177.5109307743263
 20
221.5103752187929
 11
181.0109308823597
 21
220.927041867454
 72
     1
 10
181.0109308823597
 20
220.927041867454
 11
181.0109308823597
 21
222.0937085701318
 97
        0
 75
     0
 76
     1
 98
        0
  0
HATCH
  5
C1
330
BF
100
AcDbEntity
  8
Maﬂe
  6
Continuous
 62
     7
100
AcDbHatch
 10
0.0
 20
0.0
 30
0.0
210
0.0
220
0.0
230
1.0
  2
SOLID
 70
     1
 71
     0
 91
        1
 92
        1
 93
        3
 72
     1
 10
434.0109211295497
 20
222.0937085701318
 11
434.0109211295497
 21
220.927041867454
 72
     1
 10
434.0109211295497
 20
220.927041867454
 11
437.5109212375831
 21
221.5103752187929
 72
     1
 10
437.5109212375831
 20
221.5103752187929
 11
434.0109211295497
 21
222.0937085701318
 97
        0
 75
     0
 76
     1
 98
        0
  0
LINE
  5
C2
330
BF
100
AcDbEntity
  8
Maﬂe
  6
Continuous
 62
     7
100
AcDbLine
 10
177.5109307743
 20
186.1603765957
 30
0.0
 11
177.5109307743
 21
223.2603752728
 31
0.0
  0
LINE
  5
C3
330
BF
100
AcDbEntity
  8
Maﬂe
  6
Continuous
 62
     7
100
AcDbLine
 10
437.5109307743
 20
186.1603765957
 30
0.0
 11
437.5109307743
 21
223.2603752728
 31
0.0
  0
LINE
  5
C4
330
BF
100
AcDbEntity
  8
Maﬂe
  6
Continuous
 62
     7
100
AcDbLine
 10
177.5109307743
 20
221.5103752188
 30
0.0
 11
437.5109212376
 21
221.5103752188
 31
0.0
  0
TEXT
  5
C5
330
BF
100
AcDbEntity
  8
Maﬂe
  6
Continuous
 62
     7
100
AcDbText
 10
304.3291078241
 20
222.3853752188
 30
0.0
 40
3.5
  1
260
  7
SEACAD_Solid_Edge_ISO
 11
304.3291078241
 21
225.8853752188
 31
0.0
100
AcDbText
 73
     3
  0
ENDBLK
  5
C7
330
BF
100
AcDbEntity
  8
0
100
AcDbBlockEnd
  0
BLOCK
  5
D0
330
C9
100
AcDbEntity
  8
0
100
AcDbBlockBegin
  2
DMBLK149
 70
     0
 10
0.0
 20
0.0
 30
0.0
  3
DMBLK149
  1

  0
HATCH
  5
CA
330
C9
100
AcDbEntity
  8
Maﬂe
  6
Continuous
 62
     7
100
AcDbHatch
 10
0.0
 20
0.0
 30
0.0
210
0.0
220
0.0
230
1.0
  2
SOLID
 70
     1
 71
     0
 91
        1
 92
        1
 93
        3
 72
     1
 10
144.2025985316338
 20
182.6603764876267
 11
145.3692652343116
 21
182.6603764876267
 72
     1
 10
145.3692652343116
 20
182.6603764876267
 11
144.7859318829727
 21
186.1603765956602
 72
     1
 10
144.7859318829727
 20
186.1603765956602
 11
144.2025985316338
 21
182.6603764876267
 97
        0
 75
     0
 76
     1
 98
        0
  0
HATCH
  5
CB
330
C9
100
AcDbEntity
  8
Maﬂe
  6
Continuous
 62
     7
100
AcDbHatch
 10
0.0
 20
0.0
 30
0.0
210
0.0
220
0.0
230
1.0
  2
SOLID
 70
     1
 71
     0
 91
        1
 92
        1
 93
        3
 72
     1
 10
144.2025985316338
 20
127.6603777169725
 11
144.7859318829727
 21
124.1603776089391
 72
     1
 10
144.7859318829727
 20
124.1603776089391
 11
145.3692652343116
 21
127.6603777169725
 72
     1
 10
145.3692652343116
 20
127.6603777169725
 11
144.2025985316338
 21
127.6603777169725
 97
        0
 75
     0
 76
     1
 98
        0
  0
LINE
  5
CC
330
C9
100
AcDbEntity
  8
Maﬂe
  6
Continuous
 62
     7
100
AcDbLine
 10
177.5109307743
 20
186.1603765957
 30
0.0
 11
143.035931829
 21
186.1603765957
 31
0.0
  0
LINE
  5
CD
330
C9
100
AcDbEntity
  8
Maﬂe
  6
Continuous
 62
     7
100
AcDbLine
 10
290.5109307743
 20
124.1603765957
 30
0.0
 11
143.035931829
 21
124.1603765957
 31
0.0
  0
LINE
  5
CE
330
C9
100
AcDbEntity
  8
Maﬂe
  6
Continuous
 62
     7
100
AcDbLine
 10
144.785931883
 20
186.1603765957
 30
0.0
 11
144.785931883
 21
124.1603776089
 31
0.0
  0
TEXT
  5
CF
330
C9
100
AcDbEntity
  8
Maﬂe
  6
Continuous
 62
     7
100
AcDbText
 10
143.910931883
 20
153.0126498296
 30
0.0
 40
3.5
  1
62
 50
90.0
  7
SEACAD_Solid_Edge_ISO
 11
140.410931883
 21
153.0126498296
 31
0.0
100
AcDbText
 73
     3
  0
ENDBLK
  5
D1
330
C9
100
AcDbEntity
  8
0
100
AcDbBlockEnd
  0
BLOCK
  5
D8
330
D3
100
AcDbEntity
  8
0
100
AcDbBlockBegin
  2
DMBLK150
 70
     0
 10
0.0
 20
0.0
 30
0.0
  3
DMBLK150
  1

  0
LINE
  5
D4
330
D3
100
AcDbEntity
  8
Maﬂe
  6
Continuous
 62
     7
100
AcDbLine
 10
192.5109307743
 20
163.1603765957
 30
0.0
 11
146.8774272661
 21
135.9546647364
 31
0.0
  0
HATCH
  5
D5
330
D3
100
AcDbEntity
  8
Maﬂe
  6
Continuous
 62
     7
100
AcDbHatch
 10
0.0
 20
0.0
 30
0.0
210
0.0
220
0.0
230
1.0
  2
SOLID
 70
     1
 71
     0
 91
        1
 92
        1
 93
        3
 72
     1
 10
164.0352319921439
 20
145.504644837859
 11
166.742800523023
 21
147.7979723778347
 72
     1
 10
166.742800523023
 20
147.7979723778347
 11
163.4378051430101
 21
146.5067388230076
 72
     1
 10
163.4378051430101
 20
146.5067388230076
 11
164.0352319921439
 21
145.504644837859
 97
        0
 75
     0
 76
     1
 98
        0
  0
TEXT
  5
D6
330
D3
100
AcDbEntity
  8
Maﬂe
  6
Continuous
 62
     7
100
AcDbText
 10
147.4815562683
 20
137.3335336565
 30
0.0
 40
3.5
  1
R
 50
30.8024864598
  7
SEACAD_Solid_Edge_ISO
 11
145.6892757762
 21
140.3398155191
 31
0.0
100
AcDbText
 73
     3
  0
TEXT
  5
D7
330
D3
100
AcDbEntity
  8
Maﬂe
  6
Continuous
 62
     7
100
AcDbText
 10
151.0617646684
 20
139.4679767879
 30
0.0
 40
3.5
  1
30
 50
30.8024864598
  7
SEACAD_Solid_Edge_ISO
 11
149.2694841763
 21
142.4742586506
 31
0.0
100
AcDbText
 73
     3
  0
ENDBLK
  5
D9
330
D3
100
AcDbEntity
  8
0
100
AcDbBlockEnd
  0
BLOCK
  5
E0
330
DB
100
AcDbEntity
  8
0
100
AcDbBlockBegin
  2
DMBLK151
 70
     0
 10
0.0
 20
0.0
 30
0.0
  3
DMBLK151
  1

  0
LINE
  5
DC
330
DB
100
AcDbEntity
  8
Maﬂe
  6
Continuous
 62
     7
100
AcDbLine
 10
307.5109307743
 20
385.1403765957
 30
0.0
 11
238.9265433004
 21
144.7320119433
 31
0.0
  0
HATCH
  5
DD
330
DB
100
AcDbEntity
  8
Maﬂe
  6
Continuous
 62
     7
100
AcDbHatch
 10
0.0
 20
0.0
 30
0.0
210
0.0
220
0.0
230
1.0
  2
SOLID
 70
     1
 71
     0
 91
        1
 92
        1
 93
        3
 72
     1
 10
240.4476776228523
 20
147.9376989099318
 11
239.3257718865117
 21
148.2577593946893
 72
     1
 10
239.3257718865117
 20
148.2577593946892
 11
238.9265433004096
 21
144.7320119432887
 72
     1
 10
238.9265433004096
 20
144.7320119432887
 11
240.4476776228523
 21
147.9376989099318
 97
        0
 75
     0
 76
     1
 98
        0
  0
TEXT
  5
DE
330
DB
100
AcDbEntity
  8
Maﬂe
  6
Continuous
 62
     7
100
AcDbText
 10
270.9544934682
 20
260.1888588244
 30
0.0
 40
3.5
  1
R
 50
74.0774596389
  7
SEACAD_Solid_Edge_ISO
 11
267.5887763631
 21
261.149040249
 31
0.0
100
AcDbText
 73
     3
  0
TEXT
  5
DF
330
DB
100
AcDbEntity
  8
Maﬂe
  6
Continuous
 62
     7
100
AcDbText
 10
272.0979822557
 20
264.1971219223
 30
0.0
 40
3.5
  1
250
 50
74.0774596389
  7
SEACAD_Solid_Edge_ISO
 11
268.7322651506
 21
265.157303347
 31
0.0
100
AcDbText
 73
     3
  0
ENDBLK
  5
E1
330
DB
100
AcDbEntity
  8
0
100
AcDbBlockEnd
  0
BLOCK
  5
E8
330
E3
100
AcDbEntity
  8
0
100
AcDbBlockBegin
  2
DMBLK152
 70
     0
 10
0.0
 20
0.0
 30
0.0
  3
DMBLK152
  1

  0
LINE
  5
E4
330
E3
100
AcDbEntity
  8
Maﬂe
  6
Continuous
 62
     7
100
AcDbLine
 10
307.5109307743
 20
407.9683765957
 30
0.0
 11
391.638012115
 21
120.0054599941
 31
0.0
  0
HATCH
  5
E5
330
E3
100
AcDbEntity
  8
Maﬂe
  6
Continuous
 62
     7
100
AcDbHatch
 10
0.0
 20
0.0
 30
0.0
210
0.0
220
0.0
230
1.0
  2
SOLID
 70
     1
 71
     0
 91
        1
 92
        1
 93
        3
 72
     1
 10
391.2164540535789
 20
123.528619201794
 11
390.096598276728
 21
123.2014583328155
 72
     1
 10
390.096598276728
 20
123.2014583328155
 11
391.6380087720892
 21
120.0054714367521
 72
     1
 10
391.6380087720892
 20
120.0054714367521
 11
391.2164540535789
 21
123.528619201794
 97
        0
 75
     0
 76
     1
 98
        0
  0
TEXT
  5
E6
330
E3
100
AcDbEntity
  8
Maﬂe
  6
Continuous
 62
     7
100
AcDbText
 10
348.9934441575
 20
269.0960260379
 30
0.0
 40
3.5
  1
R
 50
286.2854877005
  7
SEACAD_Solid_Edge_ISO
 11
352.3530113843
 21
270.0775086146
 31
0.0
100
AcDbText
 73
     3
  0
TEXT
  5
E7
330
E3
100
AcDbEntity
  8
Maﬂe
  6
Continuous
 62
     7
100
AcDbText
 10
350.1623006806
 20
265.095086886
 30
0.0
 40
3.5
  1
300
 50
286.2854877005
  7
SEACAD_Solid_Edge_ISO
 11
353.5218679074
 21
266.0765694626
 31
0.0
100
AcDbText
 73
     3
  0
ENDBLK
  5
E9
330
E3
100
AcDbEntity
  8
0
100
AcDbBlockEnd
  0
BLOCK
  5
F3
330
EC
100
AcDbEntity
  8
0
100
AcDbBlockBegin
  2
DMBLK153
 70
     0
 10
0.0
 20
0.0
 30
0.0
  3
DMBLK153
  1

  0
LINE
  5
ED
330
EC
100
AcDbEntity
  8
Maﬂe
  6
Continuous
 62
     7
100
AcDbLine
 10
426.9823708889
 20
182.9745593548
 30
0.0
 11
441.3394982939
 21
187.3188556796
 31
0.0
  0
LINE
  5
EE
330
EC
100
AcDbEntity
  8
Maﬂe
  6
Continuous
 62
     7
100
AcDbLine
 10
441.3394979302
 20
187.3188555696
 30
0.0
 11
475.0724104925
 21
197.5260344804
 31
0.0
  0
HATCH
  5
EF
330
EC
100
AcDbEntity
  8
Maﬂe
  6
Continuous
 62
     7
100
AcDbHatch
 10
0.0
 20
0.0
 30
0.0
210
0.0
220
0.0
230
1.0
  2
SOLID
 70
     1
 71
     0
 91
        1
 92
        1
 93
        3
 72
     1
 10
430.1634223980873
 20
184.5465612157659
 11
430.5013121092389
 21
183.4298957608355
 72
     1
 10
430.501312109239
 20
183.4298957608355
 11
433.6823636184544
 21
185.0018976217557
 72
     1
 10
433.6823636184544
 20
185.0018976217557
 11
430.1634223980873
 21
184.5465612157659
 97
        0
 75
     0
 76
     1
 98
        0
  0
HATCH
  5
F0
330
EC
100
AcDbEntity
  8
Maﬂe
  6
Continuous
 62
     7
100
AcDbHatch
 10
0.0
 20
0.0
 30
0.0
210
0.0
220
0.0
230
1.0
  2
SOLID
 70
     1
 71
     0
 91
        1
 92
        1
 93
        3
 72
     1
 10
444.5205494394136
 20
188.8908574304848
 11
441.3394979301983
 21
187.3188555695646
 72
     1
 10
441.3394979301982
 20
187.3188555695646
 11
444.8584391505653
 21
187.7741919755544
 72
     1
 10
444.8584391505653
 20
187.7741919755544
 11
444.5205494394136
 21
188.8908574304848
 97
        0
 75
     0
 76
     1
 98
        0
  0
TEXT
  5
F1
330
EC
100
AcDbEntity
  8
Maﬂe
  6
Continuous
 62
     7
100
AcDbText
 10
465.7743379272
 20
195.6267282207
 30
0.0
 40
3.5
  1
O
 50
16.8351919927
  7
SEACAD_Solid_Edge_ISO1_Symbols
 11
464.760668825
 21
198.9767244821
 31
0.0
100
AcDbText
 73
     3
  0
TEXT
  5
F2
330
EC
100
AcDbEntity
  8
Maﬂe
  6
Continuous
 62
     7
100
AcDbText
 10
471.5146808659
 20
197.3636878525
 30
0.0
 40
3.5
  1
8
 50
16.8351919927
  7
SEACAD_Solid_Edge_ISO
 11
470.5010117637
 21
200.7136841139
 31
0.0
100
AcDbText
 73
     3
  0
ENDBLK
  5
F4
330
EC
100
AcDbEntity
  8
0
100
AcDbBlockEnd
  0
BLOCK
  5
FB
330
F6
100
AcDbEntity
  8
0
100
AcDbBlockBegin
  2
DMBLK154
 70
     0
 10
0.0
 20
0.0
 30
0.0
  3
DMBLK154
  1

  0
LINE
  5
F7
330
F6
100
AcDbEntity
  8
Maﬂe
  6
Continuous
 62
     7
100
AcDbLine
 10
221.193280373
 20
175.0520865989
 30
0.0
 11
192.7694065253
 21
169.7060478071
 31
0.0
  0
HATCH
  5
F8
330
F6
100
AcDbEntity
  8
Maﬂe
  6
Continuous
 62
     7
100
AcDbHatch
 10
0.0
 20
0.0
 30
0.0
210
0.0
220
0.0
230
1.0
  2
SOLID
 70
     1
 71
     0
 91
        1
 92
        1
 93
        3
 72
     1
 10
196.316919705219
 20
169.7797122254795
 11
196.1012710354046
 21
170.9262752836426
 72
     1
 10
196.1012710354046
 20
170.9262752836426
 11
192.7694061958224
 21
169.7060477451179
 72
     1
 10
192.7694061958225
 20
169.7060477451178
 11
196.316919705219
 21
169.7797122254795
 97
        0
 75
     0
 76
     1
 98
        0
  0
TEXT
  5
F9
330
F6
100
AcDbEntity
  8
Maﬂe
  6
Continuous
 62
     7
100
AcDbText
 10
212.3697811469
 20
174.2828811897
 30
0.0
 40
3.5
  1
R
 50
10.651903963
  7
SEACAD_Solid_Edge_ISO
 11
211.7228351575
 21
177.722570258
 31
0.0
100
AcDbText
 73
     3
  0
TEXT
  5
FA
330
F6
100
AcDbEntity
  8
Maﬂe
  6
Continuous
 62
     7
100
AcDbText
 10
216.4661381283
 20
175.0533350499
 30
0.0
 40
3.5
  1
15
 50
10.651903963
  7
SEACAD_Solid_Edge_ISO
 11
215.8191921388
 21
178.4930241182
 31
0.0
100
AcDbText
 73
     3
  0
ENDBLK
  5
FC
330
F6
100
AcDbEntity
  8
0
100
AcDbBlockEnd
  0
BLOCK
  5
103
330
FE
100
AcDbEntity
  8
0
100
AcDbBlockBegin
  2
DMBLK155
 70
     0
 10
0.0
 20
0.0
 30
0.0
  3
DMBLK155
  1

  0
LINE
  5
FF
330
FE
100
AcDbEntity
  8
Maﬂe
  6
Continuous
 62
     7
100
AcDbLine
 10
177.5109307743
 20
186.1603765957
 30
0.0
 11
159.3543210801
 21
213.7730338776
 31
0.0
  0
HATCH
  5
100
330
FE
100
AcDbEntity
  8
Maﬂe
  6
Continuous
 62
     7
100
AcDbHatch
 10
0.0
 20
0.0
 30
0.0
210
0.0
220
0.0
230
1.0
  2
SOLID
 70
     1
 71
     0
 91
        1
 92
        1
 93
        3
 72
     1
 10
166.8593766840901
 20
201.297571753905
 11
169.2697284822557
 21
198.6936357400795
 72
     1
 10
169.2697284822557
 20
198.6936357400795
 11
167.8341857587451
 21
201.9385541741844
 72
     1
 10
167.8341857587451
 20
201.9385541741844
 11
166.8593766840901
 21
201.297571753905
 97
        0
 75
     0
 76
     1
 98
        0
  0
TEXT
  5
101
330
FE
100
AcDbEntity
  8
Maﬂe
  6
Continuous
 62
     7
100
AcDbText
 10
160.7584595275
 20
213.2302209629
 30
0.0
 40
3.5
  1
R
 50
303.3267849684
  7
SEACAD_Solid_Edge_ISO
 11
163.6828866612
 21
215.1531681644
 31
0.0
100
AcDbText
 73
     3
  0
TEXT
  5
102
330
FE
100
AcDbEntity
  8
Maﬂe
  6
Continuous
 62
     7
100
AcDbText
 10
163.0485148311
 20
209.7474941037
 30
0.0
 40
3.5
  1
15
 50
303.3267849684
  7
SEACAD_Solid_Edge_ISO
 11
165.9729419648
 21
211.6704413052
 31
0.0
100
AcDbText
 73
     3
  0
ENDBLK
  5
104
330
FE
100
AcDbEntity
  8
0
100
AcDbBlockEnd
  0
BLOCK
  5
10D
330
106
100
AcDbEntity
  8
0
100
AcDbBlockBegin
  2
DMBLK156
 70
     0
 10
0.0
 20
0.0
 30
0.0
  3
DMBLK156
  1

  0
HATCH
  5
107
330
106
100
AcDbEntity
  8
Maﬂe
  6
Continuous
 62
     7
100
AcDbHatch
 10
0.0
 20
0.0
 30
0.0
210
0.0
220
0.0
230
1.0
  2
SOLID
 70
     1
 71
     0
 91
        1
 92
        1
 93
        3
 72
     1
 10
468.4251701517305
 20
33.61906675204228
 11
467.2585034490527
 21
33.61906675204228
 72
     1
 10
467.2585034490527
 20
33.61906675204228
 11
467.8418368003916
 21
30.11906664400886
 72
     1
 10
467.8418368003916
 20
30.11906664400886
 11
468.4251701517305
 21
33.61906675204228
 97
        0
 75
     0
 76
     1
 98
        0
  0
HATCH
  5
108
330
106
100
AcDbEntity
  8
Maﬂe
  6
Continuous
 62
     7
100
AcDbHatch
 10
0.0
 20
0.0
 30
0.0
210
0.0
220
0.0
230
1.0
  2
SOLID
 70
     1
 71
     0
 91
        1
 92
        1
 93
        3
 72
     1
 10
468.4251701517305
 20
18.61906653597545
 11
467.8418368003916
 21
22.11906664400886
 72
     1
 10
467.8418368003916
 20
22.11906664400886
 11
467.2585034490527
 21
18.61906653597545
 72
     1
 10
467.2585034490527
 20
18.61906653597545
 11
468.4251701517305
 21
18.61906653597545
 97
        0
 75
     0
 76
     1
 98
        0
  0
LINE
  5
109
330
106
100
AcDbEntity
  8
Maﬂe
  6
Continuous
 62
     7
100
AcDbLine
 10
452.5109307743
 20
30.119066644
 30
0.0
 11
469.5918368544
 21
30.119066644
 31
0.0
  0
LINE
  5
10A
330
106
100
AcDbEntity
  8
Maﬂe
  6
Continuous
 62
     7
100
AcDbLine
 10
452.5109307743
 20
22.119066644
 30
0.0
 11
469.5918368544
 21
22.119066644
 31
0.0
  0
LINE
  5
10B
330
106
100
AcDbEntity
  8
Maﬂe
  6
Continuous
 62
     7
100
AcDbLine
 10
467.8418368004
 20
42.1888013887
 30
0.0
 11
467.8418368004
 21
15.1190669793
 31
0.0
  0
TEXT
  5
10C
330
106
100
AcDbEntity
  8
Maﬂe
  6
Continuous
 62
     7
100
AcDbText
 10
466.9668368004
 20
38.7365285213
 30
0.0
 40
3.5
  1
8
 50
90.0
  7
SEACAD_Solid_Edge_ISO
 11
463.4668368004
 21
38.7365285213
 31
0.0
100
AcDbText
 73
     3
  0
ENDBLK
  5
10E
330
106
100
AcDbEntity
  8
0
100
AcDbBlockEnd
  0
ENDSEC
  0
SECTION
  2
ENTITIES
  0
INSERT
  5
41
330
1F
100
AcDbEntity
  8
Maﬂe
100
AcDbBlockReference
  2
SEANNOT_GROUP
 10
0.0
 20
0.0
 30
0.0
  0
INSERT
  5
4C
330
1F
100
AcDbEntity
  8
Maﬂe
100
AcDbBlockReference
  2
SEANNOT_GROUP1
 10
0.0
 20
0.0
 30
0.0
  0
INSERT
  5
56
330
1F
100
AcDbEntity
  8
Maﬂe
100
AcDbBlockReference
  2
SEANNOT_GROUP2
 10
0.0
 20
0.0
 30
0.0
  0
INSERT
  5
60
330
1F
100
AcDbEntity
  8
Maﬂe
100
AcDbBlockReference
  2
SEANNOT_GROUP3
 10
0.0
 20
0.0
 30
0.0
  0
INSERT
  5
6A
330
1F
100
AcDbEntity
  8
Maﬂe
100
AcDbBlockReference
  2
SEANNOT_GROUP4
 10
0.0
 20
0.0
 30
0.0
  0
INSERT
  5
70
330
1F
100
AcDbEntity
  8
Default
100
AcDbBlockReference
  2
SE
 10
0.0
 20
0.0
 30
0.0
  0
INSERT
  5
8D
330
1F
100
AcDbEntity
  8
Default
100
AcDbBlockReference
  2
SE1
 10
0.0
 20
0.0
 30
0.0
  0
DIMENSION
  5
B4
330
1F
100
AcDbEntity
  8
Maﬂe
  6
Continuous
 62
     7
100
AcDbDimension
  2
DMBLK147
 10
290.5109307743
 20
85.9219629637
 30
0.0
 11
336.1003852464
 21
85.9219629637
 31
0.0
 70
   161
  1
\A1;<>
 71
     5
 42
-1.0
  3
ISO
100
AcDbAlignedDimension
 13
290.5109307743
 23
124.1603765957
 33
0.0
 14
324.5109307743
 24
124.1603765957
 34
0.0
  0
DIMENSION
  5
BE
330
1F
100
AcDbEntity
  8
Maﬂe
  6
Continuous
 62
     7
100
AcDbDimension
  2
DMBLK148
 10
177.5109307743
 20
221.5103752188
 30
0.0
 11
307.510926006
 21
221.5103752188
 31
0.0
 70
   161
  1
\A1;<>
 71
     5
 42
-1.0
  3
ISO
100
AcDbAlignedDimension
 13
177.5109307743
 23
186.1603765957
 33
0.0
 14
437.5109307743
 24
186.1603765957
 34
0.0
  0
DIMENSION
  5
C8
330
1F
100
AcDbEntity
  8
Maﬂe
  6
Continuous
 62
     7
100
AcDbDimension
  2
DMBLK149
 10
144.785931883
 20
124.1603765957
 30
0.0
 11
144.785931883
 21
155.1603771023
 31
0.0
 70
   160
  1
\A1;<>
 71
     5
 42
-1.0
  3
ISO
100
AcDbAlignedDimension
 13
177.5109307743
 23
186.1603765957
 33
0.0
 14
290.5109307743
 24
124.1603765957
 34
0.0
 50
90.0
100
AcDbRotatedDimension
  0
DIMENSION
  5
D2
330
1F
100
AcDbEntity
  8
Maﬂe
  6
Continuous
 62
     7
100
AcDbDimension
  2
DMBLK150
 10
192.5109307743
 20
163.1603765957
 30
0.0
 11
155.9099382449
 21
141.3396532243
 31
0.0
 70
   164
  1
\A1;<>
 71
     5
 42
-1.0
  3
ISO
100
AcDbRadialDimension
 15
166.742800523
 25
147.7979723778
 35
0.0
 40
0.0
1001
ACAD
1000
DSTYLE
1002
{
1070
    73
1070
     1
1070
    74
1070
     1
1070
    77
1070
     0
1070
     0
1002
}
  0
DIMENSION
  5
DA
330
1F
100
AcDbEntity
  8
Maﬂe
  6
Continuous
 62
     7
100
AcDbDimension
  2
DMBLK151
 10
307.5109307743
 20
385.1403765957
 30
0.0
 11
273.2187370374
 21
264.9361942695
 31
0.0
 70
   164
  1
\A1;<>
 71
     5
 42
-1.0
  3
ISO
100
AcDbRadialDimension
 15
238.9265433004
 25
144.7320119433
 35
0.0
 40
0.0
1001
ACAD
1000
DSTYLE
1002
{
1070
    73
1070
     1
1070
    74
1070
     1
1070
    77
1070
     0
1070
     0
1002
}
  0
DIMENSION
  5
E2
330
1F
100
AcDbEntity
  8
Maﬂe
  6
Continuous
 62
     7
100
AcDbDimension
  2
DMBLK152
 10
307.5109307743
 20
407.9683765957
 30
0.0
 11
349.5744714447
 21
263.9869182949
 31
0.0
 70
   164
  1
\A1;<>
 71
     5
 42
-1.0
  3
ISO
100
AcDbRadialDimension
 15
391.6380087721
 25
120.0054714368
 35
0.0
 40
0.0
1001
ACAD
1000
DSTYLE
1002
{
1070
    73
1070
     1
1070
    74
1070
     1
1070
    77
1070
     0
1070
     0
1002
}
  0
DIMENSION
  5
EA
330
1F
100
AcDbEntity
  8
Maﬂe
  6
Continuous
 62
     7
100
AcDbDimension
  2
DMBLK153
 10
433.6823636185
 20
185.0018976218
 30
0.0
 11
464.8552565112
 21
194.4344449696
 31
0.0
 70
   163
  1
\A1;<>
 71
     5
 42
-1.0
  3
ISO
100
AcDbDiametricDimension
 15
441.3394979302
 25
187.3188555696
 35
0.0
 40
0.0
1001
ACAD
1000
DSTYLE
1002
{
1070
   279
1070
     1
1070
     0
1002
}
  0
DIMENSION
  5
F5
330
1F
100
AcDbEntity
  8
Maﬂe
  6
Continuous
 62
     7
100
AcDbDimension
  2
DMBLK154
 10
207.5109307743
 20
172.4786734143
 30
0.0
 11
211.3276264704
 21
173.1965278263
 31
0.0
 70
   164
  1
\A1;<>
 71
     5
 42
-1.0
  3
ISO
100
AcDbRadialDimension
 15
192.7694061958
 25
169.7060477451
 35
0.0
 40
0.0
1001
ACAD
1000
DSTYLE
1002
{
1070
    73
1070
     1
1070
    74
1070
     1
1070
    77
1070
     0
1070
     0
1002
}
  0
DIMENSION
  5
FD
330
1F
100
AcDbEntity
  8
Maﬂe
  6
Continuous
 62
     7
100
AcDbDimension
  2
DMBLK155
 10
177.5109307743
 20
186.1603765957
 30
0.0
 11
164.8696834242
 21
205.3852449259
 31
0.0
 70
   164
  1
\A1;<>
 71
     5
 42
-1.0
  3
ISO
100
AcDbRadialDimension
 15
169.2697284823
 25
198.6936357401
 35
0.0
 40
0.0
1001
ACAD
1000
DSTYLE
1002
{
1070
    73
1070
     1
1070
    74
1070
     1
1070
    77
1070
     0
1070
     0
1002
}
  0
DIMENSION
  5
105
330
1F
100
AcDbEntity
  8
Maﬂe
  6
Continuous
 62
     7
100
AcDbDimension
  2
DMBLK156
 10
467.8418368004
 20
30.119066644
 30
0.0
 11
467.8418368004
 21
37.5115285213
 31
0.0
 70
   161
  1
\A1;<>
 71
     5
 42
-1.0
  3
ISO
100
AcDbAlignedDimension
 13
452.5109307743
 23
30.119066644
 33
0.0
 14
452.5109307743
 24
22.119066644
 34
0.0
  0
ENDSEC
  0
SECTION
  2
OBJECTS
  0
DICTIONARY
  5
C
330
0
100
AcDbDictionary
281
     1
  3
ACAD_GROUP
350
D
  3
ACAD_LAYOUT
350
1A
  3
ACAD_MATERIAL
350
3B
  3
ACAD_MLEADERSTYLE
350
111
  3
ACAD_MLINESTYLE
350
17
  3
ACAD_PLOTSETTINGS
350
19
  3
ACAD_PLOTSTYLENAME
350
E
  3
ACAD_VISUALSTYLE
350
2A
  3
AcDbVariableDictionary
350
10F
  0
DICTIONARY
  5
D
102
{ACAD_REACTORS
330
C
102
}
330
C
100
AcDbDictionary
281
     1
  0
DICTIONARY
  5
1A
102
{ACAD_REACTORS
330
C
102
}
330
C
100
AcDbDictionary
281
     1
  3
Layout1
350
1E
  3
Model
350
22
  0
DICTIONARY
  5
3B
102
{ACAD_REACTORS
330
C
102
}
330
C
100
AcDbDictionary
281
     1
  3
ByBlock
350
3D
  3
ByLayer
350
3C
  3
Global
350
3E
  0
DICTIONARY
  5
111
102
{ACAD_REACTORS
330
C
102
}
330
C
100
AcDbDictionary
281
     1
  0
DICTIONARY
  5
17
102
{ACAD_REACTORS
330
C
102
}
330
C
100
AcDbDictionary
281
     1
  3
Standard
350
18
  0
DICTIONARY
  5
19
102
{ACAD_REACTORS
330
C
102
}
330
C
100
AcDbDictionary
281
     1
  0
ACDBDICTIONARYWDFLT
  5
E
102
{ACAD_REACTORS
330
C
102
}
330
C
100
AcDbDictionary
281
     1
  3
Normal
350
F
100
AcDbDictionaryWithDefault
340
F
  0
DICTIONARY
  5
2A
102
{ACAD_REACTORS
330
C
102
}
330
C
100
AcDbDictionary
281
     1
  3
2dWireframe
350
2F
  3
3D Hidden
350
31
  3
3dWireframe
350
30
  3
Basic
350
32
  3
Brighten
350
36
  3
ColorChange
350
3A
  3
Conceptual
350
34
  3
Dim
350
35
  3
Facepattern
350
39
  3
Flat
350
2B
  3
FlatWithEdges
350
2C
  3
Gouraud
350
2D
  3
GouraudWithEdges
350
2E
  3
Linepattern
350
38
  3
Realistic
350
33
  3
Thicken
350
37
  0
DICTIONARY
  5
10F
102
{ACAD_REACTORS
330
C
102
}
330
C
100
AcDbDictionary
281
     1
  3
DIMASSOC
350
114
  3
HIDETEXT
350
115
  3
PSOLHEIGHT
350
113
  3
PSOLWIDTH
350
112
  0
LAYOUT
  5
1E
102
{ACAD_REACTORS
330
1A
102
}
330
1A
100
AcDbPlotSettings
  1

  2
none_device
  4

  6

 40
0.0
 41
0.0
 42
0.0
 43
0.0
 44
0.0
 45
0.0
 46
0.0
 47
0.0
 48
0.0
 49
0.0
140
0.0
141
0.0
142
1.0
143
1.0
 70
   688
 72
     0
 73
     0
 74
     5
  7

 75
    16
147
1.0
148
0.0
149
0.0
100
AcDbLayout
  1
Layout1
 70
     1
 71
     1
 10
0.0
 20
0.0
 11
594.0
 21
420.0
 12
0.0
 22
0.0
 32
0.0
 14
0.0
 24
0.0
 34
0.0
 15
594.0
 25
420.0
 35
0.0
146
0.0
 13
0.0
 23
0.0
 33
0.0
 16
1.0
 26
0.0
 36
0.0
 17
0.0
 27
1.0
 37
0.0
 76
     0
330
1B
  0
LAYOUT
  5
22
102
{ACAD_REACTORS
330
1A
102
}
330
1A
100
AcDbPlotSettings
  1

  2
none_device
  4

  6

 40
0.0
 41
0.0
 42
0.0
 43
0.0
 44
0.0
 45
0.0
 46
0.0
 47
0.0
 48
0.0
 49
0.0
140
0.0
141
0.0
142
1.0
143
1.0
 70
  1712
 72
     0
 73
     0
 74
     0
  7

 75
     0
147
1.0
148
0.0
149
0.0
100
AcDbLayout
  1
Model
 70
     1
 71
     0
 10
0.0
 20
0.0
 11
594.0
 21
420.0
 12
0.0
 22
0.0
 32
0.0
 14
0.0
 24
0.0
 34
0.0
 15
594.0
 25
420.0
 35
0.0
146
0.0
 13
0.0
 23
0.0
 33
0.0
 16
1.0
 26
0.0
 36
0.0
 17
0.0
 27
1.0
 37
0.0
 76
     0
330
1F
331
29
  0
MATERIAL
  5
3D
102
{ACAD_REACTORS
330
3B
102
}
102
{ACAD_XDICTIONARY
360
138
102
}
330
3B
100
AcDbMaterial
  1
ByBlock
  0
MATERIAL
  5
3C
102
{ACAD_REACTORS
330
3B
102
}
102
{ACAD_XDICTIONARY
360
136
102
}
330
3B
100
AcDbMaterial
  1
ByLayer
  0
MATERIAL
  5
3E
102
{ACAD_REACTORS
330
3B
102
}
102
{ACAD_XDICTIONARY
360
13A
102
}
330
3B
100
AcDbMaterial
  1
Global
  0
MLINESTYLE
  5
18
102
{ACAD_REACTORS
330
17
102
}
330
17
100
AcDbMlineStyle
  2
Standard
 70
     0
  3

 62
   256
 51
90.0
 52
90.0
 71
     2
 49
0.5
 62
   256
  6
BYLAYER
 49
-0.5
 62
   256
  6
BYLAYER
  0
ACDBPLACEHOLDER
  5
F
102
{ACAD_REACTORS
330
E
102
}
330
E
  0
VISUALSTYLE
  5
2F
102
{ACAD_REACTORS
330
2A
102
}
102
{ACAD_XDICTIONARY
360
11E
102
}
330
2A
100
AcDbVisualStyle
  2
2dWireframe
 70
     4
 71
     0
 72
     2
 73
     0
 90
        0
 40
-0.6
 41
-30.0
 62
     5
 63
     7
 74
     1
 91
        4
 64
     7
 65
   257
 75
     1
175
     1
 42
1.0
 92
        0
 66
   257
 43
1.0
 76
     1
 77
     6
 78
     2
 67
     7
 79
     5
170
     0
171
     0
290
     0
174
     0
 93
        1
 44
0.0
173
     0
291
     0
 45
0.0
1001
ACAD
1000
AcDbSavedByObjectVersion
1070
     0
  0
VISUALSTYLE
  5
31
102
{ACAD_REACTORS
330
2A
102
}
102
{ACAD_XDICTIONARY
360
122
102
}
330
2A
100
AcDbVisualStyle
  2
3D Hidden
 70
     6
 71
     1
 72
     2
 73
     2
 90
        0
 40
-0.6
 41
-30.0
 62
     5
 63
     7
 74
     2
 91
        2
 64
     7
 65
   257
 75
     2
175
     1
 42
40.0
 92
        0
 66
   257
 43
1.0
 76
     1
 77
     6
 78
     2
 67
     7
 79
     3
170
     0
171
     0
290
     0
174
     0
 93
        1
 44
0.0
173
     0
291
     0
 45
0.0
1001
ACAD
1000
AcDbSavedByObjectVersion
1070
     0
  0
VISUALSTYLE
  5
30
102
{ACAD_REACTORS
330
2A
102
}
102
{ACAD_XDICTIONARY
360
120
102
}
330
2A
100
AcDbVisualStyle
  2
3dWireframe
 70
     5
 71
     0
 72
     2
 73
     0
 90
        0
 40
-0.6
 41
-30.0
 62
     5
 63
     7
 74
     1
 91
        4
 64
     7
 65
   257
 75
     1
175
     1
 42
1.0
 92
        0
 66
   257
 43
1.0
 76
     1
 77
     6
 78
     2
 67
     7
 79
     5
170
     0
171
     0
290
     0
174
     0
 93
        1
 44
0.0
173
     0
291
     0
 45
0.0
1001
ACAD
1000
AcDbSavedByObjectVersion
1070
     0
  0
VISUALSTYLE
  5
32
102
{ACAD_REACTORS
330
2A
102
}
102
{ACAD_XDICTIONARY
360
124
102
}
330
2A
100
AcDbVisualStyle
  2
Basic
 70
     7
 71
     1
 72
     0
 73
     1
 90
        0
 40
-0.6
 41
-30.0
 62
     5
 63
     7
 74
     0
 91
        4
 64
     7
 65
   257
 75
     1
175
     1
 42
1.0
 92
        8
 66
     7
 43
1.0
 76
     1
 77
     6
 78
     2
 67
     7
 79
     5
170
     0
171
     0
290
     0
174
     0
 93
        1
 44
0.0
173
     0
291
     1
 45
0.0
1001
ACAD
1000
AcDbSavedByObjectVersion
1070
     0
  0
VISUALSTYLE
  5
36
102
{ACAD_REACTORS
330
2A
102
}
102
{ACAD_XDICTIONARY
360
12C
102
}
330
2A
100
AcDbVisualStyle
  2
Brighten
 70
    12
 71
     2
 72
     2
 73
     0
 90
        0
 40
-0.6
 41
-30.0
 62
     5
 63
     7
 74
     1
 91
        4
 64
     7
 65
   257
 75
     1
175
     1
 42
1.0
 92
        8
 66
     7
 43
1.0
 76
     1
 77
     6
 78
     2
 67
     7
 79
     5
170
     0
171
     0
290
     0
174
     0
 93
        1
 44
50.0
173
     0
291
     1
 45
0.0
1001
ACAD
1000
AcDbSavedByObjectVersion
1070
     0
  0
VISUALSTYLE
  5
3A
102
{ACAD_REACTORS
330
2A
102
}
102
{ACAD_XDICTIONARY
360
134
102
}
330
2A
100
AcDbVisualStyle
  2
ColorChange
 70
    16
 71
     2
 72
     2
 73
     3
 90
        0
 40
-0.6
 41
-30.0
 62
     5
 63
     8
 74
     1
 91
        4
 64
     7
 65
   257
 75
     1
175
     1
 42
1.0
 92
        8
 66
     8
 43
1.0
 76
     1
 77
     6
 78
     2
 67
     7
 79
     5
170
     0
171
     0
290
     0
174
     0
 93
        1
 44
0.0
173
     0
291
     1
 45
0.0
1001
ACAD
1000
AcDbSavedByObjectVersion
1070
     0
  0
VISUALSTYLE
  5
34
102
{ACAD_REACTORS
330
2A
102
}
102
{ACAD_XDICTIONARY
360
128
102
}
330
2A
100
AcDbVisualStyle
  2
Conceptual
 70
     9
 71
     3
 72
     2
 73
     0
 90
        0
 40
-0.6
 41
-30.0
 62
     5
 63
     7
 74
     2
 91
        2
 64
     7
 65
   257
 75
     1
175
     1
 42
40.0
 92
        8
 66
     7
 43
1.0
 76
     1
 77
     6
 78
     2
 67
     7
 79
     3
170
     0
171
     0
290
     0
174
     0
 93
        1
 44
0.0
173
     0
291
     0
 45
0.0
1001
ACAD
1000
AcDbSavedByObjectVersion
1070
     0
  0
VISUALSTYLE
  5
35
102
{ACAD_REACTORS
330
2A
102
}
102
{ACAD_XDICTIONARY
360
12A
102
}
330
2A
100
AcDbVisualStyle
  2
Dim
 70
    11
 71
     2
 72
     2
 73
     0
 90
        0
 40
-0.6
 41
-30.0
 62
     5
 63
     7
 74
     1
 91
        4
 64
     7
 65
   257
 75
     1
175
     1
 42
1.0
 92
        8
 66
     7
 43
1.0
 76
     1
 77
     6
 78
     2
 67
     7
 79
     5
170
     0
171
     0
290
     0
174
     0
 93
        1
 44
-50.0
173
     0
291
     1
 45
0.0
1001
ACAD
1000
AcDbSavedByObjectVersion
1070
     0
  0
VISUALSTYLE
  5
39
102
{ACAD_REACTORS
330
2A
102
}
102
{ACAD_XDICTIONARY
360
132
102
}
330
2A
100
AcDbVisualStyle
  2
Facepattern
 70
    15
 71
     2
 72
     2
 73
     0
 90
        0
 40
-0.6
 41
-30.0
 62
     5
 63
     7
 74
     1
 91
        4
 64
     7
 65
   257
 75
     1
175
     1
 42
1.0
 92
        8
 66
     7
 43
1.0
 76
     1
 77
     6
 78
     2
 67
     7
 79
     5
170
     0
171
     0
290
     0
174
     0
 93
        1
 44
0.0
173
     0
291
     1
 45
0.0
1001
ACAD
1000
AcDbSavedByObjectVersion
1070
     0
  0
VISUALSTYLE
  5
2B
102
{ACAD_REACTORS
330
2A
102
}
102
{ACAD_XDICTIONARY
360
116
102
}
330
2A
100
AcDbVisualStyle
  2
Flat
 70
     0
 71
     2
 72
     1
 73
     1
 90
        2
 40
-0.6
 41
30.0
 62
     5
 63
     7
 74
     0
 91
        4
 64
     7
 65
   257
 75
     1
175
     1
 42
1.0
 92
        8
 66
     7
 43
1.0
 76
     1
 77
     6
 78
     2
 67
     7
 79
     5
170
     0
171
     0
290
     0
174
     0
 93
       13
 44
0.0
173
     0
291
     1
 45
0.0
1001
ACAD
1000
AcDbSavedByObjectVersion
1070
     0
  0
VISUALSTYLE
  5
2C
102
{ACAD_REACTORS
330
2A
102
}
102
{ACAD_XDICTIONARY
360
118
102
}
330
2A
100
AcDbVisualStyle
  2
FlatWithEdges
 70
     1
 71
     2
 72
     1
 73
     1
 90
        2
 40
-0.6
 41
30.0
 62
     5
 63
     7
 74
     1
 91
        4
 64
     7
 65
   257
 75
     1
175
     1
 42
1.0
 92
        0
 66
   257
 43
1.0
 76
     1
 77
     6
 78
     2
 67
     7
 79
     5
170
     0
171
     0
290
     0
174
     0
 93
       13
 44
0.0
173
     0
291
     1
 45
0.0
1001
ACAD
1000
AcDbSavedByObjectVersion
1070
     0
  0
VISUALSTYLE
  5
2D
102
{ACAD_REACTORS
330
2A
102
}
102
{ACAD_XDICTIONARY
360
11A
102
}
330
2A
100
AcDbVisualStyle
  2
Gouraud
 70
     2
 71
     2
 72
     2
 73
     1
 90
        2
 40
-0.6
 41
30.0
 62
     5
 63
     7
 74
     0
 91
        4
 64
     7
 65
   257
 75
     1
175
     1
 42
1.0
 92
        0
 66
     7
 43
1.0
 76
     1
 77
     6
 78
     2
 67
     7
 79
     5
170
     0
171
     0
290
     0
174
     0
 93
       13
 44
0.0
173
     0
291
     1
 45
0.0
1001
ACAD
1000
AcDbSavedByObjectVersion
1070
     0
  0
VISUALSTYLE
  5
2E
102
{ACAD_REACTORS
330
2A
102
}
102
{ACAD_XDICTIONARY
360
11C
102
}
330
2A
100
AcDbVisualStyle
  2
GouraudWithEdges
 70
     3
 71
     2
 72
     2
 73
     1
 90
        2
 40
-0.6
 41
30.0
 62
     5
 63
     7
 74
     1
 91
        4
 64
     7
 65
   257
 75
     1
175
     1
 42
1.0
 92
        0
 66
   257
 43
1.0
 76
     1
 77
     6
 78
     2
 67
     7
 79
     5
170
     0
171
     0
290
     0
174
     0
 93
       13
 44
0.0
173
     0
291
     1
 45
0.0
1001
ACAD
1000
AcDbSavedByObjectVersion
1070
     0
  0
VISUALSTYLE
  5
38
102
{ACAD_REACTORS
330
2A
102
}
102
{ACAD_XDICTIONARY
360
130
102
}
330
2A
100
AcDbVisualStyle
  2
Linepattern
 70
    14
 71
     2
 72
     2
 73
     0
 90
        0
 40
-0.6
 41
-30.0
 62
     5
 63
     7
 74
     1
 91
        4
 64
     7
 65
   257
 75
     7
175
     7
 42
1.0
 92
        8
 66
     7
 43
1.0
 76
     1
 77
     6
 78
     2
 67
     7
 79
     5
170
     0
171
     0
290
     0
174
     0
 93
        1
 44
0.0
173
     0
291
     1
 45
0.0
1001
ACAD
1000
AcDbSavedByObjectVersion
1070
     0
  0
VISUALSTYLE
  5
33
102
{ACAD_REACTORS
330
2A
102
}
102
{ACAD_XDICTIONARY
360
126
102
}
330
2A
100
AcDbVisualStyle
  2
Realistic
 70
     8
 71
     2
 72
     2
 73
     0
 90
        0
 40
-0.6
 41
-30.0
 62
     5
 63
     7
 74
     1
 91
        0
 64
     7
 65
   257
 75
     1
175
     1
 42
1.0
 92
        8
 66
     8
 43
1.0
 76
     1
 77
     6
 78
     2
 67
     7
 79
     5
170
     0
171
     0
290
     0
174
     0
 93
       13
 44
0.0
173
     0
291
     0
 45
0.0
1001
ACAD
1000
AcDbSavedByObjectVersion
1070
     0
  0
VISUALSTYLE
  5
37
102
{ACAD_REACTORS
330
2A
102
}
102
{ACAD_XDICTIONARY
360
12E
102
}
330
2A
100
AcDbVisualStyle
  2
Thicken
 70
    13
 71
     2
 72
     2
 73
     0
 90
        0
 40
-0.6
 41
-30.0
 62
     5
 63
     7
 74
     1
 91
        4
 64
     7
 65
   257
 75
     1
175
     1
 42
1.0
 92
       12
 66
     7
 43
1.0
 76
     1
 77
     6
 78
     2
 67
     7
 79
     5
170
     0
171
     0
290
     0
174
     0
 93
        1
 44
0.0
173
     0
291
     1
 45
0.0
1001
ACAD
1000
AcDbSavedByObjectVersion
1070
     0
  0
DICTIONARYVAR
  5
114
102
{ACAD_REACTORS
330
10F
102
}
330
10F
100
DictionaryVariables
280
     0
  1
2
  0
DICTIONARYVAR
  5
115
102
{ACAD_REACTORS
330
10F
102
}
330
10F
100
DictionaryVariables
280
     0
  1
1
  0
DICTIONARYVAR
  5
113
102
{ACAD_REACTORS
330
10F
102
}
330
10F
100
DictionaryVariables
280
     0
  1
80.000000
  0
DICTIONARYVAR
  5
112
102
{ACAD_REACTORS
330
10F
102
}
330
10F
100
DictionaryVariables
280
     0
  1
5.000000
  0
DICTIONARY
  5
138
330
3D
100
AcDbDictionary
280
     1
281
     1
  3
ACAD_XREC_ROUNDTRIP
360
139
  0
DICTIONARY
  5
136
330
3C
100
AcDbDictionary
280
     1
281
     1
  3
ACAD_XREC_ROUNDTRIP
360
137
  0
DICTIONARY
  5
13A
330
3E
100
AcDbDictionary
280
     1
281
     1
  3
ACAD_XREC_ROUNDTRIP
360
13B
  0
DICTIONARY
  5
11E
330
2F
100
AcDbDictionary
280
     1
281
     1
  3
ACAD_XREC_ROUNDTRIP
360
11F
  0
DICTIONARY
  5
122
330
31
100
AcDbDictionary
280
     1
281
     1
  3
ACAD_XREC_ROUNDTRIP
360
123
  0
DICTIONARY
  5
120
330
30
100
AcDbDictionary
280
     1
281
     1
  3
ACAD_XREC_ROUNDTRIP
360
121
  0
DICTIONARY
  5
124
330
32
100
AcDbDictionary
280
     1
281
     1
  3
ACAD_XREC_ROUNDTRIP
360
125
  0
DICTIONARY
  5
12C
330
36
100
AcDbDictionary
280
     1
281
     1
  3
ACAD_XREC_ROUNDTRIP
360
12D
  0
DICTIONARY
  5
134
330
3A
100
AcDbDictionary
280
     1
281
     1
  3
ACAD_XREC_ROUNDTRIP
360
135
  0
DICTIONARY
  5
128
330
34
100
AcDbDictionary
280
     1
281
     1
  3
ACAD_XREC_ROUNDTRIP
360
129
  0
DICTIONARY
  5
12A
330
35
100
AcDbDictionary
280
     1
281
     1
  3
ACAD_XREC_ROUNDTRIP
360
12B
  0
DICTIONARY
  5
132
330
39
100
AcDbDictionary
280
     1
281
     1
  3
ACAD_XREC_ROUNDTRIP
360
133
  0
DICTIONARY
  5
116
330
2B
100
AcDbDictionary
280
     1
281
     1
  3
ACAD_XREC_ROUNDTRIP
360
117
  0
DICTIONARY
  5
118
330
2C
100
AcDbDictionary
280
     1
281
     1
  3
ACAD_XREC_ROUNDTRIP
360
119
  0
DICTIONARY
  5
11A
330
2D
100
AcDbDictionary
280
     1
281
     1
  3
ACAD_XREC_ROUNDTRIP
360
11B
  0
DICTIONARY
  5
11C
330
2E
100
AcDbDictionary
280
     1
281
     1
  3
ACAD_XREC_ROUNDTRIP
360
11D
  0
DICTIONARY
  5
130
330
38
100
AcDbDictionary
280
     1
281
     1
  3
ACAD_XREC_ROUNDTRIP
360
131
  0
DICTIONARY
  5
126
330
33
100
AcDbDictionary
280
     1
281
     1
  3
ACAD_XREC_ROUNDTRIP
360
127
  0
DICTIONARY
  5
12E
330
37
100
AcDbDictionary
280
     1
281
     1
  3
ACAD_XREC_ROUNDTRIP
360
12F
  0
XRECORD
  5
139
102
{ACAD_REACTORS
330
138
102
}
330
138
100
AcDbXrecord
280
     1
102
MATERIAL
148
0.0
149
0.0
149
0.0
 93
        0
 94
      127
282
     0
 72
     1
 77
     1
171
     1
175
     1
179
     1
273
     0
  0
XRECORD
  5
137
102
{ACAD_REACTORS
330
136
102
}
330
136
100
AcDbXrecord
280
     1
102
MATERIAL
148
0.0
149
0.0
149
0.0
 93
        0
 94
      127
282
     0
 72
     1
 77
     1
171
     1
175
     1
179
     1
273
     0
  0
XRECORD
  5
13B
102
{ACAD_REACTORS
330
13A
102
}
330
13A
100
AcDbXrecord
280
     1
102
MATERIAL
148
0.0
149
0.0
149
0.0
 93
        0
 94
      127
282
     0
 72
     1
 77
     1
171
     1
175
     1
179
     1
273
     0
  0
XRECORD
  5
11F
102
{ACAD_REACTORS
330
11E
102
}
330
11E
100
AcDbXrecord
280
     1
102
RTVSPropertyOp0
 70
     1
102
RTVSPropertyOp1
 70
     1
102
RTVSPropertyOp2
 70
     1
102
RTVSPropertyOp3
 70
     1
102
RTVSPropertyOp4
 70
     1
102
RTVSPropertyOp5
 70
     1
102
RTVSPropertyOp6
 70
     1
102
RTVSPropertyOp7
 70
     1
102
RTVSPropertyOp8
 70
     1
102
RTVSPropertyOp9
 70
     1
102
RTVSPropertyOp10
 70
     1
102
RTVSPropertyOp11
 70
     1
102
RTVSPropertyOp12
 70
     1
102
RTVSPropertyOp13
 70
     1
102
RTVSPropertyOp14
 70
     1
102
RTVSPropertyOp15
 70
     1
102
RTVSPropertyOp16
 70
     1
102
RTVSPropertyOp17
 70
     1
102
RTVSPropertyOp18
 70
     1
102
RTVSPropertyOp19
 70
     1
102
RTVSPropertyOp20
 70
     1
102
RTVSPropertyOp21
 70
     1
102
RTVSPropertyOp22
 70
     1
102
RTVSPropertyOp23
 70
     1
102
RTVSPropertyOp24
 70
     1
102
RTVSPropertyOp25
 70
     1
102
RTVSPropertyOp26
 70
     1
102
RTVSPropertyOp27
 70
     1
102
RTVSPropertyOp28
 70
     1
102
RTVSPropertyOp29
 70
     1
102
RTVSPropertyOp30
 70
     1
102
RTVSPropertyOp31
 70
     1
102
RTVSPropertyOp32
 70
     1
  0
XRECORD
  5
123
102
{ACAD_REACTORS
330
122
102
}
330
122
100
AcDbXrecord
280
     1
102
RTVSPropertyOp0
 70
     1
102
RTVSPropertyOp1
 70
     1
102
RTVSPropertyOp2
 70
     1
102
RTVSPropertyOp3
 70
     1
102
RTVSPropertyOp4
 70
     1
102
RTVSPropertyOp5
 70
     1
102
RTVSPropertyOp6
 70
     1
102
RTVSPropertyOp7
 70
     1
102
RTVSPropertyOp8
 70
     1
102
RTVSPropertyOp9
 70
     1
102
RTVSPropertyOp10
 70
     1
102
RTVSPropertyOp11
 70
     1
102
RTVSPropertyOp12
 70
     1
102
RTVSPropertyOp13
 70
     1
102
RTVSPropertyOp14
 70
     1
102
RTVSPropertyOp15
 70
     1
102
RTVSPropertyOp16
 70
     1
102
RTVSPropertyOp17
 70
     1
102
RTVSPropertyOp18
 70
     1
102
RTVSPropertyOp19
 70
     1
102
RTVSPropertyOp20
 70
     1
102
RTVSPropertyOp21
 70
     1
102
RTVSPropertyOp22
 70
     1
102
RTVSPropertyOp23
 70
     1
102
RTVSPropertyOp24
 70
     1
102
RTVSPropertyOp25
 70
     1
102
RTVSPropertyOp26
 70
     1
102
RTVSPropertyOp27
 70
     1
102
RTVSPropertyOp28
 70
     1
102
RTVSPropertyOp29
 70
     1
102
RTVSPropertyOp30
 70
     1
102
RTVSPropertyOp31
 70
     1
102
RTVSPropertyOp32
 70
     1
  0
XRECORD
  5
121
102
{ACAD_REACTORS
330
120
102
}
330
120
100
AcDbXrecord
280
     1
102
RTVSPropertyOp0
 70
     1
102
RTVSPropertyOp1
 70
     1
102
RTVSPropertyOp2
 70
     1
102
RTVSPropertyOp3
 70
     1
102
RTVSPropertyOp4
 70
     1
102
RTVSPropertyOp5
 70
     1
102
RTVSPropertyOp6
 70
     1
102
RTVSPropertyOp7
 70
     1
102
RTVSPropertyOp8
 70
     1
102
RTVSPropertyOp9
 70
     1
102
RTVSPropertyOp10
 70
     1
102
RTVSPropertyOp11
 70
     1
102
RTVSPropertyOp12
 70
     1
102
RTVSPropertyOp13
 70
     1
102
RTVSPropertyOp14
 70
     1
102
RTVSPropertyOp15
 70
     1
102
RTVSPropertyOp16
 70
     1
102
RTVSPropertyOp17
 70
     1
102
RTVSPropertyOp18
 70
     1
102
RTVSPropertyOp19
 70
     1
102
RTVSPropertyOp20
 70
     1
102
RTVSPropertyOp21
 70
     1
102
RTVSPropertyOp22
 70
     1
102
RTVSPropertyOp23
 70
     1
102
RTVSPropertyOp24
 70
     1
102
RTVSPropertyOp25
 70
     1
102
RTVSPropertyOp26
 70
     1
102
RTVSPropertyOp27
 70
     1
102
RTVSPropertyOp28
 70
     1
102
RTVSPropertyOp29
 70
     1
102
RTVSPropertyOp30
 70
     1
102
RTVSPropertyOp31
 70
     1
102
RTVSPropertyOp32
 70
     1
  0
XRECORD
  5
125
102
{ACAD_REACTORS
330
124
102
}
330
124
100
AcDbXrecord
280
     1
102
RTVSPropertyOp0
 70
     1
102
RTVSPropertyOp1
 70
     1
102
RTVSPropertyOp2
 70
     1
102
RTVSPropertyOp3
 70
     1
102
RTVSPropertyOp4
 70
     1
102
RTVSPropertyOp5
 70
     1
102
RTVSPropertyOp6
 70
     1
102
RTVSPropertyOp7
 70
     1
102
RTVSPropertyOp8
 70
     1
102
RTVSPropertyOp9
 70
     1
102
RTVSPropertyOp10
 70
     1
102
RTVSPropertyOp11
 70
     1
102
RTVSPropertyOp12
 70
     1
102
RTVSPropertyOp13
 70
     1
102
RTVSPropertyOp14
 70
     1
102
RTVSPropertyOp15
 70
     1
102
RTVSPropertyOp16
 70
     1
102
RTVSPropertyOp17
 70
     1
102
RTVSPropertyOp18
 70
     1
102
RTVSPropertyOp19
 70
     1
102
RTVSPropertyOp20
 70
     1
102
RTVSPropertyOp21
 70
     1
102
RTVSPropertyOp22
 70
     1
102
RTVSPropertyOp23
 70
     1
102
RTVSPropertyOp24
 70
     1
102
RTVSPropertyOp25
 70
     1
102
RTVSPropertyOp26
 70
     1
102
RTVSPropertyOp27
 70
     1
102
RTVSPropertyOp28
 70
     1
102
RTVSPropertyOp29
 70
     1
102
RTVSPropertyOp30
 70
     1
102
RTVSPropertyOp31
 70
     1
102
RTVSPropertyOp32
 70
     1
  0
XRECORD
  5
12D
102
{ACAD_REACTORS
330
12C
102
}
330
12C
100
AcDbXrecord
280
     1
102
RTVSPropertyOp0
 70
     1
102
RTVSPropertyOp1
 70
     1
102
RTVSPropertyOp2
 70
     1
102
RTVSPropertyOp3
 70
     1
102
RTVSPropertyOp4
 70
     1
102
RTVSPropertyOp5
 70
     1
102
RTVSPropertyOp6
 70
     1
102
RTVSPropertyOp7
 70
     1
102
RTVSPropertyOp8
 70
     1
102
RTVSPropertyOp9
 70
     1
102
RTVSPropertyOp10
 70
     1
102
RTVSPropertyOp11
 70
     1
102
RTVSPropertyOp12
 70
     1
102
RTVSPropertyOp13
 70
     1
102
RTVSPropertyOp14
 70
     1
102
RTVSPropertyOp15
 70
     1
102
RTVSPropertyOp16
 70
     1
102
RTVSPropertyOp17
 70
     1
102
RTVSPropertyOp18
 70
     1
102
RTVSPropertyOp19
 70
     1
102
RTVSPropertyOp20
 70
     1
102
RTVSPropertyOp21
 70
     1
102
RTVSPropertyOp22
 70
     1
102
RTVSPropertyOp23
 70
     1
102
RTVSPropertyOp24
 70
     1
102
RTVSPropertyOp25
 70
     1
102
RTVSPropertyOp26
 70
     1
102
RTVSPropertyOp27
 70
     1
102
RTVSPropertyOp28
 70
     1
102
RTVSPropertyOp29
 70
     1
102
RTVSPropertyOp30
 70
     1
102
RTVSPropertyOp31
 70
     1
102
RTVSPropertyOp32
 70
     1
  0
XRECORD
  5
135
102
{ACAD_REACTORS
330
134
102
}
330
134
100
AcDbXrecord
280
     1
102
RTVSPropertyOp0
 70
     1
102
RTVSPropertyOp1
 70
     1
102
RTVSPropertyOp2
 70
     1
102
RTVSPropertyOp3
 70
     1
102
RTVSPropertyOp4
 70
     1
102
RTVSPropertyOp5
 70
     1
102
RTVSPropertyOp6
 70
     1
102
RTVSPropertyOp7
 70
     1
102
RTVSPropertyOp8
 70
     1
102
RTVSPropertyOp9
 70
     1
102
RTVSPropertyOp10
 70
     1
102
RTVSPropertyOp11
 70
     1
102
RTVSPropertyOp12
 70
     1
102
RTVSPropertyOp13
 70
     1
102
RTVSPropertyOp14
 70
     1
102
RTVSPropertyOp15
 70
     1
102
RTVSPropertyOp16
 70
     1
102
RTVSPropertyOp17
 70
     1
102
RTVSPropertyOp18
 70
     1
102
RTVSPropertyOp19
 70
     1
102
RTVSPropertyOp20
 70
     1
102
RTVSPropertyOp21
 70
     1
102
RTVSPropertyOp22
 70
     1
102
RTVSPropertyOp23
 70
     1
102
RTVSPropertyOp24
 70
     1
102
RTVSPropertyOp25
 70
     1
102
RTVSPropertyOp26
 70
     1
102
RTVSPropertyOp27
 70
     1
102
RTVSPropertyOp28
 70
     1
102
RTVSPropertyOp29
 70
     1
102
RTVSPropertyOp30
 70
     1
102
RTVSPropertyOp31
 70
     1
102
RTVSPropertyOp32
 70
     1
  0
XRECORD
  5
129
102
{ACAD_REACTORS
330
128
102
}
330
128
100
AcDbXrecord
280
     1
102
RTVSPropertyOp0
 70
     1
102
RTVSPropertyOp1
 70
     1
102
RTVSPropertyOp2
 70
     1
102
RTVSPropertyOp3
 70
     1
102
RTVSPropertyOp4
 70
     1
102
RTVSPropertyOp5
 70
     1
102
RTVSPropertyOp6
 70
     1
102
RTVSPropertyOp7
 70
     1
102
RTVSPropertyOp8
 70
     1
102
RTVSPropertyOp9
 70
     1
102
RTVSPropertyOp10
 70
     1
102
RTVSPropertyOp11
 70
     1
102
RTVSPropertyOp12
 70
     1
102
RTVSPropertyOp13
 70
     1
102
RTVSPropertyOp14
 70
     1
102
RTVSPropertyOp15
 70
     1
102
RTVSPropertyOp16
 70
     1
102
RTVSPropertyOp17
 70
     1
102
RTVSPropertyOp18
 70
     1
102
RTVSPropertyOp19
 70
     1
102
RTVSPropertyOp20
 70
     1
102
RTVSPropertyOp21
 70
     1
102
RTVSPropertyOp22
 70
     1
102
RTVSPropertyOp23
 70
     1
102
RTVSPropertyOp24
 70
     1
102
RTVSPropertyOp25
 70
     1
102
RTVSPropertyOp26
 70
     1
102
RTVSPropertyOp27
 70
     1
102
RTVSPropertyOp28
 70
     1
102
RTVSPropertyOp29
 70
     1
102
RTVSPropertyOp30
 70
     1
102
RTVSPropertyOp31
 70
     1
102
RTVSPropertyOp32
 70
     1
  0
XRECORD
  5
12B
102
{ACAD_REACTORS
330
12A
102
}
330
12A
100
AcDbXrecord
280
     1
102
RTVSPropertyOp0
 70
     1
102
RTVSPropertyOp1
 70
     1
102
RTVSPropertyOp2
 70
     1
102
RTVSPropertyOp3
 70
     1
102
RTVSPropertyOp4
 70
     1
102
RTVSPropertyOp5
 70
     1
102
RTVSPropertyOp6
 70
     1
102
RTVSPropertyOp7
 70
     1
102
RTVSPropertyOp8
 70
     1
102
RTVSPropertyOp9
 70
     1
102
RTVSPropertyOp10
 70
     1
102
RTVSPropertyOp11
 70
     1
102
RTVSPropertyOp12
 70
     1
102
RTVSPropertyOp13
 70
     1
102
RTVSPropertyOp14
 70
     1
102
RTVSPropertyOp15
 70
     1
102
RTVSPropertyOp16
 70
     1
102
RTVSPropertyOp17
 70
     1
102
RTVSPropertyOp18
 70
     1
102
RTVSPropertyOp19
 70
     1
102
RTVSPropertyOp20
 70
     1
102
RTVSPropertyOp21
 70
     1
102
RTVSPropertyOp22
 70
     1
102
RTVSPropertyOp23
 70
     1
102
RTVSPropertyOp24
 70
     1
102
RTVSPropertyOp25
 70
     1
102
RTVSPropertyOp26
 70
     1
102
RTVSPropertyOp27
 70
     1
102
RTVSPropertyOp28
 70
     1
102
RTVSPropertyOp29
 70
     1
102
RTVSPropertyOp30
 70
     1
102
RTVSPropertyOp31
 70
     1
102
RTVSPropertyOp32
 70
     1
  0
XRECORD
  5
133
102
{ACAD_REACTORS
330
132
102
}
330
132
100
AcDbXrecord
280
     1
102
RTVSPropertyOp0
 70
     1
102
RTVSPropertyOp1
 70
     1
102
RTVSPropertyOp2
 70
     1
102
RTVSPropertyOp3
 70
     1
102
RTVSPropertyOp4
 70
     1
102
RTVSPropertyOp5
 70
     1
102
RTVSPropertyOp6
 70
     1
102
RTVSPropertyOp7
 70
     1
102
RTVSPropertyOp8
 70
     1
102
RTVSPropertyOp9
 70
     1
102
RTVSPropertyOp10
 70
     1
102
RTVSPropertyOp11
 70
     1
102
RTVSPropertyOp12
 70
     1
102
RTVSPropertyOp13
 70
     1
102
RTVSPropertyOp14
 70
     1
102
RTVSPropertyOp15
 70
     1
102
RTVSPropertyOp16
 70
     1
102
RTVSPropertyOp17
 70
     1
102
RTVSPropertyOp18
 70
     1
102
RTVSPropertyOp19
 70
     1
102
RTVSPropertyOp20
 70
     1
102
RTVSPropertyOp21
 70
     1
102
RTVSPropertyOp22
 70
     1
102
RTVSPropertyOp23
 70
     1
102
RTVSPropertyOp24
 70
     1
102
RTVSPropertyOp25
 70
     1
102
RTVSPropertyOp26
 70
     1
102
RTVSPropertyOp27
 70
     1
102
RTVSPropertyOp28
 70
     1
102
RTVSPropertyOp29
 70
     1
102
RTVSPropertyOp30
 70
     1
102
RTVSPropertyOp31
 70
     1
102
RTVSPropertyOp32
 70
     1
  0
XRECORD
  5
117
102
{ACAD_REACTORS
330
116
102
}
330
116
100
AcDbXrecord
280
     1
102
RTVSPropertyOp0
 70
     1
102
RTVSPropertyOp1
 70
     1
102
RTVSPropertyOp2
 70
     1
102
RTVSPropertyOp3
 70
     1
102
RTVSPropertyOp4
 70
     1
102
RTVSPropertyOp5
 70
     1
102
RTVSPropertyOp6
 70
     1
102
RTVSPropertyOp7
 70
     1
102
RTVSPropertyOp8
 70
     1
102
RTVSPropertyOp9
 70
     1
102
RTVSPropertyOp10
 70
     1
102
RTVSPropertyOp11
 70
     1
102
RTVSPropertyOp12
 70
     1
102
RTVSPropertyOp13
 70
     1
102
RTVSPropertyOp14
 70
     1
102
RTVSPropertyOp15
 70
     1
102
RTVSPropertyOp16
 70
     1
102
RTVSPropertyOp17
 70
     1
102
RTVSPropertyOp18
 70
     1
102
RTVSPropertyOp19
 70
     1
102
RTVSPropertyOp20
 70
     1
102
RTVSPropertyOp21
 70
     1
102
RTVSPropertyOp22
 70
     1
102
RTVSPropertyOp23
 70
     1
102
RTVSPropertyOp24
 70
     1
102
RTVSPropertyOp25
 70
     1
102
RTVSPropertyOp26
 70
     1
102
RTVSPropertyOp27
 70
     1
102
RTVSPropertyOp28
 70
     1
102
RTVSPropertyOp29
 70
     1
102
RTVSPropertyOp30
 70
     1
102
RTVSPropertyOp31
 70
     1
102
RTVSPropertyOp32
 70
     1
  0
XRECORD
  5
119
102
{ACAD_REACTORS
330
118
102
}
330
118
100
AcDbXrecord
280
     1
102
RTVSPropertyOp0
 70
     1
102
RTVSPropertyOp1
 70
     1
102
RTVSPropertyOp2
 70
     1
102
RTVSPropertyOp3
 70
     1
102
RTVSPropertyOp4
 70
     1
102
RTVSPropertyOp5
 70
     1
102
RTVSPropertyOp6
 70
     1
102
RTVSPropertyOp7
 70
     1
102
RTVSPropertyOp8
 70
     1
102
RTVSPropertyOp9
 70
     1
102
RTVSPropertyOp10
 70
     1
102
RTVSPropertyOp11
 70
     1
102
RTVSPropertyOp12
 70
     1
102
RTVSPropertyOp13
 70
     1
102
RTVSPropertyOp14
 70
     1
102
RTVSPropertyOp15
 70
     1
102
RTVSPropertyOp16
 70
     1
102
RTVSPropertyOp17
 70
     1
102
RTVSPropertyOp18
 70
     1
102
RTVSPropertyOp19
 70
     1
102
RTVSPropertyOp20
 70
     1
102
RTVSPropertyOp21
 70
     1
102
RTVSPropertyOp22
 70
     1
102
RTVSPropertyOp23
 70
     1
102
RTVSPropertyOp24
 70
     1
102
RTVSPropertyOp25
 70
     1
102
RTVSPropertyOp26
 70
     1
102
RTVSPropertyOp27
 70
     1
102
RTVSPropertyOp28
 70
     1
102
RTVSPropertyOp29
 70
     1
102
RTVSPropertyOp30
 70
     1
102
RTVSPropertyOp31
 70
     1
102
RTVSPropertyOp32
 70
     1
  0
XRECORD
  5
11B
102
{ACAD_REACTORS
330
11A
102
}
330
11A
100
AcDbXrecord
280
     1
102
RTVSPropertyOp0
 70
     1
102
RTVSPropertyOp1
 70
     1
102
RTVSPropertyOp2
 70
     1
102
RTVSPropertyOp3
 70
     1
102
RTVSPropertyOp4
 70
     1
102
RTVSPropertyOp5
 70
     1
102
RTVSPropertyOp6
 70
     1
102
RTVSPropertyOp7
 70
     1
102
RTVSPropertyOp8
 70
     1
102
RTVSPropertyOp9
 70
     1
102
RTVSPropertyOp10
 70
     1
102
RTVSPropertyOp11
 70
     1
102
RTVSPropertyOp12
 70
     1
102
RTVSPropertyOp13
 70
     1
102
RTVSPropertyOp14
 70
     1
102
RTVSPropertyOp15
 70
     1
102
RTVSPropertyOp16
 70
     1
102
RTVSPropertyOp17
 70
     1
102
RTVSPropertyOp18
 70
     1
102
RTVSPropertyOp19
 70
     1
102
RTVSPropertyOp20
 70
     1
102
RTVSPropertyOp21
 70
     1
102
RTVSPropertyOp22
 70
     1
102
RTVSPropertyOp23
 70
     1
102
RTVSPropertyOp24
 70
     1
102
RTVSPropertyOp25
 70
     1
102
RTVSPropertyOp26
 70
     1
102
RTVSPropertyOp27
 70
     1
102
RTVSPropertyOp28
 70
     1
102
RTVSPropertyOp29
 70
     1
102
RTVSPropertyOp30
 70
     1
102
RTVSPropertyOp31
 70
     1
102
RTVSPropertyOp32
 70
     1
  0
XRECORD
  5
11D
102
{ACAD_REACTORS
330
11C
102
}
330
11C
100
AcDbXrecord
280
     1
102
RTVSPropertyOp0
 70
     1
102
RTVSPropertyOp1
 70
     1
102
RTVSPropertyOp2
 70
     1
102
RTVSPropertyOp3
 70
     1
102
RTVSPropertyOp4
 70
     1
102
RTVSPropertyOp5
 70
     1
102
RTVSPropertyOp6
 70
     1
102
RTVSPropertyOp7
 70
     1
102
RTVSPropertyOp8
 70
     1
102
RTVSPropertyOp9
 70
     1
102
RTVSPropertyOp10
 70
     1
102
RTVSPropertyOp11
 70
     1
102
RTVSPropertyOp12
 70
     1
102
RTVSPropertyOp13
 70
     1
102
RTVSPropertyOp14
 70
     1
102
RTVSPropertyOp15
 70
     1
102
RTVSPropertyOp16
 70
     1
102
RTVSPropertyOp17
 70
     1
102
RTVSPropertyOp18
 70
     1
102
RTVSPropertyOp19
 70
     1
102
RTVSPropertyOp20
 70
     1
102
RTVSPropertyOp21
 70
     1
102
RTVSPropertyOp22
 70
     1
102
RTVSPropertyOp23
 70
     1
102
RTVSPropertyOp24
 70
     1
102
RTVSPropertyOp25
 70
     1
102
RTVSPropertyOp26
 70
     1
102
RTVSPropertyOp27
 70
     1
102
RTVSPropertyOp28
 70
     1
102
RTVSPropertyOp29
 70
     1
102
RTVSPropertyOp30
 70
     1
102
RTVSPropertyOp31
 70
     1
102
RTVSPropertyOp32
 70
     1
  0
XRECORD
  5
131
102
{ACAD_REACTORS
330
130
102
}
330
130
100
AcDbXrecord
280
     1
102
RTVSPropertyOp0
 70
     1
102
RTVSPropertyOp1
 70
     1
102
RTVSPropertyOp2
 70
     1
102
RTVSPropertyOp3
 70
     1
102
RTVSPropertyOp4
 70
     1
102
RTVSPropertyOp5
 70
     1
102
RTVSPropertyOp6
 70
     1
102
RTVSPropertyOp7
 70
     1
102
RTVSPropertyOp8
 70
     1
102
RTVSPropertyOp9
 70
     1
102
RTVSPropertyOp10
 70
     1
102
RTVSPropertyOp11
 70
     1
102
RTVSPropertyOp12
 70
     1
102
RTVSPropertyOp13
 70
     1
102
RTVSPropertyOp14
 70
     1
102
RTVSPropertyOp15
 70
     1
102
RTVSPropertyOp16
 70
     1
102
RTVSPropertyOp17
 70
     1
102
RTVSPropertyOp18
 70
     1
102
RTVSPropertyOp19
 70
     1
102
RTVSPropertyOp20
 70
     1
102
RTVSPropertyOp21
 70
     1
102
RTVSPropertyOp22
 70
     1
102
RTVSPropertyOp23
 70
     1
102
RTVSPropertyOp24
 70
     1
102
RTVSPropertyOp25
 70
     1
102
RTVSPropertyOp26
 70
     1
102
RTVSPropertyOp27
 70
     1
102
RTVSPropertyOp28
 70
     1
102
RTVSPropertyOp29
 70
     1
102
RTVSPropertyOp30
 70
     1
102
RTVSPropertyOp31
 70
     1
102
RTVSPropertyOp32
 70
     1
  0
XRECORD
  5
127
102
{ACAD_REACTORS
330
126
102
}
330
126
100
AcDbXrecord
280
     1
102
RTVSPropertyOp0
 70
     1
102
RTVSPropertyOp1
 70
     1
102
RTVSPropertyOp2
 70
     1
102
RTVSPropertyOp3
 70
     1
102
RTVSPropertyOp4
 70
     1
102
RTVSPropertyOp5
 70
     1
102
RTVSPropertyOp6
 70
     1
102
RTVSPropertyOp7
 70
     1
102
RTVSPropertyOp8
 70
     1
102
RTVSPropertyOp9
 70
     1
102
RTVSPropertyOp10
 70
     1
102
RTVSPropertyOp11
 70
     1
102
RTVSPropertyOp12
 70
     1
102
RTVSPropertyOp13
 70
     1
102
RTVSPropertyOp14
 70
     1
102
RTVSPropertyOp15
 70
     1
102
RTVSPropertyOp16
 70
     1
102
RTVSPropertyOp17
 70
     1
102
RTVSPropertyOp18
 70
     1
102
RTVSPropertyOp19
 70
     1
102
RTVSPropertyOp20
 70
     1
102
RTVSPropertyOp21
 70
     1
102
RTVSPropertyOp22
 70
     1
102
RTVSPropertyOp23
 70
     1
102
RTVSPropertyOp24
 70
     1
102
RTVSPropertyOp25
 70
     1
102
RTVSPropertyOp26
 70
     1
102
RTVSPropertyOp27
 70
     1
102
RTVSPropertyOp28
 70
     1
102
RTVSPropertyOp29
 70
     1
102
RTVSPropertyOp30
 70
     1
102
RTVSPropertyOp31
 70
     1
102
RTVSPropertyOp32
 70
     1
  0
XRECORD
  5
12F
102
{ACAD_REACTORS
330
12E
102
}
330
12E
100
AcDbXrecord
280
     1
102
RTVSPropertyOp0
 70
     1
102
RTVSPropertyOp1
 70
     1
102
RTVSPropertyOp2
 70
     1
102
RTVSPropertyOp3
 70
     1
102
RTVSPropertyOp4
 70
     1
102
RTVSPropertyOp5
 70
     1
102
RTVSPropertyOp6
 70
     1
102
RTVSPropertyOp7
 70
     1
102
RTVSPropertyOp8
 70
     1
102
RTVSPropertyOp9
 70
     1
102
RTVSPropertyOp10
 70
     1
102
RTVSPropertyOp11
 70
     1
102
RTVSPropertyOp12
 70
     1
102
RTVSPropertyOp13
 70
     1
102
RTVSPropertyOp14
 70
     1
102
RTVSPropertyOp15
 70
     1
102
RTVSPropertyOp16
 70
     1
102
RTVSPropertyOp17
 70
     1
102
RTVSPropertyOp18
 70
     1
102
RTVSPropertyOp19
 70
     1
102
RTVSPropertyOp20
 70
     1
102
RTVSPropertyOp21
 70
     1
102
RTVSPropertyOp22
 70
     1
102
RTVSPropertyOp23
 70
     1
102
RTVSPropertyOp24
 70
     1
102
RTVSPropertyOp25
 70
     1
102
RTVSPropertyOp26
 70
     1
102
RTVSPropertyOp27
 70
     1
102
RTVSPropertyOp28
 70
     1
102
RTVSPropertyOp29
 70
     1
102
RTVSPropertyOp30
 70
     1
102
RTVSPropertyOp31
 70
     1
102
RTVSPropertyOp32
 70
     1
  0
ENDSEC
  0
EOF
