M48
; DRILL file {KiCad (5.1.0-163-gb6a0bf114)} date 07.04.2019 22:36:55
; FORMAT={-:-/ absolute / metric / decimal}
; #@! TF.CreationDate,2019-04-07T22:36:55+02:00
; #@! TF.GenerationSoftware,Kicad,Pcbnew,(5.1.0-163-gb6a0bf114)
; #@! TF.FileFunction,Plated,1,2,PTH
FMAT,2
METRIC
T1C0.600
T2C0.762
T3C0.800
T4C0.800
T5C0.950
T6C1.000
T7C1.001
T8C1.016
T9C1.100
T10C1.118
T11C1.200
T12C1.300
T13C1.501
T14C1.524
T15C2.000
T16C2.500
T17C3.100
T18C3.200
%
G90
G05
T1
X138.146Y-141.271
X139.446Y-136.271
T2
X73.406Y-88.392
X73.406Y-91.694
X85.09Y-87.376
X85.09Y-89.916
X87.63Y-84.836
X87.63Y-87.376
X87.63Y-89.916
X87.63Y-92.456
X87.63Y-94.996
X123.19Y-104.394
X123.19Y-109.474
X138.811Y-124.587
X138.811Y-129.667
X118.491Y-135.001
X118.491Y-138.303
X130.175Y-133.985
X130.175Y-136.525
X132.715Y-131.445
X132.715Y-133.985
X132.715Y-136.525
X132.715Y-139.065
X132.715Y-141.605
X81.28Y-112.395
X86.36Y-112.395
X103.759Y-108.585
X103.759Y-113.665
X69.85Y-104.521
X69.85Y-118.999
X69.85Y-121.539
X105.41Y-104.521
X105.41Y-118.999
X105.41Y-121.539
X107.95Y-104.521
X107.95Y-118.999
X107.95Y-121.539
X110.49Y-104.521
X110.49Y-118.999
X110.49Y-121.539
X106.045Y-90.805
X108.585Y-90.805
X111.125Y-90.805
X113.665Y-90.805
X116.205Y-90.805
X117.765Y-70.395
X118.745Y-88.265
X118.745Y-90.805
X121.265Y-70.395
X121.285Y-88.265
X121.285Y-90.805
X123.825Y-90.805
X124.765Y-70.395
X126.365Y-90.805
X128.265Y-70.395
X128.905Y-88.265
X128.905Y-90.805
X131.445Y-88.265
X131.445Y-90.805
X133.985Y-88.265
X133.985Y-90.805
X120.142Y-144.78
X125.222Y-144.78
X69.85Y-127.381
X69.85Y-141.859
X69.85Y-144.399
X105.41Y-127.381
X105.41Y-141.859
X105.41Y-144.399
X107.95Y-127.381
X107.95Y-141.859
X107.95Y-144.399
X110.49Y-127.381
X110.49Y-141.859
X110.49Y-144.399
X78.105Y-92.075
X78.105Y-97.155
T3
X161.417Y-105.029
X161.417Y-112.649
X131.445Y-108.458
X131.445Y-116.078
X164.592Y-105.029
X164.592Y-112.649
X127.889Y-108.458
X127.889Y-116.078
T4
X121.412Y-144.78
X123.952Y-144.78
X78.105Y-93.345
X78.105Y-95.885
X123.19Y-105.664
X123.19Y-108.204
X138.811Y-125.857
X138.811Y-128.397
X82.55Y-112.395
X85.09Y-112.395
X103.759Y-109.855
X103.759Y-112.395
T5
X155.194Y-71.374
X157.694Y-71.374
X160.194Y-71.374
X162.694Y-71.374
X165.194Y-71.374
X150.114Y-57.23
X150.114Y-59.73
X150.114Y-62.23
X157.988Y-57.23
X157.988Y-59.73
X157.988Y-62.23
X166.116Y-57.23
X166.116Y-59.73
X166.116Y-62.23
T6
X81.153Y-101.6
X95.493Y-91.074
X95.504Y-103.124
X99.441Y-91.313
X99.535Y-100.81
X100.555Y-133.16
X111.125Y-94.869
X111.506Y-136.271
X112.522Y-114.554
X112.903Y-101.6
X116.195Y-104.45
X118.834Y-108.712
X126.111Y-110.645
X126.492Y-126.492
X138.79Y-144.935
X139.573Y-82.423
X143.114Y-133.97
X143.383Y-140.97
X144.145Y-127.496
X146.685Y-134.112
X148.59Y-127.508
X150.707Y-86.731
X154.051Y-117.456
X154.051Y-131.064
X155.689Y-127.174
X160.02Y-90.17
X160.401Y-107.569
X162.814Y-79.756
X163.957Y-126.873
X164.465Y-118.03
X164.842Y-123.658
X166.37Y-87.63
X167.132Y-102.87
X168.148Y-75.438
X169.117Y-93.853
X171.45Y-133.731
X175.641Y-133.604
X175.768Y-119.126
X178.816Y-121.539
X179.324Y-133.604
X190.701Y-129.767
X193.294Y-139.573
X196.013Y-119.733
X199.009Y-121.539
X202.645Y-129.803
X205.87Y-144.656
X207.346Y-119.733
X210.439Y-118.745
X211.709Y-121.539
X215.487Y-129.952
X216.905Y-118.248
X173.99Y-146.685
X176.53Y-146.685
X179.07Y-146.685
X181.61Y-146.685
X184.277Y-135.382
X184.277Y-137.882
X144.145Y-146.685
X146.685Y-146.685
X149.225Y-146.685
X151.765Y-146.685
X154.305Y-146.685
X156.845Y-146.685
X159.385Y-146.685
X161.925Y-146.685
X164.465Y-146.685
X144.145Y-144.145
X146.685Y-144.145
X149.225Y-144.145
X151.765Y-144.145
X154.305Y-144.145
X156.845Y-144.145
X159.385Y-144.145
X161.925Y-144.145
X164.465Y-144.145
X196.85Y-132.842
X196.85Y-135.382
X196.85Y-137.922
X222.25Y-132.842
X222.25Y-135.382
X222.25Y-137.922
X121.158Y-123.19
X123.698Y-123.19
X173.99Y-144.145
X176.53Y-144.145
X179.07Y-144.145
X181.61Y-144.145
X99.314Y-85.638
X99.314Y-88.138
X114.681Y-123.19
X209.804Y-132.842
X209.804Y-135.382
X209.804Y-137.922
X107.95Y-98.425
X110.49Y-98.425
X97.155Y-67.945
X99.695Y-67.945
T7
X171.841Y-129.413
X173.101Y-129.413
X178.181Y-129.413
X179.441Y-129.413
T8
X215.9Y-132.875
X215.9Y-135.375
X215.9Y-137.875
X215.9Y-140.375
X215.9Y-142.875
X203.2Y-132.875
X203.2Y-135.375
X203.2Y-137.875
X203.2Y-140.375
X203.2Y-142.875
X118.745Y-97.155
X118.745Y-120.015
X121.285Y-97.155
X121.285Y-120.015
X123.825Y-97.155
X123.825Y-120.015
X126.365Y-97.155
X126.365Y-120.015
X128.905Y-97.155
X128.905Y-120.015
X131.445Y-97.155
X131.445Y-120.015
X133.985Y-97.155
X133.985Y-120.015
X136.525Y-97.155
X136.525Y-120.015
X139.065Y-97.155
X139.065Y-120.015
X141.605Y-97.155
X141.605Y-120.015
X144.145Y-97.155
X144.145Y-120.015
X146.685Y-97.155
X146.685Y-120.015
X149.225Y-97.155
X149.225Y-120.015
X151.765Y-97.155
X151.765Y-120.015
X154.305Y-97.155
X154.305Y-120.015
X156.845Y-97.155
X156.845Y-120.015
X159.385Y-97.155
X161.925Y-97.155
X164.465Y-97.155
X167.005Y-97.155
X190.5Y-132.875
X190.5Y-135.375
X190.5Y-137.875
X190.5Y-140.375
X190.5Y-142.875
T9
X98.425Y-73.66
X98.425Y-78.74
X152.908Y-77.216
X152.908Y-82.296
T10
X142.113Y-105.029
X142.113Y-107.569
X142.113Y-110.109
X142.113Y-112.649
X149.733Y-105.029
X149.733Y-107.569
X149.733Y-110.109
X149.733Y-112.649
T11
X172.72Y-60.96
X218.44Y-60.96
X172.72Y-101.6
X218.44Y-101.6
X172.72Y-80.899
X218.44Y-80.899
X172.72Y-91.44
X218.44Y-91.44
X172.72Y-70.739
X218.44Y-70.739
X172.72Y-111.76
X218.44Y-111.76
T12
X96.64Y-59.69
X101.64Y-59.69
X106.64Y-59.69
X111.64Y-59.69
X119.126Y-59.69
X124.206Y-59.69
X135.509Y-59.69
X140.589Y-59.69
T13
X143.51Y-69.009
X143.51Y-91.011
X69.517Y-71.12
X91.519Y-71.12
T14
X76.2Y-59.69
X81.28Y-59.69
X86.36Y-59.69
X91.44Y-59.69
T15
X71.882Y-81.026
X71.882Y-98.806
X87.63Y-81.026
X87.63Y-98.806
X116.967Y-127.635
X116.967Y-145.415
X132.715Y-127.635
X132.715Y-145.415
T16
X107.315Y-69.215
X132.715Y-69.215
T17
X74.92Y-104.785
X74.92Y-127.645
T18
X220.98Y-54.61
X69.85Y-54.61
X220.98Y-146.05
X76.2Y-146.05
X143.51Y-80.01
X80.518Y-71.12
T12
G00X127.046Y-59.69
M15
G01X126.446Y-59.69
M16
G05
G00X127.046Y-59.69
M15
G01X126.446Y-59.69
M16
G05
G00X143.429Y-59.69
M15
G01X142.829Y-59.69
M16
G05
G00X143.429Y-59.69
M15
G01X142.829Y-59.69
M16
G05
T0
M30
