%FSLAX45Y45*%
G04 Gerber Fmt 4.5, Leading zero omitted, Abs format (unit mm)*
G04 Created by KiCad (PCBNEW (5.1.0-163-gb6a0bf114)) date 2019-04-07 22:36:57*
%MOMM*%
%LPD*%
G04 APERTURE LIST*
%ADD10C,0.150000*%
%ADD11C,0.200000*%
%ADD12C,0.300000*%
G04 APERTURE END LIST*
D10*
X6500000Y-15000000D02*
X6500000Y-5000000D01*
X22500000Y-15000000D02*
X6500000Y-15000000D01*
X22500000Y-5000000D02*
X22500000Y-15000000D01*
X6500000Y-5000000D02*
X22500000Y-5000000D01*
D11*
X13784600Y-14097100D02*
X13844600Y-14157100D01*
X13844600Y-14097100D02*
X13784600Y-14157100D01*
X13914600Y-13597100D02*
X13974600Y-13657100D01*
X13974600Y-13597100D02*
X13914600Y-13657100D01*
X7378700Y-8839200D02*
G75*
G03X7378700Y-8839200I-38100J0D01*
G01*
X7378700Y-9169400D02*
G75*
G03X7378700Y-9169400I-38100J0D01*
G01*
X8547100Y-8737600D02*
G75*
G03X8547100Y-8737600I-38100J0D01*
G01*
X8547100Y-8991600D02*
G75*
G03X8547100Y-8991600I-38100J0D01*
G01*
X8801100Y-8483600D02*
G75*
G03X8801100Y-8483600I-38100J0D01*
G01*
X8801100Y-8737600D02*
G75*
G03X8801100Y-8737600I-38100J0D01*
G01*
X8801100Y-8991600D02*
G75*
G03X8801100Y-8991600I-38100J0D01*
G01*
X8801100Y-9245600D02*
G75*
G03X8801100Y-9245600I-38100J0D01*
G01*
X8801100Y-9499600D02*
G75*
G03X8801100Y-9499600I-38100J0D01*
G01*
X12357100Y-10439400D02*
G75*
G03X12357100Y-10439400I-38100J0D01*
G01*
X12357100Y-10947400D02*
G75*
G03X12357100Y-10947400I-38100J0D01*
G01*
X13919200Y-12458700D02*
G75*
G03X13919200Y-12458700I-38100J0D01*
G01*
X13919200Y-12966700D02*
G75*
G03X13919200Y-12966700I-38100J0D01*
G01*
X11887200Y-13500100D02*
G75*
G03X11887200Y-13500100I-38100J0D01*
G01*
X11887200Y-13830300D02*
G75*
G03X11887200Y-13830300I-38100J0D01*
G01*
X13055600Y-13398500D02*
G75*
G03X13055600Y-13398500I-38100J0D01*
G01*
X13055600Y-13652500D02*
G75*
G03X13055600Y-13652500I-38100J0D01*
G01*
X13309600Y-13144500D02*
G75*
G03X13309600Y-13144500I-38100J0D01*
G01*
X13309600Y-13398500D02*
G75*
G03X13309600Y-13398500I-38100J0D01*
G01*
X13309600Y-13652500D02*
G75*
G03X13309600Y-13652500I-38100J0D01*
G01*
X13309600Y-13906500D02*
G75*
G03X13309600Y-13906500I-38100J0D01*
G01*
X13309600Y-14160500D02*
G75*
G03X13309600Y-14160500I-38100J0D01*
G01*
X8166100Y-11239500D02*
G75*
G03X8166100Y-11239500I-38100J0D01*
G01*
X8674100Y-11239500D02*
G75*
G03X8674100Y-11239500I-38100J0D01*
G01*
X10414000Y-10858500D02*
G75*
G03X10414000Y-10858500I-38100J0D01*
G01*
X10414000Y-11366500D02*
G75*
G03X10414000Y-11366500I-38100J0D01*
G01*
X7023100Y-10452100D02*
G75*
G03X7023100Y-10452100I-38100J0D01*
G01*
X7023100Y-11899900D02*
G75*
G03X7023100Y-11899900I-38100J0D01*
G01*
X7023100Y-12153900D02*
G75*
G03X7023100Y-12153900I-38100J0D01*
G01*
X10579100Y-10452100D02*
G75*
G03X10579100Y-10452100I-38100J0D01*
G01*
X10579100Y-11899900D02*
G75*
G03X10579100Y-11899900I-38100J0D01*
G01*
X10579100Y-12153900D02*
G75*
G03X10579100Y-12153900I-38100J0D01*
G01*
X10833100Y-10452100D02*
G75*
G03X10833100Y-10452100I-38100J0D01*
G01*
X10833100Y-11899900D02*
G75*
G03X10833100Y-11899900I-38100J0D01*
G01*
X10833100Y-12153900D02*
G75*
G03X10833100Y-12153900I-38100J0D01*
G01*
X11087100Y-10452100D02*
G75*
G03X11087100Y-10452100I-38100J0D01*
G01*
X11087100Y-11899900D02*
G75*
G03X11087100Y-11899900I-38100J0D01*
G01*
X11087100Y-12153900D02*
G75*
G03X11087100Y-12153900I-38100J0D01*
G01*
X10642600Y-9080500D02*
G75*
G03X10642600Y-9080500I-38100J0D01*
G01*
X10896600Y-9080500D02*
G75*
G03X10896600Y-9080500I-38100J0D01*
G01*
X11150600Y-9080500D02*
G75*
G03X11150600Y-9080500I-38100J0D01*
G01*
X11404600Y-9080500D02*
G75*
G03X11404600Y-9080500I-38100J0D01*
G01*
X11658600Y-9080500D02*
G75*
G03X11658600Y-9080500I-38100J0D01*
G01*
X11814600Y-7039500D02*
G75*
G03X11814600Y-7039500I-38100J0D01*
G01*
X11912600Y-8826500D02*
G75*
G03X11912600Y-8826500I-38100J0D01*
G01*
X11912600Y-9080500D02*
G75*
G03X11912600Y-9080500I-38100J0D01*
G01*
X12164600Y-7039500D02*
G75*
G03X12164600Y-7039500I-38100J0D01*
G01*
X12166600Y-8826500D02*
G75*
G03X12166600Y-8826500I-38100J0D01*
G01*
X12166600Y-9080500D02*
G75*
G03X12166600Y-9080500I-38100J0D01*
G01*
X12420600Y-9080500D02*
G75*
G03X12420600Y-9080500I-38100J0D01*
G01*
X12514600Y-7039500D02*
G75*
G03X12514600Y-7039500I-38100J0D01*
G01*
X12674600Y-9080500D02*
G75*
G03X12674600Y-9080500I-38100J0D01*
G01*
X12864600Y-7039500D02*
G75*
G03X12864600Y-7039500I-38100J0D01*
G01*
X12928600Y-8826500D02*
G75*
G03X12928600Y-8826500I-38100J0D01*
G01*
X12928600Y-9080500D02*
G75*
G03X12928600Y-9080500I-38100J0D01*
G01*
X13182600Y-8826500D02*
G75*
G03X13182600Y-8826500I-38100J0D01*
G01*
X13182600Y-9080500D02*
G75*
G03X13182600Y-9080500I-38100J0D01*
G01*
X13436600Y-8826500D02*
G75*
G03X13436600Y-8826500I-38100J0D01*
G01*
X13436600Y-9080500D02*
G75*
G03X13436600Y-9080500I-38100J0D01*
G01*
X12052300Y-14478000D02*
G75*
G03X12052300Y-14478000I-38100J0D01*
G01*
X12560300Y-14478000D02*
G75*
G03X12560300Y-14478000I-38100J0D01*
G01*
X7023100Y-12738100D02*
G75*
G03X7023100Y-12738100I-38100J0D01*
G01*
X7023100Y-14185900D02*
G75*
G03X7023100Y-14185900I-38100J0D01*
G01*
X7023100Y-14439900D02*
G75*
G03X7023100Y-14439900I-38100J0D01*
G01*
X10579100Y-12738100D02*
G75*
G03X10579100Y-12738100I-38100J0D01*
G01*
X10579100Y-14185900D02*
G75*
G03X10579100Y-14185900I-38100J0D01*
G01*
X10579100Y-14439900D02*
G75*
G03X10579100Y-14439900I-38100J0D01*
G01*
X10833100Y-12738100D02*
G75*
G03X10833100Y-12738100I-38100J0D01*
G01*
X10833100Y-14185900D02*
G75*
G03X10833100Y-14185900I-38100J0D01*
G01*
X10833100Y-14439900D02*
G75*
G03X10833100Y-14439900I-38100J0D01*
G01*
X11087100Y-12738100D02*
G75*
G03X11087100Y-12738100I-38100J0D01*
G01*
X11087100Y-14185900D02*
G75*
G03X11087100Y-14185900I-38100J0D01*
G01*
X11087100Y-14439900D02*
G75*
G03X11087100Y-14439900I-38100J0D01*
G01*
X7848600Y-9207500D02*
G75*
G03X7848600Y-9207500I-38100J0D01*
G01*
X7848600Y-9715500D02*
G75*
G03X7848600Y-9715500I-38100J0D01*
G01*
X16141700Y-10462900D02*
X16141700Y-10542900D01*
X16101700Y-10502900D02*
X16181700Y-10502900D01*
X16141700Y-11224900D02*
X16141700Y-11304900D01*
X16101700Y-11264900D02*
X16181700Y-11264900D01*
X13144500Y-10805800D02*
X13144500Y-10885800D01*
X13104500Y-10845800D02*
X13184500Y-10845800D01*
X13144500Y-11567800D02*
X13144500Y-11647800D01*
X13104500Y-11607800D02*
X13184500Y-11607800D01*
X16459200Y-10462900D02*
X16459200Y-10542900D01*
X16419200Y-10502900D02*
X16499200Y-10502900D01*
X16459200Y-11224900D02*
X16459200Y-11304900D01*
X16419200Y-11264900D02*
X16499200Y-11264900D01*
X12788900Y-10805800D02*
X12788900Y-10885800D01*
X12748900Y-10845800D02*
X12828900Y-10845800D01*
X12788900Y-11567800D02*
X12788900Y-11647800D01*
X12748900Y-11607800D02*
X12828900Y-11607800D01*
X12169488Y-14506288D02*
X12169488Y-14449712D01*
X12112912Y-14449712D01*
X12112912Y-14506288D01*
X12169488Y-14506288D01*
X12423488Y-14506288D02*
X12423488Y-14449712D01*
X12366912Y-14449712D01*
X12366912Y-14506288D01*
X12423488Y-14506288D01*
X7838788Y-9362788D02*
X7838788Y-9306212D01*
X7782212Y-9306212D01*
X7782212Y-9362788D01*
X7838788Y-9362788D01*
X7838788Y-9616788D02*
X7838788Y-9560212D01*
X7782212Y-9560212D01*
X7782212Y-9616788D01*
X7838788Y-9616788D01*
X12347288Y-10594688D02*
X12347288Y-10538112D01*
X12290712Y-10538112D01*
X12290712Y-10594688D01*
X12347288Y-10594688D01*
X12347288Y-10848688D02*
X12347288Y-10792112D01*
X12290712Y-10792112D01*
X12290712Y-10848688D01*
X12347288Y-10848688D01*
X13909388Y-12613988D02*
X13909388Y-12557412D01*
X13852812Y-12557412D01*
X13852812Y-12613988D01*
X13909388Y-12613988D01*
X13909388Y-12867988D02*
X13909388Y-12811412D01*
X13852812Y-12811412D01*
X13852812Y-12867988D01*
X13909388Y-12867988D01*
X8283288Y-11267788D02*
X8283288Y-11211212D01*
X8226712Y-11211212D01*
X8226712Y-11267788D01*
X8283288Y-11267788D01*
X8537288Y-11267788D02*
X8537288Y-11211212D01*
X8480712Y-11211212D01*
X8480712Y-11267788D01*
X8537288Y-11267788D01*
X10404188Y-11013788D02*
X10404188Y-10957212D01*
X10347612Y-10957212D01*
X10347612Y-11013788D01*
X10404188Y-11013788D01*
X10404188Y-11267788D02*
X10404188Y-11211212D01*
X10347612Y-11211212D01*
X10347612Y-11267788D01*
X10404188Y-11267788D01*
X15519400Y-7184900D02*
X15566900Y-7137400D01*
X15519400Y-7089900D01*
X15471900Y-7137400D01*
X15519400Y-7184900D01*
X15769400Y-7184900D02*
X15816900Y-7137400D01*
X15769400Y-7089900D01*
X15721900Y-7137400D01*
X15769400Y-7184900D01*
X16019400Y-7184900D02*
X16066900Y-7137400D01*
X16019400Y-7089900D01*
X15971900Y-7137400D01*
X16019400Y-7184900D01*
X16269400Y-7184900D02*
X16316900Y-7137400D01*
X16269400Y-7089900D01*
X16221900Y-7137400D01*
X16269400Y-7184900D01*
X16519400Y-7184900D02*
X16566900Y-7137400D01*
X16519400Y-7089900D01*
X16471900Y-7137400D01*
X16519400Y-7184900D01*
X15011400Y-5770500D02*
X15058900Y-5723000D01*
X15011400Y-5675500D01*
X14963900Y-5723000D01*
X15011400Y-5770500D01*
X15011400Y-6020500D02*
X15058900Y-5973000D01*
X15011400Y-5925500D01*
X14963900Y-5973000D01*
X15011400Y-6020500D01*
X15011400Y-6270500D02*
X15058900Y-6223000D01*
X15011400Y-6175500D01*
X14963900Y-6223000D01*
X15011400Y-6270500D01*
X15798800Y-5770500D02*
X15846300Y-5723000D01*
X15798800Y-5675500D01*
X15751300Y-5723000D01*
X15798800Y-5770500D01*
X15798800Y-6020500D02*
X15846300Y-5973000D01*
X15798800Y-5925500D01*
X15751300Y-5973000D01*
X15798800Y-6020500D01*
X15798800Y-6270500D02*
X15846300Y-6223000D01*
X15798800Y-6175500D01*
X15751300Y-6223000D01*
X15798800Y-6270500D01*
X16611600Y-5770500D02*
X16659100Y-5723000D01*
X16611600Y-5675500D01*
X16564100Y-5723000D01*
X16611600Y-5770500D01*
X16611600Y-6020500D02*
X16659100Y-5973000D01*
X16611600Y-5925500D01*
X16564100Y-5973000D01*
X16611600Y-6020500D01*
X16611600Y-6270500D02*
X16659100Y-6223000D01*
X16611600Y-6175500D01*
X16564100Y-6223000D01*
X16611600Y-6270500D01*
X8065300Y-10110000D02*
X8165300Y-10210000D01*
X8165300Y-10110000D02*
X8065300Y-10210000D01*
X8165300Y-10160000D02*
G75*
G03X8165300Y-10160000I-50000J0D01*
G01*
X9499325Y-9057436D02*
X9599325Y-9157436D01*
X9599325Y-9057436D02*
X9499325Y-9157436D01*
X9599325Y-9107436D02*
G75*
G03X9599325Y-9107436I-50000J0D01*
G01*
X9500400Y-10262400D02*
X9600400Y-10362400D01*
X9600400Y-10262400D02*
X9500400Y-10362400D01*
X9600400Y-10312400D02*
G75*
G03X9600400Y-10312400I-50000J0D01*
G01*
X9894100Y-9081300D02*
X9994100Y-9181300D01*
X9994100Y-9081300D02*
X9894100Y-9181300D01*
X9994100Y-9131300D02*
G75*
G03X9994100Y-9131300I-50000J0D01*
G01*
X9903524Y-10031001D02*
X10003524Y-10131001D01*
X10003524Y-10031001D02*
X9903524Y-10131001D01*
X10003524Y-10081001D02*
G75*
G03X10003524Y-10081001I-50000J0D01*
G01*
X10005497Y-13265967D02*
X10105497Y-13365967D01*
X10105497Y-13265967D02*
X10005497Y-13365967D01*
X10105497Y-13315967D02*
G75*
G03X10105497Y-13315967I-50000J0D01*
G01*
X11062500Y-9436900D02*
X11162500Y-9536900D01*
X11162500Y-9436900D02*
X11062500Y-9536900D01*
X11162500Y-9486900D02*
G75*
G03X11162500Y-9486900I-50000J0D01*
G01*
X11100600Y-13577100D02*
X11200600Y-13677100D01*
X11200600Y-13577100D02*
X11100600Y-13677100D01*
X11200600Y-13627100D02*
G75*
G03X11200600Y-13627100I-50000J0D01*
G01*
X11202200Y-11405400D02*
X11302200Y-11505400D01*
X11302200Y-11405400D02*
X11202200Y-11505400D01*
X11302200Y-11455400D02*
G75*
G03X11302200Y-11455400I-50000J0D01*
G01*
X11240300Y-10109999D02*
X11340300Y-10209999D01*
X11340300Y-10109999D02*
X11240300Y-10209999D01*
X11340300Y-10159999D02*
G75*
G03X11340300Y-10159999I-50000J0D01*
G01*
X11569465Y-10394999D02*
X11669465Y-10494999D01*
X11669465Y-10394999D02*
X11569465Y-10494999D01*
X11669465Y-10444999D02*
G75*
G03X11669465Y-10444999I-50000J0D01*
G01*
X11833366Y-10821200D02*
X11933366Y-10921200D01*
X11933366Y-10821200D02*
X11833366Y-10921200D01*
X11933366Y-10871200D02*
G75*
G03X11933366Y-10871200I-50000J0D01*
G01*
X12561100Y-11014499D02*
X12661100Y-11114499D01*
X12661100Y-11014499D02*
X12561100Y-11114499D01*
X12661100Y-11064499D02*
G75*
G03X12661100Y-11064499I-50000J0D01*
G01*
X12599200Y-12599200D02*
X12699200Y-12699200D01*
X12699200Y-12599200D02*
X12599200Y-12699200D01*
X12699200Y-12649200D02*
G75*
G03X12699200Y-12649200I-50000J0D01*
G01*
X13829037Y-14443499D02*
X13929037Y-14543499D01*
X13929037Y-14443499D02*
X13829037Y-14543499D01*
X13929037Y-14493499D02*
G75*
G03X13929037Y-14493499I-50000J0D01*
G01*
X13907300Y-8192300D02*
X14007300Y-8292300D01*
X14007300Y-8192300D02*
X13907300Y-8292300D01*
X14007300Y-8242300D02*
G75*
G03X14007300Y-8242300I-50000J0D01*
G01*
X14261425Y-13347025D02*
X14361425Y-13447025D01*
X14361425Y-13347025D02*
X14261425Y-13447025D01*
X14361425Y-13397025D02*
G75*
G03X14361425Y-13397025I-50000J0D01*
G01*
X14288300Y-14047000D02*
X14388300Y-14147000D01*
X14388300Y-14047000D02*
X14288300Y-14147000D01*
X14388300Y-14097000D02*
G75*
G03X14388300Y-14097000I-50000J0D01*
G01*
X14364500Y-12699637D02*
X14464500Y-12799637D01*
X14464500Y-12699637D02*
X14364500Y-12799637D01*
X14464500Y-12749637D02*
G75*
G03X14464500Y-12749637I-50000J0D01*
G01*
X14618500Y-13361200D02*
X14718500Y-13461200D01*
X14718500Y-13361200D02*
X14618500Y-13461200D01*
X14718500Y-13411200D02*
G75*
G03X14718500Y-13411200I-50000J0D01*
G01*
X14809000Y-12700800D02*
X14909000Y-12800800D01*
X14909000Y-12700800D02*
X14809000Y-12800800D01*
X14909000Y-12750800D02*
G75*
G03X14909000Y-12750800I-50000J0D01*
G01*
X15020706Y-8623056D02*
X15120706Y-8723056D01*
X15120706Y-8623056D02*
X15020706Y-8723056D01*
X15120706Y-8673056D02*
G75*
G03X15120706Y-8673056I-50000J0D01*
G01*
X15355100Y-11695550D02*
X15455100Y-11795550D01*
X15455100Y-11695550D02*
X15355100Y-11795550D01*
X15455100Y-11745550D02*
G75*
G03X15455100Y-11745550I-50000J0D01*
G01*
X15355100Y-13056400D02*
X15455100Y-13156400D01*
X15455100Y-13056400D02*
X15355100Y-13156400D01*
X15455100Y-13106400D02*
G75*
G03X15455100Y-13106400I-50000J0D01*
G01*
X15518910Y-12667412D02*
X15618910Y-12767412D01*
X15618910Y-12667412D02*
X15518910Y-12767412D01*
X15618910Y-12717412D02*
G75*
G03X15618910Y-12717412I-50000J0D01*
G01*
X15952000Y-8967000D02*
X16052000Y-9067000D01*
X16052000Y-8967000D02*
X15952000Y-9067000D01*
X16052000Y-9017000D02*
G75*
G03X16052000Y-9017000I-50000J0D01*
G01*
X15990100Y-10706900D02*
X16090100Y-10806900D01*
X16090100Y-10706900D02*
X15990100Y-10806900D01*
X16090100Y-10756900D02*
G75*
G03X16090100Y-10756900I-50000J0D01*
G01*
X16231400Y-7925600D02*
X16331400Y-8025600D01*
X16331400Y-7925600D02*
X16231400Y-8025600D01*
X16331400Y-7975600D02*
G75*
G03X16331400Y-7975600I-50000J0D01*
G01*
X16345700Y-12637300D02*
X16445700Y-12737300D01*
X16445700Y-12637300D02*
X16345700Y-12737300D01*
X16445700Y-12687300D02*
G75*
G03X16445700Y-12687300I-50000J0D01*
G01*
X16396500Y-11752999D02*
X16496500Y-11852999D01*
X16496500Y-11752999D02*
X16396500Y-11852999D01*
X16496500Y-11802999D02*
G75*
G03X16496500Y-11802999I-50000J0D01*
G01*
X16434248Y-12315772D02*
X16534248Y-12415772D01*
X16534248Y-12315772D02*
X16434248Y-12415772D01*
X16534248Y-12365772D02*
G75*
G03X16534248Y-12365772I-50000J0D01*
G01*
X16586999Y-8712999D02*
X16686999Y-8812999D01*
X16686999Y-8712999D02*
X16586999Y-8812999D01*
X16686999Y-8762999D02*
G75*
G03X16686999Y-8762999I-50000J0D01*
G01*
X16663200Y-10237000D02*
X16763200Y-10337000D01*
X16763200Y-10237000D02*
X16663200Y-10337000D01*
X16763200Y-10287000D02*
G75*
G03X16763200Y-10287000I-50000J0D01*
G01*
X16764800Y-7493800D02*
X16864800Y-7593800D01*
X16864800Y-7493800D02*
X16764800Y-7593800D01*
X16864800Y-7543800D02*
G75*
G03X16864800Y-7543800I-50000J0D01*
G01*
X16861687Y-9335300D02*
X16961687Y-9435300D01*
X16961687Y-9335300D02*
X16861687Y-9435300D01*
X16961687Y-9385300D02*
G75*
G03X16961687Y-9385300I-50000J0D01*
G01*
X17095000Y-13323100D02*
X17195000Y-13423100D01*
X17195000Y-13323100D02*
X17095000Y-13423100D01*
X17195000Y-13373100D02*
G75*
G03X17195000Y-13373100I-50000J0D01*
G01*
X17514100Y-13310400D02*
X17614100Y-13410400D01*
X17614100Y-13310400D02*
X17514100Y-13410400D01*
X17614100Y-13360400D02*
G75*
G03X17614100Y-13360400I-50000J0D01*
G01*
X17526800Y-11862600D02*
X17626800Y-11962600D01*
X17626800Y-11862600D02*
X17526800Y-11962600D01*
X17626800Y-11912600D02*
G75*
G03X17626800Y-11912600I-50000J0D01*
G01*
X17831600Y-12103900D02*
X17931600Y-12203900D01*
X17931600Y-12103900D02*
X17831600Y-12203900D01*
X17931600Y-12153900D02*
G75*
G03X17931600Y-12153900I-50000J0D01*
G01*
X17882400Y-13310400D02*
X17982400Y-13410400D01*
X17982400Y-13310400D02*
X17882400Y-13410400D01*
X17982400Y-13360400D02*
G75*
G03X17982400Y-13360400I-50000J0D01*
G01*
X19020084Y-12926745D02*
X19120084Y-13026745D01*
X19120084Y-12926745D02*
X19020084Y-13026745D01*
X19120084Y-12976745D02*
G75*
G03X19120084Y-12976745I-50000J0D01*
G01*
X19279400Y-13907300D02*
X19379400Y-14007300D01*
X19379400Y-13907300D02*
X19279400Y-14007300D01*
X19379400Y-13957300D02*
G75*
G03X19379400Y-13957300I-50000J0D01*
G01*
X19551296Y-11923301D02*
X19651296Y-12023301D01*
X19651296Y-11923301D02*
X19551296Y-12023301D01*
X19651296Y-11973301D02*
G75*
G03X19651296Y-11973301I-50000J0D01*
G01*
X19850900Y-12103900D02*
X19950900Y-12203900D01*
X19950900Y-12103900D02*
X19850900Y-12203900D01*
X19950900Y-12153900D02*
G75*
G03X19950900Y-12153900I-50000J0D01*
G01*
X20214501Y-12930340D02*
X20314501Y-13030340D01*
X20314501Y-12930340D02*
X20214501Y-13030340D01*
X20314501Y-12980340D02*
G75*
G03X20314501Y-12980340I-50000J0D01*
G01*
X20537000Y-14415600D02*
X20637000Y-14515600D01*
X20637000Y-14415600D02*
X20537000Y-14515600D01*
X20637000Y-14465600D02*
G75*
G03X20637000Y-14465600I-50000J0D01*
G01*
X20684639Y-11923301D02*
X20784639Y-12023301D01*
X20784639Y-11923301D02*
X20684639Y-12023301D01*
X20784639Y-11973301D02*
G75*
G03X20784639Y-11973301I-50000J0D01*
G01*
X20993900Y-11824500D02*
X21093900Y-11924500D01*
X21093900Y-11824500D02*
X20993900Y-11924500D01*
X21093900Y-11874500D02*
G75*
G03X21093900Y-11874500I-50000J0D01*
G01*
X21120900Y-12103900D02*
X21220900Y-12203900D01*
X21220900Y-12103900D02*
X21120900Y-12203900D01*
X21220900Y-12153900D02*
G75*
G03X21220900Y-12153900I-50000J0D01*
G01*
X21498726Y-12945223D02*
X21598726Y-13045223D01*
X21598726Y-12945223D02*
X21498726Y-13045223D01*
X21598726Y-12995223D02*
G75*
G03X21598726Y-12995223I-50000J0D01*
G01*
X21640544Y-11774756D02*
X21740544Y-11874756D01*
X21740544Y-11774756D02*
X21640544Y-11874756D01*
X21740544Y-11824756D02*
G75*
G03X21740544Y-11824756I-50000J0D01*
G01*
X17349000Y-14618500D02*
X17449000Y-14718500D01*
X17449000Y-14618500D02*
X17349000Y-14718500D01*
X17449000Y-14668500D02*
G75*
G03X17449000Y-14668500I-50000J0D01*
G01*
X17603000Y-14618500D02*
X17703000Y-14718500D01*
X17703000Y-14618500D02*
X17603000Y-14718500D01*
X17703000Y-14668500D02*
G75*
G03X17703000Y-14668500I-50000J0D01*
G01*
X17857000Y-14618500D02*
X17957000Y-14718500D01*
X17957000Y-14618500D02*
X17857000Y-14718500D01*
X17957000Y-14668500D02*
G75*
G03X17957000Y-14668500I-50000J0D01*
G01*
X18111000Y-14618500D02*
X18211000Y-14718500D01*
X18211000Y-14618500D02*
X18111000Y-14718500D01*
X18211000Y-14668500D02*
G75*
G03X18211000Y-14668500I-50000J0D01*
G01*
X18377700Y-13488200D02*
X18477700Y-13588200D01*
X18477700Y-13488200D02*
X18377700Y-13588200D01*
X18477700Y-13538200D02*
G75*
G03X18477700Y-13538200I-50000J0D01*
G01*
X18377700Y-13738200D02*
X18477700Y-13838200D01*
X18477700Y-13738200D02*
X18377700Y-13838200D01*
X18477700Y-13788200D02*
G75*
G03X18477700Y-13788200I-50000J0D01*
G01*
X14364500Y-14618500D02*
X14464500Y-14718500D01*
X14464500Y-14618500D02*
X14364500Y-14718500D01*
X14464500Y-14668500D02*
G75*
G03X14464500Y-14668500I-50000J0D01*
G01*
X14618500Y-14618500D02*
X14718500Y-14718500D01*
X14718500Y-14618500D02*
X14618500Y-14718500D01*
X14718500Y-14668500D02*
G75*
G03X14718500Y-14668500I-50000J0D01*
G01*
X14872500Y-14618500D02*
X14972500Y-14718500D01*
X14972500Y-14618500D02*
X14872500Y-14718500D01*
X14972500Y-14668500D02*
G75*
G03X14972500Y-14668500I-50000J0D01*
G01*
X15126500Y-14618500D02*
X15226500Y-14718500D01*
X15226500Y-14618500D02*
X15126500Y-14718500D01*
X15226500Y-14668500D02*
G75*
G03X15226500Y-14668500I-50000J0D01*
G01*
X15380500Y-14618500D02*
X15480500Y-14718500D01*
X15480500Y-14618500D02*
X15380500Y-14718500D01*
X15480500Y-14668500D02*
G75*
G03X15480500Y-14668500I-50000J0D01*
G01*
X15634500Y-14618500D02*
X15734500Y-14718500D01*
X15734500Y-14618500D02*
X15634500Y-14718500D01*
X15734500Y-14668500D02*
G75*
G03X15734500Y-14668500I-50000J0D01*
G01*
X15888500Y-14618500D02*
X15988500Y-14718500D01*
X15988500Y-14618500D02*
X15888500Y-14718500D01*
X15988500Y-14668500D02*
G75*
G03X15988500Y-14668500I-50000J0D01*
G01*
X16142500Y-14618500D02*
X16242500Y-14718500D01*
X16242500Y-14618500D02*
X16142500Y-14718500D01*
X16242500Y-14668500D02*
G75*
G03X16242500Y-14668500I-50000J0D01*
G01*
X16396500Y-14618500D02*
X16496500Y-14718500D01*
X16496500Y-14618500D02*
X16396500Y-14718500D01*
X16496500Y-14668500D02*
G75*
G03X16496500Y-14668500I-50000J0D01*
G01*
X14364500Y-14364500D02*
X14464500Y-14464500D01*
X14464500Y-14364500D02*
X14364500Y-14464500D01*
X14464500Y-14414500D02*
G75*
G03X14464500Y-14414500I-50000J0D01*
G01*
X14618500Y-14364500D02*
X14718500Y-14464500D01*
X14718500Y-14364500D02*
X14618500Y-14464500D01*
X14718500Y-14414500D02*
G75*
G03X14718500Y-14414500I-50000J0D01*
G01*
X14872500Y-14364500D02*
X14972500Y-14464500D01*
X14972500Y-14364500D02*
X14872500Y-14464500D01*
X14972500Y-14414500D02*
G75*
G03X14972500Y-14414500I-50000J0D01*
G01*
X15126500Y-14364500D02*
X15226500Y-14464500D01*
X15226500Y-14364500D02*
X15126500Y-14464500D01*
X15226500Y-14414500D02*
G75*
G03X15226500Y-14414500I-50000J0D01*
G01*
X15380500Y-14364500D02*
X15480500Y-14464500D01*
X15480500Y-14364500D02*
X15380500Y-14464500D01*
X15480500Y-14414500D02*
G75*
G03X15480500Y-14414500I-50000J0D01*
G01*
X15634500Y-14364500D02*
X15734500Y-14464500D01*
X15734500Y-14364500D02*
X15634500Y-14464500D01*
X15734500Y-14414500D02*
G75*
G03X15734500Y-14414500I-50000J0D01*
G01*
X15888500Y-14364500D02*
X15988500Y-14464500D01*
X15988500Y-14364500D02*
X15888500Y-14464500D01*
X15988500Y-14414500D02*
G75*
G03X15988500Y-14414500I-50000J0D01*
G01*
X16142500Y-14364500D02*
X16242500Y-14464500D01*
X16242500Y-14364500D02*
X16142500Y-14464500D01*
X16242500Y-14414500D02*
G75*
G03X16242500Y-14414500I-50000J0D01*
G01*
X16396500Y-14364500D02*
X16496500Y-14464500D01*
X16496500Y-14364500D02*
X16396500Y-14464500D01*
X16496500Y-14414500D02*
G75*
G03X16496500Y-14414500I-50000J0D01*
G01*
X19635000Y-13234200D02*
X19735000Y-13334200D01*
X19735000Y-13234200D02*
X19635000Y-13334200D01*
X19735000Y-13284200D02*
G75*
G03X19735000Y-13284200I-50000J0D01*
G01*
X19635000Y-13488200D02*
X19735000Y-13588200D01*
X19735000Y-13488200D02*
X19635000Y-13588200D01*
X19735000Y-13538200D02*
G75*
G03X19735000Y-13538200I-50000J0D01*
G01*
X19635000Y-13742200D02*
X19735000Y-13842200D01*
X19735000Y-13742200D02*
X19635000Y-13842200D01*
X19735000Y-13792200D02*
G75*
G03X19735000Y-13792200I-50000J0D01*
G01*
X22175000Y-13234200D02*
X22275000Y-13334200D01*
X22275000Y-13234200D02*
X22175000Y-13334200D01*
X22275000Y-13284200D02*
G75*
G03X22275000Y-13284200I-50000J0D01*
G01*
X22175000Y-13488200D02*
X22275000Y-13588200D01*
X22275000Y-13488200D02*
X22175000Y-13588200D01*
X22275000Y-13538200D02*
G75*
G03X22275000Y-13538200I-50000J0D01*
G01*
X22175000Y-13742200D02*
X22275000Y-13842200D01*
X22275000Y-13742200D02*
X22175000Y-13842200D01*
X22275000Y-13792200D02*
G75*
G03X22275000Y-13792200I-50000J0D01*
G01*
X12065800Y-12269000D02*
X12165800Y-12369000D01*
X12165800Y-12269000D02*
X12065800Y-12369000D01*
X12165800Y-12319000D02*
G75*
G03X12165800Y-12319000I-50000J0D01*
G01*
X12319800Y-12269000D02*
X12419800Y-12369000D01*
X12419800Y-12269000D02*
X12319800Y-12369000D01*
X12419800Y-12319000D02*
G75*
G03X12419800Y-12319000I-50000J0D01*
G01*
X17349000Y-14364500D02*
X17449000Y-14464500D01*
X17449000Y-14364500D02*
X17349000Y-14464500D01*
X17449000Y-14414500D02*
G75*
G03X17449000Y-14414500I-50000J0D01*
G01*
X17603000Y-14364500D02*
X17703000Y-14464500D01*
X17703000Y-14364500D02*
X17603000Y-14464500D01*
X17703000Y-14414500D02*
G75*
G03X17703000Y-14414500I-50000J0D01*
G01*
X17857000Y-14364500D02*
X17957000Y-14464500D01*
X17957000Y-14364500D02*
X17857000Y-14464500D01*
X17957000Y-14414500D02*
G75*
G03X17957000Y-14414500I-50000J0D01*
G01*
X18111000Y-14364500D02*
X18211000Y-14464500D01*
X18211000Y-14364500D02*
X18111000Y-14464500D01*
X18211000Y-14414500D02*
G75*
G03X18211000Y-14414500I-50000J0D01*
G01*
X9881400Y-8513800D02*
X9981400Y-8613800D01*
X9981400Y-8513800D02*
X9881400Y-8613800D01*
X9981400Y-8563800D02*
G75*
G03X9981400Y-8563800I-50000J0D01*
G01*
X9881400Y-8763800D02*
X9981400Y-8863800D01*
X9981400Y-8763800D02*
X9881400Y-8863800D01*
X9981400Y-8813800D02*
G75*
G03X9981400Y-8813800I-50000J0D01*
G01*
X11418100Y-12269000D02*
X11518100Y-12369000D01*
X11518100Y-12269000D02*
X11418100Y-12369000D01*
X11518100Y-12319000D02*
G75*
G03X11518100Y-12319000I-50000J0D01*
G01*
X20930400Y-13234200D02*
X21030400Y-13334200D01*
X21030400Y-13234200D02*
X20930400Y-13334200D01*
X21030400Y-13284200D02*
G75*
G03X21030400Y-13284200I-50000J0D01*
G01*
X20930400Y-13488200D02*
X21030400Y-13588200D01*
X21030400Y-13488200D02*
X20930400Y-13588200D01*
X21030400Y-13538200D02*
G75*
G03X21030400Y-13538200I-50000J0D01*
G01*
X20930400Y-13742200D02*
X21030400Y-13842200D01*
X21030400Y-13742200D02*
X20930400Y-13842200D01*
X21030400Y-13792200D02*
G75*
G03X21030400Y-13792200I-50000J0D01*
G01*
X10745000Y-9792500D02*
X10845000Y-9892500D01*
X10845000Y-9792500D02*
X10745000Y-9892500D01*
X10845000Y-9842500D02*
G75*
G03X10845000Y-9842500I-50000J0D01*
G01*
X10999000Y-9792500D02*
X11099000Y-9892500D01*
X11099000Y-9792500D02*
X10999000Y-9892500D01*
X11099000Y-9842500D02*
G75*
G03X11099000Y-9842500I-50000J0D01*
G01*
X9665500Y-6744500D02*
X9765500Y-6844500D01*
X9765500Y-6744500D02*
X9665500Y-6844500D01*
X9765500Y-6794500D02*
G75*
G03X9765500Y-6794500I-50000J0D01*
G01*
X9919500Y-6744500D02*
X10019500Y-6844500D01*
X10019500Y-6744500D02*
X9919500Y-6844500D01*
X10019500Y-6794500D02*
G75*
G03X10019500Y-6794500I-50000J0D01*
G01*
X17134078Y-12891262D02*
X17234154Y-12991338D01*
X17234154Y-12891262D02*
X17134078Y-12991338D01*
X17184116Y-12891262D02*
X17184116Y-12991338D01*
X17134078Y-12941300D02*
X17234154Y-12941300D01*
X17260062Y-12891262D02*
X17360138Y-12991338D01*
X17360138Y-12891262D02*
X17260062Y-12991338D01*
X17310100Y-12891262D02*
X17310100Y-12991338D01*
X17260062Y-12941300D02*
X17360138Y-12941300D01*
X17768062Y-12891262D02*
X17868138Y-12991338D01*
X17868138Y-12891262D02*
X17768062Y-12991338D01*
X17818100Y-12891262D02*
X17818100Y-12991338D01*
X17768062Y-12941300D02*
X17868138Y-12941300D01*
X17894046Y-12891262D02*
X17994122Y-12991338D01*
X17994122Y-12891262D02*
X17894046Y-12991338D01*
X17944084Y-12891262D02*
X17944084Y-12991338D01*
X17894046Y-12941300D02*
X17994122Y-12941300D01*
X21539200Y-13236700D02*
X21640800Y-13338300D01*
X21640800Y-13236700D02*
X21539200Y-13338300D01*
X21625921Y-13323421D02*
X21625921Y-13251579D01*
X21554079Y-13251579D01*
X21554079Y-13323421D01*
X21625921Y-13323421D01*
X21539200Y-13486700D02*
X21640800Y-13588300D01*
X21640800Y-13486700D02*
X21539200Y-13588300D01*
X21625921Y-13573421D02*
X21625921Y-13501579D01*
X21554079Y-13501579D01*
X21554079Y-13573421D01*
X21625921Y-13573421D01*
X21539200Y-13736700D02*
X21640800Y-13838300D01*
X21640800Y-13736700D02*
X21539200Y-13838300D01*
X21625921Y-13823421D02*
X21625921Y-13751579D01*
X21554079Y-13751579D01*
X21554079Y-13823421D01*
X21625921Y-13823421D01*
X21539200Y-13986700D02*
X21640800Y-14088300D01*
X21640800Y-13986700D02*
X21539200Y-14088300D01*
X21625921Y-14073421D02*
X21625921Y-14001579D01*
X21554079Y-14001579D01*
X21554079Y-14073421D01*
X21625921Y-14073421D01*
X21539200Y-14236700D02*
X21640800Y-14338300D01*
X21640800Y-14236700D02*
X21539200Y-14338300D01*
X21625921Y-14323421D02*
X21625921Y-14251579D01*
X21554079Y-14251579D01*
X21554079Y-14323421D01*
X21625921Y-14323421D01*
X20269200Y-13236700D02*
X20370800Y-13338300D01*
X20370800Y-13236700D02*
X20269200Y-13338300D01*
X20355921Y-13323421D02*
X20355921Y-13251579D01*
X20284079Y-13251579D01*
X20284079Y-13323421D01*
X20355921Y-13323421D01*
X20269200Y-13486700D02*
X20370800Y-13588300D01*
X20370800Y-13486700D02*
X20269200Y-13588300D01*
X20355921Y-13573421D02*
X20355921Y-13501579D01*
X20284079Y-13501579D01*
X20284079Y-13573421D01*
X20355921Y-13573421D01*
X20269200Y-13736700D02*
X20370800Y-13838300D01*
X20370800Y-13736700D02*
X20269200Y-13838300D01*
X20355921Y-13823421D02*
X20355921Y-13751579D01*
X20284079Y-13751579D01*
X20284079Y-13823421D01*
X20355921Y-13823421D01*
X20269200Y-13986700D02*
X20370800Y-14088300D01*
X20370800Y-13986700D02*
X20269200Y-14088300D01*
X20355921Y-14073421D02*
X20355921Y-14001579D01*
X20284079Y-14001579D01*
X20284079Y-14073421D01*
X20355921Y-14073421D01*
X20269200Y-14236700D02*
X20370800Y-14338300D01*
X20370800Y-14236700D02*
X20269200Y-14338300D01*
X20355921Y-14323421D02*
X20355921Y-14251579D01*
X20284079Y-14251579D01*
X20284079Y-14323421D01*
X20355921Y-14323421D01*
X11823700Y-9664700D02*
X11925300Y-9766300D01*
X11925300Y-9664700D02*
X11823700Y-9766300D01*
X11910421Y-9751421D02*
X11910421Y-9679579D01*
X11838579Y-9679579D01*
X11838579Y-9751421D01*
X11910421Y-9751421D01*
X11823700Y-11950700D02*
X11925300Y-12052300D01*
X11925300Y-11950700D02*
X11823700Y-12052300D01*
X11910421Y-12037421D02*
X11910421Y-11965579D01*
X11838579Y-11965579D01*
X11838579Y-12037421D01*
X11910421Y-12037421D01*
X12077700Y-9664700D02*
X12179300Y-9766300D01*
X12179300Y-9664700D02*
X12077700Y-9766300D01*
X12164421Y-9751421D02*
X12164421Y-9679579D01*
X12092579Y-9679579D01*
X12092579Y-9751421D01*
X12164421Y-9751421D01*
X12077700Y-11950700D02*
X12179300Y-12052300D01*
X12179300Y-11950700D02*
X12077700Y-12052300D01*
X12164421Y-12037421D02*
X12164421Y-11965579D01*
X12092579Y-11965579D01*
X12092579Y-12037421D01*
X12164421Y-12037421D01*
X12331700Y-9664700D02*
X12433300Y-9766300D01*
X12433300Y-9664700D02*
X12331700Y-9766300D01*
X12418421Y-9751421D02*
X12418421Y-9679579D01*
X12346579Y-9679579D01*
X12346579Y-9751421D01*
X12418421Y-9751421D01*
X12331700Y-11950700D02*
X12433300Y-12052300D01*
X12433300Y-11950700D02*
X12331700Y-12052300D01*
X12418421Y-12037421D02*
X12418421Y-11965579D01*
X12346579Y-11965579D01*
X12346579Y-12037421D01*
X12418421Y-12037421D01*
X12585700Y-9664700D02*
X12687300Y-9766300D01*
X12687300Y-9664700D02*
X12585700Y-9766300D01*
X12672421Y-9751421D02*
X12672421Y-9679579D01*
X12600579Y-9679579D01*
X12600579Y-9751421D01*
X12672421Y-9751421D01*
X12585700Y-11950700D02*
X12687300Y-12052300D01*
X12687300Y-11950700D02*
X12585700Y-12052300D01*
X12672421Y-12037421D02*
X12672421Y-11965579D01*
X12600579Y-11965579D01*
X12600579Y-12037421D01*
X12672421Y-12037421D01*
X12839700Y-9664700D02*
X12941300Y-9766300D01*
X12941300Y-9664700D02*
X12839700Y-9766300D01*
X12926421Y-9751421D02*
X12926421Y-9679579D01*
X12854579Y-9679579D01*
X12854579Y-9751421D01*
X12926421Y-9751421D01*
X12839700Y-11950700D02*
X12941300Y-12052300D01*
X12941300Y-11950700D02*
X12839700Y-12052300D01*
X12926421Y-12037421D02*
X12926421Y-11965579D01*
X12854579Y-11965579D01*
X12854579Y-12037421D01*
X12926421Y-12037421D01*
X13093700Y-9664700D02*
X13195300Y-9766300D01*
X13195300Y-9664700D02*
X13093700Y-9766300D01*
X13180421Y-9751421D02*
X13180421Y-9679579D01*
X13108579Y-9679579D01*
X13108579Y-9751421D01*
X13180421Y-9751421D01*
X13093700Y-11950700D02*
X13195300Y-12052300D01*
X13195300Y-11950700D02*
X13093700Y-12052300D01*
X13180421Y-12037421D02*
X13180421Y-11965579D01*
X13108579Y-11965579D01*
X13108579Y-12037421D01*
X13180421Y-12037421D01*
X13347700Y-9664700D02*
X13449300Y-9766300D01*
X13449300Y-9664700D02*
X13347700Y-9766300D01*
X13434421Y-9751421D02*
X13434421Y-9679579D01*
X13362579Y-9679579D01*
X13362579Y-9751421D01*
X13434421Y-9751421D01*
X13347700Y-11950700D02*
X13449300Y-12052300D01*
X13449300Y-11950700D02*
X13347700Y-12052300D01*
X13434421Y-12037421D02*
X13434421Y-11965579D01*
X13362579Y-11965579D01*
X13362579Y-12037421D01*
X13434421Y-12037421D01*
X13601700Y-9664700D02*
X13703300Y-9766300D01*
X13703300Y-9664700D02*
X13601700Y-9766300D01*
X13688421Y-9751421D02*
X13688421Y-9679579D01*
X13616579Y-9679579D01*
X13616579Y-9751421D01*
X13688421Y-9751421D01*
X13601700Y-11950700D02*
X13703300Y-12052300D01*
X13703300Y-11950700D02*
X13601700Y-12052300D01*
X13688421Y-12037421D02*
X13688421Y-11965579D01*
X13616579Y-11965579D01*
X13616579Y-12037421D01*
X13688421Y-12037421D01*
X13855700Y-9664700D02*
X13957300Y-9766300D01*
X13957300Y-9664700D02*
X13855700Y-9766300D01*
X13942421Y-9751421D02*
X13942421Y-9679579D01*
X13870579Y-9679579D01*
X13870579Y-9751421D01*
X13942421Y-9751421D01*
X13855700Y-11950700D02*
X13957300Y-12052300D01*
X13957300Y-11950700D02*
X13855700Y-12052300D01*
X13942421Y-12037421D02*
X13942421Y-11965579D01*
X13870579Y-11965579D01*
X13870579Y-12037421D01*
X13942421Y-12037421D01*
X14109700Y-9664700D02*
X14211300Y-9766300D01*
X14211300Y-9664700D02*
X14109700Y-9766300D01*
X14196421Y-9751421D02*
X14196421Y-9679579D01*
X14124579Y-9679579D01*
X14124579Y-9751421D01*
X14196421Y-9751421D01*
X14109700Y-11950700D02*
X14211300Y-12052300D01*
X14211300Y-11950700D02*
X14109700Y-12052300D01*
X14196421Y-12037421D02*
X14196421Y-11965579D01*
X14124579Y-11965579D01*
X14124579Y-12037421D01*
X14196421Y-12037421D01*
X14363700Y-9664700D02*
X14465300Y-9766300D01*
X14465300Y-9664700D02*
X14363700Y-9766300D01*
X14450421Y-9751421D02*
X14450421Y-9679579D01*
X14378579Y-9679579D01*
X14378579Y-9751421D01*
X14450421Y-9751421D01*
X14363700Y-11950700D02*
X14465300Y-12052300D01*
X14465300Y-11950700D02*
X14363700Y-12052300D01*
X14450421Y-12037421D02*
X14450421Y-11965579D01*
X14378579Y-11965579D01*
X14378579Y-12037421D01*
X14450421Y-12037421D01*
X14617700Y-9664700D02*
X14719300Y-9766300D01*
X14719300Y-9664700D02*
X14617700Y-9766300D01*
X14704421Y-9751421D02*
X14704421Y-9679579D01*
X14632579Y-9679579D01*
X14632579Y-9751421D01*
X14704421Y-9751421D01*
X14617700Y-11950700D02*
X14719300Y-12052300D01*
X14719300Y-11950700D02*
X14617700Y-12052300D01*
X14704421Y-12037421D02*
X14704421Y-11965579D01*
X14632579Y-11965579D01*
X14632579Y-12037421D01*
X14704421Y-12037421D01*
X14871700Y-9664700D02*
X14973300Y-9766300D01*
X14973300Y-9664700D02*
X14871700Y-9766300D01*
X14958421Y-9751421D02*
X14958421Y-9679579D01*
X14886579Y-9679579D01*
X14886579Y-9751421D01*
X14958421Y-9751421D01*
X14871700Y-11950700D02*
X14973300Y-12052300D01*
X14973300Y-11950700D02*
X14871700Y-12052300D01*
X14958421Y-12037421D02*
X14958421Y-11965579D01*
X14886579Y-11965579D01*
X14886579Y-12037421D01*
X14958421Y-12037421D01*
X15125700Y-9664700D02*
X15227300Y-9766300D01*
X15227300Y-9664700D02*
X15125700Y-9766300D01*
X15212421Y-9751421D02*
X15212421Y-9679579D01*
X15140579Y-9679579D01*
X15140579Y-9751421D01*
X15212421Y-9751421D01*
X15125700Y-11950700D02*
X15227300Y-12052300D01*
X15227300Y-11950700D02*
X15125700Y-12052300D01*
X15212421Y-12037421D02*
X15212421Y-11965579D01*
X15140579Y-11965579D01*
X15140579Y-12037421D01*
X15212421Y-12037421D01*
X15379700Y-9664700D02*
X15481300Y-9766300D01*
X15481300Y-9664700D02*
X15379700Y-9766300D01*
X15466421Y-9751421D02*
X15466421Y-9679579D01*
X15394579Y-9679579D01*
X15394579Y-9751421D01*
X15466421Y-9751421D01*
X15379700Y-11950700D02*
X15481300Y-12052300D01*
X15481300Y-11950700D02*
X15379700Y-12052300D01*
X15466421Y-12037421D02*
X15466421Y-11965579D01*
X15394579Y-11965579D01*
X15394579Y-12037421D01*
X15466421Y-12037421D01*
X15633700Y-9664700D02*
X15735300Y-9766300D01*
X15735300Y-9664700D02*
X15633700Y-9766300D01*
X15720421Y-9751421D02*
X15720421Y-9679579D01*
X15648579Y-9679579D01*
X15648579Y-9751421D01*
X15720421Y-9751421D01*
X15633700Y-11950700D02*
X15735300Y-12052300D01*
X15735300Y-11950700D02*
X15633700Y-12052300D01*
X15720421Y-12037421D02*
X15720421Y-11965579D01*
X15648579Y-11965579D01*
X15648579Y-12037421D01*
X15720421Y-12037421D01*
X15887700Y-9664700D02*
X15989300Y-9766300D01*
X15989300Y-9664700D02*
X15887700Y-9766300D01*
X15974421Y-9751421D02*
X15974421Y-9679579D01*
X15902579Y-9679579D01*
X15902579Y-9751421D01*
X15974421Y-9751421D01*
X16141700Y-9664700D02*
X16243300Y-9766300D01*
X16243300Y-9664700D02*
X16141700Y-9766300D01*
X16228421Y-9751421D02*
X16228421Y-9679579D01*
X16156579Y-9679579D01*
X16156579Y-9751421D01*
X16228421Y-9751421D01*
X16395700Y-9664700D02*
X16497300Y-9766300D01*
X16497300Y-9664700D02*
X16395700Y-9766300D01*
X16482421Y-9751421D02*
X16482421Y-9679579D01*
X16410579Y-9679579D01*
X16410579Y-9751421D01*
X16482421Y-9751421D01*
X16649700Y-9664700D02*
X16751300Y-9766300D01*
X16751300Y-9664700D02*
X16649700Y-9766300D01*
X16736421Y-9751421D02*
X16736421Y-9679579D01*
X16664579Y-9679579D01*
X16664579Y-9751421D01*
X16736421Y-9751421D01*
X18999200Y-13236700D02*
X19100800Y-13338300D01*
X19100800Y-13236700D02*
X18999200Y-13338300D01*
X19085921Y-13323421D02*
X19085921Y-13251579D01*
X19014079Y-13251579D01*
X19014079Y-13323421D01*
X19085921Y-13323421D01*
X18999200Y-13486700D02*
X19100800Y-13588300D01*
X19100800Y-13486700D02*
X18999200Y-13588300D01*
X19085921Y-13573421D02*
X19085921Y-13501579D01*
X19014079Y-13501579D01*
X19014079Y-13573421D01*
X19085921Y-13573421D01*
X18999200Y-13736700D02*
X19100800Y-13838300D01*
X19100800Y-13736700D02*
X18999200Y-13838300D01*
X19085921Y-13823421D02*
X19085921Y-13751579D01*
X19014079Y-13751579D01*
X19014079Y-13823421D01*
X19085921Y-13823421D01*
X18999200Y-13986700D02*
X19100800Y-14088300D01*
X19100800Y-13986700D02*
X18999200Y-14088300D01*
X19085921Y-14073421D02*
X19085921Y-14001579D01*
X19014079Y-14001579D01*
X19014079Y-14073421D01*
X19085921Y-14073421D01*
X18999200Y-14236700D02*
X19100800Y-14338300D01*
X19100800Y-14236700D02*
X18999200Y-14338300D01*
X19085921Y-14323421D02*
X19085921Y-14251579D01*
X19014079Y-14251579D01*
X19014079Y-14323421D01*
X19085921Y-14323421D01*
X9787500Y-7311000D02*
X9897500Y-7421000D01*
X9897500Y-7311000D02*
X9787500Y-7421000D01*
X9842500Y-7421000D02*
X9897500Y-7366000D01*
X9842500Y-7311000D01*
X9787500Y-7366000D01*
X9842500Y-7421000D01*
X9787500Y-7819000D02*
X9897500Y-7929000D01*
X9897500Y-7819000D02*
X9787500Y-7929000D01*
X9842500Y-7929000D02*
X9897500Y-7874000D01*
X9842500Y-7819000D01*
X9787500Y-7874000D01*
X9842500Y-7929000D01*
X15235800Y-7666600D02*
X15345800Y-7776600D01*
X15345800Y-7666600D02*
X15235800Y-7776600D01*
X15290800Y-7776600D02*
X15345800Y-7721600D01*
X15290800Y-7666600D01*
X15235800Y-7721600D01*
X15290800Y-7776600D01*
X15235800Y-8174600D02*
X15345800Y-8284600D01*
X15345800Y-8174600D02*
X15235800Y-8284600D01*
X15290800Y-8284600D02*
X15345800Y-8229600D01*
X15290800Y-8174600D01*
X15235800Y-8229600D01*
X15290800Y-8284600D01*
X14211300Y-10447020D02*
X14211300Y-10558780D01*
X14155420Y-10502900D02*
X14267180Y-10502900D01*
X14267180Y-10502900D02*
G75*
G03X14267180Y-10502900I-55880J0D01*
G01*
X14211300Y-10701020D02*
X14211300Y-10812780D01*
X14155420Y-10756900D02*
X14267180Y-10756900D01*
X14267180Y-10756900D02*
G75*
G03X14267180Y-10756900I-55880J0D01*
G01*
X14211300Y-10955020D02*
X14211300Y-11066780D01*
X14155420Y-11010900D02*
X14267180Y-11010900D01*
X14267180Y-11010900D02*
G75*
G03X14267180Y-11010900I-55880J0D01*
G01*
X14211300Y-11209020D02*
X14211300Y-11320780D01*
X14155420Y-11264900D02*
X14267180Y-11264900D01*
X14267180Y-11264900D02*
G75*
G03X14267180Y-11264900I-55880J0D01*
G01*
X14973300Y-10447020D02*
X14973300Y-10558780D01*
X14917420Y-10502900D02*
X15029180Y-10502900D01*
X15029180Y-10502900D02*
G75*
G03X15029180Y-10502900I-55880J0D01*
G01*
X14973300Y-10701020D02*
X14973300Y-10812780D01*
X14917420Y-10756900D02*
X15029180Y-10756900D01*
X15029180Y-10756900D02*
G75*
G03X15029180Y-10756900I-55880J0D01*
G01*
X14973300Y-10955020D02*
X14973300Y-11066780D01*
X14917420Y-11010900D02*
X15029180Y-11010900D01*
X15029180Y-11010900D02*
G75*
G03X15029180Y-11010900I-55880J0D01*
G01*
X14973300Y-11209020D02*
X14973300Y-11320780D01*
X14917420Y-11264900D02*
X15029180Y-11264900D01*
X15029180Y-11264900D02*
G75*
G03X15029180Y-11264900I-55880J0D01*
G01*
X17314427Y-6138427D02*
X17314427Y-6053573D01*
X17229573Y-6053573D01*
X17229573Y-6138427D01*
X17314427Y-6138427D01*
X17332000Y-6096000D02*
G75*
G03X17332000Y-6096000I-60000J0D01*
G01*
X21886427Y-6138427D02*
X21886427Y-6053573D01*
X21801573Y-6053573D01*
X21801573Y-6138427D01*
X21886427Y-6138427D01*
X21904000Y-6096000D02*
G75*
G03X21904000Y-6096000I-60000J0D01*
G01*
X17314427Y-10202427D02*
X17314427Y-10117573D01*
X17229573Y-10117573D01*
X17229573Y-10202427D01*
X17314427Y-10202427D01*
X17332000Y-10160000D02*
G75*
G03X17332000Y-10160000I-60000J0D01*
G01*
X21886427Y-10202427D02*
X21886427Y-10117573D01*
X21801573Y-10117573D01*
X21801573Y-10202427D01*
X21886427Y-10202427D01*
X21904000Y-10160000D02*
G75*
G03X21904000Y-10160000I-60000J0D01*
G01*
X17314427Y-8132327D02*
X17314427Y-8047473D01*
X17229573Y-8047473D01*
X17229573Y-8132327D01*
X17314427Y-8132327D01*
X17332000Y-8089900D02*
G75*
G03X17332000Y-8089900I-60000J0D01*
G01*
X21886427Y-8132327D02*
X21886427Y-8047473D01*
X21801573Y-8047473D01*
X21801573Y-8132327D01*
X21886427Y-8132327D01*
X21904000Y-8089900D02*
G75*
G03X21904000Y-8089900I-60000J0D01*
G01*
X17314427Y-9186427D02*
X17314427Y-9101573D01*
X17229573Y-9101573D01*
X17229573Y-9186427D01*
X17314427Y-9186427D01*
X17332000Y-9144000D02*
G75*
G03X17332000Y-9144000I-60000J0D01*
G01*
X21886427Y-9186427D02*
X21886427Y-9101573D01*
X21801573Y-9101573D01*
X21801573Y-9186427D01*
X21886427Y-9186427D01*
X21904000Y-9144000D02*
G75*
G03X21904000Y-9144000I-60000J0D01*
G01*
X17314427Y-7116327D02*
X17314427Y-7031473D01*
X17229573Y-7031473D01*
X17229573Y-7116327D01*
X17314427Y-7116327D01*
X17332000Y-7073900D02*
G75*
G03X17332000Y-7073900I-60000J0D01*
G01*
X21886427Y-7116327D02*
X21886427Y-7031473D01*
X21801573Y-7031473D01*
X21801573Y-7116327D01*
X21886427Y-7116327D01*
X21904000Y-7073900D02*
G75*
G03X21904000Y-7073900I-60000J0D01*
G01*
X17314427Y-11218427D02*
X17314427Y-11133573D01*
X17229573Y-11133573D01*
X17229573Y-11218427D01*
X17314427Y-11218427D01*
X17332000Y-11176000D02*
G75*
G03X17332000Y-11176000I-60000J0D01*
G01*
X21886427Y-11218427D02*
X21886427Y-11133573D01*
X21801573Y-11133573D01*
X21801573Y-11218427D01*
X21886427Y-11218427D01*
X21904000Y-11176000D02*
G75*
G03X21904000Y-11176000I-60000J0D01*
G01*
X9664000Y-6034000D02*
X9729000Y-5969000D01*
X9664000Y-5904000D01*
X9599000Y-5969000D01*
X9664000Y-6034000D01*
X9729000Y-5969000D02*
G75*
G03X9729000Y-5969000I-65000J0D01*
G01*
X10164000Y-6034000D02*
X10229000Y-5969000D01*
X10164000Y-5904000D01*
X10099000Y-5969000D01*
X10164000Y-6034000D01*
X10229000Y-5969000D02*
G75*
G03X10229000Y-5969000I-65000J0D01*
G01*
X10664000Y-6034000D02*
X10729000Y-5969000D01*
X10664000Y-5904000D01*
X10599000Y-5969000D01*
X10664000Y-6034000D01*
X10729000Y-5969000D02*
G75*
G03X10729000Y-5969000I-65000J0D01*
G01*
X11164000Y-6034000D02*
X11229000Y-5969000D01*
X11164000Y-5904000D01*
X11099000Y-5969000D01*
X11164000Y-6034000D01*
X11229000Y-5969000D02*
G75*
G03X11229000Y-5969000I-65000J0D01*
G01*
X11912600Y-6034000D02*
X11977600Y-5969000D01*
X11912600Y-5904000D01*
X11847600Y-5969000D01*
X11912600Y-6034000D01*
X11977600Y-5969000D02*
G75*
G03X11977600Y-5969000I-65000J0D01*
G01*
X12420600Y-6034000D02*
X12485600Y-5969000D01*
X12420600Y-5904000D01*
X12355600Y-5969000D01*
X12420600Y-6034000D01*
X12485600Y-5969000D02*
G75*
G03X12485600Y-5969000I-65000J0D01*
G01*
X12674600Y-6034000D02*
X12739600Y-5969000D01*
X12674600Y-5904000D01*
X12609600Y-5969000D01*
X12674600Y-6034000D01*
X12739600Y-5969000D02*
G75*
G03X12739600Y-5969000I-65000J0D01*
G01*
X12704600Y-5914000D02*
X12644600Y-5914000D01*
X12704600Y-6024000D02*
X12644600Y-6024000D01*
X12644600Y-5914000D02*
G75*
G03X12644600Y-6024000I0J-55000D01*
G01*
X12704600Y-6024000D02*
G75*
G03X12704600Y-5914000I0J55000D01*
G01*
X12674600Y-6034000D02*
X12739600Y-5969000D01*
X12674600Y-5904000D01*
X12609600Y-5969000D01*
X12674600Y-6034000D01*
X12739600Y-5969000D02*
G75*
G03X12739600Y-5969000I-65000J0D01*
G01*
X12704600Y-5914000D02*
X12644600Y-5914000D01*
X12704600Y-6024000D02*
X12644600Y-6024000D01*
X12644600Y-5914000D02*
G75*
G03X12644600Y-6024000I0J-55000D01*
G01*
X12704600Y-6024000D02*
G75*
G03X12704600Y-5914000I0J55000D01*
G01*
X13550900Y-6034000D02*
X13615900Y-5969000D01*
X13550900Y-5904000D01*
X13485900Y-5969000D01*
X13550900Y-6034000D01*
X13615900Y-5969000D02*
G75*
G03X13615900Y-5969000I-65000J0D01*
G01*
X14058900Y-6034000D02*
X14123900Y-5969000D01*
X14058900Y-5904000D01*
X13993900Y-5969000D01*
X14058900Y-6034000D01*
X14123900Y-5969000D02*
G75*
G03X14123900Y-5969000I-65000J0D01*
G01*
X14312900Y-6034000D02*
X14377900Y-5969000D01*
X14312900Y-5904000D01*
X14247900Y-5969000D01*
X14312900Y-6034000D01*
X14377900Y-5969000D02*
G75*
G03X14377900Y-5969000I-65000J0D01*
G01*
X14342900Y-5914000D02*
X14282900Y-5914000D01*
X14342900Y-6024000D02*
X14282900Y-6024000D01*
X14282900Y-5914000D02*
G75*
G03X14282900Y-6024000I0J-55000D01*
G01*
X14342900Y-6024000D02*
G75*
G03X14342900Y-5914000I0J55000D01*
G01*
X14312900Y-6034000D02*
X14377900Y-5969000D01*
X14312900Y-5904000D01*
X14247900Y-5969000D01*
X14312900Y-6034000D01*
X14377900Y-5969000D02*
G75*
G03X14377900Y-5969000I-65000J0D01*
G01*
X14342900Y-5914000D02*
X14282900Y-5914000D01*
X14342900Y-6024000D02*
X14282900Y-6024000D01*
X14282900Y-5914000D02*
G75*
G03X14282900Y-6024000I0J-55000D01*
G01*
X14342900Y-6024000D02*
G75*
G03X14342900Y-5914000I0J55000D01*
G01*
X14351000Y-6825869D02*
X14351000Y-6975983D01*
X14275943Y-6900926D02*
X14426057Y-6900926D01*
X14404074Y-6954000D02*
X14404074Y-6847852D01*
X14297926Y-6847852D01*
X14297926Y-6954000D01*
X14404074Y-6954000D01*
X14351000Y-9026017D02*
X14351000Y-9176131D01*
X14275943Y-9101074D02*
X14426057Y-9101074D01*
X14404074Y-9154148D02*
X14404074Y-9048000D01*
X14297926Y-9048000D01*
X14297926Y-9154148D01*
X14404074Y-9154148D01*
X6951726Y-7036943D02*
X6951726Y-7187057D01*
X6876669Y-7112000D02*
X7026783Y-7112000D01*
X7004800Y-7165074D02*
X7004800Y-7058926D01*
X6898652Y-7058926D01*
X6898652Y-7165074D01*
X7004800Y-7165074D01*
X9151874Y-7036943D02*
X9151874Y-7187057D01*
X9076817Y-7112000D02*
X9226931Y-7112000D01*
X9204948Y-7165074D02*
X9204948Y-7058926D01*
X9098800Y-7058926D01*
X9098800Y-7165074D01*
X9204948Y-7165074D01*
X7620000Y-5892800D02*
X7620000Y-6045200D01*
X7543800Y-5969000D02*
X7696200Y-5969000D01*
X7620000Y-6045200D02*
X7696200Y-5969000D01*
X7620000Y-5892800D01*
X7543800Y-5969000D01*
X7620000Y-6045200D01*
X8128000Y-5892800D02*
X8128000Y-6045200D01*
X8051800Y-5969000D02*
X8204200Y-5969000D01*
X8128000Y-6045200D02*
X8204200Y-5969000D01*
X8128000Y-5892800D01*
X8051800Y-5969000D01*
X8128000Y-6045200D01*
X8636000Y-5892800D02*
X8636000Y-6045200D01*
X8559800Y-5969000D02*
X8712200Y-5969000D01*
X8636000Y-6045200D02*
X8712200Y-5969000D01*
X8636000Y-5892800D01*
X8559800Y-5969000D01*
X8636000Y-6045200D01*
X9144000Y-5892800D02*
X9144000Y-6045200D01*
X9067800Y-5969000D02*
X9220200Y-5969000D01*
X9144000Y-6045200D02*
X9220200Y-5969000D01*
X9144000Y-5892800D01*
X9067800Y-5969000D01*
X9144000Y-6045200D01*
X7188200Y-8202600D02*
X7288200Y-8102600D01*
X7188200Y-8002600D01*
X7088200Y-8102600D01*
X7188200Y-8202600D01*
X7258911Y-8173311D02*
X7258911Y-8031889D01*
X7117489Y-8031889D01*
X7117489Y-8173311D01*
X7258911Y-8173311D01*
X7188200Y-9980600D02*
X7288200Y-9880600D01*
X7188200Y-9780600D01*
X7088200Y-9880600D01*
X7188200Y-9980600D01*
X7258911Y-9951311D02*
X7258911Y-9809889D01*
X7117489Y-9809889D01*
X7117489Y-9951311D01*
X7258911Y-9951311D01*
X8763000Y-8202600D02*
X8863000Y-8102600D01*
X8763000Y-8002600D01*
X8663000Y-8102600D01*
X8763000Y-8202600D01*
X8833711Y-8173311D02*
X8833711Y-8031889D01*
X8692289Y-8031889D01*
X8692289Y-8173311D01*
X8833711Y-8173311D01*
X8763000Y-9980600D02*
X8863000Y-9880600D01*
X8763000Y-9780600D01*
X8663000Y-9880600D01*
X8763000Y-9980600D01*
X8833711Y-9951311D02*
X8833711Y-9809889D01*
X8692289Y-9809889D01*
X8692289Y-9951311D01*
X8833711Y-9951311D01*
X11696700Y-12863500D02*
X11796700Y-12763500D01*
X11696700Y-12663500D01*
X11596700Y-12763500D01*
X11696700Y-12863500D01*
X11767411Y-12834211D02*
X11767411Y-12692789D01*
X11625989Y-12692789D01*
X11625989Y-12834211D01*
X11767411Y-12834211D01*
X11696700Y-14641500D02*
X11796700Y-14541500D01*
X11696700Y-14441500D01*
X11596700Y-14541500D01*
X11696700Y-14641500D01*
X11767411Y-14612211D02*
X11767411Y-14470789D01*
X11625989Y-14470789D01*
X11625989Y-14612211D01*
X11767411Y-14612211D01*
X13271500Y-12863500D02*
X13371500Y-12763500D01*
X13271500Y-12663500D01*
X13171500Y-12763500D01*
X13271500Y-12863500D01*
X13342211Y-12834211D02*
X13342211Y-12692789D01*
X13200789Y-12692789D01*
X13200789Y-12834211D01*
X13342211Y-12834211D01*
X13271500Y-14641500D02*
X13371500Y-14541500D01*
X13271500Y-14441500D01*
X13171500Y-14541500D01*
X13271500Y-14641500D01*
X13342211Y-14612211D02*
X13342211Y-14470789D01*
X13200789Y-14470789D01*
X13200789Y-14612211D01*
X13342211Y-14612211D01*
X10606500Y-6796500D02*
X10856500Y-7046500D01*
X10856500Y-6796500D02*
X10606500Y-7046500D01*
X10731500Y-6796500D02*
X10731500Y-7046500D01*
X10606500Y-6921500D02*
X10856500Y-6921500D01*
X10856500Y-6921500D02*
G75*
G03X10856500Y-6921500I-125000J0D01*
G01*
X13146500Y-6796500D02*
X13396500Y-7046500D01*
X13396500Y-6796500D02*
X13146500Y-7046500D01*
X13271500Y-6796500D02*
X13271500Y-7046500D01*
X13146500Y-6921500D02*
X13396500Y-6921500D01*
X13396500Y-6921500D02*
G75*
G03X13396500Y-6921500I-125000J0D01*
G01*
X7337000Y-10323500D02*
X7647000Y-10633500D01*
X7647000Y-10323500D02*
X7337000Y-10633500D01*
X7601603Y-10588103D02*
X7601603Y-10368897D01*
X7382397Y-10368897D01*
X7382397Y-10588103D01*
X7601603Y-10588103D01*
X7647000Y-10478500D02*
G75*
G03X7647000Y-10478500I-155000J0D01*
G01*
X7337000Y-12609500D02*
X7647000Y-12919500D01*
X7647000Y-12609500D02*
X7337000Y-12919500D01*
X7601603Y-12874103D02*
X7601603Y-12654897D01*
X7382397Y-12654897D01*
X7382397Y-12874103D01*
X7601603Y-12874103D01*
X7647000Y-12764500D02*
G75*
G03X7647000Y-12764500I-155000J0D01*
G01*
X21938000Y-5301000D02*
X22258000Y-5621000D01*
X22258000Y-5301000D02*
X21938000Y-5621000D01*
X22098000Y-5621000D02*
X22258000Y-5461000D01*
X22098000Y-5301000D01*
X21938000Y-5461000D01*
X22098000Y-5621000D01*
X22258000Y-5461000D02*
G75*
G03X22258000Y-5461000I-160000J0D01*
G01*
X6825000Y-5301000D02*
X7145000Y-5621000D01*
X7145000Y-5301000D02*
X6825000Y-5621000D01*
X6985000Y-5621000D02*
X7145000Y-5461000D01*
X6985000Y-5301000D01*
X6825000Y-5461000D01*
X6985000Y-5621000D01*
X7145000Y-5461000D02*
G75*
G03X7145000Y-5461000I-160000J0D01*
G01*
X21938000Y-14445000D02*
X22258000Y-14765000D01*
X22258000Y-14445000D02*
X21938000Y-14765000D01*
X22098000Y-14765000D02*
X22258000Y-14605000D01*
X22098000Y-14445000D01*
X21938000Y-14605000D01*
X22098000Y-14765000D01*
X22258000Y-14605000D02*
G75*
G03X22258000Y-14605000I-160000J0D01*
G01*
X7460000Y-14445000D02*
X7780000Y-14765000D01*
X7780000Y-14445000D02*
X7460000Y-14765000D01*
X7620000Y-14765000D02*
X7780000Y-14605000D01*
X7620000Y-14445000D01*
X7460000Y-14605000D01*
X7620000Y-14765000D01*
X7780000Y-14605000D02*
G75*
G03X7780000Y-14605000I-160000J0D01*
G01*
X14191000Y-7841000D02*
X14511000Y-8161000D01*
X14511000Y-7841000D02*
X14191000Y-8161000D01*
X14351000Y-8161000D02*
X14511000Y-8001000D01*
X14351000Y-7841000D01*
X14191000Y-8001000D01*
X14351000Y-8161000D01*
X14511000Y-8001000D02*
G75*
G03X14511000Y-8001000I-160000J0D01*
G01*
X7891800Y-6952000D02*
X8211800Y-7272000D01*
X8211800Y-6952000D02*
X7891800Y-7272000D01*
X8051800Y-7272000D02*
X8211800Y-7112000D01*
X8051800Y-6952000D01*
X7891800Y-7112000D01*
X8051800Y-7272000D01*
X8211800Y-7112000D02*
G75*
G03X8211800Y-7112000I-160000J0D01*
G01*
D12*
X6778928Y-15473214D02*
X6778928Y-15173214D01*
X6850357Y-15173214D01*
X6893214Y-15187500D01*
X6921786Y-15216071D01*
X6936071Y-15244643D01*
X6950357Y-15301786D01*
X6950357Y-15344643D01*
X6936071Y-15401786D01*
X6921786Y-15430357D01*
X6893214Y-15458929D01*
X6850357Y-15473214D01*
X6778928Y-15473214D01*
X7078928Y-15473214D02*
X7078928Y-15273214D01*
X7078928Y-15330357D02*
X7093214Y-15301786D01*
X7107500Y-15287500D01*
X7136071Y-15273214D01*
X7164643Y-15273214D01*
X7264643Y-15473214D02*
X7264643Y-15273214D01*
X7264643Y-15173214D02*
X7250357Y-15187500D01*
X7264643Y-15201786D01*
X7278928Y-15187500D01*
X7264643Y-15173214D01*
X7264643Y-15201786D01*
X7450357Y-15473214D02*
X7421786Y-15458929D01*
X7407500Y-15430357D01*
X7407500Y-15173214D01*
X7607500Y-15473214D02*
X7578928Y-15458929D01*
X7564643Y-15430357D01*
X7564643Y-15173214D01*
X7950357Y-15473214D02*
X7950357Y-15173214D01*
X8050357Y-15387500D01*
X8150357Y-15173214D01*
X8150357Y-15473214D01*
X8421786Y-15473214D02*
X8421786Y-15316071D01*
X8407500Y-15287500D01*
X8378928Y-15273214D01*
X8321786Y-15273214D01*
X8293214Y-15287500D01*
X8421786Y-15458929D02*
X8393214Y-15473214D01*
X8321786Y-15473214D01*
X8293214Y-15458929D01*
X8278928Y-15430357D01*
X8278928Y-15401786D01*
X8293214Y-15373214D01*
X8321786Y-15358929D01*
X8393214Y-15358929D01*
X8421786Y-15344643D01*
X8564643Y-15273214D02*
X8564643Y-15573214D01*
X8564643Y-15287500D02*
X8593214Y-15273214D01*
X8650357Y-15273214D01*
X8678928Y-15287500D01*
X8693214Y-15301786D01*
X8707500Y-15330357D01*
X8707500Y-15416071D01*
X8693214Y-15444643D01*
X8678928Y-15458929D01*
X8650357Y-15473214D01*
X8593214Y-15473214D01*
X8564643Y-15458929D01*
X8836071Y-15444643D02*
X8850357Y-15458929D01*
X8836071Y-15473214D01*
X8821786Y-15458929D01*
X8836071Y-15444643D01*
X8836071Y-15473214D01*
X8836071Y-15287500D02*
X8850357Y-15301786D01*
X8836071Y-15316071D01*
X8821786Y-15301786D01*
X8836071Y-15287500D01*
X8836071Y-15316071D01*
X6432500Y-15937500D02*
X6492500Y-15997500D01*
X6492500Y-15937500D02*
X6432500Y-15997500D01*
X6836071Y-15803214D02*
X6864643Y-15803214D01*
X6893214Y-15817500D01*
X6907500Y-15831786D01*
X6921786Y-15860357D01*
X6936071Y-15917500D01*
X6936071Y-15988929D01*
X6921786Y-16046071D01*
X6907500Y-16074643D01*
X6893214Y-16088929D01*
X6864643Y-16103214D01*
X6836071Y-16103214D01*
X6807500Y-16088929D01*
X6793214Y-16074643D01*
X6778928Y-16046071D01*
X6764643Y-15988929D01*
X6764643Y-15917500D01*
X6778928Y-15860357D01*
X6793214Y-15831786D01*
X6807500Y-15817500D01*
X6836071Y-15803214D01*
X7064643Y-16074643D02*
X7078928Y-16088929D01*
X7064643Y-16103214D01*
X7050357Y-16088929D01*
X7064643Y-16074643D01*
X7064643Y-16103214D01*
X7336071Y-15803214D02*
X7278928Y-15803214D01*
X7250357Y-15817500D01*
X7236071Y-15831786D01*
X7207500Y-15874643D01*
X7193214Y-15931786D01*
X7193214Y-16046071D01*
X7207500Y-16074643D01*
X7221786Y-16088929D01*
X7250357Y-16103214D01*
X7307500Y-16103214D01*
X7336071Y-16088929D01*
X7350357Y-16074643D01*
X7364643Y-16046071D01*
X7364643Y-15974643D01*
X7350357Y-15946071D01*
X7336071Y-15931786D01*
X7307500Y-15917500D01*
X7250357Y-15917500D01*
X7221786Y-15931786D01*
X7207500Y-15946071D01*
X7193214Y-15974643D01*
X7550357Y-15803214D02*
X7578928Y-15803214D01*
X7607500Y-15817500D01*
X7621786Y-15831786D01*
X7636071Y-15860357D01*
X7650357Y-15917500D01*
X7650357Y-15988929D01*
X7636071Y-16046071D01*
X7621786Y-16074643D01*
X7607500Y-16088929D01*
X7578928Y-16103214D01*
X7550357Y-16103214D01*
X7521786Y-16088929D01*
X7507500Y-16074643D01*
X7493214Y-16046071D01*
X7478928Y-15988929D01*
X7478928Y-15917500D01*
X7493214Y-15860357D01*
X7507500Y-15831786D01*
X7521786Y-15817500D01*
X7550357Y-15803214D01*
X7778928Y-16103214D02*
X7778928Y-15903214D01*
X7778928Y-15931786D02*
X7793214Y-15917500D01*
X7821786Y-15903214D01*
X7864643Y-15903214D01*
X7893214Y-15917500D01*
X7907500Y-15946071D01*
X7907500Y-16103214D01*
X7907500Y-15946071D02*
X7921786Y-15917500D01*
X7950357Y-15903214D01*
X7993214Y-15903214D01*
X8021786Y-15917500D01*
X8036071Y-15946071D01*
X8036071Y-16103214D01*
X8178928Y-16103214D02*
X8178928Y-15903214D01*
X8178928Y-15931786D02*
X8193214Y-15917500D01*
X8221786Y-15903214D01*
X8264643Y-15903214D01*
X8293214Y-15917500D01*
X8307500Y-15946071D01*
X8307500Y-16103214D01*
X8307500Y-15946071D02*
X8321786Y-15917500D01*
X8350357Y-15903214D01*
X8393214Y-15903214D01*
X8421786Y-15917500D01*
X8436071Y-15946071D01*
X8436071Y-16103214D01*
X9021786Y-15788929D02*
X8764643Y-16174643D01*
X9407500Y-15803214D02*
X9436071Y-15803214D01*
X9464643Y-15817500D01*
X9478928Y-15831786D01*
X9493214Y-15860357D01*
X9507500Y-15917500D01*
X9507500Y-15988929D01*
X9493214Y-16046071D01*
X9478928Y-16074643D01*
X9464643Y-16088929D01*
X9436071Y-16103214D01*
X9407500Y-16103214D01*
X9378928Y-16088929D01*
X9364643Y-16074643D01*
X9350357Y-16046071D01*
X9336071Y-15988929D01*
X9336071Y-15917500D01*
X9350357Y-15860357D01*
X9364643Y-15831786D01*
X9378928Y-15817500D01*
X9407500Y-15803214D01*
X9636071Y-16074643D02*
X9650357Y-16088929D01*
X9636071Y-16103214D01*
X9621786Y-16088929D01*
X9636071Y-16074643D01*
X9636071Y-16103214D01*
X9836071Y-15803214D02*
X9864643Y-15803214D01*
X9893214Y-15817500D01*
X9907500Y-15831786D01*
X9921786Y-15860357D01*
X9936071Y-15917500D01*
X9936071Y-15988929D01*
X9921786Y-16046071D01*
X9907500Y-16074643D01*
X9893214Y-16088929D01*
X9864643Y-16103214D01*
X9836071Y-16103214D01*
X9807500Y-16088929D01*
X9793214Y-16074643D01*
X9778928Y-16046071D01*
X9764643Y-15988929D01*
X9764643Y-15917500D01*
X9778928Y-15860357D01*
X9793214Y-15831786D01*
X9807500Y-15817500D01*
X9836071Y-15803214D01*
X10050357Y-15831786D02*
X10064643Y-15817500D01*
X10093214Y-15803214D01*
X10164643Y-15803214D01*
X10193214Y-15817500D01*
X10207500Y-15831786D01*
X10221786Y-15860357D01*
X10221786Y-15888929D01*
X10207500Y-15931786D01*
X10036071Y-16103214D01*
X10221786Y-16103214D01*
X10478928Y-15903214D02*
X10478928Y-16103214D01*
X10407500Y-15788929D02*
X10336071Y-16003214D01*
X10521786Y-16003214D01*
X10621786Y-15803214D02*
X10621786Y-15860357D01*
X10736071Y-15803214D02*
X10736071Y-15860357D01*
X11178928Y-16217500D02*
X11164643Y-16203214D01*
X11136071Y-16160357D01*
X11121786Y-16131786D01*
X11107500Y-16088929D01*
X11093214Y-16017500D01*
X11093214Y-15960357D01*
X11107500Y-15888929D01*
X11121786Y-15846071D01*
X11136071Y-15817500D01*
X11164643Y-15774643D01*
X11178928Y-15760357D01*
X11278928Y-15831786D02*
X11293214Y-15817500D01*
X11321786Y-15803214D01*
X11393214Y-15803214D01*
X11421786Y-15817500D01*
X11436071Y-15831786D01*
X11450357Y-15860357D01*
X11450357Y-15888929D01*
X11436071Y-15931786D01*
X11264643Y-16103214D01*
X11450357Y-16103214D01*
X11807500Y-16103214D02*
X11807500Y-15803214D01*
X11936071Y-16103214D02*
X11936071Y-15946071D01*
X11921786Y-15917500D01*
X11893214Y-15903214D01*
X11850357Y-15903214D01*
X11821786Y-15917500D01*
X11807500Y-15931786D01*
X12121786Y-16103214D02*
X12093214Y-16088929D01*
X12078928Y-16074643D01*
X12064643Y-16046071D01*
X12064643Y-15960357D01*
X12078928Y-15931786D01*
X12093214Y-15917500D01*
X12121786Y-15903214D01*
X12164643Y-15903214D01*
X12193214Y-15917500D01*
X12207500Y-15931786D01*
X12221786Y-15960357D01*
X12221786Y-16046071D01*
X12207500Y-16074643D01*
X12193214Y-16088929D01*
X12164643Y-16103214D01*
X12121786Y-16103214D01*
X12393214Y-16103214D02*
X12364643Y-16088929D01*
X12350357Y-16060357D01*
X12350357Y-15803214D01*
X12621786Y-16088929D02*
X12593214Y-16103214D01*
X12536071Y-16103214D01*
X12507500Y-16088929D01*
X12493214Y-16060357D01*
X12493214Y-15946071D01*
X12507500Y-15917500D01*
X12536071Y-15903214D01*
X12593214Y-15903214D01*
X12621786Y-15917500D01*
X12636071Y-15946071D01*
X12636071Y-15974643D01*
X12493214Y-16003214D01*
X12750357Y-16088929D02*
X12778928Y-16103214D01*
X12836071Y-16103214D01*
X12864643Y-16088929D01*
X12878928Y-16060357D01*
X12878928Y-16046071D01*
X12864643Y-16017500D01*
X12836071Y-16003214D01*
X12793214Y-16003214D01*
X12764643Y-15988929D01*
X12750357Y-15960357D01*
X12750357Y-15946071D01*
X12764643Y-15917500D01*
X12793214Y-15903214D01*
X12836071Y-15903214D01*
X12864643Y-15917500D01*
X12978928Y-16217500D02*
X12993214Y-16203214D01*
X13021786Y-16160357D01*
X13036071Y-16131786D01*
X13050357Y-16088929D01*
X13064643Y-16017500D01*
X13064643Y-15960357D01*
X13050357Y-15888929D01*
X13036071Y-15846071D01*
X13021786Y-15817500D01*
X12993214Y-15774643D01*
X12978928Y-15760357D01*
X6492500Y-16363500D02*
G75*
G03X6492500Y-16363500I-38100J0D01*
G01*
X6836071Y-16199214D02*
X6864643Y-16199214D01*
X6893214Y-16213500D01*
X6907500Y-16227786D01*
X6921786Y-16256357D01*
X6936071Y-16313500D01*
X6936071Y-16384929D01*
X6921786Y-16442071D01*
X6907500Y-16470643D01*
X6893214Y-16484929D01*
X6864643Y-16499214D01*
X6836071Y-16499214D01*
X6807500Y-16484929D01*
X6793214Y-16470643D01*
X6778928Y-16442071D01*
X6764643Y-16384929D01*
X6764643Y-16313500D01*
X6778928Y-16256357D01*
X6793214Y-16227786D01*
X6807500Y-16213500D01*
X6836071Y-16199214D01*
X7064643Y-16470643D02*
X7078928Y-16484929D01*
X7064643Y-16499214D01*
X7050357Y-16484929D01*
X7064643Y-16470643D01*
X7064643Y-16499214D01*
X7178928Y-16199214D02*
X7378928Y-16199214D01*
X7250357Y-16499214D01*
X7621786Y-16199214D02*
X7564643Y-16199214D01*
X7536071Y-16213500D01*
X7521786Y-16227786D01*
X7493214Y-16270643D01*
X7478928Y-16327786D01*
X7478928Y-16442071D01*
X7493214Y-16470643D01*
X7507500Y-16484929D01*
X7536071Y-16499214D01*
X7593214Y-16499214D01*
X7621786Y-16484929D01*
X7636071Y-16470643D01*
X7650357Y-16442071D01*
X7650357Y-16370643D01*
X7636071Y-16342071D01*
X7621786Y-16327786D01*
X7593214Y-16313500D01*
X7536071Y-16313500D01*
X7507500Y-16327786D01*
X7493214Y-16342071D01*
X7478928Y-16370643D01*
X7778928Y-16499214D02*
X7778928Y-16299214D01*
X7778928Y-16327786D02*
X7793214Y-16313500D01*
X7821786Y-16299214D01*
X7864643Y-16299214D01*
X7893214Y-16313500D01*
X7907500Y-16342071D01*
X7907500Y-16499214D01*
X7907500Y-16342071D02*
X7921786Y-16313500D01*
X7950357Y-16299214D01*
X7993214Y-16299214D01*
X8021786Y-16313500D01*
X8036071Y-16342071D01*
X8036071Y-16499214D01*
X8178928Y-16499214D02*
X8178928Y-16299214D01*
X8178928Y-16327786D02*
X8193214Y-16313500D01*
X8221786Y-16299214D01*
X8264643Y-16299214D01*
X8293214Y-16313500D01*
X8307500Y-16342071D01*
X8307500Y-16499214D01*
X8307500Y-16342071D02*
X8321786Y-16313500D01*
X8350357Y-16299214D01*
X8393214Y-16299214D01*
X8421786Y-16313500D01*
X8436071Y-16342071D01*
X8436071Y-16499214D01*
X9021786Y-16184929D02*
X8764643Y-16570643D01*
X9407500Y-16199214D02*
X9436071Y-16199214D01*
X9464643Y-16213500D01*
X9478928Y-16227786D01*
X9493214Y-16256357D01*
X9507500Y-16313500D01*
X9507500Y-16384929D01*
X9493214Y-16442071D01*
X9478928Y-16470643D01*
X9464643Y-16484929D01*
X9436071Y-16499214D01*
X9407500Y-16499214D01*
X9378928Y-16484929D01*
X9364643Y-16470643D01*
X9350357Y-16442071D01*
X9336071Y-16384929D01*
X9336071Y-16313500D01*
X9350357Y-16256357D01*
X9364643Y-16227786D01*
X9378928Y-16213500D01*
X9407500Y-16199214D01*
X9636071Y-16470643D02*
X9650357Y-16484929D01*
X9636071Y-16499214D01*
X9621786Y-16484929D01*
X9636071Y-16470643D01*
X9636071Y-16499214D01*
X9836071Y-16199214D02*
X9864643Y-16199214D01*
X9893214Y-16213500D01*
X9907500Y-16227786D01*
X9921786Y-16256357D01*
X9936071Y-16313500D01*
X9936071Y-16384929D01*
X9921786Y-16442071D01*
X9907500Y-16470643D01*
X9893214Y-16484929D01*
X9864643Y-16499214D01*
X9836071Y-16499214D01*
X9807500Y-16484929D01*
X9793214Y-16470643D01*
X9778928Y-16442071D01*
X9764643Y-16384929D01*
X9764643Y-16313500D01*
X9778928Y-16256357D01*
X9793214Y-16227786D01*
X9807500Y-16213500D01*
X9836071Y-16199214D01*
X10036071Y-16199214D02*
X10221786Y-16199214D01*
X10121786Y-16313500D01*
X10164643Y-16313500D01*
X10193214Y-16327786D01*
X10207500Y-16342071D01*
X10221786Y-16370643D01*
X10221786Y-16442071D01*
X10207500Y-16470643D01*
X10193214Y-16484929D01*
X10164643Y-16499214D01*
X10078928Y-16499214D01*
X10050357Y-16484929D01*
X10036071Y-16470643D01*
X10407500Y-16199214D02*
X10436071Y-16199214D01*
X10464643Y-16213500D01*
X10478928Y-16227786D01*
X10493214Y-16256357D01*
X10507500Y-16313500D01*
X10507500Y-16384929D01*
X10493214Y-16442071D01*
X10478928Y-16470643D01*
X10464643Y-16484929D01*
X10436071Y-16499214D01*
X10407500Y-16499214D01*
X10378928Y-16484929D01*
X10364643Y-16470643D01*
X10350357Y-16442071D01*
X10336071Y-16384929D01*
X10336071Y-16313500D01*
X10350357Y-16256357D01*
X10364643Y-16227786D01*
X10378928Y-16213500D01*
X10407500Y-16199214D01*
X10621786Y-16199214D02*
X10621786Y-16256357D01*
X10736071Y-16199214D02*
X10736071Y-16256357D01*
X11178928Y-16613500D02*
X11164643Y-16599214D01*
X11136071Y-16556357D01*
X11121786Y-16527786D01*
X11107500Y-16484929D01*
X11093214Y-16413500D01*
X11093214Y-16356357D01*
X11107500Y-16284929D01*
X11121786Y-16242071D01*
X11136071Y-16213500D01*
X11164643Y-16170643D01*
X11178928Y-16156357D01*
X11264643Y-16199214D02*
X11464643Y-16199214D01*
X11336071Y-16499214D01*
X11721786Y-16199214D02*
X11578928Y-16199214D01*
X11564643Y-16342071D01*
X11578928Y-16327786D01*
X11607500Y-16313500D01*
X11678928Y-16313500D01*
X11707500Y-16327786D01*
X11721786Y-16342071D01*
X11736071Y-16370643D01*
X11736071Y-16442071D01*
X11721786Y-16470643D01*
X11707500Y-16484929D01*
X11678928Y-16499214D01*
X11607500Y-16499214D01*
X11578928Y-16484929D01*
X11564643Y-16470643D01*
X12093214Y-16499214D02*
X12093214Y-16199214D01*
X12221786Y-16499214D02*
X12221786Y-16342071D01*
X12207500Y-16313500D01*
X12178928Y-16299214D01*
X12136071Y-16299214D01*
X12107500Y-16313500D01*
X12093214Y-16327786D01*
X12407500Y-16499214D02*
X12378928Y-16484929D01*
X12364643Y-16470643D01*
X12350357Y-16442071D01*
X12350357Y-16356357D01*
X12364643Y-16327786D01*
X12378928Y-16313500D01*
X12407500Y-16299214D01*
X12450357Y-16299214D01*
X12478928Y-16313500D01*
X12493214Y-16327786D01*
X12507500Y-16356357D01*
X12507500Y-16442071D01*
X12493214Y-16470643D01*
X12478928Y-16484929D01*
X12450357Y-16499214D01*
X12407500Y-16499214D01*
X12678928Y-16499214D02*
X12650357Y-16484929D01*
X12636071Y-16456357D01*
X12636071Y-16199214D01*
X12907500Y-16484929D02*
X12878928Y-16499214D01*
X12821786Y-16499214D01*
X12793214Y-16484929D01*
X12778928Y-16456357D01*
X12778928Y-16342071D01*
X12793214Y-16313500D01*
X12821786Y-16299214D01*
X12878928Y-16299214D01*
X12907500Y-16313500D01*
X12921786Y-16342071D01*
X12921786Y-16370643D01*
X12778928Y-16399214D01*
X13036071Y-16484929D02*
X13064643Y-16499214D01*
X13121786Y-16499214D01*
X13150357Y-16484929D01*
X13164643Y-16456357D01*
X13164643Y-16442071D01*
X13150357Y-16413500D01*
X13121786Y-16399214D01*
X13078928Y-16399214D01*
X13050357Y-16384929D01*
X13036071Y-16356357D01*
X13036071Y-16342071D01*
X13050357Y-16313500D01*
X13078928Y-16299214D01*
X13121786Y-16299214D01*
X13150357Y-16313500D01*
X13264643Y-16613500D02*
X13278928Y-16599214D01*
X13307500Y-16556357D01*
X13321786Y-16527786D01*
X13336071Y-16484929D01*
X13350357Y-16413500D01*
X13350357Y-16356357D01*
X13336071Y-16284929D01*
X13321786Y-16242071D01*
X13307500Y-16213500D01*
X13278928Y-16170643D01*
X13264643Y-16156357D01*
X6452500Y-16719500D02*
X6452500Y-16799500D01*
X6412500Y-16759500D02*
X6492500Y-16759500D01*
X6836071Y-16595214D02*
X6864643Y-16595214D01*
X6893214Y-16609500D01*
X6907500Y-16623786D01*
X6921786Y-16652357D01*
X6936071Y-16709500D01*
X6936071Y-16780929D01*
X6921786Y-16838072D01*
X6907500Y-16866643D01*
X6893214Y-16880929D01*
X6864643Y-16895214D01*
X6836071Y-16895214D01*
X6807500Y-16880929D01*
X6793214Y-16866643D01*
X6778928Y-16838072D01*
X6764643Y-16780929D01*
X6764643Y-16709500D01*
X6778928Y-16652357D01*
X6793214Y-16623786D01*
X6807500Y-16609500D01*
X6836071Y-16595214D01*
X7064643Y-16866643D02*
X7078928Y-16880929D01*
X7064643Y-16895214D01*
X7050357Y-16880929D01*
X7064643Y-16866643D01*
X7064643Y-16895214D01*
X7250357Y-16723786D02*
X7221786Y-16709500D01*
X7207500Y-16695214D01*
X7193214Y-16666643D01*
X7193214Y-16652357D01*
X7207500Y-16623786D01*
X7221786Y-16609500D01*
X7250357Y-16595214D01*
X7307500Y-16595214D01*
X7336071Y-16609500D01*
X7350357Y-16623786D01*
X7364643Y-16652357D01*
X7364643Y-16666643D01*
X7350357Y-16695214D01*
X7336071Y-16709500D01*
X7307500Y-16723786D01*
X7250357Y-16723786D01*
X7221786Y-16738071D01*
X7207500Y-16752357D01*
X7193214Y-16780929D01*
X7193214Y-16838072D01*
X7207500Y-16866643D01*
X7221786Y-16880929D01*
X7250357Y-16895214D01*
X7307500Y-16895214D01*
X7336071Y-16880929D01*
X7350357Y-16866643D01*
X7364643Y-16838072D01*
X7364643Y-16780929D01*
X7350357Y-16752357D01*
X7336071Y-16738071D01*
X7307500Y-16723786D01*
X7550357Y-16595214D02*
X7578928Y-16595214D01*
X7607500Y-16609500D01*
X7621786Y-16623786D01*
X7636071Y-16652357D01*
X7650357Y-16709500D01*
X7650357Y-16780929D01*
X7636071Y-16838072D01*
X7621786Y-16866643D01*
X7607500Y-16880929D01*
X7578928Y-16895214D01*
X7550357Y-16895214D01*
X7521786Y-16880929D01*
X7507500Y-16866643D01*
X7493214Y-16838072D01*
X7478928Y-16780929D01*
X7478928Y-16709500D01*
X7493214Y-16652357D01*
X7507500Y-16623786D01*
X7521786Y-16609500D01*
X7550357Y-16595214D01*
X7778928Y-16895214D02*
X7778928Y-16695214D01*
X7778928Y-16723786D02*
X7793214Y-16709500D01*
X7821786Y-16695214D01*
X7864643Y-16695214D01*
X7893214Y-16709500D01*
X7907500Y-16738071D01*
X7907500Y-16895214D01*
X7907500Y-16738071D02*
X7921786Y-16709500D01*
X7950357Y-16695214D01*
X7993214Y-16695214D01*
X8021786Y-16709500D01*
X8036071Y-16738071D01*
X8036071Y-16895214D01*
X8178928Y-16895214D02*
X8178928Y-16695214D01*
X8178928Y-16723786D02*
X8193214Y-16709500D01*
X8221786Y-16695214D01*
X8264643Y-16695214D01*
X8293214Y-16709500D01*
X8307500Y-16738071D01*
X8307500Y-16895214D01*
X8307500Y-16738071D02*
X8321786Y-16709500D01*
X8350357Y-16695214D01*
X8393214Y-16695214D01*
X8421786Y-16709500D01*
X8436071Y-16738071D01*
X8436071Y-16895214D01*
X9021786Y-16580929D02*
X8764643Y-16966643D01*
X9407500Y-16595214D02*
X9436071Y-16595214D01*
X9464643Y-16609500D01*
X9478928Y-16623786D01*
X9493214Y-16652357D01*
X9507500Y-16709500D01*
X9507500Y-16780929D01*
X9493214Y-16838072D01*
X9478928Y-16866643D01*
X9464643Y-16880929D01*
X9436071Y-16895214D01*
X9407500Y-16895214D01*
X9378928Y-16880929D01*
X9364643Y-16866643D01*
X9350357Y-16838072D01*
X9336071Y-16780929D01*
X9336071Y-16709500D01*
X9350357Y-16652357D01*
X9364643Y-16623786D01*
X9378928Y-16609500D01*
X9407500Y-16595214D01*
X9636071Y-16866643D02*
X9650357Y-16880929D01*
X9636071Y-16895214D01*
X9621786Y-16880929D01*
X9636071Y-16866643D01*
X9636071Y-16895214D01*
X9836071Y-16595214D02*
X9864643Y-16595214D01*
X9893214Y-16609500D01*
X9907500Y-16623786D01*
X9921786Y-16652357D01*
X9936071Y-16709500D01*
X9936071Y-16780929D01*
X9921786Y-16838072D01*
X9907500Y-16866643D01*
X9893214Y-16880929D01*
X9864643Y-16895214D01*
X9836071Y-16895214D01*
X9807500Y-16880929D01*
X9793214Y-16866643D01*
X9778928Y-16838072D01*
X9764643Y-16780929D01*
X9764643Y-16709500D01*
X9778928Y-16652357D01*
X9793214Y-16623786D01*
X9807500Y-16609500D01*
X9836071Y-16595214D01*
X10036071Y-16595214D02*
X10221786Y-16595214D01*
X10121786Y-16709500D01*
X10164643Y-16709500D01*
X10193214Y-16723786D01*
X10207500Y-16738071D01*
X10221786Y-16766643D01*
X10221786Y-16838072D01*
X10207500Y-16866643D01*
X10193214Y-16880929D01*
X10164643Y-16895214D01*
X10078928Y-16895214D01*
X10050357Y-16880929D01*
X10036071Y-16866643D01*
X10507500Y-16895214D02*
X10336071Y-16895214D01*
X10421786Y-16895214D02*
X10421786Y-16595214D01*
X10393214Y-16638071D01*
X10364643Y-16666643D01*
X10336071Y-16680929D01*
X10621786Y-16595214D02*
X10621786Y-16652357D01*
X10736071Y-16595214D02*
X10736071Y-16652357D01*
X11178928Y-17009500D02*
X11164643Y-16995214D01*
X11136071Y-16952357D01*
X11121786Y-16923786D01*
X11107500Y-16880929D01*
X11093214Y-16809500D01*
X11093214Y-16752357D01*
X11107500Y-16680929D01*
X11121786Y-16638071D01*
X11136071Y-16609500D01*
X11164643Y-16566643D01*
X11178928Y-16552357D01*
X11336071Y-16723786D02*
X11307500Y-16709500D01*
X11293214Y-16695214D01*
X11278928Y-16666643D01*
X11278928Y-16652357D01*
X11293214Y-16623786D01*
X11307500Y-16609500D01*
X11336071Y-16595214D01*
X11393214Y-16595214D01*
X11421786Y-16609500D01*
X11436071Y-16623786D01*
X11450357Y-16652357D01*
X11450357Y-16666643D01*
X11436071Y-16695214D01*
X11421786Y-16709500D01*
X11393214Y-16723786D01*
X11336071Y-16723786D01*
X11307500Y-16738071D01*
X11293214Y-16752357D01*
X11278928Y-16780929D01*
X11278928Y-16838072D01*
X11293214Y-16866643D01*
X11307500Y-16880929D01*
X11336071Y-16895214D01*
X11393214Y-16895214D01*
X11421786Y-16880929D01*
X11436071Y-16866643D01*
X11450357Y-16838072D01*
X11450357Y-16780929D01*
X11436071Y-16752357D01*
X11421786Y-16738071D01*
X11393214Y-16723786D01*
X11807500Y-16895214D02*
X11807500Y-16595214D01*
X11936071Y-16895214D02*
X11936071Y-16738071D01*
X11921786Y-16709500D01*
X11893214Y-16695214D01*
X11850357Y-16695214D01*
X11821786Y-16709500D01*
X11807500Y-16723786D01*
X12121786Y-16895214D02*
X12093214Y-16880929D01*
X12078928Y-16866643D01*
X12064643Y-16838072D01*
X12064643Y-16752357D01*
X12078928Y-16723786D01*
X12093214Y-16709500D01*
X12121786Y-16695214D01*
X12164643Y-16695214D01*
X12193214Y-16709500D01*
X12207500Y-16723786D01*
X12221786Y-16752357D01*
X12221786Y-16838072D01*
X12207500Y-16866643D01*
X12193214Y-16880929D01*
X12164643Y-16895214D01*
X12121786Y-16895214D01*
X12393214Y-16895214D02*
X12364643Y-16880929D01*
X12350357Y-16852357D01*
X12350357Y-16595214D01*
X12621786Y-16880929D02*
X12593214Y-16895214D01*
X12536071Y-16895214D01*
X12507500Y-16880929D01*
X12493214Y-16852357D01*
X12493214Y-16738071D01*
X12507500Y-16709500D01*
X12536071Y-16695214D01*
X12593214Y-16695214D01*
X12621786Y-16709500D01*
X12636071Y-16738071D01*
X12636071Y-16766643D01*
X12493214Y-16795214D01*
X12750357Y-16880929D02*
X12778928Y-16895214D01*
X12836071Y-16895214D01*
X12864643Y-16880929D01*
X12878928Y-16852357D01*
X12878928Y-16838072D01*
X12864643Y-16809500D01*
X12836071Y-16795214D01*
X12793214Y-16795214D01*
X12764643Y-16780929D01*
X12750357Y-16752357D01*
X12750357Y-16738071D01*
X12764643Y-16709500D01*
X12793214Y-16695214D01*
X12836071Y-16695214D01*
X12864643Y-16709500D01*
X12978928Y-17009500D02*
X12993214Y-16995214D01*
X13021786Y-16952357D01*
X13036071Y-16923786D01*
X13050357Y-16880929D01*
X13064643Y-16809500D01*
X13064643Y-16752357D01*
X13050357Y-16680929D01*
X13036071Y-16638071D01*
X13021786Y-16609500D01*
X12993214Y-16566643D01*
X12978928Y-16552357D01*
X6480783Y-17183788D02*
X6480783Y-17127212D01*
X6424207Y-17127212D01*
X6424207Y-17183788D01*
X6480783Y-17183788D01*
X6836071Y-16991214D02*
X6864643Y-16991214D01*
X6893214Y-17005500D01*
X6907500Y-17019786D01*
X6921786Y-17048357D01*
X6936071Y-17105500D01*
X6936071Y-17176929D01*
X6921786Y-17234072D01*
X6907500Y-17262643D01*
X6893214Y-17276929D01*
X6864643Y-17291214D01*
X6836071Y-17291214D01*
X6807500Y-17276929D01*
X6793214Y-17262643D01*
X6778928Y-17234072D01*
X6764643Y-17176929D01*
X6764643Y-17105500D01*
X6778928Y-17048357D01*
X6793214Y-17019786D01*
X6807500Y-17005500D01*
X6836071Y-16991214D01*
X7064643Y-17262643D02*
X7078928Y-17276929D01*
X7064643Y-17291214D01*
X7050357Y-17276929D01*
X7064643Y-17262643D01*
X7064643Y-17291214D01*
X7250357Y-17119786D02*
X7221786Y-17105500D01*
X7207500Y-17091214D01*
X7193214Y-17062643D01*
X7193214Y-17048357D01*
X7207500Y-17019786D01*
X7221786Y-17005500D01*
X7250357Y-16991214D01*
X7307500Y-16991214D01*
X7336071Y-17005500D01*
X7350357Y-17019786D01*
X7364643Y-17048357D01*
X7364643Y-17062643D01*
X7350357Y-17091214D01*
X7336071Y-17105500D01*
X7307500Y-17119786D01*
X7250357Y-17119786D01*
X7221786Y-17134072D01*
X7207500Y-17148357D01*
X7193214Y-17176929D01*
X7193214Y-17234072D01*
X7207500Y-17262643D01*
X7221786Y-17276929D01*
X7250357Y-17291214D01*
X7307500Y-17291214D01*
X7336071Y-17276929D01*
X7350357Y-17262643D01*
X7364643Y-17234072D01*
X7364643Y-17176929D01*
X7350357Y-17148357D01*
X7336071Y-17134072D01*
X7307500Y-17119786D01*
X7550357Y-16991214D02*
X7578928Y-16991214D01*
X7607500Y-17005500D01*
X7621786Y-17019786D01*
X7636071Y-17048357D01*
X7650357Y-17105500D01*
X7650357Y-17176929D01*
X7636071Y-17234072D01*
X7621786Y-17262643D01*
X7607500Y-17276929D01*
X7578928Y-17291214D01*
X7550357Y-17291214D01*
X7521786Y-17276929D01*
X7507500Y-17262643D01*
X7493214Y-17234072D01*
X7478928Y-17176929D01*
X7478928Y-17105500D01*
X7493214Y-17048357D01*
X7507500Y-17019786D01*
X7521786Y-17005500D01*
X7550357Y-16991214D01*
X7778928Y-17291214D02*
X7778928Y-17091214D01*
X7778928Y-17119786D02*
X7793214Y-17105500D01*
X7821786Y-17091214D01*
X7864643Y-17091214D01*
X7893214Y-17105500D01*
X7907500Y-17134072D01*
X7907500Y-17291214D01*
X7907500Y-17134072D02*
X7921786Y-17105500D01*
X7950357Y-17091214D01*
X7993214Y-17091214D01*
X8021786Y-17105500D01*
X8036071Y-17134072D01*
X8036071Y-17291214D01*
X8178928Y-17291214D02*
X8178928Y-17091214D01*
X8178928Y-17119786D02*
X8193214Y-17105500D01*
X8221786Y-17091214D01*
X8264643Y-17091214D01*
X8293214Y-17105500D01*
X8307500Y-17134072D01*
X8307500Y-17291214D01*
X8307500Y-17134072D02*
X8321786Y-17105500D01*
X8350357Y-17091214D01*
X8393214Y-17091214D01*
X8421786Y-17105500D01*
X8436071Y-17134072D01*
X8436071Y-17291214D01*
X9021786Y-16976929D02*
X8764643Y-17362643D01*
X9407500Y-16991214D02*
X9436071Y-16991214D01*
X9464643Y-17005500D01*
X9478928Y-17019786D01*
X9493214Y-17048357D01*
X9507500Y-17105500D01*
X9507500Y-17176929D01*
X9493214Y-17234072D01*
X9478928Y-17262643D01*
X9464643Y-17276929D01*
X9436071Y-17291214D01*
X9407500Y-17291214D01*
X9378928Y-17276929D01*
X9364643Y-17262643D01*
X9350357Y-17234072D01*
X9336071Y-17176929D01*
X9336071Y-17105500D01*
X9350357Y-17048357D01*
X9364643Y-17019786D01*
X9378928Y-17005500D01*
X9407500Y-16991214D01*
X9636071Y-17262643D02*
X9650357Y-17276929D01*
X9636071Y-17291214D01*
X9621786Y-17276929D01*
X9636071Y-17262643D01*
X9636071Y-17291214D01*
X9836071Y-16991214D02*
X9864643Y-16991214D01*
X9893214Y-17005500D01*
X9907500Y-17019786D01*
X9921786Y-17048357D01*
X9936071Y-17105500D01*
X9936071Y-17176929D01*
X9921786Y-17234072D01*
X9907500Y-17262643D01*
X9893214Y-17276929D01*
X9864643Y-17291214D01*
X9836071Y-17291214D01*
X9807500Y-17276929D01*
X9793214Y-17262643D01*
X9778928Y-17234072D01*
X9764643Y-17176929D01*
X9764643Y-17105500D01*
X9778928Y-17048357D01*
X9793214Y-17019786D01*
X9807500Y-17005500D01*
X9836071Y-16991214D01*
X10036071Y-16991214D02*
X10221786Y-16991214D01*
X10121786Y-17105500D01*
X10164643Y-17105500D01*
X10193214Y-17119786D01*
X10207500Y-17134072D01*
X10221786Y-17162643D01*
X10221786Y-17234072D01*
X10207500Y-17262643D01*
X10193214Y-17276929D01*
X10164643Y-17291214D01*
X10078928Y-17291214D01*
X10050357Y-17276929D01*
X10036071Y-17262643D01*
X10336071Y-17019786D02*
X10350357Y-17005500D01*
X10378928Y-16991214D01*
X10450357Y-16991214D01*
X10478928Y-17005500D01*
X10493214Y-17019786D01*
X10507500Y-17048357D01*
X10507500Y-17076929D01*
X10493214Y-17119786D01*
X10321786Y-17291214D01*
X10507500Y-17291214D01*
X10621786Y-16991214D02*
X10621786Y-17048357D01*
X10736071Y-16991214D02*
X10736071Y-17048357D01*
X11178928Y-17405500D02*
X11164643Y-17391214D01*
X11136071Y-17348357D01*
X11121786Y-17319786D01*
X11107500Y-17276929D01*
X11093214Y-17205500D01*
X11093214Y-17148357D01*
X11107500Y-17076929D01*
X11121786Y-17034072D01*
X11136071Y-17005500D01*
X11164643Y-16962643D01*
X11178928Y-16948357D01*
X11450357Y-17291214D02*
X11278928Y-17291214D01*
X11364643Y-17291214D02*
X11364643Y-16991214D01*
X11336071Y-17034072D01*
X11307500Y-17062643D01*
X11278928Y-17076929D01*
X11564643Y-17019786D02*
X11578928Y-17005500D01*
X11607500Y-16991214D01*
X11678928Y-16991214D01*
X11707500Y-17005500D01*
X11721786Y-17019786D01*
X11736071Y-17048357D01*
X11736071Y-17076929D01*
X11721786Y-17119786D01*
X11550357Y-17291214D01*
X11736071Y-17291214D01*
X12093214Y-17291214D02*
X12093214Y-16991214D01*
X12221786Y-17291214D02*
X12221786Y-17134072D01*
X12207500Y-17105500D01*
X12178928Y-17091214D01*
X12136071Y-17091214D01*
X12107500Y-17105500D01*
X12093214Y-17119786D01*
X12407500Y-17291214D02*
X12378928Y-17276929D01*
X12364643Y-17262643D01*
X12350357Y-17234072D01*
X12350357Y-17148357D01*
X12364643Y-17119786D01*
X12378928Y-17105500D01*
X12407500Y-17091214D01*
X12450357Y-17091214D01*
X12478928Y-17105500D01*
X12493214Y-17119786D01*
X12507500Y-17148357D01*
X12507500Y-17234072D01*
X12493214Y-17262643D01*
X12478928Y-17276929D01*
X12450357Y-17291214D01*
X12407500Y-17291214D01*
X12678928Y-17291214D02*
X12650357Y-17276929D01*
X12636071Y-17248357D01*
X12636071Y-16991214D01*
X12907500Y-17276929D02*
X12878928Y-17291214D01*
X12821786Y-17291214D01*
X12793214Y-17276929D01*
X12778928Y-17248357D01*
X12778928Y-17134072D01*
X12793214Y-17105500D01*
X12821786Y-17091214D01*
X12878928Y-17091214D01*
X12907500Y-17105500D01*
X12921786Y-17134072D01*
X12921786Y-17162643D01*
X12778928Y-17191214D01*
X13036071Y-17276929D02*
X13064643Y-17291214D01*
X13121786Y-17291214D01*
X13150357Y-17276929D01*
X13164643Y-17248357D01*
X13164643Y-17234072D01*
X13150357Y-17205500D01*
X13121786Y-17191214D01*
X13078928Y-17191214D01*
X13050357Y-17176929D01*
X13036071Y-17148357D01*
X13036071Y-17134072D01*
X13050357Y-17105500D01*
X13078928Y-17091214D01*
X13121786Y-17091214D01*
X13150357Y-17105500D01*
X13264643Y-17405500D02*
X13278928Y-17391214D01*
X13307500Y-17348357D01*
X13321786Y-17319786D01*
X13336071Y-17276929D01*
X13350357Y-17205500D01*
X13350357Y-17148357D01*
X13336071Y-17076929D01*
X13321786Y-17034072D01*
X13307500Y-17005500D01*
X13278928Y-16962643D01*
X13264643Y-16948357D01*
X6445000Y-17599000D02*
X6492500Y-17551500D01*
X6445000Y-17504000D01*
X6397500Y-17551500D01*
X6445000Y-17599000D01*
X6836071Y-17387214D02*
X6864643Y-17387214D01*
X6893214Y-17401500D01*
X6907500Y-17415786D01*
X6921786Y-17444357D01*
X6936071Y-17501500D01*
X6936071Y-17572929D01*
X6921786Y-17630072D01*
X6907500Y-17658643D01*
X6893214Y-17672929D01*
X6864643Y-17687214D01*
X6836071Y-17687214D01*
X6807500Y-17672929D01*
X6793214Y-17658643D01*
X6778928Y-17630072D01*
X6764643Y-17572929D01*
X6764643Y-17501500D01*
X6778928Y-17444357D01*
X6793214Y-17415786D01*
X6807500Y-17401500D01*
X6836071Y-17387214D01*
X7064643Y-17658643D02*
X7078928Y-17672929D01*
X7064643Y-17687214D01*
X7050357Y-17672929D01*
X7064643Y-17658643D01*
X7064643Y-17687214D01*
X7221786Y-17687214D02*
X7278928Y-17687214D01*
X7307500Y-17672929D01*
X7321786Y-17658643D01*
X7350357Y-17615786D01*
X7364643Y-17558643D01*
X7364643Y-17444357D01*
X7350357Y-17415786D01*
X7336071Y-17401500D01*
X7307500Y-17387214D01*
X7250357Y-17387214D01*
X7221786Y-17401500D01*
X7207500Y-17415786D01*
X7193214Y-17444357D01*
X7193214Y-17515786D01*
X7207500Y-17544357D01*
X7221786Y-17558643D01*
X7250357Y-17572929D01*
X7307500Y-17572929D01*
X7336071Y-17558643D01*
X7350357Y-17544357D01*
X7364643Y-17515786D01*
X7636071Y-17387214D02*
X7493214Y-17387214D01*
X7478928Y-17530072D01*
X7493214Y-17515786D01*
X7521786Y-17501500D01*
X7593214Y-17501500D01*
X7621786Y-17515786D01*
X7636071Y-17530072D01*
X7650357Y-17558643D01*
X7650357Y-17630072D01*
X7636071Y-17658643D01*
X7621786Y-17672929D01*
X7593214Y-17687214D01*
X7521786Y-17687214D01*
X7493214Y-17672929D01*
X7478928Y-17658643D01*
X7778928Y-17687214D02*
X7778928Y-17487214D01*
X7778928Y-17515786D02*
X7793214Y-17501500D01*
X7821786Y-17487214D01*
X7864643Y-17487214D01*
X7893214Y-17501500D01*
X7907500Y-17530072D01*
X7907500Y-17687214D01*
X7907500Y-17530072D02*
X7921786Y-17501500D01*
X7950357Y-17487214D01*
X7993214Y-17487214D01*
X8021786Y-17501500D01*
X8036071Y-17530072D01*
X8036071Y-17687214D01*
X8178928Y-17687214D02*
X8178928Y-17487214D01*
X8178928Y-17515786D02*
X8193214Y-17501500D01*
X8221786Y-17487214D01*
X8264643Y-17487214D01*
X8293214Y-17501500D01*
X8307500Y-17530072D01*
X8307500Y-17687214D01*
X8307500Y-17530072D02*
X8321786Y-17501500D01*
X8350357Y-17487214D01*
X8393214Y-17487214D01*
X8421786Y-17501500D01*
X8436071Y-17530072D01*
X8436071Y-17687214D01*
X9021786Y-17372929D02*
X8764643Y-17758643D01*
X9407500Y-17387214D02*
X9436071Y-17387214D01*
X9464643Y-17401500D01*
X9478928Y-17415786D01*
X9493214Y-17444357D01*
X9507500Y-17501500D01*
X9507500Y-17572929D01*
X9493214Y-17630072D01*
X9478928Y-17658643D01*
X9464643Y-17672929D01*
X9436071Y-17687214D01*
X9407500Y-17687214D01*
X9378928Y-17672929D01*
X9364643Y-17658643D01*
X9350357Y-17630072D01*
X9336071Y-17572929D01*
X9336071Y-17501500D01*
X9350357Y-17444357D01*
X9364643Y-17415786D01*
X9378928Y-17401500D01*
X9407500Y-17387214D01*
X9636071Y-17658643D02*
X9650357Y-17672929D01*
X9636071Y-17687214D01*
X9621786Y-17672929D01*
X9636071Y-17658643D01*
X9636071Y-17687214D01*
X9836071Y-17387214D02*
X9864643Y-17387214D01*
X9893214Y-17401500D01*
X9907500Y-17415786D01*
X9921786Y-17444357D01*
X9936071Y-17501500D01*
X9936071Y-17572929D01*
X9921786Y-17630072D01*
X9907500Y-17658643D01*
X9893214Y-17672929D01*
X9864643Y-17687214D01*
X9836071Y-17687214D01*
X9807500Y-17672929D01*
X9793214Y-17658643D01*
X9778928Y-17630072D01*
X9764643Y-17572929D01*
X9764643Y-17501500D01*
X9778928Y-17444357D01*
X9793214Y-17415786D01*
X9807500Y-17401500D01*
X9836071Y-17387214D01*
X10036071Y-17387214D02*
X10221786Y-17387214D01*
X10121786Y-17501500D01*
X10164643Y-17501500D01*
X10193214Y-17515786D01*
X10207500Y-17530072D01*
X10221786Y-17558643D01*
X10221786Y-17630072D01*
X10207500Y-17658643D01*
X10193214Y-17672929D01*
X10164643Y-17687214D01*
X10078928Y-17687214D01*
X10050357Y-17672929D01*
X10036071Y-17658643D01*
X10321786Y-17387214D02*
X10521786Y-17387214D01*
X10393214Y-17687214D01*
X10621786Y-17387214D02*
X10621786Y-17444357D01*
X10736071Y-17387214D02*
X10736071Y-17444357D01*
X11178928Y-17801500D02*
X11164643Y-17787214D01*
X11136071Y-17744357D01*
X11121786Y-17715786D01*
X11107500Y-17672929D01*
X11093214Y-17601500D01*
X11093214Y-17544357D01*
X11107500Y-17472929D01*
X11121786Y-17430072D01*
X11136071Y-17401500D01*
X11164643Y-17358643D01*
X11178928Y-17344357D01*
X11450357Y-17687214D02*
X11278928Y-17687214D01*
X11364643Y-17687214D02*
X11364643Y-17387214D01*
X11336071Y-17430072D01*
X11307500Y-17458643D01*
X11278928Y-17472929D01*
X11707500Y-17487214D02*
X11707500Y-17687214D01*
X11636071Y-17372929D02*
X11564643Y-17587214D01*
X11750357Y-17587214D01*
X12093214Y-17687214D02*
X12093214Y-17387214D01*
X12221786Y-17687214D02*
X12221786Y-17530072D01*
X12207500Y-17501500D01*
X12178928Y-17487214D01*
X12136071Y-17487214D01*
X12107500Y-17501500D01*
X12093214Y-17515786D01*
X12407500Y-17687214D02*
X12378928Y-17672929D01*
X12364643Y-17658643D01*
X12350357Y-17630072D01*
X12350357Y-17544357D01*
X12364643Y-17515786D01*
X12378928Y-17501500D01*
X12407500Y-17487214D01*
X12450357Y-17487214D01*
X12478928Y-17501500D01*
X12493214Y-17515786D01*
X12507500Y-17544357D01*
X12507500Y-17630072D01*
X12493214Y-17658643D01*
X12478928Y-17672929D01*
X12450357Y-17687214D01*
X12407500Y-17687214D01*
X12678928Y-17687214D02*
X12650357Y-17672929D01*
X12636071Y-17644357D01*
X12636071Y-17387214D01*
X12907500Y-17672929D02*
X12878928Y-17687214D01*
X12821786Y-17687214D01*
X12793214Y-17672929D01*
X12778928Y-17644357D01*
X12778928Y-17530072D01*
X12793214Y-17501500D01*
X12821786Y-17487214D01*
X12878928Y-17487214D01*
X12907500Y-17501500D01*
X12921786Y-17530072D01*
X12921786Y-17558643D01*
X12778928Y-17587214D01*
X13036071Y-17672929D02*
X13064643Y-17687214D01*
X13121786Y-17687214D01*
X13150357Y-17672929D01*
X13164643Y-17644357D01*
X13164643Y-17630072D01*
X13150357Y-17601500D01*
X13121786Y-17587214D01*
X13078928Y-17587214D01*
X13050357Y-17572929D01*
X13036071Y-17544357D01*
X13036071Y-17530072D01*
X13050357Y-17501500D01*
X13078928Y-17487214D01*
X13121786Y-17487214D01*
X13150357Y-17501500D01*
X13264643Y-17801500D02*
X13278928Y-17787214D01*
X13307500Y-17744357D01*
X13321786Y-17715786D01*
X13336071Y-17672929D01*
X13350357Y-17601500D01*
X13350357Y-17544357D01*
X13336071Y-17472929D01*
X13321786Y-17430072D01*
X13307500Y-17401500D01*
X13278928Y-17358643D01*
X13264643Y-17344357D01*
X6392500Y-17897500D02*
X6492500Y-17997500D01*
X6492500Y-17897500D02*
X6392500Y-17997500D01*
X6492500Y-17947500D02*
G75*
G03X6492500Y-17947500I-50000J0D01*
G01*
X6936071Y-18083214D02*
X6764643Y-18083214D01*
X6850357Y-18083214D02*
X6850357Y-17783214D01*
X6821786Y-17826072D01*
X6793214Y-17854643D01*
X6764643Y-17868929D01*
X7064643Y-18054643D02*
X7078928Y-18068929D01*
X7064643Y-18083214D01*
X7050357Y-18068929D01*
X7064643Y-18054643D01*
X7064643Y-18083214D01*
X7264643Y-17783214D02*
X7293214Y-17783214D01*
X7321786Y-17797500D01*
X7336071Y-17811786D01*
X7350357Y-17840357D01*
X7364643Y-17897500D01*
X7364643Y-17968929D01*
X7350357Y-18026072D01*
X7336071Y-18054643D01*
X7321786Y-18068929D01*
X7293214Y-18083214D01*
X7264643Y-18083214D01*
X7236071Y-18068929D01*
X7221786Y-18054643D01*
X7207500Y-18026072D01*
X7193214Y-17968929D01*
X7193214Y-17897500D01*
X7207500Y-17840357D01*
X7221786Y-17811786D01*
X7236071Y-17797500D01*
X7264643Y-17783214D01*
X7550357Y-17783214D02*
X7578928Y-17783214D01*
X7607500Y-17797500D01*
X7621786Y-17811786D01*
X7636071Y-17840357D01*
X7650357Y-17897500D01*
X7650357Y-17968929D01*
X7636071Y-18026072D01*
X7621786Y-18054643D01*
X7607500Y-18068929D01*
X7578928Y-18083214D01*
X7550357Y-18083214D01*
X7521786Y-18068929D01*
X7507500Y-18054643D01*
X7493214Y-18026072D01*
X7478928Y-17968929D01*
X7478928Y-17897500D01*
X7493214Y-17840357D01*
X7507500Y-17811786D01*
X7521786Y-17797500D01*
X7550357Y-17783214D01*
X7778928Y-18083214D02*
X7778928Y-17883214D01*
X7778928Y-17911786D02*
X7793214Y-17897500D01*
X7821786Y-17883214D01*
X7864643Y-17883214D01*
X7893214Y-17897500D01*
X7907500Y-17926072D01*
X7907500Y-18083214D01*
X7907500Y-17926072D02*
X7921786Y-17897500D01*
X7950357Y-17883214D01*
X7993214Y-17883214D01*
X8021786Y-17897500D01*
X8036071Y-17926072D01*
X8036071Y-18083214D01*
X8178928Y-18083214D02*
X8178928Y-17883214D01*
X8178928Y-17911786D02*
X8193214Y-17897500D01*
X8221786Y-17883214D01*
X8264643Y-17883214D01*
X8293214Y-17897500D01*
X8307500Y-17926072D01*
X8307500Y-18083214D01*
X8307500Y-17926072D02*
X8321786Y-17897500D01*
X8350357Y-17883214D01*
X8393214Y-17883214D01*
X8421786Y-17897500D01*
X8436071Y-17926072D01*
X8436071Y-18083214D01*
X9021786Y-17768929D02*
X8764643Y-18154643D01*
X9407500Y-17783214D02*
X9436071Y-17783214D01*
X9464643Y-17797500D01*
X9478928Y-17811786D01*
X9493214Y-17840357D01*
X9507500Y-17897500D01*
X9507500Y-17968929D01*
X9493214Y-18026072D01*
X9478928Y-18054643D01*
X9464643Y-18068929D01*
X9436071Y-18083214D01*
X9407500Y-18083214D01*
X9378928Y-18068929D01*
X9364643Y-18054643D01*
X9350357Y-18026072D01*
X9336071Y-17968929D01*
X9336071Y-17897500D01*
X9350357Y-17840357D01*
X9364643Y-17811786D01*
X9378928Y-17797500D01*
X9407500Y-17783214D01*
X9636071Y-18054643D02*
X9650357Y-18068929D01*
X9636071Y-18083214D01*
X9621786Y-18068929D01*
X9636071Y-18054643D01*
X9636071Y-18083214D01*
X9836071Y-17783214D02*
X9864643Y-17783214D01*
X9893214Y-17797500D01*
X9907500Y-17811786D01*
X9921786Y-17840357D01*
X9936071Y-17897500D01*
X9936071Y-17968929D01*
X9921786Y-18026072D01*
X9907500Y-18054643D01*
X9893214Y-18068929D01*
X9864643Y-18083214D01*
X9836071Y-18083214D01*
X9807500Y-18068929D01*
X9793214Y-18054643D01*
X9778928Y-18026072D01*
X9764643Y-17968929D01*
X9764643Y-17897500D01*
X9778928Y-17840357D01*
X9793214Y-17811786D01*
X9807500Y-17797500D01*
X9836071Y-17783214D01*
X10036071Y-17783214D02*
X10221786Y-17783214D01*
X10121786Y-17897500D01*
X10164643Y-17897500D01*
X10193214Y-17911786D01*
X10207500Y-17926072D01*
X10221786Y-17954643D01*
X10221786Y-18026072D01*
X10207500Y-18054643D01*
X10193214Y-18068929D01*
X10164643Y-18083214D01*
X10078928Y-18083214D01*
X10050357Y-18068929D01*
X10036071Y-18054643D01*
X10364643Y-18083214D02*
X10421786Y-18083214D01*
X10450357Y-18068929D01*
X10464643Y-18054643D01*
X10493214Y-18011786D01*
X10507500Y-17954643D01*
X10507500Y-17840357D01*
X10493214Y-17811786D01*
X10478928Y-17797500D01*
X10450357Y-17783214D01*
X10393214Y-17783214D01*
X10364643Y-17797500D01*
X10350357Y-17811786D01*
X10336071Y-17840357D01*
X10336071Y-17911786D01*
X10350357Y-17940357D01*
X10364643Y-17954643D01*
X10393214Y-17968929D01*
X10450357Y-17968929D01*
X10478928Y-17954643D01*
X10493214Y-17940357D01*
X10507500Y-17911786D01*
X10621786Y-17783214D02*
X10621786Y-17840357D01*
X10736071Y-17783214D02*
X10736071Y-17840357D01*
X11178928Y-18197500D02*
X11164643Y-18183214D01*
X11136071Y-18140357D01*
X11121786Y-18111786D01*
X11107500Y-18068929D01*
X11093214Y-17997500D01*
X11093214Y-17940357D01*
X11107500Y-17868929D01*
X11121786Y-17826072D01*
X11136071Y-17797500D01*
X11164643Y-17754643D01*
X11178928Y-17740357D01*
X11307500Y-18083214D02*
X11364643Y-18083214D01*
X11393214Y-18068929D01*
X11407500Y-18054643D01*
X11436071Y-18011786D01*
X11450357Y-17954643D01*
X11450357Y-17840357D01*
X11436071Y-17811786D01*
X11421786Y-17797500D01*
X11393214Y-17783214D01*
X11336071Y-17783214D01*
X11307500Y-17797500D01*
X11293214Y-17811786D01*
X11278928Y-17840357D01*
X11278928Y-17911786D01*
X11293214Y-17940357D01*
X11307500Y-17954643D01*
X11336071Y-17968929D01*
X11393214Y-17968929D01*
X11421786Y-17954643D01*
X11436071Y-17940357D01*
X11450357Y-17911786D01*
X11550357Y-17783214D02*
X11750357Y-17783214D01*
X11621786Y-18083214D01*
X12093214Y-18083214D02*
X12093214Y-17783214D01*
X12221786Y-18083214D02*
X12221786Y-17926072D01*
X12207500Y-17897500D01*
X12178928Y-17883214D01*
X12136071Y-17883214D01*
X12107500Y-17897500D01*
X12093214Y-17911786D01*
X12407500Y-18083214D02*
X12378928Y-18068929D01*
X12364643Y-18054643D01*
X12350357Y-18026072D01*
X12350357Y-17940357D01*
X12364643Y-17911786D01*
X12378928Y-17897500D01*
X12407500Y-17883214D01*
X12450357Y-17883214D01*
X12478928Y-17897500D01*
X12493214Y-17911786D01*
X12507500Y-17940357D01*
X12507500Y-18026072D01*
X12493214Y-18054643D01*
X12478928Y-18068929D01*
X12450357Y-18083214D01*
X12407500Y-18083214D01*
X12678928Y-18083214D02*
X12650357Y-18068929D01*
X12636071Y-18040357D01*
X12636071Y-17783214D01*
X12907500Y-18068929D02*
X12878928Y-18083214D01*
X12821786Y-18083214D01*
X12793214Y-18068929D01*
X12778928Y-18040357D01*
X12778928Y-17926072D01*
X12793214Y-17897500D01*
X12821786Y-17883214D01*
X12878928Y-17883214D01*
X12907500Y-17897500D01*
X12921786Y-17926072D01*
X12921786Y-17954643D01*
X12778928Y-17983214D01*
X13036071Y-18068929D02*
X13064643Y-18083214D01*
X13121786Y-18083214D01*
X13150357Y-18068929D01*
X13164643Y-18040357D01*
X13164643Y-18026072D01*
X13150357Y-17997500D01*
X13121786Y-17983214D01*
X13078928Y-17983214D01*
X13050357Y-17968929D01*
X13036071Y-17940357D01*
X13036071Y-17926072D01*
X13050357Y-17897500D01*
X13078928Y-17883214D01*
X13121786Y-17883214D01*
X13150357Y-17897500D01*
X13264643Y-18197500D02*
X13278928Y-18183214D01*
X13307500Y-18140357D01*
X13321786Y-18111786D01*
X13336071Y-18068929D01*
X13350357Y-17997500D01*
X13350357Y-17940357D01*
X13336071Y-17868929D01*
X13321786Y-17826072D01*
X13307500Y-17797500D01*
X13278928Y-17754643D01*
X13264643Y-17740357D01*
X6392424Y-18293462D02*
X6492500Y-18393538D01*
X6492500Y-18293462D02*
X6392424Y-18393538D01*
X6442462Y-18293462D02*
X6442462Y-18393538D01*
X6392424Y-18343500D02*
X6492500Y-18343500D01*
X6936071Y-18479214D02*
X6764643Y-18479214D01*
X6850357Y-18479214D02*
X6850357Y-18179214D01*
X6821786Y-18222072D01*
X6793214Y-18250643D01*
X6764643Y-18264929D01*
X7064643Y-18450643D02*
X7078928Y-18464929D01*
X7064643Y-18479214D01*
X7050357Y-18464929D01*
X7064643Y-18450643D01*
X7064643Y-18479214D01*
X7264643Y-18179214D02*
X7293214Y-18179214D01*
X7321786Y-18193500D01*
X7336071Y-18207786D01*
X7350357Y-18236357D01*
X7364643Y-18293500D01*
X7364643Y-18364929D01*
X7350357Y-18422072D01*
X7336071Y-18450643D01*
X7321786Y-18464929D01*
X7293214Y-18479214D01*
X7264643Y-18479214D01*
X7236071Y-18464929D01*
X7221786Y-18450643D01*
X7207500Y-18422072D01*
X7193214Y-18364929D01*
X7193214Y-18293500D01*
X7207500Y-18236357D01*
X7221786Y-18207786D01*
X7236071Y-18193500D01*
X7264643Y-18179214D01*
X7550357Y-18179214D02*
X7578928Y-18179214D01*
X7607500Y-18193500D01*
X7621786Y-18207786D01*
X7636071Y-18236357D01*
X7650357Y-18293500D01*
X7650357Y-18364929D01*
X7636071Y-18422072D01*
X7621786Y-18450643D01*
X7607500Y-18464929D01*
X7578928Y-18479214D01*
X7550357Y-18479214D01*
X7521786Y-18464929D01*
X7507500Y-18450643D01*
X7493214Y-18422072D01*
X7478928Y-18364929D01*
X7478928Y-18293500D01*
X7493214Y-18236357D01*
X7507500Y-18207786D01*
X7521786Y-18193500D01*
X7550357Y-18179214D01*
X7778928Y-18479214D02*
X7778928Y-18279214D01*
X7778928Y-18307786D02*
X7793214Y-18293500D01*
X7821786Y-18279214D01*
X7864643Y-18279214D01*
X7893214Y-18293500D01*
X7907500Y-18322072D01*
X7907500Y-18479214D01*
X7907500Y-18322072D02*
X7921786Y-18293500D01*
X7950357Y-18279214D01*
X7993214Y-18279214D01*
X8021786Y-18293500D01*
X8036071Y-18322072D01*
X8036071Y-18479214D01*
X8178928Y-18479214D02*
X8178928Y-18279214D01*
X8178928Y-18307786D02*
X8193214Y-18293500D01*
X8221786Y-18279214D01*
X8264643Y-18279214D01*
X8293214Y-18293500D01*
X8307500Y-18322072D01*
X8307500Y-18479214D01*
X8307500Y-18322072D02*
X8321786Y-18293500D01*
X8350357Y-18279214D01*
X8393214Y-18279214D01*
X8421786Y-18293500D01*
X8436071Y-18322072D01*
X8436071Y-18479214D01*
X9021786Y-18164929D02*
X8764643Y-18550643D01*
X9407500Y-18179214D02*
X9436071Y-18179214D01*
X9464643Y-18193500D01*
X9478928Y-18207786D01*
X9493214Y-18236357D01*
X9507500Y-18293500D01*
X9507500Y-18364929D01*
X9493214Y-18422072D01*
X9478928Y-18450643D01*
X9464643Y-18464929D01*
X9436071Y-18479214D01*
X9407500Y-18479214D01*
X9378928Y-18464929D01*
X9364643Y-18450643D01*
X9350357Y-18422072D01*
X9336071Y-18364929D01*
X9336071Y-18293500D01*
X9350357Y-18236357D01*
X9364643Y-18207786D01*
X9378928Y-18193500D01*
X9407500Y-18179214D01*
X9636071Y-18450643D02*
X9650357Y-18464929D01*
X9636071Y-18479214D01*
X9621786Y-18464929D01*
X9636071Y-18450643D01*
X9636071Y-18479214D01*
X9836071Y-18179214D02*
X9864643Y-18179214D01*
X9893214Y-18193500D01*
X9907500Y-18207786D01*
X9921786Y-18236357D01*
X9936071Y-18293500D01*
X9936071Y-18364929D01*
X9921786Y-18422072D01*
X9907500Y-18450643D01*
X9893214Y-18464929D01*
X9864643Y-18479214D01*
X9836071Y-18479214D01*
X9807500Y-18464929D01*
X9793214Y-18450643D01*
X9778928Y-18422072D01*
X9764643Y-18364929D01*
X9764643Y-18293500D01*
X9778928Y-18236357D01*
X9793214Y-18207786D01*
X9807500Y-18193500D01*
X9836071Y-18179214D01*
X10036071Y-18179214D02*
X10221786Y-18179214D01*
X10121786Y-18293500D01*
X10164643Y-18293500D01*
X10193214Y-18307786D01*
X10207500Y-18322072D01*
X10221786Y-18350643D01*
X10221786Y-18422072D01*
X10207500Y-18450643D01*
X10193214Y-18464929D01*
X10164643Y-18479214D01*
X10078928Y-18479214D01*
X10050357Y-18464929D01*
X10036071Y-18450643D01*
X10364643Y-18479214D02*
X10421786Y-18479214D01*
X10450357Y-18464929D01*
X10464643Y-18450643D01*
X10493214Y-18407786D01*
X10507500Y-18350643D01*
X10507500Y-18236357D01*
X10493214Y-18207786D01*
X10478928Y-18193500D01*
X10450357Y-18179214D01*
X10393214Y-18179214D01*
X10364643Y-18193500D01*
X10350357Y-18207786D01*
X10336071Y-18236357D01*
X10336071Y-18307786D01*
X10350357Y-18336357D01*
X10364643Y-18350643D01*
X10393214Y-18364929D01*
X10450357Y-18364929D01*
X10478928Y-18350643D01*
X10493214Y-18336357D01*
X10507500Y-18307786D01*
X10621786Y-18179214D02*
X10621786Y-18236357D01*
X10736071Y-18179214D02*
X10736071Y-18236357D01*
X11178928Y-18593500D02*
X11164643Y-18579214D01*
X11136071Y-18536357D01*
X11121786Y-18507786D01*
X11107500Y-18464929D01*
X11093214Y-18393500D01*
X11093214Y-18336357D01*
X11107500Y-18264929D01*
X11121786Y-18222072D01*
X11136071Y-18193500D01*
X11164643Y-18150643D01*
X11178928Y-18136357D01*
X11421786Y-18279214D02*
X11421786Y-18479214D01*
X11350357Y-18164929D02*
X11278928Y-18379214D01*
X11464643Y-18379214D01*
X11807500Y-18479214D02*
X11807500Y-18179214D01*
X11936071Y-18479214D02*
X11936071Y-18322072D01*
X11921786Y-18293500D01*
X11893214Y-18279214D01*
X11850357Y-18279214D01*
X11821786Y-18293500D01*
X11807500Y-18307786D01*
X12121786Y-18479214D02*
X12093214Y-18464929D01*
X12078928Y-18450643D01*
X12064643Y-18422072D01*
X12064643Y-18336357D01*
X12078928Y-18307786D01*
X12093214Y-18293500D01*
X12121786Y-18279214D01*
X12164643Y-18279214D01*
X12193214Y-18293500D01*
X12207500Y-18307786D01*
X12221786Y-18336357D01*
X12221786Y-18422072D01*
X12207500Y-18450643D01*
X12193214Y-18464929D01*
X12164643Y-18479214D01*
X12121786Y-18479214D01*
X12393214Y-18479214D02*
X12364643Y-18464929D01*
X12350357Y-18436357D01*
X12350357Y-18179214D01*
X12621786Y-18464929D02*
X12593214Y-18479214D01*
X12536071Y-18479214D01*
X12507500Y-18464929D01*
X12493214Y-18436357D01*
X12493214Y-18322072D01*
X12507500Y-18293500D01*
X12536071Y-18279214D01*
X12593214Y-18279214D01*
X12621786Y-18293500D01*
X12636071Y-18322072D01*
X12636071Y-18350643D01*
X12493214Y-18379214D01*
X12750357Y-18464929D02*
X12778928Y-18479214D01*
X12836071Y-18479214D01*
X12864643Y-18464929D01*
X12878928Y-18436357D01*
X12878928Y-18422072D01*
X12864643Y-18393500D01*
X12836071Y-18379214D01*
X12793214Y-18379214D01*
X12764643Y-18364929D01*
X12750357Y-18336357D01*
X12750357Y-18322072D01*
X12764643Y-18293500D01*
X12793214Y-18279214D01*
X12836071Y-18279214D01*
X12864643Y-18293500D01*
X12978928Y-18593500D02*
X12993214Y-18579214D01*
X13021786Y-18536357D01*
X13036071Y-18507786D01*
X13050357Y-18464929D01*
X13064643Y-18393500D01*
X13064643Y-18336357D01*
X13050357Y-18264929D01*
X13036071Y-18222072D01*
X13021786Y-18193500D01*
X12993214Y-18150643D01*
X12978928Y-18136357D01*
X6390900Y-18688700D02*
X6492500Y-18790300D01*
X6492500Y-18688700D02*
X6390900Y-18790300D01*
X6477621Y-18775422D02*
X6477621Y-18703579D01*
X6405778Y-18703579D01*
X6405778Y-18775422D01*
X6477621Y-18775422D01*
X6936071Y-18875214D02*
X6764643Y-18875214D01*
X6850357Y-18875214D02*
X6850357Y-18575214D01*
X6821786Y-18618072D01*
X6793214Y-18646643D01*
X6764643Y-18660929D01*
X7064643Y-18846643D02*
X7078928Y-18860929D01*
X7064643Y-18875214D01*
X7050357Y-18860929D01*
X7064643Y-18846643D01*
X7064643Y-18875214D01*
X7264643Y-18575214D02*
X7293214Y-18575214D01*
X7321786Y-18589500D01*
X7336071Y-18603786D01*
X7350357Y-18632357D01*
X7364643Y-18689500D01*
X7364643Y-18760929D01*
X7350357Y-18818072D01*
X7336071Y-18846643D01*
X7321786Y-18860929D01*
X7293214Y-18875214D01*
X7264643Y-18875214D01*
X7236071Y-18860929D01*
X7221786Y-18846643D01*
X7207500Y-18818072D01*
X7193214Y-18760929D01*
X7193214Y-18689500D01*
X7207500Y-18632357D01*
X7221786Y-18603786D01*
X7236071Y-18589500D01*
X7264643Y-18575214D01*
X7478928Y-18603786D02*
X7493214Y-18589500D01*
X7521786Y-18575214D01*
X7593214Y-18575214D01*
X7621786Y-18589500D01*
X7636071Y-18603786D01*
X7650357Y-18632357D01*
X7650357Y-18660929D01*
X7636071Y-18703786D01*
X7464643Y-18875214D01*
X7650357Y-18875214D01*
X7778928Y-18875214D02*
X7778928Y-18675214D01*
X7778928Y-18703786D02*
X7793214Y-18689500D01*
X7821786Y-18675214D01*
X7864643Y-18675214D01*
X7893214Y-18689500D01*
X7907500Y-18718072D01*
X7907500Y-18875214D01*
X7907500Y-18718072D02*
X7921786Y-18689500D01*
X7950357Y-18675214D01*
X7993214Y-18675214D01*
X8021786Y-18689500D01*
X8036071Y-18718072D01*
X8036071Y-18875214D01*
X8178928Y-18875214D02*
X8178928Y-18675214D01*
X8178928Y-18703786D02*
X8193214Y-18689500D01*
X8221786Y-18675214D01*
X8264643Y-18675214D01*
X8293214Y-18689500D01*
X8307500Y-18718072D01*
X8307500Y-18875214D01*
X8307500Y-18718072D02*
X8321786Y-18689500D01*
X8350357Y-18675214D01*
X8393214Y-18675214D01*
X8421786Y-18689500D01*
X8436071Y-18718072D01*
X8436071Y-18875214D01*
X9021786Y-18560929D02*
X8764643Y-18946643D01*
X9407500Y-18575214D02*
X9436071Y-18575214D01*
X9464643Y-18589500D01*
X9478928Y-18603786D01*
X9493214Y-18632357D01*
X9507500Y-18689500D01*
X9507500Y-18760929D01*
X9493214Y-18818072D01*
X9478928Y-18846643D01*
X9464643Y-18860929D01*
X9436071Y-18875214D01*
X9407500Y-18875214D01*
X9378928Y-18860929D01*
X9364643Y-18846643D01*
X9350357Y-18818072D01*
X9336071Y-18760929D01*
X9336071Y-18689500D01*
X9350357Y-18632357D01*
X9364643Y-18603786D01*
X9378928Y-18589500D01*
X9407500Y-18575214D01*
X9636071Y-18846643D02*
X9650357Y-18860929D01*
X9636071Y-18875214D01*
X9621786Y-18860929D01*
X9636071Y-18846643D01*
X9636071Y-18875214D01*
X9836071Y-18575214D02*
X9864643Y-18575214D01*
X9893214Y-18589500D01*
X9907500Y-18603786D01*
X9921786Y-18632357D01*
X9936071Y-18689500D01*
X9936071Y-18760929D01*
X9921786Y-18818072D01*
X9907500Y-18846643D01*
X9893214Y-18860929D01*
X9864643Y-18875214D01*
X9836071Y-18875214D01*
X9807500Y-18860929D01*
X9793214Y-18846643D01*
X9778928Y-18818072D01*
X9764643Y-18760929D01*
X9764643Y-18689500D01*
X9778928Y-18632357D01*
X9793214Y-18603786D01*
X9807500Y-18589500D01*
X9836071Y-18575214D01*
X10193214Y-18675214D02*
X10193214Y-18875214D01*
X10121786Y-18560929D02*
X10050357Y-18775214D01*
X10236071Y-18775214D01*
X10407500Y-18575214D02*
X10436071Y-18575214D01*
X10464643Y-18589500D01*
X10478928Y-18603786D01*
X10493214Y-18632357D01*
X10507500Y-18689500D01*
X10507500Y-18760929D01*
X10493214Y-18818072D01*
X10478928Y-18846643D01*
X10464643Y-18860929D01*
X10436071Y-18875214D01*
X10407500Y-18875214D01*
X10378928Y-18860929D01*
X10364643Y-18846643D01*
X10350357Y-18818072D01*
X10336071Y-18760929D01*
X10336071Y-18689500D01*
X10350357Y-18632357D01*
X10364643Y-18603786D01*
X10378928Y-18589500D01*
X10407500Y-18575214D01*
X10621786Y-18575214D02*
X10621786Y-18632357D01*
X10736071Y-18575214D02*
X10736071Y-18632357D01*
X11178928Y-18989500D02*
X11164643Y-18975214D01*
X11136071Y-18932357D01*
X11121786Y-18903786D01*
X11107500Y-18860929D01*
X11093214Y-18789500D01*
X11093214Y-18732357D01*
X11107500Y-18660929D01*
X11121786Y-18618072D01*
X11136071Y-18589500D01*
X11164643Y-18546643D01*
X11178928Y-18532357D01*
X11436071Y-18575214D02*
X11293214Y-18575214D01*
X11278928Y-18718072D01*
X11293214Y-18703786D01*
X11321786Y-18689500D01*
X11393214Y-18689500D01*
X11421786Y-18703786D01*
X11436071Y-18718072D01*
X11450357Y-18746643D01*
X11450357Y-18818072D01*
X11436071Y-18846643D01*
X11421786Y-18860929D01*
X11393214Y-18875214D01*
X11321786Y-18875214D01*
X11293214Y-18860929D01*
X11278928Y-18846643D01*
X11736071Y-18875214D02*
X11564643Y-18875214D01*
X11650357Y-18875214D02*
X11650357Y-18575214D01*
X11621786Y-18618072D01*
X11593214Y-18646643D01*
X11564643Y-18660929D01*
X12093214Y-18875214D02*
X12093214Y-18575214D01*
X12221786Y-18875214D02*
X12221786Y-18718072D01*
X12207500Y-18689500D01*
X12178928Y-18675214D01*
X12136071Y-18675214D01*
X12107500Y-18689500D01*
X12093214Y-18703786D01*
X12407500Y-18875214D02*
X12378928Y-18860929D01*
X12364643Y-18846643D01*
X12350357Y-18818072D01*
X12350357Y-18732357D01*
X12364643Y-18703786D01*
X12378928Y-18689500D01*
X12407500Y-18675214D01*
X12450357Y-18675214D01*
X12478928Y-18689500D01*
X12493214Y-18703786D01*
X12507500Y-18732357D01*
X12507500Y-18818072D01*
X12493214Y-18846643D01*
X12478928Y-18860929D01*
X12450357Y-18875214D01*
X12407500Y-18875214D01*
X12678928Y-18875214D02*
X12650357Y-18860929D01*
X12636071Y-18832357D01*
X12636071Y-18575214D01*
X12907500Y-18860929D02*
X12878928Y-18875214D01*
X12821786Y-18875214D01*
X12793214Y-18860929D01*
X12778928Y-18832357D01*
X12778928Y-18718072D01*
X12793214Y-18689500D01*
X12821786Y-18675214D01*
X12878928Y-18675214D01*
X12907500Y-18689500D01*
X12921786Y-18718072D01*
X12921786Y-18746643D01*
X12778928Y-18775214D01*
X13036071Y-18860929D02*
X13064643Y-18875214D01*
X13121786Y-18875214D01*
X13150357Y-18860929D01*
X13164643Y-18832357D01*
X13164643Y-18818072D01*
X13150357Y-18789500D01*
X13121786Y-18775214D01*
X13078928Y-18775214D01*
X13050357Y-18760929D01*
X13036071Y-18732357D01*
X13036071Y-18718072D01*
X13050357Y-18689500D01*
X13078928Y-18675214D01*
X13121786Y-18675214D01*
X13150357Y-18689500D01*
X13264643Y-18989500D02*
X13278928Y-18975214D01*
X13307500Y-18932357D01*
X13321786Y-18903786D01*
X13336071Y-18860929D01*
X13350357Y-18789500D01*
X13350357Y-18732357D01*
X13336071Y-18660929D01*
X13321786Y-18618072D01*
X13307500Y-18589500D01*
X13278928Y-18546643D01*
X13264643Y-18532357D01*
X6382500Y-19080500D02*
X6492500Y-19190500D01*
X6492500Y-19080500D02*
X6382500Y-19190500D01*
X6437500Y-19190500D02*
X6492500Y-19135500D01*
X6437500Y-19080500D01*
X6382500Y-19135500D01*
X6437500Y-19190500D01*
X6936071Y-19271214D02*
X6764643Y-19271214D01*
X6850357Y-19271214D02*
X6850357Y-18971214D01*
X6821786Y-19014072D01*
X6793214Y-19042643D01*
X6764643Y-19056929D01*
X7064643Y-19242643D02*
X7078928Y-19256929D01*
X7064643Y-19271214D01*
X7050357Y-19256929D01*
X7064643Y-19242643D01*
X7064643Y-19271214D01*
X7364643Y-19271214D02*
X7193214Y-19271214D01*
X7278928Y-19271214D02*
X7278928Y-18971214D01*
X7250357Y-19014072D01*
X7221786Y-19042643D01*
X7193214Y-19056929D01*
X7550357Y-18971214D02*
X7578928Y-18971214D01*
X7607500Y-18985500D01*
X7621786Y-18999786D01*
X7636071Y-19028357D01*
X7650357Y-19085500D01*
X7650357Y-19156929D01*
X7636071Y-19214072D01*
X7621786Y-19242643D01*
X7607500Y-19256929D01*
X7578928Y-19271214D01*
X7550357Y-19271214D01*
X7521786Y-19256929D01*
X7507500Y-19242643D01*
X7493214Y-19214072D01*
X7478928Y-19156929D01*
X7478928Y-19085500D01*
X7493214Y-19028357D01*
X7507500Y-18999786D01*
X7521786Y-18985500D01*
X7550357Y-18971214D01*
X7778928Y-19271214D02*
X7778928Y-19071214D01*
X7778928Y-19099786D02*
X7793214Y-19085500D01*
X7821786Y-19071214D01*
X7864643Y-19071214D01*
X7893214Y-19085500D01*
X7907500Y-19114072D01*
X7907500Y-19271214D01*
X7907500Y-19114072D02*
X7921786Y-19085500D01*
X7950357Y-19071214D01*
X7993214Y-19071214D01*
X8021786Y-19085500D01*
X8036071Y-19114072D01*
X8036071Y-19271214D01*
X8178928Y-19271214D02*
X8178928Y-19071214D01*
X8178928Y-19099786D02*
X8193214Y-19085500D01*
X8221786Y-19071214D01*
X8264643Y-19071214D01*
X8293214Y-19085500D01*
X8307500Y-19114072D01*
X8307500Y-19271214D01*
X8307500Y-19114072D02*
X8321786Y-19085500D01*
X8350357Y-19071214D01*
X8393214Y-19071214D01*
X8421786Y-19085500D01*
X8436071Y-19114072D01*
X8436071Y-19271214D01*
X9021786Y-18956929D02*
X8764643Y-19342643D01*
X9407500Y-18971214D02*
X9436071Y-18971214D01*
X9464643Y-18985500D01*
X9478928Y-18999786D01*
X9493214Y-19028357D01*
X9507500Y-19085500D01*
X9507500Y-19156929D01*
X9493214Y-19214072D01*
X9478928Y-19242643D01*
X9464643Y-19256929D01*
X9436071Y-19271214D01*
X9407500Y-19271214D01*
X9378928Y-19256929D01*
X9364643Y-19242643D01*
X9350357Y-19214072D01*
X9336071Y-19156929D01*
X9336071Y-19085500D01*
X9350357Y-19028357D01*
X9364643Y-18999786D01*
X9378928Y-18985500D01*
X9407500Y-18971214D01*
X9636071Y-19242643D02*
X9650357Y-19256929D01*
X9636071Y-19271214D01*
X9621786Y-19256929D01*
X9636071Y-19242643D01*
X9636071Y-19271214D01*
X9836071Y-18971214D02*
X9864643Y-18971214D01*
X9893214Y-18985500D01*
X9907500Y-18999786D01*
X9921786Y-19028357D01*
X9936071Y-19085500D01*
X9936071Y-19156929D01*
X9921786Y-19214072D01*
X9907500Y-19242643D01*
X9893214Y-19256929D01*
X9864643Y-19271214D01*
X9836071Y-19271214D01*
X9807500Y-19256929D01*
X9793214Y-19242643D01*
X9778928Y-19214072D01*
X9764643Y-19156929D01*
X9764643Y-19085500D01*
X9778928Y-19028357D01*
X9793214Y-18999786D01*
X9807500Y-18985500D01*
X9836071Y-18971214D01*
X10193214Y-19071214D02*
X10193214Y-19271214D01*
X10121786Y-18956929D02*
X10050357Y-19171214D01*
X10236071Y-19171214D01*
X10321786Y-18971214D02*
X10507500Y-18971214D01*
X10407500Y-19085500D01*
X10450357Y-19085500D01*
X10478928Y-19099786D01*
X10493214Y-19114072D01*
X10507500Y-19142643D01*
X10507500Y-19214072D01*
X10493214Y-19242643D01*
X10478928Y-19256929D01*
X10450357Y-19271214D01*
X10364643Y-19271214D01*
X10336071Y-19256929D01*
X10321786Y-19242643D01*
X10621786Y-18971214D02*
X10621786Y-19028357D01*
X10736071Y-18971214D02*
X10736071Y-19028357D01*
X11178928Y-19385500D02*
X11164643Y-19371214D01*
X11136071Y-19328357D01*
X11121786Y-19299786D01*
X11107500Y-19256929D01*
X11093214Y-19185500D01*
X11093214Y-19128357D01*
X11107500Y-19056929D01*
X11121786Y-19014072D01*
X11136071Y-18985500D01*
X11164643Y-18942643D01*
X11178928Y-18928357D01*
X11421786Y-19071214D02*
X11421786Y-19271214D01*
X11350357Y-18956929D02*
X11278928Y-19171214D01*
X11464643Y-19171214D01*
X11807500Y-19271214D02*
X11807500Y-18971214D01*
X11936071Y-19271214D02*
X11936071Y-19114072D01*
X11921786Y-19085500D01*
X11893214Y-19071214D01*
X11850357Y-19071214D01*
X11821786Y-19085500D01*
X11807500Y-19099786D01*
X12121786Y-19271214D02*
X12093214Y-19256929D01*
X12078928Y-19242643D01*
X12064643Y-19214072D01*
X12064643Y-19128357D01*
X12078928Y-19099786D01*
X12093214Y-19085500D01*
X12121786Y-19071214D01*
X12164643Y-19071214D01*
X12193214Y-19085500D01*
X12207500Y-19099786D01*
X12221786Y-19128357D01*
X12221786Y-19214072D01*
X12207500Y-19242643D01*
X12193214Y-19256929D01*
X12164643Y-19271214D01*
X12121786Y-19271214D01*
X12393214Y-19271214D02*
X12364643Y-19256929D01*
X12350357Y-19228357D01*
X12350357Y-18971214D01*
X12621786Y-19256929D02*
X12593214Y-19271214D01*
X12536071Y-19271214D01*
X12507500Y-19256929D01*
X12493214Y-19228357D01*
X12493214Y-19114072D01*
X12507500Y-19085500D01*
X12536071Y-19071214D01*
X12593214Y-19071214D01*
X12621786Y-19085500D01*
X12636071Y-19114072D01*
X12636071Y-19142643D01*
X12493214Y-19171214D01*
X12750357Y-19256929D02*
X12778928Y-19271214D01*
X12836071Y-19271214D01*
X12864643Y-19256929D01*
X12878928Y-19228357D01*
X12878928Y-19214072D01*
X12864643Y-19185500D01*
X12836071Y-19171214D01*
X12793214Y-19171214D01*
X12764643Y-19156929D01*
X12750357Y-19128357D01*
X12750357Y-19114072D01*
X12764643Y-19085500D01*
X12793214Y-19071214D01*
X12836071Y-19071214D01*
X12864643Y-19085500D01*
X12978928Y-19385500D02*
X12993214Y-19371214D01*
X13021786Y-19328357D01*
X13036071Y-19299786D01*
X13050357Y-19256929D01*
X13064643Y-19185500D01*
X13064643Y-19128357D01*
X13050357Y-19056929D01*
X13036071Y-19014072D01*
X13021786Y-18985500D01*
X12993214Y-18942643D01*
X12978928Y-18928357D01*
X6436620Y-19475620D02*
X6436620Y-19587380D01*
X6380740Y-19531500D02*
X6492500Y-19531500D01*
X6492500Y-19531500D02*
G75*
G03X6492500Y-19531500I-55880J0D01*
G01*
X6936071Y-19667214D02*
X6764643Y-19667214D01*
X6850357Y-19667214D02*
X6850357Y-19367214D01*
X6821786Y-19410072D01*
X6793214Y-19438643D01*
X6764643Y-19452929D01*
X7064643Y-19638643D02*
X7078928Y-19652929D01*
X7064643Y-19667214D01*
X7050357Y-19652929D01*
X7064643Y-19638643D01*
X7064643Y-19667214D01*
X7364643Y-19667214D02*
X7193214Y-19667214D01*
X7278928Y-19667214D02*
X7278928Y-19367214D01*
X7250357Y-19410072D01*
X7221786Y-19438643D01*
X7193214Y-19452929D01*
X7478928Y-19395786D02*
X7493214Y-19381500D01*
X7521786Y-19367214D01*
X7593214Y-19367214D01*
X7621786Y-19381500D01*
X7636071Y-19395786D01*
X7650357Y-19424357D01*
X7650357Y-19452929D01*
X7636071Y-19495786D01*
X7464643Y-19667214D01*
X7650357Y-19667214D01*
X7778928Y-19667214D02*
X7778928Y-19467214D01*
X7778928Y-19495786D02*
X7793214Y-19481500D01*
X7821786Y-19467214D01*
X7864643Y-19467214D01*
X7893214Y-19481500D01*
X7907500Y-19510072D01*
X7907500Y-19667214D01*
X7907500Y-19510072D02*
X7921786Y-19481500D01*
X7950357Y-19467214D01*
X7993214Y-19467214D01*
X8021786Y-19481500D01*
X8036071Y-19510072D01*
X8036071Y-19667214D01*
X8178928Y-19667214D02*
X8178928Y-19467214D01*
X8178928Y-19495786D02*
X8193214Y-19481500D01*
X8221786Y-19467214D01*
X8264643Y-19467214D01*
X8293214Y-19481500D01*
X8307500Y-19510072D01*
X8307500Y-19667214D01*
X8307500Y-19510072D02*
X8321786Y-19481500D01*
X8350357Y-19467214D01*
X8393214Y-19467214D01*
X8421786Y-19481500D01*
X8436071Y-19510072D01*
X8436071Y-19667214D01*
X9021786Y-19352929D02*
X8764643Y-19738643D01*
X9407500Y-19367214D02*
X9436071Y-19367214D01*
X9464643Y-19381500D01*
X9478928Y-19395786D01*
X9493214Y-19424357D01*
X9507500Y-19481500D01*
X9507500Y-19552929D01*
X9493214Y-19610072D01*
X9478928Y-19638643D01*
X9464643Y-19652929D01*
X9436071Y-19667214D01*
X9407500Y-19667214D01*
X9378928Y-19652929D01*
X9364643Y-19638643D01*
X9350357Y-19610072D01*
X9336071Y-19552929D01*
X9336071Y-19481500D01*
X9350357Y-19424357D01*
X9364643Y-19395786D01*
X9378928Y-19381500D01*
X9407500Y-19367214D01*
X9636071Y-19638643D02*
X9650357Y-19652929D01*
X9636071Y-19667214D01*
X9621786Y-19652929D01*
X9636071Y-19638643D01*
X9636071Y-19667214D01*
X9836071Y-19367214D02*
X9864643Y-19367214D01*
X9893214Y-19381500D01*
X9907500Y-19395786D01*
X9921786Y-19424357D01*
X9936071Y-19481500D01*
X9936071Y-19552929D01*
X9921786Y-19610072D01*
X9907500Y-19638643D01*
X9893214Y-19652929D01*
X9864643Y-19667214D01*
X9836071Y-19667214D01*
X9807500Y-19652929D01*
X9793214Y-19638643D01*
X9778928Y-19610072D01*
X9764643Y-19552929D01*
X9764643Y-19481500D01*
X9778928Y-19424357D01*
X9793214Y-19395786D01*
X9807500Y-19381500D01*
X9836071Y-19367214D01*
X10193214Y-19467214D02*
X10193214Y-19667214D01*
X10121786Y-19352929D02*
X10050357Y-19567214D01*
X10236071Y-19567214D01*
X10478928Y-19467214D02*
X10478928Y-19667214D01*
X10407500Y-19352929D02*
X10336071Y-19567214D01*
X10521786Y-19567214D01*
X10621786Y-19367214D02*
X10621786Y-19424357D01*
X10736071Y-19367214D02*
X10736071Y-19424357D01*
X11178928Y-19781500D02*
X11164643Y-19767214D01*
X11136071Y-19724357D01*
X11121786Y-19695786D01*
X11107500Y-19652929D01*
X11093214Y-19581500D01*
X11093214Y-19524357D01*
X11107500Y-19452929D01*
X11121786Y-19410072D01*
X11136071Y-19381500D01*
X11164643Y-19338643D01*
X11178928Y-19324357D01*
X11336071Y-19495786D02*
X11307500Y-19481500D01*
X11293214Y-19467214D01*
X11278928Y-19438643D01*
X11278928Y-19424357D01*
X11293214Y-19395786D01*
X11307500Y-19381500D01*
X11336071Y-19367214D01*
X11393214Y-19367214D01*
X11421786Y-19381500D01*
X11436071Y-19395786D01*
X11450357Y-19424357D01*
X11450357Y-19438643D01*
X11436071Y-19467214D01*
X11421786Y-19481500D01*
X11393214Y-19495786D01*
X11336071Y-19495786D01*
X11307500Y-19510072D01*
X11293214Y-19524357D01*
X11278928Y-19552929D01*
X11278928Y-19610072D01*
X11293214Y-19638643D01*
X11307500Y-19652929D01*
X11336071Y-19667214D01*
X11393214Y-19667214D01*
X11421786Y-19652929D01*
X11436071Y-19638643D01*
X11450357Y-19610072D01*
X11450357Y-19552929D01*
X11436071Y-19524357D01*
X11421786Y-19510072D01*
X11393214Y-19495786D01*
X11807500Y-19667214D02*
X11807500Y-19367214D01*
X11936071Y-19667214D02*
X11936071Y-19510072D01*
X11921786Y-19481500D01*
X11893214Y-19467214D01*
X11850357Y-19467214D01*
X11821786Y-19481500D01*
X11807500Y-19495786D01*
X12121786Y-19667214D02*
X12093214Y-19652929D01*
X12078928Y-19638643D01*
X12064643Y-19610072D01*
X12064643Y-19524357D01*
X12078928Y-19495786D01*
X12093214Y-19481500D01*
X12121786Y-19467214D01*
X12164643Y-19467214D01*
X12193214Y-19481500D01*
X12207500Y-19495786D01*
X12221786Y-19524357D01*
X12221786Y-19610072D01*
X12207500Y-19638643D01*
X12193214Y-19652929D01*
X12164643Y-19667214D01*
X12121786Y-19667214D01*
X12393214Y-19667214D02*
X12364643Y-19652929D01*
X12350357Y-19624357D01*
X12350357Y-19367214D01*
X12621786Y-19652929D02*
X12593214Y-19667214D01*
X12536071Y-19667214D01*
X12507500Y-19652929D01*
X12493214Y-19624357D01*
X12493214Y-19510072D01*
X12507500Y-19481500D01*
X12536071Y-19467214D01*
X12593214Y-19467214D01*
X12621786Y-19481500D01*
X12636071Y-19510072D01*
X12636071Y-19538643D01*
X12493214Y-19567214D01*
X12750357Y-19652929D02*
X12778928Y-19667214D01*
X12836071Y-19667214D01*
X12864643Y-19652929D01*
X12878928Y-19624357D01*
X12878928Y-19610072D01*
X12864643Y-19581500D01*
X12836071Y-19567214D01*
X12793214Y-19567214D01*
X12764643Y-19552929D01*
X12750357Y-19524357D01*
X12750357Y-19510072D01*
X12764643Y-19481500D01*
X12793214Y-19467214D01*
X12836071Y-19467214D01*
X12864643Y-19481500D01*
X12978928Y-19781500D02*
X12993214Y-19767214D01*
X13021786Y-19724357D01*
X13036071Y-19695786D01*
X13050357Y-19652929D01*
X13064643Y-19581500D01*
X13064643Y-19524357D01*
X13050357Y-19452929D01*
X13036071Y-19410072D01*
X13021786Y-19381500D01*
X12993214Y-19338643D01*
X12978928Y-19324357D01*
X6474927Y-19969927D02*
X6474927Y-19885073D01*
X6390073Y-19885073D01*
X6390073Y-19969927D01*
X6474927Y-19969927D01*
X6492500Y-19927500D02*
G75*
G03X6492500Y-19927500I-60000J0D01*
G01*
X6936071Y-20063214D02*
X6764643Y-20063214D01*
X6850357Y-20063214D02*
X6850357Y-19763214D01*
X6821786Y-19806072D01*
X6793214Y-19834643D01*
X6764643Y-19848929D01*
X7064643Y-20034643D02*
X7078928Y-20048929D01*
X7064643Y-20063214D01*
X7050357Y-20048929D01*
X7064643Y-20034643D01*
X7064643Y-20063214D01*
X7193214Y-19791786D02*
X7207500Y-19777500D01*
X7236071Y-19763214D01*
X7307500Y-19763214D01*
X7336071Y-19777500D01*
X7350357Y-19791786D01*
X7364643Y-19820357D01*
X7364643Y-19848929D01*
X7350357Y-19891786D01*
X7178928Y-20063214D01*
X7364643Y-20063214D01*
X7550357Y-19763214D02*
X7578928Y-19763214D01*
X7607500Y-19777500D01*
X7621786Y-19791786D01*
X7636071Y-19820357D01*
X7650357Y-19877500D01*
X7650357Y-19948929D01*
X7636071Y-20006072D01*
X7621786Y-20034643D01*
X7607500Y-20048929D01*
X7578928Y-20063214D01*
X7550357Y-20063214D01*
X7521786Y-20048929D01*
X7507500Y-20034643D01*
X7493214Y-20006072D01*
X7478928Y-19948929D01*
X7478928Y-19877500D01*
X7493214Y-19820357D01*
X7507500Y-19791786D01*
X7521786Y-19777500D01*
X7550357Y-19763214D01*
X7778928Y-20063214D02*
X7778928Y-19863214D01*
X7778928Y-19891786D02*
X7793214Y-19877500D01*
X7821786Y-19863214D01*
X7864643Y-19863214D01*
X7893214Y-19877500D01*
X7907500Y-19906072D01*
X7907500Y-20063214D01*
X7907500Y-19906072D02*
X7921786Y-19877500D01*
X7950357Y-19863214D01*
X7993214Y-19863214D01*
X8021786Y-19877500D01*
X8036071Y-19906072D01*
X8036071Y-20063214D01*
X8178928Y-20063214D02*
X8178928Y-19863214D01*
X8178928Y-19891786D02*
X8193214Y-19877500D01*
X8221786Y-19863214D01*
X8264643Y-19863214D01*
X8293214Y-19877500D01*
X8307500Y-19906072D01*
X8307500Y-20063214D01*
X8307500Y-19906072D02*
X8321786Y-19877500D01*
X8350357Y-19863214D01*
X8393214Y-19863214D01*
X8421786Y-19877500D01*
X8436071Y-19906072D01*
X8436071Y-20063214D01*
X9021786Y-19748929D02*
X8764643Y-20134643D01*
X9407500Y-19763214D02*
X9436071Y-19763214D01*
X9464643Y-19777500D01*
X9478928Y-19791786D01*
X9493214Y-19820357D01*
X9507500Y-19877500D01*
X9507500Y-19948929D01*
X9493214Y-20006072D01*
X9478928Y-20034643D01*
X9464643Y-20048929D01*
X9436071Y-20063214D01*
X9407500Y-20063214D01*
X9378928Y-20048929D01*
X9364643Y-20034643D01*
X9350357Y-20006072D01*
X9336071Y-19948929D01*
X9336071Y-19877500D01*
X9350357Y-19820357D01*
X9364643Y-19791786D01*
X9378928Y-19777500D01*
X9407500Y-19763214D01*
X9636071Y-20034643D02*
X9650357Y-20048929D01*
X9636071Y-20063214D01*
X9621786Y-20048929D01*
X9636071Y-20034643D01*
X9636071Y-20063214D01*
X9836071Y-19763214D02*
X9864643Y-19763214D01*
X9893214Y-19777500D01*
X9907500Y-19791786D01*
X9921786Y-19820357D01*
X9936071Y-19877500D01*
X9936071Y-19948929D01*
X9921786Y-20006072D01*
X9907500Y-20034643D01*
X9893214Y-20048929D01*
X9864643Y-20063214D01*
X9836071Y-20063214D01*
X9807500Y-20048929D01*
X9793214Y-20034643D01*
X9778928Y-20006072D01*
X9764643Y-19948929D01*
X9764643Y-19877500D01*
X9778928Y-19820357D01*
X9793214Y-19791786D01*
X9807500Y-19777500D01*
X9836071Y-19763214D01*
X10193214Y-19863214D02*
X10193214Y-20063214D01*
X10121786Y-19748929D02*
X10050357Y-19963214D01*
X10236071Y-19963214D01*
X10321786Y-19763214D02*
X10521786Y-19763214D01*
X10393214Y-20063214D01*
X10621786Y-19763214D02*
X10621786Y-19820357D01*
X10736071Y-19763214D02*
X10736071Y-19820357D01*
X11178928Y-20177500D02*
X11164643Y-20163214D01*
X11136071Y-20120357D01*
X11121786Y-20091786D01*
X11107500Y-20048929D01*
X11093214Y-19977500D01*
X11093214Y-19920357D01*
X11107500Y-19848929D01*
X11121786Y-19806072D01*
X11136071Y-19777500D01*
X11164643Y-19734643D01*
X11178928Y-19720357D01*
X11450357Y-20063214D02*
X11278928Y-20063214D01*
X11364643Y-20063214D02*
X11364643Y-19763214D01*
X11336071Y-19806072D01*
X11307500Y-19834643D01*
X11278928Y-19848929D01*
X11564643Y-19791786D02*
X11578928Y-19777500D01*
X11607500Y-19763214D01*
X11678928Y-19763214D01*
X11707500Y-19777500D01*
X11721786Y-19791786D01*
X11736071Y-19820357D01*
X11736071Y-19848929D01*
X11721786Y-19891786D01*
X11550357Y-20063214D01*
X11736071Y-20063214D01*
X12093214Y-20063214D02*
X12093214Y-19763214D01*
X12221786Y-20063214D02*
X12221786Y-19906072D01*
X12207500Y-19877500D01*
X12178928Y-19863214D01*
X12136071Y-19863214D01*
X12107500Y-19877500D01*
X12093214Y-19891786D01*
X12407500Y-20063214D02*
X12378928Y-20048929D01*
X12364643Y-20034643D01*
X12350357Y-20006072D01*
X12350357Y-19920357D01*
X12364643Y-19891786D01*
X12378928Y-19877500D01*
X12407500Y-19863214D01*
X12450357Y-19863214D01*
X12478928Y-19877500D01*
X12493214Y-19891786D01*
X12507500Y-19920357D01*
X12507500Y-20006072D01*
X12493214Y-20034643D01*
X12478928Y-20048929D01*
X12450357Y-20063214D01*
X12407500Y-20063214D01*
X12678928Y-20063214D02*
X12650357Y-20048929D01*
X12636071Y-20020357D01*
X12636071Y-19763214D01*
X12907500Y-20048929D02*
X12878928Y-20063214D01*
X12821786Y-20063214D01*
X12793214Y-20048929D01*
X12778928Y-20020357D01*
X12778928Y-19906072D01*
X12793214Y-19877500D01*
X12821786Y-19863214D01*
X12878928Y-19863214D01*
X12907500Y-19877500D01*
X12921786Y-19906072D01*
X12921786Y-19934643D01*
X12778928Y-19963214D01*
X13036071Y-20048929D02*
X13064643Y-20063214D01*
X13121786Y-20063214D01*
X13150357Y-20048929D01*
X13164643Y-20020357D01*
X13164643Y-20006072D01*
X13150357Y-19977500D01*
X13121786Y-19963214D01*
X13078928Y-19963214D01*
X13050357Y-19948929D01*
X13036071Y-19920357D01*
X13036071Y-19906072D01*
X13050357Y-19877500D01*
X13078928Y-19863214D01*
X13121786Y-19863214D01*
X13150357Y-19877500D01*
X13264643Y-20177500D02*
X13278928Y-20163214D01*
X13307500Y-20120357D01*
X13321786Y-20091786D01*
X13336071Y-20048929D01*
X13350357Y-19977500D01*
X13350357Y-19920357D01*
X13336071Y-19848929D01*
X13321786Y-19806072D01*
X13307500Y-19777500D01*
X13278928Y-19734643D01*
X13264643Y-19720357D01*
X6427500Y-20388500D02*
X6492500Y-20323500D01*
X6427500Y-20258500D01*
X6362500Y-20323500D01*
X6427500Y-20388500D01*
X6492500Y-20323500D02*
G75*
G03X6492500Y-20323500I-65000J0D01*
G01*
X6936071Y-20459214D02*
X6764643Y-20459214D01*
X6850357Y-20459214D02*
X6850357Y-20159214D01*
X6821786Y-20202072D01*
X6793214Y-20230643D01*
X6764643Y-20244929D01*
X7064643Y-20430643D02*
X7078928Y-20444929D01*
X7064643Y-20459214D01*
X7050357Y-20444929D01*
X7064643Y-20430643D01*
X7064643Y-20459214D01*
X7178928Y-20159214D02*
X7364643Y-20159214D01*
X7264643Y-20273500D01*
X7307500Y-20273500D01*
X7336071Y-20287786D01*
X7350357Y-20302072D01*
X7364643Y-20330643D01*
X7364643Y-20402072D01*
X7350357Y-20430643D01*
X7336071Y-20444929D01*
X7307500Y-20459214D01*
X7221786Y-20459214D01*
X7193214Y-20444929D01*
X7178928Y-20430643D01*
X7550357Y-20159214D02*
X7578928Y-20159214D01*
X7607500Y-20173500D01*
X7621786Y-20187786D01*
X7636071Y-20216357D01*
X7650357Y-20273500D01*
X7650357Y-20344929D01*
X7636071Y-20402072D01*
X7621786Y-20430643D01*
X7607500Y-20444929D01*
X7578928Y-20459214D01*
X7550357Y-20459214D01*
X7521786Y-20444929D01*
X7507500Y-20430643D01*
X7493214Y-20402072D01*
X7478928Y-20344929D01*
X7478928Y-20273500D01*
X7493214Y-20216357D01*
X7507500Y-20187786D01*
X7521786Y-20173500D01*
X7550357Y-20159214D01*
X7778928Y-20459214D02*
X7778928Y-20259214D01*
X7778928Y-20287786D02*
X7793214Y-20273500D01*
X7821786Y-20259214D01*
X7864643Y-20259214D01*
X7893214Y-20273500D01*
X7907500Y-20302072D01*
X7907500Y-20459214D01*
X7907500Y-20302072D02*
X7921786Y-20273500D01*
X7950357Y-20259214D01*
X7993214Y-20259214D01*
X8021786Y-20273500D01*
X8036071Y-20302072D01*
X8036071Y-20459214D01*
X8178928Y-20459214D02*
X8178928Y-20259214D01*
X8178928Y-20287786D02*
X8193214Y-20273500D01*
X8221786Y-20259214D01*
X8264643Y-20259214D01*
X8293214Y-20273500D01*
X8307500Y-20302072D01*
X8307500Y-20459214D01*
X8307500Y-20302072D02*
X8321786Y-20273500D01*
X8350357Y-20259214D01*
X8393214Y-20259214D01*
X8421786Y-20273500D01*
X8436071Y-20302072D01*
X8436071Y-20459214D01*
X9021786Y-20144929D02*
X8764643Y-20530643D01*
X9407500Y-20159214D02*
X9436071Y-20159214D01*
X9464643Y-20173500D01*
X9478928Y-20187786D01*
X9493214Y-20216357D01*
X9507500Y-20273500D01*
X9507500Y-20344929D01*
X9493214Y-20402072D01*
X9478928Y-20430643D01*
X9464643Y-20444929D01*
X9436071Y-20459214D01*
X9407500Y-20459214D01*
X9378928Y-20444929D01*
X9364643Y-20430643D01*
X9350357Y-20402072D01*
X9336071Y-20344929D01*
X9336071Y-20273500D01*
X9350357Y-20216357D01*
X9364643Y-20187786D01*
X9378928Y-20173500D01*
X9407500Y-20159214D01*
X9636071Y-20430643D02*
X9650357Y-20444929D01*
X9636071Y-20459214D01*
X9621786Y-20444929D01*
X9636071Y-20430643D01*
X9636071Y-20459214D01*
X9836071Y-20159214D02*
X9864643Y-20159214D01*
X9893214Y-20173500D01*
X9907500Y-20187786D01*
X9921786Y-20216357D01*
X9936071Y-20273500D01*
X9936071Y-20344929D01*
X9921786Y-20402072D01*
X9907500Y-20430643D01*
X9893214Y-20444929D01*
X9864643Y-20459214D01*
X9836071Y-20459214D01*
X9807500Y-20444929D01*
X9793214Y-20430643D01*
X9778928Y-20402072D01*
X9764643Y-20344929D01*
X9764643Y-20273500D01*
X9778928Y-20216357D01*
X9793214Y-20187786D01*
X9807500Y-20173500D01*
X9836071Y-20159214D01*
X10207500Y-20159214D02*
X10064643Y-20159214D01*
X10050357Y-20302072D01*
X10064643Y-20287786D01*
X10093214Y-20273500D01*
X10164643Y-20273500D01*
X10193214Y-20287786D01*
X10207500Y-20302072D01*
X10221786Y-20330643D01*
X10221786Y-20402072D01*
X10207500Y-20430643D01*
X10193214Y-20444929D01*
X10164643Y-20459214D01*
X10093214Y-20459214D01*
X10064643Y-20444929D01*
X10050357Y-20430643D01*
X10507500Y-20459214D02*
X10336071Y-20459214D01*
X10421786Y-20459214D02*
X10421786Y-20159214D01*
X10393214Y-20202072D01*
X10364643Y-20230643D01*
X10336071Y-20244929D01*
X10621786Y-20159214D02*
X10621786Y-20216357D01*
X10736071Y-20159214D02*
X10736071Y-20216357D01*
X11178928Y-20573500D02*
X11164643Y-20559214D01*
X11136071Y-20516357D01*
X11121786Y-20487786D01*
X11107500Y-20444929D01*
X11093214Y-20373500D01*
X11093214Y-20316357D01*
X11107500Y-20244929D01*
X11121786Y-20202072D01*
X11136071Y-20173500D01*
X11164643Y-20130643D01*
X11178928Y-20116357D01*
X11336071Y-20287786D02*
X11307500Y-20273500D01*
X11293214Y-20259214D01*
X11278928Y-20230643D01*
X11278928Y-20216357D01*
X11293214Y-20187786D01*
X11307500Y-20173500D01*
X11336071Y-20159214D01*
X11393214Y-20159214D01*
X11421786Y-20173500D01*
X11436071Y-20187786D01*
X11450357Y-20216357D01*
X11450357Y-20230643D01*
X11436071Y-20259214D01*
X11421786Y-20273500D01*
X11393214Y-20287786D01*
X11336071Y-20287786D01*
X11307500Y-20302072D01*
X11293214Y-20316357D01*
X11278928Y-20344929D01*
X11278928Y-20402072D01*
X11293214Y-20430643D01*
X11307500Y-20444929D01*
X11336071Y-20459214D01*
X11393214Y-20459214D01*
X11421786Y-20444929D01*
X11436071Y-20430643D01*
X11450357Y-20402072D01*
X11450357Y-20344929D01*
X11436071Y-20316357D01*
X11421786Y-20302072D01*
X11393214Y-20287786D01*
X11807500Y-20459214D02*
X11807500Y-20159214D01*
X11936071Y-20459214D02*
X11936071Y-20302072D01*
X11921786Y-20273500D01*
X11893214Y-20259214D01*
X11850357Y-20259214D01*
X11821786Y-20273500D01*
X11807500Y-20287786D01*
X12121786Y-20459214D02*
X12093214Y-20444929D01*
X12078928Y-20430643D01*
X12064643Y-20402072D01*
X12064643Y-20316357D01*
X12078928Y-20287786D01*
X12093214Y-20273500D01*
X12121786Y-20259214D01*
X12164643Y-20259214D01*
X12193214Y-20273500D01*
X12207500Y-20287786D01*
X12221786Y-20316357D01*
X12221786Y-20402072D01*
X12207500Y-20430643D01*
X12193214Y-20444929D01*
X12164643Y-20459214D01*
X12121786Y-20459214D01*
X12393214Y-20459214D02*
X12364643Y-20444929D01*
X12350357Y-20416357D01*
X12350357Y-20159214D01*
X12621786Y-20444929D02*
X12593214Y-20459214D01*
X12536071Y-20459214D01*
X12507500Y-20444929D01*
X12493214Y-20416357D01*
X12493214Y-20302072D01*
X12507500Y-20273500D01*
X12536071Y-20259214D01*
X12593214Y-20259214D01*
X12621786Y-20273500D01*
X12636071Y-20302072D01*
X12636071Y-20330643D01*
X12493214Y-20359214D01*
X12750357Y-20444929D02*
X12778928Y-20459214D01*
X12836071Y-20459214D01*
X12864643Y-20444929D01*
X12878928Y-20416357D01*
X12878928Y-20402072D01*
X12864643Y-20373500D01*
X12836071Y-20359214D01*
X12793214Y-20359214D01*
X12764643Y-20344929D01*
X12750357Y-20316357D01*
X12750357Y-20302072D01*
X12764643Y-20273500D01*
X12793214Y-20259214D01*
X12836071Y-20259214D01*
X12864643Y-20273500D01*
X13236071Y-20344929D02*
X13464643Y-20344929D01*
X13350357Y-20459214D02*
X13350357Y-20230643D01*
X13964643Y-20259214D02*
X13964643Y-20459214D01*
X13893214Y-20144929D02*
X13821786Y-20359214D01*
X14007500Y-20359214D01*
X14336071Y-20444929D02*
X14364643Y-20459214D01*
X14421786Y-20459214D01*
X14450357Y-20444929D01*
X14464643Y-20416357D01*
X14464643Y-20402072D01*
X14450357Y-20373500D01*
X14421786Y-20359214D01*
X14378928Y-20359214D01*
X14350357Y-20344929D01*
X14336071Y-20316357D01*
X14336071Y-20302072D01*
X14350357Y-20273500D01*
X14378928Y-20259214D01*
X14421786Y-20259214D01*
X14450357Y-20273500D01*
X14636071Y-20459214D02*
X14607500Y-20444929D01*
X14593214Y-20416357D01*
X14593214Y-20159214D01*
X14793214Y-20459214D02*
X14764643Y-20444929D01*
X14750357Y-20430643D01*
X14736071Y-20402072D01*
X14736071Y-20316357D01*
X14750357Y-20287786D01*
X14764643Y-20273500D01*
X14793214Y-20259214D01*
X14836071Y-20259214D01*
X14864643Y-20273500D01*
X14878928Y-20287786D01*
X14893214Y-20316357D01*
X14893214Y-20402072D01*
X14878928Y-20430643D01*
X14864643Y-20444929D01*
X14836071Y-20459214D01*
X14793214Y-20459214D01*
X14978928Y-20259214D02*
X15093214Y-20259214D01*
X15021786Y-20159214D02*
X15021786Y-20416357D01*
X15036071Y-20444929D01*
X15064643Y-20459214D01*
X15093214Y-20459214D01*
X15178928Y-20444929D02*
X15207500Y-20459214D01*
X15264643Y-20459214D01*
X15293214Y-20444929D01*
X15307500Y-20416357D01*
X15307500Y-20402072D01*
X15293214Y-20373500D01*
X15264643Y-20359214D01*
X15221786Y-20359214D01*
X15193214Y-20344929D01*
X15178928Y-20316357D01*
X15178928Y-20302072D01*
X15193214Y-20273500D01*
X15221786Y-20259214D01*
X15264643Y-20259214D01*
X15293214Y-20273500D01*
X15407500Y-20573500D02*
X15421786Y-20559214D01*
X15450357Y-20516357D01*
X15464643Y-20487786D01*
X15478928Y-20444929D01*
X15493214Y-20373500D01*
X15493214Y-20316357D01*
X15478928Y-20244929D01*
X15464643Y-20202072D01*
X15450357Y-20173500D01*
X15421786Y-20130643D01*
X15407500Y-20116357D01*
X6417443Y-20644443D02*
X6417443Y-20794557D01*
X6342386Y-20719500D02*
X6492500Y-20719500D01*
X6470517Y-20772574D02*
X6470517Y-20666426D01*
X6364369Y-20666426D01*
X6364369Y-20772574D01*
X6470517Y-20772574D01*
X6936071Y-20855214D02*
X6764643Y-20855214D01*
X6850357Y-20855214D02*
X6850357Y-20555214D01*
X6821786Y-20598072D01*
X6793214Y-20626643D01*
X6764643Y-20640929D01*
X7064643Y-20826643D02*
X7078928Y-20840929D01*
X7064643Y-20855214D01*
X7050357Y-20840929D01*
X7064643Y-20826643D01*
X7064643Y-20855214D01*
X7350357Y-20555214D02*
X7207500Y-20555214D01*
X7193214Y-20698072D01*
X7207500Y-20683786D01*
X7236071Y-20669500D01*
X7307500Y-20669500D01*
X7336071Y-20683786D01*
X7350357Y-20698072D01*
X7364643Y-20726643D01*
X7364643Y-20798072D01*
X7350357Y-20826643D01*
X7336071Y-20840929D01*
X7307500Y-20855214D01*
X7236071Y-20855214D01*
X7207500Y-20840929D01*
X7193214Y-20826643D01*
X7550357Y-20555214D02*
X7578928Y-20555214D01*
X7607500Y-20569500D01*
X7621786Y-20583786D01*
X7636071Y-20612357D01*
X7650357Y-20669500D01*
X7650357Y-20740929D01*
X7636071Y-20798072D01*
X7621786Y-20826643D01*
X7607500Y-20840929D01*
X7578928Y-20855214D01*
X7550357Y-20855214D01*
X7521786Y-20840929D01*
X7507500Y-20826643D01*
X7493214Y-20798072D01*
X7478928Y-20740929D01*
X7478928Y-20669500D01*
X7493214Y-20612357D01*
X7507500Y-20583786D01*
X7521786Y-20569500D01*
X7550357Y-20555214D01*
X7778928Y-20855214D02*
X7778928Y-20655214D01*
X7778928Y-20683786D02*
X7793214Y-20669500D01*
X7821786Y-20655214D01*
X7864643Y-20655214D01*
X7893214Y-20669500D01*
X7907500Y-20698072D01*
X7907500Y-20855214D01*
X7907500Y-20698072D02*
X7921786Y-20669500D01*
X7950357Y-20655214D01*
X7993214Y-20655214D01*
X8021786Y-20669500D01*
X8036071Y-20698072D01*
X8036071Y-20855214D01*
X8178928Y-20855214D02*
X8178928Y-20655214D01*
X8178928Y-20683786D02*
X8193214Y-20669500D01*
X8221786Y-20655214D01*
X8264643Y-20655214D01*
X8293214Y-20669500D01*
X8307500Y-20698072D01*
X8307500Y-20855214D01*
X8307500Y-20698072D02*
X8321786Y-20669500D01*
X8350357Y-20655214D01*
X8393214Y-20655214D01*
X8421786Y-20669500D01*
X8436071Y-20698072D01*
X8436071Y-20855214D01*
X9021786Y-20540929D02*
X8764643Y-20926643D01*
X9407500Y-20555214D02*
X9436071Y-20555214D01*
X9464643Y-20569500D01*
X9478928Y-20583786D01*
X9493214Y-20612357D01*
X9507500Y-20669500D01*
X9507500Y-20740929D01*
X9493214Y-20798072D01*
X9478928Y-20826643D01*
X9464643Y-20840929D01*
X9436071Y-20855214D01*
X9407500Y-20855214D01*
X9378928Y-20840929D01*
X9364643Y-20826643D01*
X9350357Y-20798072D01*
X9336071Y-20740929D01*
X9336071Y-20669500D01*
X9350357Y-20612357D01*
X9364643Y-20583786D01*
X9378928Y-20569500D01*
X9407500Y-20555214D01*
X9636071Y-20826643D02*
X9650357Y-20840929D01*
X9636071Y-20855214D01*
X9621786Y-20840929D01*
X9636071Y-20826643D01*
X9636071Y-20855214D01*
X9836071Y-20555214D02*
X9864643Y-20555214D01*
X9893214Y-20569500D01*
X9907500Y-20583786D01*
X9921786Y-20612357D01*
X9936071Y-20669500D01*
X9936071Y-20740929D01*
X9921786Y-20798072D01*
X9907500Y-20826643D01*
X9893214Y-20840929D01*
X9864643Y-20855214D01*
X9836071Y-20855214D01*
X9807500Y-20840929D01*
X9793214Y-20826643D01*
X9778928Y-20798072D01*
X9764643Y-20740929D01*
X9764643Y-20669500D01*
X9778928Y-20612357D01*
X9793214Y-20583786D01*
X9807500Y-20569500D01*
X9836071Y-20555214D01*
X10207500Y-20555214D02*
X10064643Y-20555214D01*
X10050357Y-20698072D01*
X10064643Y-20683786D01*
X10093214Y-20669500D01*
X10164643Y-20669500D01*
X10193214Y-20683786D01*
X10207500Y-20698072D01*
X10221786Y-20726643D01*
X10221786Y-20798072D01*
X10207500Y-20826643D01*
X10193214Y-20840929D01*
X10164643Y-20855214D01*
X10093214Y-20855214D01*
X10064643Y-20840929D01*
X10050357Y-20826643D01*
X10364643Y-20855214D02*
X10421786Y-20855214D01*
X10450357Y-20840929D01*
X10464643Y-20826643D01*
X10493214Y-20783786D01*
X10507500Y-20726643D01*
X10507500Y-20612357D01*
X10493214Y-20583786D01*
X10478928Y-20569500D01*
X10450357Y-20555214D01*
X10393214Y-20555214D01*
X10364643Y-20569500D01*
X10350357Y-20583786D01*
X10336071Y-20612357D01*
X10336071Y-20683786D01*
X10350357Y-20712357D01*
X10364643Y-20726643D01*
X10393214Y-20740929D01*
X10450357Y-20740929D01*
X10478928Y-20726643D01*
X10493214Y-20712357D01*
X10507500Y-20683786D01*
X10621786Y-20555214D02*
X10621786Y-20612357D01*
X10736071Y-20555214D02*
X10736071Y-20612357D01*
X11178928Y-20969500D02*
X11164643Y-20955214D01*
X11136071Y-20912357D01*
X11121786Y-20883786D01*
X11107500Y-20840929D01*
X11093214Y-20769500D01*
X11093214Y-20712357D01*
X11107500Y-20640929D01*
X11121786Y-20598072D01*
X11136071Y-20569500D01*
X11164643Y-20526643D01*
X11178928Y-20512357D01*
X11421786Y-20655214D02*
X11421786Y-20855214D01*
X11350357Y-20540929D02*
X11278928Y-20755214D01*
X11464643Y-20755214D01*
X11807500Y-20855214D02*
X11807500Y-20555214D01*
X11936071Y-20855214D02*
X11936071Y-20698072D01*
X11921786Y-20669500D01*
X11893214Y-20655214D01*
X11850357Y-20655214D01*
X11821786Y-20669500D01*
X11807500Y-20683786D01*
X12121786Y-20855214D02*
X12093214Y-20840929D01*
X12078928Y-20826643D01*
X12064643Y-20798072D01*
X12064643Y-20712357D01*
X12078928Y-20683786D01*
X12093214Y-20669500D01*
X12121786Y-20655214D01*
X12164643Y-20655214D01*
X12193214Y-20669500D01*
X12207500Y-20683786D01*
X12221786Y-20712357D01*
X12221786Y-20798072D01*
X12207500Y-20826643D01*
X12193214Y-20840929D01*
X12164643Y-20855214D01*
X12121786Y-20855214D01*
X12393214Y-20855214D02*
X12364643Y-20840929D01*
X12350357Y-20812357D01*
X12350357Y-20555214D01*
X12621786Y-20840929D02*
X12593214Y-20855214D01*
X12536071Y-20855214D01*
X12507500Y-20840929D01*
X12493214Y-20812357D01*
X12493214Y-20698072D01*
X12507500Y-20669500D01*
X12536071Y-20655214D01*
X12593214Y-20655214D01*
X12621786Y-20669500D01*
X12636071Y-20698072D01*
X12636071Y-20726643D01*
X12493214Y-20755214D01*
X12750357Y-20840929D02*
X12778928Y-20855214D01*
X12836071Y-20855214D01*
X12864643Y-20840929D01*
X12878928Y-20812357D01*
X12878928Y-20798072D01*
X12864643Y-20769500D01*
X12836071Y-20755214D01*
X12793214Y-20755214D01*
X12764643Y-20740929D01*
X12750357Y-20712357D01*
X12750357Y-20698072D01*
X12764643Y-20669500D01*
X12793214Y-20655214D01*
X12836071Y-20655214D01*
X12864643Y-20669500D01*
X12978928Y-20969500D02*
X12993214Y-20955214D01*
X13021786Y-20912357D01*
X13036071Y-20883786D01*
X13050357Y-20840929D01*
X13064643Y-20769500D01*
X13064643Y-20712357D01*
X13050357Y-20640929D01*
X13036071Y-20598072D01*
X13021786Y-20569500D01*
X12993214Y-20526643D01*
X12978928Y-20512357D01*
X6416300Y-21039300D02*
X6416300Y-21191700D01*
X6340100Y-21115500D02*
X6492500Y-21115500D01*
X6416300Y-21191700D02*
X6492500Y-21115500D01*
X6416300Y-21039300D01*
X6340100Y-21115500D01*
X6416300Y-21191700D01*
X6936071Y-21251214D02*
X6764643Y-21251214D01*
X6850357Y-21251214D02*
X6850357Y-20951214D01*
X6821786Y-20994072D01*
X6793214Y-21022643D01*
X6764643Y-21036929D01*
X7064643Y-21222643D02*
X7078928Y-21236929D01*
X7064643Y-21251214D01*
X7050357Y-21236929D01*
X7064643Y-21222643D01*
X7064643Y-21251214D01*
X7350357Y-20951214D02*
X7207500Y-20951214D01*
X7193214Y-21094072D01*
X7207500Y-21079786D01*
X7236071Y-21065500D01*
X7307500Y-21065500D01*
X7336071Y-21079786D01*
X7350357Y-21094072D01*
X7364643Y-21122643D01*
X7364643Y-21194072D01*
X7350357Y-21222643D01*
X7336071Y-21236929D01*
X7307500Y-21251214D01*
X7236071Y-21251214D01*
X7207500Y-21236929D01*
X7193214Y-21222643D01*
X7478928Y-20979786D02*
X7493214Y-20965500D01*
X7521786Y-20951214D01*
X7593214Y-20951214D01*
X7621786Y-20965500D01*
X7636071Y-20979786D01*
X7650357Y-21008357D01*
X7650357Y-21036929D01*
X7636071Y-21079786D01*
X7464643Y-21251214D01*
X7650357Y-21251214D01*
X7778928Y-21251214D02*
X7778928Y-21051214D01*
X7778928Y-21079786D02*
X7793214Y-21065500D01*
X7821786Y-21051214D01*
X7864643Y-21051214D01*
X7893214Y-21065500D01*
X7907500Y-21094072D01*
X7907500Y-21251214D01*
X7907500Y-21094072D02*
X7921786Y-21065500D01*
X7950357Y-21051214D01*
X7993214Y-21051214D01*
X8021786Y-21065500D01*
X8036071Y-21094072D01*
X8036071Y-21251214D01*
X8178928Y-21251214D02*
X8178928Y-21051214D01*
X8178928Y-21079786D02*
X8193214Y-21065500D01*
X8221786Y-21051214D01*
X8264643Y-21051214D01*
X8293214Y-21065500D01*
X8307500Y-21094072D01*
X8307500Y-21251214D01*
X8307500Y-21094072D02*
X8321786Y-21065500D01*
X8350357Y-21051214D01*
X8393214Y-21051214D01*
X8421786Y-21065500D01*
X8436071Y-21094072D01*
X8436071Y-21251214D01*
X9021786Y-20936929D02*
X8764643Y-21322643D01*
X9407500Y-20951214D02*
X9436071Y-20951214D01*
X9464643Y-20965500D01*
X9478928Y-20979786D01*
X9493214Y-21008357D01*
X9507500Y-21065500D01*
X9507500Y-21136929D01*
X9493214Y-21194072D01*
X9478928Y-21222643D01*
X9464643Y-21236929D01*
X9436071Y-21251214D01*
X9407500Y-21251214D01*
X9378928Y-21236929D01*
X9364643Y-21222643D01*
X9350357Y-21194072D01*
X9336071Y-21136929D01*
X9336071Y-21065500D01*
X9350357Y-21008357D01*
X9364643Y-20979786D01*
X9378928Y-20965500D01*
X9407500Y-20951214D01*
X9636071Y-21222643D02*
X9650357Y-21236929D01*
X9636071Y-21251214D01*
X9621786Y-21236929D01*
X9636071Y-21222643D01*
X9636071Y-21251214D01*
X9836071Y-20951214D02*
X9864643Y-20951214D01*
X9893214Y-20965500D01*
X9907500Y-20979786D01*
X9921786Y-21008357D01*
X9936071Y-21065500D01*
X9936071Y-21136929D01*
X9921786Y-21194072D01*
X9907500Y-21222643D01*
X9893214Y-21236929D01*
X9864643Y-21251214D01*
X9836071Y-21251214D01*
X9807500Y-21236929D01*
X9793214Y-21222643D01*
X9778928Y-21194072D01*
X9764643Y-21136929D01*
X9764643Y-21065500D01*
X9778928Y-21008357D01*
X9793214Y-20979786D01*
X9807500Y-20965500D01*
X9836071Y-20951214D01*
X10193214Y-20951214D02*
X10136071Y-20951214D01*
X10107500Y-20965500D01*
X10093214Y-20979786D01*
X10064643Y-21022643D01*
X10050357Y-21079786D01*
X10050357Y-21194072D01*
X10064643Y-21222643D01*
X10078928Y-21236929D01*
X10107500Y-21251214D01*
X10164643Y-21251214D01*
X10193214Y-21236929D01*
X10207500Y-21222643D01*
X10221786Y-21194072D01*
X10221786Y-21122643D01*
X10207500Y-21094072D01*
X10193214Y-21079786D01*
X10164643Y-21065500D01*
X10107500Y-21065500D01*
X10078928Y-21079786D01*
X10064643Y-21094072D01*
X10050357Y-21122643D01*
X10407500Y-20951214D02*
X10436071Y-20951214D01*
X10464643Y-20965500D01*
X10478928Y-20979786D01*
X10493214Y-21008357D01*
X10507500Y-21065500D01*
X10507500Y-21136929D01*
X10493214Y-21194072D01*
X10478928Y-21222643D01*
X10464643Y-21236929D01*
X10436071Y-21251214D01*
X10407500Y-21251214D01*
X10378928Y-21236929D01*
X10364643Y-21222643D01*
X10350357Y-21194072D01*
X10336071Y-21136929D01*
X10336071Y-21065500D01*
X10350357Y-21008357D01*
X10364643Y-20979786D01*
X10378928Y-20965500D01*
X10407500Y-20951214D01*
X10621786Y-20951214D02*
X10621786Y-21008357D01*
X10736071Y-20951214D02*
X10736071Y-21008357D01*
X11178928Y-21365500D02*
X11164643Y-21351214D01*
X11136071Y-21308357D01*
X11121786Y-21279786D01*
X11107500Y-21236929D01*
X11093214Y-21165500D01*
X11093214Y-21108357D01*
X11107500Y-21036929D01*
X11121786Y-20994072D01*
X11136071Y-20965500D01*
X11164643Y-20922643D01*
X11178928Y-20908357D01*
X11421786Y-21051214D02*
X11421786Y-21251214D01*
X11350357Y-20936929D02*
X11278928Y-21151214D01*
X11464643Y-21151214D01*
X11807500Y-21251214D02*
X11807500Y-20951214D01*
X11936071Y-21251214D02*
X11936071Y-21094072D01*
X11921786Y-21065500D01*
X11893214Y-21051214D01*
X11850357Y-21051214D01*
X11821786Y-21065500D01*
X11807500Y-21079786D01*
X12121786Y-21251214D02*
X12093214Y-21236929D01*
X12078928Y-21222643D01*
X12064643Y-21194072D01*
X12064643Y-21108357D01*
X12078928Y-21079786D01*
X12093214Y-21065500D01*
X12121786Y-21051214D01*
X12164643Y-21051214D01*
X12193214Y-21065500D01*
X12207500Y-21079786D01*
X12221786Y-21108357D01*
X12221786Y-21194072D01*
X12207500Y-21222643D01*
X12193214Y-21236929D01*
X12164643Y-21251214D01*
X12121786Y-21251214D01*
X12393214Y-21251214D02*
X12364643Y-21236929D01*
X12350357Y-21208357D01*
X12350357Y-20951214D01*
X12621786Y-21236929D02*
X12593214Y-21251214D01*
X12536071Y-21251214D01*
X12507500Y-21236929D01*
X12493214Y-21208357D01*
X12493214Y-21094072D01*
X12507500Y-21065500D01*
X12536071Y-21051214D01*
X12593214Y-21051214D01*
X12621786Y-21065500D01*
X12636071Y-21094072D01*
X12636071Y-21122643D01*
X12493214Y-21151214D01*
X12750357Y-21236929D02*
X12778928Y-21251214D01*
X12836071Y-21251214D01*
X12864643Y-21236929D01*
X12878928Y-21208357D01*
X12878928Y-21194072D01*
X12864643Y-21165500D01*
X12836071Y-21151214D01*
X12793214Y-21151214D01*
X12764643Y-21136929D01*
X12750357Y-21108357D01*
X12750357Y-21094072D01*
X12764643Y-21065500D01*
X12793214Y-21051214D01*
X12836071Y-21051214D01*
X12864643Y-21065500D01*
X12978928Y-21365500D02*
X12993214Y-21351214D01*
X13021786Y-21308357D01*
X13036071Y-21279786D01*
X13050357Y-21236929D01*
X13064643Y-21165500D01*
X13064643Y-21108357D01*
X13050357Y-21036929D01*
X13036071Y-20994072D01*
X13021786Y-20965500D01*
X12993214Y-20922643D01*
X12978928Y-20908357D01*
X6392500Y-21611500D02*
X6492500Y-21511500D01*
X6392500Y-21411500D01*
X6292500Y-21511500D01*
X6392500Y-21611500D01*
X6463211Y-21582212D02*
X6463211Y-21440789D01*
X6321788Y-21440789D01*
X6321788Y-21582212D01*
X6463211Y-21582212D01*
X6764643Y-21375786D02*
X6778928Y-21361500D01*
X6807500Y-21347214D01*
X6878928Y-21347214D01*
X6907500Y-21361500D01*
X6921786Y-21375786D01*
X6936071Y-21404357D01*
X6936071Y-21432929D01*
X6921786Y-21475786D01*
X6750357Y-21647214D01*
X6936071Y-21647214D01*
X7064643Y-21618643D02*
X7078928Y-21632929D01*
X7064643Y-21647214D01*
X7050357Y-21632929D01*
X7064643Y-21618643D01*
X7064643Y-21647214D01*
X7264643Y-21347214D02*
X7293214Y-21347214D01*
X7321786Y-21361500D01*
X7336071Y-21375786D01*
X7350357Y-21404357D01*
X7364643Y-21461500D01*
X7364643Y-21532929D01*
X7350357Y-21590072D01*
X7336071Y-21618643D01*
X7321786Y-21632929D01*
X7293214Y-21647214D01*
X7264643Y-21647214D01*
X7236071Y-21632929D01*
X7221786Y-21618643D01*
X7207500Y-21590072D01*
X7193214Y-21532929D01*
X7193214Y-21461500D01*
X7207500Y-21404357D01*
X7221786Y-21375786D01*
X7236071Y-21361500D01*
X7264643Y-21347214D01*
X7550357Y-21347214D02*
X7578928Y-21347214D01*
X7607500Y-21361500D01*
X7621786Y-21375786D01*
X7636071Y-21404357D01*
X7650357Y-21461500D01*
X7650357Y-21532929D01*
X7636071Y-21590072D01*
X7621786Y-21618643D01*
X7607500Y-21632929D01*
X7578928Y-21647214D01*
X7550357Y-21647214D01*
X7521786Y-21632929D01*
X7507500Y-21618643D01*
X7493214Y-21590072D01*
X7478928Y-21532929D01*
X7478928Y-21461500D01*
X7493214Y-21404357D01*
X7507500Y-21375786D01*
X7521786Y-21361500D01*
X7550357Y-21347214D01*
X7778928Y-21647214D02*
X7778928Y-21447214D01*
X7778928Y-21475786D02*
X7793214Y-21461500D01*
X7821786Y-21447214D01*
X7864643Y-21447214D01*
X7893214Y-21461500D01*
X7907500Y-21490072D01*
X7907500Y-21647214D01*
X7907500Y-21490072D02*
X7921786Y-21461500D01*
X7950357Y-21447214D01*
X7993214Y-21447214D01*
X8021786Y-21461500D01*
X8036071Y-21490072D01*
X8036071Y-21647214D01*
X8178928Y-21647214D02*
X8178928Y-21447214D01*
X8178928Y-21475786D02*
X8193214Y-21461500D01*
X8221786Y-21447214D01*
X8264643Y-21447214D01*
X8293214Y-21461500D01*
X8307500Y-21490072D01*
X8307500Y-21647214D01*
X8307500Y-21490072D02*
X8321786Y-21461500D01*
X8350357Y-21447214D01*
X8393214Y-21447214D01*
X8421786Y-21461500D01*
X8436071Y-21490072D01*
X8436071Y-21647214D01*
X9021786Y-21332929D02*
X8764643Y-21718643D01*
X9407500Y-21347214D02*
X9436071Y-21347214D01*
X9464643Y-21361500D01*
X9478928Y-21375786D01*
X9493214Y-21404357D01*
X9507500Y-21461500D01*
X9507500Y-21532929D01*
X9493214Y-21590072D01*
X9478928Y-21618643D01*
X9464643Y-21632929D01*
X9436071Y-21647214D01*
X9407500Y-21647214D01*
X9378928Y-21632929D01*
X9364643Y-21618643D01*
X9350357Y-21590072D01*
X9336071Y-21532929D01*
X9336071Y-21461500D01*
X9350357Y-21404357D01*
X9364643Y-21375786D01*
X9378928Y-21361500D01*
X9407500Y-21347214D01*
X9636071Y-21618643D02*
X9650357Y-21632929D01*
X9636071Y-21647214D01*
X9621786Y-21632929D01*
X9636071Y-21618643D01*
X9636071Y-21647214D01*
X9836071Y-21347214D02*
X9864643Y-21347214D01*
X9893214Y-21361500D01*
X9907500Y-21375786D01*
X9921786Y-21404357D01*
X9936071Y-21461500D01*
X9936071Y-21532929D01*
X9921786Y-21590072D01*
X9907500Y-21618643D01*
X9893214Y-21632929D01*
X9864643Y-21647214D01*
X9836071Y-21647214D01*
X9807500Y-21632929D01*
X9793214Y-21618643D01*
X9778928Y-21590072D01*
X9764643Y-21532929D01*
X9764643Y-21461500D01*
X9778928Y-21404357D01*
X9793214Y-21375786D01*
X9807500Y-21361500D01*
X9836071Y-21347214D01*
X10036071Y-21347214D02*
X10236071Y-21347214D01*
X10107500Y-21647214D01*
X10364643Y-21647214D02*
X10421786Y-21647214D01*
X10450357Y-21632929D01*
X10464643Y-21618643D01*
X10493214Y-21575786D01*
X10507500Y-21518643D01*
X10507500Y-21404357D01*
X10493214Y-21375786D01*
X10478928Y-21361500D01*
X10450357Y-21347214D01*
X10393214Y-21347214D01*
X10364643Y-21361500D01*
X10350357Y-21375786D01*
X10336071Y-21404357D01*
X10336071Y-21475786D01*
X10350357Y-21504357D01*
X10364643Y-21518643D01*
X10393214Y-21532929D01*
X10450357Y-21532929D01*
X10478928Y-21518643D01*
X10493214Y-21504357D01*
X10507500Y-21475786D01*
X10621786Y-21347214D02*
X10621786Y-21404357D01*
X10736071Y-21347214D02*
X10736071Y-21404357D01*
X11178928Y-21761500D02*
X11164643Y-21747214D01*
X11136071Y-21704357D01*
X11121786Y-21675786D01*
X11107500Y-21632929D01*
X11093214Y-21561500D01*
X11093214Y-21504357D01*
X11107500Y-21432929D01*
X11121786Y-21390072D01*
X11136071Y-21361500D01*
X11164643Y-21318643D01*
X11178928Y-21304357D01*
X11336071Y-21475786D02*
X11307500Y-21461500D01*
X11293214Y-21447214D01*
X11278928Y-21418643D01*
X11278928Y-21404357D01*
X11293214Y-21375786D01*
X11307500Y-21361500D01*
X11336071Y-21347214D01*
X11393214Y-21347214D01*
X11421786Y-21361500D01*
X11436071Y-21375786D01*
X11450357Y-21404357D01*
X11450357Y-21418643D01*
X11436071Y-21447214D01*
X11421786Y-21461500D01*
X11393214Y-21475786D01*
X11336071Y-21475786D01*
X11307500Y-21490072D01*
X11293214Y-21504357D01*
X11278928Y-21532929D01*
X11278928Y-21590072D01*
X11293214Y-21618643D01*
X11307500Y-21632929D01*
X11336071Y-21647214D01*
X11393214Y-21647214D01*
X11421786Y-21632929D01*
X11436071Y-21618643D01*
X11450357Y-21590072D01*
X11450357Y-21532929D01*
X11436071Y-21504357D01*
X11421786Y-21490072D01*
X11393214Y-21475786D01*
X11807500Y-21647214D02*
X11807500Y-21347214D01*
X11936071Y-21647214D02*
X11936071Y-21490072D01*
X11921786Y-21461500D01*
X11893214Y-21447214D01*
X11850357Y-21447214D01*
X11821786Y-21461500D01*
X11807500Y-21475786D01*
X12121786Y-21647214D02*
X12093214Y-21632929D01*
X12078928Y-21618643D01*
X12064643Y-21590072D01*
X12064643Y-21504357D01*
X12078928Y-21475786D01*
X12093214Y-21461500D01*
X12121786Y-21447214D01*
X12164643Y-21447214D01*
X12193214Y-21461500D01*
X12207500Y-21475786D01*
X12221786Y-21504357D01*
X12221786Y-21590072D01*
X12207500Y-21618643D01*
X12193214Y-21632929D01*
X12164643Y-21647214D01*
X12121786Y-21647214D01*
X12393214Y-21647214D02*
X12364643Y-21632929D01*
X12350357Y-21604357D01*
X12350357Y-21347214D01*
X12621786Y-21632929D02*
X12593214Y-21647214D01*
X12536071Y-21647214D01*
X12507500Y-21632929D01*
X12493214Y-21604357D01*
X12493214Y-21490072D01*
X12507500Y-21461500D01*
X12536071Y-21447214D01*
X12593214Y-21447214D01*
X12621786Y-21461500D01*
X12636071Y-21490072D01*
X12636071Y-21518643D01*
X12493214Y-21547214D01*
X12750357Y-21632929D02*
X12778928Y-21647214D01*
X12836071Y-21647214D01*
X12864643Y-21632929D01*
X12878928Y-21604357D01*
X12878928Y-21590072D01*
X12864643Y-21561500D01*
X12836071Y-21547214D01*
X12793214Y-21547214D01*
X12764643Y-21532929D01*
X12750357Y-21504357D01*
X12750357Y-21490072D01*
X12764643Y-21461500D01*
X12793214Y-21447214D01*
X12836071Y-21447214D01*
X12864643Y-21461500D01*
X12978928Y-21761500D02*
X12993214Y-21747214D01*
X13021786Y-21704357D01*
X13036071Y-21675786D01*
X13050357Y-21632929D01*
X13064643Y-21561500D01*
X13064643Y-21504357D01*
X13050357Y-21432929D01*
X13036071Y-21390072D01*
X13021786Y-21361500D01*
X12993214Y-21318643D01*
X12978928Y-21304357D01*
X6242500Y-21782500D02*
X6492500Y-22032500D01*
X6492500Y-21782500D02*
X6242500Y-22032500D01*
X6367500Y-21782500D02*
X6367500Y-22032500D01*
X6242500Y-21907500D02*
X6492500Y-21907500D01*
X6492500Y-21907500D02*
G75*
G03X6492500Y-21907500I-125000J0D01*
G01*
X6764643Y-21771786D02*
X6778928Y-21757500D01*
X6807500Y-21743214D01*
X6878928Y-21743214D01*
X6907500Y-21757500D01*
X6921786Y-21771786D01*
X6936071Y-21800357D01*
X6936071Y-21828929D01*
X6921786Y-21871786D01*
X6750357Y-22043214D01*
X6936071Y-22043214D01*
X7064643Y-22014643D02*
X7078928Y-22028929D01*
X7064643Y-22043214D01*
X7050357Y-22028929D01*
X7064643Y-22014643D01*
X7064643Y-22043214D01*
X7350357Y-21743214D02*
X7207500Y-21743214D01*
X7193214Y-21886072D01*
X7207500Y-21871786D01*
X7236071Y-21857500D01*
X7307500Y-21857500D01*
X7336071Y-21871786D01*
X7350357Y-21886072D01*
X7364643Y-21914643D01*
X7364643Y-21986072D01*
X7350357Y-22014643D01*
X7336071Y-22028929D01*
X7307500Y-22043214D01*
X7236071Y-22043214D01*
X7207500Y-22028929D01*
X7193214Y-22014643D01*
X7550357Y-21743214D02*
X7578928Y-21743214D01*
X7607500Y-21757500D01*
X7621786Y-21771786D01*
X7636071Y-21800357D01*
X7650357Y-21857500D01*
X7650357Y-21928929D01*
X7636071Y-21986072D01*
X7621786Y-22014643D01*
X7607500Y-22028929D01*
X7578928Y-22043214D01*
X7550357Y-22043214D01*
X7521786Y-22028929D01*
X7507500Y-22014643D01*
X7493214Y-21986072D01*
X7478928Y-21928929D01*
X7478928Y-21857500D01*
X7493214Y-21800357D01*
X7507500Y-21771786D01*
X7521786Y-21757500D01*
X7550357Y-21743214D01*
X7778928Y-22043214D02*
X7778928Y-21843214D01*
X7778928Y-21871786D02*
X7793214Y-21857500D01*
X7821786Y-21843214D01*
X7864643Y-21843214D01*
X7893214Y-21857500D01*
X7907500Y-21886072D01*
X7907500Y-22043214D01*
X7907500Y-21886072D02*
X7921786Y-21857500D01*
X7950357Y-21843214D01*
X7993214Y-21843214D01*
X8021786Y-21857500D01*
X8036071Y-21886072D01*
X8036071Y-22043214D01*
X8178928Y-22043214D02*
X8178928Y-21843214D01*
X8178928Y-21871786D02*
X8193214Y-21857500D01*
X8221786Y-21843214D01*
X8264643Y-21843214D01*
X8293214Y-21857500D01*
X8307500Y-21886072D01*
X8307500Y-22043214D01*
X8307500Y-21886072D02*
X8321786Y-21857500D01*
X8350357Y-21843214D01*
X8393214Y-21843214D01*
X8421786Y-21857500D01*
X8436071Y-21886072D01*
X8436071Y-22043214D01*
X9021786Y-21728929D02*
X8764643Y-22114643D01*
X9407500Y-21743214D02*
X9436071Y-21743214D01*
X9464643Y-21757500D01*
X9478928Y-21771786D01*
X9493214Y-21800357D01*
X9507500Y-21857500D01*
X9507500Y-21928929D01*
X9493214Y-21986072D01*
X9478928Y-22014643D01*
X9464643Y-22028929D01*
X9436071Y-22043214D01*
X9407500Y-22043214D01*
X9378928Y-22028929D01*
X9364643Y-22014643D01*
X9350357Y-21986072D01*
X9336071Y-21928929D01*
X9336071Y-21857500D01*
X9350357Y-21800357D01*
X9364643Y-21771786D01*
X9378928Y-21757500D01*
X9407500Y-21743214D01*
X9636071Y-22014643D02*
X9650357Y-22028929D01*
X9636071Y-22043214D01*
X9621786Y-22028929D01*
X9636071Y-22014643D01*
X9636071Y-22043214D01*
X9836071Y-21743214D02*
X9864643Y-21743214D01*
X9893214Y-21757500D01*
X9907500Y-21771786D01*
X9921786Y-21800357D01*
X9936071Y-21857500D01*
X9936071Y-21928929D01*
X9921786Y-21986072D01*
X9907500Y-22014643D01*
X9893214Y-22028929D01*
X9864643Y-22043214D01*
X9836071Y-22043214D01*
X9807500Y-22028929D01*
X9793214Y-22014643D01*
X9778928Y-21986072D01*
X9764643Y-21928929D01*
X9764643Y-21857500D01*
X9778928Y-21800357D01*
X9793214Y-21771786D01*
X9807500Y-21757500D01*
X9836071Y-21743214D01*
X10078928Y-22043214D02*
X10136071Y-22043214D01*
X10164643Y-22028929D01*
X10178928Y-22014643D01*
X10207500Y-21971786D01*
X10221786Y-21914643D01*
X10221786Y-21800357D01*
X10207500Y-21771786D01*
X10193214Y-21757500D01*
X10164643Y-21743214D01*
X10107500Y-21743214D01*
X10078928Y-21757500D01*
X10064643Y-21771786D01*
X10050357Y-21800357D01*
X10050357Y-21871786D01*
X10064643Y-21900357D01*
X10078928Y-21914643D01*
X10107500Y-21928929D01*
X10164643Y-21928929D01*
X10193214Y-21914643D01*
X10207500Y-21900357D01*
X10221786Y-21871786D01*
X10393214Y-21871786D02*
X10364643Y-21857500D01*
X10350357Y-21843214D01*
X10336071Y-21814643D01*
X10336071Y-21800357D01*
X10350357Y-21771786D01*
X10364643Y-21757500D01*
X10393214Y-21743214D01*
X10450357Y-21743214D01*
X10478928Y-21757500D01*
X10493214Y-21771786D01*
X10507500Y-21800357D01*
X10507500Y-21814643D01*
X10493214Y-21843214D01*
X10478928Y-21857500D01*
X10450357Y-21871786D01*
X10393214Y-21871786D01*
X10364643Y-21886072D01*
X10350357Y-21900357D01*
X10336071Y-21928929D01*
X10336071Y-21986072D01*
X10350357Y-22014643D01*
X10364643Y-22028929D01*
X10393214Y-22043214D01*
X10450357Y-22043214D01*
X10478928Y-22028929D01*
X10493214Y-22014643D01*
X10507500Y-21986072D01*
X10507500Y-21928929D01*
X10493214Y-21900357D01*
X10478928Y-21886072D01*
X10450357Y-21871786D01*
X10621786Y-21743214D02*
X10621786Y-21800357D01*
X10736071Y-21743214D02*
X10736071Y-21800357D01*
X11178928Y-22157500D02*
X11164643Y-22143214D01*
X11136071Y-22100357D01*
X11121786Y-22071786D01*
X11107500Y-22028929D01*
X11093214Y-21957500D01*
X11093214Y-21900357D01*
X11107500Y-21828929D01*
X11121786Y-21786072D01*
X11136071Y-21757500D01*
X11164643Y-21714643D01*
X11178928Y-21700357D01*
X11278928Y-21771786D02*
X11293214Y-21757500D01*
X11321786Y-21743214D01*
X11393214Y-21743214D01*
X11421786Y-21757500D01*
X11436071Y-21771786D01*
X11450357Y-21800357D01*
X11450357Y-21828929D01*
X11436071Y-21871786D01*
X11264643Y-22043214D01*
X11450357Y-22043214D01*
X11807500Y-22043214D02*
X11807500Y-21743214D01*
X11936071Y-22043214D02*
X11936071Y-21886072D01*
X11921786Y-21857500D01*
X11893214Y-21843214D01*
X11850357Y-21843214D01*
X11821786Y-21857500D01*
X11807500Y-21871786D01*
X12121786Y-22043214D02*
X12093214Y-22028929D01*
X12078928Y-22014643D01*
X12064643Y-21986072D01*
X12064643Y-21900357D01*
X12078928Y-21871786D01*
X12093214Y-21857500D01*
X12121786Y-21843214D01*
X12164643Y-21843214D01*
X12193214Y-21857500D01*
X12207500Y-21871786D01*
X12221786Y-21900357D01*
X12221786Y-21986072D01*
X12207500Y-22014643D01*
X12193214Y-22028929D01*
X12164643Y-22043214D01*
X12121786Y-22043214D01*
X12393214Y-22043214D02*
X12364643Y-22028929D01*
X12350357Y-22000357D01*
X12350357Y-21743214D01*
X12621786Y-22028929D02*
X12593214Y-22043214D01*
X12536071Y-22043214D01*
X12507500Y-22028929D01*
X12493214Y-22000357D01*
X12493214Y-21886072D01*
X12507500Y-21857500D01*
X12536071Y-21843214D01*
X12593214Y-21843214D01*
X12621786Y-21857500D01*
X12636071Y-21886072D01*
X12636071Y-21914643D01*
X12493214Y-21943214D01*
X12750357Y-22028929D02*
X12778928Y-22043214D01*
X12836071Y-22043214D01*
X12864643Y-22028929D01*
X12878928Y-22000357D01*
X12878928Y-21986072D01*
X12864643Y-21957500D01*
X12836071Y-21943214D01*
X12793214Y-21943214D01*
X12764643Y-21928929D01*
X12750357Y-21900357D01*
X12750357Y-21886072D01*
X12764643Y-21857500D01*
X12793214Y-21843214D01*
X12836071Y-21843214D01*
X12864643Y-21857500D01*
X12978928Y-22157500D02*
X12993214Y-22143214D01*
X13021786Y-22100357D01*
X13036071Y-22071786D01*
X13050357Y-22028929D01*
X13064643Y-21957500D01*
X13064643Y-21900357D01*
X13050357Y-21828929D01*
X13036071Y-21786072D01*
X13021786Y-21757500D01*
X12993214Y-21714643D01*
X12978928Y-21700357D01*
X6182500Y-22148500D02*
X6492500Y-22458500D01*
X6492500Y-22148500D02*
X6182500Y-22458500D01*
X6447102Y-22413103D02*
X6447102Y-22193898D01*
X6227897Y-22193898D01*
X6227897Y-22413103D01*
X6447102Y-22413103D01*
X6492500Y-22303500D02*
G75*
G03X6492500Y-22303500I-155000J0D01*
G01*
X6750357Y-22139214D02*
X6936071Y-22139214D01*
X6836071Y-22253500D01*
X6878928Y-22253500D01*
X6907500Y-22267786D01*
X6921786Y-22282072D01*
X6936071Y-22310643D01*
X6936071Y-22382071D01*
X6921786Y-22410643D01*
X6907500Y-22424929D01*
X6878928Y-22439214D01*
X6793214Y-22439214D01*
X6764643Y-22424929D01*
X6750357Y-22410643D01*
X7064643Y-22410643D02*
X7078928Y-22424929D01*
X7064643Y-22439214D01*
X7050357Y-22424929D01*
X7064643Y-22410643D01*
X7064643Y-22439214D01*
X7364643Y-22439214D02*
X7193214Y-22439214D01*
X7278928Y-22439214D02*
X7278928Y-22139214D01*
X7250357Y-22182072D01*
X7221786Y-22210643D01*
X7193214Y-22224929D01*
X7550357Y-22139214D02*
X7578928Y-22139214D01*
X7607500Y-22153500D01*
X7621786Y-22167786D01*
X7636071Y-22196357D01*
X7650357Y-22253500D01*
X7650357Y-22324929D01*
X7636071Y-22382071D01*
X7621786Y-22410643D01*
X7607500Y-22424929D01*
X7578928Y-22439214D01*
X7550357Y-22439214D01*
X7521786Y-22424929D01*
X7507500Y-22410643D01*
X7493214Y-22382071D01*
X7478928Y-22324929D01*
X7478928Y-22253500D01*
X7493214Y-22196357D01*
X7507500Y-22167786D01*
X7521786Y-22153500D01*
X7550357Y-22139214D01*
X7778928Y-22439214D02*
X7778928Y-22239214D01*
X7778928Y-22267786D02*
X7793214Y-22253500D01*
X7821786Y-22239214D01*
X7864643Y-22239214D01*
X7893214Y-22253500D01*
X7907500Y-22282072D01*
X7907500Y-22439214D01*
X7907500Y-22282072D02*
X7921786Y-22253500D01*
X7950357Y-22239214D01*
X7993214Y-22239214D01*
X8021786Y-22253500D01*
X8036071Y-22282072D01*
X8036071Y-22439214D01*
X8178928Y-22439214D02*
X8178928Y-22239214D01*
X8178928Y-22267786D02*
X8193214Y-22253500D01*
X8221786Y-22239214D01*
X8264643Y-22239214D01*
X8293214Y-22253500D01*
X8307500Y-22282072D01*
X8307500Y-22439214D01*
X8307500Y-22282072D02*
X8321786Y-22253500D01*
X8350357Y-22239214D01*
X8393214Y-22239214D01*
X8421786Y-22253500D01*
X8436071Y-22282072D01*
X8436071Y-22439214D01*
X9021786Y-22124929D02*
X8764643Y-22510643D01*
X9407500Y-22139214D02*
X9436071Y-22139214D01*
X9464643Y-22153500D01*
X9478928Y-22167786D01*
X9493214Y-22196357D01*
X9507500Y-22253500D01*
X9507500Y-22324929D01*
X9493214Y-22382071D01*
X9478928Y-22410643D01*
X9464643Y-22424929D01*
X9436071Y-22439214D01*
X9407500Y-22439214D01*
X9378928Y-22424929D01*
X9364643Y-22410643D01*
X9350357Y-22382071D01*
X9336071Y-22324929D01*
X9336071Y-22253500D01*
X9350357Y-22196357D01*
X9364643Y-22167786D01*
X9378928Y-22153500D01*
X9407500Y-22139214D01*
X9636071Y-22410643D02*
X9650357Y-22424929D01*
X9636071Y-22439214D01*
X9621786Y-22424929D01*
X9636071Y-22410643D01*
X9636071Y-22439214D01*
X9936071Y-22439214D02*
X9764643Y-22439214D01*
X9850357Y-22439214D02*
X9850357Y-22139214D01*
X9821786Y-22182072D01*
X9793214Y-22210643D01*
X9764643Y-22224929D01*
X10050357Y-22167786D02*
X10064643Y-22153500D01*
X10093214Y-22139214D01*
X10164643Y-22139214D01*
X10193214Y-22153500D01*
X10207500Y-22167786D01*
X10221786Y-22196357D01*
X10221786Y-22224929D01*
X10207500Y-22267786D01*
X10036071Y-22439214D01*
X10221786Y-22439214D01*
X10336071Y-22167786D02*
X10350357Y-22153500D01*
X10378928Y-22139214D01*
X10450357Y-22139214D01*
X10478928Y-22153500D01*
X10493214Y-22167786D01*
X10507500Y-22196357D01*
X10507500Y-22224929D01*
X10493214Y-22267786D01*
X10321786Y-22439214D01*
X10507500Y-22439214D01*
X10621786Y-22139214D02*
X10621786Y-22196357D01*
X10736071Y-22139214D02*
X10736071Y-22196357D01*
X11178928Y-22553500D02*
X11164643Y-22539214D01*
X11136071Y-22496357D01*
X11121786Y-22467786D01*
X11107500Y-22424929D01*
X11093214Y-22353500D01*
X11093214Y-22296357D01*
X11107500Y-22224929D01*
X11121786Y-22182072D01*
X11136071Y-22153500D01*
X11164643Y-22110643D01*
X11178928Y-22096357D01*
X11278928Y-22167786D02*
X11293214Y-22153500D01*
X11321786Y-22139214D01*
X11393214Y-22139214D01*
X11421786Y-22153500D01*
X11436071Y-22167786D01*
X11450357Y-22196357D01*
X11450357Y-22224929D01*
X11436071Y-22267786D01*
X11264643Y-22439214D01*
X11450357Y-22439214D01*
X11807500Y-22439214D02*
X11807500Y-22139214D01*
X11936071Y-22439214D02*
X11936071Y-22282072D01*
X11921786Y-22253500D01*
X11893214Y-22239214D01*
X11850357Y-22239214D01*
X11821786Y-22253500D01*
X11807500Y-22267786D01*
X12121786Y-22439214D02*
X12093214Y-22424929D01*
X12078928Y-22410643D01*
X12064643Y-22382071D01*
X12064643Y-22296357D01*
X12078928Y-22267786D01*
X12093214Y-22253500D01*
X12121786Y-22239214D01*
X12164643Y-22239214D01*
X12193214Y-22253500D01*
X12207500Y-22267786D01*
X12221786Y-22296357D01*
X12221786Y-22382071D01*
X12207500Y-22410643D01*
X12193214Y-22424929D01*
X12164643Y-22439214D01*
X12121786Y-22439214D01*
X12393214Y-22439214D02*
X12364643Y-22424929D01*
X12350357Y-22396357D01*
X12350357Y-22139214D01*
X12621786Y-22424929D02*
X12593214Y-22439214D01*
X12536071Y-22439214D01*
X12507500Y-22424929D01*
X12493214Y-22396357D01*
X12493214Y-22282072D01*
X12507500Y-22253500D01*
X12536071Y-22239214D01*
X12593214Y-22239214D01*
X12621786Y-22253500D01*
X12636071Y-22282072D01*
X12636071Y-22310643D01*
X12493214Y-22339214D01*
X12750357Y-22424929D02*
X12778928Y-22439214D01*
X12836071Y-22439214D01*
X12864643Y-22424929D01*
X12878928Y-22396357D01*
X12878928Y-22382071D01*
X12864643Y-22353500D01*
X12836071Y-22339214D01*
X12793214Y-22339214D01*
X12764643Y-22324929D01*
X12750357Y-22296357D01*
X12750357Y-22282072D01*
X12764643Y-22253500D01*
X12793214Y-22239214D01*
X12836071Y-22239214D01*
X12864643Y-22253500D01*
X12978928Y-22553500D02*
X12993214Y-22539214D01*
X13021786Y-22496357D01*
X13036071Y-22467786D01*
X13050357Y-22424929D01*
X13064643Y-22353500D01*
X13064643Y-22296357D01*
X13050357Y-22224929D01*
X13036071Y-22182072D01*
X13021786Y-22153500D01*
X12993214Y-22110643D01*
X12978928Y-22096357D01*
X6172500Y-22583500D02*
X6492500Y-22903500D01*
X6492500Y-22583500D02*
X6172500Y-22903500D01*
X6332500Y-22903500D02*
X6492500Y-22743500D01*
X6332500Y-22583500D01*
X6172500Y-22743500D01*
X6332500Y-22903500D01*
X6492500Y-22743500D02*
G75*
G03X6492500Y-22743500I-160000J0D01*
G01*
X6750357Y-22579214D02*
X6936071Y-22579214D01*
X6836071Y-22693500D01*
X6878928Y-22693500D01*
X6907500Y-22707786D01*
X6921786Y-22722071D01*
X6936071Y-22750643D01*
X6936071Y-22822071D01*
X6921786Y-22850643D01*
X6907500Y-22864929D01*
X6878928Y-22879214D01*
X6793214Y-22879214D01*
X6764643Y-22864929D01*
X6750357Y-22850643D01*
X7064643Y-22850643D02*
X7078928Y-22864929D01*
X7064643Y-22879214D01*
X7050357Y-22864929D01*
X7064643Y-22850643D01*
X7064643Y-22879214D01*
X7193214Y-22607786D02*
X7207500Y-22593500D01*
X7236071Y-22579214D01*
X7307500Y-22579214D01*
X7336071Y-22593500D01*
X7350357Y-22607786D01*
X7364643Y-22636357D01*
X7364643Y-22664929D01*
X7350357Y-22707786D01*
X7178928Y-22879214D01*
X7364643Y-22879214D01*
X7550357Y-22579214D02*
X7578928Y-22579214D01*
X7607500Y-22593500D01*
X7621786Y-22607786D01*
X7636071Y-22636357D01*
X7650357Y-22693500D01*
X7650357Y-22764929D01*
X7636071Y-22822071D01*
X7621786Y-22850643D01*
X7607500Y-22864929D01*
X7578928Y-22879214D01*
X7550357Y-22879214D01*
X7521786Y-22864929D01*
X7507500Y-22850643D01*
X7493214Y-22822071D01*
X7478928Y-22764929D01*
X7478928Y-22693500D01*
X7493214Y-22636357D01*
X7507500Y-22607786D01*
X7521786Y-22593500D01*
X7550357Y-22579214D01*
X7778928Y-22879214D02*
X7778928Y-22679214D01*
X7778928Y-22707786D02*
X7793214Y-22693500D01*
X7821786Y-22679214D01*
X7864643Y-22679214D01*
X7893214Y-22693500D01*
X7907500Y-22722071D01*
X7907500Y-22879214D01*
X7907500Y-22722071D02*
X7921786Y-22693500D01*
X7950357Y-22679214D01*
X7993214Y-22679214D01*
X8021786Y-22693500D01*
X8036071Y-22722071D01*
X8036071Y-22879214D01*
X8178928Y-22879214D02*
X8178928Y-22679214D01*
X8178928Y-22707786D02*
X8193214Y-22693500D01*
X8221786Y-22679214D01*
X8264643Y-22679214D01*
X8293214Y-22693500D01*
X8307500Y-22722071D01*
X8307500Y-22879214D01*
X8307500Y-22722071D02*
X8321786Y-22693500D01*
X8350357Y-22679214D01*
X8393214Y-22679214D01*
X8421786Y-22693500D01*
X8436071Y-22722071D01*
X8436071Y-22879214D01*
X9021786Y-22564929D02*
X8764643Y-22950643D01*
X9407500Y-22579214D02*
X9436071Y-22579214D01*
X9464643Y-22593500D01*
X9478928Y-22607786D01*
X9493214Y-22636357D01*
X9507500Y-22693500D01*
X9507500Y-22764929D01*
X9493214Y-22822071D01*
X9478928Y-22850643D01*
X9464643Y-22864929D01*
X9436071Y-22879214D01*
X9407500Y-22879214D01*
X9378928Y-22864929D01*
X9364643Y-22850643D01*
X9350357Y-22822071D01*
X9336071Y-22764929D01*
X9336071Y-22693500D01*
X9350357Y-22636357D01*
X9364643Y-22607786D01*
X9378928Y-22593500D01*
X9407500Y-22579214D01*
X9636071Y-22850643D02*
X9650357Y-22864929D01*
X9636071Y-22879214D01*
X9621786Y-22864929D01*
X9636071Y-22850643D01*
X9636071Y-22879214D01*
X9936071Y-22879214D02*
X9764643Y-22879214D01*
X9850357Y-22879214D02*
X9850357Y-22579214D01*
X9821786Y-22622071D01*
X9793214Y-22650643D01*
X9764643Y-22664929D01*
X10050357Y-22607786D02*
X10064643Y-22593500D01*
X10093214Y-22579214D01*
X10164643Y-22579214D01*
X10193214Y-22593500D01*
X10207500Y-22607786D01*
X10221786Y-22636357D01*
X10221786Y-22664929D01*
X10207500Y-22707786D01*
X10036071Y-22879214D01*
X10221786Y-22879214D01*
X10478928Y-22579214D02*
X10421786Y-22579214D01*
X10393214Y-22593500D01*
X10378928Y-22607786D01*
X10350357Y-22650643D01*
X10336071Y-22707786D01*
X10336071Y-22822071D01*
X10350357Y-22850643D01*
X10364643Y-22864929D01*
X10393214Y-22879214D01*
X10450357Y-22879214D01*
X10478928Y-22864929D01*
X10493214Y-22850643D01*
X10507500Y-22822071D01*
X10507500Y-22750643D01*
X10493214Y-22722071D01*
X10478928Y-22707786D01*
X10450357Y-22693500D01*
X10393214Y-22693500D01*
X10364643Y-22707786D01*
X10350357Y-22722071D01*
X10336071Y-22750643D01*
X10621786Y-22579214D02*
X10621786Y-22636357D01*
X10736071Y-22579214D02*
X10736071Y-22636357D01*
X11178928Y-22993500D02*
X11164643Y-22979214D01*
X11136071Y-22936357D01*
X11121786Y-22907786D01*
X11107500Y-22864929D01*
X11093214Y-22793500D01*
X11093214Y-22736357D01*
X11107500Y-22664929D01*
X11121786Y-22622071D01*
X11136071Y-22593500D01*
X11164643Y-22550643D01*
X11178928Y-22536357D01*
X11421786Y-22579214D02*
X11364643Y-22579214D01*
X11336071Y-22593500D01*
X11321786Y-22607786D01*
X11293214Y-22650643D01*
X11278928Y-22707786D01*
X11278928Y-22822071D01*
X11293214Y-22850643D01*
X11307500Y-22864929D01*
X11336071Y-22879214D01*
X11393214Y-22879214D01*
X11421786Y-22864929D01*
X11436071Y-22850643D01*
X11450357Y-22822071D01*
X11450357Y-22750643D01*
X11436071Y-22722071D01*
X11421786Y-22707786D01*
X11393214Y-22693500D01*
X11336071Y-22693500D01*
X11307500Y-22707786D01*
X11293214Y-22722071D01*
X11278928Y-22750643D01*
X11807500Y-22879214D02*
X11807500Y-22579214D01*
X11936071Y-22879214D02*
X11936071Y-22722071D01*
X11921786Y-22693500D01*
X11893214Y-22679214D01*
X11850357Y-22679214D01*
X11821786Y-22693500D01*
X11807500Y-22707786D01*
X12121786Y-22879214D02*
X12093214Y-22864929D01*
X12078928Y-22850643D01*
X12064643Y-22822071D01*
X12064643Y-22736357D01*
X12078928Y-22707786D01*
X12093214Y-22693500D01*
X12121786Y-22679214D01*
X12164643Y-22679214D01*
X12193214Y-22693500D01*
X12207500Y-22707786D01*
X12221786Y-22736357D01*
X12221786Y-22822071D01*
X12207500Y-22850643D01*
X12193214Y-22864929D01*
X12164643Y-22879214D01*
X12121786Y-22879214D01*
X12393214Y-22879214D02*
X12364643Y-22864929D01*
X12350357Y-22836357D01*
X12350357Y-22579214D01*
X12621786Y-22864929D02*
X12593214Y-22879214D01*
X12536071Y-22879214D01*
X12507500Y-22864929D01*
X12493214Y-22836357D01*
X12493214Y-22722071D01*
X12507500Y-22693500D01*
X12536071Y-22679214D01*
X12593214Y-22679214D01*
X12621786Y-22693500D01*
X12636071Y-22722071D01*
X12636071Y-22750643D01*
X12493214Y-22779214D01*
X12750357Y-22864929D02*
X12778928Y-22879214D01*
X12836071Y-22879214D01*
X12864643Y-22864929D01*
X12878928Y-22836357D01*
X12878928Y-22822071D01*
X12864643Y-22793500D01*
X12836071Y-22779214D01*
X12793214Y-22779214D01*
X12764643Y-22764929D01*
X12750357Y-22736357D01*
X12750357Y-22722071D01*
X12764643Y-22693500D01*
X12793214Y-22679214D01*
X12836071Y-22679214D01*
X12864643Y-22693500D01*
X12978928Y-22993500D02*
X12993214Y-22979214D01*
X13021786Y-22936357D01*
X13036071Y-22907786D01*
X13050357Y-22864929D01*
X13064643Y-22793500D01*
X13064643Y-22736357D01*
X13050357Y-22664929D01*
X13036071Y-22622071D01*
X13021786Y-22593500D01*
X12993214Y-22550643D01*
X12978928Y-22536357D01*
M02*
