%FSLAX45Y45*%
G04 Gerber Fmt 4.5, Leading zero omitted, Abs format (unit mm)*
G04 Created by KiCad (PCBNEW (5.1.0-163-gb6a0bf114)) date 2019-04-07 22:36:57*
%MOMM*%
%LPD*%
G04 APERTURE LIST*
%ADD10C,0.150000*%
%ADD11C,0.200000*%
%ADD12C,0.300000*%
G04 APERTURE END LIST*
D10*
X6500000Y-15000000D02*
X6500000Y-5000000D01*
X22500000Y-15000000D02*
X6500000Y-15000000D01*
X22500000Y-5000000D02*
X22500000Y-15000000D01*
X6500000Y-5000000D02*
X22500000Y-5000000D01*
D11*
D12*
X6778928Y-15473214D02*
X6778928Y-15173214D01*
X6850357Y-15173214D01*
X6893214Y-15187500D01*
X6921786Y-15216071D01*
X6936071Y-15244643D01*
X6950357Y-15301786D01*
X6950357Y-15344643D01*
X6936071Y-15401786D01*
X6921786Y-15430357D01*
X6893214Y-15458929D01*
X6850357Y-15473214D01*
X6778928Y-15473214D01*
X7078928Y-15473214D02*
X7078928Y-15273214D01*
X7078928Y-15330357D02*
X7093214Y-15301786D01*
X7107500Y-15287500D01*
X7136071Y-15273214D01*
X7164643Y-15273214D01*
X7264643Y-15473214D02*
X7264643Y-15273214D01*
X7264643Y-15173214D02*
X7250357Y-15187500D01*
X7264643Y-15201786D01*
X7278928Y-15187500D01*
X7264643Y-15173214D01*
X7264643Y-15201786D01*
X7450357Y-15473214D02*
X7421786Y-15458929D01*
X7407500Y-15430357D01*
X7407500Y-15173214D01*
X7607500Y-15473214D02*
X7578928Y-15458929D01*
X7564643Y-15430357D01*
X7564643Y-15173214D01*
X7950357Y-15473214D02*
X7950357Y-15173214D01*
X8050357Y-15387500D01*
X8150357Y-15173214D01*
X8150357Y-15473214D01*
X8421786Y-15473214D02*
X8421786Y-15316071D01*
X8407500Y-15287500D01*
X8378928Y-15273214D01*
X8321786Y-15273214D01*
X8293214Y-15287500D01*
X8421786Y-15458929D02*
X8393214Y-15473214D01*
X8321786Y-15473214D01*
X8293214Y-15458929D01*
X8278928Y-15430357D01*
X8278928Y-15401786D01*
X8293214Y-15373214D01*
X8321786Y-15358929D01*
X8393214Y-15358929D01*
X8421786Y-15344643D01*
X8564643Y-15273214D02*
X8564643Y-15573214D01*
X8564643Y-15287500D02*
X8593214Y-15273214D01*
X8650357Y-15273214D01*
X8678928Y-15287500D01*
X8693214Y-15301786D01*
X8707500Y-15330357D01*
X8707500Y-15416071D01*
X8693214Y-15444643D01*
X8678928Y-15458929D01*
X8650357Y-15473214D01*
X8593214Y-15473214D01*
X8564643Y-15458929D01*
X8836071Y-15444643D02*
X8850357Y-15458929D01*
X8836071Y-15473214D01*
X8821786Y-15458929D01*
X8836071Y-15444643D01*
X8836071Y-15473214D01*
X8836071Y-15287500D02*
X8850357Y-15301786D01*
X8836071Y-15316071D01*
X8821786Y-15301786D01*
X8836071Y-15287500D01*
X8836071Y-15316071D01*
M02*
