G04 This is an RS-274x file exported by *
G04 gerbv version 2.6.1 *
G04 More information is available about gerbv at *
G04 http://gerbv.geda-project.org/ *
G04 --End of header info--*
%MOIN*%
%FSLAX34Y34*%
%IPPOS*%
G04 --Define apertures--*
%ADD10C,0.0039*%
%ADD11C,0.0492*%
%ADD12R,0.1299X0.0669*%
%ADD13R,0.0670X0.0210*%
%ADD14R,0.0354X0.0315*%
%ADD15R,0.0236X0.0768*%
%ADD16R,0.0315X0.0354*%
G04 --Start main section--*
G54D10*
G36*
G01X0087556Y-048703D02*
G01X0087565Y-048705D01*
G01X0087575Y-048707D01*
G01X0087584Y-048710D01*
G01X0087592Y-048714D01*
G01X0087601Y-048719D01*
G01X0087609Y-048725D01*
G01X0087616Y-048732D01*
G01X0087622Y-048739D01*
G01X0087628Y-048746D01*
G01X0087633Y-048755D01*
G01X0087637Y-048764D01*
G01X0087640Y-048773D01*
G01X0087643Y-048782D01*
G01X0087644Y-048792D01*
G01X0087644Y-048801D01*
G01X0087644Y-049096D01*
G01X0087644Y-049106D01*
G01X0087643Y-049116D01*
G01X0087640Y-049125D01*
G01X0087637Y-049134D01*
G01X0087633Y-049143D01*
G01X0087628Y-049151D01*
G01X0087622Y-049159D01*
G01X0087616Y-049166D01*
G01X0087609Y-049173D01*
G01X0087601Y-049178D01*
G01X0087592Y-049183D01*
G01X0087584Y-049187D01*
G01X0087575Y-049191D01*
G01X0087565Y-049193D01*
G01X0087556Y-049194D01*
G01X0087546Y-049195D01*
G01X0087054Y-049195D01*
G01X0087044Y-049194D01*
G01X0087035Y-049193D01*
G01X0087025Y-049191D01*
G01X0087016Y-049187D01*
G01X0087008Y-049183D01*
G01X0086999Y-049178D01*
G01X0086991Y-049173D01*
G01X0086984Y-049166D01*
G01X0086978Y-049159D01*
G01X0086972Y-049151D01*
G01X0086967Y-049143D01*
G01X0086963Y-049134D01*
G01X0086960Y-049125D01*
G01X0086957Y-049116D01*
G01X0086956Y-049106D01*
G01X0086956Y-049096D01*
G01X0086956Y-048801D01*
G01X0086956Y-048792D01*
G01X0086957Y-048782D01*
G01X0086960Y-048773D01*
G01X0086963Y-048764D01*
G01X0086967Y-048755D01*
G01X0086972Y-048746D01*
G01X0086978Y-048739D01*
G01X0086984Y-048732D01*
G01X0086991Y-048725D01*
G01X0086999Y-048719D01*
G01X0087008Y-048714D01*
G01X0087016Y-048710D01*
G01X0087025Y-048707D01*
G01X0087035Y-048705D01*
G01X0087044Y-048703D01*
G01X0087054Y-048703D01*
G01X0087546Y-048703D01*
G01X0087556Y-048703D01*
G01X0087556Y-048703D01*
G37*
G54D11*
G01X0087300Y-048949D03*
G54D10*
G36*
G01X0087556Y-049806D02*
G01X0087565Y-049807D01*
G01X0087575Y-049809D01*
G01X0087584Y-049813D01*
G01X0087592Y-049817D01*
G01X0087601Y-049822D01*
G01X0087609Y-049827D01*
G01X0087616Y-049834D01*
G01X0087622Y-049841D01*
G01X0087628Y-049849D01*
G01X0087633Y-049857D01*
G01X0087637Y-049866D01*
G01X0087640Y-049875D01*
G01X0087643Y-049884D01*
G01X0087644Y-049894D01*
G01X0087644Y-049904D01*
G01X0087644Y-050199D01*
G01X0087644Y-050208D01*
G01X0087643Y-050218D01*
G01X0087640Y-050227D01*
G01X0087637Y-050236D01*
G01X0087633Y-050245D01*
G01X0087628Y-050254D01*
G01X0087622Y-050261D01*
G01X0087616Y-050268D01*
G01X0087609Y-050275D01*
G01X0087601Y-050281D01*
G01X0087592Y-050286D01*
G01X0087584Y-050290D01*
G01X0087575Y-050293D01*
G01X0087565Y-050295D01*
G01X0087556Y-050297D01*
G01X0087546Y-050297D01*
G01X0087054Y-050297D01*
G01X0087044Y-050297D01*
G01X0087035Y-050295D01*
G01X0087025Y-050293D01*
G01X0087016Y-050290D01*
G01X0087008Y-050286D01*
G01X0086999Y-050281D01*
G01X0086991Y-050275D01*
G01X0086984Y-050268D01*
G01X0086978Y-050261D01*
G01X0086972Y-050254D01*
G01X0086967Y-050245D01*
G01X0086963Y-050236D01*
G01X0086960Y-050227D01*
G01X0086957Y-050218D01*
G01X0086956Y-050208D01*
G01X0086956Y-050199D01*
G01X0086956Y-049904D01*
G01X0086956Y-049894D01*
G01X0086957Y-049884D01*
G01X0086960Y-049875D01*
G01X0086963Y-049866D01*
G01X0086967Y-049857D01*
G01X0086972Y-049849D01*
G01X0086978Y-049841D01*
G01X0086984Y-049834D01*
G01X0086991Y-049827D01*
G01X0086999Y-049822D01*
G01X0087008Y-049817D01*
G01X0087016Y-049813D01*
G01X0087025Y-049809D01*
G01X0087035Y-049807D01*
G01X0087044Y-049806D01*
G01X0087054Y-049805D01*
G01X0087546Y-049805D01*
G01X0087556Y-049806D01*
G01X0087556Y-049806D01*
G37*
G54D11*
G01X0087300Y-050051D03*
G54D10*
G36*
G01X0082756Y-049203D02*
G01X0082765Y-049205D01*
G01X0082775Y-049207D01*
G01X0082784Y-049210D01*
G01X0082792Y-049214D01*
G01X0082801Y-049219D01*
G01X0082809Y-049225D01*
G01X0082816Y-049232D01*
G01X0082822Y-049239D01*
G01X0082828Y-049246D01*
G01X0082833Y-049255D01*
G01X0082837Y-049264D01*
G01X0082840Y-049273D01*
G01X0082843Y-049282D01*
G01X0082844Y-049292D01*
G01X0082844Y-049301D01*
G01X0082844Y-049596D01*
G01X0082844Y-049606D01*
G01X0082843Y-049616D01*
G01X0082840Y-049625D01*
G01X0082837Y-049634D01*
G01X0082833Y-049643D01*
G01X0082828Y-049651D01*
G01X0082822Y-049659D01*
G01X0082816Y-049666D01*
G01X0082809Y-049673D01*
G01X0082801Y-049678D01*
G01X0082792Y-049683D01*
G01X0082784Y-049687D01*
G01X0082775Y-049691D01*
G01X0082765Y-049693D01*
G01X0082756Y-049694D01*
G01X0082746Y-049695D01*
G01X0082254Y-049695D01*
G01X0082244Y-049694D01*
G01X0082235Y-049693D01*
G01X0082225Y-049691D01*
G01X0082216Y-049687D01*
G01X0082208Y-049683D01*
G01X0082199Y-049678D01*
G01X0082191Y-049673D01*
G01X0082184Y-049666D01*
G01X0082178Y-049659D01*
G01X0082172Y-049651D01*
G01X0082167Y-049643D01*
G01X0082163Y-049634D01*
G01X0082160Y-049625D01*
G01X0082157Y-049616D01*
G01X0082156Y-049606D01*
G01X0082156Y-049596D01*
G01X0082156Y-049301D01*
G01X0082156Y-049292D01*
G01X0082157Y-049282D01*
G01X0082160Y-049273D01*
G01X0082163Y-049264D01*
G01X0082167Y-049255D01*
G01X0082172Y-049246D01*
G01X0082178Y-049239D01*
G01X0082184Y-049232D01*
G01X0082191Y-049225D01*
G01X0082199Y-049219D01*
G01X0082208Y-049214D01*
G01X0082216Y-049210D01*
G01X0082225Y-049207D01*
G01X0082235Y-049205D01*
G01X0082244Y-049203D01*
G01X0082254Y-049203D01*
G01X0082746Y-049203D01*
G01X0082756Y-049203D01*
G01X0082756Y-049203D01*
G37*
G54D11*
G01X0082500Y-049449D03*
G54D10*
G36*
G01X0082756Y-050306D02*
G01X0082765Y-050307D01*
G01X0082775Y-050309D01*
G01X0082784Y-050313D01*
G01X0082792Y-050317D01*
G01X0082801Y-050322D01*
G01X0082809Y-050327D01*
G01X0082816Y-050334D01*
G01X0082822Y-050341D01*
G01X0082828Y-050349D01*
G01X0082833Y-050357D01*
G01X0082837Y-050366D01*
G01X0082840Y-050375D01*
G01X0082843Y-050384D01*
G01X0082844Y-050394D01*
G01X0082844Y-050404D01*
G01X0082844Y-050699D01*
G01X0082844Y-050708D01*
G01X0082843Y-050718D01*
G01X0082840Y-050727D01*
G01X0082837Y-050736D01*
G01X0082833Y-050745D01*
G01X0082828Y-050754D01*
G01X0082822Y-050761D01*
G01X0082816Y-050768D01*
G01X0082809Y-050775D01*
G01X0082801Y-050781D01*
G01X0082792Y-050786D01*
G01X0082784Y-050790D01*
G01X0082775Y-050793D01*
G01X0082765Y-050795D01*
G01X0082756Y-050797D01*
G01X0082746Y-050797D01*
G01X0082254Y-050797D01*
G01X0082244Y-050797D01*
G01X0082235Y-050795D01*
G01X0082225Y-050793D01*
G01X0082216Y-050790D01*
G01X0082208Y-050786D01*
G01X0082199Y-050781D01*
G01X0082191Y-050775D01*
G01X0082184Y-050768D01*
G01X0082178Y-050761D01*
G01X0082172Y-050754D01*
G01X0082167Y-050745D01*
G01X0082163Y-050736D01*
G01X0082160Y-050727D01*
G01X0082157Y-050718D01*
G01X0082156Y-050708D01*
G01X0082156Y-050699D01*
G01X0082156Y-050404D01*
G01X0082156Y-050394D01*
G01X0082157Y-050384D01*
G01X0082160Y-050375D01*
G01X0082163Y-050366D01*
G01X0082167Y-050357D01*
G01X0082172Y-050349D01*
G01X0082178Y-050341D01*
G01X0082184Y-050334D01*
G01X0082191Y-050327D01*
G01X0082199Y-050322D01*
G01X0082208Y-050317D01*
G01X0082216Y-050313D01*
G01X0082225Y-050309D01*
G01X0082235Y-050307D01*
G01X0082244Y-050306D01*
G01X0082254Y-050305D01*
G01X0082746Y-050305D01*
G01X0082756Y-050306D01*
G01X0082756Y-050306D01*
G37*
G54D11*
G01X0082500Y-050551D03*
G54D10*
G36*
G01X0033006Y-036203D02*
G01X0033015Y-036205D01*
G01X0033025Y-036207D01*
G01X0033034Y-036210D01*
G01X0033042Y-036214D01*
G01X0033051Y-036219D01*
G01X0033059Y-036225D01*
G01X0033066Y-036232D01*
G01X0033072Y-036239D01*
G01X0033078Y-036246D01*
G01X0033083Y-036255D01*
G01X0033087Y-036264D01*
G01X0033090Y-036273D01*
G01X0033093Y-036282D01*
G01X0033094Y-036292D01*
G01X0033094Y-036301D01*
G01X0033094Y-036596D01*
G01X0033094Y-036606D01*
G01X0033093Y-036616D01*
G01X0033090Y-036625D01*
G01X0033087Y-036634D01*
G01X0033083Y-036643D01*
G01X0033078Y-036651D01*
G01X0033072Y-036659D01*
G01X0033066Y-036666D01*
G01X0033059Y-036673D01*
G01X0033051Y-036678D01*
G01X0033042Y-036683D01*
G01X0033034Y-036687D01*
G01X0033025Y-036691D01*
G01X0033015Y-036693D01*
G01X0033006Y-036694D01*
G01X0032996Y-036695D01*
G01X0032504Y-036695D01*
G01X0032494Y-036694D01*
G01X0032485Y-036693D01*
G01X0032475Y-036691D01*
G01X0032466Y-036687D01*
G01X0032458Y-036683D01*
G01X0032449Y-036678D01*
G01X0032441Y-036673D01*
G01X0032434Y-036666D01*
G01X0032428Y-036659D01*
G01X0032422Y-036651D01*
G01X0032417Y-036643D01*
G01X0032413Y-036634D01*
G01X0032410Y-036625D01*
G01X0032407Y-036616D01*
G01X0032406Y-036606D01*
G01X0032406Y-036596D01*
G01X0032406Y-036301D01*
G01X0032406Y-036292D01*
G01X0032407Y-036282D01*
G01X0032410Y-036273D01*
G01X0032413Y-036264D01*
G01X0032417Y-036255D01*
G01X0032422Y-036246D01*
G01X0032428Y-036239D01*
G01X0032434Y-036232D01*
G01X0032441Y-036225D01*
G01X0032449Y-036219D01*
G01X0032458Y-036214D01*
G01X0032466Y-036210D01*
G01X0032475Y-036207D01*
G01X0032485Y-036205D01*
G01X0032494Y-036203D01*
G01X0032504Y-036203D01*
G01X0032996Y-036203D01*
G01X0033006Y-036203D01*
G01X0033006Y-036203D01*
G37*
G54D11*
G01X0032750Y-036449D03*
G54D10*
G36*
G01X0033006Y-037306D02*
G01X0033015Y-037307D01*
G01X0033025Y-037309D01*
G01X0033034Y-037313D01*
G01X0033042Y-037317D01*
G01X0033051Y-037322D01*
G01X0033059Y-037327D01*
G01X0033066Y-037334D01*
G01X0033072Y-037341D01*
G01X0033078Y-037349D01*
G01X0033083Y-037357D01*
G01X0033087Y-037366D01*
G01X0033090Y-037375D01*
G01X0033093Y-037384D01*
G01X0033094Y-037394D01*
G01X0033094Y-037404D01*
G01X0033094Y-037699D01*
G01X0033094Y-037708D01*
G01X0033093Y-037718D01*
G01X0033090Y-037727D01*
G01X0033087Y-037736D01*
G01X0033083Y-037745D01*
G01X0033078Y-037754D01*
G01X0033072Y-037761D01*
G01X0033066Y-037768D01*
G01X0033059Y-037775D01*
G01X0033051Y-037781D01*
G01X0033042Y-037786D01*
G01X0033034Y-037790D01*
G01X0033025Y-037793D01*
G01X0033015Y-037795D01*
G01X0033006Y-037797D01*
G01X0032996Y-037797D01*
G01X0032504Y-037797D01*
G01X0032494Y-037797D01*
G01X0032485Y-037795D01*
G01X0032475Y-037793D01*
G01X0032466Y-037790D01*
G01X0032458Y-037786D01*
G01X0032449Y-037781D01*
G01X0032441Y-037775D01*
G01X0032434Y-037768D01*
G01X0032428Y-037761D01*
G01X0032422Y-037754D01*
G01X0032417Y-037745D01*
G01X0032413Y-037736D01*
G01X0032410Y-037727D01*
G01X0032407Y-037718D01*
G01X0032406Y-037708D01*
G01X0032406Y-037699D01*
G01X0032406Y-037404D01*
G01X0032406Y-037394D01*
G01X0032407Y-037384D01*
G01X0032410Y-037375D01*
G01X0032413Y-037366D01*
G01X0032417Y-037357D01*
G01X0032422Y-037349D01*
G01X0032428Y-037341D01*
G01X0032434Y-037334D01*
G01X0032441Y-037327D01*
G01X0032449Y-037322D01*
G01X0032458Y-037317D01*
G01X0032466Y-037313D01*
G01X0032475Y-037309D01*
G01X0032485Y-037307D01*
G01X0032494Y-037306D01*
G01X0032504Y-037305D01*
G01X0032996Y-037305D01*
G01X0033006Y-037306D01*
G01X0033006Y-037306D01*
G37*
G54D11*
G01X0032750Y-037551D03*
G54D10*
G36*
G01X0063206Y-033856D02*
G01X0063216Y-033857D01*
G01X0063225Y-033860D01*
G01X0063234Y-033863D01*
G01X0063243Y-033867D01*
G01X0063251Y-033872D01*
G01X0063259Y-033878D01*
G01X0063266Y-033884D01*
G01X0063273Y-033891D01*
G01X0063278Y-033899D01*
G01X0063283Y-033908D01*
G01X0063287Y-033916D01*
G01X0063291Y-033925D01*
G01X0063293Y-033935D01*
G01X0063294Y-033944D01*
G01X0063295Y-033954D01*
G01X0063295Y-034446D01*
G01X0063294Y-034456D01*
G01X0063293Y-034465D01*
G01X0063291Y-034475D01*
G01X0063287Y-034484D01*
G01X0063283Y-034492D01*
G01X0063278Y-034501D01*
G01X0063273Y-034509D01*
G01X0063266Y-034516D01*
G01X0063259Y-034522D01*
G01X0063251Y-034528D01*
G01X0063243Y-034533D01*
G01X0063234Y-034537D01*
G01X0063225Y-034540D01*
G01X0063216Y-034543D01*
G01X0063206Y-034544D01*
G01X0063196Y-034544D01*
G01X0062901Y-034544D01*
G01X0062892Y-034544D01*
G01X0062882Y-034543D01*
G01X0062873Y-034540D01*
G01X0062864Y-034537D01*
G01X0062855Y-034533D01*
G01X0062846Y-034528D01*
G01X0062839Y-034522D01*
G01X0062832Y-034516D01*
G01X0062825Y-034509D01*
G01X0062819Y-034501D01*
G01X0062814Y-034492D01*
G01X0062810Y-034484D01*
G01X0062807Y-034475D01*
G01X0062805Y-034465D01*
G01X0062803Y-034456D01*
G01X0062803Y-034446D01*
G01X0062803Y-033954D01*
G01X0062803Y-033944D01*
G01X0062805Y-033935D01*
G01X0062807Y-033925D01*
G01X0062810Y-033916D01*
G01X0062814Y-033908D01*
G01X0062819Y-033899D01*
G01X0062825Y-033891D01*
G01X0062832Y-033884D01*
G01X0062839Y-033878D01*
G01X0062846Y-033872D01*
G01X0062855Y-033867D01*
G01X0062864Y-033863D01*
G01X0062873Y-033860D01*
G01X0062882Y-033857D01*
G01X0062892Y-033856D01*
G01X0062901Y-033856D01*
G01X0063196Y-033856D01*
G01X0063206Y-033856D01*
G01X0063206Y-033856D01*
G37*
G54D11*
G01X0063049Y-034200D03*
G54D10*
G36*
G01X0064308Y-033856D02*
G01X0064318Y-033857D01*
G01X0064327Y-033860D01*
G01X0064336Y-033863D01*
G01X0064345Y-033867D01*
G01X0064354Y-033872D01*
G01X0064361Y-033878D01*
G01X0064368Y-033884D01*
G01X0064375Y-033891D01*
G01X0064381Y-033899D01*
G01X0064386Y-033908D01*
G01X0064390Y-033916D01*
G01X0064393Y-033925D01*
G01X0064395Y-033935D01*
G01X0064397Y-033944D01*
G01X0064397Y-033954D01*
G01X0064397Y-034446D01*
G01X0064397Y-034456D01*
G01X0064395Y-034465D01*
G01X0064393Y-034475D01*
G01X0064390Y-034484D01*
G01X0064386Y-034492D01*
G01X0064381Y-034501D01*
G01X0064375Y-034509D01*
G01X0064368Y-034516D01*
G01X0064361Y-034522D01*
G01X0064354Y-034528D01*
G01X0064345Y-034533D01*
G01X0064336Y-034537D01*
G01X0064327Y-034540D01*
G01X0064318Y-034543D01*
G01X0064308Y-034544D01*
G01X0064299Y-034544D01*
G01X0064004Y-034544D01*
G01X0063994Y-034544D01*
G01X0063984Y-034543D01*
G01X0063975Y-034540D01*
G01X0063966Y-034537D01*
G01X0063957Y-034533D01*
G01X0063949Y-034528D01*
G01X0063941Y-034522D01*
G01X0063934Y-034516D01*
G01X0063927Y-034509D01*
G01X0063922Y-034501D01*
G01X0063917Y-034492D01*
G01X0063913Y-034484D01*
G01X0063909Y-034475D01*
G01X0063907Y-034465D01*
G01X0063906Y-034456D01*
G01X0063905Y-034446D01*
G01X0063905Y-033954D01*
G01X0063906Y-033944D01*
G01X0063907Y-033935D01*
G01X0063909Y-033925D01*
G01X0063913Y-033916D01*
G01X0063917Y-033908D01*
G01X0063922Y-033899D01*
G01X0063927Y-033891D01*
G01X0063934Y-033884D01*
G01X0063941Y-033878D01*
G01X0063949Y-033872D01*
G01X0063957Y-033867D01*
G01X0063966Y-033863D01*
G01X0063975Y-033860D01*
G01X0063984Y-033857D01*
G01X0063994Y-033856D01*
G01X0064004Y-033856D01*
G01X0064299Y-033856D01*
G01X0064308Y-033856D01*
G01X0064308Y-033856D01*
G37*
G54D11*
G01X0064151Y-034200D03*
G54D10*
G36*
G01X0065206Y-030356D02*
G01X0065216Y-030357D01*
G01X0065225Y-030360D01*
G01X0065234Y-030363D01*
G01X0065243Y-030367D01*
G01X0065251Y-030372D01*
G01X0065259Y-030378D01*
G01X0065266Y-030384D01*
G01X0065273Y-030391D01*
G01X0065278Y-030399D01*
G01X0065283Y-030408D01*
G01X0065287Y-030416D01*
G01X0065291Y-030425D01*
G01X0065293Y-030435D01*
G01X0065294Y-030444D01*
G01X0065295Y-030454D01*
G01X0065295Y-030946D01*
G01X0065294Y-030956D01*
G01X0065293Y-030965D01*
G01X0065291Y-030975D01*
G01X0065287Y-030984D01*
G01X0065283Y-030992D01*
G01X0065278Y-031001D01*
G01X0065273Y-031009D01*
G01X0065266Y-031016D01*
G01X0065259Y-031022D01*
G01X0065251Y-031028D01*
G01X0065243Y-031033D01*
G01X0065234Y-031037D01*
G01X0065225Y-031040D01*
G01X0065216Y-031043D01*
G01X0065206Y-031044D01*
G01X0065196Y-031044D01*
G01X0064901Y-031044D01*
G01X0064892Y-031044D01*
G01X0064882Y-031043D01*
G01X0064873Y-031040D01*
G01X0064864Y-031037D01*
G01X0064855Y-031033D01*
G01X0064846Y-031028D01*
G01X0064839Y-031022D01*
G01X0064832Y-031016D01*
G01X0064825Y-031009D01*
G01X0064819Y-031001D01*
G01X0064814Y-030992D01*
G01X0064810Y-030984D01*
G01X0064807Y-030975D01*
G01X0064805Y-030965D01*
G01X0064803Y-030956D01*
G01X0064803Y-030946D01*
G01X0064803Y-030454D01*
G01X0064803Y-030444D01*
G01X0064805Y-030435D01*
G01X0064807Y-030425D01*
G01X0064810Y-030416D01*
G01X0064814Y-030408D01*
G01X0064819Y-030399D01*
G01X0064825Y-030391D01*
G01X0064832Y-030384D01*
G01X0064839Y-030378D01*
G01X0064846Y-030372D01*
G01X0064855Y-030367D01*
G01X0064864Y-030363D01*
G01X0064873Y-030360D01*
G01X0064882Y-030357D01*
G01X0064892Y-030356D01*
G01X0064901Y-030356D01*
G01X0065196Y-030356D01*
G01X0065206Y-030356D01*
G01X0065206Y-030356D01*
G37*
G54D11*
G01X0065049Y-030700D03*
G54D10*
G36*
G01X0066308Y-030356D02*
G01X0066318Y-030357D01*
G01X0066327Y-030360D01*
G01X0066336Y-030363D01*
G01X0066345Y-030367D01*
G01X0066354Y-030372D01*
G01X0066361Y-030378D01*
G01X0066368Y-030384D01*
G01X0066375Y-030391D01*
G01X0066381Y-030399D01*
G01X0066386Y-030408D01*
G01X0066390Y-030416D01*
G01X0066393Y-030425D01*
G01X0066395Y-030435D01*
G01X0066397Y-030444D01*
G01X0066397Y-030454D01*
G01X0066397Y-030946D01*
G01X0066397Y-030956D01*
G01X0066395Y-030965D01*
G01X0066393Y-030975D01*
G01X0066390Y-030984D01*
G01X0066386Y-030992D01*
G01X0066381Y-031001D01*
G01X0066375Y-031009D01*
G01X0066368Y-031016D01*
G01X0066361Y-031022D01*
G01X0066354Y-031028D01*
G01X0066345Y-031033D01*
G01X0066336Y-031037D01*
G01X0066327Y-031040D01*
G01X0066318Y-031043D01*
G01X0066308Y-031044D01*
G01X0066299Y-031044D01*
G01X0066004Y-031044D01*
G01X0065994Y-031044D01*
G01X0065984Y-031043D01*
G01X0065975Y-031040D01*
G01X0065966Y-031037D01*
G01X0065957Y-031033D01*
G01X0065949Y-031028D01*
G01X0065941Y-031022D01*
G01X0065934Y-031016D01*
G01X0065927Y-031009D01*
G01X0065922Y-031001D01*
G01X0065917Y-030992D01*
G01X0065913Y-030984D01*
G01X0065909Y-030975D01*
G01X0065907Y-030965D01*
G01X0065906Y-030956D01*
G01X0065905Y-030946D01*
G01X0065905Y-030454D01*
G01X0065906Y-030444D01*
G01X0065907Y-030435D01*
G01X0065909Y-030425D01*
G01X0065913Y-030416D01*
G01X0065917Y-030408D01*
G01X0065922Y-030399D01*
G01X0065927Y-030391D01*
G01X0065934Y-030384D01*
G01X0065941Y-030378D01*
G01X0065949Y-030372D01*
G01X0065957Y-030367D01*
G01X0065966Y-030363D01*
G01X0065975Y-030360D01*
G01X0065984Y-030357D01*
G01X0065994Y-030356D01*
G01X0066004Y-030356D01*
G01X0066299Y-030356D01*
G01X0066308Y-030356D01*
G01X0066308Y-030356D01*
G37*
G54D11*
G01X0066151Y-030700D03*
G54D10*
G36*
G01X0065308Y-032156D02*
G01X0065318Y-032157D01*
G01X0065327Y-032160D01*
G01X0065336Y-032163D01*
G01X0065345Y-032167D01*
G01X0065354Y-032172D01*
G01X0065361Y-032178D01*
G01X0065368Y-032184D01*
G01X0065375Y-032191D01*
G01X0065381Y-032199D01*
G01X0065386Y-032208D01*
G01X0065390Y-032216D01*
G01X0065393Y-032225D01*
G01X0065395Y-032235D01*
G01X0065397Y-032244D01*
G01X0065397Y-032254D01*
G01X0065397Y-032746D01*
G01X0065397Y-032756D01*
G01X0065395Y-032765D01*
G01X0065393Y-032775D01*
G01X0065390Y-032784D01*
G01X0065386Y-032792D01*
G01X0065381Y-032801D01*
G01X0065375Y-032809D01*
G01X0065368Y-032816D01*
G01X0065361Y-032822D01*
G01X0065354Y-032828D01*
G01X0065345Y-032833D01*
G01X0065336Y-032837D01*
G01X0065327Y-032840D01*
G01X0065318Y-032843D01*
G01X0065308Y-032844D01*
G01X0065299Y-032844D01*
G01X0065004Y-032844D01*
G01X0064994Y-032844D01*
G01X0064984Y-032843D01*
G01X0064975Y-032840D01*
G01X0064966Y-032837D01*
G01X0064957Y-032833D01*
G01X0064949Y-032828D01*
G01X0064941Y-032822D01*
G01X0064934Y-032816D01*
G01X0064927Y-032809D01*
G01X0064922Y-032801D01*
G01X0064917Y-032792D01*
G01X0064913Y-032784D01*
G01X0064909Y-032775D01*
G01X0064907Y-032765D01*
G01X0064906Y-032756D01*
G01X0064905Y-032746D01*
G01X0064905Y-032254D01*
G01X0064906Y-032244D01*
G01X0064907Y-032235D01*
G01X0064909Y-032225D01*
G01X0064913Y-032216D01*
G01X0064917Y-032208D01*
G01X0064922Y-032199D01*
G01X0064927Y-032191D01*
G01X0064934Y-032184D01*
G01X0064941Y-032178D01*
G01X0064949Y-032172D01*
G01X0064957Y-032167D01*
G01X0064966Y-032163D01*
G01X0064975Y-032160D01*
G01X0064984Y-032157D01*
G01X0064994Y-032156D01*
G01X0065004Y-032156D01*
G01X0065299Y-032156D01*
G01X0065308Y-032156D01*
G01X0065308Y-032156D01*
G37*
G54D11*
G01X0065151Y-032500D03*
G54D10*
G36*
G01X0064206Y-032156D02*
G01X0064216Y-032157D01*
G01X0064225Y-032160D01*
G01X0064234Y-032163D01*
G01X0064243Y-032167D01*
G01X0064251Y-032172D01*
G01X0064259Y-032178D01*
G01X0064266Y-032184D01*
G01X0064273Y-032191D01*
G01X0064278Y-032199D01*
G01X0064283Y-032208D01*
G01X0064287Y-032216D01*
G01X0064291Y-032225D01*
G01X0064293Y-032235D01*
G01X0064294Y-032244D01*
G01X0064295Y-032254D01*
G01X0064295Y-032746D01*
G01X0064294Y-032756D01*
G01X0064293Y-032765D01*
G01X0064291Y-032775D01*
G01X0064287Y-032784D01*
G01X0064283Y-032792D01*
G01X0064278Y-032801D01*
G01X0064273Y-032809D01*
G01X0064266Y-032816D01*
G01X0064259Y-032822D01*
G01X0064251Y-032828D01*
G01X0064243Y-032833D01*
G01X0064234Y-032837D01*
G01X0064225Y-032840D01*
G01X0064216Y-032843D01*
G01X0064206Y-032844D01*
G01X0064196Y-032844D01*
G01X0063901Y-032844D01*
G01X0063892Y-032844D01*
G01X0063882Y-032843D01*
G01X0063873Y-032840D01*
G01X0063864Y-032837D01*
G01X0063855Y-032833D01*
G01X0063846Y-032828D01*
G01X0063839Y-032822D01*
G01X0063832Y-032816D01*
G01X0063825Y-032809D01*
G01X0063819Y-032801D01*
G01X0063814Y-032792D01*
G01X0063810Y-032784D01*
G01X0063807Y-032775D01*
G01X0063805Y-032765D01*
G01X0063803Y-032756D01*
G01X0063803Y-032746D01*
G01X0063803Y-032254D01*
G01X0063803Y-032244D01*
G01X0063805Y-032235D01*
G01X0063807Y-032225D01*
G01X0063810Y-032216D01*
G01X0063814Y-032208D01*
G01X0063819Y-032199D01*
G01X0063825Y-032191D01*
G01X0063832Y-032184D01*
G01X0063839Y-032178D01*
G01X0063846Y-032172D01*
G01X0063855Y-032167D01*
G01X0063864Y-032163D01*
G01X0063873Y-032160D01*
G01X0063882Y-032157D01*
G01X0063892Y-032156D01*
G01X0063901Y-032156D01*
G01X0064196Y-032156D01*
G01X0064206Y-032156D01*
G01X0064206Y-032156D01*
G37*
G54D11*
G01X0064049Y-032500D03*
G54D10*
G36*
G01X0078556Y-056706D02*
G01X0078565Y-056707D01*
G01X0078575Y-056709D01*
G01X0078584Y-056713D01*
G01X0078592Y-056717D01*
G01X0078601Y-056722D01*
G01X0078609Y-056727D01*
G01X0078616Y-056734D01*
G01X0078622Y-056741D01*
G01X0078628Y-056749D01*
G01X0078633Y-056757D01*
G01X0078637Y-056766D01*
G01X0078640Y-056775D01*
G01X0078643Y-056784D01*
G01X0078644Y-056794D01*
G01X0078644Y-056804D01*
G01X0078644Y-057099D01*
G01X0078644Y-057108D01*
G01X0078643Y-057118D01*
G01X0078640Y-057127D01*
G01X0078637Y-057136D01*
G01X0078633Y-057145D01*
G01X0078628Y-057154D01*
G01X0078622Y-057161D01*
G01X0078616Y-057168D01*
G01X0078609Y-057175D01*
G01X0078601Y-057181D01*
G01X0078592Y-057186D01*
G01X0078584Y-057190D01*
G01X0078575Y-057193D01*
G01X0078565Y-057195D01*
G01X0078556Y-057197D01*
G01X0078546Y-057197D01*
G01X0078054Y-057197D01*
G01X0078044Y-057197D01*
G01X0078035Y-057195D01*
G01X0078025Y-057193D01*
G01X0078016Y-057190D01*
G01X0078008Y-057186D01*
G01X0077999Y-057181D01*
G01X0077991Y-057175D01*
G01X0077984Y-057168D01*
G01X0077978Y-057161D01*
G01X0077972Y-057154D01*
G01X0077967Y-057145D01*
G01X0077963Y-057136D01*
G01X0077960Y-057127D01*
G01X0077957Y-057118D01*
G01X0077956Y-057108D01*
G01X0077956Y-057099D01*
G01X0077956Y-056804D01*
G01X0077956Y-056794D01*
G01X0077957Y-056784D01*
G01X0077960Y-056775D01*
G01X0077963Y-056766D01*
G01X0077967Y-056757D01*
G01X0077972Y-056749D01*
G01X0077978Y-056741D01*
G01X0077984Y-056734D01*
G01X0077991Y-056727D01*
G01X0077999Y-056722D01*
G01X0078008Y-056717D01*
G01X0078016Y-056713D01*
G01X0078025Y-056709D01*
G01X0078035Y-056707D01*
G01X0078044Y-056706D01*
G01X0078054Y-056705D01*
G01X0078546Y-056705D01*
G01X0078556Y-056706D01*
G01X0078556Y-056706D01*
G37*
G54D11*
G01X0078300Y-056951D03*
G54D10*
G36*
G01X0078556Y-055603D02*
G01X0078565Y-055605D01*
G01X0078575Y-055607D01*
G01X0078584Y-055610D01*
G01X0078592Y-055614D01*
G01X0078601Y-055619D01*
G01X0078609Y-055625D01*
G01X0078616Y-055632D01*
G01X0078622Y-055639D01*
G01X0078628Y-055646D01*
G01X0078633Y-055655D01*
G01X0078637Y-055664D01*
G01X0078640Y-055673D01*
G01X0078643Y-055682D01*
G01X0078644Y-055692D01*
G01X0078644Y-055701D01*
G01X0078644Y-055996D01*
G01X0078644Y-056006D01*
G01X0078643Y-056016D01*
G01X0078640Y-056025D01*
G01X0078637Y-056034D01*
G01X0078633Y-056043D01*
G01X0078628Y-056051D01*
G01X0078622Y-056059D01*
G01X0078616Y-056066D01*
G01X0078609Y-056073D01*
G01X0078601Y-056078D01*
G01X0078592Y-056083D01*
G01X0078584Y-056087D01*
G01X0078575Y-056091D01*
G01X0078565Y-056093D01*
G01X0078556Y-056094D01*
G01X0078546Y-056095D01*
G01X0078054Y-056095D01*
G01X0078044Y-056094D01*
G01X0078035Y-056093D01*
G01X0078025Y-056091D01*
G01X0078016Y-056087D01*
G01X0078008Y-056083D01*
G01X0077999Y-056078D01*
G01X0077991Y-056073D01*
G01X0077984Y-056066D01*
G01X0077978Y-056059D01*
G01X0077972Y-056051D01*
G01X0077967Y-056043D01*
G01X0077963Y-056034D01*
G01X0077960Y-056025D01*
G01X0077957Y-056016D01*
G01X0077956Y-056006D01*
G01X0077956Y-055996D01*
G01X0077956Y-055701D01*
G01X0077956Y-055692D01*
G01X0077957Y-055682D01*
G01X0077960Y-055673D01*
G01X0077963Y-055664D01*
G01X0077967Y-055655D01*
G01X0077972Y-055646D01*
G01X0077978Y-055639D01*
G01X0077984Y-055632D01*
G01X0077991Y-055625D01*
G01X0077999Y-055619D01*
G01X0078008Y-055614D01*
G01X0078016Y-055610D01*
G01X0078025Y-055607D01*
G01X0078035Y-055605D01*
G01X0078044Y-055603D01*
G01X0078054Y-055603D01*
G01X0078546Y-055603D01*
G01X0078556Y-055603D01*
G01X0078556Y-055603D01*
G37*
G54D11*
G01X0078300Y-055849D03*
G54D10*
G36*
G01X0086756Y-055306D02*
G01X0086766Y-055307D01*
G01X0086775Y-055310D01*
G01X0086784Y-055313D01*
G01X0086793Y-055317D01*
G01X0086801Y-055322D01*
G01X0086809Y-055328D01*
G01X0086816Y-055334D01*
G01X0086823Y-055341D01*
G01X0086828Y-055349D01*
G01X0086833Y-055358D01*
G01X0086837Y-055366D01*
G01X0086841Y-055375D01*
G01X0086843Y-055385D01*
G01X0086844Y-055394D01*
G01X0086845Y-055404D01*
G01X0086845Y-055896D01*
G01X0086844Y-055906D01*
G01X0086843Y-055915D01*
G01X0086841Y-055925D01*
G01X0086837Y-055934D01*
G01X0086833Y-055942D01*
G01X0086828Y-055951D01*
G01X0086823Y-055959D01*
G01X0086816Y-055966D01*
G01X0086809Y-055972D01*
G01X0086801Y-055978D01*
G01X0086793Y-055983D01*
G01X0086784Y-055987D01*
G01X0086775Y-055990D01*
G01X0086766Y-055993D01*
G01X0086756Y-055994D01*
G01X0086746Y-055994D01*
G01X0086451Y-055994D01*
G01X0086442Y-055994D01*
G01X0086432Y-055993D01*
G01X0086423Y-055990D01*
G01X0086414Y-055987D01*
G01X0086405Y-055983D01*
G01X0086396Y-055978D01*
G01X0086389Y-055972D01*
G01X0086382Y-055966D01*
G01X0086375Y-055959D01*
G01X0086369Y-055951D01*
G01X0086364Y-055942D01*
G01X0086360Y-055934D01*
G01X0086357Y-055925D01*
G01X0086355Y-055915D01*
G01X0086353Y-055906D01*
G01X0086353Y-055896D01*
G01X0086353Y-055404D01*
G01X0086353Y-055394D01*
G01X0086355Y-055385D01*
G01X0086357Y-055375D01*
G01X0086360Y-055366D01*
G01X0086364Y-055358D01*
G01X0086369Y-055349D01*
G01X0086375Y-055341D01*
G01X0086382Y-055334D01*
G01X0086389Y-055328D01*
G01X0086396Y-055322D01*
G01X0086405Y-055317D01*
G01X0086414Y-055313D01*
G01X0086423Y-055310D01*
G01X0086432Y-055307D01*
G01X0086442Y-055306D01*
G01X0086451Y-055306D01*
G01X0086746Y-055306D01*
G01X0086756Y-055306D01*
G01X0086756Y-055306D01*
G37*
G54D11*
G01X0086599Y-055650D03*
G54D10*
G36*
G01X0087858Y-055306D02*
G01X0087868Y-055307D01*
G01X0087877Y-055310D01*
G01X0087886Y-055313D01*
G01X0087895Y-055317D01*
G01X0087904Y-055322D01*
G01X0087911Y-055328D01*
G01X0087918Y-055334D01*
G01X0087925Y-055341D01*
G01X0087931Y-055349D01*
G01X0087936Y-055358D01*
G01X0087940Y-055366D01*
G01X0087943Y-055375D01*
G01X0087945Y-055385D01*
G01X0087947Y-055394D01*
G01X0087947Y-055404D01*
G01X0087947Y-055896D01*
G01X0087947Y-055906D01*
G01X0087945Y-055915D01*
G01X0087943Y-055925D01*
G01X0087940Y-055934D01*
G01X0087936Y-055942D01*
G01X0087931Y-055951D01*
G01X0087925Y-055959D01*
G01X0087918Y-055966D01*
G01X0087911Y-055972D01*
G01X0087904Y-055978D01*
G01X0087895Y-055983D01*
G01X0087886Y-055987D01*
G01X0087877Y-055990D01*
G01X0087868Y-055993D01*
G01X0087858Y-055994D01*
G01X0087849Y-055994D01*
G01X0087554Y-055994D01*
G01X0087544Y-055994D01*
G01X0087534Y-055993D01*
G01X0087525Y-055990D01*
G01X0087516Y-055987D01*
G01X0087507Y-055983D01*
G01X0087499Y-055978D01*
G01X0087491Y-055972D01*
G01X0087484Y-055966D01*
G01X0087477Y-055959D01*
G01X0087472Y-055951D01*
G01X0087467Y-055942D01*
G01X0087463Y-055934D01*
G01X0087459Y-055925D01*
G01X0087457Y-055915D01*
G01X0087456Y-055906D01*
G01X0087455Y-055896D01*
G01X0087455Y-055404D01*
G01X0087456Y-055394D01*
G01X0087457Y-055385D01*
G01X0087459Y-055375D01*
G01X0087463Y-055366D01*
G01X0087467Y-055358D01*
G01X0087472Y-055349D01*
G01X0087477Y-055341D01*
G01X0087484Y-055334D01*
G01X0087491Y-055328D01*
G01X0087499Y-055322D01*
G01X0087507Y-055317D01*
G01X0087516Y-055313D01*
G01X0087525Y-055310D01*
G01X0087534Y-055307D01*
G01X0087544Y-055306D01*
G01X0087554Y-055306D01*
G01X0087849Y-055306D01*
G01X0087858Y-055306D01*
G01X0087858Y-055306D01*
G37*
G54D11*
G01X0087701Y-055650D03*
G54D10*
G36*
G01X0083556Y-056706D02*
G01X0083565Y-056707D01*
G01X0083575Y-056709D01*
G01X0083584Y-056713D01*
G01X0083592Y-056717D01*
G01X0083601Y-056722D01*
G01X0083609Y-056727D01*
G01X0083616Y-056734D01*
G01X0083622Y-056741D01*
G01X0083628Y-056749D01*
G01X0083633Y-056757D01*
G01X0083637Y-056766D01*
G01X0083640Y-056775D01*
G01X0083643Y-056784D01*
G01X0083644Y-056794D01*
G01X0083644Y-056804D01*
G01X0083644Y-057099D01*
G01X0083644Y-057108D01*
G01X0083643Y-057118D01*
G01X0083640Y-057127D01*
G01X0083637Y-057136D01*
G01X0083633Y-057145D01*
G01X0083628Y-057154D01*
G01X0083622Y-057161D01*
G01X0083616Y-057168D01*
G01X0083609Y-057175D01*
G01X0083601Y-057181D01*
G01X0083592Y-057186D01*
G01X0083584Y-057190D01*
G01X0083575Y-057193D01*
G01X0083565Y-057195D01*
G01X0083556Y-057197D01*
G01X0083546Y-057197D01*
G01X0083054Y-057197D01*
G01X0083044Y-057197D01*
G01X0083035Y-057195D01*
G01X0083025Y-057193D01*
G01X0083016Y-057190D01*
G01X0083008Y-057186D01*
G01X0082999Y-057181D01*
G01X0082991Y-057175D01*
G01X0082984Y-057168D01*
G01X0082978Y-057161D01*
G01X0082972Y-057154D01*
G01X0082967Y-057145D01*
G01X0082963Y-057136D01*
G01X0082960Y-057127D01*
G01X0082957Y-057118D01*
G01X0082956Y-057108D01*
G01X0082956Y-057099D01*
G01X0082956Y-056804D01*
G01X0082956Y-056794D01*
G01X0082957Y-056784D01*
G01X0082960Y-056775D01*
G01X0082963Y-056766D01*
G01X0082967Y-056757D01*
G01X0082972Y-056749D01*
G01X0082978Y-056741D01*
G01X0082984Y-056734D01*
G01X0082991Y-056727D01*
G01X0082999Y-056722D01*
G01X0083008Y-056717D01*
G01X0083016Y-056713D01*
G01X0083025Y-056709D01*
G01X0083035Y-056707D01*
G01X0083044Y-056706D01*
G01X0083054Y-056705D01*
G01X0083546Y-056705D01*
G01X0083556Y-056706D01*
G01X0083556Y-056706D01*
G37*
G54D11*
G01X0083300Y-056951D03*
G54D10*
G36*
G01X0083556Y-055603D02*
G01X0083565Y-055605D01*
G01X0083575Y-055607D01*
G01X0083584Y-055610D01*
G01X0083592Y-055614D01*
G01X0083601Y-055619D01*
G01X0083609Y-055625D01*
G01X0083616Y-055632D01*
G01X0083622Y-055639D01*
G01X0083628Y-055646D01*
G01X0083633Y-055655D01*
G01X0083637Y-055664D01*
G01X0083640Y-055673D01*
G01X0083643Y-055682D01*
G01X0083644Y-055692D01*
G01X0083644Y-055701D01*
G01X0083644Y-055996D01*
G01X0083644Y-056006D01*
G01X0083643Y-056016D01*
G01X0083640Y-056025D01*
G01X0083637Y-056034D01*
G01X0083633Y-056043D01*
G01X0083628Y-056051D01*
G01X0083622Y-056059D01*
G01X0083616Y-056066D01*
G01X0083609Y-056073D01*
G01X0083601Y-056078D01*
G01X0083592Y-056083D01*
G01X0083584Y-056087D01*
G01X0083575Y-056091D01*
G01X0083565Y-056093D01*
G01X0083556Y-056094D01*
G01X0083546Y-056095D01*
G01X0083054Y-056095D01*
G01X0083044Y-056094D01*
G01X0083035Y-056093D01*
G01X0083025Y-056091D01*
G01X0083016Y-056087D01*
G01X0083008Y-056083D01*
G01X0082999Y-056078D01*
G01X0082991Y-056073D01*
G01X0082984Y-056066D01*
G01X0082978Y-056059D01*
G01X0082972Y-056051D01*
G01X0082967Y-056043D01*
G01X0082963Y-056034D01*
G01X0082960Y-056025D01*
G01X0082957Y-056016D01*
G01X0082956Y-056006D01*
G01X0082956Y-055996D01*
G01X0082956Y-055701D01*
G01X0082956Y-055692D01*
G01X0082957Y-055682D01*
G01X0082960Y-055673D01*
G01X0082963Y-055664D01*
G01X0082967Y-055655D01*
G01X0082972Y-055646D01*
G01X0082978Y-055639D01*
G01X0082984Y-055632D01*
G01X0082991Y-055625D01*
G01X0082999Y-055619D01*
G01X0083008Y-055614D01*
G01X0083016Y-055610D01*
G01X0083025Y-055607D01*
G01X0083035Y-055605D01*
G01X0083044Y-055603D01*
G01X0083054Y-055603D01*
G01X0083546Y-055603D01*
G01X0083556Y-055603D01*
G01X0083556Y-055603D01*
G37*
G54D11*
G01X0083300Y-055849D03*
G54D10*
G36*
G01X0080708Y-047506D02*
G01X0080718Y-047507D01*
G01X0080727Y-047510D01*
G01X0080736Y-047513D01*
G01X0080745Y-047517D01*
G01X0080754Y-047522D01*
G01X0080761Y-047528D01*
G01X0080768Y-047534D01*
G01X0080775Y-047541D01*
G01X0080781Y-047549D01*
G01X0080786Y-047558D01*
G01X0080790Y-047566D01*
G01X0080793Y-047575D01*
G01X0080795Y-047585D01*
G01X0080797Y-047594D01*
G01X0080797Y-047604D01*
G01X0080797Y-048096D01*
G01X0080797Y-048106D01*
G01X0080795Y-048115D01*
G01X0080793Y-048125D01*
G01X0080790Y-048134D01*
G01X0080786Y-048142D01*
G01X0080781Y-048151D01*
G01X0080775Y-048159D01*
G01X0080768Y-048166D01*
G01X0080761Y-048172D01*
G01X0080754Y-048178D01*
G01X0080745Y-048183D01*
G01X0080736Y-048187D01*
G01X0080727Y-048190D01*
G01X0080718Y-048193D01*
G01X0080708Y-048194D01*
G01X0080699Y-048194D01*
G01X0080404Y-048194D01*
G01X0080394Y-048194D01*
G01X0080384Y-048193D01*
G01X0080375Y-048190D01*
G01X0080366Y-048187D01*
G01X0080357Y-048183D01*
G01X0080349Y-048178D01*
G01X0080341Y-048172D01*
G01X0080334Y-048166D01*
G01X0080327Y-048159D01*
G01X0080322Y-048151D01*
G01X0080317Y-048142D01*
G01X0080313Y-048134D01*
G01X0080309Y-048125D01*
G01X0080307Y-048115D01*
G01X0080306Y-048106D01*
G01X0080305Y-048096D01*
G01X0080305Y-047604D01*
G01X0080306Y-047594D01*
G01X0080307Y-047585D01*
G01X0080309Y-047575D01*
G01X0080313Y-047566D01*
G01X0080317Y-047558D01*
G01X0080322Y-047549D01*
G01X0080327Y-047541D01*
G01X0080334Y-047534D01*
G01X0080341Y-047528D01*
G01X0080349Y-047522D01*
G01X0080357Y-047517D01*
G01X0080366Y-047513D01*
G01X0080375Y-047510D01*
G01X0080384Y-047507D01*
G01X0080394Y-047506D01*
G01X0080404Y-047506D01*
G01X0080699Y-047506D01*
G01X0080708Y-047506D01*
G01X0080708Y-047506D01*
G37*
G54D11*
G01X0080551Y-047850D03*
G54D10*
G36*
G01X0079606Y-047506D02*
G01X0079616Y-047507D01*
G01X0079625Y-047510D01*
G01X0079634Y-047513D01*
G01X0079643Y-047517D01*
G01X0079651Y-047522D01*
G01X0079659Y-047528D01*
G01X0079666Y-047534D01*
G01X0079673Y-047541D01*
G01X0079678Y-047549D01*
G01X0079683Y-047558D01*
G01X0079687Y-047566D01*
G01X0079691Y-047575D01*
G01X0079693Y-047585D01*
G01X0079694Y-047594D01*
G01X0079695Y-047604D01*
G01X0079695Y-048096D01*
G01X0079694Y-048106D01*
G01X0079693Y-048115D01*
G01X0079691Y-048125D01*
G01X0079687Y-048134D01*
G01X0079683Y-048142D01*
G01X0079678Y-048151D01*
G01X0079673Y-048159D01*
G01X0079666Y-048166D01*
G01X0079659Y-048172D01*
G01X0079651Y-048178D01*
G01X0079643Y-048183D01*
G01X0079634Y-048187D01*
G01X0079625Y-048190D01*
G01X0079616Y-048193D01*
G01X0079606Y-048194D01*
G01X0079596Y-048194D01*
G01X0079301Y-048194D01*
G01X0079292Y-048194D01*
G01X0079282Y-048193D01*
G01X0079273Y-048190D01*
G01X0079264Y-048187D01*
G01X0079255Y-048183D01*
G01X0079246Y-048178D01*
G01X0079239Y-048172D01*
G01X0079232Y-048166D01*
G01X0079225Y-048159D01*
G01X0079219Y-048151D01*
G01X0079214Y-048142D01*
G01X0079210Y-048134D01*
G01X0079207Y-048125D01*
G01X0079205Y-048115D01*
G01X0079203Y-048106D01*
G01X0079203Y-048096D01*
G01X0079203Y-047604D01*
G01X0079203Y-047594D01*
G01X0079205Y-047585D01*
G01X0079207Y-047575D01*
G01X0079210Y-047566D01*
G01X0079214Y-047558D01*
G01X0079219Y-047549D01*
G01X0079225Y-047541D01*
G01X0079232Y-047534D01*
G01X0079239Y-047528D01*
G01X0079246Y-047522D01*
G01X0079255Y-047517D01*
G01X0079264Y-047513D01*
G01X0079273Y-047510D01*
G01X0079282Y-047507D01*
G01X0079292Y-047506D01*
G01X0079301Y-047506D01*
G01X0079596Y-047506D01*
G01X0079606Y-047506D01*
G01X0079606Y-047506D01*
G37*
G54D11*
G01X0079449Y-047850D03*
G54D10*
G36*
G01X0074906Y-047506D02*
G01X0074916Y-047507D01*
G01X0074925Y-047510D01*
G01X0074934Y-047513D01*
G01X0074943Y-047517D01*
G01X0074951Y-047522D01*
G01X0074959Y-047528D01*
G01X0074966Y-047534D01*
G01X0074973Y-047541D01*
G01X0074978Y-047549D01*
G01X0074983Y-047558D01*
G01X0074987Y-047566D01*
G01X0074991Y-047575D01*
G01X0074993Y-047585D01*
G01X0074994Y-047594D01*
G01X0074995Y-047604D01*
G01X0074995Y-048096D01*
G01X0074994Y-048106D01*
G01X0074993Y-048115D01*
G01X0074991Y-048125D01*
G01X0074987Y-048134D01*
G01X0074983Y-048142D01*
G01X0074978Y-048151D01*
G01X0074973Y-048159D01*
G01X0074966Y-048166D01*
G01X0074959Y-048172D01*
G01X0074951Y-048178D01*
G01X0074943Y-048183D01*
G01X0074934Y-048187D01*
G01X0074925Y-048190D01*
G01X0074916Y-048193D01*
G01X0074906Y-048194D01*
G01X0074896Y-048194D01*
G01X0074601Y-048194D01*
G01X0074592Y-048194D01*
G01X0074582Y-048193D01*
G01X0074573Y-048190D01*
G01X0074564Y-048187D01*
G01X0074555Y-048183D01*
G01X0074546Y-048178D01*
G01X0074539Y-048172D01*
G01X0074532Y-048166D01*
G01X0074525Y-048159D01*
G01X0074519Y-048151D01*
G01X0074514Y-048142D01*
G01X0074510Y-048134D01*
G01X0074507Y-048125D01*
G01X0074505Y-048115D01*
G01X0074503Y-048106D01*
G01X0074503Y-048096D01*
G01X0074503Y-047604D01*
G01X0074503Y-047594D01*
G01X0074505Y-047585D01*
G01X0074507Y-047575D01*
G01X0074510Y-047566D01*
G01X0074514Y-047558D01*
G01X0074519Y-047549D01*
G01X0074525Y-047541D01*
G01X0074532Y-047534D01*
G01X0074539Y-047528D01*
G01X0074546Y-047522D01*
G01X0074555Y-047517D01*
G01X0074564Y-047513D01*
G01X0074573Y-047510D01*
G01X0074582Y-047507D01*
G01X0074592Y-047506D01*
G01X0074601Y-047506D01*
G01X0074896Y-047506D01*
G01X0074906Y-047506D01*
G01X0074906Y-047506D01*
G37*
G54D11*
G01X0074749Y-047850D03*
G54D10*
G36*
G01X0076008Y-047506D02*
G01X0076018Y-047507D01*
G01X0076027Y-047510D01*
G01X0076036Y-047513D01*
G01X0076045Y-047517D01*
G01X0076054Y-047522D01*
G01X0076061Y-047528D01*
G01X0076068Y-047534D01*
G01X0076075Y-047541D01*
G01X0076081Y-047549D01*
G01X0076086Y-047558D01*
G01X0076090Y-047566D01*
G01X0076093Y-047575D01*
G01X0076095Y-047585D01*
G01X0076097Y-047594D01*
G01X0076097Y-047604D01*
G01X0076097Y-048096D01*
G01X0076097Y-048106D01*
G01X0076095Y-048115D01*
G01X0076093Y-048125D01*
G01X0076090Y-048134D01*
G01X0076086Y-048142D01*
G01X0076081Y-048151D01*
G01X0076075Y-048159D01*
G01X0076068Y-048166D01*
G01X0076061Y-048172D01*
G01X0076054Y-048178D01*
G01X0076045Y-048183D01*
G01X0076036Y-048187D01*
G01X0076027Y-048190D01*
G01X0076018Y-048193D01*
G01X0076008Y-048194D01*
G01X0075999Y-048194D01*
G01X0075704Y-048194D01*
G01X0075694Y-048194D01*
G01X0075684Y-048193D01*
G01X0075675Y-048190D01*
G01X0075666Y-048187D01*
G01X0075657Y-048183D01*
G01X0075649Y-048178D01*
G01X0075641Y-048172D01*
G01X0075634Y-048166D01*
G01X0075627Y-048159D01*
G01X0075622Y-048151D01*
G01X0075617Y-048142D01*
G01X0075613Y-048134D01*
G01X0075609Y-048125D01*
G01X0075607Y-048115D01*
G01X0075606Y-048106D01*
G01X0075605Y-048096D01*
G01X0075605Y-047604D01*
G01X0075606Y-047594D01*
G01X0075607Y-047585D01*
G01X0075609Y-047575D01*
G01X0075613Y-047566D01*
G01X0075617Y-047558D01*
G01X0075622Y-047549D01*
G01X0075627Y-047541D01*
G01X0075634Y-047534D01*
G01X0075641Y-047528D01*
G01X0075649Y-047522D01*
G01X0075657Y-047517D01*
G01X0075666Y-047513D01*
G01X0075675Y-047510D01*
G01X0075684Y-047507D01*
G01X0075694Y-047506D01*
G01X0075704Y-047506D01*
G01X0075999Y-047506D01*
G01X0076008Y-047506D01*
G01X0076008Y-047506D01*
G37*
G54D11*
G01X0075851Y-047850D03*
G54D10*
G36*
G01X0043908Y-033356D02*
G01X0043918Y-033357D01*
G01X0043927Y-033360D01*
G01X0043936Y-033363D01*
G01X0043945Y-033367D01*
G01X0043954Y-033372D01*
G01X0043961Y-033378D01*
G01X0043968Y-033384D01*
G01X0043975Y-033391D01*
G01X0043981Y-033399D01*
G01X0043986Y-033408D01*
G01X0043990Y-033416D01*
G01X0043993Y-033425D01*
G01X0043995Y-033435D01*
G01X0043997Y-033444D01*
G01X0043997Y-033454D01*
G01X0043997Y-033946D01*
G01X0043997Y-033956D01*
G01X0043995Y-033965D01*
G01X0043993Y-033975D01*
G01X0043990Y-033984D01*
G01X0043986Y-033992D01*
G01X0043981Y-034001D01*
G01X0043975Y-034009D01*
G01X0043968Y-034016D01*
G01X0043961Y-034022D01*
G01X0043954Y-034028D01*
G01X0043945Y-034033D01*
G01X0043936Y-034037D01*
G01X0043927Y-034040D01*
G01X0043918Y-034043D01*
G01X0043908Y-034044D01*
G01X0043899Y-034044D01*
G01X0043604Y-034044D01*
G01X0043594Y-034044D01*
G01X0043584Y-034043D01*
G01X0043575Y-034040D01*
G01X0043566Y-034037D01*
G01X0043557Y-034033D01*
G01X0043549Y-034028D01*
G01X0043541Y-034022D01*
G01X0043534Y-034016D01*
G01X0043527Y-034009D01*
G01X0043522Y-034001D01*
G01X0043517Y-033992D01*
G01X0043513Y-033984D01*
G01X0043509Y-033975D01*
G01X0043507Y-033965D01*
G01X0043506Y-033956D01*
G01X0043505Y-033946D01*
G01X0043505Y-033454D01*
G01X0043506Y-033444D01*
G01X0043507Y-033435D01*
G01X0043509Y-033425D01*
G01X0043513Y-033416D01*
G01X0043517Y-033408D01*
G01X0043522Y-033399D01*
G01X0043527Y-033391D01*
G01X0043534Y-033384D01*
G01X0043541Y-033378D01*
G01X0043549Y-033372D01*
G01X0043557Y-033367D01*
G01X0043566Y-033363D01*
G01X0043575Y-033360D01*
G01X0043584Y-033357D01*
G01X0043594Y-033356D01*
G01X0043604Y-033356D01*
G01X0043899Y-033356D01*
G01X0043908Y-033356D01*
G01X0043908Y-033356D01*
G37*
G54D11*
G01X0043751Y-033700D03*
G54D10*
G36*
G01X0042806Y-033356D02*
G01X0042816Y-033357D01*
G01X0042825Y-033360D01*
G01X0042834Y-033363D01*
G01X0042843Y-033367D01*
G01X0042851Y-033372D01*
G01X0042859Y-033378D01*
G01X0042866Y-033384D01*
G01X0042873Y-033391D01*
G01X0042878Y-033399D01*
G01X0042883Y-033408D01*
G01X0042887Y-033416D01*
G01X0042891Y-033425D01*
G01X0042893Y-033435D01*
G01X0042894Y-033444D01*
G01X0042895Y-033454D01*
G01X0042895Y-033946D01*
G01X0042894Y-033956D01*
G01X0042893Y-033965D01*
G01X0042891Y-033975D01*
G01X0042887Y-033984D01*
G01X0042883Y-033992D01*
G01X0042878Y-034001D01*
G01X0042873Y-034009D01*
G01X0042866Y-034016D01*
G01X0042859Y-034022D01*
G01X0042851Y-034028D01*
G01X0042843Y-034033D01*
G01X0042834Y-034037D01*
G01X0042825Y-034040D01*
G01X0042816Y-034043D01*
G01X0042806Y-034044D01*
G01X0042796Y-034044D01*
G01X0042501Y-034044D01*
G01X0042492Y-034044D01*
G01X0042482Y-034043D01*
G01X0042473Y-034040D01*
G01X0042464Y-034037D01*
G01X0042455Y-034033D01*
G01X0042446Y-034028D01*
G01X0042439Y-034022D01*
G01X0042432Y-034016D01*
G01X0042425Y-034009D01*
G01X0042419Y-034001D01*
G01X0042414Y-033992D01*
G01X0042410Y-033984D01*
G01X0042407Y-033975D01*
G01X0042405Y-033965D01*
G01X0042403Y-033956D01*
G01X0042403Y-033946D01*
G01X0042403Y-033454D01*
G01X0042403Y-033444D01*
G01X0042405Y-033435D01*
G01X0042407Y-033425D01*
G01X0042410Y-033416D01*
G01X0042414Y-033408D01*
G01X0042419Y-033399D01*
G01X0042425Y-033391D01*
G01X0042432Y-033384D01*
G01X0042439Y-033378D01*
G01X0042446Y-033372D01*
G01X0042455Y-033367D01*
G01X0042464Y-033363D01*
G01X0042473Y-033360D01*
G01X0042482Y-033357D01*
G01X0042492Y-033356D01*
G01X0042501Y-033356D01*
G01X0042796Y-033356D01*
G01X0042806Y-033356D01*
G01X0042806Y-033356D01*
G37*
G54D11*
G01X0042649Y-033700D03*
G54D10*
G36*
G01X0049456Y-053403D02*
G01X0049465Y-053405D01*
G01X0049475Y-053407D01*
G01X0049484Y-053410D01*
G01X0049492Y-053414D01*
G01X0049501Y-053419D01*
G01X0049509Y-053425D01*
G01X0049516Y-053432D01*
G01X0049522Y-053439D01*
G01X0049528Y-053446D01*
G01X0049533Y-053455D01*
G01X0049537Y-053464D01*
G01X0049540Y-053473D01*
G01X0049543Y-053482D01*
G01X0049544Y-053492D01*
G01X0049544Y-053501D01*
G01X0049544Y-053796D01*
G01X0049544Y-053806D01*
G01X0049543Y-053816D01*
G01X0049540Y-053825D01*
G01X0049537Y-053834D01*
G01X0049533Y-053843D01*
G01X0049528Y-053851D01*
G01X0049522Y-053859D01*
G01X0049516Y-053866D01*
G01X0049509Y-053873D01*
G01X0049501Y-053878D01*
G01X0049492Y-053883D01*
G01X0049484Y-053887D01*
G01X0049475Y-053891D01*
G01X0049465Y-053893D01*
G01X0049456Y-053894D01*
G01X0049446Y-053895D01*
G01X0048954Y-053895D01*
G01X0048944Y-053894D01*
G01X0048935Y-053893D01*
G01X0048925Y-053891D01*
G01X0048916Y-053887D01*
G01X0048908Y-053883D01*
G01X0048899Y-053878D01*
G01X0048891Y-053873D01*
G01X0048884Y-053866D01*
G01X0048878Y-053859D01*
G01X0048872Y-053851D01*
G01X0048867Y-053843D01*
G01X0048863Y-053834D01*
G01X0048860Y-053825D01*
G01X0048857Y-053816D01*
G01X0048856Y-053806D01*
G01X0048856Y-053796D01*
G01X0048856Y-053501D01*
G01X0048856Y-053492D01*
G01X0048857Y-053482D01*
G01X0048860Y-053473D01*
G01X0048863Y-053464D01*
G01X0048867Y-053455D01*
G01X0048872Y-053446D01*
G01X0048878Y-053439D01*
G01X0048884Y-053432D01*
G01X0048891Y-053425D01*
G01X0048899Y-053419D01*
G01X0048908Y-053414D01*
G01X0048916Y-053410D01*
G01X0048925Y-053407D01*
G01X0048935Y-053405D01*
G01X0048944Y-053403D01*
G01X0048954Y-053403D01*
G01X0049446Y-053403D01*
G01X0049456Y-053403D01*
G01X0049456Y-053403D01*
G37*
G54D11*
G01X0049200Y-053649D03*
G54D10*
G36*
G01X0049456Y-054506D02*
G01X0049465Y-054507D01*
G01X0049475Y-054509D01*
G01X0049484Y-054513D01*
G01X0049492Y-054517D01*
G01X0049501Y-054522D01*
G01X0049509Y-054527D01*
G01X0049516Y-054534D01*
G01X0049522Y-054541D01*
G01X0049528Y-054549D01*
G01X0049533Y-054557D01*
G01X0049537Y-054566D01*
G01X0049540Y-054575D01*
G01X0049543Y-054584D01*
G01X0049544Y-054594D01*
G01X0049544Y-054604D01*
G01X0049544Y-054899D01*
G01X0049544Y-054908D01*
G01X0049543Y-054918D01*
G01X0049540Y-054927D01*
G01X0049537Y-054936D01*
G01X0049533Y-054945D01*
G01X0049528Y-054954D01*
G01X0049522Y-054961D01*
G01X0049516Y-054968D01*
G01X0049509Y-054975D01*
G01X0049501Y-054981D01*
G01X0049492Y-054986D01*
G01X0049484Y-054990D01*
G01X0049475Y-054993D01*
G01X0049465Y-054995D01*
G01X0049456Y-054997D01*
G01X0049446Y-054997D01*
G01X0048954Y-054997D01*
G01X0048944Y-054997D01*
G01X0048935Y-054995D01*
G01X0048925Y-054993D01*
G01X0048916Y-054990D01*
G01X0048908Y-054986D01*
G01X0048899Y-054981D01*
G01X0048891Y-054975D01*
G01X0048884Y-054968D01*
G01X0048878Y-054961D01*
G01X0048872Y-054954D01*
G01X0048867Y-054945D01*
G01X0048863Y-054936D01*
G01X0048860Y-054927D01*
G01X0048857Y-054918D01*
G01X0048856Y-054908D01*
G01X0048856Y-054899D01*
G01X0048856Y-054604D01*
G01X0048856Y-054594D01*
G01X0048857Y-054584D01*
G01X0048860Y-054575D01*
G01X0048863Y-054566D01*
G01X0048867Y-054557D01*
G01X0048872Y-054549D01*
G01X0048878Y-054541D01*
G01X0048884Y-054534D01*
G01X0048891Y-054527D01*
G01X0048899Y-054522D01*
G01X0048908Y-054517D01*
G01X0048916Y-054513D01*
G01X0048925Y-054509D01*
G01X0048935Y-054507D01*
G01X0048944Y-054506D01*
G01X0048954Y-054505D01*
G01X0049446Y-054505D01*
G01X0049456Y-054506D01*
G01X0049456Y-054506D01*
G37*
G54D11*
G01X0049200Y-054751D03*
G54D10*
G36*
G01X0084606Y-047506D02*
G01X0084616Y-047507D01*
G01X0084625Y-047510D01*
G01X0084634Y-047513D01*
G01X0084643Y-047517D01*
G01X0084651Y-047522D01*
G01X0084659Y-047528D01*
G01X0084666Y-047534D01*
G01X0084673Y-047541D01*
G01X0084678Y-047549D01*
G01X0084683Y-047558D01*
G01X0084687Y-047566D01*
G01X0084691Y-047575D01*
G01X0084693Y-047585D01*
G01X0084694Y-047594D01*
G01X0084695Y-047604D01*
G01X0084695Y-048096D01*
G01X0084694Y-048106D01*
G01X0084693Y-048115D01*
G01X0084691Y-048125D01*
G01X0084687Y-048134D01*
G01X0084683Y-048142D01*
G01X0084678Y-048151D01*
G01X0084673Y-048159D01*
G01X0084666Y-048166D01*
G01X0084659Y-048172D01*
G01X0084651Y-048178D01*
G01X0084643Y-048183D01*
G01X0084634Y-048187D01*
G01X0084625Y-048190D01*
G01X0084616Y-048193D01*
G01X0084606Y-048194D01*
G01X0084596Y-048194D01*
G01X0084301Y-048194D01*
G01X0084292Y-048194D01*
G01X0084282Y-048193D01*
G01X0084273Y-048190D01*
G01X0084264Y-048187D01*
G01X0084255Y-048183D01*
G01X0084246Y-048178D01*
G01X0084239Y-048172D01*
G01X0084232Y-048166D01*
G01X0084225Y-048159D01*
G01X0084219Y-048151D01*
G01X0084214Y-048142D01*
G01X0084210Y-048134D01*
G01X0084207Y-048125D01*
G01X0084205Y-048115D01*
G01X0084203Y-048106D01*
G01X0084203Y-048096D01*
G01X0084203Y-047604D01*
G01X0084203Y-047594D01*
G01X0084205Y-047585D01*
G01X0084207Y-047575D01*
G01X0084210Y-047566D01*
G01X0084214Y-047558D01*
G01X0084219Y-047549D01*
G01X0084225Y-047541D01*
G01X0084232Y-047534D01*
G01X0084239Y-047528D01*
G01X0084246Y-047522D01*
G01X0084255Y-047517D01*
G01X0084264Y-047513D01*
G01X0084273Y-047510D01*
G01X0084282Y-047507D01*
G01X0084292Y-047506D01*
G01X0084301Y-047506D01*
G01X0084596Y-047506D01*
G01X0084606Y-047506D01*
G01X0084606Y-047506D01*
G37*
G54D11*
G01X0084449Y-047850D03*
G54D10*
G36*
G01X0085708Y-047506D02*
G01X0085718Y-047507D01*
G01X0085727Y-047510D01*
G01X0085736Y-047513D01*
G01X0085745Y-047517D01*
G01X0085754Y-047522D01*
G01X0085761Y-047528D01*
G01X0085768Y-047534D01*
G01X0085775Y-047541D01*
G01X0085781Y-047549D01*
G01X0085786Y-047558D01*
G01X0085790Y-047566D01*
G01X0085793Y-047575D01*
G01X0085795Y-047585D01*
G01X0085797Y-047594D01*
G01X0085797Y-047604D01*
G01X0085797Y-048096D01*
G01X0085797Y-048106D01*
G01X0085795Y-048115D01*
G01X0085793Y-048125D01*
G01X0085790Y-048134D01*
G01X0085786Y-048142D01*
G01X0085781Y-048151D01*
G01X0085775Y-048159D01*
G01X0085768Y-048166D01*
G01X0085761Y-048172D01*
G01X0085754Y-048178D01*
G01X0085745Y-048183D01*
G01X0085736Y-048187D01*
G01X0085727Y-048190D01*
G01X0085718Y-048193D01*
G01X0085708Y-048194D01*
G01X0085699Y-048194D01*
G01X0085404Y-048194D01*
G01X0085394Y-048194D01*
G01X0085384Y-048193D01*
G01X0085375Y-048190D01*
G01X0085366Y-048187D01*
G01X0085357Y-048183D01*
G01X0085349Y-048178D01*
G01X0085341Y-048172D01*
G01X0085334Y-048166D01*
G01X0085327Y-048159D01*
G01X0085322Y-048151D01*
G01X0085317Y-048142D01*
G01X0085313Y-048134D01*
G01X0085309Y-048125D01*
G01X0085307Y-048115D01*
G01X0085306Y-048106D01*
G01X0085305Y-048096D01*
G01X0085305Y-047604D01*
G01X0085306Y-047594D01*
G01X0085307Y-047585D01*
G01X0085309Y-047575D01*
G01X0085313Y-047566D01*
G01X0085317Y-047558D01*
G01X0085322Y-047549D01*
G01X0085327Y-047541D01*
G01X0085334Y-047534D01*
G01X0085341Y-047528D01*
G01X0085349Y-047522D01*
G01X0085357Y-047517D01*
G01X0085366Y-047513D01*
G01X0085375Y-047510D01*
G01X0085384Y-047507D01*
G01X0085394Y-047506D01*
G01X0085404Y-047506D01*
G01X0085699Y-047506D01*
G01X0085708Y-047506D01*
G01X0085708Y-047506D01*
G37*
G54D11*
G01X0085551Y-047850D03*
G54D10*
G36*
G01X0062160Y-044006D02*
G01X0062169Y-044007D01*
G01X0062179Y-044010D01*
G01X0062188Y-044013D01*
G01X0062196Y-044017D01*
G01X0062205Y-044022D01*
G01X0062212Y-044028D01*
G01X0062220Y-044034D01*
G01X0062226Y-044041D01*
G01X0062232Y-044049D01*
G01X0062237Y-044058D01*
G01X0062241Y-044066D01*
G01X0062244Y-044075D01*
G01X0062247Y-044085D01*
G01X0062248Y-044094D01*
G01X0062248Y-044104D01*
G01X0062248Y-044596D01*
G01X0062248Y-044606D01*
G01X0062247Y-044615D01*
G01X0062244Y-044625D01*
G01X0062241Y-044634D01*
G01X0062237Y-044642D01*
G01X0062232Y-044651D01*
G01X0062226Y-044659D01*
G01X0062220Y-044666D01*
G01X0062212Y-044672D01*
G01X0062205Y-044678D01*
G01X0062196Y-044683D01*
G01X0062188Y-044687D01*
G01X0062179Y-044690D01*
G01X0062169Y-044693D01*
G01X0062160Y-044694D01*
G01X0062150Y-044694D01*
G01X0061855Y-044694D01*
G01X0061845Y-044694D01*
G01X0061836Y-044693D01*
G01X0061826Y-044690D01*
G01X0061817Y-044687D01*
G01X0061808Y-044683D01*
G01X0061800Y-044678D01*
G01X0061792Y-044672D01*
G01X0061785Y-044666D01*
G01X0061779Y-044659D01*
G01X0061773Y-044651D01*
G01X0061768Y-044642D01*
G01X0061764Y-044634D01*
G01X0061761Y-044625D01*
G01X0061758Y-044615D01*
G01X0061757Y-044606D01*
G01X0061756Y-044596D01*
G01X0061756Y-044104D01*
G01X0061757Y-044094D01*
G01X0061758Y-044085D01*
G01X0061761Y-044075D01*
G01X0061764Y-044066D01*
G01X0061768Y-044058D01*
G01X0061773Y-044049D01*
G01X0061779Y-044041D01*
G01X0061785Y-044034D01*
G01X0061792Y-044028D01*
G01X0061800Y-044022D01*
G01X0061808Y-044017D01*
G01X0061817Y-044013D01*
G01X0061826Y-044010D01*
G01X0061836Y-044007D01*
G01X0061845Y-044006D01*
G01X0061855Y-044006D01*
G01X0062150Y-044006D01*
G01X0062160Y-044006D01*
G01X0062160Y-044006D01*
G37*
G54D11*
G01X0062002Y-044350D03*
G54D10*
G36*
G01X0061057Y-044006D02*
G01X0061067Y-044007D01*
G01X0061076Y-044010D01*
G01X0061085Y-044013D01*
G01X0061094Y-044017D01*
G01X0061102Y-044022D01*
G01X0061110Y-044028D01*
G01X0061117Y-044034D01*
G01X0061124Y-044041D01*
G01X0061129Y-044049D01*
G01X0061134Y-044058D01*
G01X0061139Y-044066D01*
G01X0061142Y-044075D01*
G01X0061144Y-044085D01*
G01X0061146Y-044094D01*
G01X0061146Y-044104D01*
G01X0061146Y-044596D01*
G01X0061146Y-044606D01*
G01X0061144Y-044615D01*
G01X0061142Y-044625D01*
G01X0061139Y-044634D01*
G01X0061134Y-044642D01*
G01X0061129Y-044651D01*
G01X0061124Y-044659D01*
G01X0061117Y-044666D01*
G01X0061110Y-044672D01*
G01X0061102Y-044678D01*
G01X0061094Y-044683D01*
G01X0061085Y-044687D01*
G01X0061076Y-044690D01*
G01X0061067Y-044693D01*
G01X0061057Y-044694D01*
G01X0061048Y-044694D01*
G01X0060752Y-044694D01*
G01X0060743Y-044694D01*
G01X0060733Y-044693D01*
G01X0060724Y-044690D01*
G01X0060715Y-044687D01*
G01X0060706Y-044683D01*
G01X0060698Y-044678D01*
G01X0060690Y-044672D01*
G01X0060683Y-044666D01*
G01X0060676Y-044659D01*
G01X0060671Y-044651D01*
G01X0060666Y-044642D01*
G01X0060661Y-044634D01*
G01X0060658Y-044625D01*
G01X0060656Y-044615D01*
G01X0060654Y-044606D01*
G01X0060654Y-044596D01*
G01X0060654Y-044104D01*
G01X0060654Y-044094D01*
G01X0060656Y-044085D01*
G01X0060658Y-044075D01*
G01X0060661Y-044066D01*
G01X0060666Y-044058D01*
G01X0060671Y-044049D01*
G01X0060676Y-044041D01*
G01X0060683Y-044034D01*
G01X0060690Y-044028D01*
G01X0060698Y-044022D01*
G01X0060706Y-044017D01*
G01X0060715Y-044013D01*
G01X0060724Y-044010D01*
G01X0060733Y-044007D01*
G01X0060743Y-044006D01*
G01X0060752Y-044006D01*
G01X0061048Y-044006D01*
G01X0061057Y-044006D01*
G01X0061057Y-044006D01*
G37*
G54D11*
G01X0060900Y-044350D03*
G54D10*
G36*
G01X0053556Y-042006D02*
G01X0053566Y-042007D01*
G01X0053575Y-042010D01*
G01X0053584Y-042013D01*
G01X0053593Y-042017D01*
G01X0053601Y-042022D01*
G01X0053609Y-042028D01*
G01X0053616Y-042034D01*
G01X0053623Y-042041D01*
G01X0053628Y-042049D01*
G01X0053633Y-042058D01*
G01X0053637Y-042066D01*
G01X0053641Y-042075D01*
G01X0053643Y-042085D01*
G01X0053644Y-042094D01*
G01X0053645Y-042104D01*
G01X0053645Y-042596D01*
G01X0053644Y-042606D01*
G01X0053643Y-042615D01*
G01X0053641Y-042625D01*
G01X0053637Y-042634D01*
G01X0053633Y-042642D01*
G01X0053628Y-042651D01*
G01X0053623Y-042659D01*
G01X0053616Y-042666D01*
G01X0053609Y-042672D01*
G01X0053601Y-042678D01*
G01X0053593Y-042683D01*
G01X0053584Y-042687D01*
G01X0053575Y-042690D01*
G01X0053566Y-042693D01*
G01X0053556Y-042694D01*
G01X0053546Y-042694D01*
G01X0053251Y-042694D01*
G01X0053242Y-042694D01*
G01X0053232Y-042693D01*
G01X0053223Y-042690D01*
G01X0053214Y-042687D01*
G01X0053205Y-042683D01*
G01X0053196Y-042678D01*
G01X0053189Y-042672D01*
G01X0053182Y-042666D01*
G01X0053175Y-042659D01*
G01X0053169Y-042651D01*
G01X0053164Y-042642D01*
G01X0053160Y-042634D01*
G01X0053157Y-042625D01*
G01X0053155Y-042615D01*
G01X0053153Y-042606D01*
G01X0053153Y-042596D01*
G01X0053153Y-042104D01*
G01X0053153Y-042094D01*
G01X0053155Y-042085D01*
G01X0053157Y-042075D01*
G01X0053160Y-042066D01*
G01X0053164Y-042058D01*
G01X0053169Y-042049D01*
G01X0053175Y-042041D01*
G01X0053182Y-042034D01*
G01X0053189Y-042028D01*
G01X0053196Y-042022D01*
G01X0053205Y-042017D01*
G01X0053214Y-042013D01*
G01X0053223Y-042010D01*
G01X0053232Y-042007D01*
G01X0053242Y-042006D01*
G01X0053251Y-042006D01*
G01X0053546Y-042006D01*
G01X0053556Y-042006D01*
G01X0053556Y-042006D01*
G37*
G54D11*
G01X0053399Y-042350D03*
G54D10*
G36*
G01X0054658Y-042006D02*
G01X0054668Y-042007D01*
G01X0054677Y-042010D01*
G01X0054686Y-042013D01*
G01X0054695Y-042017D01*
G01X0054704Y-042022D01*
G01X0054711Y-042028D01*
G01X0054718Y-042034D01*
G01X0054725Y-042041D01*
G01X0054731Y-042049D01*
G01X0054736Y-042058D01*
G01X0054740Y-042066D01*
G01X0054743Y-042075D01*
G01X0054745Y-042085D01*
G01X0054747Y-042094D01*
G01X0054747Y-042104D01*
G01X0054747Y-042596D01*
G01X0054747Y-042606D01*
G01X0054745Y-042615D01*
G01X0054743Y-042625D01*
G01X0054740Y-042634D01*
G01X0054736Y-042642D01*
G01X0054731Y-042651D01*
G01X0054725Y-042659D01*
G01X0054718Y-042666D01*
G01X0054711Y-042672D01*
G01X0054704Y-042678D01*
G01X0054695Y-042683D01*
G01X0054686Y-042687D01*
G01X0054677Y-042690D01*
G01X0054668Y-042693D01*
G01X0054658Y-042694D01*
G01X0054649Y-042694D01*
G01X0054354Y-042694D01*
G01X0054344Y-042694D01*
G01X0054334Y-042693D01*
G01X0054325Y-042690D01*
G01X0054316Y-042687D01*
G01X0054307Y-042683D01*
G01X0054299Y-042678D01*
G01X0054291Y-042672D01*
G01X0054284Y-042666D01*
G01X0054277Y-042659D01*
G01X0054272Y-042651D01*
G01X0054267Y-042642D01*
G01X0054263Y-042634D01*
G01X0054259Y-042625D01*
G01X0054257Y-042615D01*
G01X0054256Y-042606D01*
G01X0054255Y-042596D01*
G01X0054255Y-042104D01*
G01X0054256Y-042094D01*
G01X0054257Y-042085D01*
G01X0054259Y-042075D01*
G01X0054263Y-042066D01*
G01X0054267Y-042058D01*
G01X0054272Y-042049D01*
G01X0054277Y-042041D01*
G01X0054284Y-042034D01*
G01X0054291Y-042028D01*
G01X0054299Y-042022D01*
G01X0054307Y-042017D01*
G01X0054316Y-042013D01*
G01X0054325Y-042010D01*
G01X0054334Y-042007D01*
G01X0054344Y-042006D01*
G01X0054354Y-042006D01*
G01X0054649Y-042006D01*
G01X0054658Y-042006D01*
G01X0054658Y-042006D01*
G37*
G54D11*
G01X0054501Y-042350D03*
G54D10*
G36*
G01X0055358Y-052206D02*
G01X0055368Y-052207D01*
G01X0055377Y-052210D01*
G01X0055386Y-052213D01*
G01X0055395Y-052217D01*
G01X0055404Y-052222D01*
G01X0055411Y-052228D01*
G01X0055418Y-052234D01*
G01X0055425Y-052241D01*
G01X0055431Y-052249D01*
G01X0055436Y-052258D01*
G01X0055440Y-052266D01*
G01X0055443Y-052275D01*
G01X0055445Y-052285D01*
G01X0055447Y-052294D01*
G01X0055447Y-052304D01*
G01X0055447Y-052796D01*
G01X0055447Y-052806D01*
G01X0055445Y-052815D01*
G01X0055443Y-052825D01*
G01X0055440Y-052834D01*
G01X0055436Y-052842D01*
G01X0055431Y-052851D01*
G01X0055425Y-052859D01*
G01X0055418Y-052866D01*
G01X0055411Y-052872D01*
G01X0055404Y-052878D01*
G01X0055395Y-052883D01*
G01X0055386Y-052887D01*
G01X0055377Y-052890D01*
G01X0055368Y-052893D01*
G01X0055358Y-052894D01*
G01X0055349Y-052894D01*
G01X0055054Y-052894D01*
G01X0055044Y-052894D01*
G01X0055034Y-052893D01*
G01X0055025Y-052890D01*
G01X0055016Y-052887D01*
G01X0055007Y-052883D01*
G01X0054999Y-052878D01*
G01X0054991Y-052872D01*
G01X0054984Y-052866D01*
G01X0054977Y-052859D01*
G01X0054972Y-052851D01*
G01X0054967Y-052842D01*
G01X0054963Y-052834D01*
G01X0054959Y-052825D01*
G01X0054957Y-052815D01*
G01X0054956Y-052806D01*
G01X0054955Y-052796D01*
G01X0054955Y-052304D01*
G01X0054956Y-052294D01*
G01X0054957Y-052285D01*
G01X0054959Y-052275D01*
G01X0054963Y-052266D01*
G01X0054967Y-052258D01*
G01X0054972Y-052249D01*
G01X0054977Y-052241D01*
G01X0054984Y-052234D01*
G01X0054991Y-052228D01*
G01X0054999Y-052222D01*
G01X0055007Y-052217D01*
G01X0055016Y-052213D01*
G01X0055025Y-052210D01*
G01X0055034Y-052207D01*
G01X0055044Y-052206D01*
G01X0055054Y-052206D01*
G01X0055349Y-052206D01*
G01X0055358Y-052206D01*
G01X0055358Y-052206D01*
G37*
G54D11*
G01X0055201Y-052550D03*
G54D10*
G36*
G01X0054256Y-052206D02*
G01X0054266Y-052207D01*
G01X0054275Y-052210D01*
G01X0054284Y-052213D01*
G01X0054293Y-052217D01*
G01X0054301Y-052222D01*
G01X0054309Y-052228D01*
G01X0054316Y-052234D01*
G01X0054323Y-052241D01*
G01X0054328Y-052249D01*
G01X0054333Y-052258D01*
G01X0054337Y-052266D01*
G01X0054341Y-052275D01*
G01X0054343Y-052285D01*
G01X0054344Y-052294D01*
G01X0054345Y-052304D01*
G01X0054345Y-052796D01*
G01X0054344Y-052806D01*
G01X0054343Y-052815D01*
G01X0054341Y-052825D01*
G01X0054337Y-052834D01*
G01X0054333Y-052842D01*
G01X0054328Y-052851D01*
G01X0054323Y-052859D01*
G01X0054316Y-052866D01*
G01X0054309Y-052872D01*
G01X0054301Y-052878D01*
G01X0054293Y-052883D01*
G01X0054284Y-052887D01*
G01X0054275Y-052890D01*
G01X0054266Y-052893D01*
G01X0054256Y-052894D01*
G01X0054246Y-052894D01*
G01X0053951Y-052894D01*
G01X0053942Y-052894D01*
G01X0053932Y-052893D01*
G01X0053923Y-052890D01*
G01X0053914Y-052887D01*
G01X0053905Y-052883D01*
G01X0053896Y-052878D01*
G01X0053889Y-052872D01*
G01X0053882Y-052866D01*
G01X0053875Y-052859D01*
G01X0053869Y-052851D01*
G01X0053864Y-052842D01*
G01X0053860Y-052834D01*
G01X0053857Y-052825D01*
G01X0053855Y-052815D01*
G01X0053853Y-052806D01*
G01X0053853Y-052796D01*
G01X0053853Y-052304D01*
G01X0053853Y-052294D01*
G01X0053855Y-052285D01*
G01X0053857Y-052275D01*
G01X0053860Y-052266D01*
G01X0053864Y-052258D01*
G01X0053869Y-052249D01*
G01X0053875Y-052241D01*
G01X0053882Y-052234D01*
G01X0053889Y-052228D01*
G01X0053896Y-052222D01*
G01X0053905Y-052217D01*
G01X0053914Y-052213D01*
G01X0053923Y-052210D01*
G01X0053932Y-052207D01*
G01X0053942Y-052206D01*
G01X0053951Y-052206D01*
G01X0054246Y-052206D01*
G01X0054256Y-052206D01*
G01X0054256Y-052206D01*
G37*
G54D11*
G01X0054099Y-052550D03*
G54D10*
G36*
G01X0038356Y-044056D02*
G01X0038365Y-044057D01*
G01X0038375Y-044059D01*
G01X0038384Y-044063D01*
G01X0038392Y-044067D01*
G01X0038401Y-044072D01*
G01X0038409Y-044077D01*
G01X0038416Y-044084D01*
G01X0038422Y-044091D01*
G01X0038428Y-044099D01*
G01X0038433Y-044107D01*
G01X0038437Y-044116D01*
G01X0038440Y-044125D01*
G01X0038443Y-044134D01*
G01X0038444Y-044144D01*
G01X0038444Y-044154D01*
G01X0038444Y-044449D01*
G01X0038444Y-044458D01*
G01X0038443Y-044468D01*
G01X0038440Y-044477D01*
G01X0038437Y-044486D01*
G01X0038433Y-044495D01*
G01X0038428Y-044504D01*
G01X0038422Y-044511D01*
G01X0038416Y-044518D01*
G01X0038409Y-044525D01*
G01X0038401Y-044531D01*
G01X0038392Y-044536D01*
G01X0038384Y-044540D01*
G01X0038375Y-044543D01*
G01X0038365Y-044545D01*
G01X0038356Y-044547D01*
G01X0038346Y-044547D01*
G01X0037854Y-044547D01*
G01X0037844Y-044547D01*
G01X0037835Y-044545D01*
G01X0037825Y-044543D01*
G01X0037816Y-044540D01*
G01X0037808Y-044536D01*
G01X0037799Y-044531D01*
G01X0037791Y-044525D01*
G01X0037784Y-044518D01*
G01X0037778Y-044511D01*
G01X0037772Y-044504D01*
G01X0037767Y-044495D01*
G01X0037763Y-044486D01*
G01X0037760Y-044477D01*
G01X0037757Y-044468D01*
G01X0037756Y-044458D01*
G01X0037756Y-044449D01*
G01X0037756Y-044154D01*
G01X0037756Y-044144D01*
G01X0037757Y-044134D01*
G01X0037760Y-044125D01*
G01X0037763Y-044116D01*
G01X0037767Y-044107D01*
G01X0037772Y-044099D01*
G01X0037778Y-044091D01*
G01X0037784Y-044084D01*
G01X0037791Y-044077D01*
G01X0037799Y-044072D01*
G01X0037808Y-044067D01*
G01X0037816Y-044063D01*
G01X0037825Y-044059D01*
G01X0037835Y-044057D01*
G01X0037844Y-044056D01*
G01X0037854Y-044055D01*
G01X0038346Y-044055D01*
G01X0038356Y-044056D01*
G01X0038356Y-044056D01*
G37*
G54D11*
G01X0038100Y-044301D03*
G54D10*
G36*
G01X0038356Y-042953D02*
G01X0038365Y-042955D01*
G01X0038375Y-042957D01*
G01X0038384Y-042960D01*
G01X0038392Y-042964D01*
G01X0038401Y-042969D01*
G01X0038409Y-042975D01*
G01X0038416Y-042982D01*
G01X0038422Y-042989D01*
G01X0038428Y-042996D01*
G01X0038433Y-043005D01*
G01X0038437Y-043014D01*
G01X0038440Y-043023D01*
G01X0038443Y-043032D01*
G01X0038444Y-043042D01*
G01X0038444Y-043051D01*
G01X0038444Y-043346D01*
G01X0038444Y-043356D01*
G01X0038443Y-043366D01*
G01X0038440Y-043375D01*
G01X0038437Y-043384D01*
G01X0038433Y-043393D01*
G01X0038428Y-043401D01*
G01X0038422Y-043409D01*
G01X0038416Y-043416D01*
G01X0038409Y-043423D01*
G01X0038401Y-043428D01*
G01X0038392Y-043433D01*
G01X0038384Y-043437D01*
G01X0038375Y-043441D01*
G01X0038365Y-043443D01*
G01X0038356Y-043444D01*
G01X0038346Y-043445D01*
G01X0037854Y-043445D01*
G01X0037844Y-043444D01*
G01X0037835Y-043443D01*
G01X0037825Y-043441D01*
G01X0037816Y-043437D01*
G01X0037808Y-043433D01*
G01X0037799Y-043428D01*
G01X0037791Y-043423D01*
G01X0037784Y-043416D01*
G01X0037778Y-043409D01*
G01X0037772Y-043401D01*
G01X0037767Y-043393D01*
G01X0037763Y-043384D01*
G01X0037760Y-043375D01*
G01X0037757Y-043366D01*
G01X0037756Y-043356D01*
G01X0037756Y-043346D01*
G01X0037756Y-043051D01*
G01X0037756Y-043042D01*
G01X0037757Y-043032D01*
G01X0037760Y-043023D01*
G01X0037763Y-043014D01*
G01X0037767Y-043005D01*
G01X0037772Y-042996D01*
G01X0037778Y-042989D01*
G01X0037784Y-042982D01*
G01X0037791Y-042975D01*
G01X0037799Y-042969D01*
G01X0037808Y-042964D01*
G01X0037816Y-042960D01*
G01X0037825Y-042957D01*
G01X0037835Y-042955D01*
G01X0037844Y-042953D01*
G01X0037854Y-042953D01*
G01X0038346Y-042953D01*
G01X0038356Y-042953D01*
G01X0038356Y-042953D01*
G37*
G54D11*
G01X0038100Y-043199D03*
G54D12*
G01X0060667Y-039850D03*
G01X0062833Y-039850D03*
G54D13*
G01X0074080Y-048950D03*
G01X0074080Y-049450D03*
G01X0074080Y-049950D03*
G01X0074080Y-050450D03*
G01X0076120Y-050450D03*
G01X0076120Y-049950D03*
G01X0076120Y-049450D03*
G01X0076120Y-048950D03*
G01X0086020Y-048950D03*
G01X0086020Y-049450D03*
G01X0086020Y-049950D03*
G01X0086020Y-050450D03*
G01X0083980Y-050450D03*
G01X0083980Y-049950D03*
G01X0083980Y-049450D03*
G01X0083980Y-048950D03*
G01X0078980Y-048950D03*
G01X0078980Y-049450D03*
G01X0078980Y-049950D03*
G01X0078980Y-050450D03*
G01X0081020Y-050450D03*
G01X0081020Y-049950D03*
G01X0081020Y-049450D03*
G01X0081020Y-048950D03*
G54D14*
G01X0053956Y-044726D03*
G01X0053956Y-045474D03*
G01X0054744Y-045100D03*
G54D10*
G36*
G01X0049206Y-044253D02*
G01X0049215Y-044255D01*
G01X0049225Y-044257D01*
G01X0049234Y-044260D01*
G01X0049242Y-044264D01*
G01X0049251Y-044269D01*
G01X0049259Y-044275D01*
G01X0049266Y-044282D01*
G01X0049272Y-044289D01*
G01X0049278Y-044296D01*
G01X0049283Y-044305D01*
G01X0049287Y-044314D01*
G01X0049290Y-044323D01*
G01X0049293Y-044332D01*
G01X0049294Y-044342D01*
G01X0049294Y-044351D01*
G01X0049294Y-044646D01*
G01X0049294Y-044656D01*
G01X0049293Y-044666D01*
G01X0049290Y-044675D01*
G01X0049287Y-044684D01*
G01X0049283Y-044693D01*
G01X0049278Y-044701D01*
G01X0049272Y-044709D01*
G01X0049266Y-044716D01*
G01X0049259Y-044723D01*
G01X0049251Y-044728D01*
G01X0049242Y-044733D01*
G01X0049234Y-044737D01*
G01X0049225Y-044741D01*
G01X0049215Y-044743D01*
G01X0049206Y-044744D01*
G01X0049196Y-044745D01*
G01X0048704Y-044745D01*
G01X0048694Y-044744D01*
G01X0048685Y-044743D01*
G01X0048675Y-044741D01*
G01X0048666Y-044737D01*
G01X0048658Y-044733D01*
G01X0048649Y-044728D01*
G01X0048641Y-044723D01*
G01X0048634Y-044716D01*
G01X0048628Y-044709D01*
G01X0048622Y-044701D01*
G01X0048617Y-044693D01*
G01X0048613Y-044684D01*
G01X0048610Y-044675D01*
G01X0048607Y-044666D01*
G01X0048606Y-044656D01*
G01X0048606Y-044646D01*
G01X0048606Y-044351D01*
G01X0048606Y-044342D01*
G01X0048607Y-044332D01*
G01X0048610Y-044323D01*
G01X0048613Y-044314D01*
G01X0048617Y-044305D01*
G01X0048622Y-044296D01*
G01X0048628Y-044289D01*
G01X0048634Y-044282D01*
G01X0048641Y-044275D01*
G01X0048649Y-044269D01*
G01X0048658Y-044264D01*
G01X0048666Y-044260D01*
G01X0048675Y-044257D01*
G01X0048685Y-044255D01*
G01X0048694Y-044253D01*
G01X0048704Y-044253D01*
G01X0049196Y-044253D01*
G01X0049206Y-044253D01*
G01X0049206Y-044253D01*
G37*
G54D11*
G01X0048950Y-044499D03*
G54D10*
G36*
G01X0049206Y-045356D02*
G01X0049215Y-045357D01*
G01X0049225Y-045359D01*
G01X0049234Y-045363D01*
G01X0049242Y-045367D01*
G01X0049251Y-045372D01*
G01X0049259Y-045377D01*
G01X0049266Y-045384D01*
G01X0049272Y-045391D01*
G01X0049278Y-045399D01*
G01X0049283Y-045407D01*
G01X0049287Y-045416D01*
G01X0049290Y-045425D01*
G01X0049293Y-045434D01*
G01X0049294Y-045444D01*
G01X0049294Y-045454D01*
G01X0049294Y-045749D01*
G01X0049294Y-045758D01*
G01X0049293Y-045768D01*
G01X0049290Y-045777D01*
G01X0049287Y-045786D01*
G01X0049283Y-045795D01*
G01X0049278Y-045804D01*
G01X0049272Y-045811D01*
G01X0049266Y-045818D01*
G01X0049259Y-045825D01*
G01X0049251Y-045831D01*
G01X0049242Y-045836D01*
G01X0049234Y-045840D01*
G01X0049225Y-045843D01*
G01X0049215Y-045845D01*
G01X0049206Y-045847D01*
G01X0049196Y-045847D01*
G01X0048704Y-045847D01*
G01X0048694Y-045847D01*
G01X0048685Y-045845D01*
G01X0048675Y-045843D01*
G01X0048666Y-045840D01*
G01X0048658Y-045836D01*
G01X0048649Y-045831D01*
G01X0048641Y-045825D01*
G01X0048634Y-045818D01*
G01X0048628Y-045811D01*
G01X0048622Y-045804D01*
G01X0048617Y-045795D01*
G01X0048613Y-045786D01*
G01X0048610Y-045777D01*
G01X0048607Y-045768D01*
G01X0048606Y-045758D01*
G01X0048606Y-045749D01*
G01X0048606Y-045454D01*
G01X0048606Y-045444D01*
G01X0048607Y-045434D01*
G01X0048610Y-045425D01*
G01X0048613Y-045416D01*
G01X0048617Y-045407D01*
G01X0048622Y-045399D01*
G01X0048628Y-045391D01*
G01X0048634Y-045384D01*
G01X0048641Y-045377D01*
G01X0048649Y-045372D01*
G01X0048658Y-045367D01*
G01X0048666Y-045363D01*
G01X0048675Y-045359D01*
G01X0048685Y-045357D01*
G01X0048694Y-045356D01*
G01X0048704Y-045355D01*
G01X0049196Y-045355D01*
G01X0049206Y-045356D01*
G01X0049206Y-045356D01*
G37*
G54D11*
G01X0048950Y-045601D03*
G54D10*
G36*
G01X0053206Y-044353D02*
G01X0053215Y-044355D01*
G01X0053225Y-044357D01*
G01X0053234Y-044360D01*
G01X0053242Y-044364D01*
G01X0053251Y-044369D01*
G01X0053259Y-044375D01*
G01X0053266Y-044382D01*
G01X0053272Y-044389D01*
G01X0053278Y-044396D01*
G01X0053283Y-044405D01*
G01X0053287Y-044414D01*
G01X0053290Y-044423D01*
G01X0053293Y-044432D01*
G01X0053294Y-044442D01*
G01X0053294Y-044451D01*
G01X0053294Y-044746D01*
G01X0053294Y-044756D01*
G01X0053293Y-044766D01*
G01X0053290Y-044775D01*
G01X0053287Y-044784D01*
G01X0053283Y-044793D01*
G01X0053278Y-044801D01*
G01X0053272Y-044809D01*
G01X0053266Y-044816D01*
G01X0053259Y-044823D01*
G01X0053251Y-044828D01*
G01X0053242Y-044833D01*
G01X0053234Y-044837D01*
G01X0053225Y-044841D01*
G01X0053215Y-044843D01*
G01X0053206Y-044844D01*
G01X0053196Y-044845D01*
G01X0052704Y-044845D01*
G01X0052694Y-044844D01*
G01X0052685Y-044843D01*
G01X0052675Y-044841D01*
G01X0052666Y-044837D01*
G01X0052658Y-044833D01*
G01X0052649Y-044828D01*
G01X0052641Y-044823D01*
G01X0052634Y-044816D01*
G01X0052628Y-044809D01*
G01X0052622Y-044801D01*
G01X0052617Y-044793D01*
G01X0052613Y-044784D01*
G01X0052610Y-044775D01*
G01X0052607Y-044766D01*
G01X0052606Y-044756D01*
G01X0052606Y-044746D01*
G01X0052606Y-044451D01*
G01X0052606Y-044442D01*
G01X0052607Y-044432D01*
G01X0052610Y-044423D01*
G01X0052613Y-044414D01*
G01X0052617Y-044405D01*
G01X0052622Y-044396D01*
G01X0052628Y-044389D01*
G01X0052634Y-044382D01*
G01X0052641Y-044375D01*
G01X0052649Y-044369D01*
G01X0052658Y-044364D01*
G01X0052666Y-044360D01*
G01X0052675Y-044357D01*
G01X0052685Y-044355D01*
G01X0052694Y-044353D01*
G01X0052704Y-044353D01*
G01X0053196Y-044353D01*
G01X0053206Y-044353D01*
G01X0053206Y-044353D01*
G37*
G54D11*
G01X0052950Y-044599D03*
G54D10*
G36*
G01X0053206Y-045456D02*
G01X0053215Y-045457D01*
G01X0053225Y-045459D01*
G01X0053234Y-045463D01*
G01X0053242Y-045467D01*
G01X0053251Y-045472D01*
G01X0053259Y-045477D01*
G01X0053266Y-045484D01*
G01X0053272Y-045491D01*
G01X0053278Y-045499D01*
G01X0053283Y-045507D01*
G01X0053287Y-045516D01*
G01X0053290Y-045525D01*
G01X0053293Y-045534D01*
G01X0053294Y-045544D01*
G01X0053294Y-045554D01*
G01X0053294Y-045849D01*
G01X0053294Y-045858D01*
G01X0053293Y-045868D01*
G01X0053290Y-045877D01*
G01X0053287Y-045886D01*
G01X0053283Y-045895D01*
G01X0053278Y-045904D01*
G01X0053272Y-045911D01*
G01X0053266Y-045918D01*
G01X0053259Y-045925D01*
G01X0053251Y-045931D01*
G01X0053242Y-045936D01*
G01X0053234Y-045940D01*
G01X0053225Y-045943D01*
G01X0053215Y-045945D01*
G01X0053206Y-045947D01*
G01X0053196Y-045947D01*
G01X0052704Y-045947D01*
G01X0052694Y-045947D01*
G01X0052685Y-045945D01*
G01X0052675Y-045943D01*
G01X0052666Y-045940D01*
G01X0052658Y-045936D01*
G01X0052649Y-045931D01*
G01X0052641Y-045925D01*
G01X0052634Y-045918D01*
G01X0052628Y-045911D01*
G01X0052622Y-045904D01*
G01X0052617Y-045895D01*
G01X0052613Y-045886D01*
G01X0052610Y-045877D01*
G01X0052607Y-045868D01*
G01X0052606Y-045858D01*
G01X0052606Y-045849D01*
G01X0052606Y-045554D01*
G01X0052606Y-045544D01*
G01X0052607Y-045534D01*
G01X0052610Y-045525D01*
G01X0052613Y-045516D01*
G01X0052617Y-045507D01*
G01X0052622Y-045499D01*
G01X0052628Y-045491D01*
G01X0052634Y-045484D01*
G01X0052641Y-045477D01*
G01X0052649Y-045472D01*
G01X0052658Y-045467D01*
G01X0052666Y-045463D01*
G01X0052675Y-045459D01*
G01X0052685Y-045457D01*
G01X0052694Y-045456D01*
G01X0052704Y-045455D01*
G01X0053196Y-045455D01*
G01X0053206Y-045456D01*
G01X0053206Y-045456D01*
G37*
G54D11*
G01X0052950Y-045701D03*
G54D10*
G36*
G01X0064808Y-045056D02*
G01X0064818Y-045057D01*
G01X0064827Y-045060D01*
G01X0064836Y-045063D01*
G01X0064845Y-045067D01*
G01X0064854Y-045072D01*
G01X0064861Y-045078D01*
G01X0064868Y-045084D01*
G01X0064875Y-045091D01*
G01X0064881Y-045099D01*
G01X0064886Y-045108D01*
G01X0064890Y-045116D01*
G01X0064893Y-045125D01*
G01X0064895Y-045135D01*
G01X0064897Y-045144D01*
G01X0064897Y-045154D01*
G01X0064897Y-045646D01*
G01X0064897Y-045656D01*
G01X0064895Y-045665D01*
G01X0064893Y-045675D01*
G01X0064890Y-045684D01*
G01X0064886Y-045692D01*
G01X0064881Y-045701D01*
G01X0064875Y-045709D01*
G01X0064868Y-045716D01*
G01X0064861Y-045722D01*
G01X0064854Y-045728D01*
G01X0064845Y-045733D01*
G01X0064836Y-045737D01*
G01X0064827Y-045740D01*
G01X0064818Y-045743D01*
G01X0064808Y-045744D01*
G01X0064799Y-045744D01*
G01X0064504Y-045744D01*
G01X0064494Y-045744D01*
G01X0064484Y-045743D01*
G01X0064475Y-045740D01*
G01X0064466Y-045737D01*
G01X0064457Y-045733D01*
G01X0064449Y-045728D01*
G01X0064441Y-045722D01*
G01X0064434Y-045716D01*
G01X0064427Y-045709D01*
G01X0064422Y-045701D01*
G01X0064417Y-045692D01*
G01X0064413Y-045684D01*
G01X0064409Y-045675D01*
G01X0064407Y-045665D01*
G01X0064406Y-045656D01*
G01X0064405Y-045646D01*
G01X0064405Y-045154D01*
G01X0064406Y-045144D01*
G01X0064407Y-045135D01*
G01X0064409Y-045125D01*
G01X0064413Y-045116D01*
G01X0064417Y-045108D01*
G01X0064422Y-045099D01*
G01X0064427Y-045091D01*
G01X0064434Y-045084D01*
G01X0064441Y-045078D01*
G01X0064449Y-045072D01*
G01X0064457Y-045067D01*
G01X0064466Y-045063D01*
G01X0064475Y-045060D01*
G01X0064484Y-045057D01*
G01X0064494Y-045056D01*
G01X0064504Y-045056D01*
G01X0064799Y-045056D01*
G01X0064808Y-045056D01*
G01X0064808Y-045056D01*
G37*
G54D11*
G01X0064651Y-045400D03*
G54D10*
G36*
G01X0063706Y-045056D02*
G01X0063716Y-045057D01*
G01X0063725Y-045060D01*
G01X0063734Y-045063D01*
G01X0063743Y-045067D01*
G01X0063751Y-045072D01*
G01X0063759Y-045078D01*
G01X0063766Y-045084D01*
G01X0063773Y-045091D01*
G01X0063778Y-045099D01*
G01X0063783Y-045108D01*
G01X0063787Y-045116D01*
G01X0063791Y-045125D01*
G01X0063793Y-045135D01*
G01X0063794Y-045144D01*
G01X0063795Y-045154D01*
G01X0063795Y-045646D01*
G01X0063794Y-045656D01*
G01X0063793Y-045665D01*
G01X0063791Y-045675D01*
G01X0063787Y-045684D01*
G01X0063783Y-045692D01*
G01X0063778Y-045701D01*
G01X0063773Y-045709D01*
G01X0063766Y-045716D01*
G01X0063759Y-045722D01*
G01X0063751Y-045728D01*
G01X0063743Y-045733D01*
G01X0063734Y-045737D01*
G01X0063725Y-045740D01*
G01X0063716Y-045743D01*
G01X0063706Y-045744D01*
G01X0063696Y-045744D01*
G01X0063401Y-045744D01*
G01X0063392Y-045744D01*
G01X0063382Y-045743D01*
G01X0063373Y-045740D01*
G01X0063364Y-045737D01*
G01X0063355Y-045733D01*
G01X0063346Y-045728D01*
G01X0063339Y-045722D01*
G01X0063332Y-045716D01*
G01X0063325Y-045709D01*
G01X0063319Y-045701D01*
G01X0063314Y-045692D01*
G01X0063310Y-045684D01*
G01X0063307Y-045675D01*
G01X0063305Y-045665D01*
G01X0063303Y-045656D01*
G01X0063303Y-045646D01*
G01X0063303Y-045154D01*
G01X0063303Y-045144D01*
G01X0063305Y-045135D01*
G01X0063307Y-045125D01*
G01X0063310Y-045116D01*
G01X0063314Y-045108D01*
G01X0063319Y-045099D01*
G01X0063325Y-045091D01*
G01X0063332Y-045084D01*
G01X0063339Y-045078D01*
G01X0063346Y-045072D01*
G01X0063355Y-045067D01*
G01X0063364Y-045063D01*
G01X0063373Y-045060D01*
G01X0063382Y-045057D01*
G01X0063392Y-045056D01*
G01X0063401Y-045056D01*
G01X0063696Y-045056D01*
G01X0063706Y-045056D01*
G01X0063706Y-045056D01*
G37*
G54D11*
G01X0063549Y-045400D03*
G54D10*
G36*
G01X0062008Y-033856D02*
G01X0062018Y-033857D01*
G01X0062027Y-033860D01*
G01X0062036Y-033863D01*
G01X0062045Y-033867D01*
G01X0062054Y-033872D01*
G01X0062061Y-033878D01*
G01X0062068Y-033884D01*
G01X0062075Y-033891D01*
G01X0062081Y-033899D01*
G01X0062086Y-033908D01*
G01X0062090Y-033916D01*
G01X0062093Y-033925D01*
G01X0062095Y-033935D01*
G01X0062097Y-033944D01*
G01X0062097Y-033954D01*
G01X0062097Y-034446D01*
G01X0062097Y-034456D01*
G01X0062095Y-034465D01*
G01X0062093Y-034475D01*
G01X0062090Y-034484D01*
G01X0062086Y-034492D01*
G01X0062081Y-034501D01*
G01X0062075Y-034509D01*
G01X0062068Y-034516D01*
G01X0062061Y-034522D01*
G01X0062054Y-034528D01*
G01X0062045Y-034533D01*
G01X0062036Y-034537D01*
G01X0062027Y-034540D01*
G01X0062018Y-034543D01*
G01X0062008Y-034544D01*
G01X0061999Y-034544D01*
G01X0061704Y-034544D01*
G01X0061694Y-034544D01*
G01X0061684Y-034543D01*
G01X0061675Y-034540D01*
G01X0061666Y-034537D01*
G01X0061657Y-034533D01*
G01X0061649Y-034528D01*
G01X0061641Y-034522D01*
G01X0061634Y-034516D01*
G01X0061627Y-034509D01*
G01X0061622Y-034501D01*
G01X0061617Y-034492D01*
G01X0061613Y-034484D01*
G01X0061609Y-034475D01*
G01X0061607Y-034465D01*
G01X0061606Y-034456D01*
G01X0061605Y-034446D01*
G01X0061605Y-033954D01*
G01X0061606Y-033944D01*
G01X0061607Y-033935D01*
G01X0061609Y-033925D01*
G01X0061613Y-033916D01*
G01X0061617Y-033908D01*
G01X0061622Y-033899D01*
G01X0061627Y-033891D01*
G01X0061634Y-033884D01*
G01X0061641Y-033878D01*
G01X0061649Y-033872D01*
G01X0061657Y-033867D01*
G01X0061666Y-033863D01*
G01X0061675Y-033860D01*
G01X0061684Y-033857D01*
G01X0061694Y-033856D01*
G01X0061704Y-033856D01*
G01X0061999Y-033856D01*
G01X0062008Y-033856D01*
G01X0062008Y-033856D01*
G37*
G54D11*
G01X0061851Y-034200D03*
G54D10*
G36*
G01X0060906Y-033856D02*
G01X0060916Y-033857D01*
G01X0060925Y-033860D01*
G01X0060934Y-033863D01*
G01X0060943Y-033867D01*
G01X0060951Y-033872D01*
G01X0060959Y-033878D01*
G01X0060966Y-033884D01*
G01X0060973Y-033891D01*
G01X0060978Y-033899D01*
G01X0060983Y-033908D01*
G01X0060987Y-033916D01*
G01X0060991Y-033925D01*
G01X0060993Y-033935D01*
G01X0060994Y-033944D01*
G01X0060995Y-033954D01*
G01X0060995Y-034446D01*
G01X0060994Y-034456D01*
G01X0060993Y-034465D01*
G01X0060991Y-034475D01*
G01X0060987Y-034484D01*
G01X0060983Y-034492D01*
G01X0060978Y-034501D01*
G01X0060973Y-034509D01*
G01X0060966Y-034516D01*
G01X0060959Y-034522D01*
G01X0060951Y-034528D01*
G01X0060943Y-034533D01*
G01X0060934Y-034537D01*
G01X0060925Y-034540D01*
G01X0060916Y-034543D01*
G01X0060906Y-034544D01*
G01X0060896Y-034544D01*
G01X0060601Y-034544D01*
G01X0060592Y-034544D01*
G01X0060582Y-034543D01*
G01X0060573Y-034540D01*
G01X0060564Y-034537D01*
G01X0060555Y-034533D01*
G01X0060546Y-034528D01*
G01X0060539Y-034522D01*
G01X0060532Y-034516D01*
G01X0060525Y-034509D01*
G01X0060519Y-034501D01*
G01X0060514Y-034492D01*
G01X0060510Y-034484D01*
G01X0060507Y-034475D01*
G01X0060505Y-034465D01*
G01X0060503Y-034456D01*
G01X0060503Y-034446D01*
G01X0060503Y-033954D01*
G01X0060503Y-033944D01*
G01X0060505Y-033935D01*
G01X0060507Y-033925D01*
G01X0060510Y-033916D01*
G01X0060514Y-033908D01*
G01X0060519Y-033899D01*
G01X0060525Y-033891D01*
G01X0060532Y-033884D01*
G01X0060539Y-033878D01*
G01X0060546Y-033872D01*
G01X0060555Y-033867D01*
G01X0060564Y-033863D01*
G01X0060573Y-033860D01*
G01X0060582Y-033857D01*
G01X0060592Y-033856D01*
G01X0060601Y-033856D01*
G01X0060896Y-033856D01*
G01X0060906Y-033856D01*
G01X0060906Y-033856D01*
G37*
G54D11*
G01X0060749Y-034200D03*
G54D10*
G36*
G01X0062106Y-030356D02*
G01X0062116Y-030357D01*
G01X0062125Y-030360D01*
G01X0062134Y-030363D01*
G01X0062143Y-030367D01*
G01X0062151Y-030372D01*
G01X0062159Y-030378D01*
G01X0062166Y-030384D01*
G01X0062173Y-030391D01*
G01X0062178Y-030399D01*
G01X0062183Y-030408D01*
G01X0062187Y-030416D01*
G01X0062191Y-030425D01*
G01X0062193Y-030435D01*
G01X0062194Y-030444D01*
G01X0062195Y-030454D01*
G01X0062195Y-030946D01*
G01X0062194Y-030956D01*
G01X0062193Y-030965D01*
G01X0062191Y-030975D01*
G01X0062187Y-030984D01*
G01X0062183Y-030992D01*
G01X0062178Y-031001D01*
G01X0062173Y-031009D01*
G01X0062166Y-031016D01*
G01X0062159Y-031022D01*
G01X0062151Y-031028D01*
G01X0062143Y-031033D01*
G01X0062134Y-031037D01*
G01X0062125Y-031040D01*
G01X0062116Y-031043D01*
G01X0062106Y-031044D01*
G01X0062096Y-031044D01*
G01X0061801Y-031044D01*
G01X0061792Y-031044D01*
G01X0061782Y-031043D01*
G01X0061773Y-031040D01*
G01X0061764Y-031037D01*
G01X0061755Y-031033D01*
G01X0061746Y-031028D01*
G01X0061739Y-031022D01*
G01X0061732Y-031016D01*
G01X0061725Y-031009D01*
G01X0061719Y-031001D01*
G01X0061714Y-030992D01*
G01X0061710Y-030984D01*
G01X0061707Y-030975D01*
G01X0061705Y-030965D01*
G01X0061703Y-030956D01*
G01X0061703Y-030946D01*
G01X0061703Y-030454D01*
G01X0061703Y-030444D01*
G01X0061705Y-030435D01*
G01X0061707Y-030425D01*
G01X0061710Y-030416D01*
G01X0061714Y-030408D01*
G01X0061719Y-030399D01*
G01X0061725Y-030391D01*
G01X0061732Y-030384D01*
G01X0061739Y-030378D01*
G01X0061746Y-030372D01*
G01X0061755Y-030367D01*
G01X0061764Y-030363D01*
G01X0061773Y-030360D01*
G01X0061782Y-030357D01*
G01X0061792Y-030356D01*
G01X0061801Y-030356D01*
G01X0062096Y-030356D01*
G01X0062106Y-030356D01*
G01X0062106Y-030356D01*
G37*
G54D11*
G01X0061949Y-030700D03*
G54D10*
G36*
G01X0063208Y-030356D02*
G01X0063218Y-030357D01*
G01X0063227Y-030360D01*
G01X0063236Y-030363D01*
G01X0063245Y-030367D01*
G01X0063254Y-030372D01*
G01X0063261Y-030378D01*
G01X0063268Y-030384D01*
G01X0063275Y-030391D01*
G01X0063281Y-030399D01*
G01X0063286Y-030408D01*
G01X0063290Y-030416D01*
G01X0063293Y-030425D01*
G01X0063295Y-030435D01*
G01X0063297Y-030444D01*
G01X0063297Y-030454D01*
G01X0063297Y-030946D01*
G01X0063297Y-030956D01*
G01X0063295Y-030965D01*
G01X0063293Y-030975D01*
G01X0063290Y-030984D01*
G01X0063286Y-030992D01*
G01X0063281Y-031001D01*
G01X0063275Y-031009D01*
G01X0063268Y-031016D01*
G01X0063261Y-031022D01*
G01X0063254Y-031028D01*
G01X0063245Y-031033D01*
G01X0063236Y-031037D01*
G01X0063227Y-031040D01*
G01X0063218Y-031043D01*
G01X0063208Y-031044D01*
G01X0063199Y-031044D01*
G01X0062904Y-031044D01*
G01X0062894Y-031044D01*
G01X0062884Y-031043D01*
G01X0062875Y-031040D01*
G01X0062866Y-031037D01*
G01X0062857Y-031033D01*
G01X0062849Y-031028D01*
G01X0062841Y-031022D01*
G01X0062834Y-031016D01*
G01X0062827Y-031009D01*
G01X0062822Y-031001D01*
G01X0062817Y-030992D01*
G01X0062813Y-030984D01*
G01X0062809Y-030975D01*
G01X0062807Y-030965D01*
G01X0062806Y-030956D01*
G01X0062805Y-030946D01*
G01X0062805Y-030454D01*
G01X0062806Y-030444D01*
G01X0062807Y-030435D01*
G01X0062809Y-030425D01*
G01X0062813Y-030416D01*
G01X0062817Y-030408D01*
G01X0062822Y-030399D01*
G01X0062827Y-030391D01*
G01X0062834Y-030384D01*
G01X0062841Y-030378D01*
G01X0062849Y-030372D01*
G01X0062857Y-030367D01*
G01X0062866Y-030363D01*
G01X0062875Y-030360D01*
G01X0062884Y-030357D01*
G01X0062894Y-030356D01*
G01X0062904Y-030356D01*
G01X0063199Y-030356D01*
G01X0063208Y-030356D01*
G01X0063208Y-030356D01*
G37*
G54D11*
G01X0063051Y-030700D03*
G54D10*
G36*
G01X0063208Y-032156D02*
G01X0063218Y-032157D01*
G01X0063227Y-032160D01*
G01X0063236Y-032163D01*
G01X0063245Y-032167D01*
G01X0063254Y-032172D01*
G01X0063261Y-032178D01*
G01X0063268Y-032184D01*
G01X0063275Y-032191D01*
G01X0063281Y-032199D01*
G01X0063286Y-032208D01*
G01X0063290Y-032216D01*
G01X0063293Y-032225D01*
G01X0063295Y-032235D01*
G01X0063297Y-032244D01*
G01X0063297Y-032254D01*
G01X0063297Y-032746D01*
G01X0063297Y-032756D01*
G01X0063295Y-032765D01*
G01X0063293Y-032775D01*
G01X0063290Y-032784D01*
G01X0063286Y-032792D01*
G01X0063281Y-032801D01*
G01X0063275Y-032809D01*
G01X0063268Y-032816D01*
G01X0063261Y-032822D01*
G01X0063254Y-032828D01*
G01X0063245Y-032833D01*
G01X0063236Y-032837D01*
G01X0063227Y-032840D01*
G01X0063218Y-032843D01*
G01X0063208Y-032844D01*
G01X0063199Y-032844D01*
G01X0062904Y-032844D01*
G01X0062894Y-032844D01*
G01X0062884Y-032843D01*
G01X0062875Y-032840D01*
G01X0062866Y-032837D01*
G01X0062857Y-032833D01*
G01X0062849Y-032828D01*
G01X0062841Y-032822D01*
G01X0062834Y-032816D01*
G01X0062827Y-032809D01*
G01X0062822Y-032801D01*
G01X0062817Y-032792D01*
G01X0062813Y-032784D01*
G01X0062809Y-032775D01*
G01X0062807Y-032765D01*
G01X0062806Y-032756D01*
G01X0062805Y-032746D01*
G01X0062805Y-032254D01*
G01X0062806Y-032244D01*
G01X0062807Y-032235D01*
G01X0062809Y-032225D01*
G01X0062813Y-032216D01*
G01X0062817Y-032208D01*
G01X0062822Y-032199D01*
G01X0062827Y-032191D01*
G01X0062834Y-032184D01*
G01X0062841Y-032178D01*
G01X0062849Y-032172D01*
G01X0062857Y-032167D01*
G01X0062866Y-032163D01*
G01X0062875Y-032160D01*
G01X0062884Y-032157D01*
G01X0062894Y-032156D01*
G01X0062904Y-032156D01*
G01X0063199Y-032156D01*
G01X0063208Y-032156D01*
G01X0063208Y-032156D01*
G37*
G54D11*
G01X0063051Y-032500D03*
G54D10*
G36*
G01X0062106Y-032156D02*
G01X0062116Y-032157D01*
G01X0062125Y-032160D01*
G01X0062134Y-032163D01*
G01X0062143Y-032167D01*
G01X0062151Y-032172D01*
G01X0062159Y-032178D01*
G01X0062166Y-032184D01*
G01X0062173Y-032191D01*
G01X0062178Y-032199D01*
G01X0062183Y-032208D01*
G01X0062187Y-032216D01*
G01X0062191Y-032225D01*
G01X0062193Y-032235D01*
G01X0062194Y-032244D01*
G01X0062195Y-032254D01*
G01X0062195Y-032746D01*
G01X0062194Y-032756D01*
G01X0062193Y-032765D01*
G01X0062191Y-032775D01*
G01X0062187Y-032784D01*
G01X0062183Y-032792D01*
G01X0062178Y-032801D01*
G01X0062173Y-032809D01*
G01X0062166Y-032816D01*
G01X0062159Y-032822D01*
G01X0062151Y-032828D01*
G01X0062143Y-032833D01*
G01X0062134Y-032837D01*
G01X0062125Y-032840D01*
G01X0062116Y-032843D01*
G01X0062106Y-032844D01*
G01X0062096Y-032844D01*
G01X0061801Y-032844D01*
G01X0061792Y-032844D01*
G01X0061782Y-032843D01*
G01X0061773Y-032840D01*
G01X0061764Y-032837D01*
G01X0061755Y-032833D01*
G01X0061746Y-032828D01*
G01X0061739Y-032822D01*
G01X0061732Y-032816D01*
G01X0061725Y-032809D01*
G01X0061719Y-032801D01*
G01X0061714Y-032792D01*
G01X0061710Y-032784D01*
G01X0061707Y-032775D01*
G01X0061705Y-032765D01*
G01X0061703Y-032756D01*
G01X0061703Y-032746D01*
G01X0061703Y-032254D01*
G01X0061703Y-032244D01*
G01X0061705Y-032235D01*
G01X0061707Y-032225D01*
G01X0061710Y-032216D01*
G01X0061714Y-032208D01*
G01X0061719Y-032199D01*
G01X0061725Y-032191D01*
G01X0061732Y-032184D01*
G01X0061739Y-032178D01*
G01X0061746Y-032172D01*
G01X0061755Y-032167D01*
G01X0061764Y-032163D01*
G01X0061773Y-032160D01*
G01X0061782Y-032157D01*
G01X0061792Y-032156D01*
G01X0061801Y-032156D01*
G01X0062096Y-032156D01*
G01X0062106Y-032156D01*
G01X0062106Y-032156D01*
G37*
G54D11*
G01X0061949Y-032500D03*
G54D10*
G36*
G01X0062008Y-035006D02*
G01X0062018Y-035007D01*
G01X0062027Y-035010D01*
G01X0062036Y-035013D01*
G01X0062045Y-035017D01*
G01X0062054Y-035022D01*
G01X0062061Y-035028D01*
G01X0062068Y-035034D01*
G01X0062075Y-035041D01*
G01X0062081Y-035049D01*
G01X0062086Y-035058D01*
G01X0062090Y-035066D01*
G01X0062093Y-035075D01*
G01X0062095Y-035085D01*
G01X0062097Y-035094D01*
G01X0062097Y-035104D01*
G01X0062097Y-035596D01*
G01X0062097Y-035606D01*
G01X0062095Y-035615D01*
G01X0062093Y-035625D01*
G01X0062090Y-035634D01*
G01X0062086Y-035642D01*
G01X0062081Y-035651D01*
G01X0062075Y-035659D01*
G01X0062068Y-035666D01*
G01X0062061Y-035672D01*
G01X0062054Y-035678D01*
G01X0062045Y-035683D01*
G01X0062036Y-035687D01*
G01X0062027Y-035690D01*
G01X0062018Y-035693D01*
G01X0062008Y-035694D01*
G01X0061999Y-035694D01*
G01X0061704Y-035694D01*
G01X0061694Y-035694D01*
G01X0061684Y-035693D01*
G01X0061675Y-035690D01*
G01X0061666Y-035687D01*
G01X0061657Y-035683D01*
G01X0061649Y-035678D01*
G01X0061641Y-035672D01*
G01X0061634Y-035666D01*
G01X0061627Y-035659D01*
G01X0061622Y-035651D01*
G01X0061617Y-035642D01*
G01X0061613Y-035634D01*
G01X0061609Y-035625D01*
G01X0061607Y-035615D01*
G01X0061606Y-035606D01*
G01X0061605Y-035596D01*
G01X0061605Y-035104D01*
G01X0061606Y-035094D01*
G01X0061607Y-035085D01*
G01X0061609Y-035075D01*
G01X0061613Y-035066D01*
G01X0061617Y-035058D01*
G01X0061622Y-035049D01*
G01X0061627Y-035041D01*
G01X0061634Y-035034D01*
G01X0061641Y-035028D01*
G01X0061649Y-035022D01*
G01X0061657Y-035017D01*
G01X0061666Y-035013D01*
G01X0061675Y-035010D01*
G01X0061684Y-035007D01*
G01X0061694Y-035006D01*
G01X0061704Y-035006D01*
G01X0061999Y-035006D01*
G01X0062008Y-035006D01*
G01X0062008Y-035006D01*
G37*
G54D11*
G01X0061851Y-035350D03*
G54D10*
G36*
G01X0060906Y-035006D02*
G01X0060916Y-035007D01*
G01X0060925Y-035010D01*
G01X0060934Y-035013D01*
G01X0060943Y-035017D01*
G01X0060951Y-035022D01*
G01X0060959Y-035028D01*
G01X0060966Y-035034D01*
G01X0060973Y-035041D01*
G01X0060978Y-035049D01*
G01X0060983Y-035058D01*
G01X0060987Y-035066D01*
G01X0060991Y-035075D01*
G01X0060993Y-035085D01*
G01X0060994Y-035094D01*
G01X0060995Y-035104D01*
G01X0060995Y-035596D01*
G01X0060994Y-035606D01*
G01X0060993Y-035615D01*
G01X0060991Y-035625D01*
G01X0060987Y-035634D01*
G01X0060983Y-035642D01*
G01X0060978Y-035651D01*
G01X0060973Y-035659D01*
G01X0060966Y-035666D01*
G01X0060959Y-035672D01*
G01X0060951Y-035678D01*
G01X0060943Y-035683D01*
G01X0060934Y-035687D01*
G01X0060925Y-035690D01*
G01X0060916Y-035693D01*
G01X0060906Y-035694D01*
G01X0060896Y-035694D01*
G01X0060601Y-035694D01*
G01X0060592Y-035694D01*
G01X0060582Y-035693D01*
G01X0060573Y-035690D01*
G01X0060564Y-035687D01*
G01X0060555Y-035683D01*
G01X0060546Y-035678D01*
G01X0060539Y-035672D01*
G01X0060532Y-035666D01*
G01X0060525Y-035659D01*
G01X0060519Y-035651D01*
G01X0060514Y-035642D01*
G01X0060510Y-035634D01*
G01X0060507Y-035625D01*
G01X0060505Y-035615D01*
G01X0060503Y-035606D01*
G01X0060503Y-035596D01*
G01X0060503Y-035104D01*
G01X0060503Y-035094D01*
G01X0060505Y-035085D01*
G01X0060507Y-035075D01*
G01X0060510Y-035066D01*
G01X0060514Y-035058D01*
G01X0060519Y-035049D01*
G01X0060525Y-035041D01*
G01X0060532Y-035034D01*
G01X0060539Y-035028D01*
G01X0060546Y-035022D01*
G01X0060555Y-035017D01*
G01X0060564Y-035013D01*
G01X0060573Y-035010D01*
G01X0060582Y-035007D01*
G01X0060592Y-035006D01*
G01X0060601Y-035006D01*
G01X0060896Y-035006D01*
G01X0060906Y-035006D01*
G01X0060906Y-035006D01*
G37*
G54D11*
G01X0060749Y-035350D03*
G54D10*
G36*
G01X0064006Y-055056D02*
G01X0064015Y-055057D01*
G01X0064025Y-055059D01*
G01X0064034Y-055063D01*
G01X0064042Y-055067D01*
G01X0064051Y-055072D01*
G01X0064059Y-055077D01*
G01X0064066Y-055084D01*
G01X0064072Y-055091D01*
G01X0064078Y-055099D01*
G01X0064083Y-055107D01*
G01X0064087Y-055116D01*
G01X0064090Y-055125D01*
G01X0064093Y-055134D01*
G01X0064094Y-055144D01*
G01X0064094Y-055154D01*
G01X0064094Y-055449D01*
G01X0064094Y-055458D01*
G01X0064093Y-055468D01*
G01X0064090Y-055477D01*
G01X0064087Y-055486D01*
G01X0064083Y-055495D01*
G01X0064078Y-055504D01*
G01X0064072Y-055511D01*
G01X0064066Y-055518D01*
G01X0064059Y-055525D01*
G01X0064051Y-055531D01*
G01X0064042Y-055536D01*
G01X0064034Y-055540D01*
G01X0064025Y-055543D01*
G01X0064015Y-055545D01*
G01X0064006Y-055547D01*
G01X0063996Y-055547D01*
G01X0063504Y-055547D01*
G01X0063494Y-055547D01*
G01X0063485Y-055545D01*
G01X0063475Y-055543D01*
G01X0063466Y-055540D01*
G01X0063458Y-055536D01*
G01X0063449Y-055531D01*
G01X0063441Y-055525D01*
G01X0063434Y-055518D01*
G01X0063428Y-055511D01*
G01X0063422Y-055504D01*
G01X0063417Y-055495D01*
G01X0063413Y-055486D01*
G01X0063410Y-055477D01*
G01X0063407Y-055468D01*
G01X0063406Y-055458D01*
G01X0063406Y-055449D01*
G01X0063406Y-055154D01*
G01X0063406Y-055144D01*
G01X0063407Y-055134D01*
G01X0063410Y-055125D01*
G01X0063413Y-055116D01*
G01X0063417Y-055107D01*
G01X0063422Y-055099D01*
G01X0063428Y-055091D01*
G01X0063434Y-055084D01*
G01X0063441Y-055077D01*
G01X0063449Y-055072D01*
G01X0063458Y-055067D01*
G01X0063466Y-055063D01*
G01X0063475Y-055059D01*
G01X0063485Y-055057D01*
G01X0063494Y-055056D01*
G01X0063504Y-055055D01*
G01X0063996Y-055055D01*
G01X0064006Y-055056D01*
G01X0064006Y-055056D01*
G37*
G54D11*
G01X0063750Y-055301D03*
G54D10*
G36*
G01X0064006Y-053953D02*
G01X0064015Y-053955D01*
G01X0064025Y-053957D01*
G01X0064034Y-053960D01*
G01X0064042Y-053964D01*
G01X0064051Y-053969D01*
G01X0064059Y-053975D01*
G01X0064066Y-053982D01*
G01X0064072Y-053989D01*
G01X0064078Y-053996D01*
G01X0064083Y-054005D01*
G01X0064087Y-054014D01*
G01X0064090Y-054023D01*
G01X0064093Y-054032D01*
G01X0064094Y-054042D01*
G01X0064094Y-054051D01*
G01X0064094Y-054346D01*
G01X0064094Y-054356D01*
G01X0064093Y-054366D01*
G01X0064090Y-054375D01*
G01X0064087Y-054384D01*
G01X0064083Y-054393D01*
G01X0064078Y-054401D01*
G01X0064072Y-054409D01*
G01X0064066Y-054416D01*
G01X0064059Y-054423D01*
G01X0064051Y-054428D01*
G01X0064042Y-054433D01*
G01X0064034Y-054437D01*
G01X0064025Y-054441D01*
G01X0064015Y-054443D01*
G01X0064006Y-054444D01*
G01X0063996Y-054445D01*
G01X0063504Y-054445D01*
G01X0063494Y-054444D01*
G01X0063485Y-054443D01*
G01X0063475Y-054441D01*
G01X0063466Y-054437D01*
G01X0063458Y-054433D01*
G01X0063449Y-054428D01*
G01X0063441Y-054423D01*
G01X0063434Y-054416D01*
G01X0063428Y-054409D01*
G01X0063422Y-054401D01*
G01X0063417Y-054393D01*
G01X0063413Y-054384D01*
G01X0063410Y-054375D01*
G01X0063407Y-054366D01*
G01X0063406Y-054356D01*
G01X0063406Y-054346D01*
G01X0063406Y-054051D01*
G01X0063406Y-054042D01*
G01X0063407Y-054032D01*
G01X0063410Y-054023D01*
G01X0063413Y-054014D01*
G01X0063417Y-054005D01*
G01X0063422Y-053996D01*
G01X0063428Y-053989D01*
G01X0063434Y-053982D01*
G01X0063441Y-053975D01*
G01X0063449Y-053969D01*
G01X0063458Y-053964D01*
G01X0063466Y-053960D01*
G01X0063475Y-053957D01*
G01X0063485Y-053955D01*
G01X0063494Y-053953D01*
G01X0063504Y-053953D01*
G01X0063996Y-053953D01*
G01X0064006Y-053953D01*
G01X0064006Y-053953D01*
G37*
G54D11*
G01X0063750Y-054199D03*
G54D10*
G36*
G01X0062006Y-055056D02*
G01X0062015Y-055057D01*
G01X0062025Y-055059D01*
G01X0062034Y-055063D01*
G01X0062042Y-055067D01*
G01X0062051Y-055072D01*
G01X0062059Y-055077D01*
G01X0062066Y-055084D01*
G01X0062072Y-055091D01*
G01X0062078Y-055099D01*
G01X0062083Y-055107D01*
G01X0062087Y-055116D01*
G01X0062090Y-055125D01*
G01X0062093Y-055134D01*
G01X0062094Y-055144D01*
G01X0062094Y-055154D01*
G01X0062094Y-055449D01*
G01X0062094Y-055458D01*
G01X0062093Y-055468D01*
G01X0062090Y-055477D01*
G01X0062087Y-055486D01*
G01X0062083Y-055495D01*
G01X0062078Y-055504D01*
G01X0062072Y-055511D01*
G01X0062066Y-055518D01*
G01X0062059Y-055525D01*
G01X0062051Y-055531D01*
G01X0062042Y-055536D01*
G01X0062034Y-055540D01*
G01X0062025Y-055543D01*
G01X0062015Y-055545D01*
G01X0062006Y-055547D01*
G01X0061996Y-055547D01*
G01X0061504Y-055547D01*
G01X0061494Y-055547D01*
G01X0061485Y-055545D01*
G01X0061475Y-055543D01*
G01X0061466Y-055540D01*
G01X0061458Y-055536D01*
G01X0061449Y-055531D01*
G01X0061441Y-055525D01*
G01X0061434Y-055518D01*
G01X0061428Y-055511D01*
G01X0061422Y-055504D01*
G01X0061417Y-055495D01*
G01X0061413Y-055486D01*
G01X0061410Y-055477D01*
G01X0061407Y-055468D01*
G01X0061406Y-055458D01*
G01X0061406Y-055449D01*
G01X0061406Y-055154D01*
G01X0061406Y-055144D01*
G01X0061407Y-055134D01*
G01X0061410Y-055125D01*
G01X0061413Y-055116D01*
G01X0061417Y-055107D01*
G01X0061422Y-055099D01*
G01X0061428Y-055091D01*
G01X0061434Y-055084D01*
G01X0061441Y-055077D01*
G01X0061449Y-055072D01*
G01X0061458Y-055067D01*
G01X0061466Y-055063D01*
G01X0061475Y-055059D01*
G01X0061485Y-055057D01*
G01X0061494Y-055056D01*
G01X0061504Y-055055D01*
G01X0061996Y-055055D01*
G01X0062006Y-055056D01*
G01X0062006Y-055056D01*
G37*
G54D11*
G01X0061750Y-055301D03*
G54D10*
G36*
G01X0062006Y-053953D02*
G01X0062015Y-053955D01*
G01X0062025Y-053957D01*
G01X0062034Y-053960D01*
G01X0062042Y-053964D01*
G01X0062051Y-053969D01*
G01X0062059Y-053975D01*
G01X0062066Y-053982D01*
G01X0062072Y-053989D01*
G01X0062078Y-053996D01*
G01X0062083Y-054005D01*
G01X0062087Y-054014D01*
G01X0062090Y-054023D01*
G01X0062093Y-054032D01*
G01X0062094Y-054042D01*
G01X0062094Y-054051D01*
G01X0062094Y-054346D01*
G01X0062094Y-054356D01*
G01X0062093Y-054366D01*
G01X0062090Y-054375D01*
G01X0062087Y-054384D01*
G01X0062083Y-054393D01*
G01X0062078Y-054401D01*
G01X0062072Y-054409D01*
G01X0062066Y-054416D01*
G01X0062059Y-054423D01*
G01X0062051Y-054428D01*
G01X0062042Y-054433D01*
G01X0062034Y-054437D01*
G01X0062025Y-054441D01*
G01X0062015Y-054443D01*
G01X0062006Y-054444D01*
G01X0061996Y-054445D01*
G01X0061504Y-054445D01*
G01X0061494Y-054444D01*
G01X0061485Y-054443D01*
G01X0061475Y-054441D01*
G01X0061466Y-054437D01*
G01X0061458Y-054433D01*
G01X0061449Y-054428D01*
G01X0061441Y-054423D01*
G01X0061434Y-054416D01*
G01X0061428Y-054409D01*
G01X0061422Y-054401D01*
G01X0061417Y-054393D01*
G01X0061413Y-054384D01*
G01X0061410Y-054375D01*
G01X0061407Y-054366D01*
G01X0061406Y-054356D01*
G01X0061406Y-054346D01*
G01X0061406Y-054051D01*
G01X0061406Y-054042D01*
G01X0061407Y-054032D01*
G01X0061410Y-054023D01*
G01X0061413Y-054014D01*
G01X0061417Y-054005D01*
G01X0061422Y-053996D01*
G01X0061428Y-053989D01*
G01X0061434Y-053982D01*
G01X0061441Y-053975D01*
G01X0061449Y-053969D01*
G01X0061458Y-053964D01*
G01X0061466Y-053960D01*
G01X0061475Y-053957D01*
G01X0061485Y-053955D01*
G01X0061494Y-053953D01*
G01X0061504Y-053953D01*
G01X0061996Y-053953D01*
G01X0062006Y-053953D01*
G01X0062006Y-053953D01*
G37*
G54D11*
G01X0061750Y-054199D03*
G54D10*
G36*
G01X0058006Y-055056D02*
G01X0058015Y-055057D01*
G01X0058025Y-055059D01*
G01X0058034Y-055063D01*
G01X0058042Y-055067D01*
G01X0058051Y-055072D01*
G01X0058059Y-055077D01*
G01X0058066Y-055084D01*
G01X0058072Y-055091D01*
G01X0058078Y-055099D01*
G01X0058083Y-055107D01*
G01X0058087Y-055116D01*
G01X0058090Y-055125D01*
G01X0058093Y-055134D01*
G01X0058094Y-055144D01*
G01X0058094Y-055154D01*
G01X0058094Y-055449D01*
G01X0058094Y-055458D01*
G01X0058093Y-055468D01*
G01X0058090Y-055477D01*
G01X0058087Y-055486D01*
G01X0058083Y-055495D01*
G01X0058078Y-055504D01*
G01X0058072Y-055511D01*
G01X0058066Y-055518D01*
G01X0058059Y-055525D01*
G01X0058051Y-055531D01*
G01X0058042Y-055536D01*
G01X0058034Y-055540D01*
G01X0058025Y-055543D01*
G01X0058015Y-055545D01*
G01X0058006Y-055547D01*
G01X0057996Y-055547D01*
G01X0057504Y-055547D01*
G01X0057494Y-055547D01*
G01X0057485Y-055545D01*
G01X0057475Y-055543D01*
G01X0057466Y-055540D01*
G01X0057458Y-055536D01*
G01X0057449Y-055531D01*
G01X0057441Y-055525D01*
G01X0057434Y-055518D01*
G01X0057428Y-055511D01*
G01X0057422Y-055504D01*
G01X0057417Y-055495D01*
G01X0057413Y-055486D01*
G01X0057410Y-055477D01*
G01X0057407Y-055468D01*
G01X0057406Y-055458D01*
G01X0057406Y-055449D01*
G01X0057406Y-055154D01*
G01X0057406Y-055144D01*
G01X0057407Y-055134D01*
G01X0057410Y-055125D01*
G01X0057413Y-055116D01*
G01X0057417Y-055107D01*
G01X0057422Y-055099D01*
G01X0057428Y-055091D01*
G01X0057434Y-055084D01*
G01X0057441Y-055077D01*
G01X0057449Y-055072D01*
G01X0057458Y-055067D01*
G01X0057466Y-055063D01*
G01X0057475Y-055059D01*
G01X0057485Y-055057D01*
G01X0057494Y-055056D01*
G01X0057504Y-055055D01*
G01X0057996Y-055055D01*
G01X0058006Y-055056D01*
G01X0058006Y-055056D01*
G37*
G54D11*
G01X0057750Y-055301D03*
G54D10*
G36*
G01X0058006Y-053953D02*
G01X0058015Y-053955D01*
G01X0058025Y-053957D01*
G01X0058034Y-053960D01*
G01X0058042Y-053964D01*
G01X0058051Y-053969D01*
G01X0058059Y-053975D01*
G01X0058066Y-053982D01*
G01X0058072Y-053989D01*
G01X0058078Y-053996D01*
G01X0058083Y-054005D01*
G01X0058087Y-054014D01*
G01X0058090Y-054023D01*
G01X0058093Y-054032D01*
G01X0058094Y-054042D01*
G01X0058094Y-054051D01*
G01X0058094Y-054346D01*
G01X0058094Y-054356D01*
G01X0058093Y-054366D01*
G01X0058090Y-054375D01*
G01X0058087Y-054384D01*
G01X0058083Y-054393D01*
G01X0058078Y-054401D01*
G01X0058072Y-054409D01*
G01X0058066Y-054416D01*
G01X0058059Y-054423D01*
G01X0058051Y-054428D01*
G01X0058042Y-054433D01*
G01X0058034Y-054437D01*
G01X0058025Y-054441D01*
G01X0058015Y-054443D01*
G01X0058006Y-054444D01*
G01X0057996Y-054445D01*
G01X0057504Y-054445D01*
G01X0057494Y-054444D01*
G01X0057485Y-054443D01*
G01X0057475Y-054441D01*
G01X0057466Y-054437D01*
G01X0057458Y-054433D01*
G01X0057449Y-054428D01*
G01X0057441Y-054423D01*
G01X0057434Y-054416D01*
G01X0057428Y-054409D01*
G01X0057422Y-054401D01*
G01X0057417Y-054393D01*
G01X0057413Y-054384D01*
G01X0057410Y-054375D01*
G01X0057407Y-054366D01*
G01X0057406Y-054356D01*
G01X0057406Y-054346D01*
G01X0057406Y-054051D01*
G01X0057406Y-054042D01*
G01X0057407Y-054032D01*
G01X0057410Y-054023D01*
G01X0057413Y-054014D01*
G01X0057417Y-054005D01*
G01X0057422Y-053996D01*
G01X0057428Y-053989D01*
G01X0057434Y-053982D01*
G01X0057441Y-053975D01*
G01X0057449Y-053969D01*
G01X0057458Y-053964D01*
G01X0057466Y-053960D01*
G01X0057475Y-053957D01*
G01X0057485Y-053955D01*
G01X0057494Y-053953D01*
G01X0057504Y-053953D01*
G01X0057996Y-053953D01*
G01X0058006Y-053953D01*
G01X0058006Y-053953D01*
G37*
G54D11*
G01X0057750Y-054199D03*
G54D10*
G36*
G01X0065006Y-053953D02*
G01X0065015Y-053955D01*
G01X0065025Y-053957D01*
G01X0065034Y-053960D01*
G01X0065042Y-053964D01*
G01X0065051Y-053969D01*
G01X0065059Y-053975D01*
G01X0065066Y-053982D01*
G01X0065072Y-053989D01*
G01X0065078Y-053996D01*
G01X0065083Y-054005D01*
G01X0065087Y-054014D01*
G01X0065090Y-054023D01*
G01X0065093Y-054032D01*
G01X0065094Y-054042D01*
G01X0065094Y-054051D01*
G01X0065094Y-054346D01*
G01X0065094Y-054356D01*
G01X0065093Y-054366D01*
G01X0065090Y-054375D01*
G01X0065087Y-054384D01*
G01X0065083Y-054393D01*
G01X0065078Y-054401D01*
G01X0065072Y-054409D01*
G01X0065066Y-054416D01*
G01X0065059Y-054423D01*
G01X0065051Y-054428D01*
G01X0065042Y-054433D01*
G01X0065034Y-054437D01*
G01X0065025Y-054441D01*
G01X0065015Y-054443D01*
G01X0065006Y-054444D01*
G01X0064996Y-054445D01*
G01X0064504Y-054445D01*
G01X0064494Y-054444D01*
G01X0064485Y-054443D01*
G01X0064475Y-054441D01*
G01X0064466Y-054437D01*
G01X0064458Y-054433D01*
G01X0064449Y-054428D01*
G01X0064441Y-054423D01*
G01X0064434Y-054416D01*
G01X0064428Y-054409D01*
G01X0064422Y-054401D01*
G01X0064417Y-054393D01*
G01X0064413Y-054384D01*
G01X0064410Y-054375D01*
G01X0064407Y-054366D01*
G01X0064406Y-054356D01*
G01X0064406Y-054346D01*
G01X0064406Y-054051D01*
G01X0064406Y-054042D01*
G01X0064407Y-054032D01*
G01X0064410Y-054023D01*
G01X0064413Y-054014D01*
G01X0064417Y-054005D01*
G01X0064422Y-053996D01*
G01X0064428Y-053989D01*
G01X0064434Y-053982D01*
G01X0064441Y-053975D01*
G01X0064449Y-053969D01*
G01X0064458Y-053964D01*
G01X0064466Y-053960D01*
G01X0064475Y-053957D01*
G01X0064485Y-053955D01*
G01X0064494Y-053953D01*
G01X0064504Y-053953D01*
G01X0064996Y-053953D01*
G01X0065006Y-053953D01*
G01X0065006Y-053953D01*
G37*
G54D11*
G01X0064750Y-054199D03*
G54D10*
G36*
G01X0065006Y-055056D02*
G01X0065015Y-055057D01*
G01X0065025Y-055059D01*
G01X0065034Y-055063D01*
G01X0065042Y-055067D01*
G01X0065051Y-055072D01*
G01X0065059Y-055077D01*
G01X0065066Y-055084D01*
G01X0065072Y-055091D01*
G01X0065078Y-055099D01*
G01X0065083Y-055107D01*
G01X0065087Y-055116D01*
G01X0065090Y-055125D01*
G01X0065093Y-055134D01*
G01X0065094Y-055144D01*
G01X0065094Y-055154D01*
G01X0065094Y-055449D01*
G01X0065094Y-055458D01*
G01X0065093Y-055468D01*
G01X0065090Y-055477D01*
G01X0065087Y-055486D01*
G01X0065083Y-055495D01*
G01X0065078Y-055504D01*
G01X0065072Y-055511D01*
G01X0065066Y-055518D01*
G01X0065059Y-055525D01*
G01X0065051Y-055531D01*
G01X0065042Y-055536D01*
G01X0065034Y-055540D01*
G01X0065025Y-055543D01*
G01X0065015Y-055545D01*
G01X0065006Y-055547D01*
G01X0064996Y-055547D01*
G01X0064504Y-055547D01*
G01X0064494Y-055547D01*
G01X0064485Y-055545D01*
G01X0064475Y-055543D01*
G01X0064466Y-055540D01*
G01X0064458Y-055536D01*
G01X0064449Y-055531D01*
G01X0064441Y-055525D01*
G01X0064434Y-055518D01*
G01X0064428Y-055511D01*
G01X0064422Y-055504D01*
G01X0064417Y-055495D01*
G01X0064413Y-055486D01*
G01X0064410Y-055477D01*
G01X0064407Y-055468D01*
G01X0064406Y-055458D01*
G01X0064406Y-055449D01*
G01X0064406Y-055154D01*
G01X0064406Y-055144D01*
G01X0064407Y-055134D01*
G01X0064410Y-055125D01*
G01X0064413Y-055116D01*
G01X0064417Y-055107D01*
G01X0064422Y-055099D01*
G01X0064428Y-055091D01*
G01X0064434Y-055084D01*
G01X0064441Y-055077D01*
G01X0064449Y-055072D01*
G01X0064458Y-055067D01*
G01X0064466Y-055063D01*
G01X0064475Y-055059D01*
G01X0064485Y-055057D01*
G01X0064494Y-055056D01*
G01X0064504Y-055055D01*
G01X0064996Y-055055D01*
G01X0065006Y-055056D01*
G01X0065006Y-055056D01*
G37*
G54D11*
G01X0064750Y-055301D03*
G54D10*
G36*
G01X0063006Y-055056D02*
G01X0063015Y-055057D01*
G01X0063025Y-055059D01*
G01X0063034Y-055063D01*
G01X0063042Y-055067D01*
G01X0063051Y-055072D01*
G01X0063059Y-055077D01*
G01X0063066Y-055084D01*
G01X0063072Y-055091D01*
G01X0063078Y-055099D01*
G01X0063083Y-055107D01*
G01X0063087Y-055116D01*
G01X0063090Y-055125D01*
G01X0063093Y-055134D01*
G01X0063094Y-055144D01*
G01X0063094Y-055154D01*
G01X0063094Y-055449D01*
G01X0063094Y-055458D01*
G01X0063093Y-055468D01*
G01X0063090Y-055477D01*
G01X0063087Y-055486D01*
G01X0063083Y-055495D01*
G01X0063078Y-055504D01*
G01X0063072Y-055511D01*
G01X0063066Y-055518D01*
G01X0063059Y-055525D01*
G01X0063051Y-055531D01*
G01X0063042Y-055536D01*
G01X0063034Y-055540D01*
G01X0063025Y-055543D01*
G01X0063015Y-055545D01*
G01X0063006Y-055547D01*
G01X0062996Y-055547D01*
G01X0062504Y-055547D01*
G01X0062494Y-055547D01*
G01X0062485Y-055545D01*
G01X0062475Y-055543D01*
G01X0062466Y-055540D01*
G01X0062458Y-055536D01*
G01X0062449Y-055531D01*
G01X0062441Y-055525D01*
G01X0062434Y-055518D01*
G01X0062428Y-055511D01*
G01X0062422Y-055504D01*
G01X0062417Y-055495D01*
G01X0062413Y-055486D01*
G01X0062410Y-055477D01*
G01X0062407Y-055468D01*
G01X0062406Y-055458D01*
G01X0062406Y-055449D01*
G01X0062406Y-055154D01*
G01X0062406Y-055144D01*
G01X0062407Y-055134D01*
G01X0062410Y-055125D01*
G01X0062413Y-055116D01*
G01X0062417Y-055107D01*
G01X0062422Y-055099D01*
G01X0062428Y-055091D01*
G01X0062434Y-055084D01*
G01X0062441Y-055077D01*
G01X0062449Y-055072D01*
G01X0062458Y-055067D01*
G01X0062466Y-055063D01*
G01X0062475Y-055059D01*
G01X0062485Y-055057D01*
G01X0062494Y-055056D01*
G01X0062504Y-055055D01*
G01X0062996Y-055055D01*
G01X0063006Y-055056D01*
G01X0063006Y-055056D01*
G37*
G54D11*
G01X0062750Y-055301D03*
G54D10*
G36*
G01X0063006Y-053953D02*
G01X0063015Y-053955D01*
G01X0063025Y-053957D01*
G01X0063034Y-053960D01*
G01X0063042Y-053964D01*
G01X0063051Y-053969D01*
G01X0063059Y-053975D01*
G01X0063066Y-053982D01*
G01X0063072Y-053989D01*
G01X0063078Y-053996D01*
G01X0063083Y-054005D01*
G01X0063087Y-054014D01*
G01X0063090Y-054023D01*
G01X0063093Y-054032D01*
G01X0063094Y-054042D01*
G01X0063094Y-054051D01*
G01X0063094Y-054346D01*
G01X0063094Y-054356D01*
G01X0063093Y-054366D01*
G01X0063090Y-054375D01*
G01X0063087Y-054384D01*
G01X0063083Y-054393D01*
G01X0063078Y-054401D01*
G01X0063072Y-054409D01*
G01X0063066Y-054416D01*
G01X0063059Y-054423D01*
G01X0063051Y-054428D01*
G01X0063042Y-054433D01*
G01X0063034Y-054437D01*
G01X0063025Y-054441D01*
G01X0063015Y-054443D01*
G01X0063006Y-054444D01*
G01X0062996Y-054445D01*
G01X0062504Y-054445D01*
G01X0062494Y-054444D01*
G01X0062485Y-054443D01*
G01X0062475Y-054441D01*
G01X0062466Y-054437D01*
G01X0062458Y-054433D01*
G01X0062449Y-054428D01*
G01X0062441Y-054423D01*
G01X0062434Y-054416D01*
G01X0062428Y-054409D01*
G01X0062422Y-054401D01*
G01X0062417Y-054393D01*
G01X0062413Y-054384D01*
G01X0062410Y-054375D01*
G01X0062407Y-054366D01*
G01X0062406Y-054356D01*
G01X0062406Y-054346D01*
G01X0062406Y-054051D01*
G01X0062406Y-054042D01*
G01X0062407Y-054032D01*
G01X0062410Y-054023D01*
G01X0062413Y-054014D01*
G01X0062417Y-054005D01*
G01X0062422Y-053996D01*
G01X0062428Y-053989D01*
G01X0062434Y-053982D01*
G01X0062441Y-053975D01*
G01X0062449Y-053969D01*
G01X0062458Y-053964D01*
G01X0062466Y-053960D01*
G01X0062475Y-053957D01*
G01X0062485Y-053955D01*
G01X0062494Y-053953D01*
G01X0062504Y-053953D01*
G01X0062996Y-053953D01*
G01X0063006Y-053953D01*
G01X0063006Y-053953D01*
G37*
G54D11*
G01X0062750Y-054199D03*
G54D10*
G36*
G01X0061006Y-055056D02*
G01X0061015Y-055057D01*
G01X0061025Y-055059D01*
G01X0061034Y-055063D01*
G01X0061042Y-055067D01*
G01X0061051Y-055072D01*
G01X0061059Y-055077D01*
G01X0061066Y-055084D01*
G01X0061072Y-055091D01*
G01X0061078Y-055099D01*
G01X0061083Y-055107D01*
G01X0061087Y-055116D01*
G01X0061090Y-055125D01*
G01X0061093Y-055134D01*
G01X0061094Y-055144D01*
G01X0061094Y-055154D01*
G01X0061094Y-055449D01*
G01X0061094Y-055458D01*
G01X0061093Y-055468D01*
G01X0061090Y-055477D01*
G01X0061087Y-055486D01*
G01X0061083Y-055495D01*
G01X0061078Y-055504D01*
G01X0061072Y-055511D01*
G01X0061066Y-055518D01*
G01X0061059Y-055525D01*
G01X0061051Y-055531D01*
G01X0061042Y-055536D01*
G01X0061034Y-055540D01*
G01X0061025Y-055543D01*
G01X0061015Y-055545D01*
G01X0061006Y-055547D01*
G01X0060996Y-055547D01*
G01X0060504Y-055547D01*
G01X0060494Y-055547D01*
G01X0060485Y-055545D01*
G01X0060475Y-055543D01*
G01X0060466Y-055540D01*
G01X0060458Y-055536D01*
G01X0060449Y-055531D01*
G01X0060441Y-055525D01*
G01X0060434Y-055518D01*
G01X0060428Y-055511D01*
G01X0060422Y-055504D01*
G01X0060417Y-055495D01*
G01X0060413Y-055486D01*
G01X0060410Y-055477D01*
G01X0060407Y-055468D01*
G01X0060406Y-055458D01*
G01X0060406Y-055449D01*
G01X0060406Y-055154D01*
G01X0060406Y-055144D01*
G01X0060407Y-055134D01*
G01X0060410Y-055125D01*
G01X0060413Y-055116D01*
G01X0060417Y-055107D01*
G01X0060422Y-055099D01*
G01X0060428Y-055091D01*
G01X0060434Y-055084D01*
G01X0060441Y-055077D01*
G01X0060449Y-055072D01*
G01X0060458Y-055067D01*
G01X0060466Y-055063D01*
G01X0060475Y-055059D01*
G01X0060485Y-055057D01*
G01X0060494Y-055056D01*
G01X0060504Y-055055D01*
G01X0060996Y-055055D01*
G01X0061006Y-055056D01*
G01X0061006Y-055056D01*
G37*
G54D11*
G01X0060750Y-055301D03*
G54D10*
G36*
G01X0061006Y-053953D02*
G01X0061015Y-053955D01*
G01X0061025Y-053957D01*
G01X0061034Y-053960D01*
G01X0061042Y-053964D01*
G01X0061051Y-053969D01*
G01X0061059Y-053975D01*
G01X0061066Y-053982D01*
G01X0061072Y-053989D01*
G01X0061078Y-053996D01*
G01X0061083Y-054005D01*
G01X0061087Y-054014D01*
G01X0061090Y-054023D01*
G01X0061093Y-054032D01*
G01X0061094Y-054042D01*
G01X0061094Y-054051D01*
G01X0061094Y-054346D01*
G01X0061094Y-054356D01*
G01X0061093Y-054366D01*
G01X0061090Y-054375D01*
G01X0061087Y-054384D01*
G01X0061083Y-054393D01*
G01X0061078Y-054401D01*
G01X0061072Y-054409D01*
G01X0061066Y-054416D01*
G01X0061059Y-054423D01*
G01X0061051Y-054428D01*
G01X0061042Y-054433D01*
G01X0061034Y-054437D01*
G01X0061025Y-054441D01*
G01X0061015Y-054443D01*
G01X0061006Y-054444D01*
G01X0060996Y-054445D01*
G01X0060504Y-054445D01*
G01X0060494Y-054444D01*
G01X0060485Y-054443D01*
G01X0060475Y-054441D01*
G01X0060466Y-054437D01*
G01X0060458Y-054433D01*
G01X0060449Y-054428D01*
G01X0060441Y-054423D01*
G01X0060434Y-054416D01*
G01X0060428Y-054409D01*
G01X0060422Y-054401D01*
G01X0060417Y-054393D01*
G01X0060413Y-054384D01*
G01X0060410Y-054375D01*
G01X0060407Y-054366D01*
G01X0060406Y-054356D01*
G01X0060406Y-054346D01*
G01X0060406Y-054051D01*
G01X0060406Y-054042D01*
G01X0060407Y-054032D01*
G01X0060410Y-054023D01*
G01X0060413Y-054014D01*
G01X0060417Y-054005D01*
G01X0060422Y-053996D01*
G01X0060428Y-053989D01*
G01X0060434Y-053982D01*
G01X0060441Y-053975D01*
G01X0060449Y-053969D01*
G01X0060458Y-053964D01*
G01X0060466Y-053960D01*
G01X0060475Y-053957D01*
G01X0060485Y-053955D01*
G01X0060494Y-053953D01*
G01X0060504Y-053953D01*
G01X0060996Y-053953D01*
G01X0061006Y-053953D01*
G01X0061006Y-053953D01*
G37*
G54D11*
G01X0060750Y-054199D03*
G54D10*
G36*
G01X0070756Y-053703D02*
G01X0070765Y-053705D01*
G01X0070775Y-053707D01*
G01X0070784Y-053710D01*
G01X0070792Y-053714D01*
G01X0070801Y-053719D01*
G01X0070809Y-053725D01*
G01X0070816Y-053732D01*
G01X0070822Y-053739D01*
G01X0070828Y-053746D01*
G01X0070833Y-053755D01*
G01X0070837Y-053764D01*
G01X0070840Y-053773D01*
G01X0070843Y-053782D01*
G01X0070844Y-053792D01*
G01X0070844Y-053801D01*
G01X0070844Y-054096D01*
G01X0070844Y-054106D01*
G01X0070843Y-054116D01*
G01X0070840Y-054125D01*
G01X0070837Y-054134D01*
G01X0070833Y-054143D01*
G01X0070828Y-054151D01*
G01X0070822Y-054159D01*
G01X0070816Y-054166D01*
G01X0070809Y-054173D01*
G01X0070801Y-054178D01*
G01X0070792Y-054183D01*
G01X0070784Y-054187D01*
G01X0070775Y-054191D01*
G01X0070765Y-054193D01*
G01X0070756Y-054194D01*
G01X0070746Y-054195D01*
G01X0070254Y-054195D01*
G01X0070244Y-054194D01*
G01X0070235Y-054193D01*
G01X0070225Y-054191D01*
G01X0070216Y-054187D01*
G01X0070208Y-054183D01*
G01X0070199Y-054178D01*
G01X0070191Y-054173D01*
G01X0070184Y-054166D01*
G01X0070178Y-054159D01*
G01X0070172Y-054151D01*
G01X0070167Y-054143D01*
G01X0070163Y-054134D01*
G01X0070160Y-054125D01*
G01X0070157Y-054116D01*
G01X0070156Y-054106D01*
G01X0070156Y-054096D01*
G01X0070156Y-053801D01*
G01X0070156Y-053792D01*
G01X0070157Y-053782D01*
G01X0070160Y-053773D01*
G01X0070163Y-053764D01*
G01X0070167Y-053755D01*
G01X0070172Y-053746D01*
G01X0070178Y-053739D01*
G01X0070184Y-053732D01*
G01X0070191Y-053725D01*
G01X0070199Y-053719D01*
G01X0070208Y-053714D01*
G01X0070216Y-053710D01*
G01X0070225Y-053707D01*
G01X0070235Y-053705D01*
G01X0070244Y-053703D01*
G01X0070254Y-053703D01*
G01X0070746Y-053703D01*
G01X0070756Y-053703D01*
G01X0070756Y-053703D01*
G37*
G54D11*
G01X0070500Y-053949D03*
G54D10*
G36*
G01X0070756Y-054806D02*
G01X0070765Y-054807D01*
G01X0070775Y-054809D01*
G01X0070784Y-054813D01*
G01X0070792Y-054817D01*
G01X0070801Y-054822D01*
G01X0070809Y-054827D01*
G01X0070816Y-054834D01*
G01X0070822Y-054841D01*
G01X0070828Y-054849D01*
G01X0070833Y-054857D01*
G01X0070837Y-054866D01*
G01X0070840Y-054875D01*
G01X0070843Y-054884D01*
G01X0070844Y-054894D01*
G01X0070844Y-054904D01*
G01X0070844Y-055199D01*
G01X0070844Y-055208D01*
G01X0070843Y-055218D01*
G01X0070840Y-055227D01*
G01X0070837Y-055236D01*
G01X0070833Y-055245D01*
G01X0070828Y-055254D01*
G01X0070822Y-055261D01*
G01X0070816Y-055268D01*
G01X0070809Y-055275D01*
G01X0070801Y-055281D01*
G01X0070792Y-055286D01*
G01X0070784Y-055290D01*
G01X0070775Y-055293D01*
G01X0070765Y-055295D01*
G01X0070756Y-055297D01*
G01X0070746Y-055297D01*
G01X0070254Y-055297D01*
G01X0070244Y-055297D01*
G01X0070235Y-055295D01*
G01X0070225Y-055293D01*
G01X0070216Y-055290D01*
G01X0070208Y-055286D01*
G01X0070199Y-055281D01*
G01X0070191Y-055275D01*
G01X0070184Y-055268D01*
G01X0070178Y-055261D01*
G01X0070172Y-055254D01*
G01X0070167Y-055245D01*
G01X0070163Y-055236D01*
G01X0070160Y-055227D01*
G01X0070157Y-055218D01*
G01X0070156Y-055208D01*
G01X0070156Y-055199D01*
G01X0070156Y-054904D01*
G01X0070156Y-054894D01*
G01X0070157Y-054884D01*
G01X0070160Y-054875D01*
G01X0070163Y-054866D01*
G01X0070167Y-054857D01*
G01X0070172Y-054849D01*
G01X0070178Y-054841D01*
G01X0070184Y-054834D01*
G01X0070191Y-054827D01*
G01X0070199Y-054822D01*
G01X0070208Y-054817D01*
G01X0070216Y-054813D01*
G01X0070225Y-054809D01*
G01X0070235Y-054807D01*
G01X0070244Y-054806D01*
G01X0070254Y-054805D01*
G01X0070746Y-054805D01*
G01X0070756Y-054806D01*
G01X0070756Y-054806D01*
G37*
G54D11*
G01X0070500Y-055051D03*
G54D10*
G36*
G01X0069756Y-054806D02*
G01X0069765Y-054807D01*
G01X0069775Y-054809D01*
G01X0069784Y-054813D01*
G01X0069792Y-054817D01*
G01X0069801Y-054822D01*
G01X0069809Y-054827D01*
G01X0069816Y-054834D01*
G01X0069822Y-054841D01*
G01X0069828Y-054849D01*
G01X0069833Y-054857D01*
G01X0069837Y-054866D01*
G01X0069840Y-054875D01*
G01X0069843Y-054884D01*
G01X0069844Y-054894D01*
G01X0069844Y-054904D01*
G01X0069844Y-055199D01*
G01X0069844Y-055208D01*
G01X0069843Y-055218D01*
G01X0069840Y-055227D01*
G01X0069837Y-055236D01*
G01X0069833Y-055245D01*
G01X0069828Y-055254D01*
G01X0069822Y-055261D01*
G01X0069816Y-055268D01*
G01X0069809Y-055275D01*
G01X0069801Y-055281D01*
G01X0069792Y-055286D01*
G01X0069784Y-055290D01*
G01X0069775Y-055293D01*
G01X0069765Y-055295D01*
G01X0069756Y-055297D01*
G01X0069746Y-055297D01*
G01X0069254Y-055297D01*
G01X0069244Y-055297D01*
G01X0069235Y-055295D01*
G01X0069225Y-055293D01*
G01X0069216Y-055290D01*
G01X0069208Y-055286D01*
G01X0069199Y-055281D01*
G01X0069191Y-055275D01*
G01X0069184Y-055268D01*
G01X0069178Y-055261D01*
G01X0069172Y-055254D01*
G01X0069167Y-055245D01*
G01X0069163Y-055236D01*
G01X0069160Y-055227D01*
G01X0069157Y-055218D01*
G01X0069156Y-055208D01*
G01X0069156Y-055199D01*
G01X0069156Y-054904D01*
G01X0069156Y-054894D01*
G01X0069157Y-054884D01*
G01X0069160Y-054875D01*
G01X0069163Y-054866D01*
G01X0069167Y-054857D01*
G01X0069172Y-054849D01*
G01X0069178Y-054841D01*
G01X0069184Y-054834D01*
G01X0069191Y-054827D01*
G01X0069199Y-054822D01*
G01X0069208Y-054817D01*
G01X0069216Y-054813D01*
G01X0069225Y-054809D01*
G01X0069235Y-054807D01*
G01X0069244Y-054806D01*
G01X0069254Y-054805D01*
G01X0069746Y-054805D01*
G01X0069756Y-054806D01*
G01X0069756Y-054806D01*
G37*
G54D11*
G01X0069500Y-055051D03*
G54D10*
G36*
G01X0069756Y-053703D02*
G01X0069765Y-053705D01*
G01X0069775Y-053707D01*
G01X0069784Y-053710D01*
G01X0069792Y-053714D01*
G01X0069801Y-053719D01*
G01X0069809Y-053725D01*
G01X0069816Y-053732D01*
G01X0069822Y-053739D01*
G01X0069828Y-053746D01*
G01X0069833Y-053755D01*
G01X0069837Y-053764D01*
G01X0069840Y-053773D01*
G01X0069843Y-053782D01*
G01X0069844Y-053792D01*
G01X0069844Y-053801D01*
G01X0069844Y-054096D01*
G01X0069844Y-054106D01*
G01X0069843Y-054116D01*
G01X0069840Y-054125D01*
G01X0069837Y-054134D01*
G01X0069833Y-054143D01*
G01X0069828Y-054151D01*
G01X0069822Y-054159D01*
G01X0069816Y-054166D01*
G01X0069809Y-054173D01*
G01X0069801Y-054178D01*
G01X0069792Y-054183D01*
G01X0069784Y-054187D01*
G01X0069775Y-054191D01*
G01X0069765Y-054193D01*
G01X0069756Y-054194D01*
G01X0069746Y-054195D01*
G01X0069254Y-054195D01*
G01X0069244Y-054194D01*
G01X0069235Y-054193D01*
G01X0069225Y-054191D01*
G01X0069216Y-054187D01*
G01X0069208Y-054183D01*
G01X0069199Y-054178D01*
G01X0069191Y-054173D01*
G01X0069184Y-054166D01*
G01X0069178Y-054159D01*
G01X0069172Y-054151D01*
G01X0069167Y-054143D01*
G01X0069163Y-054134D01*
G01X0069160Y-054125D01*
G01X0069157Y-054116D01*
G01X0069156Y-054106D01*
G01X0069156Y-054096D01*
G01X0069156Y-053801D01*
G01X0069156Y-053792D01*
G01X0069157Y-053782D01*
G01X0069160Y-053773D01*
G01X0069163Y-053764D01*
G01X0069167Y-053755D01*
G01X0069172Y-053746D01*
G01X0069178Y-053739D01*
G01X0069184Y-053732D01*
G01X0069191Y-053725D01*
G01X0069199Y-053719D01*
G01X0069208Y-053714D01*
G01X0069216Y-053710D01*
G01X0069225Y-053707D01*
G01X0069235Y-053705D01*
G01X0069244Y-053703D01*
G01X0069254Y-053703D01*
G01X0069746Y-053703D01*
G01X0069756Y-053703D01*
G01X0069756Y-053703D01*
G37*
G54D11*
G01X0069500Y-053949D03*
G54D10*
G36*
G01X0068756Y-053703D02*
G01X0068765Y-053705D01*
G01X0068775Y-053707D01*
G01X0068784Y-053710D01*
G01X0068792Y-053714D01*
G01X0068801Y-053719D01*
G01X0068809Y-053725D01*
G01X0068816Y-053732D01*
G01X0068822Y-053739D01*
G01X0068828Y-053746D01*
G01X0068833Y-053755D01*
G01X0068837Y-053764D01*
G01X0068840Y-053773D01*
G01X0068843Y-053782D01*
G01X0068844Y-053792D01*
G01X0068844Y-053801D01*
G01X0068844Y-054096D01*
G01X0068844Y-054106D01*
G01X0068843Y-054116D01*
G01X0068840Y-054125D01*
G01X0068837Y-054134D01*
G01X0068833Y-054143D01*
G01X0068828Y-054151D01*
G01X0068822Y-054159D01*
G01X0068816Y-054166D01*
G01X0068809Y-054173D01*
G01X0068801Y-054178D01*
G01X0068792Y-054183D01*
G01X0068784Y-054187D01*
G01X0068775Y-054191D01*
G01X0068765Y-054193D01*
G01X0068756Y-054194D01*
G01X0068746Y-054195D01*
G01X0068254Y-054195D01*
G01X0068244Y-054194D01*
G01X0068235Y-054193D01*
G01X0068225Y-054191D01*
G01X0068216Y-054187D01*
G01X0068208Y-054183D01*
G01X0068199Y-054178D01*
G01X0068191Y-054173D01*
G01X0068184Y-054166D01*
G01X0068178Y-054159D01*
G01X0068172Y-054151D01*
G01X0068167Y-054143D01*
G01X0068163Y-054134D01*
G01X0068160Y-054125D01*
G01X0068157Y-054116D01*
G01X0068156Y-054106D01*
G01X0068156Y-054096D01*
G01X0068156Y-053801D01*
G01X0068156Y-053792D01*
G01X0068157Y-053782D01*
G01X0068160Y-053773D01*
G01X0068163Y-053764D01*
G01X0068167Y-053755D01*
G01X0068172Y-053746D01*
G01X0068178Y-053739D01*
G01X0068184Y-053732D01*
G01X0068191Y-053725D01*
G01X0068199Y-053719D01*
G01X0068208Y-053714D01*
G01X0068216Y-053710D01*
G01X0068225Y-053707D01*
G01X0068235Y-053705D01*
G01X0068244Y-053703D01*
G01X0068254Y-053703D01*
G01X0068746Y-053703D01*
G01X0068756Y-053703D01*
G01X0068756Y-053703D01*
G37*
G54D11*
G01X0068500Y-053949D03*
G54D10*
G36*
G01X0068756Y-054806D02*
G01X0068765Y-054807D01*
G01X0068775Y-054809D01*
G01X0068784Y-054813D01*
G01X0068792Y-054817D01*
G01X0068801Y-054822D01*
G01X0068809Y-054827D01*
G01X0068816Y-054834D01*
G01X0068822Y-054841D01*
G01X0068828Y-054849D01*
G01X0068833Y-054857D01*
G01X0068837Y-054866D01*
G01X0068840Y-054875D01*
G01X0068843Y-054884D01*
G01X0068844Y-054894D01*
G01X0068844Y-054904D01*
G01X0068844Y-055199D01*
G01X0068844Y-055208D01*
G01X0068843Y-055218D01*
G01X0068840Y-055227D01*
G01X0068837Y-055236D01*
G01X0068833Y-055245D01*
G01X0068828Y-055254D01*
G01X0068822Y-055261D01*
G01X0068816Y-055268D01*
G01X0068809Y-055275D01*
G01X0068801Y-055281D01*
G01X0068792Y-055286D01*
G01X0068784Y-055290D01*
G01X0068775Y-055293D01*
G01X0068765Y-055295D01*
G01X0068756Y-055297D01*
G01X0068746Y-055297D01*
G01X0068254Y-055297D01*
G01X0068244Y-055297D01*
G01X0068235Y-055295D01*
G01X0068225Y-055293D01*
G01X0068216Y-055290D01*
G01X0068208Y-055286D01*
G01X0068199Y-055281D01*
G01X0068191Y-055275D01*
G01X0068184Y-055268D01*
G01X0068178Y-055261D01*
G01X0068172Y-055254D01*
G01X0068167Y-055245D01*
G01X0068163Y-055236D01*
G01X0068160Y-055227D01*
G01X0068157Y-055218D01*
G01X0068156Y-055208D01*
G01X0068156Y-055199D01*
G01X0068156Y-054904D01*
G01X0068156Y-054894D01*
G01X0068157Y-054884D01*
G01X0068160Y-054875D01*
G01X0068163Y-054866D01*
G01X0068167Y-054857D01*
G01X0068172Y-054849D01*
G01X0068178Y-054841D01*
G01X0068184Y-054834D01*
G01X0068191Y-054827D01*
G01X0068199Y-054822D01*
G01X0068208Y-054817D01*
G01X0068216Y-054813D01*
G01X0068225Y-054809D01*
G01X0068235Y-054807D01*
G01X0068244Y-054806D01*
G01X0068254Y-054805D01*
G01X0068746Y-054805D01*
G01X0068756Y-054806D01*
G01X0068756Y-054806D01*
G37*
G54D11*
G01X0068500Y-055051D03*
G54D10*
G36*
G01X0072006Y-046853D02*
G01X0072015Y-046855D01*
G01X0072025Y-046857D01*
G01X0072034Y-046860D01*
G01X0072042Y-046864D01*
G01X0072051Y-046869D01*
G01X0072059Y-046875D01*
G01X0072066Y-046882D01*
G01X0072072Y-046889D01*
G01X0072078Y-046896D01*
G01X0072083Y-046905D01*
G01X0072087Y-046914D01*
G01X0072090Y-046923D01*
G01X0072093Y-046932D01*
G01X0072094Y-046942D01*
G01X0072094Y-046951D01*
G01X0072094Y-047246D01*
G01X0072094Y-047256D01*
G01X0072093Y-047266D01*
G01X0072090Y-047275D01*
G01X0072087Y-047284D01*
G01X0072083Y-047293D01*
G01X0072078Y-047301D01*
G01X0072072Y-047309D01*
G01X0072066Y-047316D01*
G01X0072059Y-047323D01*
G01X0072051Y-047328D01*
G01X0072042Y-047333D01*
G01X0072034Y-047337D01*
G01X0072025Y-047341D01*
G01X0072015Y-047343D01*
G01X0072006Y-047344D01*
G01X0071996Y-047345D01*
G01X0071504Y-047345D01*
G01X0071494Y-047344D01*
G01X0071485Y-047343D01*
G01X0071475Y-047341D01*
G01X0071466Y-047337D01*
G01X0071458Y-047333D01*
G01X0071449Y-047328D01*
G01X0071441Y-047323D01*
G01X0071434Y-047316D01*
G01X0071428Y-047309D01*
G01X0071422Y-047301D01*
G01X0071417Y-047293D01*
G01X0071413Y-047284D01*
G01X0071410Y-047275D01*
G01X0071407Y-047266D01*
G01X0071406Y-047256D01*
G01X0071406Y-047246D01*
G01X0071406Y-046951D01*
G01X0071406Y-046942D01*
G01X0071407Y-046932D01*
G01X0071410Y-046923D01*
G01X0071413Y-046914D01*
G01X0071417Y-046905D01*
G01X0071422Y-046896D01*
G01X0071428Y-046889D01*
G01X0071434Y-046882D01*
G01X0071441Y-046875D01*
G01X0071449Y-046869D01*
G01X0071458Y-046864D01*
G01X0071466Y-046860D01*
G01X0071475Y-046857D01*
G01X0071485Y-046855D01*
G01X0071494Y-046853D01*
G01X0071504Y-046853D01*
G01X0071996Y-046853D01*
G01X0072006Y-046853D01*
G01X0072006Y-046853D01*
G37*
G54D11*
G01X0071750Y-047099D03*
G54D10*
G36*
G01X0072006Y-047956D02*
G01X0072015Y-047957D01*
G01X0072025Y-047959D01*
G01X0072034Y-047963D01*
G01X0072042Y-047967D01*
G01X0072051Y-047972D01*
G01X0072059Y-047977D01*
G01X0072066Y-047984D01*
G01X0072072Y-047991D01*
G01X0072078Y-047999D01*
G01X0072083Y-048007D01*
G01X0072087Y-048016D01*
G01X0072090Y-048025D01*
G01X0072093Y-048034D01*
G01X0072094Y-048044D01*
G01X0072094Y-048054D01*
G01X0072094Y-048349D01*
G01X0072094Y-048358D01*
G01X0072093Y-048368D01*
G01X0072090Y-048377D01*
G01X0072087Y-048386D01*
G01X0072083Y-048395D01*
G01X0072078Y-048404D01*
G01X0072072Y-048411D01*
G01X0072066Y-048418D01*
G01X0072059Y-048425D01*
G01X0072051Y-048431D01*
G01X0072042Y-048436D01*
G01X0072034Y-048440D01*
G01X0072025Y-048443D01*
G01X0072015Y-048445D01*
G01X0072006Y-048447D01*
G01X0071996Y-048447D01*
G01X0071504Y-048447D01*
G01X0071494Y-048447D01*
G01X0071485Y-048445D01*
G01X0071475Y-048443D01*
G01X0071466Y-048440D01*
G01X0071458Y-048436D01*
G01X0071449Y-048431D01*
G01X0071441Y-048425D01*
G01X0071434Y-048418D01*
G01X0071428Y-048411D01*
G01X0071422Y-048404D01*
G01X0071417Y-048395D01*
G01X0071413Y-048386D01*
G01X0071410Y-048377D01*
G01X0071407Y-048368D01*
G01X0071406Y-048358D01*
G01X0071406Y-048349D01*
G01X0071406Y-048054D01*
G01X0071406Y-048044D01*
G01X0071407Y-048034D01*
G01X0071410Y-048025D01*
G01X0071413Y-048016D01*
G01X0071417Y-048007D01*
G01X0071422Y-047999D01*
G01X0071428Y-047991D01*
G01X0071434Y-047984D01*
G01X0071441Y-047977D01*
G01X0071449Y-047972D01*
G01X0071458Y-047967D01*
G01X0071466Y-047963D01*
G01X0071475Y-047959D01*
G01X0071485Y-047957D01*
G01X0071494Y-047956D01*
G01X0071504Y-047955D01*
G01X0071996Y-047955D01*
G01X0072006Y-047956D01*
G01X0072006Y-047956D01*
G37*
G54D11*
G01X0071750Y-048201D03*
G54D10*
G36*
G01X0073156Y-047956D02*
G01X0073165Y-047957D01*
G01X0073175Y-047959D01*
G01X0073184Y-047963D01*
G01X0073192Y-047967D01*
G01X0073201Y-047972D01*
G01X0073209Y-047977D01*
G01X0073216Y-047984D01*
G01X0073222Y-047991D01*
G01X0073228Y-047999D01*
G01X0073233Y-048007D01*
G01X0073237Y-048016D01*
G01X0073240Y-048025D01*
G01X0073243Y-048034D01*
G01X0073244Y-048044D01*
G01X0073244Y-048054D01*
G01X0073244Y-048349D01*
G01X0073244Y-048358D01*
G01X0073243Y-048368D01*
G01X0073240Y-048377D01*
G01X0073237Y-048386D01*
G01X0073233Y-048395D01*
G01X0073228Y-048404D01*
G01X0073222Y-048411D01*
G01X0073216Y-048418D01*
G01X0073209Y-048425D01*
G01X0073201Y-048431D01*
G01X0073192Y-048436D01*
G01X0073184Y-048440D01*
G01X0073175Y-048443D01*
G01X0073165Y-048445D01*
G01X0073156Y-048447D01*
G01X0073146Y-048447D01*
G01X0072654Y-048447D01*
G01X0072644Y-048447D01*
G01X0072635Y-048445D01*
G01X0072625Y-048443D01*
G01X0072616Y-048440D01*
G01X0072608Y-048436D01*
G01X0072599Y-048431D01*
G01X0072591Y-048425D01*
G01X0072584Y-048418D01*
G01X0072578Y-048411D01*
G01X0072572Y-048404D01*
G01X0072567Y-048395D01*
G01X0072563Y-048386D01*
G01X0072560Y-048377D01*
G01X0072557Y-048368D01*
G01X0072556Y-048358D01*
G01X0072556Y-048349D01*
G01X0072556Y-048054D01*
G01X0072556Y-048044D01*
G01X0072557Y-048034D01*
G01X0072560Y-048025D01*
G01X0072563Y-048016D01*
G01X0072567Y-048007D01*
G01X0072572Y-047999D01*
G01X0072578Y-047991D01*
G01X0072584Y-047984D01*
G01X0072591Y-047977D01*
G01X0072599Y-047972D01*
G01X0072608Y-047967D01*
G01X0072616Y-047963D01*
G01X0072625Y-047959D01*
G01X0072635Y-047957D01*
G01X0072644Y-047956D01*
G01X0072654Y-047955D01*
G01X0073146Y-047955D01*
G01X0073156Y-047956D01*
G01X0073156Y-047956D01*
G37*
G54D11*
G01X0072900Y-048201D03*
G54D10*
G36*
G01X0073156Y-046853D02*
G01X0073165Y-046855D01*
G01X0073175Y-046857D01*
G01X0073184Y-046860D01*
G01X0073192Y-046864D01*
G01X0073201Y-046869D01*
G01X0073209Y-046875D01*
G01X0073216Y-046882D01*
G01X0073222Y-046889D01*
G01X0073228Y-046896D01*
G01X0073233Y-046905D01*
G01X0073237Y-046914D01*
G01X0073240Y-046923D01*
G01X0073243Y-046932D01*
G01X0073244Y-046942D01*
G01X0073244Y-046951D01*
G01X0073244Y-047246D01*
G01X0073244Y-047256D01*
G01X0073243Y-047266D01*
G01X0073240Y-047275D01*
G01X0073237Y-047284D01*
G01X0073233Y-047293D01*
G01X0073228Y-047301D01*
G01X0073222Y-047309D01*
G01X0073216Y-047316D01*
G01X0073209Y-047323D01*
G01X0073201Y-047328D01*
G01X0073192Y-047333D01*
G01X0073184Y-047337D01*
G01X0073175Y-047341D01*
G01X0073165Y-047343D01*
G01X0073156Y-047344D01*
G01X0073146Y-047345D01*
G01X0072654Y-047345D01*
G01X0072644Y-047344D01*
G01X0072635Y-047343D01*
G01X0072625Y-047341D01*
G01X0072616Y-047337D01*
G01X0072608Y-047333D01*
G01X0072599Y-047328D01*
G01X0072591Y-047323D01*
G01X0072584Y-047316D01*
G01X0072578Y-047309D01*
G01X0072572Y-047301D01*
G01X0072567Y-047293D01*
G01X0072563Y-047284D01*
G01X0072560Y-047275D01*
G01X0072557Y-047266D01*
G01X0072556Y-047256D01*
G01X0072556Y-047246D01*
G01X0072556Y-046951D01*
G01X0072556Y-046942D01*
G01X0072557Y-046932D01*
G01X0072560Y-046923D01*
G01X0072563Y-046914D01*
G01X0072567Y-046905D01*
G01X0072572Y-046896D01*
G01X0072578Y-046889D01*
G01X0072584Y-046882D01*
G01X0072591Y-046875D01*
G01X0072599Y-046869D01*
G01X0072608Y-046864D01*
G01X0072616Y-046860D01*
G01X0072625Y-046857D01*
G01X0072635Y-046855D01*
G01X0072644Y-046853D01*
G01X0072654Y-046853D01*
G01X0073146Y-046853D01*
G01X0073156Y-046853D01*
G01X0073156Y-046853D01*
G37*
G54D11*
G01X0072900Y-047099D03*
G54D10*
G36*
G01X0077156Y-056706D02*
G01X0077165Y-056707D01*
G01X0077175Y-056709D01*
G01X0077184Y-056713D01*
G01X0077192Y-056717D01*
G01X0077201Y-056722D01*
G01X0077209Y-056727D01*
G01X0077216Y-056734D01*
G01X0077222Y-056741D01*
G01X0077228Y-056749D01*
G01X0077233Y-056757D01*
G01X0077237Y-056766D01*
G01X0077240Y-056775D01*
G01X0077243Y-056784D01*
G01X0077244Y-056794D01*
G01X0077244Y-056804D01*
G01X0077244Y-057099D01*
G01X0077244Y-057108D01*
G01X0077243Y-057118D01*
G01X0077240Y-057127D01*
G01X0077237Y-057136D01*
G01X0077233Y-057145D01*
G01X0077228Y-057154D01*
G01X0077222Y-057161D01*
G01X0077216Y-057168D01*
G01X0077209Y-057175D01*
G01X0077201Y-057181D01*
G01X0077192Y-057186D01*
G01X0077184Y-057190D01*
G01X0077175Y-057193D01*
G01X0077165Y-057195D01*
G01X0077156Y-057197D01*
G01X0077146Y-057197D01*
G01X0076654Y-057197D01*
G01X0076644Y-057197D01*
G01X0076635Y-057195D01*
G01X0076625Y-057193D01*
G01X0076616Y-057190D01*
G01X0076608Y-057186D01*
G01X0076599Y-057181D01*
G01X0076591Y-057175D01*
G01X0076584Y-057168D01*
G01X0076578Y-057161D01*
G01X0076572Y-057154D01*
G01X0076567Y-057145D01*
G01X0076563Y-057136D01*
G01X0076560Y-057127D01*
G01X0076557Y-057118D01*
G01X0076556Y-057108D01*
G01X0076556Y-057099D01*
G01X0076556Y-056804D01*
G01X0076556Y-056794D01*
G01X0076557Y-056784D01*
G01X0076560Y-056775D01*
G01X0076563Y-056766D01*
G01X0076567Y-056757D01*
G01X0076572Y-056749D01*
G01X0076578Y-056741D01*
G01X0076584Y-056734D01*
G01X0076591Y-056727D01*
G01X0076599Y-056722D01*
G01X0076608Y-056717D01*
G01X0076616Y-056713D01*
G01X0076625Y-056709D01*
G01X0076635Y-056707D01*
G01X0076644Y-056706D01*
G01X0076654Y-056705D01*
G01X0077146Y-056705D01*
G01X0077156Y-056706D01*
G01X0077156Y-056706D01*
G37*
G54D11*
G01X0076900Y-056951D03*
G54D10*
G36*
G01X0077156Y-055603D02*
G01X0077165Y-055605D01*
G01X0077175Y-055607D01*
G01X0077184Y-055610D01*
G01X0077192Y-055614D01*
G01X0077201Y-055619D01*
G01X0077209Y-055625D01*
G01X0077216Y-055632D01*
G01X0077222Y-055639D01*
G01X0077228Y-055646D01*
G01X0077233Y-055655D01*
G01X0077237Y-055664D01*
G01X0077240Y-055673D01*
G01X0077243Y-055682D01*
G01X0077244Y-055692D01*
G01X0077244Y-055701D01*
G01X0077244Y-055996D01*
G01X0077244Y-056006D01*
G01X0077243Y-056016D01*
G01X0077240Y-056025D01*
G01X0077237Y-056034D01*
G01X0077233Y-056043D01*
G01X0077228Y-056051D01*
G01X0077222Y-056059D01*
G01X0077216Y-056066D01*
G01X0077209Y-056073D01*
G01X0077201Y-056078D01*
G01X0077192Y-056083D01*
G01X0077184Y-056087D01*
G01X0077175Y-056091D01*
G01X0077165Y-056093D01*
G01X0077156Y-056094D01*
G01X0077146Y-056095D01*
G01X0076654Y-056095D01*
G01X0076644Y-056094D01*
G01X0076635Y-056093D01*
G01X0076625Y-056091D01*
G01X0076616Y-056087D01*
G01X0076608Y-056083D01*
G01X0076599Y-056078D01*
G01X0076591Y-056073D01*
G01X0076584Y-056066D01*
G01X0076578Y-056059D01*
G01X0076572Y-056051D01*
G01X0076567Y-056043D01*
G01X0076563Y-056034D01*
G01X0076560Y-056025D01*
G01X0076557Y-056016D01*
G01X0076556Y-056006D01*
G01X0076556Y-055996D01*
G01X0076556Y-055701D01*
G01X0076556Y-055692D01*
G01X0076557Y-055682D01*
G01X0076560Y-055673D01*
G01X0076563Y-055664D01*
G01X0076567Y-055655D01*
G01X0076572Y-055646D01*
G01X0076578Y-055639D01*
G01X0076584Y-055632D01*
G01X0076591Y-055625D01*
G01X0076599Y-055619D01*
G01X0076608Y-055614D01*
G01X0076616Y-055610D01*
G01X0076625Y-055607D01*
G01X0076635Y-055605D01*
G01X0076644Y-055603D01*
G01X0076654Y-055603D01*
G01X0077146Y-055603D01*
G01X0077156Y-055603D01*
G01X0077156Y-055603D01*
G37*
G54D11*
G01X0076900Y-055849D03*
G54D10*
G36*
G01X0082256Y-056706D02*
G01X0082265Y-056707D01*
G01X0082275Y-056709D01*
G01X0082284Y-056713D01*
G01X0082292Y-056717D01*
G01X0082301Y-056722D01*
G01X0082309Y-056727D01*
G01X0082316Y-056734D01*
G01X0082322Y-056741D01*
G01X0082328Y-056749D01*
G01X0082333Y-056757D01*
G01X0082337Y-056766D01*
G01X0082340Y-056775D01*
G01X0082343Y-056784D01*
G01X0082344Y-056794D01*
G01X0082344Y-056804D01*
G01X0082344Y-057099D01*
G01X0082344Y-057108D01*
G01X0082343Y-057118D01*
G01X0082340Y-057127D01*
G01X0082337Y-057136D01*
G01X0082333Y-057145D01*
G01X0082328Y-057154D01*
G01X0082322Y-057161D01*
G01X0082316Y-057168D01*
G01X0082309Y-057175D01*
G01X0082301Y-057181D01*
G01X0082292Y-057186D01*
G01X0082284Y-057190D01*
G01X0082275Y-057193D01*
G01X0082265Y-057195D01*
G01X0082256Y-057197D01*
G01X0082246Y-057197D01*
G01X0081754Y-057197D01*
G01X0081744Y-057197D01*
G01X0081735Y-057195D01*
G01X0081725Y-057193D01*
G01X0081716Y-057190D01*
G01X0081708Y-057186D01*
G01X0081699Y-057181D01*
G01X0081691Y-057175D01*
G01X0081684Y-057168D01*
G01X0081678Y-057161D01*
G01X0081672Y-057154D01*
G01X0081667Y-057145D01*
G01X0081663Y-057136D01*
G01X0081660Y-057127D01*
G01X0081657Y-057118D01*
G01X0081656Y-057108D01*
G01X0081656Y-057099D01*
G01X0081656Y-056804D01*
G01X0081656Y-056794D01*
G01X0081657Y-056784D01*
G01X0081660Y-056775D01*
G01X0081663Y-056766D01*
G01X0081667Y-056757D01*
G01X0081672Y-056749D01*
G01X0081678Y-056741D01*
G01X0081684Y-056734D01*
G01X0081691Y-056727D01*
G01X0081699Y-056722D01*
G01X0081708Y-056717D01*
G01X0081716Y-056713D01*
G01X0081725Y-056709D01*
G01X0081735Y-056707D01*
G01X0081744Y-056706D01*
G01X0081754Y-056705D01*
G01X0082246Y-056705D01*
G01X0082256Y-056706D01*
G01X0082256Y-056706D01*
G37*
G54D11*
G01X0082000Y-056951D03*
G54D10*
G36*
G01X0082256Y-055603D02*
G01X0082265Y-055605D01*
G01X0082275Y-055607D01*
G01X0082284Y-055610D01*
G01X0082292Y-055614D01*
G01X0082301Y-055619D01*
G01X0082309Y-055625D01*
G01X0082316Y-055632D01*
G01X0082322Y-055639D01*
G01X0082328Y-055646D01*
G01X0082333Y-055655D01*
G01X0082337Y-055664D01*
G01X0082340Y-055673D01*
G01X0082343Y-055682D01*
G01X0082344Y-055692D01*
G01X0082344Y-055701D01*
G01X0082344Y-055996D01*
G01X0082344Y-056006D01*
G01X0082343Y-056016D01*
G01X0082340Y-056025D01*
G01X0082337Y-056034D01*
G01X0082333Y-056043D01*
G01X0082328Y-056051D01*
G01X0082322Y-056059D01*
G01X0082316Y-056066D01*
G01X0082309Y-056073D01*
G01X0082301Y-056078D01*
G01X0082292Y-056083D01*
G01X0082284Y-056087D01*
G01X0082275Y-056091D01*
G01X0082265Y-056093D01*
G01X0082256Y-056094D01*
G01X0082246Y-056095D01*
G01X0081754Y-056095D01*
G01X0081744Y-056094D01*
G01X0081735Y-056093D01*
G01X0081725Y-056091D01*
G01X0081716Y-056087D01*
G01X0081708Y-056083D01*
G01X0081699Y-056078D01*
G01X0081691Y-056073D01*
G01X0081684Y-056066D01*
G01X0081678Y-056059D01*
G01X0081672Y-056051D01*
G01X0081667Y-056043D01*
G01X0081663Y-056034D01*
G01X0081660Y-056025D01*
G01X0081657Y-056016D01*
G01X0081656Y-056006D01*
G01X0081656Y-055996D01*
G01X0081656Y-055701D01*
G01X0081656Y-055692D01*
G01X0081657Y-055682D01*
G01X0081660Y-055673D01*
G01X0081663Y-055664D01*
G01X0081667Y-055655D01*
G01X0081672Y-055646D01*
G01X0081678Y-055639D01*
G01X0081684Y-055632D01*
G01X0081691Y-055625D01*
G01X0081699Y-055619D01*
G01X0081708Y-055614D01*
G01X0081716Y-055610D01*
G01X0081725Y-055607D01*
G01X0081735Y-055605D01*
G01X0081744Y-055603D01*
G01X0081754Y-055603D01*
G01X0082246Y-055603D01*
G01X0082256Y-055603D01*
G01X0082256Y-055603D01*
G37*
G54D11*
G01X0082000Y-055849D03*
G54D10*
G36*
G01X0077856Y-049806D02*
G01X0077865Y-049807D01*
G01X0077875Y-049809D01*
G01X0077884Y-049813D01*
G01X0077892Y-049817D01*
G01X0077901Y-049822D01*
G01X0077909Y-049827D01*
G01X0077916Y-049834D01*
G01X0077922Y-049841D01*
G01X0077928Y-049849D01*
G01X0077933Y-049857D01*
G01X0077937Y-049866D01*
G01X0077940Y-049875D01*
G01X0077943Y-049884D01*
G01X0077944Y-049894D01*
G01X0077944Y-049904D01*
G01X0077944Y-050199D01*
G01X0077944Y-050208D01*
G01X0077943Y-050218D01*
G01X0077940Y-050227D01*
G01X0077937Y-050236D01*
G01X0077933Y-050245D01*
G01X0077928Y-050254D01*
G01X0077922Y-050261D01*
G01X0077916Y-050268D01*
G01X0077909Y-050275D01*
G01X0077901Y-050281D01*
G01X0077892Y-050286D01*
G01X0077884Y-050290D01*
G01X0077875Y-050293D01*
G01X0077865Y-050295D01*
G01X0077856Y-050297D01*
G01X0077846Y-050297D01*
G01X0077354Y-050297D01*
G01X0077344Y-050297D01*
G01X0077335Y-050295D01*
G01X0077325Y-050293D01*
G01X0077316Y-050290D01*
G01X0077308Y-050286D01*
G01X0077299Y-050281D01*
G01X0077291Y-050275D01*
G01X0077284Y-050268D01*
G01X0077278Y-050261D01*
G01X0077272Y-050254D01*
G01X0077267Y-050245D01*
G01X0077263Y-050236D01*
G01X0077260Y-050227D01*
G01X0077257Y-050218D01*
G01X0077256Y-050208D01*
G01X0077256Y-050199D01*
G01X0077256Y-049904D01*
G01X0077256Y-049894D01*
G01X0077257Y-049884D01*
G01X0077260Y-049875D01*
G01X0077263Y-049866D01*
G01X0077267Y-049857D01*
G01X0077272Y-049849D01*
G01X0077278Y-049841D01*
G01X0077284Y-049834D01*
G01X0077291Y-049827D01*
G01X0077299Y-049822D01*
G01X0077308Y-049817D01*
G01X0077316Y-049813D01*
G01X0077325Y-049809D01*
G01X0077335Y-049807D01*
G01X0077344Y-049806D01*
G01X0077354Y-049805D01*
G01X0077846Y-049805D01*
G01X0077856Y-049806D01*
G01X0077856Y-049806D01*
G37*
G54D11*
G01X0077600Y-050051D03*
G54D10*
G36*
G01X0077856Y-048703D02*
G01X0077865Y-048705D01*
G01X0077875Y-048707D01*
G01X0077884Y-048710D01*
G01X0077892Y-048714D01*
G01X0077901Y-048719D01*
G01X0077909Y-048725D01*
G01X0077916Y-048732D01*
G01X0077922Y-048739D01*
G01X0077928Y-048746D01*
G01X0077933Y-048755D01*
G01X0077937Y-048764D01*
G01X0077940Y-048773D01*
G01X0077943Y-048782D01*
G01X0077944Y-048792D01*
G01X0077944Y-048801D01*
G01X0077944Y-049096D01*
G01X0077944Y-049106D01*
G01X0077943Y-049116D01*
G01X0077940Y-049125D01*
G01X0077937Y-049134D01*
G01X0077933Y-049143D01*
G01X0077928Y-049151D01*
G01X0077922Y-049159D01*
G01X0077916Y-049166D01*
G01X0077909Y-049173D01*
G01X0077901Y-049178D01*
G01X0077892Y-049183D01*
G01X0077884Y-049187D01*
G01X0077875Y-049191D01*
G01X0077865Y-049193D01*
G01X0077856Y-049194D01*
G01X0077846Y-049195D01*
G01X0077354Y-049195D01*
G01X0077344Y-049194D01*
G01X0077335Y-049193D01*
G01X0077325Y-049191D01*
G01X0077316Y-049187D01*
G01X0077308Y-049183D01*
G01X0077299Y-049178D01*
G01X0077291Y-049173D01*
G01X0077284Y-049166D01*
G01X0077278Y-049159D01*
G01X0077272Y-049151D01*
G01X0077267Y-049143D01*
G01X0077263Y-049134D01*
G01X0077260Y-049125D01*
G01X0077257Y-049116D01*
G01X0077256Y-049106D01*
G01X0077256Y-049096D01*
G01X0077256Y-048801D01*
G01X0077256Y-048792D01*
G01X0077257Y-048782D01*
G01X0077260Y-048773D01*
G01X0077263Y-048764D01*
G01X0077267Y-048755D01*
G01X0077272Y-048746D01*
G01X0077278Y-048739D01*
G01X0077284Y-048732D01*
G01X0077291Y-048725D01*
G01X0077299Y-048719D01*
G01X0077308Y-048714D01*
G01X0077316Y-048710D01*
G01X0077325Y-048707D01*
G01X0077335Y-048705D01*
G01X0077344Y-048703D01*
G01X0077354Y-048703D01*
G01X0077846Y-048703D01*
G01X0077856Y-048703D01*
G01X0077856Y-048703D01*
G37*
G54D11*
G01X0077600Y-048949D03*
G54D10*
G36*
G01X0087606Y-046553D02*
G01X0087615Y-046555D01*
G01X0087625Y-046557D01*
G01X0087634Y-046560D01*
G01X0087642Y-046564D01*
G01X0087651Y-046569D01*
G01X0087659Y-046575D01*
G01X0087666Y-046582D01*
G01X0087672Y-046589D01*
G01X0087678Y-046596D01*
G01X0087683Y-046605D01*
G01X0087687Y-046614D01*
G01X0087690Y-046623D01*
G01X0087693Y-046632D01*
G01X0087694Y-046642D01*
G01X0087694Y-046651D01*
G01X0087694Y-046946D01*
G01X0087694Y-046956D01*
G01X0087693Y-046966D01*
G01X0087690Y-046975D01*
G01X0087687Y-046984D01*
G01X0087683Y-046993D01*
G01X0087678Y-047001D01*
G01X0087672Y-047009D01*
G01X0087666Y-047016D01*
G01X0087659Y-047023D01*
G01X0087651Y-047028D01*
G01X0087642Y-047033D01*
G01X0087634Y-047037D01*
G01X0087625Y-047041D01*
G01X0087615Y-047043D01*
G01X0087606Y-047044D01*
G01X0087596Y-047045D01*
G01X0087104Y-047045D01*
G01X0087094Y-047044D01*
G01X0087085Y-047043D01*
G01X0087075Y-047041D01*
G01X0087066Y-047037D01*
G01X0087058Y-047033D01*
G01X0087049Y-047028D01*
G01X0087041Y-047023D01*
G01X0087034Y-047016D01*
G01X0087028Y-047009D01*
G01X0087022Y-047001D01*
G01X0087017Y-046993D01*
G01X0087013Y-046984D01*
G01X0087010Y-046975D01*
G01X0087007Y-046966D01*
G01X0087006Y-046956D01*
G01X0087006Y-046946D01*
G01X0087006Y-046651D01*
G01X0087006Y-046642D01*
G01X0087007Y-046632D01*
G01X0087010Y-046623D01*
G01X0087013Y-046614D01*
G01X0087017Y-046605D01*
G01X0087022Y-046596D01*
G01X0087028Y-046589D01*
G01X0087034Y-046582D01*
G01X0087041Y-046575D01*
G01X0087049Y-046569D01*
G01X0087058Y-046564D01*
G01X0087066Y-046560D01*
G01X0087075Y-046557D01*
G01X0087085Y-046555D01*
G01X0087094Y-046553D01*
G01X0087104Y-046553D01*
G01X0087596Y-046553D01*
G01X0087606Y-046553D01*
G01X0087606Y-046553D01*
G37*
G54D11*
G01X0087350Y-046799D03*
G54D10*
G36*
G01X0087606Y-047656D02*
G01X0087615Y-047657D01*
G01X0087625Y-047659D01*
G01X0087634Y-047663D01*
G01X0087642Y-047667D01*
G01X0087651Y-047672D01*
G01X0087659Y-047677D01*
G01X0087666Y-047684D01*
G01X0087672Y-047691D01*
G01X0087678Y-047699D01*
G01X0087683Y-047707D01*
G01X0087687Y-047716D01*
G01X0087690Y-047725D01*
G01X0087693Y-047734D01*
G01X0087694Y-047744D01*
G01X0087694Y-047754D01*
G01X0087694Y-048049D01*
G01X0087694Y-048058D01*
G01X0087693Y-048068D01*
G01X0087690Y-048077D01*
G01X0087687Y-048086D01*
G01X0087683Y-048095D01*
G01X0087678Y-048104D01*
G01X0087672Y-048111D01*
G01X0087666Y-048118D01*
G01X0087659Y-048125D01*
G01X0087651Y-048131D01*
G01X0087642Y-048136D01*
G01X0087634Y-048140D01*
G01X0087625Y-048143D01*
G01X0087615Y-048145D01*
G01X0087606Y-048147D01*
G01X0087596Y-048147D01*
G01X0087104Y-048147D01*
G01X0087094Y-048147D01*
G01X0087085Y-048145D01*
G01X0087075Y-048143D01*
G01X0087066Y-048140D01*
G01X0087058Y-048136D01*
G01X0087049Y-048131D01*
G01X0087041Y-048125D01*
G01X0087034Y-048118D01*
G01X0087028Y-048111D01*
G01X0087022Y-048104D01*
G01X0087017Y-048095D01*
G01X0087013Y-048086D01*
G01X0087010Y-048077D01*
G01X0087007Y-048068D01*
G01X0087006Y-048058D01*
G01X0087006Y-048049D01*
G01X0087006Y-047754D01*
G01X0087006Y-047744D01*
G01X0087007Y-047734D01*
G01X0087010Y-047725D01*
G01X0087013Y-047716D01*
G01X0087017Y-047707D01*
G01X0087022Y-047699D01*
G01X0087028Y-047691D01*
G01X0087034Y-047684D01*
G01X0087041Y-047677D01*
G01X0087049Y-047672D01*
G01X0087058Y-047667D01*
G01X0087066Y-047663D01*
G01X0087075Y-047659D01*
G01X0087085Y-047657D01*
G01X0087094Y-047656D01*
G01X0087104Y-047655D01*
G01X0087596Y-047655D01*
G01X0087606Y-047656D01*
G01X0087606Y-047656D01*
G37*
G54D11*
G01X0087350Y-047901D03*
G54D10*
G36*
G01X0054658Y-041006D02*
G01X0054668Y-041007D01*
G01X0054677Y-041010D01*
G01X0054686Y-041013D01*
G01X0054695Y-041017D01*
G01X0054704Y-041022D01*
G01X0054711Y-041028D01*
G01X0054718Y-041034D01*
G01X0054725Y-041041D01*
G01X0054731Y-041049D01*
G01X0054736Y-041058D01*
G01X0054740Y-041066D01*
G01X0054743Y-041075D01*
G01X0054745Y-041085D01*
G01X0054747Y-041094D01*
G01X0054747Y-041104D01*
G01X0054747Y-041596D01*
G01X0054747Y-041606D01*
G01X0054745Y-041615D01*
G01X0054743Y-041625D01*
G01X0054740Y-041634D01*
G01X0054736Y-041642D01*
G01X0054731Y-041651D01*
G01X0054725Y-041659D01*
G01X0054718Y-041666D01*
G01X0054711Y-041672D01*
G01X0054704Y-041678D01*
G01X0054695Y-041683D01*
G01X0054686Y-041687D01*
G01X0054677Y-041690D01*
G01X0054668Y-041693D01*
G01X0054658Y-041694D01*
G01X0054649Y-041694D01*
G01X0054354Y-041694D01*
G01X0054344Y-041694D01*
G01X0054334Y-041693D01*
G01X0054325Y-041690D01*
G01X0054316Y-041687D01*
G01X0054307Y-041683D01*
G01X0054299Y-041678D01*
G01X0054291Y-041672D01*
G01X0054284Y-041666D01*
G01X0054277Y-041659D01*
G01X0054272Y-041651D01*
G01X0054267Y-041642D01*
G01X0054263Y-041634D01*
G01X0054259Y-041625D01*
G01X0054257Y-041615D01*
G01X0054256Y-041606D01*
G01X0054255Y-041596D01*
G01X0054255Y-041104D01*
G01X0054256Y-041094D01*
G01X0054257Y-041085D01*
G01X0054259Y-041075D01*
G01X0054263Y-041066D01*
G01X0054267Y-041058D01*
G01X0054272Y-041049D01*
G01X0054277Y-041041D01*
G01X0054284Y-041034D01*
G01X0054291Y-041028D01*
G01X0054299Y-041022D01*
G01X0054307Y-041017D01*
G01X0054316Y-041013D01*
G01X0054325Y-041010D01*
G01X0054334Y-041007D01*
G01X0054344Y-041006D01*
G01X0054354Y-041006D01*
G01X0054649Y-041006D01*
G01X0054658Y-041006D01*
G01X0054658Y-041006D01*
G37*
G54D11*
G01X0054501Y-041350D03*
G54D10*
G36*
G01X0053556Y-041006D02*
G01X0053566Y-041007D01*
G01X0053575Y-041010D01*
G01X0053584Y-041013D01*
G01X0053593Y-041017D01*
G01X0053601Y-041022D01*
G01X0053609Y-041028D01*
G01X0053616Y-041034D01*
G01X0053623Y-041041D01*
G01X0053628Y-041049D01*
G01X0053633Y-041058D01*
G01X0053637Y-041066D01*
G01X0053641Y-041075D01*
G01X0053643Y-041085D01*
G01X0053644Y-041094D01*
G01X0053645Y-041104D01*
G01X0053645Y-041596D01*
G01X0053644Y-041606D01*
G01X0053643Y-041615D01*
G01X0053641Y-041625D01*
G01X0053637Y-041634D01*
G01X0053633Y-041642D01*
G01X0053628Y-041651D01*
G01X0053623Y-041659D01*
G01X0053616Y-041666D01*
G01X0053609Y-041672D01*
G01X0053601Y-041678D01*
G01X0053593Y-041683D01*
G01X0053584Y-041687D01*
G01X0053575Y-041690D01*
G01X0053566Y-041693D01*
G01X0053556Y-041694D01*
G01X0053546Y-041694D01*
G01X0053251Y-041694D01*
G01X0053242Y-041694D01*
G01X0053232Y-041693D01*
G01X0053223Y-041690D01*
G01X0053214Y-041687D01*
G01X0053205Y-041683D01*
G01X0053196Y-041678D01*
G01X0053189Y-041672D01*
G01X0053182Y-041666D01*
G01X0053175Y-041659D01*
G01X0053169Y-041651D01*
G01X0053164Y-041642D01*
G01X0053160Y-041634D01*
G01X0053157Y-041625D01*
G01X0053155Y-041615D01*
G01X0053153Y-041606D01*
G01X0053153Y-041596D01*
G01X0053153Y-041104D01*
G01X0053153Y-041094D01*
G01X0053155Y-041085D01*
G01X0053157Y-041075D01*
G01X0053160Y-041066D01*
G01X0053164Y-041058D01*
G01X0053169Y-041049D01*
G01X0053175Y-041041D01*
G01X0053182Y-041034D01*
G01X0053189Y-041028D01*
G01X0053196Y-041022D01*
G01X0053205Y-041017D01*
G01X0053214Y-041013D01*
G01X0053223Y-041010D01*
G01X0053232Y-041007D01*
G01X0053242Y-041006D01*
G01X0053251Y-041006D01*
G01X0053546Y-041006D01*
G01X0053556Y-041006D01*
G01X0053556Y-041006D01*
G37*
G54D11*
G01X0053399Y-041350D03*
G54D10*
G36*
G01X0061056Y-043006D02*
G01X0061066Y-043007D01*
G01X0061075Y-043010D01*
G01X0061084Y-043013D01*
G01X0061093Y-043017D01*
G01X0061101Y-043022D01*
G01X0061109Y-043028D01*
G01X0061116Y-043034D01*
G01X0061123Y-043041D01*
G01X0061128Y-043049D01*
G01X0061133Y-043058D01*
G01X0061137Y-043066D01*
G01X0061141Y-043075D01*
G01X0061143Y-043085D01*
G01X0061144Y-043094D01*
G01X0061145Y-043104D01*
G01X0061145Y-043596D01*
G01X0061144Y-043606D01*
G01X0061143Y-043615D01*
G01X0061141Y-043625D01*
G01X0061137Y-043634D01*
G01X0061133Y-043642D01*
G01X0061128Y-043651D01*
G01X0061123Y-043659D01*
G01X0061116Y-043666D01*
G01X0061109Y-043672D01*
G01X0061101Y-043678D01*
G01X0061093Y-043683D01*
G01X0061084Y-043687D01*
G01X0061075Y-043690D01*
G01X0061066Y-043693D01*
G01X0061056Y-043694D01*
G01X0061046Y-043694D01*
G01X0060751Y-043694D01*
G01X0060742Y-043694D01*
G01X0060732Y-043693D01*
G01X0060723Y-043690D01*
G01X0060714Y-043687D01*
G01X0060705Y-043683D01*
G01X0060696Y-043678D01*
G01X0060689Y-043672D01*
G01X0060682Y-043666D01*
G01X0060675Y-043659D01*
G01X0060669Y-043651D01*
G01X0060664Y-043642D01*
G01X0060660Y-043634D01*
G01X0060657Y-043625D01*
G01X0060655Y-043615D01*
G01X0060653Y-043606D01*
G01X0060653Y-043596D01*
G01X0060653Y-043104D01*
G01X0060653Y-043094D01*
G01X0060655Y-043085D01*
G01X0060657Y-043075D01*
G01X0060660Y-043066D01*
G01X0060664Y-043058D01*
G01X0060669Y-043049D01*
G01X0060675Y-043041D01*
G01X0060682Y-043034D01*
G01X0060689Y-043028D01*
G01X0060696Y-043022D01*
G01X0060705Y-043017D01*
G01X0060714Y-043013D01*
G01X0060723Y-043010D01*
G01X0060732Y-043007D01*
G01X0060742Y-043006D01*
G01X0060751Y-043006D01*
G01X0061046Y-043006D01*
G01X0061056Y-043006D01*
G01X0061056Y-043006D01*
G37*
G54D11*
G01X0060899Y-043350D03*
G54D10*
G36*
G01X0062158Y-043006D02*
G01X0062168Y-043007D01*
G01X0062177Y-043010D01*
G01X0062186Y-043013D01*
G01X0062195Y-043017D01*
G01X0062204Y-043022D01*
G01X0062211Y-043028D01*
G01X0062218Y-043034D01*
G01X0062225Y-043041D01*
G01X0062231Y-043049D01*
G01X0062236Y-043058D01*
G01X0062240Y-043066D01*
G01X0062243Y-043075D01*
G01X0062245Y-043085D01*
G01X0062247Y-043094D01*
G01X0062247Y-043104D01*
G01X0062247Y-043596D01*
G01X0062247Y-043606D01*
G01X0062245Y-043615D01*
G01X0062243Y-043625D01*
G01X0062240Y-043634D01*
G01X0062236Y-043642D01*
G01X0062231Y-043651D01*
G01X0062225Y-043659D01*
G01X0062218Y-043666D01*
G01X0062211Y-043672D01*
G01X0062204Y-043678D01*
G01X0062195Y-043683D01*
G01X0062186Y-043687D01*
G01X0062177Y-043690D01*
G01X0062168Y-043693D01*
G01X0062158Y-043694D01*
G01X0062149Y-043694D01*
G01X0061854Y-043694D01*
G01X0061844Y-043694D01*
G01X0061834Y-043693D01*
G01X0061825Y-043690D01*
G01X0061816Y-043687D01*
G01X0061807Y-043683D01*
G01X0061799Y-043678D01*
G01X0061791Y-043672D01*
G01X0061784Y-043666D01*
G01X0061777Y-043659D01*
G01X0061772Y-043651D01*
G01X0061767Y-043642D01*
G01X0061763Y-043634D01*
G01X0061759Y-043625D01*
G01X0061757Y-043615D01*
G01X0061756Y-043606D01*
G01X0061755Y-043596D01*
G01X0061755Y-043104D01*
G01X0061756Y-043094D01*
G01X0061757Y-043085D01*
G01X0061759Y-043075D01*
G01X0061763Y-043066D01*
G01X0061767Y-043058D01*
G01X0061772Y-043049D01*
G01X0061777Y-043041D01*
G01X0061784Y-043034D01*
G01X0061791Y-043028D01*
G01X0061799Y-043022D01*
G01X0061807Y-043017D01*
G01X0061816Y-043013D01*
G01X0061825Y-043010D01*
G01X0061834Y-043007D01*
G01X0061844Y-043006D01*
G01X0061854Y-043006D01*
G01X0062149Y-043006D01*
G01X0062158Y-043006D01*
G01X0062158Y-043006D01*
G37*
G54D11*
G01X0062001Y-043350D03*
G54D10*
G36*
G01X0056256Y-039506D02*
G01X0056266Y-039507D01*
G01X0056275Y-039510D01*
G01X0056284Y-039513D01*
G01X0056293Y-039517D01*
G01X0056301Y-039522D01*
G01X0056309Y-039528D01*
G01X0056316Y-039534D01*
G01X0056323Y-039541D01*
G01X0056328Y-039549D01*
G01X0056333Y-039558D01*
G01X0056337Y-039566D01*
G01X0056341Y-039575D01*
G01X0056343Y-039585D01*
G01X0056344Y-039594D01*
G01X0056345Y-039604D01*
G01X0056345Y-040096D01*
G01X0056344Y-040106D01*
G01X0056343Y-040115D01*
G01X0056341Y-040125D01*
G01X0056337Y-040134D01*
G01X0056333Y-040142D01*
G01X0056328Y-040151D01*
G01X0056323Y-040159D01*
G01X0056316Y-040166D01*
G01X0056309Y-040172D01*
G01X0056301Y-040178D01*
G01X0056293Y-040183D01*
G01X0056284Y-040187D01*
G01X0056275Y-040190D01*
G01X0056266Y-040193D01*
G01X0056256Y-040194D01*
G01X0056246Y-040194D01*
G01X0055951Y-040194D01*
G01X0055942Y-040194D01*
G01X0055932Y-040193D01*
G01X0055923Y-040190D01*
G01X0055914Y-040187D01*
G01X0055905Y-040183D01*
G01X0055896Y-040178D01*
G01X0055889Y-040172D01*
G01X0055882Y-040166D01*
G01X0055875Y-040159D01*
G01X0055869Y-040151D01*
G01X0055864Y-040142D01*
G01X0055860Y-040134D01*
G01X0055857Y-040125D01*
G01X0055855Y-040115D01*
G01X0055853Y-040106D01*
G01X0055853Y-040096D01*
G01X0055853Y-039604D01*
G01X0055853Y-039594D01*
G01X0055855Y-039585D01*
G01X0055857Y-039575D01*
G01X0055860Y-039566D01*
G01X0055864Y-039558D01*
G01X0055869Y-039549D01*
G01X0055875Y-039541D01*
G01X0055882Y-039534D01*
G01X0055889Y-039528D01*
G01X0055896Y-039522D01*
G01X0055905Y-039517D01*
G01X0055914Y-039513D01*
G01X0055923Y-039510D01*
G01X0055932Y-039507D01*
G01X0055942Y-039506D01*
G01X0055951Y-039506D01*
G01X0056246Y-039506D01*
G01X0056256Y-039506D01*
G01X0056256Y-039506D01*
G37*
G54D11*
G01X0056099Y-039850D03*
G54D10*
G36*
G01X0057358Y-039506D02*
G01X0057368Y-039507D01*
G01X0057377Y-039510D01*
G01X0057386Y-039513D01*
G01X0057395Y-039517D01*
G01X0057404Y-039522D01*
G01X0057411Y-039528D01*
G01X0057418Y-039534D01*
G01X0057425Y-039541D01*
G01X0057431Y-039549D01*
G01X0057436Y-039558D01*
G01X0057440Y-039566D01*
G01X0057443Y-039575D01*
G01X0057445Y-039585D01*
G01X0057447Y-039594D01*
G01X0057447Y-039604D01*
G01X0057447Y-040096D01*
G01X0057447Y-040106D01*
G01X0057445Y-040115D01*
G01X0057443Y-040125D01*
G01X0057440Y-040134D01*
G01X0057436Y-040142D01*
G01X0057431Y-040151D01*
G01X0057425Y-040159D01*
G01X0057418Y-040166D01*
G01X0057411Y-040172D01*
G01X0057404Y-040178D01*
G01X0057395Y-040183D01*
G01X0057386Y-040187D01*
G01X0057377Y-040190D01*
G01X0057368Y-040193D01*
G01X0057358Y-040194D01*
G01X0057349Y-040194D01*
G01X0057054Y-040194D01*
G01X0057044Y-040194D01*
G01X0057034Y-040193D01*
G01X0057025Y-040190D01*
G01X0057016Y-040187D01*
G01X0057007Y-040183D01*
G01X0056999Y-040178D01*
G01X0056991Y-040172D01*
G01X0056984Y-040166D01*
G01X0056977Y-040159D01*
G01X0056972Y-040151D01*
G01X0056967Y-040142D01*
G01X0056963Y-040134D01*
G01X0056959Y-040125D01*
G01X0056957Y-040115D01*
G01X0056956Y-040106D01*
G01X0056955Y-040096D01*
G01X0056955Y-039604D01*
G01X0056956Y-039594D01*
G01X0056957Y-039585D01*
G01X0056959Y-039575D01*
G01X0056963Y-039566D01*
G01X0056967Y-039558D01*
G01X0056972Y-039549D01*
G01X0056977Y-039541D01*
G01X0056984Y-039534D01*
G01X0056991Y-039528D01*
G01X0056999Y-039522D01*
G01X0057007Y-039517D01*
G01X0057016Y-039513D01*
G01X0057025Y-039510D01*
G01X0057034Y-039507D01*
G01X0057044Y-039506D01*
G01X0057054Y-039506D01*
G01X0057349Y-039506D01*
G01X0057358Y-039506D01*
G01X0057358Y-039506D01*
G37*
G54D11*
G01X0057201Y-039850D03*
G54D10*
G36*
G01X0054658Y-043006D02*
G01X0054668Y-043007D01*
G01X0054677Y-043010D01*
G01X0054686Y-043013D01*
G01X0054695Y-043017D01*
G01X0054704Y-043022D01*
G01X0054711Y-043028D01*
G01X0054718Y-043034D01*
G01X0054725Y-043041D01*
G01X0054731Y-043049D01*
G01X0054736Y-043058D01*
G01X0054740Y-043066D01*
G01X0054743Y-043075D01*
G01X0054745Y-043085D01*
G01X0054747Y-043094D01*
G01X0054747Y-043104D01*
G01X0054747Y-043596D01*
G01X0054747Y-043606D01*
G01X0054745Y-043615D01*
G01X0054743Y-043625D01*
G01X0054740Y-043634D01*
G01X0054736Y-043642D01*
G01X0054731Y-043651D01*
G01X0054725Y-043659D01*
G01X0054718Y-043666D01*
G01X0054711Y-043672D01*
G01X0054704Y-043678D01*
G01X0054695Y-043683D01*
G01X0054686Y-043687D01*
G01X0054677Y-043690D01*
G01X0054668Y-043693D01*
G01X0054658Y-043694D01*
G01X0054649Y-043694D01*
G01X0054354Y-043694D01*
G01X0054344Y-043694D01*
G01X0054334Y-043693D01*
G01X0054325Y-043690D01*
G01X0054316Y-043687D01*
G01X0054307Y-043683D01*
G01X0054299Y-043678D01*
G01X0054291Y-043672D01*
G01X0054284Y-043666D01*
G01X0054277Y-043659D01*
G01X0054272Y-043651D01*
G01X0054267Y-043642D01*
G01X0054263Y-043634D01*
G01X0054259Y-043625D01*
G01X0054257Y-043615D01*
G01X0054256Y-043606D01*
G01X0054255Y-043596D01*
G01X0054255Y-043104D01*
G01X0054256Y-043094D01*
G01X0054257Y-043085D01*
G01X0054259Y-043075D01*
G01X0054263Y-043066D01*
G01X0054267Y-043058D01*
G01X0054272Y-043049D01*
G01X0054277Y-043041D01*
G01X0054284Y-043034D01*
G01X0054291Y-043028D01*
G01X0054299Y-043022D01*
G01X0054307Y-043017D01*
G01X0054316Y-043013D01*
G01X0054325Y-043010D01*
G01X0054334Y-043007D01*
G01X0054344Y-043006D01*
G01X0054354Y-043006D01*
G01X0054649Y-043006D01*
G01X0054658Y-043006D01*
G01X0054658Y-043006D01*
G37*
G54D11*
G01X0054501Y-043350D03*
G54D10*
G36*
G01X0053556Y-043006D02*
G01X0053566Y-043007D01*
G01X0053575Y-043010D01*
G01X0053584Y-043013D01*
G01X0053593Y-043017D01*
G01X0053601Y-043022D01*
G01X0053609Y-043028D01*
G01X0053616Y-043034D01*
G01X0053623Y-043041D01*
G01X0053628Y-043049D01*
G01X0053633Y-043058D01*
G01X0053637Y-043066D01*
G01X0053641Y-043075D01*
G01X0053643Y-043085D01*
G01X0053644Y-043094D01*
G01X0053645Y-043104D01*
G01X0053645Y-043596D01*
G01X0053644Y-043606D01*
G01X0053643Y-043615D01*
G01X0053641Y-043625D01*
G01X0053637Y-043634D01*
G01X0053633Y-043642D01*
G01X0053628Y-043651D01*
G01X0053623Y-043659D01*
G01X0053616Y-043666D01*
G01X0053609Y-043672D01*
G01X0053601Y-043678D01*
G01X0053593Y-043683D01*
G01X0053584Y-043687D01*
G01X0053575Y-043690D01*
G01X0053566Y-043693D01*
G01X0053556Y-043694D01*
G01X0053546Y-043694D01*
G01X0053251Y-043694D01*
G01X0053242Y-043694D01*
G01X0053232Y-043693D01*
G01X0053223Y-043690D01*
G01X0053214Y-043687D01*
G01X0053205Y-043683D01*
G01X0053196Y-043678D01*
G01X0053189Y-043672D01*
G01X0053182Y-043666D01*
G01X0053175Y-043659D01*
G01X0053169Y-043651D01*
G01X0053164Y-043642D01*
G01X0053160Y-043634D01*
G01X0053157Y-043625D01*
G01X0053155Y-043615D01*
G01X0053153Y-043606D01*
G01X0053153Y-043596D01*
G01X0053153Y-043104D01*
G01X0053153Y-043094D01*
G01X0053155Y-043085D01*
G01X0053157Y-043075D01*
G01X0053160Y-043066D01*
G01X0053164Y-043058D01*
G01X0053169Y-043049D01*
G01X0053175Y-043041D01*
G01X0053182Y-043034D01*
G01X0053189Y-043028D01*
G01X0053196Y-043022D01*
G01X0053205Y-043017D01*
G01X0053214Y-043013D01*
G01X0053223Y-043010D01*
G01X0053232Y-043007D01*
G01X0053242Y-043006D01*
G01X0053251Y-043006D01*
G01X0053546Y-043006D01*
G01X0053556Y-043006D01*
G01X0053556Y-043006D01*
G37*
G54D11*
G01X0053399Y-043350D03*
G54D10*
G36*
G01X0061056Y-042006D02*
G01X0061066Y-042007D01*
G01X0061075Y-042010D01*
G01X0061084Y-042013D01*
G01X0061093Y-042017D01*
G01X0061101Y-042022D01*
G01X0061109Y-042028D01*
G01X0061116Y-042034D01*
G01X0061123Y-042041D01*
G01X0061128Y-042049D01*
G01X0061133Y-042058D01*
G01X0061137Y-042066D01*
G01X0061141Y-042075D01*
G01X0061143Y-042085D01*
G01X0061144Y-042094D01*
G01X0061145Y-042104D01*
G01X0061145Y-042596D01*
G01X0061144Y-042606D01*
G01X0061143Y-042615D01*
G01X0061141Y-042625D01*
G01X0061137Y-042634D01*
G01X0061133Y-042642D01*
G01X0061128Y-042651D01*
G01X0061123Y-042659D01*
G01X0061116Y-042666D01*
G01X0061109Y-042672D01*
G01X0061101Y-042678D01*
G01X0061093Y-042683D01*
G01X0061084Y-042687D01*
G01X0061075Y-042690D01*
G01X0061066Y-042693D01*
G01X0061056Y-042694D01*
G01X0061046Y-042694D01*
G01X0060751Y-042694D01*
G01X0060742Y-042694D01*
G01X0060732Y-042693D01*
G01X0060723Y-042690D01*
G01X0060714Y-042687D01*
G01X0060705Y-042683D01*
G01X0060696Y-042678D01*
G01X0060689Y-042672D01*
G01X0060682Y-042666D01*
G01X0060675Y-042659D01*
G01X0060669Y-042651D01*
G01X0060664Y-042642D01*
G01X0060660Y-042634D01*
G01X0060657Y-042625D01*
G01X0060655Y-042615D01*
G01X0060653Y-042606D01*
G01X0060653Y-042596D01*
G01X0060653Y-042104D01*
G01X0060653Y-042094D01*
G01X0060655Y-042085D01*
G01X0060657Y-042075D01*
G01X0060660Y-042066D01*
G01X0060664Y-042058D01*
G01X0060669Y-042049D01*
G01X0060675Y-042041D01*
G01X0060682Y-042034D01*
G01X0060689Y-042028D01*
G01X0060696Y-042022D01*
G01X0060705Y-042017D01*
G01X0060714Y-042013D01*
G01X0060723Y-042010D01*
G01X0060732Y-042007D01*
G01X0060742Y-042006D01*
G01X0060751Y-042006D01*
G01X0061046Y-042006D01*
G01X0061056Y-042006D01*
G01X0061056Y-042006D01*
G37*
G54D11*
G01X0060899Y-042350D03*
G54D10*
G36*
G01X0062158Y-042006D02*
G01X0062168Y-042007D01*
G01X0062177Y-042010D01*
G01X0062186Y-042013D01*
G01X0062195Y-042017D01*
G01X0062204Y-042022D01*
G01X0062211Y-042028D01*
G01X0062218Y-042034D01*
G01X0062225Y-042041D01*
G01X0062231Y-042049D01*
G01X0062236Y-042058D01*
G01X0062240Y-042066D01*
G01X0062243Y-042075D01*
G01X0062245Y-042085D01*
G01X0062247Y-042094D01*
G01X0062247Y-042104D01*
G01X0062247Y-042596D01*
G01X0062247Y-042606D01*
G01X0062245Y-042615D01*
G01X0062243Y-042625D01*
G01X0062240Y-042634D01*
G01X0062236Y-042642D01*
G01X0062231Y-042651D01*
G01X0062225Y-042659D01*
G01X0062218Y-042666D01*
G01X0062211Y-042672D01*
G01X0062204Y-042678D01*
G01X0062195Y-042683D01*
G01X0062186Y-042687D01*
G01X0062177Y-042690D01*
G01X0062168Y-042693D01*
G01X0062158Y-042694D01*
G01X0062149Y-042694D01*
G01X0061854Y-042694D01*
G01X0061844Y-042694D01*
G01X0061834Y-042693D01*
G01X0061825Y-042690D01*
G01X0061816Y-042687D01*
G01X0061807Y-042683D01*
G01X0061799Y-042678D01*
G01X0061791Y-042672D01*
G01X0061784Y-042666D01*
G01X0061777Y-042659D01*
G01X0061772Y-042651D01*
G01X0061767Y-042642D01*
G01X0061763Y-042634D01*
G01X0061759Y-042625D01*
G01X0061757Y-042615D01*
G01X0061756Y-042606D01*
G01X0061755Y-042596D01*
G01X0061755Y-042104D01*
G01X0061756Y-042094D01*
G01X0061757Y-042085D01*
G01X0061759Y-042075D01*
G01X0061763Y-042066D01*
G01X0061767Y-042058D01*
G01X0061772Y-042049D01*
G01X0061777Y-042041D01*
G01X0061784Y-042034D01*
G01X0061791Y-042028D01*
G01X0061799Y-042022D01*
G01X0061807Y-042017D01*
G01X0061816Y-042013D01*
G01X0061825Y-042010D01*
G01X0061834Y-042007D01*
G01X0061844Y-042006D01*
G01X0061854Y-042006D01*
G01X0062149Y-042006D01*
G01X0062158Y-042006D01*
G01X0062158Y-042006D01*
G37*
G54D11*
G01X0062001Y-042350D03*
G54D10*
G36*
G01X0059006Y-053953D02*
G01X0059015Y-053955D01*
G01X0059025Y-053957D01*
G01X0059034Y-053960D01*
G01X0059042Y-053964D01*
G01X0059051Y-053969D01*
G01X0059059Y-053975D01*
G01X0059066Y-053982D01*
G01X0059072Y-053989D01*
G01X0059078Y-053996D01*
G01X0059083Y-054005D01*
G01X0059087Y-054014D01*
G01X0059090Y-054023D01*
G01X0059093Y-054032D01*
G01X0059094Y-054042D01*
G01X0059094Y-054051D01*
G01X0059094Y-054346D01*
G01X0059094Y-054356D01*
G01X0059093Y-054366D01*
G01X0059090Y-054375D01*
G01X0059087Y-054384D01*
G01X0059083Y-054393D01*
G01X0059078Y-054401D01*
G01X0059072Y-054409D01*
G01X0059066Y-054416D01*
G01X0059059Y-054423D01*
G01X0059051Y-054428D01*
G01X0059042Y-054433D01*
G01X0059034Y-054437D01*
G01X0059025Y-054441D01*
G01X0059015Y-054443D01*
G01X0059006Y-054444D01*
G01X0058996Y-054445D01*
G01X0058504Y-054445D01*
G01X0058494Y-054444D01*
G01X0058485Y-054443D01*
G01X0058475Y-054441D01*
G01X0058466Y-054437D01*
G01X0058458Y-054433D01*
G01X0058449Y-054428D01*
G01X0058441Y-054423D01*
G01X0058434Y-054416D01*
G01X0058428Y-054409D01*
G01X0058422Y-054401D01*
G01X0058417Y-054393D01*
G01X0058413Y-054384D01*
G01X0058410Y-054375D01*
G01X0058407Y-054366D01*
G01X0058406Y-054356D01*
G01X0058406Y-054346D01*
G01X0058406Y-054051D01*
G01X0058406Y-054042D01*
G01X0058407Y-054032D01*
G01X0058410Y-054023D01*
G01X0058413Y-054014D01*
G01X0058417Y-054005D01*
G01X0058422Y-053996D01*
G01X0058428Y-053989D01*
G01X0058434Y-053982D01*
G01X0058441Y-053975D01*
G01X0058449Y-053969D01*
G01X0058458Y-053964D01*
G01X0058466Y-053960D01*
G01X0058475Y-053957D01*
G01X0058485Y-053955D01*
G01X0058494Y-053953D01*
G01X0058504Y-053953D01*
G01X0058996Y-053953D01*
G01X0059006Y-053953D01*
G01X0059006Y-053953D01*
G37*
G54D11*
G01X0058750Y-054199D03*
G54D10*
G36*
G01X0059006Y-055056D02*
G01X0059015Y-055057D01*
G01X0059025Y-055059D01*
G01X0059034Y-055063D01*
G01X0059042Y-055067D01*
G01X0059051Y-055072D01*
G01X0059059Y-055077D01*
G01X0059066Y-055084D01*
G01X0059072Y-055091D01*
G01X0059078Y-055099D01*
G01X0059083Y-055107D01*
G01X0059087Y-055116D01*
G01X0059090Y-055125D01*
G01X0059093Y-055134D01*
G01X0059094Y-055144D01*
G01X0059094Y-055154D01*
G01X0059094Y-055449D01*
G01X0059094Y-055458D01*
G01X0059093Y-055468D01*
G01X0059090Y-055477D01*
G01X0059087Y-055486D01*
G01X0059083Y-055495D01*
G01X0059078Y-055504D01*
G01X0059072Y-055511D01*
G01X0059066Y-055518D01*
G01X0059059Y-055525D01*
G01X0059051Y-055531D01*
G01X0059042Y-055536D01*
G01X0059034Y-055540D01*
G01X0059025Y-055543D01*
G01X0059015Y-055545D01*
G01X0059006Y-055547D01*
G01X0058996Y-055547D01*
G01X0058504Y-055547D01*
G01X0058494Y-055547D01*
G01X0058485Y-055545D01*
G01X0058475Y-055543D01*
G01X0058466Y-055540D01*
G01X0058458Y-055536D01*
G01X0058449Y-055531D01*
G01X0058441Y-055525D01*
G01X0058434Y-055518D01*
G01X0058428Y-055511D01*
G01X0058422Y-055504D01*
G01X0058417Y-055495D01*
G01X0058413Y-055486D01*
G01X0058410Y-055477D01*
G01X0058407Y-055468D01*
G01X0058406Y-055458D01*
G01X0058406Y-055449D01*
G01X0058406Y-055154D01*
G01X0058406Y-055144D01*
G01X0058407Y-055134D01*
G01X0058410Y-055125D01*
G01X0058413Y-055116D01*
G01X0058417Y-055107D01*
G01X0058422Y-055099D01*
G01X0058428Y-055091D01*
G01X0058434Y-055084D01*
G01X0058441Y-055077D01*
G01X0058449Y-055072D01*
G01X0058458Y-055067D01*
G01X0058466Y-055063D01*
G01X0058475Y-055059D01*
G01X0058485Y-055057D01*
G01X0058494Y-055056D01*
G01X0058504Y-055055D01*
G01X0058996Y-055055D01*
G01X0059006Y-055056D01*
G01X0059006Y-055056D01*
G37*
G54D11*
G01X0058750Y-055301D03*
G54D10*
G36*
G01X0060006Y-055056D02*
G01X0060015Y-055057D01*
G01X0060025Y-055059D01*
G01X0060034Y-055063D01*
G01X0060042Y-055067D01*
G01X0060051Y-055072D01*
G01X0060059Y-055077D01*
G01X0060066Y-055084D01*
G01X0060072Y-055091D01*
G01X0060078Y-055099D01*
G01X0060083Y-055107D01*
G01X0060087Y-055116D01*
G01X0060090Y-055125D01*
G01X0060093Y-055134D01*
G01X0060094Y-055144D01*
G01X0060094Y-055154D01*
G01X0060094Y-055449D01*
G01X0060094Y-055458D01*
G01X0060093Y-055468D01*
G01X0060090Y-055477D01*
G01X0060087Y-055486D01*
G01X0060083Y-055495D01*
G01X0060078Y-055504D01*
G01X0060072Y-055511D01*
G01X0060066Y-055518D01*
G01X0060059Y-055525D01*
G01X0060051Y-055531D01*
G01X0060042Y-055536D01*
G01X0060034Y-055540D01*
G01X0060025Y-055543D01*
G01X0060015Y-055545D01*
G01X0060006Y-055547D01*
G01X0059996Y-055547D01*
G01X0059504Y-055547D01*
G01X0059494Y-055547D01*
G01X0059485Y-055545D01*
G01X0059475Y-055543D01*
G01X0059466Y-055540D01*
G01X0059458Y-055536D01*
G01X0059449Y-055531D01*
G01X0059441Y-055525D01*
G01X0059434Y-055518D01*
G01X0059428Y-055511D01*
G01X0059422Y-055504D01*
G01X0059417Y-055495D01*
G01X0059413Y-055486D01*
G01X0059410Y-055477D01*
G01X0059407Y-055468D01*
G01X0059406Y-055458D01*
G01X0059406Y-055449D01*
G01X0059406Y-055154D01*
G01X0059406Y-055144D01*
G01X0059407Y-055134D01*
G01X0059410Y-055125D01*
G01X0059413Y-055116D01*
G01X0059417Y-055107D01*
G01X0059422Y-055099D01*
G01X0059428Y-055091D01*
G01X0059434Y-055084D01*
G01X0059441Y-055077D01*
G01X0059449Y-055072D01*
G01X0059458Y-055067D01*
G01X0059466Y-055063D01*
G01X0059475Y-055059D01*
G01X0059485Y-055057D01*
G01X0059494Y-055056D01*
G01X0059504Y-055055D01*
G01X0059996Y-055055D01*
G01X0060006Y-055056D01*
G01X0060006Y-055056D01*
G37*
G54D11*
G01X0059750Y-055301D03*
G54D10*
G36*
G01X0060006Y-053953D02*
G01X0060015Y-053955D01*
G01X0060025Y-053957D01*
G01X0060034Y-053960D01*
G01X0060042Y-053964D01*
G01X0060051Y-053969D01*
G01X0060059Y-053975D01*
G01X0060066Y-053982D01*
G01X0060072Y-053989D01*
G01X0060078Y-053996D01*
G01X0060083Y-054005D01*
G01X0060087Y-054014D01*
G01X0060090Y-054023D01*
G01X0060093Y-054032D01*
G01X0060094Y-054042D01*
G01X0060094Y-054051D01*
G01X0060094Y-054346D01*
G01X0060094Y-054356D01*
G01X0060093Y-054366D01*
G01X0060090Y-054375D01*
G01X0060087Y-054384D01*
G01X0060083Y-054393D01*
G01X0060078Y-054401D01*
G01X0060072Y-054409D01*
G01X0060066Y-054416D01*
G01X0060059Y-054423D01*
G01X0060051Y-054428D01*
G01X0060042Y-054433D01*
G01X0060034Y-054437D01*
G01X0060025Y-054441D01*
G01X0060015Y-054443D01*
G01X0060006Y-054444D01*
G01X0059996Y-054445D01*
G01X0059504Y-054445D01*
G01X0059494Y-054444D01*
G01X0059485Y-054443D01*
G01X0059475Y-054441D01*
G01X0059466Y-054437D01*
G01X0059458Y-054433D01*
G01X0059449Y-054428D01*
G01X0059441Y-054423D01*
G01X0059434Y-054416D01*
G01X0059428Y-054409D01*
G01X0059422Y-054401D01*
G01X0059417Y-054393D01*
G01X0059413Y-054384D01*
G01X0059410Y-054375D01*
G01X0059407Y-054366D01*
G01X0059406Y-054356D01*
G01X0059406Y-054346D01*
G01X0059406Y-054051D01*
G01X0059406Y-054042D01*
G01X0059407Y-054032D01*
G01X0059410Y-054023D01*
G01X0059413Y-054014D01*
G01X0059417Y-054005D01*
G01X0059422Y-053996D01*
G01X0059428Y-053989D01*
G01X0059434Y-053982D01*
G01X0059441Y-053975D01*
G01X0059449Y-053969D01*
G01X0059458Y-053964D01*
G01X0059466Y-053960D01*
G01X0059475Y-053957D01*
G01X0059485Y-053955D01*
G01X0059494Y-053953D01*
G01X0059504Y-053953D01*
G01X0059996Y-053953D01*
G01X0060006Y-053953D01*
G01X0060006Y-053953D01*
G37*
G54D11*
G01X0059750Y-054199D03*
G54D10*
G36*
G01X0057708Y-048706D02*
G01X0057718Y-048707D01*
G01X0057727Y-048710D01*
G01X0057736Y-048713D01*
G01X0057745Y-048717D01*
G01X0057754Y-048722D01*
G01X0057761Y-048728D01*
G01X0057768Y-048734D01*
G01X0057775Y-048741D01*
G01X0057781Y-048749D01*
G01X0057786Y-048758D01*
G01X0057790Y-048766D01*
G01X0057793Y-048775D01*
G01X0057795Y-048785D01*
G01X0057797Y-048794D01*
G01X0057797Y-048804D01*
G01X0057797Y-049296D01*
G01X0057797Y-049306D01*
G01X0057795Y-049315D01*
G01X0057793Y-049325D01*
G01X0057790Y-049334D01*
G01X0057786Y-049342D01*
G01X0057781Y-049351D01*
G01X0057775Y-049359D01*
G01X0057768Y-049366D01*
G01X0057761Y-049372D01*
G01X0057754Y-049378D01*
G01X0057745Y-049383D01*
G01X0057736Y-049387D01*
G01X0057727Y-049390D01*
G01X0057718Y-049393D01*
G01X0057708Y-049394D01*
G01X0057699Y-049394D01*
G01X0057404Y-049394D01*
G01X0057394Y-049394D01*
G01X0057384Y-049393D01*
G01X0057375Y-049390D01*
G01X0057366Y-049387D01*
G01X0057357Y-049383D01*
G01X0057349Y-049378D01*
G01X0057341Y-049372D01*
G01X0057334Y-049366D01*
G01X0057327Y-049359D01*
G01X0057322Y-049351D01*
G01X0057317Y-049342D01*
G01X0057313Y-049334D01*
G01X0057309Y-049325D01*
G01X0057307Y-049315D01*
G01X0057306Y-049306D01*
G01X0057305Y-049296D01*
G01X0057305Y-048804D01*
G01X0057306Y-048794D01*
G01X0057307Y-048785D01*
G01X0057309Y-048775D01*
G01X0057313Y-048766D01*
G01X0057317Y-048758D01*
G01X0057322Y-048749D01*
G01X0057327Y-048741D01*
G01X0057334Y-048734D01*
G01X0057341Y-048728D01*
G01X0057349Y-048722D01*
G01X0057357Y-048717D01*
G01X0057366Y-048713D01*
G01X0057375Y-048710D01*
G01X0057384Y-048707D01*
G01X0057394Y-048706D01*
G01X0057404Y-048706D01*
G01X0057699Y-048706D01*
G01X0057708Y-048706D01*
G01X0057708Y-048706D01*
G37*
G54D11*
G01X0057551Y-049050D03*
G54D10*
G36*
G01X0056606Y-048706D02*
G01X0056616Y-048707D01*
G01X0056625Y-048710D01*
G01X0056634Y-048713D01*
G01X0056643Y-048717D01*
G01X0056651Y-048722D01*
G01X0056659Y-048728D01*
G01X0056666Y-048734D01*
G01X0056673Y-048741D01*
G01X0056678Y-048749D01*
G01X0056683Y-048758D01*
G01X0056687Y-048766D01*
G01X0056691Y-048775D01*
G01X0056693Y-048785D01*
G01X0056694Y-048794D01*
G01X0056695Y-048804D01*
G01X0056695Y-049296D01*
G01X0056694Y-049306D01*
G01X0056693Y-049315D01*
G01X0056691Y-049325D01*
G01X0056687Y-049334D01*
G01X0056683Y-049342D01*
G01X0056678Y-049351D01*
G01X0056673Y-049359D01*
G01X0056666Y-049366D01*
G01X0056659Y-049372D01*
G01X0056651Y-049378D01*
G01X0056643Y-049383D01*
G01X0056634Y-049387D01*
G01X0056625Y-049390D01*
G01X0056616Y-049393D01*
G01X0056606Y-049394D01*
G01X0056596Y-049394D01*
G01X0056301Y-049394D01*
G01X0056292Y-049394D01*
G01X0056282Y-049393D01*
G01X0056273Y-049390D01*
G01X0056264Y-049387D01*
G01X0056255Y-049383D01*
G01X0056246Y-049378D01*
G01X0056239Y-049372D01*
G01X0056232Y-049366D01*
G01X0056225Y-049359D01*
G01X0056219Y-049351D01*
G01X0056214Y-049342D01*
G01X0056210Y-049334D01*
G01X0056207Y-049325D01*
G01X0056205Y-049315D01*
G01X0056203Y-049306D01*
G01X0056203Y-049296D01*
G01X0056203Y-048804D01*
G01X0056203Y-048794D01*
G01X0056205Y-048785D01*
G01X0056207Y-048775D01*
G01X0056210Y-048766D01*
G01X0056214Y-048758D01*
G01X0056219Y-048749D01*
G01X0056225Y-048741D01*
G01X0056232Y-048734D01*
G01X0056239Y-048728D01*
G01X0056246Y-048722D01*
G01X0056255Y-048717D01*
G01X0056264Y-048713D01*
G01X0056273Y-048710D01*
G01X0056282Y-048707D01*
G01X0056292Y-048706D01*
G01X0056301Y-048706D01*
G01X0056596Y-048706D01*
G01X0056606Y-048706D01*
G01X0056606Y-048706D01*
G37*
G54D11*
G01X0056449Y-049050D03*
G54D10*
G36*
G01X0065006Y-052006D02*
G01X0065015Y-052007D01*
G01X0065025Y-052009D01*
G01X0065034Y-052013D01*
G01X0065042Y-052017D01*
G01X0065051Y-052022D01*
G01X0065059Y-052027D01*
G01X0065066Y-052034D01*
G01X0065072Y-052041D01*
G01X0065078Y-052049D01*
G01X0065083Y-052057D01*
G01X0065087Y-052066D01*
G01X0065090Y-052075D01*
G01X0065093Y-052084D01*
G01X0065094Y-052094D01*
G01X0065094Y-052104D01*
G01X0065094Y-052399D01*
G01X0065094Y-052408D01*
G01X0065093Y-052418D01*
G01X0065090Y-052427D01*
G01X0065087Y-052436D01*
G01X0065083Y-052445D01*
G01X0065078Y-052454D01*
G01X0065072Y-052461D01*
G01X0065066Y-052468D01*
G01X0065059Y-052475D01*
G01X0065051Y-052481D01*
G01X0065042Y-052486D01*
G01X0065034Y-052490D01*
G01X0065025Y-052493D01*
G01X0065015Y-052495D01*
G01X0065006Y-052497D01*
G01X0064996Y-052497D01*
G01X0064504Y-052497D01*
G01X0064494Y-052497D01*
G01X0064485Y-052495D01*
G01X0064475Y-052493D01*
G01X0064466Y-052490D01*
G01X0064458Y-052486D01*
G01X0064449Y-052481D01*
G01X0064441Y-052475D01*
G01X0064434Y-052468D01*
G01X0064428Y-052461D01*
G01X0064422Y-052454D01*
G01X0064417Y-052445D01*
G01X0064413Y-052436D01*
G01X0064410Y-052427D01*
G01X0064407Y-052418D01*
G01X0064406Y-052408D01*
G01X0064406Y-052399D01*
G01X0064406Y-052104D01*
G01X0064406Y-052094D01*
G01X0064407Y-052084D01*
G01X0064410Y-052075D01*
G01X0064413Y-052066D01*
G01X0064417Y-052057D01*
G01X0064422Y-052049D01*
G01X0064428Y-052041D01*
G01X0064434Y-052034D01*
G01X0064441Y-052027D01*
G01X0064449Y-052022D01*
G01X0064458Y-052017D01*
G01X0064466Y-052013D01*
G01X0064475Y-052009D01*
G01X0064485Y-052007D01*
G01X0064494Y-052006D01*
G01X0064504Y-052005D01*
G01X0064996Y-052005D01*
G01X0065006Y-052006D01*
G01X0065006Y-052006D01*
G37*
G54D11*
G01X0064750Y-052251D03*
G54D10*
G36*
G01X0065006Y-050903D02*
G01X0065015Y-050905D01*
G01X0065025Y-050907D01*
G01X0065034Y-050910D01*
G01X0065042Y-050914D01*
G01X0065051Y-050919D01*
G01X0065059Y-050925D01*
G01X0065066Y-050932D01*
G01X0065072Y-050939D01*
G01X0065078Y-050946D01*
G01X0065083Y-050955D01*
G01X0065087Y-050964D01*
G01X0065090Y-050973D01*
G01X0065093Y-050982D01*
G01X0065094Y-050992D01*
G01X0065094Y-051001D01*
G01X0065094Y-051296D01*
G01X0065094Y-051306D01*
G01X0065093Y-051316D01*
G01X0065090Y-051325D01*
G01X0065087Y-051334D01*
G01X0065083Y-051343D01*
G01X0065078Y-051351D01*
G01X0065072Y-051359D01*
G01X0065066Y-051366D01*
G01X0065059Y-051373D01*
G01X0065051Y-051378D01*
G01X0065042Y-051383D01*
G01X0065034Y-051387D01*
G01X0065025Y-051391D01*
G01X0065015Y-051393D01*
G01X0065006Y-051394D01*
G01X0064996Y-051395D01*
G01X0064504Y-051395D01*
G01X0064494Y-051394D01*
G01X0064485Y-051393D01*
G01X0064475Y-051391D01*
G01X0064466Y-051387D01*
G01X0064458Y-051383D01*
G01X0064449Y-051378D01*
G01X0064441Y-051373D01*
G01X0064434Y-051366D01*
G01X0064428Y-051359D01*
G01X0064422Y-051351D01*
G01X0064417Y-051343D01*
G01X0064413Y-051334D01*
G01X0064410Y-051325D01*
G01X0064407Y-051316D01*
G01X0064406Y-051306D01*
G01X0064406Y-051296D01*
G01X0064406Y-051001D01*
G01X0064406Y-050992D01*
G01X0064407Y-050982D01*
G01X0064410Y-050973D01*
G01X0064413Y-050964D01*
G01X0064417Y-050955D01*
G01X0064422Y-050946D01*
G01X0064428Y-050939D01*
G01X0064434Y-050932D01*
G01X0064441Y-050925D01*
G01X0064449Y-050919D01*
G01X0064458Y-050914D01*
G01X0064466Y-050910D01*
G01X0064475Y-050907D01*
G01X0064485Y-050905D01*
G01X0064494Y-050903D01*
G01X0064504Y-050903D01*
G01X0064996Y-050903D01*
G01X0065006Y-050903D01*
G01X0065006Y-050903D01*
G37*
G54D11*
G01X0064750Y-051149D03*
G54D10*
G36*
G01X0067706Y-054806D02*
G01X0067715Y-054807D01*
G01X0067725Y-054809D01*
G01X0067734Y-054813D01*
G01X0067742Y-054817D01*
G01X0067751Y-054822D01*
G01X0067759Y-054827D01*
G01X0067766Y-054834D01*
G01X0067772Y-054841D01*
G01X0067778Y-054849D01*
G01X0067783Y-054857D01*
G01X0067787Y-054866D01*
G01X0067790Y-054875D01*
G01X0067793Y-054884D01*
G01X0067794Y-054894D01*
G01X0067794Y-054904D01*
G01X0067794Y-055199D01*
G01X0067794Y-055208D01*
G01X0067793Y-055218D01*
G01X0067790Y-055227D01*
G01X0067787Y-055236D01*
G01X0067783Y-055245D01*
G01X0067778Y-055254D01*
G01X0067772Y-055261D01*
G01X0067766Y-055268D01*
G01X0067759Y-055275D01*
G01X0067751Y-055281D01*
G01X0067742Y-055286D01*
G01X0067734Y-055290D01*
G01X0067725Y-055293D01*
G01X0067715Y-055295D01*
G01X0067706Y-055297D01*
G01X0067696Y-055297D01*
G01X0067204Y-055297D01*
G01X0067194Y-055297D01*
G01X0067185Y-055295D01*
G01X0067175Y-055293D01*
G01X0067166Y-055290D01*
G01X0067158Y-055286D01*
G01X0067149Y-055281D01*
G01X0067141Y-055275D01*
G01X0067134Y-055268D01*
G01X0067128Y-055261D01*
G01X0067122Y-055254D01*
G01X0067117Y-055245D01*
G01X0067113Y-055236D01*
G01X0067110Y-055227D01*
G01X0067107Y-055218D01*
G01X0067106Y-055208D01*
G01X0067106Y-055199D01*
G01X0067106Y-054904D01*
G01X0067106Y-054894D01*
G01X0067107Y-054884D01*
G01X0067110Y-054875D01*
G01X0067113Y-054866D01*
G01X0067117Y-054857D01*
G01X0067122Y-054849D01*
G01X0067128Y-054841D01*
G01X0067134Y-054834D01*
G01X0067141Y-054827D01*
G01X0067149Y-054822D01*
G01X0067158Y-054817D01*
G01X0067166Y-054813D01*
G01X0067175Y-054809D01*
G01X0067185Y-054807D01*
G01X0067194Y-054806D01*
G01X0067204Y-054805D01*
G01X0067696Y-054805D01*
G01X0067706Y-054806D01*
G01X0067706Y-054806D01*
G37*
G54D11*
G01X0067450Y-055051D03*
G54D10*
G36*
G01X0067706Y-053703D02*
G01X0067715Y-053705D01*
G01X0067725Y-053707D01*
G01X0067734Y-053710D01*
G01X0067742Y-053714D01*
G01X0067751Y-053719D01*
G01X0067759Y-053725D01*
G01X0067766Y-053732D01*
G01X0067772Y-053739D01*
G01X0067778Y-053746D01*
G01X0067783Y-053755D01*
G01X0067787Y-053764D01*
G01X0067790Y-053773D01*
G01X0067793Y-053782D01*
G01X0067794Y-053792D01*
G01X0067794Y-053801D01*
G01X0067794Y-054096D01*
G01X0067794Y-054106D01*
G01X0067793Y-054116D01*
G01X0067790Y-054125D01*
G01X0067787Y-054134D01*
G01X0067783Y-054143D01*
G01X0067778Y-054151D01*
G01X0067772Y-054159D01*
G01X0067766Y-054166D01*
G01X0067759Y-054173D01*
G01X0067751Y-054178D01*
G01X0067742Y-054183D01*
G01X0067734Y-054187D01*
G01X0067725Y-054191D01*
G01X0067715Y-054193D01*
G01X0067706Y-054194D01*
G01X0067696Y-054195D01*
G01X0067204Y-054195D01*
G01X0067194Y-054194D01*
G01X0067185Y-054193D01*
G01X0067175Y-054191D01*
G01X0067166Y-054187D01*
G01X0067158Y-054183D01*
G01X0067149Y-054178D01*
G01X0067141Y-054173D01*
G01X0067134Y-054166D01*
G01X0067128Y-054159D01*
G01X0067122Y-054151D01*
G01X0067117Y-054143D01*
G01X0067113Y-054134D01*
G01X0067110Y-054125D01*
G01X0067107Y-054116D01*
G01X0067106Y-054106D01*
G01X0067106Y-054096D01*
G01X0067106Y-053801D01*
G01X0067106Y-053792D01*
G01X0067107Y-053782D01*
G01X0067110Y-053773D01*
G01X0067113Y-053764D01*
G01X0067117Y-053755D01*
G01X0067122Y-053746D01*
G01X0067128Y-053739D01*
G01X0067134Y-053732D01*
G01X0067141Y-053725D01*
G01X0067149Y-053719D01*
G01X0067158Y-053714D01*
G01X0067166Y-053710D01*
G01X0067175Y-053707D01*
G01X0067185Y-053705D01*
G01X0067194Y-053703D01*
G01X0067204Y-053703D01*
G01X0067696Y-053703D01*
G01X0067706Y-053703D01*
G01X0067706Y-053703D01*
G37*
G54D11*
G01X0067450Y-053949D03*
G54D15*
G01X0063250Y-049049D03*
G01X0062750Y-049049D03*
G01X0062250Y-049049D03*
G01X0061750Y-049049D03*
G01X0061250Y-049049D03*
G01X0060750Y-049049D03*
G01X0060250Y-049049D03*
G01X0059750Y-049049D03*
G01X0059250Y-049049D03*
G01X0058750Y-049049D03*
G01X0058750Y-052750D03*
G01X0059250Y-052750D03*
G01X0059750Y-052750D03*
G01X0060250Y-052750D03*
G01X0060750Y-052750D03*
G01X0061250Y-052750D03*
G01X0061750Y-052750D03*
G01X0062250Y-052750D03*
G01X0062750Y-052750D03*
G01X0063250Y-052750D03*
G54D16*
G01X0065950Y-055044D03*
G01X0065576Y-054256D03*
G01X0066324Y-054256D03*
G54D14*
G01X0065606Y-051976D03*
G01X0065606Y-052724D03*
G01X0066394Y-052350D03*
M02*
