M48
; DRILL file {KiCad (5.99.0-7935-g797175e0f2)} date 01/18/21 22:07:54
; FORMAT={-:-/ absolute / inch / decimal}
; #@! TF.CreationDate,2021-01-18T22:07:54+01:00
; #@! TF.GenerationSoftware,Kicad,Pcbnew,(5.99.0-7935-g797175e0f2)
FMAT,2
INCH
T1C0.0236
T2C0.0250
T3C0.0300
T4C0.0315
T5C0.0315
T6C0.0320
T7C0.0320
T8C0.0354
T9C0.0394
T10C0.0394
T11C0.0400
T12C0.0450
T13C0.0472
T14C0.0512
T15C0.0787
T16C0.1083
T17C0.1220
T18C0.1250
T19C0.1260
T20C0.2559
T21C0.1260
%
G90
G05
T1
X8.395Y0.345
X9.035Y0.17
X9.255Y1.485
X9.33Y0.865
X9.505Y0.585
X9.91Y0.725
T2
X0.7Y3.725
X0.79Y3.91
X0.82Y4.05
X0.835Y3.795
X0.85Y4.455
X0.86Y1.015
X0.86Y0.965
X0.86Y0.91
X0.88Y4.345
X0.905Y4.4
X0.925Y0.15
X0.975Y1.105
X1.0Y0.145
X1.0075Y2.0775
X1.05Y2.9
X1.05Y1.63
X1.085Y4.25
X1.085Y3.89
X1.085Y3.685
X1.09Y3.74
X1.105Y2.58
X1.13Y1.81
X1.13Y1.39
X1.1616Y1.9525
X1.21Y4.15
X1.22Y1.635
X1.225Y1.745
X1.27Y3.765
X1.28Y3.375
X1.29Y1.55
X1.295Y3.49
X1.305Y2.16
X1.3086Y2.2925
X1.315Y3.34
X1.335Y2.765
X1.35Y3.445
X1.3575Y1.9025
X1.37Y3.49
X1.375Y2.8
X1.39Y2.9
X1.405Y4.075
X1.405Y2.01
X1.4205Y3.5655
X1.43Y3.11
X1.4304Y3.0605
X1.46Y3.15
X1.475Y3.265
X1.475Y3.22
X1.495Y1.385
X1.53Y3.535
X1.545Y4.225
X1.55Y3.75
X1.555Y2.8
X1.56Y3.285
X1.57Y3.22
X1.595Y2.315
X1.595Y2.26
X1.61Y3.15
X1.61Y3.1
X1.6175Y3.0504
X1.63Y3.52
X1.655Y2.2
X1.67Y4.335
X1.695Y2.75
X1.7Y2.16
X1.7Y2.02
X1.7Y1.94
X1.7Y1.43
X1.705Y2.4525
X1.715Y1.675
X1.72Y0.28
X1.72Y0.135
X1.73Y4.255
X1.74Y2.365
X1.745Y2.95
X1.7718Y1.2868
X1.79Y0.82
X1.8117Y1.2659
X1.825Y1.41
X1.83Y4.2
X1.835Y1.335
X1.84Y3.53
X1.84Y3.23
X1.84Y3.185
X1.84Y3.1
X1.875Y0.95
X1.885Y0.805
X1.89Y3.53
X1.89Y2.85
X1.905Y1.515
X1.915Y2.265
X1.9275Y2.4825
X1.93Y2.11
X1.93Y1.975
X1.93Y1.9
X1.9325Y4.4
X1.94Y3.53
X1.94Y2.585
X1.94Y2.535
X1.955Y3.655
X1.965Y2.75
X1.97Y1.52
X1.975Y3.3375
X1.975Y3.145
X1.985Y2.475
X1.985Y2.275
X1.99Y3.04
X1.995Y2.585
X2.0Y4.455
X2.01Y3.185
X2.01Y3.115
X2.01Y2.645
X2.015Y3.655
X2.06Y1.675
X2.065Y1.99
X2.07Y3.29
X2.07Y1.37
X2.0825Y0.4775
X2.1Y0.6
X2.13Y4.15
X2.185Y3.375
X2.19Y2.205
X2.205Y3.755
X2.205Y3.7
X2.235Y3.36
X2.255Y0.135
X2.26Y2.4575
X2.26Y1.52
X2.3515Y0.7861
X2.355Y4.39
X2.36Y2.115
X2.405Y1.4
X2.405Y0.435
X2.45Y4.15
X2.475Y1.585
X2.535Y4.25
X2.54Y1.75
X2.54Y1.675
X2.54Y1.09
X2.54Y0.61
X2.69Y1.065
X2.69Y0.615
X2.775Y4.345
X2.81Y3.46
X2.825Y4.085
X2.84Y3.735
X2.88Y3.77
X2.9215Y4.349
X2.922Y4.276
X2.9846Y3.5775
X3.0Y2.51
X3.11Y0.695
X3.12Y3.455
X3.12Y3.385
X3.13Y3.5
X3.14Y0.83
X3.16Y3.905
X3.16Y3.845
X3.175Y3.695
X3.175Y2.395
X3.195Y3.39
X3.21Y3.3271
X3.22Y0.35
X3.23Y3.275
X3.23Y3.225
X3.2546Y3.3213
X3.26Y2.895
X3.26Y0.625
X3.29Y3.65
X3.3Y3.97
X3.345Y0.6475
X3.355Y0.5569
X3.44Y3.865
X3.4466Y0.6271
X3.455Y3.55
X3.455Y3.5
X3.52Y0.645
X3.565Y3.025
X3.575Y3.325
X3.575Y3.275
X3.575Y3.225
X3.61Y0.645
X3.625Y3.06
X3.66Y3.76
X3.67Y2.395
X3.67Y2.35
X3.695Y2.96
X3.79Y0.64
X3.815Y0.6
X3.835Y4.46
X3.865Y3.505
X3.8725Y0.6425
X3.915Y0.61
X3.925Y3.325
X3.925Y3.275
X3.925Y3.225
X3.9591Y0.6425
X4.01Y3.76
X4.0434Y0.6942
X4.15Y0.61
X4.16Y0.33
X4.175Y2.555
X4.19Y1.495
X4.215Y3.505
X4.22Y2.68
X4.2204Y0.6355
X4.25Y2.375
X4.2686Y2.4513
X4.275Y3.325
X4.275Y3.275
X4.275Y3.225
X4.275Y0.765
X4.315Y3.05
X4.315Y2.745
X4.34Y2.555
X4.355Y3.76
X4.3749Y2.494
X4.3751Y2.4061
X4.405Y1.455
X4.42Y2.675
X4.44Y0.96
X4.475Y1.495
X4.52Y2.365
X4.52Y2.21
X4.525Y1.495
X4.5636Y2.4486
X4.565Y2.555
X4.565Y0.85
X4.5709Y3.5041
X4.575Y1.695
X4.575Y1.455
X4.625Y3.325
X4.625Y3.275
X4.625Y3.225
X4.625Y1.695
X4.64Y0.85
X4.65Y3.0675
X4.67Y2.56
X4.675Y1.695
X4.675Y1.545
X4.685Y2.255
X4.69Y0.85
X4.705Y0.665
X4.715Y3.76
X4.7393Y2.494
X4.74Y2.39
X4.74Y0.85
X4.775Y1.73
X4.775Y1.465
X4.8Y1.3
X4.82Y0.58
X4.825Y2.61
X4.84Y0.845
X4.865Y2.255
X4.87Y1.9
X4.91Y2.79
X4.9209Y3.505
X4.935Y2.205
X4.94Y0.845
X4.97Y1.55
X4.975Y3.325
X4.975Y3.275
X4.975Y3.225
X4.9845Y2.065
X4.9979Y1.775
X5.0416Y2.4486
X5.0426Y2.6126
X5.055Y1.305
X5.065Y3.76
X5.065Y1.52
X5.1Y0.9
X5.12Y1.225
X5.125Y1.695
X5.125Y1.455
X5.1347Y2.9025
X5.175Y1.695
X5.175Y1.23
X5.195Y2.955
X5.195Y2.25
X5.195Y0.9
X5.2002Y3.0675
X5.215Y1.535
X5.27Y3.505
X5.275Y1.695
X5.275Y1.54
X5.3Y0.96
X5.325Y3.325
X5.325Y3.275
X5.325Y3.225
X5.325Y1.455
X5.36Y2.575
X5.36Y2.225
X5.3603Y2.4486
X5.375Y1.73
X5.375Y1.305
X5.3985Y2.6165
X5.3995Y2.7405
X5.415Y3.76
X5.4525Y1.5575
X5.455Y1.825
X5.49Y1.775
X5.5Y3.1725
X5.505Y2.205
X5.525Y1.485
X5.55Y0.335
X5.625Y3.405
X5.625Y1.695
X5.625Y1.455
X5.635Y2.57
X5.6388Y2.4812
X5.64Y3.555
X5.67Y3.5
X5.67Y0.2726
X5.675Y3.815
X5.675Y1.695
X5.68Y3.225
X5.685Y1.46
X5.725Y1.695
X5.76Y2.5237
X5.76Y1.51
X5.7615Y2.4215
X5.765Y2.3751
X5.765Y2.65
X5.775Y1.465
X5.8Y1.545
X5.825Y1.5
X5.845Y0.9
X5.845Y0.755
X5.875Y1.505
X5.875Y1.305
X5.88Y0.935
X5.9Y0.885
X5.905Y0.495
X5.935Y0.925
X5.96Y2.3751
X5.96Y1.88
X5.96Y1.305
X5.965Y2.24
X5.99Y3.4525
X6.01Y1.865
X6.01Y1.54
X6.015Y3.345
X6.015Y1.465
X6.025Y0.205
X6.05Y1.695
X6.05Y1.505
X6.055Y3.49
X6.065Y0.315
X6.0725Y3.16
X6.08Y2.075
X6.0925Y3.2525
X6.0956Y0.5316
X6.115Y4.3
X6.125Y0.315
X6.13Y2.03
X6.15Y2.3751
X6.15Y1.79
X6.15Y1.48
X6.165Y0.53
X6.175Y2.545
X6.185Y2.7101
X6.2Y3.955
X6.2Y1.26
X6.2348Y2.1286
X6.24Y2.045
X6.24Y1.3
X6.25Y2.63
X6.25Y2.51
X6.25Y1.79
X6.25Y1.04
X6.295Y3.955
X6.3Y1.695
X6.3Y0.53
X6.33Y2.3751
X6.3325Y3.76
X6.335Y1.875
X6.35Y2.7101
X6.35Y2.49
X6.365Y3.82
X6.365Y2.045
X6.365Y0.53
X6.38Y1.655
X6.38Y1.315
X6.39Y3.085
X6.39Y1.935
X6.415Y2.095
X6.425Y0.53
X6.435Y1.18
X6.46Y3.65
X6.48Y0.53
X6.485Y3.125
X6.495Y2.195
X6.4971Y2.62
X6.5089Y2.4726
X6.5125Y2.3753
X6.525Y3.09
X6.525Y2.7101
X6.5374Y0.2726
X6.56Y0.82
X6.5926Y1.44
X6.61Y2.145
X6.635Y2.81
X6.66Y3.7575
X6.66Y2.665
X6.675Y1.26
X6.68Y2.435
X6.695Y3.4625
X6.695Y2.39
X6.72Y1.475
X6.725Y2.175
X6.745Y3.65
X6.77Y2.4675
X6.775Y0.535
X6.9Y3.085
X6.9Y0.925
X6.905Y1.85
X6.92Y1.65
X6.92Y1.45
X6.965Y3.28
X6.965Y0.755
X6.98Y0.28
X7.0Y3.3225
X7.02Y0.145
X7.0592Y0.2425
X7.17Y0.915
X7.25Y3.34
X7.25Y1.435
X7.255Y1.2
X7.285Y1.36
X7.2875Y1.083
X7.32Y1.2
X7.33Y3.98
X7.345Y3.5516
X7.365Y0.99
X7.4Y3.4025
X7.4Y3.355
X7.425Y1.79
X7.44Y3.7
X7.53Y1.775
X7.715Y3.1125
X7.72Y2.255
X7.735Y0.305
X7.74Y0.235
X7.74Y0.175
X7.835Y2.595
X7.84Y3.72
X7.8469Y2.3081
X7.86Y1.94
X7.86Y1.47
X7.865Y2.36
X7.88Y2.275
X7.9Y3.3325
X7.915Y1.94
X7.9325Y3.2925
X7.9453Y0.9089
X7.965Y2.745
X7.965Y2.695
X7.965Y1.94
X7.985Y1.59
X7.995Y1.715
X8.025Y2.595
X8.025Y2.545
X8.0486Y2.1574
X8.0811Y2.1263
X8.0825Y3.2905
X8.1Y3.83
X8.105Y4.25
X8.105Y3.205
X8.115Y4.445
X8.1261Y2.1292
X8.155Y3.1
X8.16Y3.145
X8.165Y3.795
X8.17Y2.1
X8.185Y1.945
X8.19Y1.545
X8.2Y2.745
X8.23Y2.6
X8.2475Y2.055
X8.2488Y3.2266
X8.25Y2.245
X8.275Y3.19
X8.28Y1.4
X8.28Y1.32
X8.285Y3.2591
X8.29Y1.99
X8.29Y1.55
X8.29Y1.495
X8.32Y2.55
X8.325Y3.795
X8.33Y2.22
X8.365Y1.055
X8.385Y3.15
X8.385Y1.95
X8.385Y1.6
T3
X2.0091Y1.1484
X2.1903Y1.0639
X2.425Y0.36
X2.425Y0.16
X3.33Y0.36
X3.33Y0.16
X4.31Y1.705
X4.31Y1.505
X4.58Y0.255
X4.78Y0.255
X5.51Y0.855
X5.51Y0.755
X5.51Y0.185
X5.61Y0.855
X5.61Y0.755
X5.61Y0.185
X5.71Y0.855
X5.71Y0.755
X5.71Y0.185
X6.705Y0.35
X6.705Y0.15
X7.11Y0.855
X7.11Y0.755
X7.11Y0.185
X7.41Y1.42
X7.61Y1.42
X8.46Y4.35
X8.46Y4.25
X8.46Y4.15
X8.46Y4.05
X8.46Y3.95
X8.46Y3.85
X8.46Y3.75
X8.46Y3.65
X8.46Y3.55
X8.46Y3.45
X8.46Y3.35
X8.46Y3.25
X8.46Y3.15
X8.46Y3.05
X8.46Y2.95
X8.46Y2.85
X8.46Y2.75
X8.46Y2.65
X8.46Y2.45
X8.46Y2.35
X8.46Y2.25
X8.46Y2.15
X8.46Y2.05
X8.46Y1.95
X8.46Y1.85
X8.46Y1.75
X8.46Y1.65
X8.46Y1.55
X8.46Y1.45
X8.46Y1.35
X8.46Y1.25
X8.46Y1.15
X8.46Y1.05
X8.46Y0.95
X8.46Y0.85
X8.46Y0.75
X8.56Y4.15
X8.56Y4.05
X8.56Y3.75
X8.56Y3.65
X8.56Y3.55
X8.56Y3.25
X8.56Y3.15
X8.56Y2.25
X8.56Y2.15
X8.56Y1.85
X8.56Y1.75
X8.56Y1.65
X8.56Y1.35
X8.56Y1.25
X9.38Y3.83
X9.38Y3.69
X9.38Y3.55
X9.38Y3.41
X9.38Y3.27
X9.38Y3.13
X9.38Y1.93
X9.38Y1.79
X9.38Y1.65
X9.38Y1.51
X9.38Y1.37
X9.38Y1.23
X9.48Y3.83
X9.48Y3.69
X9.48Y3.55
X9.48Y3.41
X9.48Y3.27
X9.48Y3.13
X9.48Y1.93
X9.48Y1.79
X9.48Y1.65
X9.48Y1.51
X9.48Y1.37
X9.48Y1.23
T4
X4.3Y1.325
X8.09Y0.89
X8.5711Y1.5089
X8.6638Y3.0188
X8.6638Y2.2112
X8.665Y4.325
X8.785Y3.63
X8.7889Y0.8461
X8.79Y3.1
X8.79Y1.75
X8.93Y2.05
X9.08Y3.13
T5
X2.0544Y1.1273
X2.145Y1.085
X2.425Y0.31
X2.425Y0.21
X3.33Y0.31
X3.33Y0.21
X4.2016Y1.325
X4.31Y1.655
X4.31Y1.555
X4.63Y0.255
X4.73Y0.255
X6.705Y0.3
X6.705Y0.2
X7.46Y1.42
X7.56Y1.42
T6
X4.04Y1.1
X4.4Y3.0
X4.5Y3.0
T7
X4.14Y1.1
X4.24Y1.1
X4.34Y1.1
X4.44Y1.1
X4.54Y1.1
X4.6Y3.0
X4.64Y1.1
X4.7Y3.0
X4.74Y1.1
X4.8Y3.0
X4.84Y1.1
X4.9Y3.0
X4.94Y1.1
X5.0Y3.0
X5.1Y3.0
X5.1Y1.1
X5.2Y1.1
X5.3Y3.0
X5.3Y1.1
X5.4Y3.0
X5.4Y1.1
X5.5Y3.0
X5.5Y1.1
X5.6Y3.0
X5.6Y1.1
X5.7Y3.0
X5.7Y1.1
X5.8Y3.0
X5.8Y1.1
X5.9Y3.0
X6.0Y3.0
X6.0Y1.1
X6.1Y1.1
X6.2Y3.0
X6.2Y1.1
X6.3Y3.0
X6.3Y1.1
X6.4Y3.0
X6.4Y1.1
X6.5Y3.0
X6.5Y1.1
X6.6Y3.0
X6.6Y1.1
X6.7Y3.0
X6.7Y1.1
X6.8Y3.0
X6.9Y3.0
X7.0Y2.8
X7.0Y2.7
X7.0Y2.6
X7.0Y2.5
X7.0Y2.4
X7.0Y2.3
X7.0Y2.2
X7.0Y2.1
X7.0Y2.0
X7.0Y1.9
X7.0Y1.8
X7.0Y1.7
X7.0Y1.6
X7.0Y1.5
X7.0Y1.4
X7.0Y1.3
X7.0Y1.2
X7.0Y1.1
X7.1Y2.8
X7.1Y2.7
X7.1Y2.6
X7.1Y2.5
X7.1Y2.4
X7.1Y2.3
X7.1Y2.2
X7.1Y2.1
X7.1Y2.0
X7.1Y1.9
X7.1Y1.8
X7.1Y1.7
X7.1Y1.6
X7.1Y1.5
X7.1Y1.4
X7.1Y1.3
X7.1Y1.2
X7.1Y1.1
T8
X2.7Y3.65
X2.7Y3.5516
X2.7Y3.4531
X8.7897Y3.345
X8.7897Y2.015
X9.085Y3.345
X9.085Y2.015
T9
X0.67Y1.685
X0.67Y1.585
X0.67Y1.485
X0.67Y1.385
X0.67Y1.285
X0.72Y1.685
X0.72Y1.585
X0.72Y1.485
X0.72Y1.385
X0.72Y1.285
X0.825Y0.65
X0.825Y0.55
X0.825Y0.45
X0.975Y0.65
X0.975Y0.55
X0.975Y0.45
X1.0Y3.45
X1.0Y3.35
X1.0Y3.25
X1.0Y3.15
X1.0Y3.05
X1.0Y2.95
X1.0Y2.85
X1.0Y2.75
X1.0Y2.65
X1.0Y2.55
X1.0Y2.45
X1.0Y2.35
X1.0Y2.25
X1.0Y2.15
X1.125Y0.425
X1.125Y0.275
X1.225Y0.425
X1.225Y0.275
X1.325Y0.425
X1.325Y0.275
X1.405Y2.71
X1.405Y2.61
X1.405Y2.51
X1.405Y2.41
X1.405Y2.31
X1.405Y2.21
X1.405Y2.11
X1.475Y0.425
X1.505Y2.71
X1.505Y2.61
X1.505Y2.51
X1.505Y2.41
X1.505Y2.31
X1.505Y2.21
X1.505Y2.11
X1.5609Y1.735
X1.5609Y1.635
X1.5609Y1.535
X1.5609Y1.435
X1.5609Y1.335
X1.5609Y1.235
X1.5609Y1.135
X1.575Y0.425
X1.62Y1.735
X1.62Y1.635
X1.62Y1.535
X1.62Y1.435
X1.62Y1.335
X1.62Y1.235
X1.62Y1.135
X1.805Y0.425
X1.805Y0.28
X1.905Y0.425
X1.905Y0.28
X2.005Y0.425
X2.005Y0.28
X2.155Y0.425
X2.155Y0.28
X2.2Y3.25
X2.2Y3.15
X2.2Y3.05
X2.2Y2.95
X2.2Y2.85
X2.2Y2.75
X2.2Y2.65
X2.2Y2.55
X2.255Y0.425
X2.255Y0.28
X2.3Y3.25
X2.3Y3.15
X2.3Y3.05
X2.3Y2.95
X2.3Y2.85
X2.3Y2.75
X2.3Y2.65
X2.3Y2.55
X2.4Y3.25
X2.4Y3.15
X2.4Y3.05
X2.4Y2.95
X2.4Y2.85
X2.4Y2.75
X2.4Y2.65
X2.4Y2.55
X2.5Y3.25
X2.5Y3.15
X2.5Y3.05
X2.5Y2.95
X2.5Y2.85
X2.5Y2.75
X2.5Y2.65
X2.5Y2.55
X2.6Y3.25
X2.6Y3.15
X2.6Y3.05
X2.6Y2.95
X2.6Y2.85
X2.6Y2.75
X2.6Y2.65
X2.6Y2.55
X2.7Y3.25
X2.7Y3.15
X2.7Y3.05
X2.7Y2.95
X2.7Y2.85
X2.7Y2.75
X2.7Y2.65
X2.7Y2.55
X2.8Y3.25
X2.8Y3.15
X2.8Y3.05
X2.8Y2.95
X2.8Y2.85
X2.8Y2.75
X2.8Y2.65
X2.8Y2.55
X2.9Y3.25
X2.9Y3.15
X2.9Y3.05
X2.9Y2.95
X2.9Y2.85
X2.9Y2.75
X2.9Y2.65
X2.9Y2.55
X3.75Y3.65
X3.75Y3.55
X3.75Y3.45
X4.1Y3.65
X4.1Y3.55
X4.1Y3.45
X4.45Y3.65
X4.45Y3.55
X4.45Y3.45
X4.45Y1.225
X4.55Y1.225
X4.8Y3.65
X4.8Y3.55
X4.8Y3.45
X5.07Y0.31
X5.145Y0.79
X5.15Y3.65
X5.15Y3.55
X5.15Y3.45
X5.17Y0.31
X5.245Y0.79
X5.345Y0.79
X5.5Y3.65
X5.5Y3.55
X5.5Y3.45
X5.8Y3.195
X5.9Y3.195
T10
X3.8004Y1.495
X3.85Y1.495
X4.05Y1.495
X4.0996Y1.495
X7.1104Y3.882
X7.16Y3.882
X7.36Y3.882
X7.4096Y3.882
X9.365Y0.56
X9.365Y0.36
X9.57Y0.355
X9.57Y0.155
X9.775Y0.355
X9.775Y0.155
T11
X0.7Y3.35
X0.7Y3.25
X0.7Y3.15
X0.7Y3.05
X0.7Y2.95
X0.7Y2.85
X0.7Y2.75
X0.7Y2.65
X0.7Y2.55
X0.7Y2.45
X0.95Y4.25
X0.95Y4.1516
X0.95Y4.0531
X0.95Y3.9547
X0.95Y3.8563
X1.109Y0.801
X1.209Y0.926
X1.209Y0.801
X1.209Y0.676
X1.209Y0.551
X1.3Y4.25
X1.3Y4.1516
X1.3Y4.0531
X1.3Y3.9547
X1.3Y3.8563
X1.309Y0.926
X1.309Y0.801
X1.309Y0.676
X1.309Y0.551
X1.409Y0.926
X1.409Y0.801
X1.409Y0.676
X1.409Y0.551
X1.509Y0.926
X1.509Y0.801
X1.509Y0.676
X1.509Y0.551
X1.609Y0.926
X1.609Y0.801
X1.609Y0.676
X1.609Y0.551
X1.65Y3.95
X1.65Y3.8516
X1.65Y3.7531
X1.709Y0.926
X1.709Y0.801
X1.709Y0.676
X1.709Y0.551
X1.709Y0.551
X1.709Y0.551
X1.95Y0.75
X1.95Y0.65
X2.0Y4.25
X2.0Y4.1516
X2.0Y4.0531
X2.0Y3.9547
X2.0Y3.8563
X2.0Y3.7579
X2.05Y0.75
X2.05Y0.65
X2.15Y0.75
X2.15Y0.65
X2.25Y0.75
X2.25Y0.65
X2.35Y4.25
X2.35Y4.1516
X2.35Y4.0531
X2.35Y3.9547
X2.35Y3.5484
X2.35Y3.45
X2.7Y4.25
X2.7Y4.1516
X2.7Y4.0531
X2.7Y3.9547
X3.05Y4.25
X3.05Y4.1516
X3.05Y4.0531
X3.05Y3.9547
X3.05Y3.8563
X3.05Y3.7579
X3.375Y4.25
X3.375Y4.1516
X3.375Y4.0531
X3.75Y4.25
X3.75Y4.1516
X3.75Y4.0531
X3.75Y3.9547
X3.75Y3.8563
X4.15Y4.25
X4.15Y4.1516
X4.15Y4.0531
X4.15Y3.9547
X4.15Y3.8563
X4.45Y4.25
X4.45Y4.1516
X4.45Y4.0531
X4.45Y3.9547
X4.45Y3.8563
X4.8Y4.25
X4.8Y4.1516
X4.8Y4.0531
X4.8Y3.9547
X4.8Y3.8563
X5.15Y4.25
X5.15Y4.1516
X5.15Y4.0531
X5.15Y3.9547
X5.15Y3.8563
X5.5Y4.25
X5.5Y4.1516
X5.5Y4.0531
X5.5Y3.9547
X5.5Y3.8563
X5.85Y4.25
X5.85Y4.1516
X5.85Y4.0531
X5.85Y3.65
X5.85Y3.5516
X5.85Y3.4531
X6.2Y4.25
X6.2Y4.1516
X6.2Y4.0531
X6.2Y3.65
X6.2Y3.5516
X6.2Y3.4531
X6.55Y4.25
X6.55Y4.1516
X6.55Y4.0531
X6.55Y3.65
X6.55Y3.5516
X6.55Y3.4531
X6.9Y4.25
X6.9Y4.1516
X6.9Y4.0531
X6.9Y3.65
X6.9Y3.5516
X6.9Y3.4531
X7.25Y4.25
X7.25Y4.1516
X7.25Y4.0531
X7.25Y3.65
X7.25Y3.5516
X7.25Y3.4531
X7.6Y4.25
X7.6Y4.1516
X7.6Y4.0531
X7.6Y3.9547
X7.6Y3.8563
X7.6Y3.5
X7.6Y3.4016
X7.6Y3.3031
X7.95Y4.25
X7.95Y4.1516
X7.95Y4.0531
X7.95Y3.9547
X7.95Y3.65
X7.95Y3.5516
X7.95Y3.4531
X7.95Y3.15
X7.95Y3.0516
X7.95Y2.9531
X7.95Y2.8547
X7.95Y2.5
X7.95Y2.4016
X7.95Y2.3031
X8.25Y4.25
X8.25Y4.1516
X8.25Y4.0531
X8.25Y3.9547
X8.25Y3.65
X8.25Y3.5516
X8.25Y3.4531
X8.25Y3.3547
X8.25Y3.05
X8.25Y2.9516
X8.25Y2.8531
X8.25Y2.5
X8.25Y2.4016
X8.985Y4.3288
X8.985Y1.5988
X9.185Y4.3288
X9.185Y1.5988
T12
X7.43Y1.095
X7.53Y1.095
X7.63Y1.095
X9.21Y0.56
X9.21Y0.46
X9.21Y0.36
T13
X7.945Y1.135
X7.945Y0.535
X7.945Y0.335
X7.945Y0.135
X8.245Y1.135
X8.245Y0.535
X8.245Y0.335
X8.245Y0.135
T14
X7.45Y0.715
X7.65Y0.715
X8.755Y0.46
X8.9519Y0.46
X9.765Y4.3469
X9.765Y4.15
X9.765Y3.9469
X9.765Y3.75
X9.765Y3.5469
X9.765Y3.35
X9.765Y2.4469
X9.765Y2.25
X9.765Y2.0469
X9.765Y1.85
X9.765Y1.6469
X9.765Y1.45
X9.78Y3.05
X9.78Y2.85
X9.78Y1.15
X9.78Y0.95
T15
X9.4225Y4.3025
X9.4225Y2.6975
X9.4225Y2.4025
X9.4225Y0.7975
T16
X1.6404Y4.1517
X1.6404Y1.8683
X3.5696Y4.1517
X3.5696Y1.8683
T17
X6.9104Y0.1954
T18
X3.85Y3.0
X3.9Y1.1
X6.85Y1.1
X7.1Y3.0
T19
X0.7Y4.4
X0.7Y2.25
X0.7Y0.1
X0.7145Y1.9393
X4.61Y3.96
X4.96Y3.96
X5.35Y4.4
X5.35Y0.285
X5.665Y3.96
X6.015Y3.96
X10.0Y4.4
X10.0Y2.25
X10.0Y0.1
X10.225Y0.425
X10.575Y0.425
T20
X0.225Y4.1
X0.225Y2.25
X0.225Y0.8
X10.475Y4.1
X10.475Y2.25
X10.475Y0.8
T21
X3.965Y4.255
X3.965Y1.955
X7.415Y4.255
X7.415Y1.955
T14
G00X7.3382Y0.715
M15
G01X7.3618Y0.715
M16
G05
G00X7.3382Y0.715
M15
G01X7.3618Y0.715
M16
G05
G00X9.78Y2.7382
M15
G01X9.78Y2.7618
M16
G05
G00X9.78Y2.7382
M15
G01X9.78Y2.7618
M16
G05
G00X9.78Y0.8382
M15
G01X9.78Y0.8618
M16
G05
G00X9.78Y0.8382
M15
G01X9.78Y0.8618
M16
G05
T0
M30
