<?xml version="1.0" encoding="utf-8"?>
<!-- Generator: Adobe Illustrator 24.3.0, SVG Export Plug-In . SVG Version: 6.00 Build 0)  -->
<svg version="1.1"
	 id="Ebene_1" xmlns:cc="http://creativecommons.org/ns#" xmlns:dc="http://purl.org/dc/elements/1.1/" xmlns:freecad="http://www.freecadweb.org/wiki/index.php?title=Svg_Namespace" xmlns:rdf="http://www.w3.org/1999/02/22-rdf-syntax-ns#" xmlns:svg="http://www.w3.org/2000/svg"
	 xmlns="http://www.w3.org/2000/svg" xmlns:xlink="http://www.w3.org/1999/xlink" x="0px" y="0px" viewBox="0 0 852.4 285.4"
	 style="enable-background:new 0 0 852.4 285.4;" xml:space="preserve">
<style type="text/css">
	.st0{fill-rule:evenodd;clip-rule:evenodd;fill:#FFFFFF;}
	.st1{fill:none;stroke:#000000;stroke-width:0.2835;stroke-linecap:square;stroke-linejoin:bevel;stroke-miterlimit:1.1339;}
	.st2{fill:none;stroke:#000000;stroke-width:1.9843;stroke-linecap:round;stroke-linejoin:bevel;stroke-miterlimit:1.1339;}
</style>
<desc>Drawing page: Page exported from FreeCAD document: Chassis2021_Innenwand</desc>
<g id="Page">
	<g id="DrawingContent">
		<g transform="matrix(1,0,0,1,5945,4205)">
			<path vector-effect="non-scaling-stroke" class="st0" d="M-5093.6-3920.5V-4204H-5944v283.5H-5093.6"/>
		</g>
		<g transform="matrix(1,0,0,1,5945,4205)">
			<polygon class="st1" points="-5518.8,-4062.3 -5518.8,-4062.3 -5518.8,-4062.3 			"/>
		</g>
		<g transform="matrix(1,0,0,1,5945,4205)">
			<path vector-effect="non-scaling-stroke" class="st0" d="M-5734.2-4099.1c0,19.6-15.9,35.4-35.4,35.4s-35.4-15.9-35.4-35.4
				c0-19.6,15.9-35.4,35.4-35.4S-5734.2-4118.7-5734.2-4099.1"/>
		</g>
		<g transform="matrix(1,0,0,1,5945,4205)">
			<polygon class="st1" points="-5518.8,-4062.3 -5518.8,-4062.3 -5518.8,-4062.3 			"/>
		</g>
		<g transform="matrix(1,0,0,1,5945,4205)">
			<path vector-effect="non-scaling-stroke" class="st0" d="M-5232.5-3991.4c0,19.6-15.9,35.4-35.4,35.4s-35.4-15.9-35.4-35.4
				s15.9-35.4,35.4-35.4S-5232.5-4011-5232.5-3991.4"/>
		</g>
		<g transform="matrix(1,0,0,1,5945,4205)">
			<polygon class="st1" points="-5518.8,-4062.3 -5518.8,-4062.3 -5518.8,-4062.3 			"/>
		</g>
		<g transform="matrix(1,0,0,1,5945,4205)">
			<path vector-effect="non-scaling-stroke" class="st0" d="M-5734.2-3991.4c0,19.6-15.9,35.4-35.4,35.4s-35.4-15.9-35.4-35.4
				s15.9-35.4,35.4-35.4S-5734.2-4011-5734.2-3991.4"/>
		</g>
		<g transform="matrix(1,0,0,1,5945,4205)">
			<polygon class="st1" points="-5518.8,-4062.3 -5518.8,-4062.3 -5518.8,-4062.3 			"/>
		</g>
		<g transform="matrix(1,0,0,1,5945,4205)">
			<path vector-effect="non-scaling-stroke" class="st0" d="M-5232.5-4099.1c0,19.6-15.9,35.4-35.4,35.4s-35.4-15.9-35.4-35.4
				c0-19.6,15.9-35.4,35.4-35.4S-5232.5-4118.7-5232.5-4099.1"/>
		</g>
		<g transform="matrix(1,0,0,1,5945,4205)">
			<polygon class="st1" points="-5518.8,-4062.3 -5518.8,-4062.3 -5518.8,-4062.3 			"/>
		</g>
		<g transform="matrix(1,0,0,1,5945,4205)">
			<path vector-effect="non-scaling-stroke" class="st0" d="M-5141.8-3948.9c0,4.7-3.8,8.5-8.5,8.5c-4.7,0-8.5-3.8-8.5-8.5
				c0-4.7,3.8-8.5,8.5-8.5C-5145.6-3957.4-5141.8-3953.6-5141.8-3948.9"/>
		</g>
		<g transform="matrix(1,0,0,1,5945,4205)">
			<polygon class="st1" points="-5518.8,-4062.3 -5518.8,-4062.3 -5518.8,-4062.3 			"/>
		</g>
		<g transform="matrix(1,0,0,1,5945,4205)">
			<path vector-effect="non-scaling-stroke" class="st0" d="M-5141.8-4175.7c0,4.7-3.8,8.5-8.5,8.5c-4.7,0-8.5-3.8-8.5-8.5
				c0-4.7,3.8-8.5,8.5-8.5C-5145.6-4184.2-5141.8-4180.4-5141.8-4175.7"/>
		</g>
		<g transform="matrix(1,0,0,1,5945,4205)">
			<polygon class="st1" points="-5518.8,-4062.3 -5518.8,-4062.3 -5518.8,-4062.3 			"/>
		</g>
		<g transform="matrix(1,0,0,1,5945,4205)">
			<path vector-effect="non-scaling-stroke" class="st0" d="M-5878.8-4175.7c0,4.7-3.8,8.5-8.5,8.5s-8.5-3.8-8.5-8.5
				c0-4.7,3.8-8.5,8.5-8.5S-5878.8-4180.4-5878.8-4175.7"/>
		</g>
		<g transform="matrix(1,0,0,1,5945,4205)">
			<polygon class="st1" points="-5518.8,-4062.3 -5518.8,-4062.3 -5518.8,-4062.3 			"/>
		</g>
		<g transform="matrix(1,0,0,1,5945,4205)">
			<path vector-effect="non-scaling-stroke" class="st0" d="M-5878.8-3948.9c0,4.7-3.8,8.5-8.5,8.5s-8.5-3.8-8.5-8.5
				c0-4.7,3.8-8.5,8.5-8.5S-5878.8-3953.6-5878.8-3948.9"/>
		</g>
		<g transform="matrix(1,0,0,1,5945,4205)">
			<polygon class="st1" points="-5518.8,-4062.3 -5518.8,-4062.3 -5518.8,-4062.3 			"/>
		</g>
		<g transform="matrix(1,0,0,1,5945,4205)">
			<path vector-effect="none" class="st2" d="M-5944-3920.5h850.4"/>
		</g>
		<g transform="matrix(1,0,0,1,5945,4205)">
			<path vector-effect="none" class="st2" d="M-5093.6-3920.5V-4204"/>
		</g>
		<g transform="matrix(1,0,0,1,5945,4205)">
			<path vector-effect="none" class="st2" d="M-5093.6-4204H-5944"/>
		</g>
		<g transform="matrix(1,0,0,1,5945,4205)">
			<path vector-effect="none" class="st2" d="M-5944-4204v283.5"/>
		</g>
		<g transform="matrix(1,0,0,1,5945,4205)">
			<path vector-effect="none" class="st2" d="M-5734.2-4099.1c0,19.6-15.9,35.4-35.4,35.4s-35.4-15.9-35.4-35.4
				c0-19.6,15.9-35.4,35.4-35.4S-5734.2-4118.7-5734.2-4099.1"/>
		</g>
		<g transform="matrix(1,0,0,1,5945,4205)">
			<path vector-effect="none" class="st2" d="M-5734.2-3991.4c0,19.6-15.9,35.4-35.4,35.4s-35.4-15.9-35.4-35.4s15.9-35.4,35.4-35.4
				S-5734.2-4011-5734.2-3991.4"/>
		</g>
		<g transform="matrix(1,0,0,1,5945,4205)">
			<path vector-effect="none" class="st2" d="M-5232.5-3991.4c0,19.6-15.9,35.4-35.4,35.4s-35.4-15.9-35.4-35.4s15.9-35.4,35.4-35.4
				S-5232.5-4011-5232.5-3991.4"/>
		</g>
		<g transform="matrix(1,0,0,1,5945,4205)">
			<path vector-effect="none" class="st2" d="M-5232.5-4099.1c0,19.6-15.9,35.4-35.4,35.4s-35.4-15.9-35.4-35.4
				c0-19.6,15.9-35.4,35.4-35.4S-5232.5-4118.7-5232.5-4099.1"/>
		</g>
		<g transform="matrix(1,0,0,1,5945,4205)">
			<path vector-effect="none" class="st2" d="M-5141.8-3948.9c0,4.7-3.8,8.5-8.5,8.5c-4.7,0-8.5-3.8-8.5-8.5c0-4.7,3.8-8.5,8.5-8.5
				C-5145.6-3957.4-5141.8-3953.6-5141.8-3948.9"/>
		</g>
		<g transform="matrix(1,0,0,1,5945,4205)">
			<path vector-effect="none" class="st2" d="M-5141.8-4175.7c0,4.7-3.8,8.5-8.5,8.5c-4.7,0-8.5-3.8-8.5-8.5c0-4.7,3.8-8.5,8.5-8.5
				C-5145.6-4184.2-5141.8-4180.4-5141.8-4175.7"/>
		</g>
		<g transform="matrix(1,0,0,1,5945,4205)">
			<path vector-effect="none" class="st2" d="M-5878.8-3948.9c0,4.7-3.8,8.5-8.5,8.5s-8.5-3.8-8.5-8.5c0-4.7,3.8-8.5,8.5-8.5
				S-5878.8-3953.6-5878.8-3948.9"/>
		</g>
		<g transform="matrix(1,0,0,1,5945,4205)">
			<path vector-effect="none" class="st2" d="M-5878.8-4175.7c0,4.7-3.8,8.5-8.5,8.5s-8.5-3.8-8.5-8.5c0-4.7,3.8-8.5,8.5-8.5
				S-5878.8-4180.4-5878.8-4175.7"/>
		</g>
	</g>
</g>
</svg>
