<?xml version="1.0" encoding="utf-8"?>
<!-- Generator: Adobe Illustrator 24.3.0, SVG Export Plug-In . SVG Version: 6.00 Build 0)  -->
<svg version="1.1"
	 id="Ebene_1" xmlns:cc="http://creativecommons.org/ns#" xmlns:dc="http://purl.org/dc/elements/1.1/" xmlns:freecad="http://www.freecadweb.org/wiki/index.php?title=Svg_Namespace" xmlns:rdf="http://www.w3.org/1999/02/22-rdf-syntax-ns#" xmlns:svg="http://www.w3.org/2000/svg"
	 xmlns="http://www.w3.org/2000/svg" xmlns:xlink="http://www.w3.org/1999/xlink" x="0px" y="0px" viewBox="0 0 852.4 1053.6"
	 style="enable-background:new 0 0 852.4 1053.6;" xml:space="preserve">
<style type="text/css">
	.st0{fill-rule:evenodd;clip-rule:evenodd;fill:#FFFFFF;}
	.st1{fill:none;stroke:#000000;stroke-width:0.2835;stroke-linecap:square;stroke-linejoin:bevel;stroke-miterlimit:1.1339;}
	.st2{fill:none;stroke:#000000;stroke-width:1.9843;stroke-linecap:round;stroke-linejoin:bevel;stroke-miterlimit:1.1339;}
</style>
<desc>Drawing page: Page exported from FreeCAD document: Chassis2021_Boden</desc>
<g id="Page">
	<g id="DrawingContent">
		<g transform="matrix(1,0,0,1,4205,2970)">
			<path vector-effect="non-scaling-stroke" class="st0" d="M-4204-2030.7V-2969h850.4v938.3
				C-3616.9-1879.6-3940.7-1879.6-4204-2030.7"/>
		</g>
		<g transform="matrix(1,0,0,1,4205,2970)">
			<polygon class="st1" points="-3778.8,-2443.2 -3778.8,-2443.2 -3778.8,-2443.2 			"/>
		</g>
		<g transform="matrix(1,0,0,1,4205,2970)">
			<path vector-effect="non-scaling-stroke" class="st0" d="M-3682.6-2529.6c0,53.1-43.1,96.2-96.2,96.2s-96.2-43.1-96.2-96.2
				s43.1-96.2,96.2-96.2S-3682.6-2582.8-3682.6-2529.6"/>
		</g>
		<g transform="matrix(1,0,0,1,4205,2970)">
			<polygon class="st1" points="-3778.8,-2443.2 -3778.8,-2443.2 -3778.8,-2443.2 			"/>
		</g>
		<g transform="matrix(1,0,0,1,4205,2970)">
			<path vector-effect="non-scaling-stroke" class="st0" d="M-3399-2098.8c0,6.3-5.1,11.3-11.3,11.3s-11.3-5.1-11.3-11.3
				s5.1-11.3,11.3-11.3S-3399-2105-3399-2098.8"/>
		</g>
		<g transform="matrix(1,0,0,1,4205,2970)">
			<polygon class="st1" points="-3778.8,-2443.2 -3778.8,-2443.2 -3778.8,-2443.2 			"/>
		</g>
		<g transform="matrix(1,0,0,1,4205,2970)">
			<path vector-effect="non-scaling-stroke" class="st0" d="M-3719.3-1968.4c0,6.3-5.1,11.3-11.3,11.3s-11.3-5.1-11.3-11.3
				s5.1-11.3,11.3-11.3S-3719.3-1974.6-3719.3-1968.4"/>
		</g>
		<g transform="matrix(1,0,0,1,4205,2970)">
			<polygon class="st1" points="-3778.8,-2443.2 -3778.8,-2443.2 -3778.8,-2443.2 			"/>
		</g>
		<g transform="matrix(1,0,0,1,4205,2970)">
			<path vector-effect="non-scaling-stroke" class="st0" d="M-4136-2903.8c0,6.3-5.1,11.3-11.3,11.3s-11.3-5.1-11.3-11.3
				s5.1-11.3,11.3-11.3S-4136-2910.1-4136-2903.8"/>
		</g>
		<g transform="matrix(1,0,0,1,4205,2970)">
			<polygon class="st1" points="-3778.8,-2443.2 -3778.8,-2443.2 -3778.8,-2443.2 			"/>
		</g>
		<g transform="matrix(1,0,0,1,4205,2970)">
			<path vector-effect="non-scaling-stroke" class="st0" d="M-3767.5-2767.7c0,6.3-5.1,11.3-11.3,11.3s-11.3-5.1-11.3-11.3
				s5.1-11.3,11.3-11.3S-3767.5-2774-3767.5-2767.7"/>
		</g>
		<g transform="matrix(1,0,0,1,4205,2970)">
			<polygon class="st1" points="-3778.8,-2443.2 -3778.8,-2443.2 -3778.8,-2443.2 			"/>
		</g>
		<g transform="matrix(1,0,0,1,4205,2970)">
			<path vector-effect="non-scaling-stroke" class="st0" d="M-3815.7-1968.4c0,6.3-5.1,11.3-11.3,11.3s-11.3-5.1-11.3-11.3
				s5.1-11.3,11.3-11.3S-3815.7-1974.6-3815.7-1968.4"/>
		</g>
		<g transform="matrix(1,0,0,1,4205,2970)">
			<polygon class="st1" points="-3778.8,-2443.2 -3778.8,-2443.2 -3778.8,-2443.2 			"/>
		</g>
		<g transform="matrix(1,0,0,1,4205,2970)">
			<path vector-effect="non-scaling-stroke" class="st0" d="M-3399-2903.8c0,6.3-5.1,11.3-11.3,11.3s-11.3-5.1-11.3-11.3
				s5.1-11.3,11.3-11.3S-3399-2910.1-3399-2903.8"/>
		</g>
		<g transform="matrix(1,0,0,1,4205,2970)">
			<polygon class="st1" points="-3778.8,-2443.2 -3778.8,-2443.2 -3778.8,-2443.2 			"/>
		</g>
		<g transform="matrix(1,0,0,1,4205,2970)">
			<path vector-effect="non-scaling-stroke" class="st0" d="M-4136-2098.8c0,6.3-5.1,11.3-11.3,11.3s-11.3-5.1-11.3-11.3
				s5.1-11.3,11.3-11.3S-4136-2105-4136-2098.8"/>
		</g>
		<g transform="matrix(1,0,0,1,4205,2970)">
			<polygon class="st1" points="-3778.8,-2443.2 -3778.8,-2443.2 -3778.8,-2443.2 			"/>
		</g>
		<g transform="matrix(1,0,0,1,4205,2970)">
			<path vector-effect="non-scaling-stroke" class="st0" d="M-3974.3-2056.3c0,3.2-2.6,5.8-5.8,5.8c-3.2,0-5.8-2.6-5.8-5.8
				s2.6-5.8,5.8-5.8C-3976.9-2062.1-3974.3-2059.5-3974.3-2056.3"/>
		</g>
		<g transform="matrix(1,0,0,1,4205,2970)">
			<polygon class="st1" points="-3778.8,-2443.2 -3778.8,-2443.2 -3778.8,-2443.2 			"/>
		</g>
		<g transform="matrix(1,0,0,1,4205,2970)">
			<path vector-effect="non-scaling-stroke" class="st0" d="M-3773-2056.3c0,3.2-2.6,5.8-5.8,5.8c-3.2,0-5.8-2.6-5.8-5.8
				s2.6-5.8,5.8-5.8C-3775.6-2062.1-3773-2059.5-3773-2056.3"/>
		</g>
		<g transform="matrix(1,0,0,1,4205,2970)">
			<polygon class="st1" points="-3778.8,-2443.2 -3778.8,-2443.2 -3778.8,-2443.2 			"/>
		</g>
		<g transform="matrix(1,0,0,1,4205,2970)">
			<path vector-effect="non-scaling-stroke" class="st0" d="M-3900.6-2056.3c0,3.2-2.6,5.8-5.8,5.8c-3.2,0-5.8-2.6-5.8-5.8
				s2.6-5.8,5.8-5.8C-3903.2-2062.1-3900.6-2059.5-3900.6-2056.3"/>
		</g>
		<g transform="matrix(1,0,0,1,4205,2970)">
			<polygon class="st1" points="-3778.8,-2443.2 -3778.8,-2443.2 -3778.8,-2443.2 			"/>
		</g>
		<g transform="matrix(1,0,0,1,4205,2970)">
			<path vector-effect="non-scaling-stroke" class="st0" d="M-3571.7-2056.3c0,3.2-2.6,5.8-5.8,5.8c-3.2,0-5.8-2.6-5.8-5.8
				s2.6-5.8,5.8-5.8C-3574.3-2062.1-3571.7-2059.5-3571.7-2056.3"/>
		</g>
		<g transform="matrix(1,0,0,1,4205,2970)">
			<polygon class="st1" points="-3778.8,-2443.2 -3778.8,-2443.2 -3778.8,-2443.2 			"/>
		</g>
		<g transform="matrix(1,0,0,1,4205,2970)">
			<path vector-effect="non-scaling-stroke" class="st0" d="M-3645.4-2056.3c0,3.2-2.6,5.8-5.8,5.8s-5.8-2.6-5.8-5.8
				s2.6-5.8,5.8-5.8S-3645.4-2059.5-3645.4-2056.3"/>
		</g>
		<g transform="matrix(1,0,0,1,4205,2970)">
			<polygon class="st1" points="-3778.8,-2443.2 -3778.8,-2443.2 -3778.8,-2443.2 			"/>
		</g>
		<g transform="matrix(1,0,0,1,4205,2970)">
			<path vector-effect="none" class="st2" d="M-4204-2969h850.4"/>
		</g>
		<g transform="matrix(1,0,0,1,4205,2970)">
			<path vector-effect="none" class="st2" d="M-3353.6-2969v938.3"/>
		</g>
		<g transform="matrix(1,0,0,1,4205,2970)">
			<path vector-effect="none" class="st2" d="M-4204-2030.7c263.3,151.2,587.1,151.2,850.4,0"/>
		</g>
		<g transform="matrix(1,0,0,1,4205,2970)">
			<path vector-effect="none" class="st2" d="M-4204-2030.7V-2969"/>
		</g>
		<g transform="matrix(1,0,0,1,4205,2970)">
			<path vector-effect="none" class="st2" d="M-3682.6-2529.6c0,53.1-43.1,96.2-96.2,96.2s-96.2-43.1-96.2-96.2s43.1-96.2,96.2-96.2
				S-3682.6-2582.8-3682.6-2529.6"/>
		</g>
		<g transform="matrix(1,0,0,1,4205,2970)">
			<path vector-effect="none" class="st2" d="M-3719.3-1968.4c0,6.3-5.1,11.3-11.3,11.3s-11.3-5.1-11.3-11.3s5.1-11.3,11.3-11.3
				S-3719.3-1974.6-3719.3-1968.4"/>
		</g>
		<g transform="matrix(1,0,0,1,4205,2970)">
			<path vector-effect="none" class="st2" d="M-3815.7-1968.4c0,6.3-5.1,11.3-11.3,11.3s-11.3-5.1-11.3-11.3s5.1-11.3,11.3-11.3
				S-3815.7-1974.6-3815.7-1968.4"/>
		</g>
		<g transform="matrix(1,0,0,1,4205,2970)">
			<path vector-effect="none" class="st2" d="M-4136-2098.8c0,6.3-5.1,11.3-11.3,11.3s-11.3-5.1-11.3-11.3s5.1-11.3,11.3-11.3
				S-4136-2105-4136-2098.8"/>
		</g>
		<g transform="matrix(1,0,0,1,4205,2970)">
			<path vector-effect="none" class="st2" d="M-3399-2098.8c0,6.3-5.1,11.3-11.3,11.3s-11.3-5.1-11.3-11.3s5.1-11.3,11.3-11.3
				S-3399-2105-3399-2098.8"/>
		</g>
		<g transform="matrix(1,0,0,1,4205,2970)">
			<path vector-effect="none" class="st2" d="M-3767.5-2767.7c0,6.3-5.1,11.3-11.3,11.3s-11.3-5.1-11.3-11.3s5.1-11.3,11.3-11.3
				S-3767.5-2774-3767.5-2767.7"/>
		</g>
		<g transform="matrix(1,0,0,1,4205,2970)">
			<path vector-effect="none" class="st2" d="M-3399-2903.8c0,6.3-5.1,11.3-11.3,11.3s-11.3-5.1-11.3-11.3s5.1-11.3,11.3-11.3
				S-3399-2910.1-3399-2903.8"/>
		</g>
		<g transform="matrix(1,0,0,1,4205,2970)">
			<path vector-effect="none" class="st2" d="M-4136-2903.8c0,6.3-5.1,11.3-11.3,11.3s-11.3-5.1-11.3-11.3s5.1-11.3,11.3-11.3
				S-4136-2910.1-4136-2903.8"/>
		</g>
		<g transform="matrix(1,0,0,1,4205,2970)">
			<path vector-effect="none" class="st2" d="M-3773-2056.3c0,3.2-2.6,5.8-5.8,5.8c-3.2,0-5.8-2.6-5.8-5.8s2.6-5.8,5.8-5.8
				C-3775.6-2062.1-3773-2059.5-3773-2056.3"/>
		</g>
		<g transform="matrix(1,0,0,1,4205,2970)">
			<path vector-effect="none" class="st2" d="M-3571.7-2056.3c0,3.2-2.6,5.8-5.8,5.8c-3.2,0-5.8-2.6-5.8-5.8s2.6-5.8,5.8-5.8
				C-3574.3-2062.1-3571.7-2059.5-3571.7-2056.3"/>
		</g>
		<g transform="matrix(1,0,0,1,4205,2970)">
			<path vector-effect="none" class="st2" d="M-3645.4-2056.3c0,3.2-2.6,5.8-5.8,5.8s-5.8-2.6-5.8-5.8s2.6-5.8,5.8-5.8
				S-3645.4-2059.5-3645.4-2056.3"/>
		</g>
		<g transform="matrix(1,0,0,1,4205,2970)">
			<path vector-effect="none" class="st2" d="M-3974.3-2056.3c0,3.2-2.6,5.8-5.8,5.8c-3.2,0-5.8-2.6-5.8-5.8s2.6-5.8,5.8-5.8
				C-3976.9-2062.1-3974.3-2059.5-3974.3-2056.3"/>
		</g>
		<g transform="matrix(1,0,0,1,4205,2970)">
			<path vector-effect="none" class="st2" d="M-3900.6-2056.3c0,3.2-2.6,5.8-5.8,5.8c-3.2,0-5.8-2.6-5.8-5.8s2.6-5.8,5.8-5.8
				C-3903.2-2062.1-3900.6-2059.5-3900.6-2056.3"/>
		</g>
	</g>
</g>
</svg>
