<?xml version="1.0" encoding="utf-8"?>
<!-- Generator: Adobe Illustrator 24.3.0, SVG Export Plug-In . SVG Version: 6.00 Build 0)  -->
<svg version="1.1"
	 id="Ebene_1" xmlns:cc="http://creativecommons.org/ns#" xmlns:dc="http://purl.org/dc/elements/1.1/" xmlns:freecad="http://www.freecadweb.org/wiki/index.php?title=Svg_Namespace" xmlns:rdf="http://www.w3.org/1999/02/22-rdf-syntax-ns#" xmlns:svg="http://www.w3.org/2000/svg"
	 xmlns="http://www.w3.org/2000/svg" xmlns:xlink="http://www.w3.org/1999/xlink" x="0px" y="0px" viewBox="0 0 1079.1 157.9"
	 style="enable-background:new 0 0 1079.1 157.9;" xml:space="preserve">
<style type="text/css">
	.st0{fill-rule:evenodd;clip-rule:evenodd;fill:#FFFFFF;}
	.st1{fill:none;stroke:#000000;stroke-width:0.2835;stroke-linecap:square;stroke-linejoin:bevel;stroke-miterlimit:1.1339;}
	.st2{fill:none;stroke:#000000;stroke-width:1.9843;stroke-linecap:round;stroke-linejoin:bevel;stroke-miterlimit:1.1339;}
</style>
<desc>Drawing page: Page exported from FreeCAD document: Chassis2021_Bumper3mm</desc>
<g id="Page">
	<g id="DrawingContent">
		<g transform="matrix(1,0,0,1,5945,4205)">
			<path vector-effect="non-scaling-stroke" class="st0" d="M-5215.5-4097.7h335.9c7,0,12.8-5.7,12.8-12.8v-2.8
				c0-7-5.7-12.8-12.8-12.8l0,0h-150.2l0,0c-239.6-103.9-511.6-103.9-751.2,0l0,0h-150.2l0,0c-7,0-12.8,5.7-12.8,12.8v2.8
				c0,7,5.7,12.8,12.8,12.8h335.9l76.9-11.3c4.9-0.7,9.9,0.7,13.6,4c3.7,3.2,5.9,7.9,5.9,12.9v1.6c0,23.5,19,42.5,42.5,42.5h102
				c23.5,0,42.5-19,42.5-42.5v-1.6c0-4.9,2.1-9.6,5.9-12.9c3.7-3.2,8.7-4.7,13.6-4L-5215.5-4097.7"/>
		</g>
		<g transform="matrix(1,0,0,1,5945,4205)">
			<polygon class="st1" points="-5405.4,-4126.1 -5405.4,-4126.1 -5405.4,-4126.1 			"/>
		</g>
		<g transform="matrix(1,0,0,1,5945,4205)">
			<path vector-effect="non-scaling-stroke" class="st0" d="M-5436.6-4099.4v8.5c0,9.4-7.6,17-17,17s-17-7.6-17-17v-8.5
				c0-9.4,7.6-17,17-17S-5436.6-4108.8-5436.6-4099.4"/>
		</g>
		<g transform="matrix(1,0,0,1,5945,4205)">
			<polygon class="st1" points="-5405.4,-4126.1 -5405.4,-4126.1 -5405.4,-4126.1 			"/>
		</g>
		<g transform="matrix(1,0,0,1,5945,4205)">
			<path vector-effect="non-scaling-stroke" class="st0" d="M-5340.2-4099.4v8.5c0,9.4-7.6,17-17,17s-17-7.6-17-17v-8.5
				c0-9.4,7.6-17,17-17S-5340.2-4108.8-5340.2-4099.4"/>
		</g>
		<g transform="matrix(1,0,0,1,5945,4205)">
			<polygon class="st1" points="-5405.4,-4126.1 -5405.4,-4126.1 -5405.4,-4126.1 			"/>
		</g>
		<g transform="matrix(1,0,0,1,5945,4205)">
			<path vector-effect="non-scaling-stroke" class="st0" d="M-4875.3-4111.9c0,3.1-2.5,5.7-5.7,5.7s-5.7-2.5-5.7-5.7
				s2.5-5.7,5.7-5.7S-4875.3-4115-4875.3-4111.9"/>
		</g>
		<g transform="matrix(1,0,0,1,5945,4205)">
			<polygon class="st1" points="-5405.4,-4126.1 -5405.4,-4126.1 -5405.4,-4126.1 			"/>
		</g>
		<g transform="matrix(1,0,0,1,5945,4205)">
			<path vector-effect="non-scaling-stroke" class="st0" d="M-5116.3-4148.7c0,3.1-2.5,5.7-5.7,5.7c-3.1,0-5.7-2.5-5.7-5.7
				c0-3.1,2.5-5.7,5.7-5.7C-5118.8-4154.4-5116.3-4151.9-5116.3-4148.7"/>
		</g>
		<g transform="matrix(1,0,0,1,5945,4205)">
			<polygon class="st1" points="-5405.4,-4126.1 -5405.4,-4126.1 -5405.4,-4126.1 			"/>
		</g>
		<g transform="matrix(1,0,0,1,5945,4205)">
			<path vector-effect="non-scaling-stroke" class="st0" d="M-5924.2-4111.9c0,3.1-2.5,5.7-5.7,5.7s-5.7-2.5-5.7-5.7
				s2.5-5.7,5.7-5.7S-5924.2-4115-5924.2-4111.9"/>
		</g>
		<g transform="matrix(1,0,0,1,5945,4205)">
			<polygon class="st1" points="-5405.4,-4126.1 -5405.4,-4126.1 -5405.4,-4126.1 			"/>
		</g>
		<g transform="matrix(1,0,0,1,5945,4205)">
			<path vector-effect="non-scaling-stroke" class="st0" d="M-5683.2-4148.7c0,3.1-2.5,5.7-5.7,5.7c-3.1,0-5.7-2.5-5.7-5.7
				c0-3.1,2.5-5.7,5.7-5.7C-5685.8-4154.4-5683.2-4151.9-5683.2-4148.7"/>
		</g>
		<g transform="matrix(1,0,0,1,5945,4205)">
			<polygon class="st1" points="-5405.4,-4126.1 -5405.4,-4126.1 -5405.4,-4126.1 			"/>
		</g>
		<g transform="matrix(1,0,0,1,5945,4205)">
			<path vector-effect="none" class="st2" d="M-5595.3-4097.7l76.9-11.3"/>
		</g>
		<g transform="matrix(1,0,0,1,5945,4205)">
			<path vector-effect="none" class="st2" d="M-5518.5-4109c4.9-0.7,9.9,0.7,13.6,4c3.7,3.2,5.9,7.9,5.9,12.9"/>
		</g>
		<g transform="matrix(1,0,0,1,5945,4205)">
			<path vector-effect="none" class="st2" d="M-5931.3-4097.7h335.9"/>
		</g>
		<g transform="matrix(1,0,0,1,5945,4205)">
			<path vector-effect="none" class="st2" d="M-5499-4092.2v1.6"/>
		</g>
		<g transform="matrix(1,0,0,1,5945,4205)">
			<path vector-effect="none" class="st2" d="M-5931.3-4097.7c-7,0-12.8-5.7-12.8-12.8"/>
		</g>
		<g transform="matrix(1,0,0,1,5945,4205)">
			<path vector-effect="none" class="st2" d="M-5499-4090.6c0,23.5,19,42.5,42.5,42.5"/>
		</g>
		<g transform="matrix(1,0,0,1,5945,4205)">
			<path vector-effect="none" class="st2" d="M-5944-4113.3v2.8"/>
		</g>
		<g transform="matrix(1,0,0,1,5945,4205)">
			<path vector-effect="none" class="st2" d="M-5456.4-4048.1h102"/>
		</g>
		<g transform="matrix(1,0,0,1,5945,4205)">
			<path vector-effect="none" class="st2" d="M-5944-4113.3c0-7,5.7-12.8,12.8-12.8"/>
		</g>
		<g transform="matrix(1,0,0,1,5945,4205)">
			<path vector-effect="none" class="st2" d="M-5354.4-4048.1c23.5,0,42.5-19,42.5-42.5"/>
		</g>
		<g transform="matrix(1,0,0,1,5945,4205)">
			<path vector-effect="none" class="st2" d="M-5781-4126.1h-150.2"/>
		</g>
		<g transform="matrix(1,0,0,1,5945,4205)">
			<path vector-effect="none" class="st2" d="M-5311.9-4090.6v-1.6"/>
		</g>
		<g transform="matrix(1,0,0,1,5945,4205)">
			<path vector-effect="none" class="st2" d="M-5029.8-4126.1c-239.6-103.9-511.6-103.9-751.2,0"/>
		</g>
		<g transform="matrix(1,0,0,1,5945,4205)">
			<path vector-effect="none" class="st2" d="M-5311.9-4092.2c0-4.9,2.1-9.6,5.9-12.9c3.7-3.2,8.7-4.7,13.6-4"/>
		</g>
		<g transform="matrix(1,0,0,1,5945,4205)">
			<path vector-effect="none" class="st2" d="M-4879.6-4126.1h-150.2"/>
		</g>
		<g transform="matrix(1,0,0,1,5945,4205)">
			<path vector-effect="none" class="st2" d="M-5215.5-4097.7l-76.9-11.3"/>
		</g>
		<g transform="matrix(1,0,0,1,5945,4205)">
			<path vector-effect="none" class="st2" d="M-4879.6-4126.1c7,0,12.8,5.7,12.8,12.8"/>
		</g>
		<g transform="matrix(1,0,0,1,5945,4205)">
			<path vector-effect="none" class="st2" d="M-5215.5-4097.7h335.9"/>
		</g>
		<g transform="matrix(1,0,0,1,5945,4205)">
			<path vector-effect="none" class="st2" d="M-4866.8-4110.5v-2.8"/>
		</g>
		<g transform="matrix(1,0,0,1,5945,4205)">
			<path vector-effect="none" class="st2" d="M-4879.6-4097.7c7,0,12.8-5.7,12.8-12.8"/>
		</g>
		<g transform="matrix(1,0,0,1,5945,4205)">
			<path vector-effect="none" class="st2" d="M-5340.2-4099.4v8.5"/>
		</g>
		<g transform="matrix(1,0,0,1,5945,4205)">
			<path vector-effect="none" class="st2" d="M-5374.2-4090.9c0,9.4,7.6,17,17,17s17-7.6,17-17"/>
		</g>
		<g transform="matrix(1,0,0,1,5945,4205)">
			<path vector-effect="none" class="st2" d="M-5374.2-4099.4v8.5"/>
		</g>
		<g transform="matrix(1,0,0,1,5945,4205)">
			<path vector-effect="none" class="st2" d="M-5340.2-4099.4c0-9.4-7.6-17-17-17s-17,7.6-17,17"/>
		</g>
		<g transform="matrix(1,0,0,1,5945,4205)">
			<path vector-effect="none" class="st2" d="M-5436.6-4099.4v8.5"/>
		</g>
		<g transform="matrix(1,0,0,1,5945,4205)">
			<path vector-effect="none" class="st2" d="M-5470.6-4090.9c0,9.4,7.6,17,17,17s17-7.6,17-17"/>
		</g>
		<g transform="matrix(1,0,0,1,5945,4205)">
			<path vector-effect="none" class="st2" d="M-5470.6-4099.4v8.5"/>
		</g>
		<g transform="matrix(1,0,0,1,5945,4205)">
			<path vector-effect="none" class="st2" d="M-5436.6-4099.4c0-9.4-7.6-17-17-17s-17,7.6-17,17"/>
		</g>
		<g transform="matrix(1,0,0,1,5945,4205)">
			<path vector-effect="none" class="st2" d="M-5683.2-4148.7c0,3.1-2.5,5.7-5.7,5.7c-3.1,0-5.7-2.5-5.7-5.7c0-3.1,2.5-5.7,5.7-5.7
				C-5685.8-4154.4-5683.2-4151.9-5683.2-4148.7"/>
		</g>
		<g transform="matrix(1,0,0,1,5945,4205)">
			<path vector-effect="none" class="st2" d="M-5116.3-4148.7c0,3.1-2.5,5.7-5.7,5.7c-3.1,0-5.7-2.5-5.7-5.7c0-3.1,2.5-5.7,5.7-5.7
				C-5118.8-4154.4-5116.3-4151.9-5116.3-4148.7"/>
		</g>
		<g transform="matrix(1,0,0,1,5945,4205)">
			<path vector-effect="none" class="st2" d="M-5924.2-4111.9c0,3.1-2.5,5.7-5.7,5.7s-5.7-2.5-5.7-5.7s2.5-5.7,5.7-5.7
				S-5924.2-4115-5924.2-4111.9"/>
		</g>
		<g transform="matrix(1,0,0,1,5945,4205)">
			<path vector-effect="none" class="st2" d="M-4875.3-4111.9c0,3.1-2.5,5.7-5.7,5.7s-5.7-2.5-5.7-5.7s2.5-5.7,5.7-5.7
				S-4875.3-4115-4875.3-4111.9"/>
		</g>
	</g>
</g>
</svg>
