<?xml version="1.0" encoding="utf-8"?>
<!-- Generator: Adobe Illustrator 24.3.0, SVG Export Plug-In . SVG Version: 6.00 Build 0)  -->
<svg version="1.1"
	 id="Ebene_1" xmlns:cc="http://creativecommons.org/ns#" xmlns:dc="http://purl.org/dc/elements/1.1/" xmlns:freecad="http://www.freecadweb.org/wiki/index.php?title=Svg_Namespace" xmlns:rdf="http://www.w3.org/1999/02/22-rdf-syntax-ns#" xmlns:svg="http://www.w3.org/2000/svg"
	 xmlns="http://www.w3.org/2000/svg" xmlns:xlink="http://www.w3.org/1999/xlink" x="0px" y="0px" viewBox="0 0 1702.8 1022.4"
	 style="enable-background:new 0 0 1702.8 1022.4;" xml:space="preserve">
<style type="text/css">
	.st0{fill-rule:evenodd;clip-rule:evenodd;fill:#FFFFFF;}
	.st1{fill:none;stroke:#000000;stroke-width:0.2835;stroke-linecap:square;stroke-linejoin:bevel;stroke-miterlimit:1.1339;}
	.st2{fill:none;stroke:#000000;stroke-width:1.9843;stroke-linecap:round;stroke-linejoin:bevel;stroke-miterlimit:1.1339;}
</style>
<desc>Drawing page: Page exported from FreeCAD document: Chassis2021_Deckel</desc>
<g id="Page">
	<g id="DrawingContent">
		<g transform="matrix(1,0,0,1,5945,4205)">
			<path vector-effect="non-scaling-stroke" class="st0" d="M-4526.8-3410.3c156.6,0.1,283.6-126.9,283.6-283.5
				s-127-283.5-283.6-283.5c-121.6,12.1-240.4-42-311.1-141.7v-56.7c0-15.7-12.7-28.3-28.3-28.3H-5043c-8.2,0-16,3.6-21.4,9.8
				l-37.2,42.8c-5.4,6.2-13.2,9.8-21.4,9.8h-557.8c-8.4,0-16.3-3.7-21.7-10.1l-35.4-42.2c-5.6-6.7-14-10.4-22.7-10.1
				c-8.7,0.3-16.8,4.6-21.9,11.7c-104.9,145-161.4,319.5-161.4,498.5l0,0c0,179,56.5,353.5,161.4,498.5c5.1,7.1,13.2,11.4,21.9,11.7
				c8.7,0.3,17.1-3.4,22.7-10.1l35.4-42.2c5.4-6.4,13.3-10.1,21.7-10.1h557.8c8.2,0,16,3.6,21.4,9.8l37.2,42.8
				c5.4,6.2,13.2,9.8,21.4,9.8h176.7c15.7,0,28.3-12.7,28.3-28.3v-56.7C-4767.2-3368.3-4648.4-3422.4-4526.8-3410.3"/>
		</g>
		<g transform="matrix(1,0,0,1,5945,4205)">
			<polygon class="st1" points="-5093.6,-3693.8 -5093.6,-3693.8 -5093.6,-3693.8 			"/>
		</g>
		<g transform="matrix(1,0,0,1,5945,4205)">
			<path vector-effect="non-scaling-stroke" class="st0" d="M-4484.2-3604.1c-24.8,11.7-35.3,41.3-23.6,66.1
				c11.7,24.8,41.3,35.3,66.1,23.6c69.2-32.8,113.4-102.6,113.4-179.3s-44.1-146.4-113.4-179.3c-24.8-11.7-54.3-1.2-66.1,23.6
				c-11.7,24.8-1.2,54.3,23.6,66.1c34.6,16.4,56.7,51.3,56.7,89.6S-4449.5-3620.6-4484.2-3604.1"/>
		</g>
		<g transform="matrix(1,0,0,1,5945,4205)">
			<polygon class="st1" points="-5093.6,-3693.8 -5093.6,-3693.8 -5093.6,-3693.8 			"/>
		</g>
		<g transform="matrix(1,0,0,1,5945,4205)">
			<path vector-effect="non-scaling-stroke" class="st0" d="M-5828.3-3738.5l-0.1,29.3l-66.1,17.3l66,17.7l-0.1,29.3l-96.8-0.4
				l0.1-18.2l76.2,0.3l-76.2-19.5l0.1-18.8l76.3-18.8l-76.2-0.3l0.1-18.2L-5828.3-3738.5"/>
		</g>
		<g transform="matrix(1,0,0,1,5945,4205)">
			<polygon class="st1" points="-5093.6,-3693.8 -5093.6,-3693.8 -5093.6,-3693.8 			"/>
		</g>
		<g transform="matrix(1,0,0,1,5945,4205)">
			<path vector-effect="non-scaling-stroke" class="st0" d="M-5811.4-3858.1l-4.1,18.1l-94.5-21.2l3.8-16.8l10.1,2.3
				c-3.3-3.7-5.5-7.6-6.5-11.9c-1.1-4.2-1.2-8.3-0.3-12.1c1.8-7.9,6.4-13.9,14-18.1c7.6-4.2,17.1-5,28.4-2.5
				c11.6,2.6,19.8,7.3,24.6,14.1c4.8,6.8,6.3,14.4,4.4,22.7c-1.7,7.7-6.4,13.6-14,17.7L-5811.4-3858.1"/>
		</g>
		<g transform="matrix(1,0,0,1,5945,4205)">
			<polygon class="st1" points="-5093.6,-3693.8 -5093.6,-3693.8 -5093.6,-3693.8 			"/>
		</g>
		<g transform="matrix(1,0,0,1,5945,4205)">
			<path vector-effect="non-scaling-stroke" class="st0" d="M-5759.5-4018.2l-8,19.1l-104.3-1.9l8.3-19.6l23.6,0.8l15-35.7
				l-17.2-15.9l8.1-19.1L-5759.5-4018.2"/>
		</g>
		<g transform="matrix(1,0,0,1,5945,4205)">
			<polygon class="st1" points="-5093.6,-3693.8 -5093.6,-3693.8 -5093.6,-3693.8 			"/>
		</g>
		<g transform="matrix(1,0,0,1,5945,4205)">
			<path vector-effect="non-scaling-stroke" class="st0" d="M-5847.2-3591.1c1.4,10.5-0.9,19.6-6.9,27.2c-6,7.6-14.2,12.1-24.6,13.5
				c-10.5,1.4-19.7-0.9-27.5-6.8c-7.8-5.9-12.4-14-13.7-24.3c-0.8-6.4-0.2-12.6,2-18.8c2.1-6.2,5.8-11.1,11-14.8
				c5.2-3.7,11.8-6.1,19.8-7.2c6.1-0.8,12.2-0.1,18.3,2.2c6.1,2.3,11,6,14.8,11.1C-5850.4-3603.8-5848.1-3597.9-5847.2-3591.1"/>
		</g>
		<g transform="matrix(1,0,0,1,5945,4205)">
			<polygon class="st1" points="-5093.6,-3693.8 -5093.6,-3693.8 -5093.6,-3693.8 			"/>
		</g>
		<g transform="matrix(1,0,0,1,5945,4205)">
			<path vector-effect="non-scaling-stroke" class="st0" d="M-5822.6-3462.1l4.4,17.8l-73.5-4.8l-4.3-17.3l40.8-22.7l-46.7-0.6
				l-4.4-17.5l62.7-38.5l4.4,17.5l-41.4,23.9l47.5,0.6l4.3,17.4l-41.8,22.5L-5822.6-3462.1"/>
		</g>
		<g transform="matrix(1,0,0,1,5945,4205)">
			<polygon class="st1" points="-5093.6,-3693.8 -5093.6,-3693.8 -5093.6,-3693.8 			"/>
		</g>
		<g transform="matrix(1,0,0,1,5945,4205)">
			<path vector-effect="non-scaling-stroke" class="st0" d="M-4881.6-3693.8c0,19.7-16,35.7-35.7,35.7c-19.7,0-35.7-16-35.7-35.7
				c0-19.7,16-35.7,35.7-35.7C-4897.6-3729.5-4881.6-3713.5-4881.6-3693.8"/>
		</g>
		<g transform="matrix(1,0,0,1,5945,4205)">
			<polygon class="st1" points="-5093.6,-3693.8 -5093.6,-3693.8 -5093.6,-3693.8 			"/>
		</g>
		<g transform="matrix(1,0,0,1,5945,4205)">
			<path vector-effect="non-scaling-stroke" class="st0" d="M-5802.2-3407.6c3.7,9.8,3.3,18.7-1,26.8c-4.3,8.1-13.2,14.5-26.6,19.2
				l-16.3-43.5c-5.1,2.1-8.6,5-10.4,8.7c-1.9,3.8-2,7.6-0.5,11.6c1,2.7,2.6,4.7,4.8,6c2.2,1.3,5.1,1.8,8.8,1.5l3.6,18.4
				c-7.2,0.2-13.3-1.5-18.5-5.1c-5.1-3.6-9-8.9-11.7-16.2c-4.3-11.4-3.7-21.3,1.7-29.6c4.4-6.6,11.1-11.6,20.2-15
				c10.9-4.1,20.5-4.4,28.8-1.1C-5811.3-3422.4-5805.5-3416.3-5802.2-3407.6"/>
		</g>
		<g transform="matrix(1,0,0,1,5945,4205)">
			<polygon class="st1" points="-5093.6,-3693.8 -5093.6,-3693.8 -5093.6,-3693.8 			"/>
		</g>
		<g transform="matrix(1,0,0,1,5945,4205)">
			<path vector-effect="non-scaling-stroke" class="st0" d="M-5845.3-3824.9l-2.2,18.4l-32-3.9c-9.8-1.2-15.8-1.6-18.1-1.2
				c-2.3,0.4-4.2,1.4-5.7,3.1c-1.5,1.6-2.4,3.8-2.8,6.6c-0.4,3.1,0.1,6.1,1.6,8.8c1.4,2.7,3.4,4.7,5.8,5.9c2.4,1.2,8.7,2.4,18.6,3.7
				l29.4,3.6l-2.2,18.4l-69.6-8.5l2.1-17.1l10.4,1.3c-3.4-3-5.9-6.7-7.6-11.1c-1.6-4.4-2.2-8.9-1.6-13.5c0.6-4.7,2.1-8.8,4.6-12.2
				s5.7-5.8,9.6-7s9.2-1.4,15.7-0.6L-5845.3-3824.9"/>
		</g>
		<g transform="matrix(1,0,0,1,5945,4205)">
			<polygon class="st1" points="-5093.6,-3693.8 -5093.6,-3693.8 -5093.6,-3693.8 			"/>
		</g>
		<g transform="matrix(1,0,0,1,5945,4205)">
			<path vector-effect="non-scaling-stroke" class="st0" d="M-5769.3-3330.8c1.8,3.8,2.5,8,2,12.5l-17.1,1.7c0.5-3.7,0.2-6.8-1-9.2
				c-1.1-2.4-2.7-4-4.8-5.1c-2.1-1-5-1.2-8.8-0.6c-3.8,0.7-11.1,3.5-21.9,8.6l-19.6,9.2l-7.9-16.8l63.5-29.8l7.3,15.6l-9,4.2
				c5.5,0.7,9.5,1.7,11.8,3.2C-5772.4-3335.6-5770.6-3333.5-5769.3-3330.8"/>
		</g>
		<g transform="matrix(1,0,0,1,5945,4205)">
			<polygon class="st1" points="-5093.6,-3693.8 -5093.6,-3693.8 -5093.6,-3693.8 			"/>
		</g>
		<g transform="matrix(1,0,0,1,5945,4205)">
			<path vector-effect="non-scaling-stroke" class="st0" d="M-5810.7-3961.6l-5.1,16.5l-9.5-3c3.6,4.2,5.8,7.7,6.5,10.4
				c0.7,2.7,0.6,5.5-0.2,8.3c-1.3,4-3.6,7.6-7,10.6l-13.7-10.3c2.9-2.4,4.7-4.9,5.5-7.4c0.8-2.5,0.7-4.8-0.1-6.9
				c-0.8-2.2-2.9-4.3-6.1-6.4c-3.3-2.1-10.6-4.9-22-8.5l-20.7-6.4l5.5-17.7L-5810.7-3961.6"/>
		</g>
		<g transform="matrix(1,0,0,1,5945,4205)">
			<polygon class="st1" points="-5093.6,-3693.8 -5093.6,-3693.8 -5093.6,-3693.8 			"/>
		</g>
		<g transform="matrix(1,0,0,1,5945,4205)">
			<path vector-effect="non-scaling-stroke" class="st0" d="M-5866.1-3576.2c3.2-3.7,4.6-8,3.9-12.8c-0.6-4.8-3-8.6-7.1-11.4
				c-4.1-2.8-9.6-3.8-16.5-2.9c-6.9,0.9-12,3.2-15.2,7c-3.2,3.8-4.6,8-3.9,12.8c0.6,4.8,3,8.6,7.1,11.4c4.1,2.8,9.6,3.7,16.6,2.8
				C-5874.4-3570.2-5869.4-3572.5-5866.1-3576.2"/>
		</g>
		<g transform="matrix(1,0,0,1,5945,4205)">
			<polygon class="st1" points="-5093.6,-3693.8 -5093.6,-3693.8 -5093.6,-3693.8 			"/>
		</g>
		<g transform="matrix(1,0,0,1,5945,4205)">
			<path vector-effect="non-scaling-stroke" class="st0" d="M-5846.4-3881.7c1-4.3,0.1-8.3-2.7-11.9c-2.8-3.7-7.5-6.3-14.3-7.8
				c-7.3-1.6-12.8-1.8-16.5-0.5c-5.4,1.9-8.7,5.4-9.8,10.7c-0.9,4.2,0,8.1,2.9,11.8c2.9,3.7,7.9,6.4,14.9,7.9
				c7.9,1.8,13.8,1.6,17.9-0.5C-5849.9-3874.1-5847.4-3877.3-5846.4-3881.7"/>
		</g>
		<g transform="matrix(1,0,0,1,5945,4205)">
			<polygon class="st1" points="-5093.6,-3693.8 -5093.6,-3693.8 -5093.6,-3693.8 			"/>
		</g>
		<g transform="matrix(1,0,0,1,5945,4205)">
			<path vector-effect="non-scaling-stroke" class="st0" d="M-4509.4-3693.8c0,9.5-7.7,17.3-17.3,17.3s-17.3-7.7-17.3-17.3
				s7.7-17.3,17.3-17.3S-4509.4-3703.3-4509.4-3693.8"/>
		</g>
		<g transform="matrix(1,0,0,1,5945,4205)">
			<polygon class="st1" points="-5093.6,-3693.8 -5093.6,-3693.8 -5093.6,-3693.8 			"/>
		</g>
		<g transform="matrix(1,0,0,1,5945,4205)">
			<path vector-effect="non-scaling-stroke" class="st0" d="M-4278.6-3619.9c0.3,0.7,0.3,1.7-0.1,3l-3.7,12.2c-1.1,3.8-3,6.5-5.5,8
				c-2.5,1.5-5.1,1.9-7.8,1.1c-1.7-0.5-3.1-1.5-4.2-2.8c-1.1-1.4-1.9-3.2-2.3-5.5c-1.3,0.8-3,1.7-4.9,2.5c-1.2,0.5-3.1,1.1-5.7,1.9
				c-0.4,1.4-0.8,2.2-1.2,2.6c-0.8,0.6-1.7,0.8-2.6,0.5c-0.8-0.2-1.4-0.7-1.7-1.4s-0.3-1.7,0.1-3l0.9-3.1c8.1-2.4,13.2-4.8,15.4-7.2
				l1.6-5.3l-6.8-2l-0.6,1.9c-0.4,1.3-0.9,2.2-1.6,2.6c-0.7,0.4-1.4,0.5-2.2,0.2c-0.8-0.2-1.4-0.7-1.7-1.4c-0.3-0.7-0.3-1.7,0.1-3
				l2.4-8.2c0.4-1.3,0.9-2.2,1.6-2.6c0.7-0.4,1.4-0.5,2.2-0.2c0.8,0.2,1.4,0.7,1.7,1.4c0.3,0.7,0.3,1.7-0.1,3l-0.3,0.8l21.1,6.3
				l0.3-0.8c0.4-1.3,0.9-2.2,1.6-2.6c0.7-0.4,1.4-0.5,2.2-0.2C-4279.5-3621-4278.9-3620.6-4278.6-3619.9"/>
		</g>
		<g transform="matrix(1,0,0,1,5945,4205)">
			<polygon class="st1" points="-5093.6,-3693.8 -5093.6,-3693.8 -5093.6,-3693.8 			"/>
		</g>
		<g transform="matrix(1,0,0,1,5945,4205)">
			<path vector-effect="non-scaling-stroke" class="st0" d="M-4294.3-3814.1c1.6,3.5,2,6.6,1,9.5c-0.9,2.9-2.8,5-5.5,6.2
				c-1.5,0.7-3.1,1-4.7,1c-1.2,0-2.6-0.4-4.2-1.2c-1.5-0.8-2.8-1.6-3.9-2.7c-1.1-1-2.1-2.6-3.1-4.6l-2.3-4.8l-5.3,2.5l2.4,5.2
				c0.6,1.2,0.7,2.2,0.5,3c-0.2,0.7-0.7,1.3-1.5,1.7c-0.7,0.3-1.5,0.4-2.2,0.1c-0.7-0.3-1.4-1.1-1.9-2.3l-5.2-11.1
				c-0.6-1.2-0.7-2.2-0.5-3c0.2-0.7,0.7-1.3,1.5-1.7c0.7-0.3,1.5-0.4,2.2-0.1c0.7,0.3,1.4,1.1,1.9,2.3l0.4,0.8l20-9.3l-0.4-0.8
				c-0.6-1.2-0.7-2.2-0.5-3c0.2-0.7,0.7-1.3,1.5-1.7c0.8-0.4,1.5-0.4,2.2-0.1s1.4,1.1,1.9,2.3L-4294.3-3814.1"/>
		</g>
		<g transform="matrix(1,0,0,1,5945,4205)">
			<polygon class="st1" points="-5093.6,-3693.8 -5093.6,-3693.8 -5093.6,-3693.8 			"/>
		</g>
		<g transform="matrix(1,0,0,1,5945,4205)">
			<path vector-effect="non-scaling-stroke" class="st0" d="M-5708.2-3495.4c0,7.8-6.3,14.2-14.2,14.2c-7.8,0-14.2-6.3-14.2-14.2
				c0-7.8,6.3-14.2,14.2-14.2C-5714.5-3509.5-5708.2-3503.2-5708.2-3495.4"/>
		</g>
		<g transform="matrix(1,0,0,1,5945,4205)">
			<polygon class="st1" points="-5093.6,-3693.8 -5093.6,-3693.8 -5093.6,-3693.8 			"/>
		</g>
		<g transform="matrix(1,0,0,1,5945,4205)">
			<path vector-effect="non-scaling-stroke" class="st0" d="M-5708.2-3892.2c0,7.8-6.3,14.2-14.2,14.2c-7.8,0-14.2-6.3-14.2-14.2
				s6.3-14.2,14.2-14.2C-5714.5-3906.4-5708.2-3900-5708.2-3892.2"/>
		</g>
		<g transform="matrix(1,0,0,1,5945,4205)">
			<polygon class="st1" points="-5093.6,-3693.8 -5093.6,-3693.8 -5093.6,-3693.8 			"/>
		</g>
		<g transform="matrix(1,0,0,1,5945,4205)">
			<path vector-effect="non-scaling-stroke" class="st0" d="M-4302.9-3555.4c0.1,0.8-0.1,1.7-0.8,2.9l-4.4,7.3
				c-0.7,1.2-1.4,1.9-2.2,2.1c-0.7,0.2-1.5,0.1-2.2-0.3c-0.7-0.4-1.2-1-1.3-1.8c-0.1-0.8,0.1-1.7,0.8-2.9l1.1-1.7l-7.2-4.3l2.2,13
				c0.7-0.3,1.2-0.4,1.6-0.4c0.4,0,0.9,0.1,1.3,0.4c0.7,0.4,1.2,1.1,1.3,1.8c0.2,0.8-0.1,1.7-0.8,2.9l-3,4.9
				c-0.7,1.2-1.4,1.9-2.2,2.1c-0.7,0.2-1.5,0.1-2.2-0.3c-0.7-0.4-1.1-1-1.3-1.8c-0.2-0.8,0.1-1.7,0.7-2.7l-2.3-13.2
				c-1.9,1.1-4.2,1.7-7,2c-2.8,0.3-5.9,0.1-9.3-0.5l-0.8,1.3c-0.7,1.1-1.4,1.8-2.2,2.1s-1.5,0.1-2.2-0.3c-0.7-0.4-1.1-1-1.3-1.8
				c-0.2-0.8,0.1-1.7,0.8-2.9l2.6-4.4c3,0.4,6,0.7,8.9,0.9c2.4,0.1,4.2,0,5.5-0.4c1.3-0.4,2.6-1,3.8-1.9l-0.7-4.5l-5.3-3.2l-1.1,1.7
				c-0.7,1.2-1.4,1.9-2.2,2.1c-0.7,0.2-1.5,0.1-2.2-0.3c-0.7-0.4-1.1-1-1.3-1.8c-0.1-0.8,0.1-1.7,0.8-2.9l4.4-7.3
				c0.7-1.2,1.4-1.9,2.2-2.1c0.7-0.2,1.5-0.1,2.2,0.3c0.7,0.4,1.1,1,1.3,1.8c0.1,0.8-0.1,1.7-0.8,2.9l-0.5,0.8l18.9,11.4l0.5-0.8
				c0.7-1.2,1.4-1.9,2.2-2.1c0.7-0.2,1.5-0.1,2.2,0.3C-4303.4-3556.7-4303-3556.1-4302.9-3555.4"/>
		</g>
		<g transform="matrix(1,0,0,1,5945,4205)">
			<polygon class="st1" points="-5093.6,-3693.8 -5093.6,-3693.8 -5093.6,-3693.8 			"/>
		</g>
		<g transform="matrix(1,0,0,1,5945,4205)">
			<path vector-effect="non-scaling-stroke" class="st0" d="M-4305.9-3838.1c0.4,0.7,0.5,1.4,0.3,2.2c-0.2,0.7-0.9,1.5-2.1,2.2
				l-3.1,1.9c-1.2,0.7-2.1,1-2.9,0.8c-0.8-0.1-1.4-0.6-1.8-1.3c-0.3-0.6-0.5-1.2-0.4-1.8c0-0.5,0.4-1,1.1-1.7
				c0.7-0.7,1.1-1.3,1.2-1.7c0.2-0.7,0.1-1.7-0.2-3c-0.3-1.3-0.9-2.6-1.7-3.9c-1.2-1.9-2.6-3.3-4.2-4.3c-1.2-0.6-2.8-1-4.7-0.9
				c-2,0-3.8,0.6-5.5,1.6l-3.5,2.1c-2.6,1.6-4.1,3.5-4.5,5.8c-0.4,2.3,0.4,5.1,2.3,8.3c1.3,2.2,3,4,4.9,5.3l3.4-2.1l-3-4.9
				c-0.7-1.2-1-2.1-0.8-2.9c0.1-0.8,0.6-1.4,1.3-1.8c0.7-0.4,1.5-0.5,2.2-0.3c0.7,0.2,1.5,0.9,2.2,2.1l5.2,8.6
				c0.7,1.2,1,2.1,0.9,2.9c-0.1,0.8-0.6,1.4-1.3,1.8c-0.6,0.3-1.2,0.5-1.8,0.4c-0.6-0.1-1.3-0.4-1.9-1l-6.5,3.9
				c-2.5-1.5-4.4-2.8-5.8-4.1c-1.4-1.3-2.6-2.8-3.7-4.5c-1.5-2.5-2.5-5-3.1-7.5c-0.4-2-0.5-3.7-0.2-5.2c0.3-1.5,1-3.1,2.2-4.9
				c1.2-1.8,2.8-3.4,4.9-4.6l3.5-2.1c3.2-2,6.7-2.7,10.4-2.3c5,0.5,8.9,3.1,11.7,7.6c0.8,1.3,1.4,2.6,1.9,4c0.5,1.3,0.7,2.7,0.9,4.1
				C-4307-3839.1-4306.3-3838.7-4305.9-3838.1"/>
		</g>
		<g transform="matrix(1,0,0,1,5945,4205)">
			<polygon class="st1" points="-5093.6,-3693.8 -5093.6,-3693.8 -5093.6,-3693.8 			"/>
		</g>
		<g transform="matrix(1,0,0,1,5945,4205)">
			<path vector-effect="non-scaling-stroke" class="st0" d="M-4280.1-3775.7c0.3,0.8,0.2,1.5-0.2,2.2c-0.4,0.7-1.2,1.2-2.5,1.7
				l-4,1.3c-1.3,0.4-2.3,0.5-3,0.2c-0.7-0.3-1.2-0.9-1.5-1.6c-0.2-0.7-0.2-1.3,0-1.9c0.2-0.5,0.7-1,1.5-1.5c0.8-0.5,1.4-0.9,1.7-1.4
				c0.5-0.7,0.8-1.7,0.9-2.8s0-2.4-0.5-3.7c-0.6-1.9-1.6-3.3-2.9-4.1c-1.3-0.8-2.4-1.1-3.4-0.7c-0.7,0.2-1.2,0.7-1.7,1.3
				c-0.5,0.7-0.7,1.5-0.8,2.5c0,0.7,0.1,2.5,0.5,5.4c0.4,2.9,0.5,5.2,0.3,6.9c-0.2,1.7-0.7,3.2-1.8,4.7c-1,1.4-2.5,2.5-4.4,3.1
				c-2.6,0.9-5.1,0.7-7.3-0.7c-2.9-1.8-5-4.6-6.3-8.4c-0.5-1.5-0.8-3-0.9-4.5c-0.1-1.5,0-3.1,0.2-4.6c-0.7-0.3-1.2-0.5-1.4-0.8
				s-0.4-0.6-0.6-1c-0.3-0.8-0.2-1.6,0.2-2.2c0.4-0.7,1.2-1.2,2.5-1.7l3.6-1.2c1.3-0.4,2.3-0.5,3-0.2c0.7,0.3,1.2,0.9,1.5,1.7
				c0.2,0.6,0.2,1.2,0,1.7c-0.2,0.5-0.6,1-1.3,1.5c-0.7,0.5-1.1,0.9-1.3,1.2c-0.4,0.7-0.6,1.8-0.7,3.2c-0.1,1.5,0.1,3,0.6,4.5
				c0.8,2.4,2,4.1,3.6,5.3c1,0.7,2,1,3,0.6c0.7-0.2,1.2-0.7,1.6-1.3c0.4-0.7,0.7-1.6,0.7-2.8c0-0.8-0.1-2.5-0.5-5
				c-0.4-3.1-0.5-5.5-0.3-7.3c0.3-1.8,0.9-3.3,2-4.6c1.1-1.3,2.5-2.3,4.1-2.8c2.6-0.9,5.2-0.5,7.8,1c2.6,1.5,4.5,4,5.7,7.4
				c0.5,1.4,0.7,2.7,0.8,4c0.1,1.3,0,2.5-0.3,3.7C-4280.9-3776.9-4280.4-3776.4-4280.1-3775.7"/>
		</g>
		<g transform="matrix(1,0,0,1,5945,4205)">
			<polygon class="st1" points="-5093.6,-3693.8 -5093.6,-3693.8 -5093.6,-3693.8 			"/>
		</g>
		<g transform="matrix(1,0,0,1,5945,4205)">
			<path vector-effect="non-scaling-stroke" class="st0" d="M-4298.4-3577.4l2.4-5.6l-4.9-2.1c-1.2-0.5-2-1.2-2.4-1.9
				c-0.3-0.7-0.3-1.4,0-2.2c0.3-0.8,0.9-1.3,1.6-1.5c0.7-0.3,1.7-0.1,3,0.4l10.1,4.3l-11.5,26.8l-10.1-4.3c-1.2-0.5-2-1.2-2.4-1.9
				c-0.3-0.7-0.3-1.4,0-2.2c0.3-0.8,0.9-1.3,1.6-1.5c0.7-0.3,1.7-0.1,3,0.4l4.9,2.1l2.4-5.7l-20.3-8.7l-1.5,3.5
				c-0.5,1.2-1.2,2-1.9,2.4c-0.7,0.3-1.4,0.3-2.2,0c-0.8-0.3-1.3-0.9-1.5-1.6c-0.3-0.7-0.1-1.7,0.4-3l5.2-12.1
				c0.5-1.2,1.2-2,1.9-2.4c0.7-0.3,1.4-0.3,2.2,0c0.8,0.3,1.3,0.9,1.5,1.6c0.3,0.7,0.1,1.7-0.4,3l-1.5,3.5L-4298.4-3577.4"/>
		</g>
		<g transform="matrix(1,0,0,1,5945,4205)">
			<polygon class="st1" points="-5093.6,-3693.8 -5093.6,-3693.8 -5093.6,-3693.8 			"/>
		</g>
		<g transform="matrix(1,0,0,1,5945,4205)">
			<path vector-effect="non-scaling-stroke" class="st0" d="M-5784.3-4017.6l-28-26l-10.3,24.3L-5784.3-4017.6"/>
		</g>
		<g transform="matrix(1,0,0,1,5945,4205)">
			<polygon class="st1" points="-5093.6,-3693.8 -5093.6,-3693.8 -5093.6,-3693.8 			"/>
		</g>
		<g transform="matrix(1,0,0,1,5945,4205)">
			<path vector-effect="non-scaling-stroke" class="st0" d="M-4905.7-4062.3c0,6.4-5.2,11.6-11.6,11.6c-6.4,0-11.6-5.2-11.6-11.6
				c0-6.4,5.2-11.6,11.6-11.6C-4910.9-4073.9-4905.7-4068.7-4905.7-4062.3"/>
		</g>
		<g transform="matrix(1,0,0,1,5945,4205)">
			<polygon class="st1" points="-5093.6,-3693.8 -5093.6,-3693.8 -5093.6,-3693.8 			"/>
		</g>
		<g transform="matrix(1,0,0,1,5945,4205)">
			<path vector-effect="non-scaling-stroke" class="st0" d="M-5041.8-3693.8c0,6.4-5.2,11.6-11.6,11.6c-6.4,0-11.6-5.2-11.6-11.6
				s5.2-11.6,11.6-11.6C-5047-3705.4-5041.8-3700.2-5041.8-3693.8"/>
		</g>
		<g transform="matrix(1,0,0,1,5945,4205)">
			<polygon class="st1" points="-5093.6,-3693.8 -5093.6,-3693.8 -5093.6,-3693.8 			"/>
		</g>
		<g transform="matrix(1,0,0,1,5945,4205)">
			<path vector-effect="non-scaling-stroke" class="st0" d="M-4905.7-3325.3c0,6.4-5.2,11.6-11.6,11.6c-6.4,0-11.6-5.2-11.6-11.6
				s5.2-11.6,11.6-11.6C-4910.9-3336.9-4905.7-3331.7-4905.7-3325.3"/>
		</g>
		<g transform="matrix(1,0,0,1,5945,4205)">
			<polygon class="st1" points="-5093.6,-3693.8 -5093.6,-3693.8 -5093.6,-3693.8 			"/>
		</g>
		<g transform="matrix(1,0,0,1,5945,4205)">
			<path vector-effect="non-scaling-stroke" class="st0" d="M-5710.7-3325.3c0,6.4-5.2,11.6-11.6,11.6c-6.4,0-11.6-5.2-11.6-11.6
				s5.2-11.6,11.6-11.6C-5715.9-3336.9-5710.7-3331.7-5710.7-3325.3"/>
		</g>
		<g transform="matrix(1,0,0,1,5945,4205)">
			<polygon class="st1" points="-5093.6,-3693.8 -5093.6,-3693.8 -5093.6,-3693.8 			"/>
		</g>
		<g transform="matrix(1,0,0,1,5945,4205)">
			<path vector-effect="non-scaling-stroke" class="st0" d="M-5710.7-4062.3c0,6.4-5.2,11.6-11.6,11.6c-6.4,0-11.6-5.2-11.6-11.6
				c0-6.4,5.2-11.6,11.6-11.6C-5715.9-4073.9-5710.7-4068.7-5710.7-4062.3"/>
		</g>
		<g transform="matrix(1,0,0,1,5945,4205)">
			<polygon class="st1" points="-5093.6,-3693.8 -5093.6,-3693.8 -5093.6,-3693.8 			"/>
		</g>
		<g transform="matrix(1,0,0,1,5945,4205)">
			<path vector-effect="non-scaling-stroke" class="st0" d="M-5815.7-3391.1c1.7-3.5,1.9-7,0.5-10.5c-1.4-3.8-4-6.4-7.7-7.8
				c-3.7-1.4-7.9-1.2-12.6,0.6l9.8,26C-5820.7-3384.9-5817.4-3387.6-5815.7-3391.1"/>
		</g>
		<g transform="matrix(1,0,0,1,5945,4205)">
			<polygon class="st1" points="-5093.6,-3693.8 -5093.6,-3693.8 -5093.6,-3693.8 			"/>
		</g>
		<g transform="matrix(1,0,0,1,5945,4205)">
			<path vector-effect="non-scaling-stroke" class="st0" d="M-5044.6-3948.9c0,4.9-3.9,8.8-8.8,8.8c-4.9,0-8.8-3.9-8.8-8.8
				s3.9-8.8,8.8-8.8C-5048.5-3957.7-5044.6-3953.8-5044.6-3948.9"/>
		</g>
		<g transform="matrix(1,0,0,1,5945,4205)">
			<polygon class="st1" points="-5093.6,-3693.8 -5093.6,-3693.8 -5093.6,-3693.8 			"/>
		</g>
		<g transform="matrix(1,0,0,1,5945,4205)">
			<path vector-effect="non-scaling-stroke" class="st0" d="M-5044.6-3438.7c0,4.9-3.9,8.8-8.8,8.8c-4.9,0-8.8-3.9-8.8-8.8
				c0-4.9,3.9-8.8,8.8-8.8C-5048.5-3447.5-5044.6-3443.5-5044.6-3438.7"/>
		</g>
		<g transform="matrix(1,0,0,1,5945,4205)">
			<polygon class="st1" points="-5093.6,-3693.8 -5093.6,-3693.8 -5093.6,-3693.8 			"/>
		</g>
		<g transform="matrix(1,0,0,1,5945,4205)">
			<path vector-effect="non-scaling-stroke" class="st0" d="M-4298.6-3806.6c0.4-1.5,0.2-3.2-0.8-5.1l-2.7-5.9l-9.6,4.5l2.2,4.7
				c1,2.2,2.4,3.8,4,4.6c1.6,0.8,3.1,0.9,4.5,0.3C-4299.8-3804.1-4299-3805.1-4298.6-3806.6"/>
		</g>
		<g transform="matrix(1,0,0,1,5945,4205)">
			<polygon class="st1" points="-5093.6,-3693.8 -5093.6,-3693.8 -5093.6,-3693.8 			"/>
		</g>
		<g transform="matrix(1,0,0,1,5945,4205)">
			<path vector-effect="non-scaling-stroke" class="st0" d="M-4283.6-3706.9l0.1,23.5l-5.1,0l-0.1-23.5L-4283.6-3706.9"/>
		</g>
		<g transform="matrix(1,0,0,1,5945,4205)">
			<polygon class="st1" points="-5093.6,-3693.8 -5093.6,-3693.8 -5093.6,-3693.8 			"/>
		</g>
		<g transform="matrix(1,0,0,1,5945,4205)">
			<path vector-effect="non-scaling-stroke" class="st0" d="M-4287.8-3606l1.8-6.2l-8.9-2.7l-1.3,4.2c-0.5,1.6-0.6,3-0.5,4.4
				c0.1,1.8,0.5,3.1,1,3.9c0.5,0.8,1.1,1.3,1.8,1.5c1,0.3,2.1,0,3.3-0.8C-4289.3-3602.5-4288.4-3603.9-4287.8-3606"/>
		</g>
		<g transform="matrix(1,0,0,1,5945,4205)">
			<polygon class="st1" points="-5093.6,-3693.8 -5093.6,-3693.8 -5093.6,-3693.8 			"/>
		</g>
		<g transform="matrix(1,0,0,1,5945,4205)">
			<path vector-effect="non-scaling-stroke" class="st0" d="M-5445.1-3788.3c0,1.6-1.3,2.8-2.8,2.8c-1.6,0-2.8-1.3-2.8-2.8
				s1.3-2.8,2.8-2.8C-5446.4-3791.1-5445.1-3789.8-5445.1-3788.3"/>
		</g>
		<g transform="matrix(1,0,0,1,5945,4205)">
			<polygon class="st1" points="-5093.6,-3693.8 -5093.6,-3693.8 -5093.6,-3693.8 			"/>
		</g>
		<g transform="matrix(1,0,0,1,5945,4205)">
			<path vector-effect="non-scaling-stroke" class="st0" d="M-5445.1-3599.3c0,1.6-1.3,2.8-2.8,2.8c-1.6,0-2.8-1.3-2.8-2.8
				c0-1.6,1.3-2.8,2.8-2.8C-5446.4-3602.1-5445.1-3600.9-5445.1-3599.3"/>
		</g>
		<g transform="matrix(1,0,0,1,5945,4205)">
			<polygon class="st1" points="-5093.6,-3693.8 -5093.6,-3693.8 -5093.6,-3693.8 			"/>
		</g>
		<g transform="matrix(1,0,0,1,5945,4205)">
			<path vector-effect="none" class="st2" d="M-5782.6-4192.3c-104.9,145-161.4,319.5-161.4,498.5"/>
		</g>
		<g transform="matrix(1,0,0,1,5945,4205)">
			<path vector-effect="none" class="st2" d="M-5737.9-4193.9c-5.6-6.7-14-10.4-22.7-10.1c-8.7,0.3-16.8,4.6-21.9,11.7"/>
		</g>
		<g transform="matrix(1,0,0,1,5945,4205)">
			<path vector-effect="none" class="st2" d="M-5944-3693.8c0,179,56.5,353.5,161.4,498.5"/>
		</g>
		<g transform="matrix(1,0,0,1,5945,4205)">
			<path vector-effect="none" class="st2" d="M-5702.5-4151.7l-35.4-42.2"/>
		</g>
		<g transform="matrix(1,0,0,1,5945,4205)">
			<path vector-effect="none" class="st2" d="M-5782.6-3195.3c5.1,7.1,13.2,11.4,21.9,11.7c8.7,0.3,17.1-3.4,22.7-10.1"/>
		</g>
		<g transform="matrix(1,0,0,1,5945,4205)">
			<path vector-effect="none" class="st2" d="M-5702.5-4151.7c5.4,6.4,13.3,10.1,21.7,10.1"/>
		</g>
		<g transform="matrix(1,0,0,1,5945,4205)">
			<path vector-effect="none" class="st2" d="M-5702.5-3235.8l-35.4,42.2"/>
		</g>
		<g transform="matrix(1,0,0,1,5945,4205)">
			<path vector-effect="none" class="st2" d="M-5123-4141.6h-557.8"/>
		</g>
		<g transform="matrix(1,0,0,1,5945,4205)">
			<path vector-effect="none" class="st2" d="M-5680.8-3245.9c-8.4,0-16.3,3.7-21.7,10.1"/>
		</g>
		<g transform="matrix(1,0,0,1,5945,4205)">
			<path vector-effect="none" class="st2" d="M-5123-4141.6c8.2,0,16-3.6,21.4-9.8"/>
		</g>
		<g transform="matrix(1,0,0,1,5945,4205)">
			<path vector-effect="none" class="st2" d="M-5123-3245.9h-557.8"/>
		</g>
		<g transform="matrix(1,0,0,1,5945,4205)">
			<path vector-effect="none" class="st2" d="M-5064.4-4194.2l-37.2,42.8"/>
		</g>
		<g transform="matrix(1,0,0,1,5945,4205)">
			<path vector-effect="none" class="st2" d="M-5101.6-3236.2c-5.4-6.2-13.2-9.8-21.4-9.8"/>
		</g>
		<g transform="matrix(1,0,0,1,5945,4205)">
			<path vector-effect="none" class="st2" d="M-5043-4204c-8.2,0-16,3.6-21.4,9.8"/>
		</g>
		<g transform="matrix(1,0,0,1,5945,4205)">
			<path vector-effect="none" class="st2" d="M-5064.4-3193.3l-37.2-42.8"/>
		</g>
		<g transform="matrix(1,0,0,1,5945,4205)">
			<path vector-effect="none" class="st2" d="M-4866.3-4204H-5043"/>
		</g>
		<g transform="matrix(1,0,0,1,5945,4205)">
			<path vector-effect="none" class="st2" d="M-5064.4-3193.3c5.4,6.2,13.2,9.8,21.4,9.8"/>
		</g>
		<g transform="matrix(1,0,0,1,5945,4205)">
			<path vector-effect="none" class="st2" d="M-4837.9-4175.7c0-15.7-12.7-28.3-28.3-28.3"/>
		</g>
		<g transform="matrix(1,0,0,1,5945,4205)">
			<path vector-effect="none" class="st2" d="M-4866.3-3183.6H-5043"/>
		</g>
		<g transform="matrix(1,0,0,1,5945,4205)">
			<path vector-effect="none" class="st2" d="M-4837.9-4118.9v-56.7"/>
		</g>
		<g transform="matrix(1,0,0,1,5945,4205)">
			<path vector-effect="none" class="st2" d="M-4866.3-3183.6c15.7,0,28.3-12.7,28.3-28.3"/>
		</g>
		<g transform="matrix(1,0,0,1,5945,4205)">
			<path vector-effect="none" class="st2" d="M-4837.9-4118.9c70.7,99.7,189.5,153.8,311.1,141.7"/>
		</g>
		<g transform="matrix(1,0,0,1,5945,4205)">
			<path vector-effect="none" class="st2" d="M-4837.9-3268.6v56.7"/>
		</g>
		<g transform="matrix(1,0,0,1,5945,4205)">
			<path vector-effect="none" class="st2" d="M-4243.2-3693.8c0-156.6-127-283.5-283.6-283.5"/>
		</g>
		<g transform="matrix(1,0,0,1,5945,4205)">
			<path vector-effect="none" class="st2" d="M-4526.8-3410.3c-121.6-12.1-240.4,42-311.1,141.7"/>
		</g>
		<g transform="matrix(1,0,0,1,5945,4205)">
			<path vector-effect="none" class="st2" d="M-4526.8-3410.3c156.6,0.1,283.6-126.9,283.6-283.5"/>
		</g>
		<g transform="matrix(1,0,0,1,5945,4205)">
			<path vector-effect="none" class="st2" d="M-5820.8-3322.8l-19.6,9.2"/>
		</g>
		<g transform="matrix(1,0,0,1,5945,4205)">
			<path vector-effect="none" class="st2" d="M-5798.9-3331.4c-3.8,0.7-11.1,3.5-21.9,8.6"/>
		</g>
		<g transform="matrix(1,0,0,1,5945,4205)">
			<path vector-effect="none" class="st2" d="M-5840.5-3313.6l-7.9-16.8"/>
		</g>
		<g transform="matrix(1,0,0,1,5945,4205)">
			<path vector-effect="none" class="st2" d="M-5790.1-3330.8c-2.1-1-5-1.2-8.8-0.6"/>
		</g>
		<g transform="matrix(1,0,0,1,5945,4205)">
			<path vector-effect="none" class="st2" d="M-5848.3-3330.4l63.5-29.8"/>
		</g>
		<g transform="matrix(1,0,0,1,5945,4205)">
			<path vector-effect="none" class="st2" d="M-5785.3-3325.8c-1.1-2.4-2.7-4-4.8-5.1"/>
		</g>
		<g transform="matrix(1,0,0,1,5945,4205)">
			<path vector-effect="none" class="st2" d="M-5784.9-3360.2l7.3,15.6"/>
		</g>
		<g transform="matrix(1,0,0,1,5945,4205)">
			<path vector-effect="none" class="st2" d="M-5784.3-3316.6c0.5-3.7,0.2-6.8-1-9.2"/>
		</g>
		<g transform="matrix(1,0,0,1,5945,4205)">
			<path vector-effect="none" class="st2" d="M-5777.5-3344.6l-9,4.2"/>
		</g>
		<g transform="matrix(1,0,0,1,5945,4205)">
			<path vector-effect="none" class="st2" d="M-5767.3-3318.3l-17.1,1.7"/>
		</g>
		<g transform="matrix(1,0,0,1,5945,4205)">
			<path vector-effect="none" class="st2" d="M-5786.5-3340.4c5.5,0.7,9.5,1.7,11.8,3.2"/>
		</g>
		<g transform="matrix(1,0,0,1,5945,4205)">
			<path vector-effect="none" class="st2" d="M-5769.3-3330.8c1.8,3.8,2.5,8,2,12.5"/>
		</g>
		<g transform="matrix(1,0,0,1,5945,4205)">
			<path vector-effect="none" class="st2" d="M-5774.7-3337.1c2.4,1.5,4.2,3.6,5.4,6.3"/>
		</g>
		<g transform="matrix(1,0,0,1,5945,4205)">
			<path vector-effect="none" class="st2" d="M-5710.7-3325.3c0,6.4-5.2,11.6-11.6,11.6c-6.4,0-11.6-5.2-11.6-11.6
				s5.2-11.6,11.6-11.6C-5715.9-3336.9-5710.7-3331.7-5710.7-3325.3"/>
		</g>
		<g transform="matrix(1,0,0,1,5945,4205)">
			<path vector-effect="none" class="st2" d="M-5852.4-3378.8c2.2,1.3,5.1,1.8,8.8,1.5"/>
		</g>
		<g transform="matrix(1,0,0,1,5945,4205)">
			<path vector-effect="none" class="st2" d="M-5857.2-3384.8c1,2.7,2.6,4.7,4.8,6"/>
		</g>
		<g transform="matrix(1,0,0,1,5945,4205)">
			<path vector-effect="none" class="st2" d="M-5843.6-3377.3l3.6,18.4"/>
		</g>
		<g transform="matrix(1,0,0,1,5945,4205)">
			<path vector-effect="none" class="st2" d="M-5856.6-3396.5c-1.9,3.8-2,7.6-0.5,11.6"/>
		</g>
		<g transform="matrix(1,0,0,1,5945,4205)">
			<path vector-effect="none" class="st2" d="M-5840-3358.9c-7.2,0.2-13.3-1.5-18.5-5.1"/>
		</g>
		<g transform="matrix(1,0,0,1,5945,4205)">
			<path vector-effect="none" class="st2" d="M-5846.2-3405.2c-5.1,2.1-8.6,5-10.4,8.7"/>
		</g>
		<g transform="matrix(1,0,0,1,5945,4205)">
			<path vector-effect="none" class="st2" d="M-5858.5-3364c-5.1-3.6-9-8.9-11.7-16.2"/>
		</g>
		<g transform="matrix(1,0,0,1,5945,4205)">
			<path vector-effect="none" class="st2" d="M-5829.8-3361.6l-16.3-43.5"/>
		</g>
		<g transform="matrix(1,0,0,1,5945,4205)">
			<path vector-effect="none" class="st2" d="M-5870.2-3380.1c-4.3-11.4-3.7-21.3,1.7-29.6"/>
		</g>
		<g transform="matrix(1,0,0,1,5945,4205)">
			<path vector-effect="none" class="st2" d="M-5803.2-3380.9c-4.3,8.1-13.2,14.5-26.6,19.2"/>
		</g>
		<g transform="matrix(1,0,0,1,5945,4205)">
			<path vector-effect="none" class="st2" d="M-5868.6-3409.7c4.4-6.6,11.1-11.6,20.2-15"/>
		</g>
		<g transform="matrix(1,0,0,1,5945,4205)">
			<path vector-effect="none" class="st2" d="M-5802.2-3407.6c3.7,9.8,3.3,18.7-1,26.8"/>
		</g>
		<g transform="matrix(1,0,0,1,5945,4205)">
			<path vector-effect="none" class="st2" d="M-5848.4-3424.7c10.9-4.1,20.5-4.4,28.8-1.1"/>
		</g>
		<g transform="matrix(1,0,0,1,5945,4205)">
			<path vector-effect="none" class="st2" d="M-5819.6-3425.7c8.3,3.4,14.1,9.4,17.4,18.1"/>
		</g>
		<g transform="matrix(1,0,0,1,5945,4205)">
			<path vector-effect="none" class="st2" d="M-5901.9-3489.7l-4.4-17.5"/>
		</g>
		<g transform="matrix(1,0,0,1,5945,4205)">
			<path vector-effect="none" class="st2" d="M-5855.2-3489.1l-46.7-0.6"/>
		</g>
		<g transform="matrix(1,0,0,1,5945,4205)">
			<path vector-effect="none" class="st2" d="M-5906.3-3507.2l62.7-38.5"/>
		</g>
		<g transform="matrix(1,0,0,1,5945,4205)">
			<path vector-effect="none" class="st2" d="M-5896.1-3466.4l40.8-22.7"/>
		</g>
		<g transform="matrix(1,0,0,1,5945,4205)">
			<path vector-effect="none" class="st2" d="M-5843.6-3545.8l4.4,17.5"/>
		</g>
		<g transform="matrix(1,0,0,1,5945,4205)">
			<path vector-effect="none" class="st2" d="M-5891.7-3449.1l-4.3-17.3"/>
		</g>
		<g transform="matrix(1,0,0,1,5945,4205)">
			<path vector-effect="none" class="st2" d="M-5839.2-3528.3l-41.4,23.9"/>
		</g>
		<g transform="matrix(1,0,0,1,5945,4205)">
			<path vector-effect="none" class="st2" d="M-5818.2-3444.3l-73.5-4.8"/>
		</g>
		<g transform="matrix(1,0,0,1,5945,4205)">
			<path vector-effect="none" class="st2" d="M-5880.6-3504.4l47.5,0.6"/>
		</g>
		<g transform="matrix(1,0,0,1,5945,4205)">
			<path vector-effect="none" class="st2" d="M-5822.6-3462.1l4.4,17.8"/>
		</g>
		<g transform="matrix(1,0,0,1,5945,4205)">
			<path vector-effect="none" class="st2" d="M-5833.1-3503.8l4.3,17.4"/>
		</g>
		<g transform="matrix(1,0,0,1,5945,4205)">
			<path vector-effect="none" class="st2" d="M-5870.5-3463.9l47.9,1.9"/>
		</g>
		<g transform="matrix(1,0,0,1,5945,4205)">
			<path vector-effect="none" class="st2" d="M-5828.7-3486.4l-41.8,22.5"/>
		</g>
		<g transform="matrix(1,0,0,1,5945,4205)">
			<path vector-effect="none" class="st2" d="M-5708.2-3495.4c0,7.8-6.3,14.2-14.2,14.2c-7.8,0-14.2-6.3-14.2-14.2
				c0-7.8,6.3-14.2,14.2-14.2C-5714.5-3509.5-5708.2-3503.2-5708.2-3495.4"/>
		</g>
		<g transform="matrix(1,0,0,1,5945,4205)">
			<path vector-effect="none" class="st2" d="M-5907-3615.1c5.2-3.7,11.8-6.1,19.8-7.2"/>
		</g>
		<g transform="matrix(1,0,0,1,5945,4205)">
			<path vector-effect="none" class="st2" d="M-5918-3600.3c2.1-6.2,5.8-11.1,11-14.8"/>
		</g>
		<g transform="matrix(1,0,0,1,5945,4205)">
			<path vector-effect="none" class="st2" d="M-5887.2-3622.3c6.1-0.8,12.2-0.1,18.3,2.2"/>
		</g>
		<g transform="matrix(1,0,0,1,5945,4205)">
			<path vector-effect="none" class="st2" d="M-5919.9-3581.5c-0.8-6.4-0.2-12.6,2-18.8"/>
		</g>
		<g transform="matrix(1,0,0,1,5945,4205)">
			<path vector-effect="none" class="st2" d="M-5868.9-3620.1c6.1,2.3,11,6,14.8,11.1"/>
		</g>
		<g transform="matrix(1,0,0,1,5945,4205)">
			<path vector-effect="none" class="st2" d="M-5906.2-3557.2c-7.8-5.9-12.4-14-13.7-24.3"/>
		</g>
		<g transform="matrix(1,0,0,1,5945,4205)">
			<path vector-effect="none" class="st2" d="M-5854.1-3609c3.7,5.1,6,11.1,6.9,17.9"/>
		</g>
		<g transform="matrix(1,0,0,1,5945,4205)">
			<path vector-effect="none" class="st2" d="M-5878.7-3550.4c-10.5,1.4-19.7-0.9-27.5-6.8"/>
		</g>
		<g transform="matrix(1,0,0,1,5945,4205)">
			<path vector-effect="none" class="st2" d="M-5847.2-3591.1c1.4,10.5-0.9,19.6-6.9,27.2"/>
		</g>
		<g transform="matrix(1,0,0,1,5945,4205)">
			<path vector-effect="none" class="st2" d="M-5854.1-3563.8c-6,7.6-14.2,12.1-24.6,13.5"/>
		</g>
		<g transform="matrix(1,0,0,1,5945,4205)">
			<path vector-effect="none" class="st2" d="M-5925.3-3720.8l0.1-18.2"/>
		</g>
		<g transform="matrix(1,0,0,1,5945,4205)">
			<path vector-effect="none" class="st2" d="M-5849-3720.4l-76.2-0.3"/>
		</g>
		<g transform="matrix(1,0,0,1,5945,4205)">
			<path vector-effect="none" class="st2" d="M-5925.2-3738.9l96.8,0.4"/>
		</g>
		<g transform="matrix(1,0,0,1,5945,4205)">
			<path vector-effect="none" class="st2" d="M-5925.3-3701.6l76.3-18.8"/>
		</g>
		<g transform="matrix(1,0,0,1,5945,4205)">
			<path vector-effect="none" class="st2" d="M-5828.3-3738.5l-0.1,29.3"/>
		</g>
		<g transform="matrix(1,0,0,1,5945,4205)">
			<path vector-effect="none" class="st2" d="M-5925.4-3682.8l0.1-18.8"/>
		</g>
		<g transform="matrix(1,0,0,1,5945,4205)">
			<path vector-effect="none" class="st2" d="M-5828.5-3709.2l-66.1,17.3"/>
		</g>
		<g transform="matrix(1,0,0,1,5945,4205)">
			<path vector-effect="none" class="st2" d="M-5849.3-3663.2l-76.2-19.5"/>
		</g>
		<g transform="matrix(1,0,0,1,5945,4205)">
			<path vector-effect="none" class="st2" d="M-5894.6-3692l66,17.7"/>
		</g>
		<g transform="matrix(1,0,0,1,5945,4205)">
			<path vector-effect="none" class="st2" d="M-5925.5-3663.5l76.2,0.3"/>
		</g>
		<g transform="matrix(1,0,0,1,5945,4205)">
			<path vector-effect="none" class="st2" d="M-5828.6-3674.3l-0.1,29.3"/>
		</g>
		<g transform="matrix(1,0,0,1,5945,4205)">
			<path vector-effect="none" class="st2" d="M-5925.6-3645.4l0.1-18.2"/>
		</g>
		<g transform="matrix(1,0,0,1,5945,4205)">
			<path vector-effect="none" class="st2" d="M-5828.7-3645l-96.8-0.4"/>
		</g>
		<g transform="matrix(1,0,0,1,5945,4205)">
			<path vector-effect="none" class="st2" d="M-5445.1-3599.3c0,1.6-1.3,2.8-2.8,2.8c-1.6,0-2.8-1.3-2.8-2.8c0-1.6,1.3-2.8,2.8-2.8
				C-5446.4-3602.1-5445.1-3600.9-5445.1-3599.3"/>
		</g>
		<g transform="matrix(1,0,0,1,5945,4205)">
			<path vector-effect="none" class="st2" d="M-4905.7-3325.3c0,6.4-5.2,11.6-11.6,11.6c-6.4,0-11.6-5.2-11.6-11.6
				s5.2-11.6,11.6-11.6C-4910.9-3336.9-4905.7-3331.7-4905.7-3325.3"/>
		</g>
		<g transform="matrix(1,0,0,1,5945,4205)">
			<path vector-effect="none" class="st2" d="M-5044.6-3438.7c0,4.9-3.9,8.8-8.8,8.8c-4.9,0-8.8-3.9-8.8-8.8c0-4.9,3.9-8.8,8.8-8.8
				C-5048.5-3447.5-5044.6-3443.5-5044.6-3438.7"/>
		</g>
		<g transform="matrix(1,0,0,1,5945,4205)">
			<path vector-effect="none" class="st2" d="M-5041.8-3693.8c0,6.4-5.2,11.6-11.6,11.6c-6.4,0-11.6-5.2-11.6-11.6
				s5.2-11.6,11.6-11.6C-5047-3705.4-5041.8-3700.2-5041.8-3693.8"/>
		</g>
		<g transform="matrix(1,0,0,1,5945,4205)">
			<path vector-effect="none" class="st2" d="M-4881.6-3693.8c0,19.7-16,35.7-35.7,35.7c-19.7,0-35.7-16-35.7-35.7
				c0-19.7,16-35.7,35.7-35.7C-4897.6-3729.5-4881.6-3713.5-4881.6-3693.8"/>
		</g>
		<g transform="matrix(1,0,0,1,5945,4205)">
			<path vector-effect="none" class="st2" d="M-4324.7-3553.5l-0.7-4.5"/>
		</g>
		<g transform="matrix(1,0,0,1,5945,4205)">
			<path vector-effect="none" class="st2" d="M-4328.5-3551.6c1.3-0.4,2.6-1,3.8-1.9"/>
		</g>
		<g transform="matrix(1,0,0,1,5945,4205)">
			<path vector-effect="none" class="st2" d="M-4325.4-3558l-5.3-3.2"/>
		</g>
		<g transform="matrix(1,0,0,1,5945,4205)">
			<path vector-effect="none" class="st2" d="M-4334.1-3551.2c2.4,0.1,4.2,0,5.5-0.4"/>
		</g>
		<g transform="matrix(1,0,0,1,5945,4205)">
			<path vector-effect="none" class="st2" d="M-4330.8-3561.2l-1.1,1.7"/>
		</g>
		<g transform="matrix(1,0,0,1,5945,4205)">
			<path vector-effect="none" class="st2" d="M-4342.9-3552c3,0.4,6,0.7,8.9,0.9"/>
		</g>
		<g transform="matrix(1,0,0,1,5945,4205)">
			<path vector-effect="none" class="st2" d="M-4331.8-3559.5c-0.7,1.2-1.4,1.9-2.2,2.1"/>
		</g>
		<g transform="matrix(1,0,0,1,5945,4205)">
			<path vector-effect="none" class="st2" d="M-4345.6-3547.6l2.6-4.4"/>
		</g>
		<g transform="matrix(1,0,0,1,5945,4205)">
			<path vector-effect="none" class="st2" d="M-4334-3557.4c-0.7,0.2-1.5,0.1-2.2-0.3"/>
		</g>
		<g transform="matrix(1,0,0,1,5945,4205)">
			<path vector-effect="none" class="st2" d="M-4346.4-3544.8c-0.2-0.8,0.1-1.7,0.8-2.9"/>
		</g>
		<g transform="matrix(1,0,0,1,5945,4205)">
			<path vector-effect="none" class="st2" d="M-4336.2-3557.7c-0.7-0.4-1.1-1-1.3-1.8"/>
		</g>
		<g transform="matrix(1,0,0,1,5945,4205)">
			<path vector-effect="none" class="st2" d="M-4345.1-3543c-0.7-0.4-1.1-1-1.3-1.8"/>
		</g>
		<g transform="matrix(1,0,0,1,5945,4205)">
			<path vector-effect="none" class="st2" d="M-4337.5-3559.5c-0.1-0.8,0.1-1.7,0.8-2.9"/>
		</g>
		<g transform="matrix(1,0,0,1,5945,4205)">
			<path vector-effect="none" class="st2" d="M-4342.9-3542.7c-0.7,0.2-1.5,0.1-2.2-0.3"/>
		</g>
		<g transform="matrix(1,0,0,1,5945,4205)">
			<path vector-effect="none" class="st2" d="M-4336.7-3562.4l4.4-7.3"/>
		</g>
		<g transform="matrix(1,0,0,1,5945,4205)">
			<path vector-effect="none" class="st2" d="M-4340.8-3544.7c-0.7,1.1-1.4,1.8-2.2,2.1"/>
		</g>
		<g transform="matrix(1,0,0,1,5945,4205)">
			<path vector-effect="none" class="st2" d="M-4332.2-3569.7c0.7-1.2,1.4-1.9,2.2-2.1"/>
		</g>
		<g transform="matrix(1,0,0,1,5945,4205)">
			<path vector-effect="none" class="st2" d="M-4340-3546l-0.8,1.3"/>
		</g>
		<g transform="matrix(1,0,0,1,5945,4205)">
			<path vector-effect="none" class="st2" d="M-4330.1-3571.8c0.7-0.2,1.5-0.1,2.2,0.3"/>
		</g>
		<g transform="matrix(1,0,0,1,5945,4205)">
			<path vector-effect="none" class="st2" d="M-4330.6-3545.5c-2.8,0.3-5.9,0.1-9.3-0.5"/>
		</g>
		<g transform="matrix(1,0,0,1,5945,4205)">
			<path vector-effect="none" class="st2" d="M-4327.9-3571.5c0.7,0.4,1.1,1,1.3,1.8"/>
		</g>
		<g transform="matrix(1,0,0,1,5945,4205)">
			<path vector-effect="none" class="st2" d="M-4323.7-3547.5c-1.9,1.1-4.2,1.7-7,2"/>
		</g>
		<g transform="matrix(1,0,0,1,5945,4205)">
			<path vector-effect="none" class="st2" d="M-4326.6-3569.7c0.1,0.8-0.1,1.7-0.8,2.9"/>
		</g>
		<g transform="matrix(1,0,0,1,5945,4205)">
			<path vector-effect="none" class="st2" d="M-4321.3-3534.3l-2.3-13.2"/>
		</g>
		<g transform="matrix(1,0,0,1,5945,4205)">
			<path vector-effect="none" class="st2" d="M-4327.4-3566.8l-0.5,0.8"/>
		</g>
		<g transform="matrix(1,0,0,1,5945,4205)">
			<path vector-effect="none" class="st2" d="M-4322-3531.6c-0.2-0.8,0.1-1.7,0.7-2.7"/>
		</g>
		<g transform="matrix(1,0,0,1,5945,4205)">
			<path vector-effect="none" class="st2" d="M-4327.9-3566.1l18.9,11.4"/>
		</g>
		<g transform="matrix(1,0,0,1,5945,4205)">
			<path vector-effect="none" class="st2" d="M-4320.7-3529.8c-0.7-0.4-1.1-1-1.3-1.8"/>
		</g>
		<g transform="matrix(1,0,0,1,5945,4205)">
			<path vector-effect="none" class="st2" d="M-4309-3554.7l0.5-0.8"/>
		</g>
		<g transform="matrix(1,0,0,1,5945,4205)">
			<path vector-effect="none" class="st2" d="M-4318.5-3529.5c-0.7,0.2-1.5,0.1-2.2-0.3"/>
		</g>
		<g transform="matrix(1,0,0,1,5945,4205)">
			<path vector-effect="none" class="st2" d="M-4308.5-3555.4c0.7-1.2,1.4-1.9,2.2-2.1"/>
		</g>
		<g transform="matrix(1,0,0,1,5945,4205)">
			<path vector-effect="none" class="st2" d="M-4316.4-3531.5c-0.7,1.2-1.4,1.9-2.2,2.1"/>
		</g>
		<g transform="matrix(1,0,0,1,5945,4205)">
			<path vector-effect="none" class="st2" d="M-4306.4-3557.5c0.7-0.2,1.5-0.1,2.2,0.3"/>
		</g>
		<g transform="matrix(1,0,0,1,5945,4205)">
			<path vector-effect="none" class="st2" d="M-4313.4-3536.4l-3,4.9"/>
		</g>
		<g transform="matrix(1,0,0,1,5945,4205)">
			<path vector-effect="none" class="st2" d="M-4304.2-3557.2c0.7,0.4,1.2,1,1.3,1.8"/>
		</g>
		<g transform="matrix(1,0,0,1,5945,4205)">
			<path vector-effect="none" class="st2" d="M-4312.6-3539.3c0.2,0.8-0.1,1.7-0.8,2.9"/>
		</g>
		<g transform="matrix(1,0,0,1,5945,4205)">
			<path vector-effect="none" class="st2" d="M-4302.9-3555.4c0.1,0.8-0.1,1.7-0.8,2.9"/>
		</g>
		<g transform="matrix(1,0,0,1,5945,4205)">
			<path vector-effect="none" class="st2" d="M-4313.9-3541.2c0.7,0.4,1.2,1.1,1.3,1.8"/>
		</g>
		<g transform="matrix(1,0,0,1,5945,4205)">
			<path vector-effect="none" class="st2" d="M-4303.7-3552.5l-4.4,7.3"/>
		</g>
		<g transform="matrix(1,0,0,1,5945,4205)">
			<path vector-effect="none" class="st2" d="M-4315.2-3541.6c0.4,0,0.9,0.1,1.3,0.4"/>
		</g>
		<g transform="matrix(1,0,0,1,5945,4205)">
			<path vector-effect="none" class="st2" d="M-4308.1-3545.2c-0.7,1.2-1.4,1.9-2.2,2.1"/>
		</g>
		<g transform="matrix(1,0,0,1,5945,4205)">
			<path vector-effect="none" class="st2" d="M-4316.9-3541.2c0.7-0.3,1.2-0.4,1.6-0.4"/>
		</g>
		<g transform="matrix(1,0,0,1,5945,4205)">
			<path vector-effect="none" class="st2" d="M-4310.3-3543.1c-0.7,0.2-1.5,0.1-2.2-0.3"/>
		</g>
		<g transform="matrix(1,0,0,1,5945,4205)">
			<path vector-effect="none" class="st2" d="M-4319.1-3554.2l2.2,13"/>
		</g>
		<g transform="matrix(1,0,0,1,5945,4205)">
			<path vector-effect="none" class="st2" d="M-4312.5-3543.4c-0.7-0.4-1.2-1-1.3-1.8"/>
		</g>
		<g transform="matrix(1,0,0,1,5945,4205)">
			<path vector-effect="none" class="st2" d="M-4311.9-3549.8l-7.2-4.3"/>
		</g>
		<g transform="matrix(1,0,0,1,5945,4205)">
			<path vector-effect="none" class="st2" d="M-4313.8-3545.2c-0.1-0.8,0.1-1.7,0.8-2.9"/>
		</g>
		<g transform="matrix(1,0,0,1,5945,4205)">
			<path vector-effect="none" class="st2" d="M-4313-3548.1l1.1-1.7"/>
		</g>
		<g transform="matrix(1,0,0,1,5945,4205)">
			<path vector-effect="none" class="st2" d="M-4303.1-3566.6l2.4-5.7"/>
		</g>
		<g transform="matrix(1,0,0,1,5945,4205)">
			<path vector-effect="none" class="st2" d="M-4308-3568.7l4.9,2.1"/>
		</g>
		<g transform="matrix(1,0,0,1,5945,4205)">
			<path vector-effect="none" class="st2" d="M-4300.6-3572.3l-20.3-8.7"/>
		</g>
		<g transform="matrix(1,0,0,1,5945,4205)">
			<path vector-effect="none" class="st2" d="M-4310.9-3569.1c0.7-0.3,1.7-0.1,3,0.4"/>
		</g>
		<g transform="matrix(1,0,0,1,5945,4205)">
			<path vector-effect="none" class="st2" d="M-4320.9-3580.9l-1.5,3.5"/>
		</g>
		<g transform="matrix(1,0,0,1,5945,4205)">
			<path vector-effect="none" class="st2" d="M-4312.5-3567.6c0.3-0.8,0.9-1.3,1.6-1.5"/>
		</g>
		<g transform="matrix(1,0,0,1,5945,4205)">
			<path vector-effect="none" class="st2" d="M-4322.4-3577.4c-0.5,1.2-1.2,2-1.9,2.4"/>
		</g>
		<g transform="matrix(1,0,0,1,5945,4205)">
			<path vector-effect="none" class="st2" d="M-4312.5-3565.4c-0.3-0.7-0.3-1.4,0-2.2"/>
		</g>
		<g transform="matrix(1,0,0,1,5945,4205)">
			<path vector-effect="none" class="st2" d="M-4324.3-3575.1c-0.7,0.3-1.4,0.3-2.2,0"/>
		</g>
		<g transform="matrix(1,0,0,1,5945,4205)">
			<path vector-effect="none" class="st2" d="M-4310.2-3563.5c-1.2-0.5-2-1.2-2.4-1.9"/>
		</g>
		<g transform="matrix(1,0,0,1,5945,4205)">
			<path vector-effect="none" class="st2" d="M-4326.5-3575.1c-0.8-0.3-1.3-0.9-1.5-1.6"/>
		</g>
		<g transform="matrix(1,0,0,1,5945,4205)">
			<path vector-effect="none" class="st2" d="M-4300.1-3559.2l-10.1-4.3"/>
		</g>
		<g transform="matrix(1,0,0,1,5945,4205)">
			<path vector-effect="none" class="st2" d="M-4328-3576.7c-0.3-0.7-0.1-1.7,0.4-3"/>
		</g>
		<g transform="matrix(1,0,0,1,5945,4205)">
			<path vector-effect="none" class="st2" d="M-4288.6-3586l-11.5,26.8"/>
		</g>
		<g transform="matrix(1,0,0,1,5945,4205)">
			<path vector-effect="none" class="st2" d="M-4327.6-3579.7l5.2-12.1"/>
		</g>
		<g transform="matrix(1,0,0,1,5945,4205)">
			<path vector-effect="none" class="st2" d="M-4298.7-3590.3l10.1,4.3"/>
		</g>
		<g transform="matrix(1,0,0,1,5945,4205)">
			<path vector-effect="none" class="st2" d="M-4322.4-3591.8c0.5-1.2,1.2-2,1.9-2.4"/>
		</g>
		<g transform="matrix(1,0,0,1,5945,4205)">
			<path vector-effect="none" class="st2" d="M-4301.7-3590.8c0.7-0.3,1.7-0.1,3,0.4"/>
		</g>
		<g transform="matrix(1,0,0,1,5945,4205)">
			<path vector-effect="none" class="st2" d="M-4320.5-3594.2c0.7-0.3,1.4-0.3,2.2,0"/>
		</g>
		<g transform="matrix(1,0,0,1,5945,4205)">
			<path vector-effect="none" class="st2" d="M-4303.3-3589.2c0.3-0.8,0.9-1.3,1.6-1.5"/>
		</g>
		<g transform="matrix(1,0,0,1,5945,4205)">
			<path vector-effect="none" class="st2" d="M-4318.3-3594.1c0.8,0.3,1.3,0.9,1.5,1.6"/>
		</g>
		<g transform="matrix(1,0,0,1,5945,4205)">
			<path vector-effect="none" class="st2" d="M-4303.3-3587c-0.3-0.7-0.3-1.4,0-2.2"/>
		</g>
		<g transform="matrix(1,0,0,1,5945,4205)">
			<path vector-effect="none" class="st2" d="M-4316.8-3592.6c0.3,0.7,0.1,1.7-0.4,3"/>
		</g>
		<g transform="matrix(1,0,0,1,5945,4205)">
			<path vector-effect="none" class="st2" d="M-4300.9-3585.2c-1.2-0.5-2-1.2-2.4-1.9"/>
		</g>
		<g transform="matrix(1,0,0,1,5945,4205)">
			<path vector-effect="none" class="st2" d="M-4317.2-3589.6l-1.5,3.5"/>
		</g>
		<g transform="matrix(1,0,0,1,5945,4205)">
			<path vector-effect="none" class="st2" d="M-4296-3583.1l-4.9-2.1"/>
		</g>
		<g transform="matrix(1,0,0,1,5945,4205)">
			<path vector-effect="none" class="st2" d="M-4318.7-3586.1l20.3,8.7"/>
		</g>
		<g transform="matrix(1,0,0,1,5945,4205)">
			<path vector-effect="none" class="st2" d="M-4298.4-3577.4l2.4-5.6"/>
		</g>
		<g transform="matrix(1,0,0,1,5945,4205)">
			<path vector-effect="none" class="st2" d="M-4509.4-3693.8c0,9.5-7.7,17.3-17.3,17.3s-17.3-7.7-17.3-17.3s7.7-17.3,17.3-17.3
				S-4509.4-3703.3-4509.4-3693.8"/>
		</g>
		<g transform="matrix(1,0,0,1,5945,4205)">
			<path vector-effect="none" class="st2" d="M-4301.9-3611.2l1.6-5.3"/>
		</g>
		<g transform="matrix(1,0,0,1,5945,4205)">
			<path vector-effect="none" class="st2" d="M-4317.3-3603.9c8.1-2.4,13.2-4.8,15.4-7.2"/>
		</g>
		<g transform="matrix(1,0,0,1,5945,4205)">
			<path vector-effect="none" class="st2" d="M-4300.3-3616.5l-6.8-2"/>
		</g>
		<g transform="matrix(1,0,0,1,5945,4205)">
			<path vector-effect="none" class="st2" d="M-4318.2-3600.8l0.9-3.1"/>
		</g>
		<g transform="matrix(1,0,0,1,5945,4205)">
			<path vector-effect="none" class="st2" d="M-4307.1-3618.5l-0.6,1.9"/>
		</g>
		<g transform="matrix(1,0,0,1,5945,4205)">
			<path vector-effect="none" class="st2" d="M-4318.3-3597.8c-0.3-0.7-0.3-1.7,0.1-3"/>
		</g>
		<g transform="matrix(1,0,0,1,5945,4205)">
			<path vector-effect="none" class="st2" d="M-4307.7-3616.6c-0.4,1.3-0.9,2.2-1.6,2.6"/>
		</g>
		<g transform="matrix(1,0,0,1,5945,4205)">
			<path vector-effect="none" class="st2" d="M-4316.6-3596.4c-0.8-0.2-1.4-0.7-1.7-1.4"/>
		</g>
		<g transform="matrix(1,0,0,1,5945,4205)">
			<path vector-effect="none" class="st2" d="M-4309.2-3614c-0.7,0.4-1.4,0.5-2.2,0.2"/>
		</g>
		<g transform="matrix(1,0,0,1,5945,4205)">
			<path vector-effect="none" class="st2" d="M-4314-3596.9c-0.8,0.6-1.7,0.8-2.6,0.5"/>
		</g>
		<g transform="matrix(1,0,0,1,5945,4205)">
			<path vector-effect="none" class="st2" d="M-4311.4-3613.8c-0.8-0.2-1.4-0.7-1.7-1.4"/>
		</g>
		<g transform="matrix(1,0,0,1,5945,4205)">
			<path vector-effect="none" class="st2" d="M-4312.7-3599.5c-0.4,1.4-0.8,2.2-1.2,2.6"/>
		</g>
		<g transform="matrix(1,0,0,1,5945,4205)">
			<path vector-effect="none" class="st2" d="M-4313.1-3615.2c-0.3-0.7-0.3-1.7,0.1-3"/>
		</g>
		<g transform="matrix(1,0,0,1,5945,4205)">
			<path vector-effect="none" class="st2" d="M-4307.1-3601.4c-1.2,0.5-3.1,1.1-5.7,1.9"/>
		</g>
		<g transform="matrix(1,0,0,1,5945,4205)">
			<path vector-effect="none" class="st2" d="M-4313.1-3618.2l2.4-8.2"/>
		</g>
		<g transform="matrix(1,0,0,1,5945,4205)">
			<path vector-effect="none" class="st2" d="M-4302.1-3603.9c-1.3,0.8-3,1.7-4.9,2.5"/>
		</g>
		<g transform="matrix(1,0,0,1,5945,4205)">
			<path vector-effect="none" class="st2" d="M-4310.6-3626.4c0.4-1.3,0.9-2.2,1.6-2.6"/>
		</g>
		<g transform="matrix(1,0,0,1,5945,4205)">
			<path vector-effect="none" class="st2" d="M-4299.8-3598.4c-1.1-1.4-1.9-3.2-2.3-5.5"/>
		</g>
		<g transform="matrix(1,0,0,1,5945,4205)">
			<path vector-effect="none" class="st2" d="M-4309-3628.9c0.7-0.4,1.4-0.5,2.2-0.2"/>
		</g>
		<g transform="matrix(1,0,0,1,5945,4205)">
			<path vector-effect="none" class="st2" d="M-4295.6-3595.5c-1.7-0.5-3.1-1.5-4.2-2.8"/>
		</g>
		<g transform="matrix(1,0,0,1,5945,4205)">
			<path vector-effect="none" class="st2" d="M-4306.8-3629.2c0.8,0.2,1.4,0.7,1.7,1.4"/>
		</g>
		<g transform="matrix(1,0,0,1,5945,4205)">
			<path vector-effect="none" class="st2" d="M-4287.8-3596.6c-2.5,1.5-5.1,1.9-7.8,1.1"/>
		</g>
		<g transform="matrix(1,0,0,1,5945,4205)">
			<path vector-effect="none" class="st2" d="M-4305.1-3627.8c0.3,0.7,0.3,1.7-0.1,3"/>
		</g>
		<g transform="matrix(1,0,0,1,5945,4205)">
			<path vector-effect="none" class="st2" d="M-4282.3-3604.6c-1.1,3.8-3,6.5-5.5,8"/>
		</g>
		<g transform="matrix(1,0,0,1,5945,4205)">
			<path vector-effect="none" class="st2" d="M-4305.2-3624.8l-0.3,0.8"/>
		</g>
		<g transform="matrix(1,0,0,1,5945,4205)">
			<path vector-effect="none" class="st2" d="M-4278.7-3616.8l-3.7,12.2"/>
		</g>
		<g transform="matrix(1,0,0,1,5945,4205)">
			<path vector-effect="none" class="st2" d="M-4305.5-3623.9l21.1,6.3"/>
		</g>
		<g transform="matrix(1,0,0,1,5945,4205)">
			<path vector-effect="none" class="st2" d="M-4278.6-3619.9c0.3,0.7,0.3,1.7-0.1,3"/>
		</g>
		<g transform="matrix(1,0,0,1,5945,4205)">
			<path vector-effect="none" class="st2" d="M-4284.3-3617.6l0.3-0.8"/>
		</g>
		<g transform="matrix(1,0,0,1,5945,4205)">
			<path vector-effect="none" class="st2" d="M-4280.3-3621.3c0.8,0.2,1.4,0.7,1.7,1.4"/>
		</g>
		<g transform="matrix(1,0,0,1,5945,4205)">
			<path vector-effect="none" class="st2" d="M-4284.1-3618.5c0.4-1.3,0.9-2.2,1.6-2.6"/>
		</g>
		<g transform="matrix(1,0,0,1,5945,4205)">
			<path vector-effect="none" class="st2" d="M-4282.5-3621c0.7-0.4,1.4-0.5,2.2-0.2"/>
		</g>
		<g transform="matrix(1,0,0,1,5945,4205)">
			<path vector-effect="none" class="st2" d="M-4484.2-3604.1c34.6-16.4,56.7-51.3,56.7-89.6"/>
		</g>
		<g transform="matrix(1,0,0,1,5945,4205)">
			<path vector-effect="none" class="st2" d="M-4484.2-3604.1c-24.8,11.7-35.3,41.3-23.6,66.1c11.7,24.8,41.3,35.3,66.1,23.6"/>
		</g>
		<g transform="matrix(1,0,0,1,5945,4205)">
			<path vector-effect="none" class="st2" d="M-4427.5-3693.8c0-38.3-22.1-73.2-56.7-89.6"/>
		</g>
		<g transform="matrix(1,0,0,1,5945,4205)">
			<path vector-effect="none" class="st2" d="M-4441.6-3514.5c69.2-32.8,113.4-102.6,113.4-179.3"/>
		</g>
		<g transform="matrix(1,0,0,1,5945,4205)">
			<path vector-effect="none" class="st2" d="M-4441.6-3873.1c-24.8-11.7-54.3-1.2-66.1,23.6c-11.7,24.8-1.2,54.3,23.6,66.1"/>
		</g>
		<g transform="matrix(1,0,0,1,5945,4205)">
			<path vector-effect="none" class="st2" d="M-4328.3-3693.8c0-76.6-44.1-146.4-113.4-179.3"/>
		</g>
		<g transform="matrix(1,0,0,1,5945,4205)">
			<path vector-effect="none" class="st2" d="M-4283.6-3683.3l-5.1,0"/>
		</g>
		<g transform="matrix(1,0,0,1,5945,4205)">
			<path vector-effect="none" class="st2" d="M-4283.6-3706.9l0.1,23.5"/>
		</g>
		<g transform="matrix(1,0,0,1,5945,4205)">
			<path vector-effect="none" class="st2" d="M-4288.7-3683.3l-0.1-23.5"/>
		</g>
		<g transform="matrix(1,0,0,1,5945,4205)">
			<path vector-effect="none" class="st2" d="M-4288.8-3706.8l5.1,0"/>
		</g>
		<g transform="matrix(1,0,0,1,5945,4205)">
			<path vector-effect="none" class="st2" d="M-5922.7-3770l2.1-17.1"/>
		</g>
		<g transform="matrix(1,0,0,1,5945,4205)">
			<path vector-effect="none" class="st2" d="M-5853-3761.5l-69.6-8.5"/>
		</g>
		<g transform="matrix(1,0,0,1,5945,4205)">
			<path vector-effect="none" class="st2" d="M-5920.6-3787.1l10.4,1.3"/>
		</g>
		<g transform="matrix(1,0,0,1,5945,4205)">
			<path vector-effect="none" class="st2" d="M-5850.8-3779.9l-2.2,18.4"/>
		</g>
		<g transform="matrix(1,0,0,1,5945,4205)">
			<path vector-effect="none" class="st2" d="M-5910.1-3785.8c-3.4-3-5.9-6.7-7.6-11.1"/>
		</g>
		<g transform="matrix(1,0,0,1,5945,4205)">
			<path vector-effect="none" class="st2" d="M-5880.1-3783.5l29.4,3.6"/>
		</g>
		<g transform="matrix(1,0,0,1,5945,4205)">
			<path vector-effect="none" class="st2" d="M-5917.7-3796.9c-1.6-4.4-2.2-8.9-1.6-13.5"/>
		</g>
		<g transform="matrix(1,0,0,1,5945,4205)">
			<path vector-effect="none" class="st2" d="M-5898.8-3787.2c2.4,1.2,8.7,2.4,18.6,3.7"/>
		</g>
		<g transform="matrix(1,0,0,1,5945,4205)">
			<path vector-effect="none" class="st2" d="M-5919.3-3810.4c0.6-4.7,2.1-8.8,4.6-12.2"/>
		</g>
		<g transform="matrix(1,0,0,1,5945,4205)">
			<path vector-effect="none" class="st2" d="M-5904.6-3793.1c1.4,2.7,3.4,4.7,5.8,5.9"/>
		</g>
		<g transform="matrix(1,0,0,1,5945,4205)">
			<path vector-effect="none" class="st2" d="M-5914.7-3822.6c2.5-3.5,5.7-5.8,9.6-7"/>
		</g>
		<g transform="matrix(1,0,0,1,5945,4205)">
			<path vector-effect="none" class="st2" d="M-5906.1-3801.8c-0.4,3.1,0.1,6.1,1.6,8.8"/>
		</g>
		<g transform="matrix(1,0,0,1,5945,4205)">
			<path vector-effect="none" class="st2" d="M-5905.1-3829.6c3.9-1.2,9.2-1.4,15.7-0.6"/>
		</g>
		<g transform="matrix(1,0,0,1,5945,4205)">
			<path vector-effect="none" class="st2" d="M-5903.4-3808.4c-1.5,1.6-2.4,3.8-2.8,6.6"/>
		</g>
		<g transform="matrix(1,0,0,1,5945,4205)">
			<path vector-effect="none" class="st2" d="M-5889.4-3830.2l44.1,5.4"/>
		</g>
		<g transform="matrix(1,0,0,1,5945,4205)">
			<path vector-effect="none" class="st2" d="M-5897.7-3811.5c-2.3,0.4-4.2,1.4-5.7,3.1"/>
		</g>
		<g transform="matrix(1,0,0,1,5945,4205)">
			<path vector-effect="none" class="st2" d="M-5845.3-3824.9l-2.2,18.4"/>
		</g>
		<g transform="matrix(1,0,0,1,5945,4205)">
			<path vector-effect="none" class="st2" d="M-5879.6-3810.3c-9.8-1.2-15.8-1.6-18.1-1.2"/>
		</g>
		<g transform="matrix(1,0,0,1,5945,4205)">
			<path vector-effect="none" class="st2" d="M-5847.6-3806.4l-32-3.9"/>
		</g>
		<g transform="matrix(1,0,0,1,5945,4205)">
			<path vector-effect="none" class="st2" d="M-5815.5-3839.9l-94.5-21.2"/>
		</g>
		<g transform="matrix(1,0,0,1,5945,4205)">
			<path vector-effect="none" class="st2" d="M-5811.4-3858.1l-4.1,18.1"/>
		</g>
		<g transform="matrix(1,0,0,1,5945,4205)">
			<path vector-effect="none" class="st2" d="M-5910-3861.1l3.8-16.8"/>
		</g>
		<g transform="matrix(1,0,0,1,5945,4205)">
			<path vector-effect="none" class="st2" d="M-5845.4-3865.7l34,7.6"/>
		</g>
		<g transform="matrix(1,0,0,1,5945,4205)">
			<path vector-effect="none" class="st2" d="M-5906.2-3877.9l10.1,2.3"/>
		</g>
		<g transform="matrix(1,0,0,1,5945,4205)">
			<path vector-effect="none" class="st2" d="M-5831.4-3883.4c-1.7,7.7-6.4,13.6-14,17.7"/>
		</g>
		<g transform="matrix(1,0,0,1,5945,4205)">
			<path vector-effect="none" class="st2" d="M-5896.1-3875.7c-3.3-3.7-5.5-7.6-6.5-11.9"/>
		</g>
		<g transform="matrix(1,0,0,1,5945,4205)">
			<path vector-effect="none" class="st2" d="M-5835.9-3906.1c4.8,6.8,6.3,14.4,4.4,22.7"/>
		</g>
		<g transform="matrix(1,0,0,1,5945,4205)">
			<path vector-effect="none" class="st2" d="M-5902.7-3887.5c-1.1-4.2-1.2-8.3-0.3-12.1"/>
		</g>
		<g transform="matrix(1,0,0,1,5945,4205)">
			<path vector-effect="none" class="st2" d="M-5860.5-3920.2c11.6,2.6,19.8,7.3,24.6,14.1"/>
		</g>
		<g transform="matrix(1,0,0,1,5945,4205)">
			<path vector-effect="none" class="st2" d="M-5903-3899.7c1.8-7.9,6.4-13.9,14-18.1"/>
		</g>
		<g transform="matrix(1,0,0,1,5945,4205)">
			<path vector-effect="none" class="st2" d="M-5888.9-3917.8c7.6-4.2,17.1-5,28.4-2.5"/>
		</g>
		<g transform="matrix(1,0,0,1,5945,4205)">
			<path vector-effect="none" class="st2" d="M-5708.2-3892.2c0,7.8-6.3,14.2-14.2,14.2c-7.8,0-14.2-6.3-14.2-14.2
				s6.3-14.2,14.2-14.2C-5714.5-3906.4-5708.2-3900-5708.2-3892.2"/>
		</g>
		<g transform="matrix(1,0,0,1,5945,4205)">
			<path vector-effect="none" class="st2" d="M-5445.1-3788.3c0,1.6-1.3,2.8-2.8,2.8c-1.6,0-2.8-1.3-2.8-2.8s1.3-2.8,2.8-2.8
				C-5446.4-3791.1-5445.1-3789.8-5445.1-3788.3"/>
		</g>
		<g transform="matrix(1,0,0,1,5945,4205)">
			<path vector-effect="none" class="st2" d="M-5862.5-3958.3l-20.7-6.4"/>
		</g>
		<g transform="matrix(1,0,0,1,5945,4205)">
			<path vector-effect="none" class="st2" d="M-5840.5-3949.8c-3.3-2.1-10.6-4.9-22-8.5"/>
		</g>
		<g transform="matrix(1,0,0,1,5945,4205)">
			<path vector-effect="none" class="st2" d="M-5883.2-3964.8l5.5-17.7"/>
		</g>
		<g transform="matrix(1,0,0,1,5945,4205)">
			<path vector-effect="none" class="st2" d="M-5834.4-3943.4c-0.8-2.2-2.9-4.3-6.1-6.4"/>
		</g>
		<g transform="matrix(1,0,0,1,5945,4205)">
			<path vector-effect="none" class="st2" d="M-5877.7-3982.5l67,20.9"/>
		</g>
		<g transform="matrix(1,0,0,1,5945,4205)">
			<path vector-effect="none" class="st2" d="M-5834.3-3936.5c0.8-2.5,0.7-4.8-0.1-6.9"/>
		</g>
		<g transform="matrix(1,0,0,1,5945,4205)">
			<path vector-effect="none" class="st2" d="M-5810.7-3961.6l-5.1,16.5"/>
		</g>
		<g transform="matrix(1,0,0,1,5945,4205)">
			<path vector-effect="none" class="st2" d="M-5839.8-3929.1c2.9-2.4,4.7-4.9,5.5-7.4"/>
		</g>
		<g transform="matrix(1,0,0,1,5945,4205)">
			<path vector-effect="none" class="st2" d="M-5815.8-3945.1l-9.5-3"/>
		</g>
		<g transform="matrix(1,0,0,1,5945,4205)">
			<path vector-effect="none" class="st2" d="M-5826.1-3918.8l-13.7-10.3"/>
		</g>
		<g transform="matrix(1,0,0,1,5945,4205)">
			<path vector-effect="none" class="st2" d="M-5825.4-3948.1c3.6,4.2,5.8,7.7,6.5,10.4"/>
		</g>
		<g transform="matrix(1,0,0,1,5945,4205)">
			<path vector-effect="none" class="st2" d="M-5819.1-3929.4c-1.3,4-3.6,7.6-7,10.6"/>
		</g>
		<g transform="matrix(1,0,0,1,5945,4205)">
			<path vector-effect="none" class="st2" d="M-5818.8-3937.7c0.7,2.7,0.6,5.5-0.2,8.3"/>
		</g>
		<g transform="matrix(1,0,0,1,5945,4205)">
			<path vector-effect="none" class="st2" d="M-5767.5-3999.1l-104.3-1.9"/>
		</g>
		<g transform="matrix(1,0,0,1,5945,4205)">
			<path vector-effect="none" class="st2" d="M-5759.5-4018.2l-8,19.1"/>
		</g>
		<g transform="matrix(1,0,0,1,5945,4205)">
			<path vector-effect="none" class="st2" d="M-5871.8-4001l8.3-19.6"/>
		</g>
		<g transform="matrix(1,0,0,1,5945,4205)">
			<path vector-effect="none" class="st2" d="M-5834.1-4090.6l74.6,72.4"/>
		</g>
		<g transform="matrix(1,0,0,1,5945,4205)">
			<path vector-effect="none" class="st2" d="M-5863.6-4020.6l23.6,0.8"/>
		</g>
		<g transform="matrix(1,0,0,1,5945,4205)">
			<path vector-effect="none" class="st2" d="M-5842.1-4071.5l8.1-19.1"/>
		</g>
		<g transform="matrix(1,0,0,1,5945,4205)">
			<path vector-effect="none" class="st2" d="M-5840-4019.9l15-35.7"/>
		</g>
		<g transform="matrix(1,0,0,1,5945,4205)">
			<path vector-effect="none" class="st2" d="M-5825-4055.5l-17.2-15.9"/>
		</g>
		<g transform="matrix(1,0,0,1,5945,4205)">
			<path vector-effect="none" class="st2" d="M-5710.7-4062.3c0,6.4-5.2,11.6-11.6,11.6c-6.4,0-11.6-5.2-11.6-11.6
				c0-6.4,5.2-11.6,11.6-11.6C-5715.9-4073.9-5710.7-4068.7-5710.7-4062.3"/>
		</g>
		<g transform="matrix(1,0,0,1,5945,4205)">
			<path vector-effect="none" class="st2" d="M-4316.2-3777.7c-0.1-1.5,0-3.1,0.2-4.6"/>
		</g>
		<g transform="matrix(1,0,0,1,5945,4205)">
			<path vector-effect="none" class="st2" d="M-4315.3-3773.3c-0.5-1.5-0.8-3-0.9-4.5"/>
		</g>
		<g transform="matrix(1,0,0,1,5945,4205)">
			<path vector-effect="none" class="st2" d="M-4316-3782.4c-0.7-0.3-1.2-0.5-1.4-0.8"/>
		</g>
		<g transform="matrix(1,0,0,1,5945,4205)">
			<path vector-effect="none" class="st2" d="M-4309-3764.9c-2.9-1.8-5-4.6-6.3-8.4"/>
		</g>
		<g transform="matrix(1,0,0,1,5945,4205)">
			<path vector-effect="none" class="st2" d="M-4317.4-3783.1c-0.3-0.2-0.4-0.6-0.6-1"/>
		</g>
		<g transform="matrix(1,0,0,1,5945,4205)">
			<path vector-effect="none" class="st2" d="M-4301.7-3764.2c-2.6,0.9-5.1,0.7-7.3-0.7"/>
		</g>
		<g transform="matrix(1,0,0,1,5945,4205)">
			<path vector-effect="none" class="st2" d="M-4318-3784.1c-0.3-0.8-0.2-1.6,0.2-2.2"/>
		</g>
		<g transform="matrix(1,0,0,1,5945,4205)">
			<path vector-effect="none" class="st2" d="M-4297.3-3767.3c-1,1.4-2.5,2.5-4.4,3.1"/>
		</g>
		<g transform="matrix(1,0,0,1,5945,4205)">
			<path vector-effect="none" class="st2" d="M-4317.8-3786.4c0.4-0.7,1.2-1.2,2.5-1.7"/>
		</g>
		<g transform="matrix(1,0,0,1,5945,4205)">
			<path vector-effect="none" class="st2" d="M-4295.5-3772c-0.2,1.7-0.7,3.2-1.8,4.7"/>
		</g>
		<g transform="matrix(1,0,0,1,5945,4205)">
			<path vector-effect="none" class="st2" d="M-4315.4-3788l3.6-1.2"/>
		</g>
		<g transform="matrix(1,0,0,1,5945,4205)">
			<path vector-effect="none" class="st2" d="M-4295.9-3778.9c0.4,2.9,0.5,5.2,0.3,6.9"/>
		</g>
		<g transform="matrix(1,0,0,1,5945,4205)">
			<path vector-effect="none" class="st2" d="M-4311.8-3789.2c1.3-0.4,2.3-0.5,3-0.2"/>
		</g>
		<g transform="matrix(1,0,0,1,5945,4205)">
			<path vector-effect="none" class="st2" d="M-4296.4-3784.3c0,0.7,0.1,2.5,0.5,5.4"/>
		</g>
		<g transform="matrix(1,0,0,1,5945,4205)">
			<path vector-effect="none" class="st2" d="M-4308.8-3789.4c0.7,0.3,1.2,0.9,1.5,1.7"/>
		</g>
		<g transform="matrix(1,0,0,1,5945,4205)">
			<path vector-effect="none" class="st2" d="M-4295.6-3786.8c-0.5,0.7-0.7,1.5-0.8,2.5"/>
		</g>
		<g transform="matrix(1,0,0,1,5945,4205)">
			<path vector-effect="none" class="st2" d="M-4307.3-3787.7c0.2,0.6,0.2,1.2,0,1.7"/>
		</g>
		<g transform="matrix(1,0,0,1,5945,4205)">
			<path vector-effect="none" class="st2" d="M-4293.9-3788.1c-0.7,0.2-1.2,0.7-1.7,1.3"/>
		</g>
		<g transform="matrix(1,0,0,1,5945,4205)">
			<path vector-effect="none" class="st2" d="M-4307.3-3786c-0.2,0.5-0.6,1-1.3,1.5"/>
		</g>
		<g transform="matrix(1,0,0,1,5945,4205)">
			<path vector-effect="none" class="st2" d="M-4290.5-3787.4c-1.3-0.8-2.4-1.1-3.4-0.7"/>
		</g>
		<g transform="matrix(1,0,0,1,5945,4205)">
			<path vector-effect="none" class="st2" d="M-4308.6-3784.4c-0.7,0.5-1.1,0.9-1.3,1.2"/>
		</g>
		<g transform="matrix(1,0,0,1,5945,4205)">
			<path vector-effect="none" class="st2" d="M-4287.7-3783.2c-0.6-1.9-1.6-3.3-2.9-4.1"/>
		</g>
		<g transform="matrix(1,0,0,1,5945,4205)">
			<path vector-effect="none" class="st2" d="M-4309.9-3783.2c-0.4,0.7-0.6,1.8-0.7,3.2"/>
		</g>
		<g transform="matrix(1,0,0,1,5945,4205)">
			<path vector-effect="none" class="st2" d="M-4287.2-3779.5c0.1-1.2,0-2.4-0.5-3.7"/>
		</g>
		<g transform="matrix(1,0,0,1,5945,4205)">
			<path vector-effect="none" class="st2" d="M-4310.7-3780c-0.1,1.5,0.1,3,0.6,4.5"/>
		</g>
		<g transform="matrix(1,0,0,1,5945,4205)">
			<path vector-effect="none" class="st2" d="M-4288.1-3776.7c0.5-0.7,0.8-1.7,0.9-2.8"/>
		</g>
		<g transform="matrix(1,0,0,1,5945,4205)">
			<path vector-effect="none" class="st2" d="M-4310.1-3775.5c0.8,2.4,2,4.1,3.6,5.3"/>
		</g>
		<g transform="matrix(1,0,0,1,5945,4205)">
			<path vector-effect="none" class="st2" d="M-4289.7-3775.3c0.8-0.5,1.4-0.9,1.7-1.4"/>
		</g>
		<g transform="matrix(1,0,0,1,5945,4205)">
			<path vector-effect="none" class="st2" d="M-4306.5-3770.2c1,0.7,2,1,3,0.6"/>
		</g>
		<g transform="matrix(1,0,0,1,5945,4205)">
			<path vector-effect="none" class="st2" d="M-4291.2-3773.9c0.2-0.5,0.7-1,1.5-1.5"/>
		</g>
		<g transform="matrix(1,0,0,1,5945,4205)">
			<path vector-effect="none" class="st2" d="M-4303.5-3769.5c0.7-0.2,1.2-0.7,1.6-1.3"/>
		</g>
		<g transform="matrix(1,0,0,1,5945,4205)">
			<path vector-effect="none" class="st2" d="M-4291.2-3771.9c-0.2-0.7-0.2-1.3,0-1.9"/>
		</g>
		<g transform="matrix(1,0,0,1,5945,4205)">
			<path vector-effect="none" class="st2" d="M-4301.8-3770.9c0.4-0.7,0.7-1.6,0.7-2.8"/>
		</g>
		<g transform="matrix(1,0,0,1,5945,4205)">
			<path vector-effect="none" class="st2" d="M-4289.8-3770.3c-0.7-0.3-1.2-0.9-1.5-1.6"/>
		</g>
		<g transform="matrix(1,0,0,1,5945,4205)">
			<path vector-effect="none" class="st2" d="M-4301.2-3773.6c0-0.8-0.1-2.5-0.5-5"/>
		</g>
		<g transform="matrix(1,0,0,1,5945,4205)">
			<path vector-effect="none" class="st2" d="M-4286.8-3770.5c-1.3,0.4-2.3,0.5-3,0.2"/>
		</g>
		<g transform="matrix(1,0,0,1,5945,4205)">
			<path vector-effect="none" class="st2" d="M-4301.6-3778.7c-0.4-3.1-0.5-5.5-0.3-7.3"/>
		</g>
		<g transform="matrix(1,0,0,1,5945,4205)">
			<path vector-effect="none" class="st2" d="M-4282.8-3771.8l-4,1.3"/>
		</g>
		<g transform="matrix(1,0,0,1,5945,4205)">
			<path vector-effect="none" class="st2" d="M-4301.9-3785.9c0.3-1.8,0.9-3.3,2-4.6"/>
		</g>
		<g transform="matrix(1,0,0,1,5945,4205)">
			<path vector-effect="none" class="st2" d="M-4280.3-3773.5c-0.4,0.7-1.2,1.2-2.5,1.7"/>
		</g>
		<g transform="matrix(1,0,0,1,5945,4205)">
			<path vector-effect="none" class="st2" d="M-4299.9-3790.6c1.1-1.3,2.5-2.3,4.1-2.8"/>
		</g>
		<g transform="matrix(1,0,0,1,5945,4205)">
			<path vector-effect="none" class="st2" d="M-4280.1-3775.7c0.3,0.8,0.2,1.5-0.2,2.2"/>
		</g>
		<g transform="matrix(1,0,0,1,5945,4205)">
			<path vector-effect="none" class="st2" d="M-4295.8-3793.4c2.6-0.9,5.2-0.5,7.8,1"/>
		</g>
		<g transform="matrix(1,0,0,1,5945,4205)">
			<path vector-effect="none" class="st2" d="M-4281.8-3777.4c0.9,0.5,1.5,1,1.7,1.7"/>
		</g>
		<g transform="matrix(1,0,0,1,5945,4205)">
			<path vector-effect="none" class="st2" d="M-4288-3792.4c2.6,1.5,4.5,4,5.7,7.4"/>
		</g>
		<g transform="matrix(1,0,0,1,5945,4205)">
			<path vector-effect="none" class="st2" d="M-4281.5-3781.1c0.1,1.3,0,2.5-0.3,3.7"/>
		</g>
		<g transform="matrix(1,0,0,1,5945,4205)">
			<path vector-effect="none" class="st2" d="M-4282.3-3785c0.5,1.4,0.7,2.7,0.8,4"/>
		</g>
		<g transform="matrix(1,0,0,1,5945,4205)">
			<path vector-effect="none" class="st2" d="M-4314.6-3805.9l-2.3-4.8"/>
		</g>
		<g transform="matrix(1,0,0,1,5945,4205)">
			<path vector-effect="none" class="st2" d="M-4311.5-3801.3c-1.1-1-2.1-2.6-3.1-4.6"/>
		</g>
		<g transform="matrix(1,0,0,1,5945,4205)">
			<path vector-effect="none" class="st2" d="M-4316.8-3810.7l-5.3,2.5"/>
		</g>
		<g transform="matrix(1,0,0,1,5945,4205)">
			<path vector-effect="none" class="st2" d="M-4307.6-3798.6c-1.5-0.8-2.8-1.6-3.9-2.7"/>
		</g>
		<g transform="matrix(1,0,0,1,5945,4205)">
			<path vector-effect="none" class="st2" d="M-4322.1-3808.3l2.4,5.2"/>
		</g>
		<g transform="matrix(1,0,0,1,5945,4205)">
			<path vector-effect="none" class="st2" d="M-4303.4-3797.4c-1.2,0-2.6-0.4-4.2-1.2"/>
		</g>
		<g transform="matrix(1,0,0,1,5945,4205)">
			<path vector-effect="none" class="st2" d="M-4319.7-3803.1c0.6,1.2,0.7,2.2,0.5,3"/>
		</g>
		<g transform="matrix(1,0,0,1,5945,4205)">
			<path vector-effect="none" class="st2" d="M-4298.7-3798.4c-1.5,0.7-3.1,1-4.7,1"/>
		</g>
		<g transform="matrix(1,0,0,1,5945,4205)">
			<path vector-effect="none" class="st2" d="M-4319.2-3800.2c-0.2,0.7-0.7,1.3-1.5,1.7"/>
		</g>
		<g transform="matrix(1,0,0,1,5945,4205)">
			<path vector-effect="none" class="st2" d="M-4293.3-3804.6c-0.9,2.9-2.8,5-5.5,6.2"/>
		</g>
		<g transform="matrix(1,0,0,1,5945,4205)">
			<path vector-effect="none" class="st2" d="M-4320.6-3798.5c-0.7,0.3-1.5,0.4-2.2,0.1"/>
		</g>
		<g transform="matrix(1,0,0,1,5945,4205)">
			<path vector-effect="none" class="st2" d="M-4294.3-3814.1c1.6,3.5,2,6.6,1,9.5"/>
		</g>
		<g transform="matrix(1,0,0,1,5945,4205)">
			<path vector-effect="none" class="st2" d="M-4322.8-3798.4c-0.7-0.3-1.4-1.1-1.9-2.3"/>
		</g>
		<g transform="matrix(1,0,0,1,5945,4205)">
			<path vector-effect="none" class="st2" d="M-4299.7-3825.9l5.5,11.8"/>
		</g>
		<g transform="matrix(1,0,0,1,5945,4205)">
			<path vector-effect="none" class="st2" d="M-4324.8-3800.7l-5.2-11.1"/>
		</g>
		<g transform="matrix(1,0,0,1,5945,4205)">
			<path vector-effect="none" class="st2" d="M-4301.7-3828.2c0.7,0.3,1.4,1.1,1.9,2.3"/>
		</g>
		<g transform="matrix(1,0,0,1,5945,4205)">
			<path vector-effect="none" class="st2" d="M-4329.9-3811.8c-0.6-1.2-0.7-2.2-0.5-3"/>
		</g>
		<g transform="matrix(1,0,0,1,5945,4205)">
			<path vector-effect="none" class="st2" d="M-4303.9-3828.1c0.8-0.4,1.5-0.4,2.2-0.1"/>
		</g>
		<g transform="matrix(1,0,0,1,5945,4205)">
			<path vector-effect="none" class="st2" d="M-4330.5-3814.8c0.2-0.7,0.7-1.3,1.5-1.7"/>
		</g>
		<g transform="matrix(1,0,0,1,5945,4205)">
			<path vector-effect="none" class="st2" d="M-4305.4-3826.5c0.2-0.7,0.7-1.3,1.5-1.7"/>
		</g>
		<g transform="matrix(1,0,0,1,5945,4205)">
			<path vector-effect="none" class="st2" d="M-4329-3816.4c0.7-0.3,1.5-0.4,2.2-0.1"/>
		</g>
		<g transform="matrix(1,0,0,1,5945,4205)">
			<path vector-effect="none" class="st2" d="M-4304.9-3823.5c-0.6-1.2-0.7-2.2-0.5-3"/>
		</g>
		<g transform="matrix(1,0,0,1,5945,4205)">
			<path vector-effect="none" class="st2" d="M-4326.8-3816.5c0.7,0.3,1.4,1.1,1.9,2.3"/>
		</g>
		<g transform="matrix(1,0,0,1,5945,4205)">
			<path vector-effect="none" class="st2" d="M-4304.5-3822.7l-0.4-0.8"/>
		</g>
		<g transform="matrix(1,0,0,1,5945,4205)">
			<path vector-effect="none" class="st2" d="M-4324.8-3814.2l0.4,0.8"/>
		</g>
		<g transform="matrix(1,0,0,1,5945,4205)">
			<path vector-effect="none" class="st2" d="M-4324.5-3813.4l20-9.3"/>
		</g>
		<g transform="matrix(1,0,0,1,5945,4205)">
			<path vector-effect="none" class="st2" d="M-4322.2-3822.8c-0.6-0.1-1.3-0.4-1.9-1"/>
		</g>
		<g transform="matrix(1,0,0,1,5945,4205)">
			<path vector-effect="none" class="st2" d="M-4320.5-3823.2c-0.6,0.3-1.2,0.5-1.8,0.4"/>
		</g>
		<g transform="matrix(1,0,0,1,5945,4205)">
			<path vector-effect="none" class="st2" d="M-4324.1-3823.7l-6.5,3.9"/>
		</g>
		<g transform="matrix(1,0,0,1,5945,4205)">
			<path vector-effect="none" class="st2" d="M-4319.2-3825c-0.1,0.8-0.6,1.4-1.3,1.8"/>
		</g>
		<g transform="matrix(1,0,0,1,5945,4205)">
			<path vector-effect="none" class="st2" d="M-4330.6-3819.8c-2.5-1.5-4.4-2.8-5.8-4.1"/>
		</g>
		<g transform="matrix(1,0,0,1,5945,4205)">
			<path vector-effect="none" class="st2" d="M-4320-3827.8c0.7,1.2,1,2.1,0.9,2.9"/>
		</g>
		<g transform="matrix(1,0,0,1,5945,4205)">
			<path vector-effect="none" class="st2" d="M-4336.4-3823.9c-1.4-1.3-2.6-2.8-3.7-4.5"/>
		</g>
		<g transform="matrix(1,0,0,1,5945,4205)">
			<path vector-effect="none" class="st2" d="M-4325.2-3836.4l5.2,8.6"/>
		</g>
		<g transform="matrix(1,0,0,1,5945,4205)">
			<path vector-effect="none" class="st2" d="M-4340-3828.4c-1.5-2.5-2.5-5-3.1-7.5"/>
		</g>
		<g transform="matrix(1,0,0,1,5945,4205)">
			<path vector-effect="none" class="st2" d="M-4327.4-3838.5c0.7,0.2,1.5,0.9,2.2,2.1"/>
		</g>
		<g transform="matrix(1,0,0,1,5945,4205)">
			<path vector-effect="none" class="st2" d="M-4343.1-3835.9c-0.4-2-0.5-3.7-0.2-5.2"/>
		</g>
		<g transform="matrix(1,0,0,1,5945,4205)">
			<path vector-effect="none" class="st2" d="M-4329.6-3838.1c0.7-0.4,1.5-0.5,2.2-0.3"/>
		</g>
		<g transform="matrix(1,0,0,1,5945,4205)">
			<path vector-effect="none" class="st2" d="M-4343.3-3841.1c0.3-1.5,1-3.1,2.2-4.9"/>
		</g>
		<g transform="matrix(1,0,0,1,5945,4205)">
			<path vector-effect="none" class="st2" d="M-4330.9-3836.3c0.1-0.8,0.6-1.4,1.3-1.8"/>
		</g>
		<g transform="matrix(1,0,0,1,5945,4205)">
			<path vector-effect="none" class="st2" d="M-4341.1-3846.1c1.2-1.8,2.8-3.4,4.9-4.6"/>
		</g>
		<g transform="matrix(1,0,0,1,5945,4205)">
			<path vector-effect="none" class="st2" d="M-4330.1-3833.4c-0.7-1.2-1-2.1-0.8-2.9"/>
		</g>
		<g transform="matrix(1,0,0,1,5945,4205)">
			<path vector-effect="none" class="st2" d="M-4336.2-3850.7l3.5-2.1"/>
		</g>
		<g transform="matrix(1,0,0,1,5945,4205)">
			<path vector-effect="none" class="st2" d="M-4327.1-3828.5l-3-4.9"/>
		</g>
		<g transform="matrix(1,0,0,1,5945,4205)">
			<path vector-effect="none" class="st2" d="M-4332.7-3852.8c3.2-2,6.7-2.7,10.4-2.3"/>
		</g>
		<g transform="matrix(1,0,0,1,5945,4205)">
			<path vector-effect="none" class="st2" d="M-4330.5-3826.4l3.4-2.1"/>
		</g>
		<g transform="matrix(1,0,0,1,5945,4205)">
			<path vector-effect="none" class="st2" d="M-4322.3-3855.1c5,0.5,8.9,3.1,11.7,7.6"/>
		</g>
		<g transform="matrix(1,0,0,1,5945,4205)">
			<path vector-effect="none" class="st2" d="M-4335.4-3831.7c1.3,2.2,3,4,4.9,5.3"/>
		</g>
		<g transform="matrix(1,0,0,1,5945,4205)">
			<path vector-effect="none" class="st2" d="M-4310.7-3847.5c0.8,1.3,1.4,2.6,1.9,4"/>
		</g>
		<g transform="matrix(1,0,0,1,5945,4205)">
			<path vector-effect="none" class="st2" d="M-4337.8-3840.1c-0.4,2.3,0.4,5.1,2.3,8.3"/>
		</g>
		<g transform="matrix(1,0,0,1,5945,4205)">
			<path vector-effect="none" class="st2" d="M-4308.8-3843.5c0.5,1.3,0.7,2.7,0.9,4.1"/>
		</g>
		<g transform="matrix(1,0,0,1,5945,4205)">
			<path vector-effect="none" class="st2" d="M-4333.3-3845.9c-2.6,1.6-4.1,3.5-4.5,5.8"/>
		</g>
		<g transform="matrix(1,0,0,1,5945,4205)">
			<path vector-effect="none" class="st2" d="M-4307.9-3839.4c1,0.3,1.6,0.7,2,1.3"/>
		</g>
		<g transform="matrix(1,0,0,1,5945,4205)">
			<path vector-effect="none" class="st2" d="M-4329.8-3848l-3.5,2.1"/>
		</g>
		<g transform="matrix(1,0,0,1,5945,4205)">
			<path vector-effect="none" class="st2" d="M-4305.9-3838.1c0.4,0.7,0.5,1.4,0.3,2.2"/>
		</g>
		<g transform="matrix(1,0,0,1,5945,4205)">
			<path vector-effect="none" class="st2" d="M-4324.3-3849.6c-2,0-3.8,0.6-5.5,1.6"/>
		</g>
		<g transform="matrix(1,0,0,1,5945,4205)">
			<path vector-effect="none" class="st2" d="M-4305.6-3835.9c-0.2,0.7-0.9,1.5-2.1,2.2"/>
		</g>
		<g transform="matrix(1,0,0,1,5945,4205)">
			<path vector-effect="none" class="st2" d="M-4319.6-3848.7c-1.2-0.6-2.8-1-4.7-0.9"/>
		</g>
		<g transform="matrix(1,0,0,1,5945,4205)">
			<path vector-effect="none" class="st2" d="M-4307.7-3833.8l-3.1,1.9"/>
		</g>
		<g transform="matrix(1,0,0,1,5945,4205)">
			<path vector-effect="none" class="st2" d="M-4315.4-3844.4c-1.2-1.9-2.6-3.3-4.2-4.3"/>
		</g>
		<g transform="matrix(1,0,0,1,5945,4205)">
			<path vector-effect="none" class="st2" d="M-4310.8-3831.9c-1.2,0.7-2.1,1-2.9,0.8"/>
		</g>
		<g transform="matrix(1,0,0,1,5945,4205)">
			<path vector-effect="none" class="st2" d="M-4313.7-3840.5c-0.3-1.3-0.9-2.6-1.7-3.9"/>
		</g>
		<g transform="matrix(1,0,0,1,5945,4205)">
			<path vector-effect="none" class="st2" d="M-4313.7-3831c-0.8-0.1-1.4-0.6-1.8-1.3"/>
		</g>
		<g transform="matrix(1,0,0,1,5945,4205)">
			<path vector-effect="none" class="st2" d="M-4313.6-3837.5c0.2-0.7,0.1-1.7-0.2-3"/>
		</g>
		<g transform="matrix(1,0,0,1,5945,4205)">
			<path vector-effect="none" class="st2" d="M-4315.5-3832.3c-0.3-0.6-0.5-1.2-0.4-1.8"/>
		</g>
		<g transform="matrix(1,0,0,1,5945,4205)">
			<path vector-effect="none" class="st2" d="M-4314.8-3835.8c0.7-0.7,1.1-1.3,1.2-1.7"/>
		</g>
		<g transform="matrix(1,0,0,1,5945,4205)">
			<path vector-effect="none" class="st2" d="M-4315.8-3834.1c0-0.5,0.4-1,1.1-1.7"/>
		</g>
		<g transform="matrix(1,0,0,1,5945,4205)">
			<path vector-effect="none" class="st2" d="M-5044.6-3948.9c0,4.9-3.9,8.8-8.8,8.8c-4.9,0-8.8-3.9-8.8-8.8s3.9-8.8,8.8-8.8
				C-5048.5-3957.7-5044.6-3953.8-5044.6-3948.9"/>
		</g>
		<g transform="matrix(1,0,0,1,5945,4205)">
			<path vector-effect="none" class="st2" d="M-4905.7-4062.3c0,6.4-5.2,11.6-11.6,11.6c-6.4,0-11.6-5.2-11.6-11.6
				c0-6.4,5.2-11.6,11.6-11.6C-4910.9-4073.9-4905.7-4068.7-4905.7-4062.3"/>
		</g>
		<g transform="matrix(1,0,0,1,5945,4205)">
			<path vector-effect="none" class="st2" d="M-5825.7-3382.9c5-2,8.3-4.7,10-8.2"/>
		</g>
		<g transform="matrix(1,0,0,1,5945,4205)">
			<path vector-effect="none" class="st2" d="M-5815.7-3391.1c1.7-3.5,1.9-7,0.5-10.5"/>
		</g>
		<g transform="matrix(1,0,0,1,5945,4205)">
			<path vector-effect="none" class="st2" d="M-5815.1-3401.6c-1.4-3.8-4-6.4-7.7-7.8"/>
		</g>
		<g transform="matrix(1,0,0,1,5945,4205)">
			<path vector-effect="none" class="st2" d="M-5822.8-3409.4c-3.7-1.4-7.9-1.2-12.6,0.6"/>
		</g>
		<g transform="matrix(1,0,0,1,5945,4205)">
			<path vector-effect="none" class="st2" d="M-5835.4-3408.9l9.8,26"/>
		</g>
		<g transform="matrix(1,0,0,1,5945,4205)">
			<path vector-effect="none" class="st2" d="M-5885.8-3603.3c-6.9,0.9-12,3.2-15.2,7"/>
		</g>
		<g transform="matrix(1,0,0,1,5945,4205)">
			<path vector-effect="none" class="st2" d="M-5901-3596.3c-3.2,3.8-4.6,8-3.9,12.8"/>
		</g>
		<g transform="matrix(1,0,0,1,5945,4205)">
			<path vector-effect="none" class="st2" d="M-5904.9-3583.5c0.6,4.8,3,8.6,7.1,11.4"/>
		</g>
		<g transform="matrix(1,0,0,1,5945,4205)">
			<path vector-effect="none" class="st2" d="M-5897.8-3572.1c4.1,2.8,9.6,3.7,16.6,2.8"/>
		</g>
		<g transform="matrix(1,0,0,1,5945,4205)">
			<path vector-effect="none" class="st2" d="M-5881.2-3569.3c6.8-0.9,11.8-3.2,15.1-6.9"/>
		</g>
		<g transform="matrix(1,0,0,1,5945,4205)">
			<path vector-effect="none" class="st2" d="M-5866.1-3576.2c3.2-3.7,4.6-8,3.9-12.8"/>
		</g>
		<g transform="matrix(1,0,0,1,5945,4205)">
			<path vector-effect="none" class="st2" d="M-5862.2-3589c-0.6-4.8-3-8.6-7.1-11.4"/>
		</g>
		<g transform="matrix(1,0,0,1,5945,4205)">
			<path vector-effect="none" class="st2" d="M-5869.3-3600.4c-4.1-2.8-9.6-3.8-16.5-2.9"/>
		</g>
		<g transform="matrix(1,0,0,1,5945,4205)">
			<path vector-effect="none" class="st2" d="M-4294.9-3614.9l-1.3,4.2"/>
		</g>
		<g transform="matrix(1,0,0,1,5945,4205)">
			<path vector-effect="none" class="st2" d="M-4296.1-3610.7c-0.5,1.6-0.6,3-0.5,4.4"/>
		</g>
		<g transform="matrix(1,0,0,1,5945,4205)">
			<path vector-effect="none" class="st2" d="M-4296.7-3606.3c0.1,1.8,0.5,3.1,1,3.9"/>
		</g>
		<g transform="matrix(1,0,0,1,5945,4205)">
			<path vector-effect="none" class="st2" d="M-4295.7-3602.3c0.5,0.8,1.1,1.3,1.8,1.5"/>
		</g>
		<g transform="matrix(1,0,0,1,5945,4205)">
			<path vector-effect="none" class="st2" d="M-4293.8-3600.9c1,0.3,2.1,0,3.3-0.8"/>
		</g>
		<g transform="matrix(1,0,0,1,5945,4205)">
			<path vector-effect="none" class="st2" d="M-4290.5-3601.7c1.2-0.8,2.1-2.3,2.7-4.4"/>
		</g>
		<g transform="matrix(1,0,0,1,5945,4205)">
			<path vector-effect="none" class="st2" d="M-4287.8-3606l1.8-6.2"/>
		</g>
		<g transform="matrix(1,0,0,1,5945,4205)">
			<path vector-effect="none" class="st2" d="M-4285.9-3612.2l-8.9-2.7"/>
		</g>
		<g transform="matrix(1,0,0,1,5945,4205)">
			<path vector-effect="none" class="st2" d="M-5863.4-3901.5c-7.3-1.6-12.8-1.8-16.5-0.5"/>
		</g>
		<g transform="matrix(1,0,0,1,5945,4205)">
			<path vector-effect="none" class="st2" d="M-5880-3902c-5.4,1.9-8.7,5.4-9.8,10.7"/>
		</g>
		<g transform="matrix(1,0,0,1,5945,4205)">
			<path vector-effect="none" class="st2" d="M-5889.8-3891.3c-0.9,4.2,0,8.1,2.9,11.8"/>
		</g>
		<g transform="matrix(1,0,0,1,5945,4205)">
			<path vector-effect="none" class="st2" d="M-5886.9-3879.5c2.9,3.7,7.9,6.4,14.9,7.9"/>
		</g>
		<g transform="matrix(1,0,0,1,5945,4205)">
			<path vector-effect="none" class="st2" d="M-5871.9-3871.5c7.9,1.8,13.8,1.6,17.9-0.5"/>
		</g>
		<g transform="matrix(1,0,0,1,5945,4205)">
			<path vector-effect="none" class="st2" d="M-5854-3872c4.1-2.1,6.6-5.3,7.6-9.7"/>
		</g>
		<g transform="matrix(1,0,0,1,5945,4205)">
			<path vector-effect="none" class="st2" d="M-5846.4-3881.7c1-4.3,0.1-8.3-2.7-11.9"/>
		</g>
		<g transform="matrix(1,0,0,1,5945,4205)">
			<path vector-effect="none" class="st2" d="M-5849.1-3893.7c-2.8-3.7-7.5-6.3-14.3-7.8"/>
		</g>
		<g transform="matrix(1,0,0,1,5945,4205)">
			<path vector-effect="none" class="st2" d="M-5822.6-4019.3l38.3,1.7"/>
		</g>
		<g transform="matrix(1,0,0,1,5945,4205)">
			<path vector-effect="none" class="st2" d="M-5784.3-4017.6l-28-26"/>
		</g>
		<g transform="matrix(1,0,0,1,5945,4205)">
			<path vector-effect="none" class="st2" d="M-5812.3-4043.7l-10.3,24.3"/>
		</g>
		<g transform="matrix(1,0,0,1,5945,4205)">
			<path vector-effect="none" class="st2" d="M-4311.7-3813.1l2.2,4.7"/>
		</g>
		<g transform="matrix(1,0,0,1,5945,4205)">
			<path vector-effect="none" class="st2" d="M-4309.5-3808.4c1,2.2,2.4,3.8,4,4.6"/>
		</g>
		<g transform="matrix(1,0,0,1,5945,4205)">
			<path vector-effect="none" class="st2" d="M-4305.5-3803.8c1.6,0.8,3.1,0.9,4.5,0.3"/>
		</g>
		<g transform="matrix(1,0,0,1,5945,4205)">
			<path vector-effect="none" class="st2" d="M-4301-3803.5c1.2-0.6,2-1.6,2.4-3"/>
		</g>
		<g transform="matrix(1,0,0,1,5945,4205)">
			<path vector-effect="none" class="st2" d="M-4298.6-3806.6c0.4-1.5,0.2-3.2-0.8-5.1"/>
		</g>
		<g transform="matrix(1,0,0,1,5945,4205)">
			<path vector-effect="none" class="st2" d="M-4299.4-3811.7l-2.7-5.9"/>
		</g>
		<g transform="matrix(1,0,0,1,5945,4205)">
			<path vector-effect="none" class="st2" d="M-4302.1-3817.6l-9.6,4.5"/>
		</g>
	</g>
</g>
</svg>
