<?xml version="1.0" encoding="utf-8"?>
<!-- Generator: Adobe Illustrator 24.3.0, SVG Export Plug-In . SVG Version: 6.00 Build 0)  -->
<svg version="1.1"
	 id="Ebene_1" xmlns:cc="http://creativecommons.org/ns#" xmlns:dc="http://purl.org/dc/elements/1.1/" xmlns:freecad="http://www.freecadweb.org/wiki/index.php?title=Svg_Namespace" xmlns:rdf="http://www.w3.org/1999/02/22-rdf-syntax-ns#" xmlns:svg="http://www.w3.org/2000/svg"
	 xmlns="http://www.w3.org/2000/svg" xmlns:xlink="http://www.w3.org/1999/xlink" x="0px" y="0px" viewBox="0 0 852.4 342.1"
	 style="enable-background:new 0 0 852.4 342.1;" xml:space="preserve">
<style type="text/css">
	.st0{fill-rule:evenodd;clip-rule:evenodd;fill:#FFFFFF;}
	.st1{fill:none;stroke:#000000;stroke-width:0.2835;stroke-linecap:square;stroke-linejoin:bevel;stroke-miterlimit:1.1339;}
	.st2{fill:none;stroke:#000000;stroke-width:1.9843;stroke-linecap:round;stroke-linejoin:bevel;stroke-miterlimit:1.1339;}
</style>
<desc>Drawing page: Page exported from FreeCAD document: Chassis2021_Vorderwand</desc>
<g id="Page">
	<g id="DrawingContent">
		<g transform="matrix(1,0,0,1,5945,4205)">
			<path vector-effect="non-scaling-stroke" class="st0" d="M-5093.6-3863.9V-4204H-5944v340.2H-5093.6"/>
		</g>
		<g transform="matrix(1,0,0,1,5945,4205)">
			<polygon class="st1" points="-5518.8,-4033.9 -5518.8,-4033.9 -5518.8,-4033.9 			"/>
		</g>
		<g transform="matrix(1,0,0,1,5945,4205)">
			<path vector-effect="non-scaling-stroke" class="st0" d="M-5243.9-4033.9c0,12.5-10.2,22.7-22.7,22.7
				c-12.5,0-22.7-10.2-22.7-22.7c0-12.5,10.2-22.7,22.7-22.7C-5254-4056.6-5243.9-4046.5-5243.9-4033.9"/>
		</g>
		<g transform="matrix(1,0,0,1,5945,4205)">
			<polygon class="st1" points="-5518.8,-4033.9 -5518.8,-4033.9 -5518.8,-4033.9 			"/>
		</g>
		<g transform="matrix(1,0,0,1,5945,4205)">
			<path vector-effect="non-scaling-stroke" class="st0" d="M-5459.3-4033.9c0,12.5-10.2,22.7-22.7,22.7
				c-12.5,0-22.7-10.2-22.7-22.7c0-12.5,10.2-22.7,22.7-22.7C-5469.4-4056.6-5459.3-4046.5-5459.3-4033.9"/>
		</g>
		<g transform="matrix(1,0,0,1,5945,4205)">
			<polygon class="st1" points="-5518.8,-4033.9 -5518.8,-4033.9 -5518.8,-4033.9 			"/>
		</g>
		<g transform="matrix(1,0,0,1,5945,4205)">
			<path vector-effect="non-scaling-stroke" class="st0" d="M-5317.6-4033.9c0,12.5-10.2,22.7-22.7,22.7
				c-12.5,0-22.7-10.2-22.7-22.7c0-12.5,10.2-22.7,22.7-22.7C-5327.7-4056.6-5317.6-4046.5-5317.6-4033.9"/>
		</g>
		<g transform="matrix(1,0,0,1,5945,4205)">
			<polygon class="st1" points="-5518.8,-4033.9 -5518.8,-4033.9 -5518.8,-4033.9 			"/>
		</g>
		<g transform="matrix(1,0,0,1,5945,4205)">
			<path vector-effect="non-scaling-stroke" class="st0" d="M-5533-4033.9c0,12.5-10.2,22.7-22.7,22.7c-12.5,0-22.7-10.2-22.7-22.7
				c0-12.5,10.2-22.7,22.7-22.7C-5543.1-4056.6-5533-4046.5-5533-4033.9"/>
		</g>
		<g transform="matrix(1,0,0,1,5945,4205)">
			<polygon class="st1" points="-5518.8,-4033.9 -5518.8,-4033.9 -5518.8,-4033.9 			"/>
		</g>
		<g transform="matrix(1,0,0,1,5945,4205)">
			<path vector-effect="non-scaling-stroke" class="st0" d="M-5674.7-4033.9c0,12.5-10.2,22.7-22.7,22.7s-22.7-10.2-22.7-22.7
				c0-12.5,10.2-22.7,22.7-22.7S-5674.7-4046.5-5674.7-4033.9"/>
		</g>
		<g transform="matrix(1,0,0,1,5945,4205)">
			<polygon class="st1" points="-5518.8,-4033.9 -5518.8,-4033.9 -5518.8,-4033.9 			"/>
		</g>
		<g transform="matrix(1,0,0,1,5945,4205)">
			<path vector-effect="non-scaling-stroke" class="st0" d="M-5748.4-4033.9c0,12.5-10.2,22.7-22.7,22.7
				c-12.5,0-22.7-10.2-22.7-22.7c0-12.5,10.2-22.7,22.7-22.7C-5758.6-4056.6-5748.4-4046.5-5748.4-4033.9"/>
		</g>
		<g transform="matrix(1,0,0,1,5945,4205)">
			<polygon class="st1" points="-5518.8,-4033.9 -5518.8,-4033.9 -5518.8,-4033.9 			"/>
		</g>
		<g transform="matrix(1,0,0,1,5945,4205)">
			<path vector-effect="non-scaling-stroke" class="st0" d="M-5141.8-3920.5c0,4.7-3.8,8.5-8.5,8.5c-4.7,0-8.5-3.8-8.5-8.5
				c0-4.7,3.8-8.5,8.5-8.5C-5145.6-3929-5141.8-3925.2-5141.8-3920.5"/>
		</g>
		<g transform="matrix(1,0,0,1,5945,4205)">
			<polygon class="st1" points="-5518.8,-4033.9 -5518.8,-4033.9 -5518.8,-4033.9 			"/>
		</g>
		<g transform="matrix(1,0,0,1,5945,4205)">
			<path vector-effect="non-scaling-stroke" class="st0" d="M-5141.8-4147.3c0,4.7-3.8,8.5-8.5,8.5c-4.7,0-8.5-3.8-8.5-8.5
				s3.8-8.5,8.5-8.5C-5145.6-4155.8-5141.8-4152-5141.8-4147.3"/>
		</g>
		<g transform="matrix(1,0,0,1,5945,4205)">
			<polygon class="st1" points="-5518.8,-4033.9 -5518.8,-4033.9 -5518.8,-4033.9 			"/>
		</g>
		<g transform="matrix(1,0,0,1,5945,4205)">
			<path vector-effect="non-scaling-stroke" class="st0" d="M-5878.8-4147.3c0,4.7-3.8,8.5-8.5,8.5s-8.5-3.8-8.5-8.5
				s3.8-8.5,8.5-8.5S-5878.8-4152-5878.8-4147.3"/>
		</g>
		<g transform="matrix(1,0,0,1,5945,4205)">
			<polygon class="st1" points="-5518.8,-4033.9 -5518.8,-4033.9 -5518.8,-4033.9 			"/>
		</g>
		<g transform="matrix(1,0,0,1,5945,4205)">
			<path vector-effect="non-scaling-stroke" class="st0" d="M-5878.8-3920.5c0,4.7-3.8,8.5-8.5,8.5s-8.5-3.8-8.5-8.5
				c0-4.7,3.8-8.5,8.5-8.5S-5878.8-3925.2-5878.8-3920.5"/>
		</g>
		<g transform="matrix(1,0,0,1,5945,4205)">
			<polygon class="st1" points="-5518.8,-4033.9 -5518.8,-4033.9 -5518.8,-4033.9 			"/>
		</g>
		<g transform="matrix(1,0,0,1,5945,4205)">
			<path vector-effect="none" class="st2" d="M-5944-3863.9h850.4"/>
		</g>
		<g transform="matrix(1,0,0,1,5945,4205)">
			<path vector-effect="none" class="st2" d="M-5093.6-3863.9V-4204"/>
		</g>
		<g transform="matrix(1,0,0,1,5945,4205)">
			<path vector-effect="none" class="st2" d="M-5093.6-4204H-5944"/>
		</g>
		<g transform="matrix(1,0,0,1,5945,4205)">
			<path vector-effect="none" class="st2" d="M-5944-4204v340.2"/>
		</g>
		<g transform="matrix(1,0,0,1,5945,4205)">
			<path vector-effect="none" class="st2" d="M-5878.8-4147.3c0,4.7-3.8,8.5-8.5,8.5s-8.5-3.8-8.5-8.5s3.8-8.5,8.5-8.5
				S-5878.8-4152-5878.8-4147.3"/>
		</g>
		<g transform="matrix(1,0,0,1,5945,4205)">
			<path vector-effect="none" class="st2" d="M-5141.8-4147.3c0,4.7-3.8,8.5-8.5,8.5c-4.7,0-8.5-3.8-8.5-8.5s3.8-8.5,8.5-8.5
				C-5145.6-4155.8-5141.8-4152-5141.8-4147.3"/>
		</g>
		<g transform="matrix(1,0,0,1,5945,4205)">
			<path vector-effect="none" class="st2" d="M-5141.8-3920.5c0,4.7-3.8,8.5-8.5,8.5c-4.7,0-8.5-3.8-8.5-8.5c0-4.7,3.8-8.5,8.5-8.5
				C-5145.6-3929-5141.8-3925.2-5141.8-3920.5"/>
		</g>
		<g transform="matrix(1,0,0,1,5945,4205)">
			<path vector-effect="none" class="st2" d="M-5878.8-3920.5c0,4.7-3.8,8.5-8.5,8.5s-8.5-3.8-8.5-8.5c0-4.7,3.8-8.5,8.5-8.5
				S-5878.8-3925.2-5878.8-3920.5"/>
		</g>
		<g transform="matrix(1,0,0,1,5945,4205)">
			<path vector-effect="none" class="st2" d="M-5748.4-4033.9c0,12.5-10.2,22.7-22.7,22.7c-12.5,0-22.7-10.2-22.7-22.7
				c0-12.5,10.2-22.7,22.7-22.7C-5758.6-4056.6-5748.4-4046.5-5748.4-4033.9"/>
		</g>
		<g transform="matrix(1,0,0,1,5945,4205)">
			<path vector-effect="none" class="st2" d="M-5674.7-4033.9c0,12.5-10.2,22.7-22.7,22.7s-22.7-10.2-22.7-22.7
				c0-12.5,10.2-22.7,22.7-22.7S-5674.7-4046.5-5674.7-4033.9"/>
		</g>
		<g transform="matrix(1,0,0,1,5945,4205)">
			<path vector-effect="none" class="st2" d="M-5533-4033.9c0,12.5-10.2,22.7-22.7,22.7c-12.5,0-22.7-10.2-22.7-22.7
				c0-12.5,10.2-22.7,22.7-22.7C-5543.1-4056.6-5533-4046.5-5533-4033.9"/>
		</g>
		<g transform="matrix(1,0,0,1,5945,4205)">
			<path vector-effect="none" class="st2" d="M-5459.3-4033.9c0,12.5-10.2,22.7-22.7,22.7c-12.5,0-22.7-10.2-22.7-22.7
				c0-12.5,10.2-22.7,22.7-22.7C-5469.4-4056.6-5459.3-4046.5-5459.3-4033.9"/>
		</g>
		<g transform="matrix(1,0,0,1,5945,4205)">
			<path vector-effect="none" class="st2" d="M-5317.6-4033.9c0,12.5-10.2,22.7-22.7,22.7c-12.5,0-22.7-10.2-22.7-22.7
				c0-12.5,10.2-22.7,22.7-22.7C-5327.7-4056.6-5317.6-4046.5-5317.6-4033.9"/>
		</g>
		<g transform="matrix(1,0,0,1,5945,4205)">
			<path vector-effect="none" class="st2" d="M-5243.9-4033.9c0,12.5-10.2,22.7-22.7,22.7c-12.5,0-22.7-10.2-22.7-22.7
				c0-12.5,10.2-22.7,22.7-22.7C-5254-4056.6-5243.9-4046.5-5243.9-4033.9"/>
		</g>
	</g>
</g>
</svg>
