<?xml version="1.0" encoding="utf-8"?>
<!-- Generator: Adobe Illustrator 24.3.0, SVG Export Plug-In . SVG Version: 6.00 Build 0)  -->
<svg version="1.1"
	 id="Ebene_1" xmlns:cc="http://creativecommons.org/ns#" xmlns:dc="http://purl.org/dc/elements/1.1/" xmlns:freecad="http://www.freecadweb.org/wiki/index.php?title=Svg_Namespace" xmlns:rdf="http://www.w3.org/1999/02/22-rdf-syntax-ns#" xmlns:svg="http://www.w3.org/2000/svg"
	 xmlns="http://www.w3.org/2000/svg" xmlns:xlink="http://www.w3.org/1999/xlink" x="0px" y="0px" viewBox="0 0 937.4 427.2"
	 style="enable-background:new 0 0 937.4 427.2;" xml:space="preserve">
<style type="text/css">
	.st0{fill-rule:evenodd;clip-rule:evenodd;fill:#FFFFFF;}
	.st1{fill:none;stroke:#000000;stroke-width:0.2835;stroke-linecap:square;stroke-linejoin:bevel;stroke-miterlimit:1.1339;}
	.st2{fill:none;stroke:#000000;stroke-width:1.9843;stroke-linecap:round;stroke-linejoin:bevel;stroke-miterlimit:1.1339;}
</style>
<desc>Drawing page: Page exported from FreeCAD document: Chassis2021_Seitenwand</desc>
<g id="Page">
	<g id="DrawingContent">
		<g transform="matrix(1,0,0,1,5945,4205)">
			<path vector-effect="non-scaling-stroke" class="st0" d="M-5008.6-3892.2V-4204H-5944v311.8c0,62.6,50.8,113.4,113.4,113.4h708.7
				C-5059.3-3778.8-5008.6-3829.6-5008.6-3892.2"/>
		</g>
		<g transform="matrix(1,0,0,1,5945,4205)">
			<polygon class="st1" points="-5476.3,-3991.4 -5476.3,-3991.4 -5476.3,-3991.4 			"/>
		</g>
		<g transform="matrix(1,0,0,1,5945,4205)">
			<path vector-effect="non-scaling-stroke" class="st0" d="M-5581.5-3943.2c0,12.4-10,22.4-22.4,22.4c-12.4,0-22.4-10-22.4-22.4
				s10-22.4,22.4-22.4C-5591.5-3965.6-5581.5-3955.6-5581.5-3943.2"/>
		</g>
		<g transform="matrix(1,0,0,1,5945,4205)">
			<polygon class="st1" points="-5476.3,-3991.4 -5476.3,-3991.4 -5476.3,-3991.4 			"/>
		</g>
		<g transform="matrix(1,0,0,1,5945,4205)">
			<path vector-effect="non-scaling-stroke" class="st0" d="M-5870.3-3920.5c0,4.7-3.8,8.5-8.5,8.5s-8.5-3.8-8.5-8.5
				c0-4.7,3.8-8.5,8.5-8.5S-5870.3-3925.2-5870.3-3920.5"/>
		</g>
		<g transform="matrix(1,0,0,1,5945,4205)">
			<polygon class="st1" points="-5476.3,-3991.4 -5476.3,-3991.4 -5476.3,-3991.4 			"/>
		</g>
		<g transform="matrix(1,0,0,1,5945,4205)">
			<path vector-effect="non-scaling-stroke" class="st0" d="M-5065.3-4147.3c0,4.7-3.8,8.5-8.5,8.5c-4.7,0-8.5-3.8-8.5-8.5
				s3.8-8.5,8.5-8.5C-5069.1-4155.8-5065.3-4152-5065.3-4147.3"/>
		</g>
		<g transform="matrix(1,0,0,1,5945,4205)">
			<polygon class="st1" points="-5476.3,-3991.4 -5476.3,-3991.4 -5476.3,-3991.4 			"/>
		</g>
		<g transform="matrix(1,0,0,1,5945,4205)">
			<path vector-effect="non-scaling-stroke" class="st0" d="M-5065.3-3920.5c0,4.7-3.8,8.5-8.5,8.5c-4.7,0-8.5-3.8-8.5-8.5
				c0-4.7,3.8-8.5,8.5-8.5C-5069.1-3929-5065.3-3925.2-5065.3-3920.5"/>
		</g>
		<g transform="matrix(1,0,0,1,5945,4205)">
			<polygon class="st1" points="-5476.3,-3991.4 -5476.3,-3991.4 -5476.3,-3991.4 			"/>
		</g>
		<g transform="matrix(1,0,0,1,5945,4205)">
			<path vector-effect="non-scaling-stroke" class="st0" d="M-5870.3-4147.3c0,4.7-3.8,8.5-8.5,8.5s-8.5-3.8-8.5-8.5
				s3.8-8.5,8.5-8.5S-5870.3-4152-5870.3-4147.3"/>
		</g>
		<g transform="matrix(1,0,0,1,5945,4205)">
			<polygon class="st1" points="-5476.3,-3991.4 -5476.3,-3991.4 -5476.3,-3991.4 			"/>
		</g>
		<g transform="matrix(1,0,0,1,5945,4205)">
			<path vector-effect="non-scaling-stroke" class="st0" d="M-5633.3-3908.1c0,3.1-2.5,5.7-5.7,5.7c-3.1,0-5.7-2.5-5.7-5.7
				c0-3.1,2.5-5.7,5.7-5.7C-5635.8-3913.8-5633.3-3911.3-5633.3-3908.1"/>
		</g>
		<g transform="matrix(1,0,0,1,5945,4205)">
			<polygon class="st1" points="-5476.3,-3991.4 -5476.3,-3991.4 -5476.3,-3991.4 			"/>
		</g>
		<g transform="matrix(1,0,0,1,5945,4205)">
			<path vector-effect="non-scaling-stroke" class="st0" d="M-5563.1-3908.1c0,3.1-2.5,5.7-5.7,5.7c-3.1,0-5.7-2.5-5.7-5.7
				c0-3.1,2.5-5.7,5.7-5.7C-5565.6-3913.8-5563.1-3911.3-5563.1-3908.1"/>
		</g>
		<g transform="matrix(1,0,0,1,5945,4205)">
			<polygon class="st1" points="-5476.3,-3991.4 -5476.3,-3991.4 -5476.3,-3991.4 			"/>
		</g>
		<g transform="matrix(1,0,0,1,5945,4205)">
			<path vector-effect="non-scaling-stroke" class="st0" d="M-5633.3-3978.3c0,3.1-2.5,5.7-5.7,5.7c-3.1,0-5.7-2.5-5.7-5.7
				c0-3.1,2.5-5.7,5.7-5.7C-5635.8-3984-5633.3-3981.4-5633.3-3978.3"/>
		</g>
		<g transform="matrix(1,0,0,1,5945,4205)">
			<polygon class="st1" points="-5476.3,-3991.4 -5476.3,-3991.4 -5476.3,-3991.4 			"/>
		</g>
		<g transform="matrix(1,0,0,1,5945,4205)">
			<path vector-effect="non-scaling-stroke" class="st0" d="M-5563.1-3978.3c0,3.1-2.5,5.7-5.7,5.7c-3.1,0-5.7-2.5-5.7-5.7
				c0-3.1,2.5-5.7,5.7-5.7C-5565.6-3984-5563.1-3981.4-5563.1-3978.3"/>
		</g>
		<g transform="matrix(1,0,0,1,5945,4205)">
			<polygon class="st1" points="-5476.3,-3991.4 -5476.3,-3991.4 -5476.3,-3991.4 			"/>
		</g>
		<g transform="matrix(1,0,0,1,5945,4205)">
			<path vector-effect="none" class="st2" d="M-5830.6-3778.8h708.7"/>
		</g>
		<g transform="matrix(1,0,0,1,5945,4205)">
			<path vector-effect="none" class="st2" d="M-5122-3778.8c62.6,0,113.4-50.8,113.4-113.4"/>
		</g>
		<g transform="matrix(1,0,0,1,5945,4205)">
			<path vector-effect="none" class="st2" d="M-5008.6-3892.2V-4204"/>
		</g>
		<g transform="matrix(1,0,0,1,5945,4205)">
			<path vector-effect="none" class="st2" d="M-5008.6-4204H-5944"/>
		</g>
		<g transform="matrix(1,0,0,1,5945,4205)">
			<path vector-effect="none" class="st2" d="M-5944-4204v311.8"/>
		</g>
		<g transform="matrix(1,0,0,1,5945,4205)">
			<path vector-effect="none" class="st2" d="M-5944-3892.2c0,62.6,50.8,113.4,113.4,113.4"/>
		</g>
		<g transform="matrix(1,0,0,1,5945,4205)">
			<path vector-effect="none" class="st2" d="M-5581.5-3943.2c0,12.4-10,22.4-22.4,22.4c-12.4,0-22.4-10-22.4-22.4
				s10-22.4,22.4-22.4C-5591.5-3965.6-5581.5-3955.6-5581.5-3943.2"/>
		</g>
		<g transform="matrix(1,0,0,1,5945,4205)">
			<path vector-effect="none" class="st2" d="M-5870.3-3920.5c0,4.7-3.8,8.5-8.5,8.5s-8.5-3.8-8.5-8.5c0-4.7,3.8-8.5,8.5-8.5
				S-5870.3-3925.2-5870.3-3920.5"/>
		</g>
		<g transform="matrix(1,0,0,1,5945,4205)">
			<path vector-effect="none" class="st2" d="M-5870.3-4147.3c0,4.7-3.8,8.5-8.5,8.5s-8.5-3.8-8.5-8.5s3.8-8.5,8.5-8.5
				S-5870.3-4152-5870.3-4147.3"/>
		</g>
		<g transform="matrix(1,0,0,1,5945,4205)">
			<path vector-effect="none" class="st2" d="M-5065.3-4147.3c0,4.7-3.8,8.5-8.5,8.5c-4.7,0-8.5-3.8-8.5-8.5s3.8-8.5,8.5-8.5
				C-5069.1-4155.8-5065.3-4152-5065.3-4147.3"/>
		</g>
		<g transform="matrix(1,0,0,1,5945,4205)">
			<path vector-effect="none" class="st2" d="M-5065.3-3920.5c0,4.7-3.8,8.5-8.5,8.5c-4.7,0-8.5-3.8-8.5-8.5c0-4.7,3.8-8.5,8.5-8.5
				C-5069.1-3929-5065.3-3925.2-5065.3-3920.5"/>
		</g>
		<g transform="matrix(1,0,0,1,5945,4205)">
			<path vector-effect="none" class="st2" d="M-5633.3-3908.1c0,3.1-2.5,5.7-5.7,5.7c-3.1,0-5.7-2.5-5.7-5.7c0-3.1,2.5-5.7,5.7-5.7
				C-5635.8-3913.8-5633.3-3911.3-5633.3-3908.1"/>
		</g>
		<g transform="matrix(1,0,0,1,5945,4205)">
			<path vector-effect="none" class="st2" d="M-5563.1-3908.1c0,3.1-2.5,5.7-5.7,5.7c-3.1,0-5.7-2.5-5.7-5.7c0-3.1,2.5-5.7,5.7-5.7
				C-5565.6-3913.8-5563.1-3911.3-5563.1-3908.1"/>
		</g>
		<g transform="matrix(1,0,0,1,5945,4205)">
			<path vector-effect="none" class="st2" d="M-5563.1-3978.3c0,3.1-2.5,5.7-5.7,5.7c-3.1,0-5.7-2.5-5.7-5.7c0-3.1,2.5-5.7,5.7-5.7
				C-5565.6-3984-5563.1-3981.4-5563.1-3978.3"/>
		</g>
		<g transform="matrix(1,0,0,1,5945,4205)">
			<path vector-effect="none" class="st2" d="M-5633.3-3978.3c0,3.1-2.5,5.7-5.7,5.7c-3.1,0-5.7-2.5-5.7-5.7c0-3.1,2.5-5.7,5.7-5.7
				C-5635.8-3984-5633.3-3981.4-5633.3-3978.3"/>
		</g>
	</g>
</g>
</svg>
