<?xml version="1.0" encoding="utf-8"?>
<!-- Generator: Adobe Illustrator 24.3.0, SVG Export Plug-In . SVG Version: 6.00 Build 0)  -->
<svg version="1.1"
	 id="Ebene_1" xmlns:cc="http://creativecommons.org/ns#" xmlns:dc="http://purl.org/dc/elements/1.1/" xmlns:freecad="http://www.freecadweb.org/wiki/index.php?title=Svg_Namespace" xmlns:rdf="http://www.w3.org/1999/02/22-rdf-syntax-ns#" xmlns:svg="http://www.w3.org/2000/svg"
	 xmlns="http://www.w3.org/2000/svg" xmlns:xlink="http://www.w3.org/1999/xlink" x="0px" y="0px" viewBox="0 0 710.6 708.7"
	 style="enable-background:new 0 0 710.6 708.7;" xml:space="preserve">
<style type="text/css">
	.st0{fill-rule:evenodd;clip-rule:evenodd;fill:#FFFFFF;}
	.st1{fill:none;stroke:#000000;stroke-width:0.2835;stroke-linecap:square;stroke-linejoin:bevel;stroke-miterlimit:1.1339;}
	.st2{fill:none;stroke:#000000;stroke-width:1.9843;stroke-linecap:round;stroke-linejoin:bevel;stroke-miterlimit:1.1339;}
</style>
<desc>Drawing page: Page exported from FreeCAD document: Chassis2021_Rad</desc>
<g id="Page">
	<g id="DrawingContent">
		<g transform="matrix(1,0,0,1,5945,4205)">
			<path vector-effect="non-scaling-stroke" class="st0" d="M-5235.5-3840.2c0.2-7,0.2-13.9,0-20.9c0-1.2-0.8-2.2-1.9-2.6l-27.1-9.7
				c-0.5-7.6-1.3-15.1-2.4-22.6l24.5-15.1c1-0.6,1.5-1.8,1.3-2.9c-1.2-6.8-2.7-13.6-4.3-20.4c-0.3-1.1-1.2-2-2.4-2.1l-28.5-3.9
				c-2.1-7.3-4.4-14.5-7-21.6l20.8-19.9c0.8-0.8,1.1-2,0.7-3.1c-2.6-6.4-5.5-12.8-8.5-19.1c-0.5-1.1-1.6-1.7-2.8-1.6l-28.7,2.1
				c-3.6-6.7-7.4-13.3-11.4-19.7l16.2-23.8c0.7-1,0.7-2.2,0-3.2c-3.9-5.7-8-11.4-12.3-16.9c-0.7-0.9-1.9-1.3-3-1l-27.6,8.1
				c-4.9-5.8-10-11.5-15.2-16.9l10.9-26.7c0.4-1.1,0.2-2.3-0.7-3.1c-5-4.8-10.2-9.5-15.5-14c-0.9-0.8-2.1-0.9-3.2-0.3l-25.4,13.6
				c-6-4.7-12.1-9.1-18.4-13.4l5.1-28.3c0.2-1.1-0.3-2.3-1.3-2.9c-5.9-3.7-11.9-7.1-18.1-10.4c-1-0.6-2.3-0.4-3.2,0.3l-22,18.6
				c-6.8-3.3-13.8-6.4-20.8-9.3l-0.9-28.8c0-1.2-0.8-2.2-1.9-2.6c-6.5-2.3-13.2-4.5-19.8-6.4c-1.1-0.3-2.3,0.1-3,1l-17.6,22.8
				c-7.4-1.8-14.8-3.4-22.3-4.7l-6.8-28c-0.3-1.1-1.2-2-2.4-2.1c-6.9-0.9-13.8-1.7-20.7-2.2c-1.2-0.1-2.3,0.5-2.8,1.6l-12.5,25.9
				c-7.6-0.3-15.2-0.3-22.8,0l-12.5-25.9c-0.5-1.1-1.6-1.7-2.8-1.6c-6.9,0.5-13.9,1.3-20.7,2.2c-1.2,0.2-2.1,1-2.4,2.1l-6.8,28
				c-7.5,1.3-14.9,2.9-22.3,4.7l-17.6-22.8c-0.7-0.9-1.9-1.3-3-1c-6.7,2-13.3,4.1-19.8,6.4c-1.1,0.4-1.8,1.4-1.9,2.6l-0.9,28.8
				c-7,2.8-14,5.9-20.8,9.3l-22-18.6c-0.9-0.8-2.2-0.9-3.2-0.3c-6.1,3.3-12.1,6.8-18.1,10.4c-1,0.6-1.5,1.8-1.3,2.9l5.1,28.3
				c-6.3,4.2-12.4,8.7-18.4,13.4l-25.4-13.6c-1-0.6-2.3-0.4-3.2,0.3c-5.3,4.5-10.5,9.2-15.5,14c-0.8,0.8-1.1,2-0.7,3.1l10.9,26.7
				c-5.3,5.5-10.3,11.1-15.2,16.9l-27.6-8.1c-1.1-0.3-2.3,0.1-3,1c-4.3,5.5-8.3,11.1-12.3,16.9c-0.7,1-0.7,2.2,0,3.2l16.2,23.8
				c-4,6.4-7.8,13-11.4,19.7l-28.7-2.1c-1.2-0.1-2.3,0.5-2.8,1.6c-3,6.3-5.8,12.6-8.5,19.1c-0.4,1.1-0.2,2.3,0.7,3.1l20.8,19.9
				c-2.6,7.1-4.9,14.3-7,21.6l-28.5,3.9c-1.2,0.2-2.1,1-2.4,2.1c-1.6,6.8-3.1,13.6-4.3,20.4c-0.2,1.1,0.3,2.3,1.3,2.9l24.5,15.1
				c-1.1,7.5-1.8,15.1-2.4,22.6l-27.1,9.7c-1.1,0.4-1.8,1.4-1.9,2.6c-0.2,7-0.2,13.9,0,20.9c0,1.2,0.8,2.2,1.9,2.6l27.1,9.7
				c0.5,7.6,1.3,15.1,2.4,22.6l-24.5,15.1c-1,0.6-1.5,1.8-1.3,2.9c1.2,6.8,2.7,13.6,4.3,20.4c0.3,1.1,1.2,2,2.4,2.1l28.5,3.9
				c2.1,7.3,4.4,14.5,7,21.6l-20.8,19.9c-0.8,0.8-1.1,2-0.7,3.1c2.6,6.4,5.5,12.8,8.5,19.1c0.5,1.1,1.6,1.7,2.8,1.6l28.7-2.1
				c3.6,6.7,7.4,13.3,11.4,19.7l-16.2,23.8c-0.7,1-0.7,2.2,0,3.2c3.9,5.7,8,11.4,12.3,16.9c0.7,0.9,1.9,1.3,3,1l27.6-8.1
				c4.9,5.8,10,11.5,15.2,16.9l-10.9,26.7c-0.4,1.1-0.2,2.3,0.7,3.1c5,4.8,10.2,9.5,15.5,14c0.9,0.8,2.1,0.9,3.2,0.3l25.4-13.6
				c6,4.7,12.1,9.1,18.4,13.4l-5.1,28.3c-0.2,1.1,0.3,2.3,1.3,2.9c5.9,3.7,11.9,7.1,18.1,10.4c1,0.6,2.3,0.4,3.2-0.3l22-18.6
				c6.8,3.3,13.8,6.4,20.8,9.3l0.9,28.8c0,1.2,0.8,2.2,1.9,2.6c6.5,2.3,13.2,4.5,19.8,6.4c1.1,0.3,2.3-0.1,3-1l17.6-22.8
				c7.4,1.8,14.8,3.4,22.3,4.7l6.8,28c0.3,1.1,1.2,2,2.4,2.1c6.9,0.9,13.8,1.7,20.7,2.2c1.2,0.1,2.3-0.5,2.8-1.6l12.5-25.9
				c7.6,0.3,15.2,0.3,22.8,0l12.5,25.9c0.5,1.1,1.6,1.7,2.8,1.6c6.9-0.5,13.9-1.3,20.7-2.2c1.2-0.2,2.1-1,2.4-2.1l6.8-28
				c7.5-1.3,14.9-2.9,22.3-4.7l17.6,22.8c0.7,0.9,1.9,1.3,3,1c6.7-2,13.3-4.1,19.8-6.4c1.1-0.4,1.8-1.4,1.9-2.6l0.9-28.8
				c7-2.8,14-5.9,20.8-9.3l22,18.6c0.9,0.8,2.1,0.9,3.2,0.3c6.1-3.3,12.1-6.8,18.1-10.4c1-0.6,1.5-1.8,1.3-2.9l-5.1-28.3
				c6.3-4.2,12.4-8.7,18.4-13.4l25.4,13.6c1,0.6,2.3,0.4,3.2-0.3c5.3-4.5,10.5-9.2,15.5-14c0.8-0.8,1.1-2,0.7-3.1l-10.9-26.7
				c5.3-5.5,10.3-11.1,15.2-16.9l27.6,8.1c1.1,0.3,2.3-0.1,3-1c4.3-5.5,8.3-11.1,12.3-16.9c0.7-1,0.7-2.2,0-3.2l-16.2-23.8
				c4-6.4,7.8-13,11.4-19.7l28.7,2.1c1.2,0.1,2.3-0.5,2.8-1.6c3-6.3,5.8-12.6,8.5-19.1c0.4-1.1,0.2-2.3-0.7-3.1l-20.8-19.9
				c2.6-7.1,4.9-14.3,7-21.6l28.5-3.9c1.2-0.2,2.1-1,2.4-2.1c1.6-6.8,3.1-13.6,4.3-20.4c0.2-1.1-0.3-2.3-1.3-2.9l-24.5-15.1
				c1.1-7.5,1.8-15.1,2.4-22.6l27.1-9.7C-5236.3-3838-5235.5-3839.1-5235.5-3840.2"/>
		</g>
		<g transform="matrix(1,0,0,1,5945,4205)">
			<polygon class="st1" points="-5589.7,-3850.7 -5589.7,-3850.7 -5589.7,-3850.7 			"/>
		</g>
		<g transform="matrix(1,0,0,1,5945,4205)">
			<path vector-effect="non-scaling-stroke" class="st0" d="M-5439.3-3700.3l50.1,50.1c-35.2,35.2-79,60.5-127.1,73.4l-18.3-68.5
				C-5498.6-3655-5465.7-3674-5439.3-3700.3"/>
		</g>
		<g transform="matrix(1,0,0,1,5945,4205)">
			<polygon class="st1" points="-5589.7,-3850.7 -5589.7,-3850.7 -5589.7,-3850.7 			"/>
		</g>
		<g transform="matrix(1,0,0,1,5945,4205)">
			<path vector-effect="non-scaling-stroke" class="st0" d="M-5740-4001l-50.1-50.1c35.2-35.2,79-60.5,127.1-73.4l18.3,68.5
				C-5680.7-4046.4-5713.6-4027.4-5740-4001"/>
		</g>
		<g transform="matrix(1,0,0,1,5945,4205)">
			<polygon class="st1" points="-5589.7,-3850.7 -5589.7,-3850.7 -5589.7,-3850.7 			"/>
		</g>
		<g transform="matrix(1,0,0,1,5945,4205)">
			<path vector-effect="non-scaling-stroke" class="st0" d="M-5534.7-4056l18.3-68.5c48.1,12.9,91.9,38.2,127.1,73.4l-50.1,50.1
				C-5465.7-4027.4-5498.6-4046.4-5534.7-4056"/>
		</g>
		<g transform="matrix(1,0,0,1,5945,4205)">
			<polygon class="st1" points="-5589.7,-3850.7 -5589.7,-3850.7 -5589.7,-3850.7 			"/>
		</g>
		<g transform="matrix(1,0,0,1,5945,4205)">
			<path vector-effect="non-scaling-stroke" class="st0" d="M-5644.7-3645.3l-18.3,68.5c-48.1-12.9-91.9-38.2-127.1-73.4l50.1-50.1
				C-5713.6-3674-5680.7-3655-5644.7-3645.3"/>
		</g>
		<g transform="matrix(1,0,0,1,5945,4205)">
			<polygon class="st1" points="-5589.7,-3850.7 -5589.7,-3850.7 -5589.7,-3850.7 			"/>
		</g>
		<g transform="matrix(1,0,0,1,5945,4205)">
			<path vector-effect="non-scaling-stroke" class="st0" d="M-5795-3795.6c-9.7-36-9.7-74,0-110l-68.5-18.3
				c-12.9,48.1-12.9,98.7,0,146.7L-5795-3795.6"/>
		</g>
		<g transform="matrix(1,0,0,1,5945,4205)">
			<polygon class="st1" points="-5589.7,-3850.7 -5589.7,-3850.7 -5589.7,-3850.7 			"/>
		</g>
		<g transform="matrix(1,0,0,1,5945,4205)">
			<path vector-effect="non-scaling-stroke" class="st0" d="M-5384.3-3905.7l68.5-18.3c12.9,48.1,12.9,98.7,0,146.7l-68.5-18.3
				C-5374.7-3831.7-5374.7-3869.6-5384.3-3905.7"/>
		</g>
		<g transform="matrix(1,0,0,1,5945,4205)">
			<polygon class="st1" points="-5589.7,-3850.7 -5589.7,-3850.7 -5589.7,-3850.7 			"/>
		</g>
		<g transform="matrix(1,0,0,1,5945,4205)">
			<path vector-effect="non-scaling-stroke" class="st0" d="M-5893-3850.7c0,3.1-2.5,5.7-5.7,5.7s-5.7-2.5-5.7-5.7
				c0-3.1,2.5-5.7,5.7-5.7S-5893-3853.8-5893-3850.7"/>
		</g>
		<g transform="matrix(1,0,0,1,5945,4205)">
			<polygon class="st1" points="-5589.7,-3850.7 -5589.7,-3850.7 -5589.7,-3850.7 			"/>
		</g>
		<g transform="matrix(1,0,0,1,5945,4205)">
			<path vector-effect="non-scaling-stroke" class="st0" d="M-5556.4-3850.7c0,3.1-2.5,5.7-5.7,5.7c-3.1,0-5.7-2.5-5.7-5.7
				c0-3.1,2.5-5.7,5.7-5.7C-5558.9-3856.3-5556.4-3853.8-5556.4-3850.7"/>
		</g>
		<g transform="matrix(1,0,0,1,5945,4205)">
			<polygon class="st1" points="-5589.7,-3850.7 -5589.7,-3850.7 -5589.7,-3850.7 			"/>
		</g>
		<g transform="matrix(1,0,0,1,5945,4205)">
			<path vector-effect="non-scaling-stroke" class="st0" d="M-5584-3878.3c0,3.1-2.5,5.7-5.7,5.7c-3.1,0-5.7-2.5-5.7-5.7
				s2.5-5.7,5.7-5.7C-5586.5-3884-5584-3881.4-5584-3878.3"/>
		</g>
		<g transform="matrix(1,0,0,1,5945,4205)">
			<polygon class="st1" points="-5589.7,-3850.7 -5589.7,-3850.7 -5589.7,-3850.7 			"/>
		</g>
		<g transform="matrix(1,0,0,1,5945,4205)">
			<path vector-effect="non-scaling-stroke" class="st0" d="M-5584-3823c0,3.1-2.5,5.7-5.7,5.7c-3.1,0-5.7-2.5-5.7-5.7
				s2.5-5.7,5.7-5.7C-5586.5-3828.7-5584-3826.2-5584-3823"/>
		</g>
		<g transform="matrix(1,0,0,1,5945,4205)">
			<polygon class="st1" points="-5589.7,-3850.7 -5589.7,-3850.7 -5589.7,-3850.7 			"/>
		</g>
		<g transform="matrix(1,0,0,1,5945,4205)">
			<path vector-effect="non-scaling-stroke" class="st0" d="M-5275-3850.7c0,3.1-2.5,5.7-5.7,5.7s-5.7-2.5-5.7-5.7
				c0-3.1,2.5-5.7,5.7-5.7S-5275-3853.8-5275-3850.7"/>
		</g>
		<g transform="matrix(1,0,0,1,5945,4205)">
			<polygon class="st1" points="-5589.7,-3850.7 -5589.7,-3850.7 -5589.7,-3850.7 			"/>
		</g>
		<g transform="matrix(1,0,0,1,5945,4205)">
			<path vector-effect="non-scaling-stroke" class="st0" d="M-5611.6-3850.7c0,3.1-2.5,5.7-5.7,5.7c-3.1,0-5.7-2.5-5.7-5.7
				c0-3.1,2.5-5.7,5.7-5.7C-5614.2-3856.3-5611.6-3853.8-5611.6-3850.7"/>
		</g>
		<g transform="matrix(1,0,0,1,5945,4205)">
			<polygon class="st1" points="-5589.7,-3850.7 -5589.7,-3850.7 -5589.7,-3850.7 			"/>
		</g>
		<g transform="matrix(1,0,0,1,5945,4205)">
			<path vector-effect="non-scaling-stroke" class="st0" d="M-5429.5-3583.1c0,3.1-2.5,5.7-5.7,5.7s-5.7-2.5-5.7-5.7
				c0-3.1,2.5-5.7,5.7-5.7S-5429.5-3586.2-5429.5-3583.1"/>
		</g>
		<g transform="matrix(1,0,0,1,5945,4205)">
			<polygon class="st1" points="-5589.7,-3850.7 -5589.7,-3850.7 -5589.7,-3850.7 			"/>
		</g>
		<g transform="matrix(1,0,0,1,5945,4205)">
			<path vector-effect="non-scaling-stroke" class="st0" d="M-5429.5-4118.3c0,3.1-2.5,5.7-5.7,5.7s-5.7-2.5-5.7-5.7
				s2.5-5.7,5.7-5.7S-5429.5-4121.4-5429.5-4118.3"/>
		</g>
		<g transform="matrix(1,0,0,1,5945,4205)">
			<polygon class="st1" points="-5589.7,-3850.7 -5589.7,-3850.7 -5589.7,-3850.7 			"/>
		</g>
		<g transform="matrix(1,0,0,1,5945,4205)">
			<path vector-effect="non-scaling-stroke" class="st0" d="M-5738.5-4118.3c0,3.1-2.5,5.7-5.7,5.7c-3.1,0-5.7-2.5-5.7-5.7
				s2.5-5.7,5.7-5.7C-5741-4123.9-5738.5-4121.4-5738.5-4118.3"/>
		</g>
		<g transform="matrix(1,0,0,1,5945,4205)">
			<polygon class="st1" points="-5589.7,-3850.7 -5589.7,-3850.7 -5589.7,-3850.7 			"/>
		</g>
		<g transform="matrix(1,0,0,1,5945,4205)">
			<path vector-effect="non-scaling-stroke" class="st0" d="M-5738.5-3583.1c0,3.1-2.5,5.7-5.7,5.7c-3.1,0-5.7-2.5-5.7-5.7
				c0-3.1,2.5-5.7,5.7-5.7C-5741-3588.8-5738.5-3586.2-5738.5-3583.1"/>
		</g>
		<g transform="matrix(1,0,0,1,5945,4205)">
			<polygon class="st1" points="-5589.7,-3850.7 -5589.7,-3850.7 -5589.7,-3850.7 			"/>
		</g>
		<g transform="matrix(1,0,0,1,5945,4205)">
			<path vector-effect="none" class="st2" d="M-5247.8-3764.7l-28.5,3.9"/>
		</g>
		<g transform="matrix(1,0,0,1,5945,4205)">
			<path vector-effect="none" class="st2" d="M-5247.8-3764.7c1.2-0.2,2.1-1,2.4-2.1"/>
		</g>
		<g transform="matrix(1,0,0,1,5945,4205)">
			<path vector-effect="none" class="st2" d="M-5283.4-3739.2c2.6-7.1,4.9-14.3,7-21.6"/>
		</g>
		<g transform="matrix(1,0,0,1,5945,4205)">
			<path vector-effect="none" class="st2" d="M-5942-3863.7l27.1-9.7"/>
		</g>
		<g transform="matrix(1,0,0,1,5945,4205)">
			<path vector-effect="none" class="st2" d="M-5942-3863.7c-1.1,0.4-1.8,1.4-1.9,2.6"/>
		</g>
		<g transform="matrix(1,0,0,1,5945,4205)">
			<path vector-effect="none" class="st2" d="M-5912.5-3896c-1.1,7.5-1.8,15.1-2.4,22.6"/>
		</g>
		<g transform="matrix(1,0,0,1,5945,4205)">
			<path vector-effect="none" class="st2" d="M-5943.9-3861.1c-0.2,7-0.2,13.9,0,20.9"/>
		</g>
		<g transform="matrix(1,0,0,1,5945,4205)">
			<path vector-effect="none" class="st2" d="M-5912.5-3896l-24.5-15.1"/>
		</g>
		<g transform="matrix(1,0,0,1,5945,4205)">
			<path vector-effect="none" class="st2" d="M-5943.9-3840.2c0,1.2,0.8,2.2,1.9,2.6"/>
		</g>
		<g transform="matrix(1,0,0,1,5945,4205)">
			<path vector-effect="none" class="st2" d="M-5937-3911.2c-1-0.6-1.5-1.8-1.3-2.9"/>
		</g>
		<g transform="matrix(1,0,0,1,5945,4205)">
			<path vector-effect="none" class="st2" d="M-5914.9-3827.9l-27.1-9.7"/>
		</g>
		<g transform="matrix(1,0,0,1,5945,4205)">
			<path vector-effect="none" class="st2" d="M-5933.9-3934.5c-1.6,6.8-3.1,13.6-4.3,20.4"/>
		</g>
		<g transform="matrix(1,0,0,1,5945,4205)">
			<path vector-effect="none" class="st2" d="M-5914.9-3827.9c0.5,7.6,1.3,15.1,2.4,22.6"/>
		</g>
		<g transform="matrix(1,0,0,1,5945,4205)">
			<path vector-effect="none" class="st2" d="M-5933.9-3934.5c0.3-1.1,1.2-2,2.4-2.1"/>
		</g>
		<g transform="matrix(1,0,0,1,5945,4205)">
			<path vector-effect="none" class="st2" d="M-5937-3790.2l24.5-15.1"/>
		</g>
		<g transform="matrix(1,0,0,1,5945,4205)">
			<path vector-effect="none" class="st2" d="M-5931.6-3936.7l28.5-3.9"/>
		</g>
		<g transform="matrix(1,0,0,1,5945,4205)">
			<path vector-effect="none" class="st2" d="M-5937-3790.2c-1,0.6-1.5,1.8-1.3,2.9"/>
		</g>
		<g transform="matrix(1,0,0,1,5945,4205)">
			<path vector-effect="none" class="st2" d="M-5896-3962.2c-2.6,7.1-4.9,14.3-7,21.6"/>
		</g>
		<g transform="matrix(1,0,0,1,5945,4205)">
			<path vector-effect="none" class="st2" d="M-5938.3-3787.2c1.2,6.8,2.7,13.6,4.3,20.4"/>
		</g>
		<g transform="matrix(1,0,0,1,5945,4205)">
			<path vector-effect="none" class="st2" d="M-5896-3962.2l-20.8-19.9"/>
		</g>
		<g transform="matrix(1,0,0,1,5945,4205)">
			<path vector-effect="none" class="st2" d="M-5931.6-3764.7c-1.2-0.2-2.1-1-2.4-2.1"/>
		</g>
		<g transform="matrix(1,0,0,1,5945,4205)">
			<path vector-effect="none" class="st2" d="M-5916.8-3982.1c-0.8-0.8-1.1-2-0.7-3.1"/>
		</g>
		<g transform="matrix(1,0,0,1,5945,4205)">
			<path vector-effect="none" class="st2" d="M-5903-3760.8l-28.5-3.9"/>
		</g>
		<g transform="matrix(1,0,0,1,5945,4205)">
			<path vector-effect="none" class="st2" d="M-5909-4004.3c-3,6.3-5.8,12.6-8.5,19.1"/>
		</g>
		<g transform="matrix(1,0,0,1,5945,4205)">
			<path vector-effect="none" class="st2" d="M-5903-3760.8c2.1,7.3,4.4,14.5,7,21.6"/>
		</g>
		<g transform="matrix(1,0,0,1,5945,4205)">
			<path vector-effect="none" class="st2" d="M-5909-4004.3c0.5-1.1,1.6-1.7,2.8-1.6"/>
		</g>
		<g transform="matrix(1,0,0,1,5945,4205)">
			<path vector-effect="none" class="st2" d="M-5916.8-3719.3l20.8-19.9"/>
		</g>
		<g transform="matrix(1,0,0,1,5945,4205)">
			<path vector-effect="none" class="st2" d="M-5906.2-4005.9l28.7,2.1"/>
		</g>
		<g transform="matrix(1,0,0,1,5945,4205)">
			<path vector-effect="none" class="st2" d="M-5916.8-3719.3c-0.8,0.8-1.1,2-0.7,3.1"/>
		</g>
		<g transform="matrix(1,0,0,1,5945,4205)">
			<path vector-effect="none" class="st2" d="M-5866.1-4023.4c-4,6.4-7.8,13-11.4,19.7"/>
		</g>
		<g transform="matrix(1,0,0,1,5945,4205)">
			<path vector-effect="none" class="st2" d="M-5917.5-3716.1c2.6,6.4,5.5,12.8,8.5,19.1"/>
		</g>
		<g transform="matrix(1,0,0,1,5945,4205)">
			<path vector-effect="none" class="st2" d="M-5866.1-4023.4l-16.2-23.8"/>
		</g>
		<g transform="matrix(1,0,0,1,5945,4205)">
			<path vector-effect="none" class="st2" d="M-5906.2-3695.5c-1.2,0.1-2.3-0.5-2.8-1.6"/>
		</g>
		<g transform="matrix(1,0,0,1,5945,4205)">
			<path vector-effect="none" class="st2" d="M-5882.3-4047.2c-0.7-1-0.7-2.2,0-3.2"/>
		</g>
		<g transform="matrix(1,0,0,1,5945,4205)">
			<path vector-effect="none" class="st2" d="M-5877.5-3697.6l-28.7,2.1"/>
		</g>
		<g transform="matrix(1,0,0,1,5945,4205)">
			<path vector-effect="none" class="st2" d="M-5870.1-4067.3c-4.3,5.5-8.3,11.1-12.3,16.9"/>
		</g>
		<g transform="matrix(1,0,0,1,5945,4205)">
			<path vector-effect="none" class="st2" d="M-5877.5-3697.6c3.6,6.7,7.4,13.3,11.4,19.7"/>
		</g>
		<g transform="matrix(1,0,0,1,5945,4205)">
			<path vector-effect="none" class="st2" d="M-5870.1-4067.3c0.7-0.9,1.9-1.3,3-1"/>
		</g>
		<g transform="matrix(1,0,0,1,5945,4205)">
			<path vector-effect="none" class="st2" d="M-5882.3-3654.1l16.2-23.8"/>
		</g>
		<g transform="matrix(1,0,0,1,5945,4205)">
			<path vector-effect="none" class="st2" d="M-5867-4068.3l27.6,8.1"/>
		</g>
		<g transform="matrix(1,0,0,1,5945,4205)">
			<path vector-effect="none" class="st2" d="M-5882.3-3654.1c-0.7,1-0.7,2.2,0,3.2"/>
		</g>
		<g transform="matrix(1,0,0,1,5945,4205)">
			<path vector-effect="none" class="st2" d="M-5824.2-4077.1c-5.3,5.5-10.3,11.1-15.2,16.9"/>
		</g>
		<g transform="matrix(1,0,0,1,5945,4205)">
			<path vector-effect="none" class="st2" d="M-5882.3-3650.9c3.9,5.7,8,11.4,12.3,16.9"/>
		</g>
		<g transform="matrix(1,0,0,1,5945,4205)">
			<path vector-effect="none" class="st2" d="M-5824.2-4077.1l-10.9-26.7"/>
		</g>
		<g transform="matrix(1,0,0,1,5945,4205)">
			<path vector-effect="none" class="st2" d="M-5867-3633.1c-1.1,0.3-2.3-0.1-3-1"/>
		</g>
		<g transform="matrix(1,0,0,1,5945,4205)">
			<path vector-effect="none" class="st2" d="M-5835.1-4103.8c-0.4-1.1-0.2-2.3,0.7-3.1"/>
		</g>
		<g transform="matrix(1,0,0,1,5945,4205)">
			<path vector-effect="none" class="st2" d="M-5839.4-3641.1l-27.6,8.1"/>
		</g>
		<g transform="matrix(1,0,0,1,5945,4205)">
			<path vector-effect="none" class="st2" d="M-5818.9-4120.9c-5.3,4.5-10.5,9.2-15.5,14"/>
		</g>
		<g transform="matrix(1,0,0,1,5945,4205)">
			<path vector-effect="none" class="st2" d="M-5839.4-3641.1c4.9,5.8,10,11.5,15.2,16.9"/>
		</g>
		<g transform="matrix(1,0,0,1,5945,4205)">
			<path vector-effect="none" class="st2" d="M-5818.9-4120.9c0.9-0.8,2.1-0.9,3.2-0.3"/>
		</g>
		<g transform="matrix(1,0,0,1,5945,4205)">
			<path vector-effect="none" class="st2" d="M-5835.1-3597.6l10.9-26.7"/>
		</g>
		<g transform="matrix(1,0,0,1,5945,4205)">
			<path vector-effect="none" class="st2" d="M-5815.7-4121.2l25.4,13.6"/>
		</g>
		<g transform="matrix(1,0,0,1,5945,4205)">
			<path vector-effect="none" class="st2" d="M-5835.1-3597.6c-0.4,1.1-0.2,2.3,0.7,3.1"/>
		</g>
		<g transform="matrix(1,0,0,1,5945,4205)">
			<path vector-effect="none" class="st2" d="M-5772-4120.9c-6.3,4.2-12.4,8.7-18.4,13.4"/>
		</g>
		<g transform="matrix(1,0,0,1,5945,4205)">
			<path vector-effect="none" class="st2" d="M-5834.4-3594.4c5,4.8,10.2,9.5,15.5,14"/>
		</g>
		<g transform="matrix(1,0,0,1,5945,4205)">
			<path vector-effect="none" class="st2" d="M-5772-4120.9l-5.1-28.3"/>
		</g>
		<g transform="matrix(1,0,0,1,5945,4205)">
			<path vector-effect="none" class="st2" d="M-5815.7-3580.2c-1,0.6-2.3,0.4-3.2-0.3"/>
		</g>
		<g transform="matrix(1,0,0,1,5945,4205)">
			<path vector-effect="none" class="st2" d="M-5777.1-4149.3c-0.2-1.1,0.3-2.3,1.3-2.9"/>
		</g>
		<g transform="matrix(1,0,0,1,5945,4205)">
			<path vector-effect="none" class="st2" d="M-5790.4-3593.8l-25.4,13.6"/>
		</g>
		<g transform="matrix(1,0,0,1,5945,4205)">
			<path vector-effect="none" class="st2" d="M-5757.7-4162.6c-6.1,3.3-12.1,6.8-18.1,10.4"/>
		</g>
		<g transform="matrix(1,0,0,1,5945,4205)">
			<path vector-effect="none" class="st2" d="M-5790.4-3593.8c6,4.7,12.1,9.1,18.4,13.4"/>
		</g>
		<g transform="matrix(1,0,0,1,5945,4205)">
			<path vector-effect="none" class="st2" d="M-5757.7-4162.6c1-0.6,2.3-0.4,3.2,0.3"/>
		</g>
		<g transform="matrix(1,0,0,1,5945,4205)">
			<path vector-effect="none" class="st2" d="M-5777.1-3552.1l5.1-28.3"/>
		</g>
		<g transform="matrix(1,0,0,1,5945,4205)">
			<path vector-effect="none" class="st2" d="M-5754.6-4162.3l22,18.6"/>
		</g>
		<g transform="matrix(1,0,0,1,5945,4205)">
			<path vector-effect="none" class="st2" d="M-5777.1-3552.1c-0.2,1.1,0.3,2.3,1.3,2.9"/>
		</g>
		<g transform="matrix(1,0,0,1,5945,4205)">
			<path vector-effect="none" class="st2" d="M-5711.8-4152.9c-7,2.8-14,5.9-20.8,9.3"/>
		</g>
		<g transform="matrix(1,0,0,1,5945,4205)">
			<path vector-effect="none" class="st2" d="M-5775.8-3549.2c5.9,3.7,11.9,7.1,18.1,10.4"/>
		</g>
		<g transform="matrix(1,0,0,1,5945,4205)">
			<path vector-effect="none" class="st2" d="M-5711.8-4152.9l0.9-28.8"/>
		</g>
		<g transform="matrix(1,0,0,1,5945,4205)">
			<path vector-effect="none" class="st2" d="M-5754.6-3539.1c-0.9,0.8-2.2,0.9-3.2,0.3"/>
		</g>
		<g transform="matrix(1,0,0,1,5945,4205)">
			<path vector-effect="none" class="st2" d="M-5710.9-4181.7c0-1.2,0.8-2.2,1.9-2.6"/>
		</g>
		<g transform="matrix(1,0,0,1,5945,4205)">
			<path vector-effect="none" class="st2" d="M-5732.6-3557.7l-22,18.6"/>
		</g>
		<g transform="matrix(1,0,0,1,5945,4205)">
			<path vector-effect="none" class="st2" d="M-5689.2-4190.7c-6.7,2-13.3,4.1-19.8,6.4"/>
		</g>
		<g transform="matrix(1,0,0,1,5945,4205)">
			<path vector-effect="none" class="st2" d="M-5732.6-3557.7c6.8,3.3,13.8,6.4,20.8,9.3"/>
		</g>
		<g transform="matrix(1,0,0,1,5945,4205)">
			<path vector-effect="none" class="st2" d="M-5689.2-4190.7c1.1-0.3,2.3,0.1,3,1"/>
		</g>
		<g transform="matrix(1,0,0,1,5945,4205)">
			<path vector-effect="none" class="st2" d="M-5710.9-3519.6l-0.9-28.8"/>
		</g>
		<g transform="matrix(1,0,0,1,5945,4205)">
			<path vector-effect="none" class="st2" d="M-5686.2-4189.8l17.6,22.8"/>
		</g>
		<g transform="matrix(1,0,0,1,5945,4205)">
			<path vector-effect="none" class="st2" d="M-5710.9-3519.6c0,1.2,0.8,2.2,1.9,2.6"/>
		</g>
		<g transform="matrix(1,0,0,1,5945,4205)">
			<path vector-effect="none" class="st2" d="M-5646.3-4171.7c-7.5,1.3-14.9,2.9-22.3,4.7"/>
		</g>
		<g transform="matrix(1,0,0,1,5945,4205)">
			<path vector-effect="none" class="st2" d="M-5709-3517.1c6.5,2.3,13.2,4.5,19.8,6.4"/>
		</g>
		<g transform="matrix(1,0,0,1,5945,4205)">
			<path vector-effect="none" class="st2" d="M-5646.3-4171.7l6.8-28"/>
		</g>
		<g transform="matrix(1,0,0,1,5945,4205)">
			<path vector-effect="none" class="st2" d="M-5686.2-3511.6c-0.7,0.9-1.9,1.3-3,1"/>
		</g>
		<g transform="matrix(1,0,0,1,5945,4205)">
			<path vector-effect="none" class="st2" d="M-5639.4-4199.7c0.3-1.1,1.2-2,2.4-2.1"/>
		</g>
		<g transform="matrix(1,0,0,1,5945,4205)">
			<path vector-effect="none" class="st2" d="M-5668.5-3534.4l-17.6,22.8"/>
		</g>
		<g transform="matrix(1,0,0,1,5945,4205)">
			<path vector-effect="none" class="st2" d="M-5616.3-4204c-6.9,0.5-13.9,1.3-20.7,2.2"/>
		</g>
		<g transform="matrix(1,0,0,1,5945,4205)">
			<path vector-effect="none" class="st2" d="M-5668.5-3534.4c7.4,1.8,14.8,3.4,22.3,4.7"/>
		</g>
		<g transform="matrix(1,0,0,1,5945,4205)">
			<path vector-effect="none" class="st2" d="M-5616.3-4204c1.2-0.1,2.3,0.5,2.8,1.6"/>
		</g>
		<g transform="matrix(1,0,0,1,5945,4205)">
			<path vector-effect="none" class="st2" d="M-5639.4-3501.7l-6.8-28"/>
		</g>
		<g transform="matrix(1,0,0,1,5945,4205)">
			<path vector-effect="none" class="st2" d="M-5613.6-4202.4l12.5,25.9"/>
		</g>
		<g transform="matrix(1,0,0,1,5945,4205)">
			<path vector-effect="none" class="st2" d="M-5639.4-3501.7c0.3,1.1,1.2,2,2.4,2.1"/>
		</g>
		<g transform="matrix(1,0,0,1,5945,4205)">
			<path vector-effect="none" class="st2" d="M-5578.3-4176.5c-7.6-0.3-15.2-0.3-22.8,0"/>
		</g>
		<g transform="matrix(1,0,0,1,5945,4205)">
			<path vector-effect="none" class="st2" d="M-5637.1-3499.5c6.9,0.9,13.8,1.7,20.7,2.2"/>
		</g>
		<g transform="matrix(1,0,0,1,5945,4205)">
			<path vector-effect="none" class="st2" d="M-5578.3-4176.5l12.5-25.9"/>
		</g>
		<g transform="matrix(1,0,0,1,5945,4205)">
			<path vector-effect="none" class="st2" d="M-5613.6-3498.9c-0.5,1.1-1.6,1.7-2.8,1.6"/>
		</g>
		<g transform="matrix(1,0,0,1,5945,4205)">
			<path vector-effect="none" class="st2" d="M-5565.8-4202.4c0.5-1.1,1.6-1.7,2.8-1.6"/>
		</g>
		<g transform="matrix(1,0,0,1,5945,4205)">
			<path vector-effect="none" class="st2" d="M-5601.1-3524.9l-12.5,25.9"/>
		</g>
		<g transform="matrix(1,0,0,1,5945,4205)">
			<path vector-effect="none" class="st2" d="M-5542.3-4201.8c-6.9-0.9-13.8-1.7-20.7-2.2"/>
		</g>
		<g transform="matrix(1,0,0,1,5945,4205)">
			<path vector-effect="none" class="st2" d="M-5601.1-3524.9c7.6,0.3,15.2,0.3,22.8,0"/>
		</g>
		<g transform="matrix(1,0,0,1,5945,4205)">
			<path vector-effect="none" class="st2" d="M-5542.3-4201.8c1.2,0.2,2.1,1,2.4,2.1"/>
		</g>
		<g transform="matrix(1,0,0,1,5945,4205)">
			<path vector-effect="none" class="st2" d="M-5565.8-3498.9l-12.5-25.9"/>
		</g>
		<g transform="matrix(1,0,0,1,5945,4205)">
			<path vector-effect="none" class="st2" d="M-5539.9-4199.7l6.8,28"/>
		</g>
		<g transform="matrix(1,0,0,1,5945,4205)">
			<path vector-effect="none" class="st2" d="M-5565.8-3498.9c0.5,1.1,1.6,1.7,2.8,1.6"/>
		</g>
		<g transform="matrix(1,0,0,1,5945,4205)">
			<path vector-effect="none" class="st2" d="M-5510.8-4167c-7.4-1.8-14.8-3.4-22.3-4.7"/>
		</g>
		<g transform="matrix(1,0,0,1,5945,4205)">
			<path vector-effect="none" class="st2" d="M-5563-3497.3c6.9-0.5,13.9-1.3,20.7-2.2"/>
		</g>
		<g transform="matrix(1,0,0,1,5945,4205)">
			<path vector-effect="none" class="st2" d="M-5510.8-4167l17.6-22.8"/>
		</g>
		<g transform="matrix(1,0,0,1,5945,4205)">
			<path vector-effect="none" class="st2" d="M-5539.9-3501.7c-0.3,1.1-1.2,2-2.4,2.1"/>
		</g>
		<g transform="matrix(1,0,0,1,5945,4205)">
			<path vector-effect="none" class="st2" d="M-5493.2-4189.8c0.7-0.9,1.9-1.3,3-1"/>
		</g>
		<g transform="matrix(1,0,0,1,5945,4205)">
			<path vector-effect="none" class="st2" d="M-5533.1-3529.6l-6.8,28"/>
		</g>
		<g transform="matrix(1,0,0,1,5945,4205)">
			<path vector-effect="none" class="st2" d="M-5470.3-4184.3c-6.5-2.3-13.2-4.5-19.8-6.4"/>
		</g>
		<g transform="matrix(1,0,0,1,5945,4205)">
			<path vector-effect="none" class="st2" d="M-5533.1-3529.6c7.5-1.3,14.9-2.9,22.3-4.7"/>
		</g>
		<g transform="matrix(1,0,0,1,5945,4205)">
			<path vector-effect="none" class="st2" d="M-5470.3-4184.3c1.1,0.4,1.8,1.4,1.9,2.6"/>
		</g>
		<g transform="matrix(1,0,0,1,5945,4205)">
			<path vector-effect="none" class="st2" d="M-5493.2-3511.6l-17.6-22.8"/>
		</g>
		<g transform="matrix(1,0,0,1,5945,4205)">
			<path vector-effect="none" class="st2" d="M-5468.4-4181.7l0.9,28.8"/>
		</g>
		<g transform="matrix(1,0,0,1,5945,4205)">
			<path vector-effect="none" class="st2" d="M-5493.2-3511.6c0.7,0.9,1.9,1.3,3,1"/>
		</g>
		<g transform="matrix(1,0,0,1,5945,4205)">
			<path vector-effect="none" class="st2" d="M-5446.8-4143.7c-6.8-3.3-13.8-6.4-20.8-9.3"/>
		</g>
		<g transform="matrix(1,0,0,1,5945,4205)">
			<path vector-effect="none" class="st2" d="M-5490.2-3510.6c6.7-2,13.3-4.1,19.8-6.4"/>
		</g>
		<g transform="matrix(1,0,0,1,5945,4205)">
			<path vector-effect="none" class="st2" d="M-5446.8-4143.7l22-18.6"/>
		</g>
		<g transform="matrix(1,0,0,1,5945,4205)">
			<path vector-effect="none" class="st2" d="M-5468.4-3519.6c0,1.2-0.8,2.2-1.9,2.6"/>
		</g>
		<g transform="matrix(1,0,0,1,5945,4205)">
			<path vector-effect="none" class="st2" d="M-5424.8-4162.3c0.9-0.8,2.1-0.9,3.2-0.3"/>
		</g>
		<g transform="matrix(1,0,0,1,5945,4205)">
			<path vector-effect="none" class="st2" d="M-5467.6-3548.4l-0.9,28.8"/>
		</g>
		<g transform="matrix(1,0,0,1,5945,4205)">
			<path vector-effect="none" class="st2" d="M-5403.6-4152.2c-5.9-3.7-11.9-7.1-18.1-10.4"/>
		</g>
		<g transform="matrix(1,0,0,1,5945,4205)">
			<path vector-effect="none" class="st2" d="M-5467.6-3548.4c7-2.8,14-5.9,20.8-9.3"/>
		</g>
		<g transform="matrix(1,0,0,1,5945,4205)">
			<path vector-effect="none" class="st2" d="M-5403.6-4152.2c1,0.6,1.5,1.8,1.3,2.9"/>
		</g>
		<g transform="matrix(1,0,0,1,5945,4205)">
			<path vector-effect="none" class="st2" d="M-5424.8-3539.1l-22-18.6"/>
		</g>
		<g transform="matrix(1,0,0,1,5945,4205)">
			<path vector-effect="none" class="st2" d="M-5402.3-4149.3l-5.1,28.3"/>
		</g>
		<g transform="matrix(1,0,0,1,5945,4205)">
			<path vector-effect="none" class="st2" d="M-5424.8-3539.1c0.9,0.8,2.1,0.9,3.2,0.3"/>
		</g>
		<g transform="matrix(1,0,0,1,5945,4205)">
			<path vector-effect="none" class="st2" d="M-5389-4107.6c-6-4.7-12.1-9.1-18.4-13.4"/>
		</g>
		<g transform="matrix(1,0,0,1,5945,4205)">
			<path vector-effect="none" class="st2" d="M-5421.6-3538.7c6.1-3.3,12.1-6.8,18.1-10.4"/>
		</g>
		<g transform="matrix(1,0,0,1,5945,4205)">
			<path vector-effect="none" class="st2" d="M-5389-4107.6l25.4-13.6"/>
		</g>
		<g transform="matrix(1,0,0,1,5945,4205)">
			<path vector-effect="none" class="st2" d="M-5402.3-3552.1c0.2,1.1-0.3,2.3-1.3,2.9"/>
		</g>
		<g transform="matrix(1,0,0,1,5945,4205)">
			<path vector-effect="none" class="st2" d="M-5363.6-4121.2c1-0.6,2.3-0.4,3.2,0.3"/>
		</g>
		<g transform="matrix(1,0,0,1,5945,4205)">
			<path vector-effect="none" class="st2" d="M-5407.4-3580.4l5.1,28.3"/>
		</g>
		<g transform="matrix(1,0,0,1,5945,4205)">
			<path vector-effect="none" class="st2" d="M-5344.9-4106.9c-5-4.8-10.2-9.5-15.5-14"/>
		</g>
		<g transform="matrix(1,0,0,1,5945,4205)">
			<path vector-effect="none" class="st2" d="M-5407.4-3580.4c6.3-4.2,12.4-8.7,18.4-13.4"/>
		</g>
		<g transform="matrix(1,0,0,1,5945,4205)">
			<path vector-effect="none" class="st2" d="M-5344.9-4106.9c0.8,0.8,1.1,2,0.7,3.1"/>
		</g>
		<g transform="matrix(1,0,0,1,5945,4205)">
			<path vector-effect="none" class="st2" d="M-5363.6-3580.2l-25.4-13.6"/>
		</g>
		<g transform="matrix(1,0,0,1,5945,4205)">
			<path vector-effect="none" class="st2" d="M-5344.3-4103.8l-10.9,26.7"/>
		</g>
		<g transform="matrix(1,0,0,1,5945,4205)">
			<path vector-effect="none" class="st2" d="M-5363.6-3580.2c1,0.6,2.3,0.4,3.2-0.3"/>
		</g>
		<g transform="matrix(1,0,0,1,5945,4205)">
			<path vector-effect="none" class="st2" d="M-5340-4060.2c-4.9-5.8-10-11.5-15.2-16.9"/>
		</g>
		<g transform="matrix(1,0,0,1,5945,4205)">
			<path vector-effect="none" class="st2" d="M-5360.4-3580.5c5.3-4.5,10.5-9.2,15.5-14"/>
		</g>
		<g transform="matrix(1,0,0,1,5945,4205)">
			<path vector-effect="none" class="st2" d="M-5340-4060.2l27.6-8.1"/>
		</g>
		<g transform="matrix(1,0,0,1,5945,4205)">
			<path vector-effect="none" class="st2" d="M-5344.3-3597.6c0.4,1.1,0.2,2.3-0.7,3.1"/>
		</g>
		<g transform="matrix(1,0,0,1,5945,4205)">
			<path vector-effect="none" class="st2" d="M-5312.3-4068.3c1.1-0.3,2.3,0.1,3,1"/>
		</g>
		<g transform="matrix(1,0,0,1,5945,4205)">
			<path vector-effect="none" class="st2" d="M-5355.2-3624.2l10.9,26.7"/>
		</g>
		<g transform="matrix(1,0,0,1,5945,4205)">
			<path vector-effect="none" class="st2" d="M-5297-4050.4c-3.9-5.7-8-11.4-12.3-16.9"/>
		</g>
		<g transform="matrix(1,0,0,1,5945,4205)">
			<path vector-effect="none" class="st2" d="M-5355.2-3624.2c5.3-5.5,10.3-11.1,15.2-16.9"/>
		</g>
		<g transform="matrix(1,0,0,1,5945,4205)">
			<path vector-effect="none" class="st2" d="M-5297-4050.4c0.7,1,0.7,2.2,0,3.2"/>
		</g>
		<g transform="matrix(1,0,0,1,5945,4205)">
			<path vector-effect="none" class="st2" d="M-5312.3-3633.1l-27.6-8.1"/>
		</g>
		<g transform="matrix(1,0,0,1,5945,4205)">
			<path vector-effect="none" class="st2" d="M-5297-4047.2l-16.2,23.8"/>
		</g>
		<g transform="matrix(1,0,0,1,5945,4205)">
			<path vector-effect="none" class="st2" d="M-5312.3-3633.1c1.1,0.3,2.3-0.1,3-1"/>
		</g>
		<g transform="matrix(1,0,0,1,5945,4205)">
			<path vector-effect="none" class="st2" d="M-5301.9-4003.7c-3.6-6.7-7.4-13.3-11.4-19.7"/>
		</g>
		<g transform="matrix(1,0,0,1,5945,4205)">
			<path vector-effect="none" class="st2" d="M-5309.3-3634.1c4.3-5.5,8.3-11.1,12.3-16.9"/>
		</g>
		<g transform="matrix(1,0,0,1,5945,4205)">
			<path vector-effect="none" class="st2" d="M-5301.9-4003.7l28.7-2.1"/>
		</g>
		<g transform="matrix(1,0,0,1,5945,4205)">
			<path vector-effect="none" class="st2" d="M-5297-3654.1c0.7,1,0.7,2.2,0,3.2"/>
		</g>
		<g transform="matrix(1,0,0,1,5945,4205)">
			<path vector-effect="none" class="st2" d="M-5273.1-4005.9c1.2-0.1,2.3,0.5,2.8,1.6"/>
		</g>
		<g transform="matrix(1,0,0,1,5945,4205)">
			<path vector-effect="none" class="st2" d="M-5313.2-3677.9l16.2,23.8"/>
		</g>
		<g transform="matrix(1,0,0,1,5945,4205)">
			<path vector-effect="none" class="st2" d="M-5261.9-3985.2c-2.6-6.4-5.5-12.8-8.5-19.1"/>
		</g>
		<g transform="matrix(1,0,0,1,5945,4205)">
			<path vector-effect="none" class="st2" d="M-5313.2-3677.9c4-6.4,7.8-13,11.4-19.7"/>
		</g>
		<g transform="matrix(1,0,0,1,5945,4205)">
			<path vector-effect="none" class="st2" d="M-5261.9-3985.2c0.4,1.1,0.2,2.3-0.7,3.1"/>
		</g>
		<g transform="matrix(1,0,0,1,5945,4205)">
			<path vector-effect="none" class="st2" d="M-5273.1-3695.5l-28.7-2.1"/>
		</g>
		<g transform="matrix(1,0,0,1,5945,4205)">
			<path vector-effect="none" class="st2" d="M-5262.5-3982.1l-20.8,19.9"/>
		</g>
		<g transform="matrix(1,0,0,1,5945,4205)">
			<path vector-effect="none" class="st2" d="M-5273.1-3695.5c1.2,0.1,2.3-0.5,2.8-1.6"/>
		</g>
		<g transform="matrix(1,0,0,1,5945,4205)">
			<path vector-effect="none" class="st2" d="M-5276.3-3940.5c-2.1-7.3-4.4-14.5-7-21.6"/>
		</g>
		<g transform="matrix(1,0,0,1,5945,4205)">
			<path vector-effect="none" class="st2" d="M-5270.4-3697.1c3-6.3,5.8-12.6,8.5-19.1"/>
		</g>
		<g transform="matrix(1,0,0,1,5945,4205)">
			<path vector-effect="none" class="st2" d="M-5276.3-3940.5l28.5,3.9"/>
		</g>
		<g transform="matrix(1,0,0,1,5945,4205)">
			<path vector-effect="none" class="st2" d="M-5262.5-3719.3c0.8,0.8,1.1,2,0.7,3.1"/>
		</g>
		<g transform="matrix(1,0,0,1,5945,4205)">
			<path vector-effect="none" class="st2" d="M-5247.8-3936.7c1.2,0.2,2.1,1,2.4,2.1"/>
		</g>
		<g transform="matrix(1,0,0,1,5945,4205)">
			<path vector-effect="none" class="st2" d="M-5283.4-3739.2l20.8,19.9"/>
		</g>
		<g transform="matrix(1,0,0,1,5945,4205)">
			<path vector-effect="none" class="st2" d="M-5241.1-3914.1c-1.2-6.8-2.7-13.6-4.3-20.4"/>
		</g>
		<g transform="matrix(1,0,0,1,5945,4205)">
			<path vector-effect="none" class="st2" d="M-5241.1-3914.1c0.2,1.1-0.3,2.3-1.3,2.9"/>
		</g>
		<g transform="matrix(1,0,0,1,5945,4205)">
			<path vector-effect="none" class="st2" d="M-5242.4-3911.2l-24.5,15.1"/>
		</g>
		<g transform="matrix(1,0,0,1,5945,4205)">
			<path vector-effect="none" class="st2" d="M-5264.5-3873.4c-0.5-7.6-1.3-15.1-2.4-22.6"/>
		</g>
		<g transform="matrix(1,0,0,1,5945,4205)">
			<path vector-effect="none" class="st2" d="M-5245.4-3766.8c1.6-6.8,3.1-13.6,4.3-20.4"/>
		</g>
		<g transform="matrix(1,0,0,1,5945,4205)">
			<path vector-effect="none" class="st2" d="M-5264.5-3873.4l27.1,9.7"/>
		</g>
		<g transform="matrix(1,0,0,1,5945,4205)">
			<path vector-effect="none" class="st2" d="M-5241.1-3787.2c0.2-1.1-0.3-2.3-1.3-2.9"/>
		</g>
		<g transform="matrix(1,0,0,1,5945,4205)">
			<path vector-effect="none" class="st2" d="M-5237.4-3863.7c1.1,0.4,1.8,1.4,1.9,2.6"/>
		</g>
		<g transform="matrix(1,0,0,1,5945,4205)">
			<path vector-effect="none" class="st2" d="M-5266.9-3805.3l24.5,15.1"/>
		</g>
		<g transform="matrix(1,0,0,1,5945,4205)">
			<path vector-effect="none" class="st2" d="M-5235.5-3840.2c0.2-7,0.2-13.9,0-20.9"/>
		</g>
		<g transform="matrix(1,0,0,1,5945,4205)">
			<path vector-effect="none" class="st2" d="M-5266.9-3805.3c1.1-7.5,1.8-15.1,2.4-22.6"/>
		</g>
		<g transform="matrix(1,0,0,1,5945,4205)">
			<path vector-effect="none" class="st2" d="M-5235.5-3840.2c0,1.2-0.8,2.2-1.9,2.6"/>
		</g>
		<g transform="matrix(1,0,0,1,5945,4205)">
			<path vector-effect="none" class="st2" d="M-5237.4-3837.7l-27.1,9.7"/>
		</g>
		<g transform="matrix(1,0,0,1,5945,4205)">
			<path vector-effect="none" class="st2" d="M-5738.5-3583.1c0,3.1-2.5,5.7-5.7,5.7c-3.1,0-5.7-2.5-5.7-5.7c0-3.1,2.5-5.7,5.7-5.7
				C-5741-3588.8-5738.5-3586.2-5738.5-3583.1"/>
		</g>
		<g transform="matrix(1,0,0,1,5945,4205)">
			<path vector-effect="none" class="st2" d="M-5663-3576.9c-48.1-12.9-91.9-38.2-127.1-73.4"/>
		</g>
		<g transform="matrix(1,0,0,1,5945,4205)">
			<path vector-effect="none" class="st2" d="M-5644.7-3645.3l-18.3,68.5"/>
		</g>
		<g transform="matrix(1,0,0,1,5945,4205)">
			<path vector-effect="none" class="st2" d="M-5790.1-3650.2l50.1-50.1"/>
		</g>
		<g transform="matrix(1,0,0,1,5945,4205)">
			<path vector-effect="none" class="st2" d="M-5644.7-3645.3c-36-9.7-68.9-28.6-95.3-55"/>
		</g>
		<g transform="matrix(1,0,0,1,5945,4205)">
			<path vector-effect="none" class="st2" d="M-5893-3850.7c0,3.1-2.5,5.7-5.7,5.7s-5.7-2.5-5.7-5.7c0-3.1,2.5-5.7,5.7-5.7
				S-5893-3853.8-5893-3850.7"/>
		</g>
		<g transform="matrix(1,0,0,1,5945,4205)">
			<path vector-effect="none" class="st2" d="M-5863.5-3777.3c-12.9-48.1-12.9-98.7,0-146.7"/>
		</g>
		<g transform="matrix(1,0,0,1,5945,4205)">
			<path vector-effect="none" class="st2" d="M-5795-3795.6l-68.5,18.3"/>
		</g>
		<g transform="matrix(1,0,0,1,5945,4205)">
			<path vector-effect="none" class="st2" d="M-5863.5-3924l68.5,18.3"/>
		</g>
		<g transform="matrix(1,0,0,1,5945,4205)">
			<path vector-effect="none" class="st2" d="M-5795-3795.6c-9.7-36-9.7-74,0-110"/>
		</g>
		<g transform="matrix(1,0,0,1,5945,4205)">
			<path vector-effect="none" class="st2" d="M-5611.6-3850.7c0,3.1-2.5,5.7-5.7,5.7c-3.1,0-5.7-2.5-5.7-5.7c0-3.1,2.5-5.7,5.7-5.7
				C-5614.2-3856.3-5611.6-3853.8-5611.6-3850.7"/>
		</g>
		<g transform="matrix(1,0,0,1,5945,4205)">
			<path vector-effect="none" class="st2" d="M-5429.5-3583.1c0,3.1-2.5,5.7-5.7,5.7s-5.7-2.5-5.7-5.7c0-3.1,2.5-5.7,5.7-5.7
				S-5429.5-3586.2-5429.5-3583.1"/>
		</g>
		<g transform="matrix(1,0,0,1,5945,4205)">
			<path vector-effect="none" class="st2" d="M-5389.2-3650.2c-35.2,35.2-79,60.5-127.1,73.4"/>
		</g>
		<g transform="matrix(1,0,0,1,5945,4205)">
			<path vector-effect="none" class="st2" d="M-5439.3-3700.3l50.1,50.1"/>
		</g>
		<g transform="matrix(1,0,0,1,5945,4205)">
			<path vector-effect="none" class="st2" d="M-5516.3-3576.9l-18.3-68.5"/>
		</g>
		<g transform="matrix(1,0,0,1,5945,4205)">
			<path vector-effect="none" class="st2" d="M-5439.3-3700.3c-26.4,26.4-59.3,45.4-95.3,55"/>
		</g>
		<g transform="matrix(1,0,0,1,5945,4205)">
			<path vector-effect="none" class="st2" d="M-5584-3823c0,3.1-2.5,5.7-5.7,5.7c-3.1,0-5.7-2.5-5.7-5.7s2.5-5.7,5.7-5.7
				C-5586.5-3828.7-5584-3826.2-5584-3823"/>
		</g>
		<g transform="matrix(1,0,0,1,5945,4205)">
			<path vector-effect="none" class="st2" d="M-5556.4-3850.7c0,3.1-2.5,5.7-5.7,5.7c-3.1,0-5.7-2.5-5.7-5.7c0-3.1,2.5-5.7,5.7-5.7
				C-5558.9-3856.3-5556.4-3853.8-5556.4-3850.7"/>
		</g>
		<g transform="matrix(1,0,0,1,5945,4205)">
			<path vector-effect="none" class="st2" d="M-5275-3850.7c0,3.1-2.5,5.7-5.7,5.7s-5.7-2.5-5.7-5.7c0-3.1,2.5-5.7,5.7-5.7
				S-5275-3853.8-5275-3850.7"/>
		</g>
		<g transform="matrix(1,0,0,1,5945,4205)">
			<path vector-effect="none" class="st2" d="M-5790.1-4051.1c35.2-35.2,79-60.5,127.1-73.4"/>
		</g>
		<g transform="matrix(1,0,0,1,5945,4205)">
			<path vector-effect="none" class="st2" d="M-5740-4001l-50.1-50.1"/>
		</g>
		<g transform="matrix(1,0,0,1,5945,4205)">
			<path vector-effect="none" class="st2" d="M-5663-4124.5l18.3,68.5"/>
		</g>
		<g transform="matrix(1,0,0,1,5945,4205)">
			<path vector-effect="none" class="st2" d="M-5740-4001c26.4-26.4,59.3-45.4,95.3-55"/>
		</g>
		<g transform="matrix(1,0,0,1,5945,4205)">
			<path vector-effect="none" class="st2" d="M-5738.5-4118.3c0,3.1-2.5,5.7-5.7,5.7c-3.1,0-5.7-2.5-5.7-5.7s2.5-5.7,5.7-5.7
				C-5741-4123.9-5738.5-4121.4-5738.5-4118.3"/>
		</g>
		<g transform="matrix(1,0,0,1,5945,4205)">
			<path vector-effect="none" class="st2" d="M-5584-3878.3c0,3.1-2.5,5.7-5.7,5.7c-3.1,0-5.7-2.5-5.7-5.7s2.5-5.7,5.7-5.7
				C-5586.5-3884-5584-3881.4-5584-3878.3"/>
		</g>
		<g transform="matrix(1,0,0,1,5945,4205)">
			<path vector-effect="none" class="st2" d="M-5315.9-3924c12.9,48.1,12.9,98.7,0,146.7"/>
		</g>
		<g transform="matrix(1,0,0,1,5945,4205)">
			<path vector-effect="none" class="st2" d="M-5384.3-3905.7l68.5-18.3"/>
		</g>
		<g transform="matrix(1,0,0,1,5945,4205)">
			<path vector-effect="none" class="st2" d="M-5315.9-3777.3l-68.5-18.3"/>
		</g>
		<g transform="matrix(1,0,0,1,5945,4205)">
			<path vector-effect="none" class="st2" d="M-5384.3-3905.7c9.7,36,9.7,74,0,110"/>
		</g>
		<g transform="matrix(1,0,0,1,5945,4205)">
			<path vector-effect="none" class="st2" d="M-5516.3-4124.5c48.1,12.9,91.9,38.2,127.1,73.4"/>
		</g>
		<g transform="matrix(1,0,0,1,5945,4205)">
			<path vector-effect="none" class="st2" d="M-5534.7-4056l18.3-68.5"/>
		</g>
		<g transform="matrix(1,0,0,1,5945,4205)">
			<path vector-effect="none" class="st2" d="M-5389.2-4051.1l-50.1,50.1"/>
		</g>
		<g transform="matrix(1,0,0,1,5945,4205)">
			<path vector-effect="none" class="st2" d="M-5534.7-4056c36,9.7,68.9,28.6,95.3,55"/>
		</g>
		<g transform="matrix(1,0,0,1,5945,4205)">
			<path vector-effect="none" class="st2" d="M-5429.5-4118.3c0,3.1-2.5,5.7-5.7,5.7s-5.7-2.5-5.7-5.7s2.5-5.7,5.7-5.7
				S-5429.5-4121.4-5429.5-4118.3"/>
		</g>
	</g>
</g>
</svg>
