<?xml version="1.0" encoding="utf-8"?>
<!-- Generator: Adobe Illustrator 24.3.0, SVG Export Plug-In . SVG Version: 6.00 Build 0)  -->
<svg version="1.1"
	 id="Ebene_1" xmlns:cc="http://creativecommons.org/ns#" xmlns:dc="http://purl.org/dc/elements/1.1/" xmlns:freecad="http://www.freecadweb.org/wiki/index.php?title=Svg_Namespace" xmlns:rdf="http://www.w3.org/1999/02/22-rdf-syntax-ns#" xmlns:svg="http://www.w3.org/2000/svg"
	 xmlns="http://www.w3.org/2000/svg" xmlns:xlink="http://www.w3.org/1999/xlink" x="0px" y="0px" viewBox="0 0 398.8 342.1"
	 style="enable-background:new 0 0 398.8 342.1;" xml:space="preserve">
<style type="text/css">
	.st0{fill-rule:evenodd;clip-rule:evenodd;fill:#FFFFFF;}
	.st1{fill:none;stroke:#000000;stroke-width:0.2835;stroke-linecap:square;stroke-linejoin:bevel;stroke-miterlimit:1.1339;}
	.st2{fill:none;stroke:#000000;stroke-width:1.9843;stroke-linecap:round;stroke-linejoin:bevel;stroke-miterlimit:1.1339;}
</style>
<desc>Drawing page: Page exported from FreeCAD document: Chassis2021_SeitenwandVerstaerkung</desc>
<g id="Page">
	<g id="DrawingContent">
		<g transform="matrix(1,0,0,1,5945,4205)">
			<path vector-effect="non-scaling-stroke" class="st0" d="M-5547.2-3863.9V-4204H-5944v340.2H-5547.2"/>
		</g>
		<g transform="matrix(1,0,0,1,5945,4205)">
			<polygon class="st1" points="-5745.6,-4033.9 -5745.6,-4033.9 -5745.6,-4033.9 			"/>
		</g>
		<g transform="matrix(1,0,0,1,5945,4205)">
			<path vector-effect="non-scaling-stroke" class="st0" d="M-5710.1-3943.2c0,19.6-15.9,35.4-35.4,35.4
				c-19.6,0-35.4-15.9-35.4-35.4s15.9-35.4,35.4-35.4C-5726-3978.7-5710.1-3962.8-5710.1-3943.2"/>
		</g>
		<g transform="matrix(1,0,0,1,5945,4205)">
			<polygon class="st1" points="-5745.6,-4033.9 -5745.6,-4033.9 -5745.6,-4033.9 			"/>
		</g>
		<g transform="matrix(1,0,0,1,5945,4205)">
			<path vector-effect="non-scaling-stroke" class="st0" d="M-5723.2-3943.2c0,12.4-10,22.4-22.4,22.4s-22.4-10-22.4-22.4
				s10-22.4,22.4-22.4S-5723.2-3955.6-5723.2-3943.2"/>
		</g>
		<g transform="matrix(1,0,0,1,5945,4205)">
			<polygon class="st1" points="-5745.6,-4033.9 -5745.6,-4033.9 -5745.6,-4033.9 			"/>
		</g>
		<g transform="matrix(1,0,0,1,5945,4205)">
			<path vector-effect="non-scaling-stroke" class="st0" d="M-5704.8-3908.1c0,3.1-2.5,5.7-5.7,5.7s-5.7-2.5-5.7-5.7
				c0-3.1,2.5-5.7,5.7-5.7S-5704.8-3911.3-5704.8-3908.1"/>
		</g>
		<g transform="matrix(1,0,0,1,5945,4205)">
			<polygon class="st1" points="-5745.6,-4033.9 -5745.6,-4033.9 -5745.6,-4033.9 			"/>
		</g>
		<g transform="matrix(1,0,0,1,5945,4205)">
			<path vector-effect="non-scaling-stroke" class="st0" d="M-5704.8-3978.3c0,3.1-2.5,5.7-5.7,5.7s-5.7-2.5-5.7-5.7
				c0-3.1,2.5-5.7,5.7-5.7S-5704.8-3981.4-5704.8-3978.3"/>
		</g>
		<g transform="matrix(1,0,0,1,5945,4205)">
			<polygon class="st1" points="-5745.6,-4033.9 -5745.6,-4033.9 -5745.6,-4033.9 			"/>
		</g>
		<g transform="matrix(1,0,0,1,5945,4205)">
			<path vector-effect="non-scaling-stroke" class="st0" d="M-5775-3978.3c0,3.1-2.5,5.7-5.7,5.7c-3.1,0-5.7-2.5-5.7-5.7
				c0-3.1,2.5-5.7,5.7-5.7C-5777.5-3984-5775-3981.4-5775-3978.3"/>
		</g>
		<g transform="matrix(1,0,0,1,5945,4205)">
			<polygon class="st1" points="-5745.6,-4033.9 -5745.6,-4033.9 -5745.6,-4033.9 			"/>
		</g>
		<g transform="matrix(1,0,0,1,5945,4205)">
			<path vector-effect="non-scaling-stroke" class="st0" d="M-5775-3908.1c0,3.1-2.5,5.7-5.7,5.7c-3.1,0-5.7-2.5-5.7-5.7
				c0-3.1,2.5-5.7,5.7-5.7C-5777.5-3913.8-5775-3911.3-5775-3908.1"/>
		</g>
		<g transform="matrix(1,0,0,1,5945,4205)">
			<polygon class="st1" points="-5745.6,-4033.9 -5745.6,-4033.9 -5745.6,-4033.9 			"/>
		</g>
		<g transform="matrix(1,0,0,1,5945,4205)">
			<path vector-effect="none" class="st2" d="M-5944-3863.9h396.9"/>
		</g>
		<g transform="matrix(1,0,0,1,5945,4205)">
			<path vector-effect="none" class="st2" d="M-5944-4204v340.2"/>
		</g>
		<g transform="matrix(1,0,0,1,5945,4205)">
			<path vector-effect="none" class="st2" d="M-5547.2-3863.9V-4204"/>
		</g>
		<g transform="matrix(1,0,0,1,5945,4205)">
			<path vector-effect="none" class="st2" d="M-5547.2-4204H-5944"/>
		</g>
		<g transform="matrix(1,0,0,1,5945,4205)">
			<path vector-effect="none" class="st2" d="M-5775-3908.1c0,3.1-2.5,5.7-5.7,5.7c-3.1,0-5.7-2.5-5.7-5.7c0-3.1,2.5-5.7,5.7-5.7
				C-5777.5-3913.8-5775-3911.3-5775-3908.1"/>
		</g>
		<g transform="matrix(1,0,0,1,5945,4205)">
			<path vector-effect="none" class="st2" d="M-5704.8-3908.1c0,3.1-2.5,5.7-5.7,5.7s-5.7-2.5-5.7-5.7c0-3.1,2.5-5.7,5.7-5.7
				S-5704.8-3911.3-5704.8-3908.1"/>
		</g>
		<g transform="matrix(1,0,0,1,5945,4205)">
			<path vector-effect="none" class="st2" d="M-5775-3978.3c0,3.1-2.5,5.7-5.7,5.7c-3.1,0-5.7-2.5-5.7-5.7c0-3.1,2.5-5.7,5.7-5.7
				C-5777.5-3984-5775-3981.4-5775-3978.3"/>
		</g>
		<g transform="matrix(1,0,0,1,5945,4205)">
			<path vector-effect="none" class="st2" d="M-5710.1-3943.2c0,19.6-15.9,35.4-35.4,35.4c-19.6,0-35.4-15.9-35.4-35.4
				s15.9-35.4,35.4-35.4C-5726-3978.7-5710.1-3962.8-5710.1-3943.2"/>
		</g>
		<g transform="matrix(1,0,0,1,5945,4205)">
			<path vector-effect="none" class="st2" d="M-5704.8-3978.3c0,3.1-2.5,5.7-5.7,5.7s-5.7-2.5-5.7-5.7c0-3.1,2.5-5.7,5.7-5.7
				S-5704.8-3981.4-5704.8-3978.3"/>
		</g>
		<g transform="matrix(1,0,0,1,5945,4205)">
			<path vector-effect="none" class="st2" d="M-5723.2-3943.2c0,12.4-10,22.4-22.4,22.4s-22.4-10-22.4-22.4s10-22.4,22.4-22.4
				S-5723.2-3955.6-5723.2-3943.2"/>
		</g>
	</g>
</g>
</svg>
