<?xml version="1.0" encoding="utf-8"?>
<!-- Generator: Adobe Illustrator 24.3.0, SVG Export Plug-In . SVG Version: 6.00 Build 0)  -->
<svg version="1.1"
	 id="Ebene_1" xmlns:cc="http://creativecommons.org/ns#" xmlns:dc="http://purl.org/dc/elements/1.1/" xmlns:freecad="http://www.freecadweb.org/wiki/index.php?title=Svg_Namespace" xmlns:rdf="http://www.w3.org/1999/02/22-rdf-syntax-ns#" xmlns:svg="http://www.w3.org/2000/svg"
	 xmlns="http://www.w3.org/2000/svg" xmlns:xlink="http://www.w3.org/1999/xlink" x="0px" y="0px" viewBox="0 0 540.6 540.6"
	 style="enable-background:new 0 0 540.6 540.6;" xml:space="preserve">
<style type="text/css">
	.st0{fill-rule:evenodd;clip-rule:evenodd;fill:#FFFFFF;}
	.st1{fill:none;stroke:#000000;stroke-width:0.2835;stroke-linecap:square;stroke-linejoin:bevel;stroke-miterlimit:1.1339;}
	.st2{fill:none;stroke:#000000;stroke-width:1.9843;stroke-linecap:round;stroke-linejoin:bevel;stroke-miterlimit:1.1339;}
</style>
<desc>Drawing page: Page exported from FreeCAD document: Chassis2021_Maehteller</desc>
<g id="Page">
	<g id="DrawingContent">
		<g transform="matrix(1,0,0,1,5945,4205)">
			<path vector-effect="non-scaling-stroke" class="st0" d="M-5405.4-3934.7c0,148.7-120.6,269.3-269.3,269.3
				c-148.7,0-269.3-120.6-269.3-269.3s120.6-269.3,269.3-269.3C-5526-4204-5405.4-4083.4-5405.4-3934.7"/>
		</g>
		<g transform="matrix(1,0,0,1,5945,4205)">
			<polygon class="st1" points="-5674.7,-3934.7 -5674.7,-3934.7 -5674.7,-3934.7 			"/>
		</g>
		<g transform="matrix(1,0,0,1,5945,4205)">
			<path vector-effect="non-scaling-stroke" class="st0" d="M-5666.5-3693.8c0,4.5-3.7,8.2-8.2,8.2s-8.2-3.7-8.2-8.2
				c0-4.5,3.7-8.2,8.2-8.2S-5666.5-3698.3-5666.5-3693.8"/>
		</g>
		<g transform="matrix(1,0,0,1,5945,4205)">
			<polygon class="st1" points="-5674.7,-3934.7 -5674.7,-3934.7 -5674.7,-3934.7 			"/>
		</g>
		<g transform="matrix(1,0,0,1,5945,4205)">
			<path vector-effect="non-scaling-stroke" class="st0" d="M-5457.8-4055.2c0,4.5-3.7,8.2-8.2,8.2s-8.2-3.7-8.2-8.2
				s3.7-8.2,8.2-8.2S-5457.8-4059.7-5457.8-4055.2"/>
		</g>
		<g transform="matrix(1,0,0,1,5945,4205)">
			<polygon class="st1" points="-5674.7,-3934.7 -5674.7,-3934.7 -5674.7,-3934.7 			"/>
		</g>
		<g transform="matrix(1,0,0,1,5945,4205)">
			<path vector-effect="non-scaling-stroke" class="st0" d="M-5875.2-4055.2c0,4.5-3.7,8.2-8.2,8.2s-8.2-3.7-8.2-8.2
				s3.7-8.2,8.2-8.2S-5875.2-4059.7-5875.2-4055.2"/>
		</g>
		<g transform="matrix(1,0,0,1,5945,4205)">
			<polygon class="st1" points="-5674.7,-3934.7 -5674.7,-3934.7 -5674.7,-3934.7 			"/>
		</g>
		<g transform="matrix(1,0,0,1,5945,4205)">
			<path vector-effect="non-scaling-stroke" class="st0" d="M-5695.8-3934.7c0,3.3-2.7,6-6,6c-3.3,0-6-2.7-6-6s2.7-6,6-6
				C-5698.4-3940.7-5695.8-3938-5695.8-3934.7"/>
		</g>
		<g transform="matrix(1,0,0,1,5945,4205)">
			<polygon class="st1" points="-5674.7,-3934.7 -5674.7,-3934.7 -5674.7,-3934.7 			"/>
		</g>
		<g transform="matrix(1,0,0,1,5945,4205)">
			<path vector-effect="non-scaling-stroke" class="st0" d="M-5668.8-3907.7c0,3.3-2.7,6-6,6s-6-2.7-6-6s2.7-6,6-6
				S-5668.8-3911-5668.8-3907.7"/>
		</g>
		<g transform="matrix(1,0,0,1,5945,4205)">
			<polygon class="st1" points="-5674.7,-3934.7 -5674.7,-3934.7 -5674.7,-3934.7 			"/>
		</g>
		<g transform="matrix(1,0,0,1,5945,4205)">
			<path vector-effect="non-scaling-stroke" class="st0" d="M-5641.7-3934.7c0,3.3-2.7,6-6,6s-6-2.7-6-6s2.7-6,6-6
				S-5641.7-3938-5641.7-3934.7"/>
		</g>
		<g transform="matrix(1,0,0,1,5945,4205)">
			<polygon class="st1" points="-5674.7,-3934.7 -5674.7,-3934.7 -5674.7,-3934.7 			"/>
		</g>
		<g transform="matrix(1,0,0,1,5945,4205)">
			<path vector-effect="non-scaling-stroke" class="st0" d="M-5668.8-3961.7c0,3.3-2.7,6-6,6s-6-2.7-6-6s2.7-6,6-6
				S-5668.8-3965-5668.8-3961.7"/>
		</g>
		<g transform="matrix(1,0,0,1,5945,4205)">
			<polygon class="st1" points="-5674.7,-3934.7 -5674.7,-3934.7 -5674.7,-3934.7 			"/>
		</g>
		<g transform="matrix(1,0,0,1,5945,4205)">
			<path vector-effect="none" class="st2" d="M-5405.4-3934.7c0,148.7-120.6,269.3-269.3,269.3c-148.7,0-269.3-120.6-269.3-269.3
				s120.6-269.3,269.3-269.3C-5526-4204-5405.4-4083.4-5405.4-3934.7"/>
		</g>
		<g transform="matrix(1,0,0,1,5945,4205)">
			<path vector-effect="none" class="st2" d="M-5666.5-3693.8c0,4.5-3.7,8.2-8.2,8.2s-8.2-3.7-8.2-8.2c0-4.5,3.7-8.2,8.2-8.2
				S-5666.5-3698.3-5666.5-3693.8"/>
		</g>
		<g transform="matrix(1,0,0,1,5945,4205)">
			<path vector-effect="none" class="st2" d="M-5457.8-4055.2c0,4.5-3.7,8.2-8.2,8.2s-8.2-3.7-8.2-8.2s3.7-8.2,8.2-8.2
				S-5457.8-4059.7-5457.8-4055.2"/>
		</g>
		<g transform="matrix(1,0,0,1,5945,4205)">
			<path vector-effect="none" class="st2" d="M-5875.2-4055.2c0,4.5-3.7,8.2-8.2,8.2s-8.2-3.7-8.2-8.2s3.7-8.2,8.2-8.2
				S-5875.2-4059.7-5875.2-4055.2"/>
		</g>
		<g transform="matrix(1,0,0,1,5945,4205)">
			<path vector-effect="none" class="st2" d="M-5641.7-3934.7c0,3.3-2.7,6-6,6s-6-2.7-6-6s2.7-6,6-6S-5641.7-3938-5641.7-3934.7"/>
		</g>
		<g transform="matrix(1,0,0,1,5945,4205)">
			<path vector-effect="none" class="st2" d="M-5668.8-3961.7c0,3.3-2.7,6-6,6s-6-2.7-6-6s2.7-6,6-6S-5668.8-3965-5668.8-3961.7"/>
		</g>
		<g transform="matrix(1,0,0,1,5945,4205)">
			<path vector-effect="none" class="st2" d="M-5695.8-3934.7c0,3.3-2.7,6-6,6c-3.3,0-6-2.7-6-6s2.7-6,6-6
				C-5698.4-3940.7-5695.8-3938-5695.8-3934.7"/>
		</g>
		<g transform="matrix(1,0,0,1,5945,4205)">
			<path vector-effect="none" class="st2" d="M-5668.8-3907.7c0,3.3-2.7,6-6,6s-6-2.7-6-6s2.7-6,6-6S-5668.8-3911-5668.8-3907.7"/>
		</g>
	</g>
</g>
</svg>
