G04 #@! TF.GenerationSoftware,KiCad,Pcbnew,(5.99.0-7935-g797175e0f2)*
G04 #@! TF.CreationDate,2021-01-18T22:07:49+01:00*
G04 #@! TF.ProjectId,ardumower mega shield svn,61726475-6d6f-4776-9572-206d65676120,1.4*
G04 #@! TF.SameCoordinates,PXc1c960PY8a12ae0*
G04 #@! TF.FileFunction,Paste,Bot*
G04 #@! TF.FilePolarity,Positive*
%FSLAX46Y46*%
G04 Gerber Fmt 4.6, Leading zero omitted, Abs format (unit mm)*
G04 Created by KiCad (PCBNEW (5.99.0-7935-g797175e0f2)) date 2021-01-18 22:07:49*
%MOMM*%
%LPD*%
G01*
G04 APERTURE LIST*
%ADD10R,0.660400X4.000000*%
G04 APERTURE END LIST*
D10*
X149225000Y48387000D03*
X147955000Y48387000D03*
X146685000Y48387000D03*
X145415000Y48387000D03*
X144145000Y48387000D03*
X142875000Y48387000D03*
X141605000Y48387000D03*
X140335000Y48387000D03*
X140335000Y53213000D03*
X141605000Y53213000D03*
X142875000Y53213000D03*
X144145000Y53213000D03*
X145415000Y53213000D03*
X146685000Y53213000D03*
X147955000Y53213000D03*
X149225000Y53213000D03*
X122555000Y48387000D03*
X121285000Y48387000D03*
X120015000Y48387000D03*
X118745000Y48387000D03*
X117475000Y48387000D03*
X116205000Y48387000D03*
X114935000Y48387000D03*
X113665000Y48387000D03*
X113665000Y53213000D03*
X114935000Y53213000D03*
X116205000Y53213000D03*
X117475000Y53213000D03*
X118745000Y53213000D03*
X120015000Y53213000D03*
X121285000Y53213000D03*
X122555000Y53213000D03*
X136525000Y48387000D03*
X135255000Y48387000D03*
X133985000Y48387000D03*
X132715000Y48387000D03*
X131445000Y48387000D03*
X130175000Y48387000D03*
X128905000Y48387000D03*
X127635000Y48387000D03*
X127635000Y53213000D03*
X128905000Y53213000D03*
X130175000Y53213000D03*
X131445000Y53213000D03*
X132715000Y53213000D03*
X133985000Y53213000D03*
X135255000Y53213000D03*
X136525000Y53213000D03*
M02*
