G04 #@! TF.GenerationSoftware,KiCad,Pcbnew,(5.99.0-7935-g797175e0f2)*
G04 #@! TF.CreationDate,2021-01-18T22:07:49+01:00*
G04 #@! TF.ProjectId,ardumower mega shield svn,61726475-6d6f-4776-9572-206d65676120,1.4*
G04 #@! TF.SameCoordinates,PXc1c960PY8a12ae0*
G04 #@! TF.FileFunction,Paste,Top*
G04 #@! TF.FilePolarity,Positive*
%FSLAX46Y46*%
G04 Gerber Fmt 4.6, Leading zero omitted, Abs format (unit mm)*
G04 Created by KiCad (PCBNEW (5.99.0-7935-g797175e0f2)) date 2021-01-18 22:07:49*
%MOMM*%
%LPD*%
G01*
G04 APERTURE LIST*
G04 Aperture macros list*
%AMRoundRect*
0 Rectangle with rounded corners*
0 $1 Rounding radius*
0 $2 $3 $4 $5 $6 $7 $8 $9 X,Y pos of 4 corners*
0 Add a 4 corners polygon primitive as box body*
4,1,4,$2,$3,$4,$5,$6,$7,$8,$9,$2,$3,0*
0 Add four circle primitives for the rounded corners*
1,1,$1+$1,$2,$3,0*
1,1,$1+$1,$4,$5,0*
1,1,$1+$1,$6,$7,0*
1,1,$1+$1,$8,$9,0*
0 Add four rect primitives between the rounded corners*
20,1,$1+$1,$2,$3,$4,$5,0*
20,1,$1+$1,$4,$5,$6,$7,0*
20,1,$1+$1,$6,$7,$8,$9,0*
20,1,$1+$1,$8,$9,$2,$3,0*%
G04 Aperture macros list end*
%ADD10RoundRect,0.250000X0.325000X0.650000X-0.325000X0.650000X-0.325000X-0.650000X0.325000X-0.650000X0*%
%ADD11RoundRect,0.250000X-0.650000X0.325000X-0.650000X-0.325000X0.650000X-0.325000X0.650000X0.325000X0*%
%ADD12RoundRect,0.250000X-0.325000X-0.650000X0.325000X-0.650000X0.325000X0.650000X-0.325000X0.650000X0*%
%ADD13RoundRect,0.250000X-0.362500X-1.425000X0.362500X-1.425000X0.362500X1.425000X-0.362500X1.425000X0*%
%ADD14RoundRect,0.250000X-1.425000X0.362500X-1.425000X-0.362500X1.425000X-0.362500X1.425000X0.362500X0*%
%ADD15R,0.800100X0.800100*%
%ADD16R,1.250000X1.000000*%
%ADD17RoundRect,0.243750X-0.243750X-0.456250X0.243750X-0.456250X0.243750X0.456250X-0.243750X0.456250X0*%
%ADD18R,4.191000X3.556000*%
%ADD19R,1.100000X0.400000*%
%ADD20R,1.800000X2.500000*%
%ADD21R,4.600000X1.390000*%
%ADD22R,9.400000X10.800000*%
%ADD23R,0.660400X2.032000*%
%ADD24R,2.500000X1.800000*%
%ADD25R,1.000000X1.250000*%
%ADD26R,3.300000X2.500000*%
%ADD27R,2.500000X3.300000*%
%ADD28R,1.600200X1.168400*%
%ADD29R,1.000000X1.600000*%
%ADD30R,1.600000X1.000000*%
%ADD31R,3.556000X4.191000*%
%ADD32R,1.950000X0.600000*%
%ADD33R,0.500000X0.900000*%
%ADD34R,0.900000X0.500000*%
%ADD35R,0.800000X0.900000*%
%ADD36R,0.900000X1.700000*%
%ADD37RoundRect,0.250000X0.262500X0.450000X-0.262500X0.450000X-0.262500X-0.450000X0.262500X-0.450000X0*%
%ADD38RoundRect,0.250000X-0.262500X-0.450000X0.262500X-0.450000X0.262500X0.450000X-0.262500X0.450000X0*%
%ADD39RoundRect,0.250000X-0.625000X0.312500X-0.625000X-0.312500X0.625000X-0.312500X0.625000X0.312500X0*%
%ADD40R,1.700000X0.900000*%
%ADD41RoundRect,0.250000X0.450000X-0.262500X0.450000X0.262500X-0.450000X0.262500X-0.450000X-0.262500X0*%
%ADD42R,0.900000X1.200000*%
%ADD43RoundRect,0.150000X-0.587500X-0.150000X0.587500X-0.150000X0.587500X0.150000X-0.587500X0.150000X0*%
%ADD44RoundRect,0.150000X0.150000X-0.512500X0.150000X0.512500X-0.150000X0.512500X-0.150000X-0.512500X0*%
%ADD45RoundRect,0.150000X0.587500X0.150000X-0.587500X0.150000X-0.587500X-0.150000X0.587500X-0.150000X0*%
%ADD46RoundRect,0.150000X-0.512500X-0.150000X0.512500X-0.150000X0.512500X0.150000X-0.512500X0.150000X0*%
%ADD47RoundRect,0.250000X-0.250000X-0.475000X0.250000X-0.475000X0.250000X0.475000X-0.250000X0.475000X0*%
%ADD48RoundRect,0.150000X0.150000X-0.587500X0.150000X0.587500X-0.150000X0.587500X-0.150000X-0.587500X0*%
%ADD49RoundRect,0.250000X0.250000X0.475000X-0.250000X0.475000X-0.250000X-0.475000X0.250000X-0.475000X0*%
%ADD50RoundRect,0.150000X-0.150000X0.587500X-0.150000X-0.587500X0.150000X-0.587500X0.150000X0.587500X0*%
%ADD51RoundRect,0.200000X0.275000X-0.200000X0.275000X0.200000X-0.275000X0.200000X-0.275000X-0.200000X0*%
%ADD52R,1.168400X1.600200*%
%ADD53RoundRect,0.250001X0.799999X2.474999X-0.799999X2.474999X-0.799999X-2.474999X0.799999X-2.474999X0*%
%ADD54RoundRect,0.250001X-2.474999X0.799999X-2.474999X-0.799999X2.474999X-0.799999X2.474999X0.799999X0*%
%ADD55RoundRect,0.250000X0.362500X1.425000X-0.362500X1.425000X-0.362500X-1.425000X0.362500X-1.425000X0*%
G04 APERTURE END LIST*
D10*
X231980000Y90043000D03*
X229030000Y90043000D03*
D11*
X231775000Y37797000D03*
X231775000Y34847000D03*
D12*
X228522000Y64897000D03*
X231472000Y64897000D03*
D13*
X226780500Y95123000D03*
X232705500Y95123000D03*
D14*
X228473000Y37760500D03*
X228473000Y31835500D03*
D13*
X234400500Y64897000D03*
X240325500Y64897000D03*
D15*
X156911000Y5730240D03*
X158811000Y5730240D03*
X157861000Y7729220D03*
D16*
X113538000Y6461000D03*
X113538000Y4461000D03*
X86360000Y10938000D03*
X86360000Y12938000D03*
X82296000Y10938000D03*
X82296000Y12938000D03*
X109855000Y15383000D03*
X109855000Y17383000D03*
D17*
X184228500Y4826000D03*
X186103500Y4826000D03*
D18*
X128778000Y12192000D03*
X122428000Y12192000D03*
D19*
X84210000Y83525000D03*
X84210000Y82875000D03*
X84210000Y82225000D03*
X84210000Y81575000D03*
X88510000Y81575000D03*
X88510000Y82225000D03*
X88510000Y82875000D03*
X88510000Y83525000D03*
X93100000Y83525000D03*
X93100000Y82875000D03*
X93100000Y82225000D03*
X93100000Y81575000D03*
X97400000Y81575000D03*
X97400000Y82225000D03*
X97400000Y82875000D03*
X97400000Y83525000D03*
X101990000Y83525000D03*
X101990000Y82875000D03*
X101990000Y82225000D03*
X101990000Y81575000D03*
X106290000Y81575000D03*
X106290000Y82225000D03*
X106290000Y82875000D03*
X106290000Y83525000D03*
X110880000Y83525000D03*
X110880000Y82875000D03*
X110880000Y82225000D03*
X110880000Y81575000D03*
X115180000Y81575000D03*
X115180000Y82225000D03*
X115180000Y82875000D03*
X115180000Y83525000D03*
X119770000Y83525000D03*
X119770000Y82875000D03*
X119770000Y82225000D03*
X119770000Y81575000D03*
X124070000Y81575000D03*
X124070000Y82225000D03*
X124070000Y82875000D03*
X124070000Y83525000D03*
X128660000Y83525000D03*
X128660000Y82875000D03*
X128660000Y82225000D03*
X128660000Y81575000D03*
X132960000Y81575000D03*
X132960000Y82225000D03*
X132960000Y82875000D03*
X132960000Y83525000D03*
X137550000Y83525000D03*
X137550000Y82875000D03*
X137550000Y82225000D03*
X137550000Y81575000D03*
X141850000Y81575000D03*
X141850000Y82225000D03*
X141850000Y82875000D03*
X141850000Y83525000D03*
D15*
X171973240Y36129000D03*
X171973240Y34229000D03*
X173972220Y35179000D03*
X171846240Y42352000D03*
X171846240Y40452000D03*
X173845220Y41402000D03*
X171846240Y48067000D03*
X171846240Y46167000D03*
X173845220Y47117000D03*
X35372000Y42052240D03*
X37272000Y42052240D03*
X36322000Y44051220D03*
X28082240Y49210000D03*
X28082240Y47310000D03*
X30081220Y48260000D03*
X28082240Y44130000D03*
X28082240Y42230000D03*
X30081220Y43180000D03*
X28082240Y40447000D03*
X28082240Y38547000D03*
X30081220Y39497000D03*
D20*
X166878000Y14446000D03*
X166878000Y10446000D03*
D21*
X101854000Y6477000D03*
X101854000Y9017000D03*
X101854000Y11557000D03*
D22*
X92704000Y9017000D03*
D21*
X77978000Y6350000D03*
X77978000Y8890000D03*
X77978000Y11430000D03*
D22*
X68828000Y8890000D03*
D17*
X50497500Y40640000D03*
X52372500Y40640000D03*
X50497500Y36830000D03*
X52372500Y36830000D03*
X50497500Y48260000D03*
X52372500Y48260000D03*
X50497500Y59690000D03*
X52372500Y59690000D03*
X50497500Y44450000D03*
X52372500Y44450000D03*
X50497500Y55880000D03*
X52372500Y55880000D03*
X50497500Y52070000D03*
X52372500Y52070000D03*
D15*
X147208240Y10221000D03*
X147208240Y8321000D03*
X149207220Y9271000D03*
X150002240Y5395000D03*
X150002240Y3495000D03*
X152001220Y4445000D03*
X48072000Y73675240D03*
X49972000Y73675240D03*
X49022000Y75674220D03*
D23*
X152400000Y35026600D03*
X153670000Y35026600D03*
X154940000Y35026600D03*
X156210000Y35026600D03*
X157480000Y35026600D03*
X158750000Y35026600D03*
X160020000Y35026600D03*
X160020000Y41173400D03*
X158750000Y41173400D03*
X157480000Y41173400D03*
X156210000Y41173400D03*
X154940000Y41173400D03*
X153670000Y41173400D03*
X152400000Y41173400D03*
X149225000Y41173400D03*
X147955000Y41173400D03*
X146685000Y41173400D03*
X145415000Y41173400D03*
X144145000Y41173400D03*
X142875000Y41173400D03*
X141605000Y41173400D03*
X140335000Y41173400D03*
X140335000Y35026600D03*
X141605000Y35026600D03*
X142875000Y35026600D03*
X144145000Y35026600D03*
X145415000Y35026600D03*
X146685000Y35026600D03*
X147955000Y35026600D03*
X149225000Y35026600D03*
X122555000Y41173400D03*
X121285000Y41173400D03*
X120015000Y41173400D03*
X118745000Y41173400D03*
X117475000Y41173400D03*
X116205000Y41173400D03*
X114935000Y41173400D03*
X113665000Y41173400D03*
X113665000Y35026600D03*
X114935000Y35026600D03*
X116205000Y35026600D03*
X117475000Y35026600D03*
X118745000Y35026600D03*
X120015000Y35026600D03*
X121285000Y35026600D03*
X122555000Y35026600D03*
X136525000Y41173400D03*
X135255000Y41173400D03*
X133985000Y41173400D03*
X132715000Y41173400D03*
X131445000Y41173400D03*
X130175000Y41173400D03*
X128905000Y41173400D03*
X127635000Y41173400D03*
X127635000Y35026600D03*
X128905000Y35026600D03*
X130175000Y35026600D03*
X131445000Y35026600D03*
X132715000Y35026600D03*
X133985000Y35026600D03*
X135255000Y35026600D03*
X136525000Y35026600D03*
D16*
X147574000Y32750000D03*
X147574000Y30750000D03*
X124714000Y35068000D03*
X124714000Y37068000D03*
X138430000Y35068000D03*
X138430000Y37068000D03*
X145288000Y32750000D03*
X145288000Y30750000D03*
D24*
X192500000Y31750000D03*
X188500000Y31750000D03*
D25*
X36084000Y92456000D03*
X38084000Y92456000D03*
D15*
X61407000Y50434240D03*
X63307000Y50434240D03*
X62357000Y52433220D03*
X57470000Y50434240D03*
X59370000Y50434240D03*
X58420000Y52433220D03*
X64963000Y55133240D03*
X66863000Y55133240D03*
X65913000Y57132220D03*
X61153000Y55133240D03*
X63053000Y55133240D03*
X62103000Y57132220D03*
X61407000Y59197240D03*
X63307000Y59197240D03*
X62357000Y61196220D03*
X57597000Y59197240D03*
X59497000Y59197240D03*
X58547000Y61196220D03*
X130368000Y50434240D03*
X132268000Y50434240D03*
X131318000Y52433220D03*
X134051000Y50434240D03*
X135951000Y50434240D03*
X135001000Y52433220D03*
X45151000Y86121240D03*
X47051000Y86121240D03*
X46101000Y88120220D03*
X48834000Y86121240D03*
X50734000Y86121240D03*
X49784000Y88120220D03*
D26*
X235839000Y106905000D03*
X235839000Y100105000D03*
D27*
X227047000Y80137000D03*
X220247000Y80137000D03*
D26*
X228981000Y105635000D03*
X228981000Y98835000D03*
X222123000Y105635000D03*
X222123000Y98835000D03*
X223012000Y38325000D03*
X223012000Y31525000D03*
X220726000Y28292000D03*
X220726000Y21492000D03*
X234442000Y21492000D03*
X234442000Y28292000D03*
X227584000Y28292000D03*
X227584000Y21492000D03*
D27*
X222914000Y56134000D03*
X229714000Y56134000D03*
D26*
X220853000Y61116000D03*
X220853000Y67916000D03*
D27*
X220247000Y73152000D03*
X227047000Y73152000D03*
X230788000Y73279000D03*
X237588000Y73279000D03*
X234286000Y45212000D03*
X227486000Y45212000D03*
D26*
X222123000Y88802000D03*
X222123000Y95602000D03*
D15*
X138191240Y59624000D03*
X138191240Y57724000D03*
X140190220Y58674000D03*
X144846000Y55133240D03*
X146746000Y55133240D03*
X145796000Y57132220D03*
X129301240Y59751000D03*
X129301240Y57851000D03*
X131300220Y58801000D03*
D28*
X161671000Y99822000D03*
X161671000Y98298000D03*
D29*
X101195000Y90170000D03*
X98195000Y90170000D03*
X92432000Y87630000D03*
X89432000Y87630000D03*
X101195000Y87630000D03*
X98195000Y87630000D03*
X110085000Y87630000D03*
X107085000Y87630000D03*
X83923000Y87630000D03*
X80923000Y87630000D03*
X119102000Y87503000D03*
X116102000Y87503000D03*
X127992000Y87630000D03*
X124992000Y87630000D03*
X136882000Y87630000D03*
X133882000Y87630000D03*
X110085000Y90170000D03*
X107085000Y90170000D03*
X119102000Y90170000D03*
X116102000Y90170000D03*
X127992000Y90170000D03*
X124992000Y90170000D03*
X136882000Y90170000D03*
X133882000Y90170000D03*
X92432000Y90170000D03*
X89432000Y90170000D03*
X83923000Y90170000D03*
X80923000Y90170000D03*
X35330000Y48006000D03*
X38330000Y48006000D03*
D30*
X25400000Y8612000D03*
X25400000Y5612000D03*
X46863000Y16153000D03*
X46863000Y19153000D03*
X24638000Y93448000D03*
X24638000Y90448000D03*
D31*
X235204000Y53848000D03*
X235204000Y60198000D03*
D32*
X42800000Y72390000D03*
X42800000Y73660000D03*
X42800000Y74930000D03*
X42800000Y76200000D03*
X42800000Y77470000D03*
X42800000Y78740000D03*
X42800000Y80010000D03*
X42800000Y81280000D03*
X42800000Y82550000D03*
X42800000Y83820000D03*
X33400000Y83820000D03*
X33400000Y82550000D03*
X33400000Y81280000D03*
X33400000Y80010000D03*
X33400000Y78740000D03*
X33400000Y77470000D03*
X33400000Y76200000D03*
X33400000Y74930000D03*
X33400000Y73660000D03*
X33400000Y72390000D03*
D33*
X135878000Y69977000D03*
X134378000Y69977000D03*
D34*
X86614000Y91555000D03*
X86614000Y90055000D03*
D33*
X114439000Y68961000D03*
X115939000Y68961000D03*
D34*
X72644000Y98564000D03*
X72644000Y100064000D03*
X170878500Y81966500D03*
X170878500Y80466500D03*
X197612000Y102985000D03*
X197612000Y101485000D03*
X114808000Y57289000D03*
X114808000Y58789000D03*
X106045000Y65925000D03*
X106045000Y67425000D03*
D33*
X115304000Y72644000D03*
X113804000Y72644000D03*
X199759000Y68326000D03*
X198259000Y68326000D03*
X197854000Y55372000D03*
X196354000Y55372000D03*
D34*
X197612000Y96762000D03*
X197612000Y95262000D03*
X191389000Y76315000D03*
X191389000Y74815000D03*
X188341000Y102858000D03*
X188341000Y101358000D03*
X190881000Y79490000D03*
X190881000Y77990000D03*
D33*
X72910000Y90932000D03*
X74410000Y90932000D03*
D34*
X161226500Y82030000D03*
X161226500Y80530000D03*
X45974000Y95365000D03*
X45974000Y93865000D03*
D33*
X45454000Y109728000D03*
X43954000Y109728000D03*
X131687000Y69977000D03*
X130187000Y69977000D03*
X128004000Y71374000D03*
X126504000Y71374000D03*
X142101000Y69977000D03*
X140601000Y69977000D03*
D34*
X147828000Y68949000D03*
X147828000Y67449000D03*
X72644000Y108724000D03*
X72644000Y110224000D03*
D33*
X78982000Y90932000D03*
X77482000Y90932000D03*
D34*
X38735000Y88380000D03*
X38735000Y86880000D03*
X118618000Y66179000D03*
X118618000Y67679000D03*
X81407000Y108724000D03*
X81407000Y110224000D03*
X127127000Y59551000D03*
X127127000Y58051000D03*
X133477000Y59551000D03*
X133477000Y58051000D03*
X136144000Y59551000D03*
X136144000Y58051000D03*
X138430000Y55868000D03*
X138430000Y54368000D03*
X148463000Y56884000D03*
X148463000Y55384000D03*
X150368000Y56884000D03*
X150368000Y55384000D03*
D33*
X168668000Y34290000D03*
X170168000Y34290000D03*
X172224000Y38354000D03*
X173724000Y38354000D03*
X168668000Y40513000D03*
X170168000Y40513000D03*
D34*
X117475000Y96254000D03*
X117475000Y94754000D03*
D33*
X167652000Y38354000D03*
X169152000Y38354000D03*
X168668000Y46228000D03*
X170168000Y46228000D03*
X167652000Y44069000D03*
X169152000Y44069000D03*
X195592000Y31750000D03*
X197092000Y31750000D03*
D34*
X151257000Y69203000D03*
X151257000Y67703000D03*
D33*
X209816000Y68326000D03*
X211316000Y68326000D03*
X35572000Y40005000D03*
X37072000Y40005000D03*
X32016000Y42545000D03*
X33516000Y42545000D03*
D34*
X25908000Y49010000D03*
X25908000Y47510000D03*
X25781000Y43930000D03*
X25781000Y42430000D03*
X25781000Y40247000D03*
X25781000Y38747000D03*
D33*
X33516000Y48260000D03*
X32016000Y48260000D03*
X33516000Y45847000D03*
X32016000Y45847000D03*
X35191000Y45847000D03*
X36691000Y45847000D03*
D34*
X48133000Y78728000D03*
X48133000Y77228000D03*
D33*
X72910000Y86741000D03*
X74410000Y86741000D03*
X72910000Y88646000D03*
X74410000Y88646000D03*
D35*
X159705000Y55134000D03*
X161605000Y55134000D03*
X160655000Y57134000D03*
D34*
X163576000Y56884000D03*
X163576000Y55384000D03*
D33*
X166104000Y53594000D03*
X164604000Y53594000D03*
D35*
X153101000Y55134000D03*
X155001000Y55134000D03*
X154051000Y57134000D03*
D34*
X156718000Y53352000D03*
X156718000Y54852000D03*
X154432000Y50304000D03*
X154432000Y51804000D03*
D35*
X156403000Y49927000D03*
X158303000Y49927000D03*
X157353000Y51927000D03*
D34*
X160401000Y51677000D03*
X160401000Y50177000D03*
X162941000Y50177000D03*
X162941000Y51677000D03*
D33*
X100445000Y92710000D03*
X98945000Y92710000D03*
D34*
X99695000Y96254000D03*
X99695000Y94754000D03*
X109093000Y99707000D03*
X109093000Y101207000D03*
D33*
X109335000Y92710000D03*
X107835000Y92710000D03*
D34*
X126111000Y96254000D03*
X126111000Y94754000D03*
D33*
X118225000Y92710000D03*
X116725000Y92710000D03*
X127242000Y92837000D03*
X125742000Y92837000D03*
D34*
X135128000Y96381000D03*
X135128000Y94881000D03*
D33*
X136132000Y92710000D03*
X134632000Y92710000D03*
D34*
X179070000Y104660000D03*
X179070000Y106160000D03*
X170180000Y104660000D03*
X170180000Y106160000D03*
X161925000Y106160000D03*
X161925000Y104660000D03*
D33*
X91682000Y92710000D03*
X90182000Y92710000D03*
D34*
X90424000Y96254000D03*
X90424000Y94754000D03*
D36*
X164264000Y4826000D03*
X161364000Y4826000D03*
X161364000Y7493000D03*
X164264000Y7493000D03*
X191188000Y43180000D03*
X188288000Y43180000D03*
X188288000Y40640000D03*
X191188000Y40640000D03*
D37*
X30122500Y74930000D03*
X28297500Y74930000D03*
X30122500Y72390000D03*
X28297500Y72390000D03*
X30122500Y80010000D03*
X28297500Y80010000D03*
X30122500Y69850000D03*
X28297500Y69850000D03*
X30122500Y67310000D03*
X28297500Y67310000D03*
X30122500Y77470000D03*
X28297500Y77470000D03*
X30122500Y82550000D03*
X28297500Y82550000D03*
X57427500Y44450000D03*
X55602500Y44450000D03*
D38*
X134088500Y48387000D03*
X135913500Y48387000D03*
D39*
X55372000Y53151500D03*
X55372000Y50226500D03*
D36*
X57965000Y48260000D03*
X55065000Y48260000D03*
X59764000Y48260000D03*
X62664000Y48260000D03*
D39*
X58039000Y57469500D03*
X58039000Y54544500D03*
D36*
X129106000Y54991000D03*
X132006000Y54991000D03*
X65352000Y51943000D03*
X68252000Y51943000D03*
D40*
X55372000Y61140000D03*
X55372000Y58240000D03*
D37*
X57427500Y40640000D03*
X55602500Y40640000D03*
D36*
X57965000Y36830000D03*
X55065000Y36830000D03*
D41*
X40830500Y86209500D03*
X40830500Y88034500D03*
D40*
X66421000Y61775000D03*
X66421000Y58875000D03*
X43180000Y89080000D03*
X43180000Y86180000D03*
X151257000Y11229000D03*
X151257000Y8329000D03*
D41*
X147574000Y3532500D03*
X147574000Y5357500D03*
D36*
X161110000Y10033000D03*
X164010000Y10033000D03*
X156665000Y18034000D03*
X159565000Y18034000D03*
X153744000Y15494000D03*
X156644000Y15494000D03*
X156538000Y3810000D03*
X159438000Y3810000D03*
D41*
X154559000Y4294500D03*
X154559000Y6119500D03*
D40*
X170053000Y13769000D03*
X170053000Y10869000D03*
D35*
X165547000Y80534000D03*
X167447000Y80534000D03*
X166497000Y82534000D03*
D34*
X169164000Y80466500D03*
X169164000Y81966500D03*
X172593000Y80466500D03*
X172593000Y81966500D03*
D35*
X155895000Y80534000D03*
X157795000Y80534000D03*
X156845000Y82534000D03*
D34*
X159512000Y80530000D03*
X159512000Y82030000D03*
X163195000Y80530000D03*
X163195000Y82030000D03*
X86995000Y96254000D03*
X86995000Y94754000D03*
X85217000Y96254000D03*
X85217000Y94754000D03*
X83439000Y96254000D03*
X83439000Y94754000D03*
X81661000Y96254000D03*
X81661000Y94754000D03*
D31*
X216662000Y15113000D03*
X216662000Y8763000D03*
D18*
X252095000Y14605000D03*
X245745000Y14605000D03*
D34*
X45974000Y97675000D03*
X45974000Y99175000D03*
X45974000Y105271000D03*
X45974000Y103771000D03*
X197612000Y93460000D03*
X197612000Y91960000D03*
X197612000Y88531000D03*
X197612000Y90031000D03*
D24*
X110014000Y12192000D03*
X114014000Y12192000D03*
X122777000Y70866000D03*
X118777000Y70866000D03*
D33*
X170930000Y15748000D03*
X169430000Y15748000D03*
D41*
X17780000Y89892500D03*
X17780000Y91717500D03*
D35*
X123764000Y50435000D03*
X125664000Y50435000D03*
X124714000Y52435000D03*
D34*
X128143000Y51550000D03*
X128143000Y50050000D03*
X128143000Y48248000D03*
X128143000Y46748000D03*
D42*
X207898000Y43561000D03*
X204598000Y43561000D03*
D34*
X121793000Y50431000D03*
X121793000Y51931000D03*
D43*
X157685500Y61275000D03*
X157685500Y59375000D03*
X159560500Y60325000D03*
X152859500Y61275000D03*
X152859500Y59375000D03*
X154734500Y60325000D03*
D44*
X199583000Y40391500D03*
X200533000Y40391500D03*
X201483000Y40391500D03*
X201483000Y42666500D03*
X199583000Y42666500D03*
D45*
X155242500Y63693000D03*
X155242500Y65593000D03*
X153367500Y64643000D03*
D43*
X114124500Y67117000D03*
X114124500Y65217000D03*
X115999500Y66167000D03*
X172925500Y18222000D03*
X172925500Y16322000D03*
X174800500Y17272000D03*
X121617500Y59370000D03*
X121617500Y57470000D03*
X123492500Y58420000D03*
X110949500Y59370000D03*
X110949500Y57470000D03*
X112824500Y58420000D03*
D45*
X197914500Y59883000D03*
X197914500Y61783000D03*
X196039500Y60833000D03*
D43*
X120601500Y68260000D03*
X120601500Y66360000D03*
X122476500Y67310000D03*
X134063500Y68260000D03*
X134063500Y66360000D03*
X135938500Y67310000D03*
D46*
X84968500Y19492000D03*
X84968500Y18542000D03*
X84968500Y17592000D03*
X87243500Y17592000D03*
X87243500Y18542000D03*
X87243500Y19492000D03*
D43*
X105742500Y72451000D03*
X105742500Y70551000D03*
X107617500Y71501000D03*
D33*
X197346000Y40259000D03*
X195846000Y40259000D03*
D43*
X158066500Y69784000D03*
X158066500Y67884000D03*
X159941500Y68834000D03*
D46*
X104272500Y19492000D03*
X104272500Y18542000D03*
X104272500Y17592000D03*
X106547500Y17592000D03*
X106547500Y18542000D03*
X106547500Y19492000D03*
D43*
X142826500Y61275000D03*
X142826500Y59375000D03*
X144701500Y60325000D03*
X117124000Y59370000D03*
X117124000Y57470000D03*
X118999000Y58420000D03*
D33*
X194552000Y40259000D03*
X193052000Y40259000D03*
D43*
X168861500Y57465000D03*
X168861500Y55565000D03*
X170736500Y56515000D03*
D46*
X98303500Y19492000D03*
X98303500Y18542000D03*
X98303500Y17592000D03*
X100578500Y17592000D03*
X100578500Y18542000D03*
X100578500Y19492000D03*
D47*
X79568000Y15748000D03*
X81468000Y15748000D03*
D43*
X162511500Y61275000D03*
X162511500Y59375000D03*
X164386500Y60325000D03*
X143080500Y68260000D03*
X143080500Y66360000D03*
X144955500Y67310000D03*
X124665500Y68260000D03*
X124665500Y66360000D03*
X126540500Y67310000D03*
D48*
X123764000Y46687500D03*
X125664000Y46687500D03*
X124714000Y48562500D03*
D43*
X153367500Y69784000D03*
X153367500Y67884000D03*
X155242500Y68834000D03*
D49*
X104074000Y15748000D03*
X102174000Y15748000D03*
D43*
X108536500Y67117000D03*
X108536500Y65217000D03*
X110411500Y66167000D03*
X148033500Y61275000D03*
X148033500Y59375000D03*
X149908500Y60325000D03*
D46*
X93858500Y19492000D03*
X93858500Y18542000D03*
X93858500Y17592000D03*
X96133500Y17592000D03*
X96133500Y18542000D03*
X96133500Y19492000D03*
D50*
X31811000Y90980500D03*
X29911000Y90980500D03*
X30861000Y89105500D03*
D47*
X92903000Y15748000D03*
X94803000Y15748000D03*
D51*
X33401000Y89726000D03*
X33401000Y91376000D03*
D48*
X197805000Y51513500D03*
X199705000Y51513500D03*
X198755000Y53388500D03*
D51*
X167386000Y59627000D03*
X167386000Y61277000D03*
D43*
X166956500Y69784000D03*
X166956500Y67884000D03*
X168831500Y68834000D03*
D48*
X130368000Y46687500D03*
X132268000Y46687500D03*
X131318000Y48562500D03*
D43*
X129491500Y68260000D03*
X129491500Y66360000D03*
X131366500Y67310000D03*
X162638500Y69784000D03*
X162638500Y67884000D03*
X164513500Y68834000D03*
D50*
X159446000Y11732500D03*
X157546000Y11732500D03*
X158496000Y9857500D03*
D42*
X173991000Y9144000D03*
X177291000Y9144000D03*
D45*
X163116500Y63693000D03*
X163116500Y65593000D03*
X161241500Y64643000D03*
D52*
X196215000Y38227000D03*
X194691000Y38227000D03*
D48*
X153863000Y9857500D03*
X155763000Y9857500D03*
X154813000Y11732500D03*
D46*
X80523500Y19492000D03*
X80523500Y18542000D03*
X80523500Y17592000D03*
X82798500Y17592000D03*
X82798500Y18542000D03*
X82798500Y19492000D03*
D43*
X166956500Y65593000D03*
X166956500Y63693000D03*
X168831500Y64643000D03*
D48*
X173802000Y12524500D03*
X175702000Y12524500D03*
X174752000Y14399500D03*
D43*
X138762500Y68260000D03*
X138762500Y66360000D03*
X140637500Y67310000D03*
X196039500Y65339000D03*
X196039500Y63439000D03*
X197914500Y64389000D03*
D53*
X230932000Y110490000D03*
X223982000Y110490000D03*
D54*
X222377000Y48306000D03*
X222377000Y41356000D03*
D10*
X195912000Y43180000D03*
X192962000Y43180000D03*
D55*
X208067500Y36703000D03*
X202142500Y36703000D03*
D46*
X89413500Y19492000D03*
X89413500Y18542000D03*
X89413500Y17592000D03*
X91688500Y17592000D03*
X91688500Y18542000D03*
X91688500Y19492000D03*
M02*
