G04 #@! TF.GenerationSoftware,KiCad,Pcbnew,(5.99.0-7935-g797175e0f2)*
G04 #@! TF.CreationDate,2021-01-18T22:07:50+01:00*
G04 #@! TF.ProjectId,ardumower mega shield svn,61726475-6d6f-4776-9572-206d65676120,1.4*
G04 #@! TF.SameCoordinates,PXc1c960PY8a12ae0*
G04 #@! TF.FileFunction,AssemblyDrawing,Bot*
%FSLAX46Y46*%
G04 Gerber Fmt 4.6, Leading zero omitted, Abs format (unit mm)*
G04 Created by KiCad (PCBNEW (5.99.0-7935-g797175e0f2)) date 2021-01-18 22:07:50*
%MOMM*%
%LPD*%
G01*
G04 APERTURE LIST*
%ADD10C,0.200000*%
%ADD11C,0.150000*%
%ADD12C,0.100000*%
G04 APERTURE END LIST*
D10*
X258064000Y0D02*
X258064000Y127000D01*
X257048000Y114300000D02*
X258572000Y114300000D01*
X256540000Y116459000D02*
X256540000Y116332000D01*
X256540000Y114808000D02*
X256540000Y116459000D01*
X256921000Y0D02*
X258064000Y0D01*
D11*
X231306142Y41473381D02*
X231258523Y41521000D01*
X231163285Y41568620D01*
X230925190Y41568620D01*
X230829952Y41521000D01*
X230782333Y41473381D01*
X230734714Y41378143D01*
X230734714Y41282905D01*
X230782333Y41140048D01*
X231353761Y40568620D01*
X230734714Y40568620D01*
X230353761Y41473381D02*
X230306142Y41521000D01*
X230210904Y41568620D01*
X229972809Y41568620D01*
X229877571Y41521000D01*
X229829952Y41473381D01*
X229782333Y41378143D01*
X229782333Y41282905D01*
X229829952Y41140048D01*
X230401380Y40568620D01*
X229782333Y40568620D01*
X229163285Y41568620D02*
X229068047Y41568620D01*
X228972809Y41521000D01*
X228925190Y41473381D01*
X228877571Y41378143D01*
X228829952Y41187667D01*
X228829952Y40949572D01*
X228877571Y40759096D01*
X228925190Y40663858D01*
X228972809Y40616239D01*
X229068047Y40568620D01*
X229163285Y40568620D01*
X229258523Y40616239D01*
X229306142Y40663858D01*
X229353761Y40759096D01*
X229401380Y40949572D01*
X229401380Y41187667D01*
X229353761Y41378143D01*
X229306142Y41473381D01*
X229258523Y41521000D01*
X229163285Y41568620D01*
X228210904Y41568620D02*
X228115666Y41568620D01*
X228020428Y41521000D01*
X227972809Y41473381D01*
X227925190Y41378143D01*
X227877571Y41187667D01*
X227877571Y40949572D01*
X227925190Y40759096D01*
X227972809Y40663858D01*
X228020428Y40616239D01*
X228115666Y40568620D01*
X228210904Y40568620D01*
X228306142Y40616239D01*
X228353761Y40663858D01*
X228401380Y40759096D01*
X228449000Y40949572D01*
X228449000Y41187667D01*
X228401380Y41378143D01*
X228353761Y41473381D01*
X228306142Y41521000D01*
X228210904Y41568620D01*
X227020428Y41235286D02*
X227020428Y40568620D01*
X227449000Y41235286D02*
X227449000Y40711477D01*
X227401380Y40616239D01*
X227306142Y40568620D01*
X227163285Y40568620D01*
X227068047Y40616239D01*
X227020428Y40663858D01*
X226210904Y41092429D02*
X226544238Y41092429D01*
X226544238Y40568620D02*
X226544238Y41568620D01*
X226068047Y41568620D01*
X224496619Y41568620D02*
X224687095Y41568620D01*
X224782333Y41521000D01*
X224829952Y41473381D01*
X224925190Y41330524D01*
X224972809Y41140048D01*
X224972809Y40759096D01*
X224925190Y40663858D01*
X224877571Y40616239D01*
X224782333Y40568620D01*
X224591857Y40568620D01*
X224496619Y40616239D01*
X224449000Y40663858D01*
X224401380Y40759096D01*
X224401380Y40997191D01*
X224449000Y41092429D01*
X224496619Y41140048D01*
X224591857Y41187667D01*
X224782333Y41187667D01*
X224877571Y41140048D01*
X224925190Y41092429D01*
X224972809Y40997191D01*
X224068047Y41568620D02*
X223449000Y41568620D01*
X223782333Y41187667D01*
X223639476Y41187667D01*
X223544238Y41140048D01*
X223496619Y41092429D01*
X223449000Y40997191D01*
X223449000Y40759096D01*
X223496619Y40663858D01*
X223544238Y40616239D01*
X223639476Y40568620D01*
X223925190Y40568620D01*
X224020428Y40616239D01*
X224068047Y40663858D01*
X223163285Y41568620D02*
X222829952Y40568620D01*
X222496619Y41568620D01*
X231306142Y75255381D02*
X231258523Y75303000D01*
X231163285Y75350620D01*
X230925190Y75350620D01*
X230829952Y75303000D01*
X230782333Y75255381D01*
X230734714Y75160143D01*
X230734714Y75064905D01*
X230782333Y74922048D01*
X231353761Y74350620D01*
X230734714Y74350620D01*
X230353761Y75255381D02*
X230306142Y75303000D01*
X230210904Y75350620D01*
X229972809Y75350620D01*
X229877571Y75303000D01*
X229829952Y75255381D01*
X229782333Y75160143D01*
X229782333Y75064905D01*
X229829952Y74922048D01*
X230401380Y74350620D01*
X229782333Y74350620D01*
X229163285Y75350620D02*
X229068047Y75350620D01*
X228972809Y75303000D01*
X228925190Y75255381D01*
X228877571Y75160143D01*
X228829952Y74969667D01*
X228829952Y74731572D01*
X228877571Y74541096D01*
X228925190Y74445858D01*
X228972809Y74398239D01*
X229068047Y74350620D01*
X229163285Y74350620D01*
X229258523Y74398239D01*
X229306142Y74445858D01*
X229353761Y74541096D01*
X229401380Y74731572D01*
X229401380Y74969667D01*
X229353761Y75160143D01*
X229306142Y75255381D01*
X229258523Y75303000D01*
X229163285Y75350620D01*
X228210904Y75350620D02*
X228115666Y75350620D01*
X228020428Y75303000D01*
X227972809Y75255381D01*
X227925190Y75160143D01*
X227877571Y74969667D01*
X227877571Y74731572D01*
X227925190Y74541096D01*
X227972809Y74445858D01*
X228020428Y74398239D01*
X228115666Y74350620D01*
X228210904Y74350620D01*
X228306142Y74398239D01*
X228353761Y74445858D01*
X228401380Y74541096D01*
X228449000Y74731572D01*
X228449000Y74969667D01*
X228401380Y75160143D01*
X228353761Y75255381D01*
X228306142Y75303000D01*
X228210904Y75350620D01*
X227020428Y75017286D02*
X227020428Y74350620D01*
X227449000Y75017286D02*
X227449000Y74493477D01*
X227401380Y74398239D01*
X227306142Y74350620D01*
X227163285Y74350620D01*
X227068047Y74398239D01*
X227020428Y74445858D01*
X226210904Y74874429D02*
X226544238Y74874429D01*
X226544238Y74350620D02*
X226544238Y75350620D01*
X226068047Y75350620D01*
X224496619Y75350620D02*
X224687095Y75350620D01*
X224782333Y75303000D01*
X224829952Y75255381D01*
X224925190Y75112524D01*
X224972809Y74922048D01*
X224972809Y74541096D01*
X224925190Y74445858D01*
X224877571Y74398239D01*
X224782333Y74350620D01*
X224591857Y74350620D01*
X224496619Y74398239D01*
X224449000Y74445858D01*
X224401380Y74541096D01*
X224401380Y74779191D01*
X224449000Y74874429D01*
X224496619Y74922048D01*
X224591857Y74969667D01*
X224782333Y74969667D01*
X224877571Y74922048D01*
X224925190Y74874429D01*
X224972809Y74779191D01*
X224068047Y75350620D02*
X223449000Y75350620D01*
X223782333Y74969667D01*
X223639476Y74969667D01*
X223544238Y74922048D01*
X223496619Y74874429D01*
X223449000Y74779191D01*
X223449000Y74541096D01*
X223496619Y74445858D01*
X223544238Y74398239D01*
X223639476Y74350620D01*
X223925190Y74350620D01*
X224020428Y74398239D01*
X224068047Y74445858D01*
X223163285Y75350620D02*
X222829952Y74350620D01*
X222496619Y75350620D01*
X154740285Y106878429D02*
X154597428Y106830810D01*
X154549809Y106783191D01*
X154502190Y106687953D01*
X154502190Y106545096D01*
X154549809Y106449858D01*
X154597428Y106402239D01*
X154692666Y106354620D01*
X155073619Y106354620D01*
X155073619Y107354620D01*
X154740285Y107354620D01*
X154645047Y107307000D01*
X154597428Y107259381D01*
X154549809Y107164143D01*
X154549809Y107068905D01*
X154597428Y106973667D01*
X154645047Y106926048D01*
X154740285Y106878429D01*
X155073619Y106878429D01*
X153645047Y107021286D02*
X153645047Y106354620D01*
X154073619Y107021286D02*
X154073619Y106497477D01*
X154026000Y106402239D01*
X153930761Y106354620D01*
X153787904Y106354620D01*
X153692666Y106402239D01*
X153645047Y106449858D01*
X153168857Y106354620D02*
X153168857Y107021286D01*
X153168857Y106926048D02*
X153121238Y106973667D01*
X153026000Y107021286D01*
X152883142Y107021286D01*
X152787904Y106973667D01*
X152740285Y106878429D01*
X152740285Y106354620D01*
X152740285Y106878429D02*
X152692666Y106973667D01*
X152597428Y107021286D01*
X152454571Y107021286D01*
X152359333Y106973667D01*
X152311714Y106878429D01*
X152311714Y106354620D01*
X151835523Y107021286D02*
X151835523Y106021286D01*
X151835523Y106973667D02*
X151740285Y107021286D01*
X151549809Y107021286D01*
X151454571Y106973667D01*
X151406952Y106926048D01*
X151359333Y106830810D01*
X151359333Y106545096D01*
X151406952Y106449858D01*
X151454571Y106402239D01*
X151549809Y106354620D01*
X151740285Y106354620D01*
X151835523Y106402239D01*
X150549809Y106402239D02*
X150645047Y106354620D01*
X150835523Y106354620D01*
X150930761Y106402239D01*
X150978380Y106497477D01*
X150978380Y106878429D01*
X150930761Y106973667D01*
X150835523Y107021286D01*
X150645047Y107021286D01*
X150549809Y106973667D01*
X150502190Y106878429D01*
X150502190Y106783191D01*
X150978380Y106687953D01*
X150073619Y106354620D02*
X150073619Y107021286D01*
X150073619Y106830810D02*
X150026000Y106926048D01*
X149978380Y106973667D01*
X149883142Y107021286D01*
X149787904Y107021286D01*
X149454571Y106354620D02*
X149454571Y107354620D01*
X149216476Y107354620D01*
X149073619Y107307000D01*
X148978380Y107211762D01*
X148930761Y107116524D01*
X148883142Y106926048D01*
X148883142Y106783191D01*
X148930761Y106592715D01*
X148978380Y106497477D01*
X149073619Y106402239D01*
X149216476Y106354620D01*
X149454571Y106354620D01*
X148026000Y107021286D02*
X148026000Y106354620D01*
X148454571Y107021286D02*
X148454571Y106497477D01*
X148406952Y106402239D01*
X148311714Y106354620D01*
X148168857Y106354620D01*
X148073619Y106402239D01*
X148026000Y106449858D01*
X147549809Y106354620D02*
X147549809Y107021286D01*
X147549809Y107354620D02*
X147597428Y107307000D01*
X147549809Y107259381D01*
X147502190Y107307000D01*
X147549809Y107354620D01*
X147549809Y107259381D01*
X147073619Y107021286D02*
X147073619Y106354620D01*
X147073619Y106926048D02*
X147026000Y106973667D01*
X146930761Y107021286D01*
X146787904Y107021286D01*
X146692666Y106973667D01*
X146645047Y106878429D01*
X146645047Y106354620D01*
X146026000Y106354620D02*
X146121238Y106402239D01*
X146168857Y106449858D01*
X146216476Y106545096D01*
X146216476Y106830810D01*
X146168857Y106926048D01*
X146121238Y106973667D01*
X146026000Y107021286D01*
X145883142Y107021286D01*
X145787904Y106973667D01*
X145740285Y106926048D01*
X145692666Y106830810D01*
X145692666Y106545096D01*
X145740285Y106449858D01*
X145787904Y106402239D01*
X145883142Y106354620D01*
X146026000Y106354620D01*
X145502190Y106259381D02*
X144740285Y106259381D01*
X144168857Y106878429D02*
X144026000Y106830810D01*
X143978380Y106783191D01*
X143930761Y106687953D01*
X143930761Y106545096D01*
X143978380Y106449858D01*
X144026000Y106402239D01*
X144121238Y106354620D01*
X144502190Y106354620D01*
X144502190Y107354620D01*
X144168857Y107354620D01*
X144073619Y107307000D01*
X144026000Y107259381D01*
X143978380Y107164143D01*
X143978380Y107068905D01*
X144026000Y106973667D01*
X144073619Y106926048D01*
X144168857Y106878429D01*
X144502190Y106878429D01*
X143359333Y106354620D02*
X143454571Y106402239D01*
X143502190Y106449858D01*
X143549809Y106545096D01*
X143549809Y106830810D01*
X143502190Y106926048D01*
X143454571Y106973667D01*
X143359333Y107021286D01*
X143216476Y107021286D01*
X143121238Y106973667D01*
X143073619Y106926048D01*
X143026000Y106830810D01*
X143026000Y106545096D01*
X143073619Y106449858D01*
X143121238Y106402239D01*
X143216476Y106354620D01*
X143359333Y106354620D01*
X142597428Y106354620D02*
X142597428Y107354620D01*
X142168857Y106354620D02*
X142168857Y106878429D01*
X142216476Y106973667D01*
X142311714Y107021286D01*
X142454571Y107021286D01*
X142549809Y106973667D01*
X142597428Y106926048D01*
X141692666Y106354620D02*
X141692666Y107021286D01*
X141692666Y106830810D02*
X141645047Y106926048D01*
X141597428Y106973667D01*
X141502190Y107021286D01*
X141406952Y107021286D01*
X141121238Y106402239D02*
X141026000Y106354620D01*
X140835523Y106354620D01*
X140740285Y106402239D01*
X140692666Y106497477D01*
X140692666Y106545096D01*
X140740285Y106640334D01*
X140835523Y106687953D01*
X140978380Y106687953D01*
X141073619Y106735572D01*
X141121238Y106830810D01*
X141121238Y106878429D01*
X141073619Y106973667D01*
X140978380Y107021286D01*
X140835523Y107021286D01*
X140740285Y106973667D01*
X139835523Y106402239D02*
X139930761Y106354620D01*
X140121238Y106354620D01*
X140216476Y106402239D01*
X140264095Y106449858D01*
X140311714Y106545096D01*
X140311714Y106830810D01*
X140264095Y106926048D01*
X140216476Y106973667D01*
X140121238Y107021286D01*
X139930761Y107021286D01*
X139835523Y106973667D01*
X139406952Y106354620D02*
X139406952Y107354620D01*
X138978380Y106354620D02*
X138978380Y106878429D01*
X139026000Y106973667D01*
X139121238Y107021286D01*
X139264095Y107021286D01*
X139359333Y106973667D01*
X139406952Y106926048D01*
X138073619Y106354620D02*
X138073619Y106878429D01*
X138121238Y106973667D01*
X138216476Y107021286D01*
X138406952Y107021286D01*
X138502190Y106973667D01*
X138073619Y106402239D02*
X138168857Y106354620D01*
X138406952Y106354620D01*
X138502190Y106402239D01*
X138549809Y106497477D01*
X138549809Y106592715D01*
X138502190Y106687953D01*
X138406952Y106735572D01*
X138168857Y106735572D01*
X138073619Y106783191D01*
X137597428Y106354620D02*
X137597428Y107354620D01*
X137597428Y106973667D02*
X137502190Y107021286D01*
X137311714Y107021286D01*
X137216476Y106973667D01*
X137168857Y106926048D01*
X137121238Y106830810D01*
X137121238Y106545096D01*
X137168857Y106449858D01*
X137216476Y106402239D01*
X137311714Y106354620D01*
X137502190Y106354620D01*
X137597428Y106402239D01*
X136549809Y106354620D02*
X136645047Y106402239D01*
X136692666Y106497477D01*
X136692666Y107354620D01*
X136026000Y106354620D02*
X136121238Y106402239D01*
X136168857Y106449858D01*
X136216476Y106545096D01*
X136216476Y106830810D01*
X136168857Y106926048D01*
X136121238Y106973667D01*
X136026000Y107021286D01*
X135883142Y107021286D01*
X135787904Y106973667D01*
X135740285Y106926048D01*
X135692666Y106830810D01*
X135692666Y106545096D01*
X135740285Y106449858D01*
X135787904Y106402239D01*
X135883142Y106354620D01*
X136026000Y106354620D01*
X135264095Y107021286D02*
X135264095Y106354620D01*
X135264095Y106926048D02*
X135216476Y106973667D01*
X135121238Y107021286D01*
X134978380Y107021286D01*
X134883142Y106973667D01*
X134835523Y106878429D01*
X134835523Y106354620D01*
X133978380Y106402239D02*
X134073619Y106354620D01*
X134264095Y106354620D01*
X134359333Y106402239D01*
X134406952Y106497477D01*
X134406952Y106878429D01*
X134359333Y106973667D01*
X134264095Y107021286D01*
X134073619Y107021286D01*
X133978380Y106973667D01*
X133930761Y106878429D01*
X133930761Y106783191D01*
X134406952Y106687953D01*
X146430761Y109259620D02*
X146430761Y108450096D01*
X146383142Y108354858D01*
X146335523Y108307239D01*
X146240285Y108259620D01*
X146049809Y108259620D01*
X145954571Y108307239D01*
X145906952Y108354858D01*
X145859333Y108450096D01*
X145859333Y109259620D01*
X145383142Y108926286D02*
X145383142Y108259620D01*
X145383142Y108831048D02*
X145335523Y108878667D01*
X145240285Y108926286D01*
X145097428Y108926286D01*
X145002190Y108878667D01*
X144954571Y108783429D01*
X144954571Y108259620D01*
X144621238Y108926286D02*
X144240285Y108926286D01*
X144478380Y109259620D02*
X144478380Y108402477D01*
X144430761Y108307239D01*
X144335523Y108259620D01*
X144240285Y108259620D01*
X143526000Y108307239D02*
X143621238Y108259620D01*
X143811714Y108259620D01*
X143906952Y108307239D01*
X143954571Y108402477D01*
X143954571Y108783429D01*
X143906952Y108878667D01*
X143811714Y108926286D01*
X143621238Y108926286D01*
X143526000Y108878667D01*
X143478380Y108783429D01*
X143478380Y108688191D01*
X143954571Y108592953D01*
X143049809Y108926286D02*
X143049809Y108259620D01*
X143049809Y108831048D02*
X143002190Y108878667D01*
X142906952Y108926286D01*
X142764095Y108926286D01*
X142668857Y108878667D01*
X142621238Y108783429D01*
X142621238Y108259620D01*
X110824000Y41353667D02*
X111290666Y41353667D01*
X110557333Y41520334D02*
X111057333Y41687000D01*
X111057333Y41253667D01*
X110590666Y41053667D02*
X110590666Y40587000D01*
X111290666Y40887000D01*
X110824000Y40020334D02*
X111290666Y40020334D01*
X110824000Y40320334D02*
X111190666Y40320334D01*
X111257333Y40287000D01*
X111290666Y40220334D01*
X111290666Y40120334D01*
X111257333Y40053667D01*
X111224000Y40020334D01*
X110924000Y39453667D02*
X110924000Y39687000D01*
X111290666Y39687000D02*
X110590666Y39687000D01*
X110590666Y39353667D01*
X117352380Y32424524D02*
X118066666Y32424524D01*
X118209523Y32472143D01*
X118304761Y32567381D01*
X118352380Y32710239D01*
X118352380Y32805477D01*
X118352380Y31948334D02*
X117352380Y31948334D01*
X117352380Y31567381D01*
X117400000Y31472143D01*
X117447619Y31424524D01*
X117542857Y31376905D01*
X117685714Y31376905D01*
X117780952Y31424524D01*
X117828571Y31472143D01*
X117876190Y31567381D01*
X117876190Y31948334D01*
X118352380Y30424524D02*
X118352380Y30995953D01*
X118352380Y30710239D02*
X117352380Y30710239D01*
X117495238Y30805477D01*
X117590476Y30900715D01*
X117638095Y30995953D01*
X117352380Y30091191D02*
X117352380Y29472143D01*
X117733333Y29805477D01*
X117733333Y29662620D01*
X117780952Y29567381D01*
X117828571Y29519762D01*
X117923809Y29472143D01*
X118161904Y29472143D01*
X118257142Y29519762D01*
X118304761Y29567381D01*
X118352380Y29662620D01*
X118352380Y29948334D01*
X118304761Y30043572D01*
X118257142Y30091191D01*
D12*
X116840000Y29845000D02*
X111760000Y29845000D01*
X111760000Y32385000D02*
X116840000Y32385000D01*
X116840000Y32385000D02*
X116840000Y29845000D01*
X111760000Y29845000D02*
X111760000Y32385000D01*
M02*
