G04 #@! TF.GenerationSoftware,KiCad,Pcbnew,(5.99.0-7935-g797175e0f2)*
G04 #@! TF.CreationDate,2021-01-18T22:07:50+01:00*
G04 #@! TF.ProjectId,ardumower mega shield svn,61726475-6d6f-4776-9572-206d65676120,1.4*
G04 #@! TF.SameCoordinates,PXc1c960PY8a12ae0*
G04 #@! TF.FileFunction,Profile,NP*
%FSLAX46Y46*%
G04 Gerber Fmt 4.6, Leading zero omitted, Abs format (unit mm)*
G04 Created by KiCad (PCBNEW (5.99.0-7935-g797175e0f2)) date 2021-01-18 22:07:50*
%MOMM*%
%LPD*%
G01*
G04 APERTURE LIST*
G04 #@! TA.AperFunction,Profile*
%ADD10C,0.150000*%
G04 #@! TD*
G04 APERTURE END LIST*
D10*
X15240000Y0D02*
X15240000Y7620000D01*
X256540000Y7620000D02*
X256540000Y0D01*
X15240000Y114300000D02*
X256540000Y114300000D01*
X186436000Y80264000D02*
X186436000Y74168000D01*
X81788000Y45720000D02*
X79248000Y45720000D01*
X17780000Y0D02*
X254000000Y0D01*
X71120000Y45720000D02*
X79248000Y45720000D01*
X184404000Y72136000D02*
X182880000Y72136000D01*
X0Y114300000D02*
X15240000Y114300000D01*
X182880000Y78740000D02*
X179324000Y78740000D01*
X79248000Y58420000D02*
X81788000Y58420000D01*
X15240000Y7620000D02*
X0Y7620000D01*
X271780000Y114300000D02*
X256540000Y114300000D01*
X182880000Y72136000D02*
X182880000Y78740000D01*
X271780000Y7620000D02*
X271780000Y114300000D01*
X179832000Y80264000D02*
X186436000Y80264000D01*
X186436000Y74168000D02*
X184404000Y72136000D01*
X71120000Y58420000D02*
X71120000Y45720000D01*
X271780000Y7620000D02*
X256540000Y7620000D01*
X179324000Y78740000D02*
X179324000Y79756000D01*
X0Y7620000D02*
X0Y114300000D01*
X15240000Y0D02*
X17780000Y0D01*
X254000000Y0D02*
X256540000Y0D01*
X81788000Y58420000D02*
X81788000Y45720000D01*
X179324000Y79756000D02*
X179832000Y80264000D01*
X71120000Y58420000D02*
X79248000Y58420000D01*
X19446666Y2540000D02*
G75*
G03*
X19446666Y2540000I-1666666J0D01*
G01*
X15280000Y2540000D02*
X20280000Y2540000D01*
X17780000Y5040000D02*
X17780000Y40000D01*
X255666666Y57150000D02*
G75*
G03*
X255666666Y57150000I-1666666J0D01*
G01*
X251500000Y57150000D02*
X256500000Y57150000D01*
X254000000Y59650000D02*
X254000000Y54650000D01*
X19446666Y2540000D02*
G75*
G03*
X19446666Y2540000I-1666666J0D01*
G01*
X15280000Y2540000D02*
X20280000Y2540000D01*
X17780000Y5040000D02*
X17780000Y40000D01*
X137556666Y111760000D02*
G75*
G03*
X137556666Y111760000I-1666666J0D01*
G01*
X133390000Y111760000D02*
X138390000Y111760000D01*
X135890000Y114260000D02*
X135890000Y109260000D01*
X19446666Y57150000D02*
G75*
G03*
X19446666Y57150000I-1666666J0D01*
G01*
X15280000Y57150000D02*
X20280000Y57150000D01*
X17780000Y59650000D02*
X17780000Y54650000D01*
X137556666Y2540000D02*
G75*
G03*
X137556666Y2540000I-1666666J0D01*
G01*
X133390000Y2540000D02*
X138390000Y2540000D01*
X135890000Y5040000D02*
X135890000Y40000D01*
X19446666Y57150000D02*
G75*
G03*
X19446666Y57150000I-1666666J0D01*
G01*
X15280000Y57150000D02*
X20280000Y57150000D01*
X17780000Y59650000D02*
X17780000Y54650000D01*
X19446666Y111760000D02*
G75*
G03*
X19446666Y111760000I-1666666J0D01*
G01*
X15280000Y111760000D02*
X20280000Y111760000D01*
X17780000Y114260000D02*
X17780000Y109260000D01*
X19446666Y111760000D02*
G75*
G03*
X19446666Y111760000I-1666666J0D01*
G01*
X15280000Y111760000D02*
X20280000Y111760000D01*
X17780000Y114260000D02*
X17780000Y109260000D01*
X255666666Y111760000D02*
G75*
G03*
X255666666Y111760000I-1666666J0D01*
G01*
X251500000Y111760000D02*
X256500000Y111760000D01*
X254000000Y114260000D02*
X254000000Y109260000D01*
M02*
