G04 #@! TF.GenerationSoftware,KiCad,Pcbnew,(5.99.0-10517-g2e3860de6f)*
G04 #@! TF.CreationDate,2021-05-06T15:04:50+02:00*
G04 #@! TF.ProjectId,ina169_breakout,696e6131-3639-45f6-9272-65616b6f7574,V1.2*
G04 #@! TF.SameCoordinates,Original*
G04 #@! TF.FileFunction,Legend,Top*
G04 #@! TF.FilePolarity,Positive*
%FSLAX46Y46*%
G04 Gerber Fmt 4.6, Leading zero omitted, Abs format (unit mm)*
G04 Created by KiCad (PCBNEW (5.99.0-10517-g2e3860de6f)) date 2021-05-06 15:04:50*
%MOMM*%
%LPD*%
G01*
G04 APERTURE LIST*
%ADD10C,0.200000*%
%ADD11C,0.500000*%
%ADD12C,0.250000*%
%ADD13C,0.100000*%
%ADD14C,0.125000*%
%ADD15C,0.150000*%
%ADD16C,0.120000*%
%ADD17C,0.010000*%
%ADD18C,2.000000*%
G04 APERTURE END LIST*
D10*
X149799040Y-95361760D02*
X150246080Y-95808800D01*
D11*
X149981920Y-97048320D02*
X149981920Y-96739200D01*
D10*
X149560791Y-95189040D02*
G75*
G03*
X149560791Y-95189040I-168151J0D01*
G01*
D11*
X148112480Y-97109280D02*
X148112480Y-96779840D01*
D10*
X156972000Y-109474000D02*
X156972000Y-96774000D01*
X149098000Y-94742000D02*
G75*
G03*
X147828000Y-96012000I0J-1270000D01*
G01*
X148793200Y-96255840D02*
G75*
G03*
X149890480Y-95361760I101600J995680D01*
G01*
X148356320Y-95351600D02*
X147888960Y-95818960D01*
X147828000Y-96012000D02*
X147828000Y-96591120D01*
X156972000Y-96774000D02*
X154178000Y-96774000D01*
X150368000Y-96012000D02*
G75*
G03*
X149098000Y-94742000I-1270000J0D01*
G01*
X154178000Y-109474000D02*
X156972000Y-109474000D01*
X147828000Y-96591120D02*
X150368000Y-96591120D01*
X150368000Y-96591120D02*
X150368000Y-96012000D01*
X154178000Y-96774000D02*
X154178000Y-109474000D01*
X148954628Y-95189040D02*
G75*
G03*
X148954628Y-95189040I-181748J0D01*
G01*
X148315680Y-95219520D02*
G75*
G03*
X149128480Y-96276160I934720J-121920D01*
G01*
D12*
X141541642Y-96845380D02*
X141208309Y-96369190D01*
X140970214Y-96845380D02*
X140970214Y-95845380D01*
X141351166Y-95845380D01*
X141446404Y-95893000D01*
X141494023Y-95940619D01*
X141541642Y-96035857D01*
X141541642Y-96178714D01*
X141494023Y-96273952D01*
X141446404Y-96321571D01*
X141351166Y-96369190D01*
X140970214Y-96369190D01*
X142113071Y-96845380D02*
X142017833Y-96797761D01*
X141970214Y-96750142D01*
X141922595Y-96654904D01*
X141922595Y-96369190D01*
X141970214Y-96273952D01*
X142017833Y-96226333D01*
X142113071Y-96178714D01*
X142255928Y-96178714D01*
X142351166Y-96226333D01*
X142398785Y-96273952D01*
X142446404Y-96369190D01*
X142446404Y-96654904D01*
X142398785Y-96750142D01*
X142351166Y-96797761D01*
X142255928Y-96845380D01*
X142113071Y-96845380D01*
X142874976Y-96845380D02*
X142874976Y-95845380D01*
X142874976Y-96321571D02*
X143446404Y-96321571D01*
X143446404Y-96845380D02*
X143446404Y-95845380D01*
X143874976Y-96797761D02*
X144017833Y-96845380D01*
X144255928Y-96845380D01*
X144351166Y-96797761D01*
X144398785Y-96750142D01*
X144446404Y-96654904D01*
X144446404Y-96559666D01*
X144398785Y-96464428D01*
X144351166Y-96416809D01*
X144255928Y-96369190D01*
X144065452Y-96321571D01*
X143970214Y-96273952D01*
X143922595Y-96226333D01*
X143874976Y-96131095D01*
X143874976Y-96035857D01*
X143922595Y-95940619D01*
X143970214Y-95893000D01*
X144065452Y-95845380D01*
X144303547Y-95845380D01*
X144446404Y-95893000D01*
D13*
X146301666Y-97416000D02*
X147001666Y-97182666D01*
X146301666Y-96949333D01*
X147001666Y-96716000D02*
X146535000Y-96716000D01*
X146301666Y-96716000D02*
X146335000Y-96749333D01*
X146368333Y-96716000D01*
X146335000Y-96682666D01*
X146301666Y-96716000D01*
X146368333Y-96716000D01*
X146535000Y-96382666D02*
X147001666Y-96382666D01*
X146601666Y-96382666D02*
X146568333Y-96349333D01*
X146535000Y-96282666D01*
X146535000Y-96182666D01*
X146568333Y-96116000D01*
X146635000Y-96082666D01*
X147001666Y-96082666D01*
X146735000Y-95749333D02*
X146735000Y-95216000D01*
X147133571Y-112248190D02*
X147300238Y-112748190D01*
X147466904Y-112248190D01*
X147633571Y-112748190D02*
X147633571Y-112414857D01*
X147633571Y-112248190D02*
X147609761Y-112272000D01*
X147633571Y-112295809D01*
X147657380Y-112272000D01*
X147633571Y-112248190D01*
X147633571Y-112295809D01*
X147871666Y-112414857D02*
X147871666Y-112748190D01*
X147871666Y-112462476D02*
X147895476Y-112438666D01*
X147943095Y-112414857D01*
X148014523Y-112414857D01*
X148062142Y-112438666D01*
X148085952Y-112486285D01*
X148085952Y-112748190D01*
X148324047Y-112557714D02*
X148705000Y-112557714D01*
X150336476Y-94269666D02*
X150312666Y-94245857D01*
X150265047Y-94174428D01*
X150241238Y-94126809D01*
X150217428Y-94055380D01*
X150193619Y-93936333D01*
X150193619Y-93841095D01*
X150217428Y-93722047D01*
X150241238Y-93650619D01*
X150265047Y-93603000D01*
X150312666Y-93531571D01*
X150336476Y-93507761D01*
X150503142Y-93626809D02*
X150526952Y-93603000D01*
X150574571Y-93579190D01*
X150693619Y-93579190D01*
X150741238Y-93603000D01*
X150765047Y-93626809D01*
X150788857Y-93674428D01*
X150788857Y-93722047D01*
X150765047Y-93793476D01*
X150479333Y-94079190D01*
X150788857Y-94079190D01*
X151003142Y-94031571D02*
X151026952Y-94055380D01*
X151003142Y-94079190D01*
X150979333Y-94055380D01*
X151003142Y-94031571D01*
X151003142Y-94079190D01*
X151193619Y-93579190D02*
X151526952Y-93579190D01*
X151312666Y-94079190D01*
X151646000Y-93579190D02*
X151812666Y-94079190D01*
X151979333Y-93579190D01*
X152146000Y-94031571D02*
X152169809Y-94055380D01*
X152146000Y-94079190D01*
X152122190Y-94055380D01*
X152146000Y-94031571D01*
X152146000Y-94079190D01*
X152384095Y-94031571D02*
X152407904Y-94055380D01*
X152384095Y-94079190D01*
X152360285Y-94055380D01*
X152384095Y-94031571D01*
X152384095Y-94079190D01*
X152836476Y-93579190D02*
X152741238Y-93579190D01*
X152693619Y-93603000D01*
X152669809Y-93626809D01*
X152622190Y-93698238D01*
X152598380Y-93793476D01*
X152598380Y-93983952D01*
X152622190Y-94031571D01*
X152646000Y-94055380D01*
X152693619Y-94079190D01*
X152788857Y-94079190D01*
X152836476Y-94055380D01*
X152860285Y-94031571D01*
X152884095Y-93983952D01*
X152884095Y-93864904D01*
X152860285Y-93817285D01*
X152836476Y-93793476D01*
X152788857Y-93769666D01*
X152693619Y-93769666D01*
X152646000Y-93793476D01*
X152622190Y-93817285D01*
X152598380Y-93864904D01*
X153193619Y-93579190D02*
X153241238Y-93579190D01*
X153288857Y-93603000D01*
X153312666Y-93626809D01*
X153336476Y-93674428D01*
X153360285Y-93769666D01*
X153360285Y-93888714D01*
X153336476Y-93983952D01*
X153312666Y-94031571D01*
X153288857Y-94055380D01*
X153241238Y-94079190D01*
X153193619Y-94079190D01*
X153146000Y-94055380D01*
X153122190Y-94031571D01*
X153098380Y-93983952D01*
X153074571Y-93888714D01*
X153074571Y-93769666D01*
X153098380Y-93674428D01*
X153122190Y-93626809D01*
X153146000Y-93603000D01*
X153193619Y-93579190D01*
X153503142Y-93579190D02*
X153669809Y-94079190D01*
X153836476Y-93579190D01*
X153955523Y-94269666D02*
X153979333Y-94245857D01*
X154026952Y-94174428D01*
X154050761Y-94126809D01*
X154074571Y-94055380D01*
X154098380Y-93936333D01*
X154098380Y-93841095D01*
X154074571Y-93722047D01*
X154050761Y-93650619D01*
X154026952Y-93603000D01*
X153979333Y-93531571D01*
X153955523Y-93507761D01*
X152535000Y-112248190D02*
X152630238Y-112248190D01*
X152677857Y-112272000D01*
X152725476Y-112319619D01*
X152749285Y-112414857D01*
X152749285Y-112581523D01*
X152725476Y-112676761D01*
X152677857Y-112724380D01*
X152630238Y-112748190D01*
X152535000Y-112748190D01*
X152487380Y-112724380D01*
X152439761Y-112676761D01*
X152415952Y-112581523D01*
X152415952Y-112414857D01*
X152439761Y-112319619D01*
X152487380Y-112272000D01*
X152535000Y-112248190D01*
X152963571Y-112248190D02*
X152963571Y-112652952D01*
X152987380Y-112700571D01*
X153011190Y-112724380D01*
X153058809Y-112748190D01*
X153154047Y-112748190D01*
X153201666Y-112724380D01*
X153225476Y-112700571D01*
X153249285Y-112652952D01*
X153249285Y-112248190D01*
X153415952Y-112248190D02*
X153701666Y-112248190D01*
X153558809Y-112748190D02*
X153558809Y-112248190D01*
X153162095Y-95730190D02*
X152995428Y-95492095D01*
X152876380Y-95730190D02*
X152876380Y-95230190D01*
X153066857Y-95230190D01*
X153114476Y-95254000D01*
X153138285Y-95277809D01*
X153162095Y-95325428D01*
X153162095Y-95396857D01*
X153138285Y-95444476D01*
X153114476Y-95468285D01*
X153066857Y-95492095D01*
X152876380Y-95492095D01*
X153614476Y-95730190D02*
X153376380Y-95730190D01*
X153376380Y-95230190D01*
X154424000Y-95730190D02*
X154138285Y-95730190D01*
X154281142Y-95730190D02*
X154281142Y-95230190D01*
X154233523Y-95301619D01*
X154185904Y-95349238D01*
X154138285Y-95373047D01*
X154614476Y-95730190D02*
X154995428Y-95230190D01*
X154685904Y-95230190D02*
X154733523Y-95254000D01*
X154757333Y-95301619D01*
X154733523Y-95349238D01*
X154685904Y-95373047D01*
X154638285Y-95349238D01*
X154614476Y-95301619D01*
X154638285Y-95254000D01*
X154685904Y-95230190D01*
X154971619Y-95706380D02*
X154995428Y-95658761D01*
X154971619Y-95611142D01*
X154924000Y-95587333D01*
X154876380Y-95611142D01*
X154852571Y-95658761D01*
X154876380Y-95706380D01*
X154924000Y-95730190D01*
X154971619Y-95706380D01*
X145034047Y-112272000D02*
X144986428Y-112248190D01*
X144915000Y-112248190D01*
X144843571Y-112272000D01*
X144795952Y-112319619D01*
X144772142Y-112367238D01*
X144748333Y-112462476D01*
X144748333Y-112533904D01*
X144772142Y-112629142D01*
X144795952Y-112676761D01*
X144843571Y-112724380D01*
X144915000Y-112748190D01*
X144962619Y-112748190D01*
X145034047Y-112724380D01*
X145057857Y-112700571D01*
X145057857Y-112533904D01*
X144962619Y-112533904D01*
X145272142Y-112748190D02*
X145272142Y-112248190D01*
X145557857Y-112748190D01*
X145557857Y-112248190D01*
X145795952Y-112748190D02*
X145795952Y-112248190D01*
X145915000Y-112248190D01*
X145986428Y-112272000D01*
X146034047Y-112319619D01*
X146057857Y-112367238D01*
X146081666Y-112462476D01*
X146081666Y-112533904D01*
X146057857Y-112629142D01*
X146034047Y-112676761D01*
X145986428Y-112724380D01*
X145915000Y-112748190D01*
X145795952Y-112748190D01*
X138549404Y-112248190D02*
X138716071Y-112748190D01*
X138882738Y-112248190D01*
X139335119Y-112700571D02*
X139311309Y-112724380D01*
X139239880Y-112748190D01*
X139192261Y-112748190D01*
X139120833Y-112724380D01*
X139073214Y-112676761D01*
X139049404Y-112629142D01*
X139025595Y-112533904D01*
X139025595Y-112462476D01*
X139049404Y-112367238D01*
X139073214Y-112319619D01*
X139120833Y-112272000D01*
X139192261Y-112248190D01*
X139239880Y-112248190D01*
X139311309Y-112272000D01*
X139335119Y-112295809D01*
X139835119Y-112700571D02*
X139811309Y-112724380D01*
X139739880Y-112748190D01*
X139692261Y-112748190D01*
X139620833Y-112724380D01*
X139573214Y-112676761D01*
X139549404Y-112629142D01*
X139525595Y-112533904D01*
X139525595Y-112462476D01*
X139549404Y-112367238D01*
X139573214Y-112319619D01*
X139620833Y-112272000D01*
X139692261Y-112248190D01*
X139739880Y-112248190D01*
X139811309Y-112272000D01*
X139835119Y-112295809D01*
X140192261Y-112938666D02*
X140168452Y-112914857D01*
X140120833Y-112843428D01*
X140097023Y-112795809D01*
X140073214Y-112724380D01*
X140049404Y-112605333D01*
X140049404Y-112510095D01*
X140073214Y-112391047D01*
X140097023Y-112319619D01*
X140120833Y-112272000D01*
X140168452Y-112200571D01*
X140192261Y-112176761D01*
X140358928Y-112295809D02*
X140382738Y-112272000D01*
X140430357Y-112248190D01*
X140549404Y-112248190D01*
X140597023Y-112272000D01*
X140620833Y-112295809D01*
X140644642Y-112343428D01*
X140644642Y-112391047D01*
X140620833Y-112462476D01*
X140335119Y-112748190D01*
X140644642Y-112748190D01*
X140858928Y-112700571D02*
X140882738Y-112724380D01*
X140858928Y-112748190D01*
X140835119Y-112724380D01*
X140858928Y-112700571D01*
X140858928Y-112748190D01*
X141049404Y-112248190D02*
X141382738Y-112248190D01*
X141168452Y-112748190D01*
X141501785Y-112248190D02*
X141668452Y-112748190D01*
X141835119Y-112248190D01*
X142001785Y-112700571D02*
X142025595Y-112724380D01*
X142001785Y-112748190D01*
X141977976Y-112724380D01*
X142001785Y-112700571D01*
X142001785Y-112748190D01*
X142239880Y-112700571D02*
X142263690Y-112724380D01*
X142239880Y-112748190D01*
X142216071Y-112724380D01*
X142239880Y-112700571D01*
X142239880Y-112748190D01*
X142692261Y-112248190D02*
X142597023Y-112248190D01*
X142549404Y-112272000D01*
X142525595Y-112295809D01*
X142477976Y-112367238D01*
X142454166Y-112462476D01*
X142454166Y-112652952D01*
X142477976Y-112700571D01*
X142501785Y-112724380D01*
X142549404Y-112748190D01*
X142644642Y-112748190D01*
X142692261Y-112724380D01*
X142716071Y-112700571D01*
X142739880Y-112652952D01*
X142739880Y-112533904D01*
X142716071Y-112486285D01*
X142692261Y-112462476D01*
X142644642Y-112438666D01*
X142549404Y-112438666D01*
X142501785Y-112462476D01*
X142477976Y-112486285D01*
X142454166Y-112533904D01*
X143049404Y-112248190D02*
X143097023Y-112248190D01*
X143144642Y-112272000D01*
X143168452Y-112295809D01*
X143192261Y-112343428D01*
X143216071Y-112438666D01*
X143216071Y-112557714D01*
X143192261Y-112652952D01*
X143168452Y-112700571D01*
X143144642Y-112724380D01*
X143097023Y-112748190D01*
X143049404Y-112748190D01*
X143001785Y-112724380D01*
X142977976Y-112700571D01*
X142954166Y-112652952D01*
X142930357Y-112557714D01*
X142930357Y-112438666D01*
X142954166Y-112343428D01*
X142977976Y-112295809D01*
X143001785Y-112272000D01*
X143049404Y-112248190D01*
X143358928Y-112248190D02*
X143525595Y-112748190D01*
X143692261Y-112248190D01*
X143811309Y-112938666D02*
X143835119Y-112914857D01*
X143882738Y-112843428D01*
X143906547Y-112795809D01*
X143930357Y-112724380D01*
X143954166Y-112605333D01*
X143954166Y-112510095D01*
X143930357Y-112391047D01*
X143906547Y-112319619D01*
X143882738Y-112272000D01*
X143835119Y-112200571D01*
X143811309Y-112176761D01*
X141160952Y-93724357D02*
X141256190Y-94057690D01*
X141351428Y-93819595D01*
X141446666Y-94057690D01*
X141541904Y-93724357D01*
X141684761Y-93724357D02*
X141780000Y-94057690D01*
X141875238Y-93819595D01*
X141970476Y-94057690D01*
X142065714Y-93724357D01*
X142208571Y-93724357D02*
X142303809Y-94057690D01*
X142399047Y-93819595D01*
X142494285Y-94057690D01*
X142589523Y-93724357D01*
X142780000Y-94010071D02*
X142803809Y-94033880D01*
X142780000Y-94057690D01*
X142756190Y-94033880D01*
X142780000Y-94010071D01*
X142780000Y-94057690D01*
X143018095Y-94057690D02*
X143018095Y-93724357D01*
X143018095Y-93771976D02*
X143041904Y-93748166D01*
X143089523Y-93724357D01*
X143160952Y-93724357D01*
X143208571Y-93748166D01*
X143232380Y-93795785D01*
X143232380Y-94057690D01*
X143232380Y-93795785D02*
X143256190Y-93748166D01*
X143303809Y-93724357D01*
X143375238Y-93724357D01*
X143422857Y-93748166D01*
X143446666Y-93795785D01*
X143446666Y-94057690D01*
X143899047Y-94057690D02*
X143899047Y-93795785D01*
X143875238Y-93748166D01*
X143827619Y-93724357D01*
X143732380Y-93724357D01*
X143684761Y-93748166D01*
X143899047Y-94033880D02*
X143851428Y-94057690D01*
X143732380Y-94057690D01*
X143684761Y-94033880D01*
X143660952Y-93986261D01*
X143660952Y-93938642D01*
X143684761Y-93891023D01*
X143732380Y-93867214D01*
X143851428Y-93867214D01*
X143899047Y-93843404D01*
X144137142Y-94057690D02*
X144137142Y-93724357D01*
X144137142Y-93819595D02*
X144160952Y-93771976D01*
X144184761Y-93748166D01*
X144232380Y-93724357D01*
X144280000Y-93724357D01*
X144518095Y-94057690D02*
X144470476Y-94033880D01*
X144446666Y-94010071D01*
X144422857Y-93962452D01*
X144422857Y-93819595D01*
X144446666Y-93771976D01*
X144470476Y-93748166D01*
X144518095Y-93724357D01*
X144589523Y-93724357D01*
X144637142Y-93748166D01*
X144660952Y-93771976D01*
X144684761Y-93819595D01*
X144684761Y-93962452D01*
X144660952Y-94010071D01*
X144637142Y-94033880D01*
X144589523Y-94057690D01*
X144518095Y-94057690D01*
X144827619Y-93724357D02*
X145018095Y-93724357D01*
X144899047Y-93557690D02*
X144899047Y-93986261D01*
X144922857Y-94033880D01*
X144970476Y-94057690D01*
X145018095Y-94057690D01*
X145184761Y-94057690D02*
X145184761Y-93724357D01*
X145184761Y-93819595D02*
X145208571Y-93771976D01*
X145232380Y-93748166D01*
X145280000Y-93724357D01*
X145327619Y-93724357D01*
X145565714Y-94057690D02*
X145518095Y-94033880D01*
X145494285Y-94010071D01*
X145470476Y-93962452D01*
X145470476Y-93819595D01*
X145494285Y-93771976D01*
X145518095Y-93748166D01*
X145565714Y-93724357D01*
X145637142Y-93724357D01*
X145684761Y-93748166D01*
X145708571Y-93771976D01*
X145732380Y-93819595D01*
X145732380Y-93962452D01*
X145708571Y-94010071D01*
X145684761Y-94033880D01*
X145637142Y-94057690D01*
X145565714Y-94057690D01*
X145946666Y-93724357D02*
X145946666Y-94057690D01*
X145946666Y-93771976D02*
X145970476Y-93748166D01*
X146018095Y-93724357D01*
X146089523Y-93724357D01*
X146137142Y-93748166D01*
X146160952Y-93795785D01*
X146160952Y-94057690D01*
X146399047Y-94057690D02*
X146399047Y-93724357D01*
X146399047Y-93557690D02*
X146375238Y-93581500D01*
X146399047Y-93605309D01*
X146422857Y-93581500D01*
X146399047Y-93557690D01*
X146399047Y-93605309D01*
X146851428Y-94033880D02*
X146803809Y-94057690D01*
X146708571Y-94057690D01*
X146660952Y-94033880D01*
X146637142Y-94010071D01*
X146613333Y-93962452D01*
X146613333Y-93819595D01*
X146637142Y-93771976D01*
X146660952Y-93748166D01*
X146708571Y-93724357D01*
X146803809Y-93724357D01*
X146851428Y-93748166D01*
X147041904Y-94033880D02*
X147089523Y-94057690D01*
X147184761Y-94057690D01*
X147232380Y-94033880D01*
X147256190Y-93986261D01*
X147256190Y-93962452D01*
X147232380Y-93914833D01*
X147184761Y-93891023D01*
X147113333Y-93891023D01*
X147065714Y-93867214D01*
X147041904Y-93819595D01*
X147041904Y-93795785D01*
X147065714Y-93748166D01*
X147113333Y-93724357D01*
X147184761Y-93724357D01*
X147232380Y-93748166D01*
X147470476Y-94010071D02*
X147494285Y-94033880D01*
X147470476Y-94057690D01*
X147446666Y-94033880D01*
X147470476Y-94010071D01*
X147470476Y-94057690D01*
X147922857Y-94057690D02*
X147922857Y-93557690D01*
X147922857Y-94033880D02*
X147875238Y-94057690D01*
X147780000Y-94057690D01*
X147732380Y-94033880D01*
X147708571Y-94010071D01*
X147684761Y-93962452D01*
X147684761Y-93819595D01*
X147708571Y-93771976D01*
X147732380Y-93748166D01*
X147780000Y-93724357D01*
X147875238Y-93724357D01*
X147922857Y-93748166D01*
X148351428Y-94033880D02*
X148303809Y-94057690D01*
X148208571Y-94057690D01*
X148160952Y-94033880D01*
X148137142Y-93986261D01*
X148137142Y-93795785D01*
X148160952Y-93748166D01*
X148208571Y-93724357D01*
X148303809Y-93724357D01*
X148351428Y-93748166D01*
X148375238Y-93795785D01*
X148375238Y-93843404D01*
X148137142Y-93891023D01*
X144065714Y-94529357D02*
X144184761Y-94862690D01*
X144303809Y-94529357D01*
X144756190Y-94862690D02*
X144470476Y-94862690D01*
X144613333Y-94862690D02*
X144613333Y-94362690D01*
X144565714Y-94434119D01*
X144518095Y-94481738D01*
X144470476Y-94505547D01*
X144970476Y-94815071D02*
X144994285Y-94838880D01*
X144970476Y-94862690D01*
X144946666Y-94838880D01*
X144970476Y-94815071D01*
X144970476Y-94862690D01*
X145184761Y-94410309D02*
X145208571Y-94386500D01*
X145256190Y-94362690D01*
X145375238Y-94362690D01*
X145422857Y-94386500D01*
X145446666Y-94410309D01*
X145470476Y-94457928D01*
X145470476Y-94505547D01*
X145446666Y-94576976D01*
X145160952Y-94862690D01*
X145470476Y-94862690D01*
X151381666Y-97416000D02*
X152081666Y-97182666D01*
X151381666Y-96949333D01*
X152081666Y-96716000D02*
X151615000Y-96716000D01*
X151381666Y-96716000D02*
X151415000Y-96749333D01*
X151448333Y-96716000D01*
X151415000Y-96682666D01*
X151381666Y-96716000D01*
X151448333Y-96716000D01*
X151615000Y-96382666D02*
X152081666Y-96382666D01*
X151681666Y-96382666D02*
X151648333Y-96349333D01*
X151615000Y-96282666D01*
X151615000Y-96182666D01*
X151648333Y-96116000D01*
X151715000Y-96082666D01*
X152081666Y-96082666D01*
X151815000Y-95749333D02*
X151815000Y-95216000D01*
X152081666Y-95482666D02*
X151548333Y-95482666D01*
X149673571Y-112248190D02*
X149840238Y-112748190D01*
X150006904Y-112248190D01*
X150173571Y-112748190D02*
X150173571Y-112414857D01*
X150173571Y-112248190D02*
X150149761Y-112272000D01*
X150173571Y-112295809D01*
X150197380Y-112272000D01*
X150173571Y-112248190D01*
X150173571Y-112295809D01*
X150411666Y-112414857D02*
X150411666Y-112748190D01*
X150411666Y-112462476D02*
X150435476Y-112438666D01*
X150483095Y-112414857D01*
X150554523Y-112414857D01*
X150602142Y-112438666D01*
X150625952Y-112486285D01*
X150625952Y-112748190D01*
X150864047Y-112557714D02*
X151245000Y-112557714D01*
X151054523Y-112748190D02*
X151054523Y-112367238D01*
X144713047Y-97770190D02*
X144879714Y-98270190D01*
X145046380Y-97770190D01*
X145284476Y-98270190D02*
X145236857Y-98246380D01*
X145213047Y-98222571D01*
X145189238Y-98174952D01*
X145189238Y-98032095D01*
X145213047Y-97984476D01*
X145236857Y-97960666D01*
X145284476Y-97936857D01*
X145355904Y-97936857D01*
X145403523Y-97960666D01*
X145427333Y-97984476D01*
X145451142Y-98032095D01*
X145451142Y-98174952D01*
X145427333Y-98222571D01*
X145403523Y-98246380D01*
X145355904Y-98270190D01*
X145284476Y-98270190D01*
X145879714Y-97936857D02*
X145879714Y-98270190D01*
X145665428Y-97936857D02*
X145665428Y-98198761D01*
X145689238Y-98246380D01*
X145736857Y-98270190D01*
X145808285Y-98270190D01*
X145855904Y-98246380D01*
X145879714Y-98222571D01*
X146046380Y-97936857D02*
X146236857Y-97936857D01*
X146117809Y-97770190D02*
X146117809Y-98198761D01*
X146141619Y-98246380D01*
X146189238Y-98270190D01*
X146236857Y-98270190D01*
X146403523Y-98008285D02*
X146784476Y-98008285D01*
X146784476Y-98151142D02*
X146403523Y-98151142D01*
X147308285Y-98270190D02*
X147141619Y-98032095D01*
X147022571Y-98270190D02*
X147022571Y-97770190D01*
X147213047Y-97770190D01*
X147260666Y-97794000D01*
X147284476Y-97817809D01*
X147308285Y-97865428D01*
X147308285Y-97936857D01*
X147284476Y-97984476D01*
X147260666Y-98008285D01*
X147213047Y-98032095D01*
X147022571Y-98032095D01*
X147760666Y-98270190D02*
X147522571Y-98270190D01*
X147522571Y-97770190D01*
X148284476Y-97746380D02*
X147855904Y-98389238D01*
X148713047Y-98270190D02*
X148427333Y-98270190D01*
X148570190Y-98270190D02*
X148570190Y-97770190D01*
X148522571Y-97841619D01*
X148474952Y-97889238D01*
X148427333Y-97913047D01*
X149022571Y-97770190D02*
X149070190Y-97770190D01*
X149117809Y-97794000D01*
X149141619Y-97817809D01*
X149165428Y-97865428D01*
X149189238Y-97960666D01*
X149189238Y-98079714D01*
X149165428Y-98174952D01*
X149141619Y-98222571D01*
X149117809Y-98246380D01*
X149070190Y-98270190D01*
X149022571Y-98270190D01*
X148974952Y-98246380D01*
X148951142Y-98222571D01*
X148927333Y-98174952D01*
X148903523Y-98079714D01*
X148903523Y-97960666D01*
X148927333Y-97865428D01*
X148951142Y-97817809D01*
X148974952Y-97794000D01*
X149022571Y-97770190D01*
X149403523Y-98270190D02*
X149403523Y-97770190D01*
X149689238Y-98270190D02*
X149474952Y-97984476D01*
X149689238Y-97770190D02*
X149403523Y-98055904D01*
X149974952Y-97770190D02*
X149974952Y-97889238D01*
X149855904Y-97841619D02*
X149974952Y-97889238D01*
X150094000Y-97841619D01*
X149903523Y-97984476D02*
X149974952Y-97889238D01*
X150046380Y-97984476D01*
X150284476Y-98270190D02*
X150284476Y-97770190D01*
X150665428Y-98460666D02*
X150641619Y-98436857D01*
X150594000Y-98365428D01*
X150570190Y-98317809D01*
X150546380Y-98246380D01*
X150522571Y-98127333D01*
X150522571Y-98032095D01*
X150546380Y-97913047D01*
X150570190Y-97841619D01*
X150594000Y-97794000D01*
X150641619Y-97722571D01*
X150665428Y-97698761D01*
X150832095Y-98127333D02*
X151070190Y-98127333D01*
X150784476Y-98270190D02*
X150951142Y-97770190D01*
X151117809Y-98270190D01*
X151284476Y-98270190D02*
X151284476Y-97936857D01*
X151284476Y-97984476D02*
X151308285Y-97960666D01*
X151355904Y-97936857D01*
X151427333Y-97936857D01*
X151474952Y-97960666D01*
X151498761Y-98008285D01*
X151498761Y-98270190D01*
X151498761Y-98008285D02*
X151522571Y-97960666D01*
X151570190Y-97936857D01*
X151641619Y-97936857D01*
X151689238Y-97960666D01*
X151713047Y-98008285D01*
X151713047Y-98270190D01*
X151951142Y-97936857D02*
X151951142Y-98436857D01*
X151951142Y-97960666D02*
X151998761Y-97936857D01*
X152094000Y-97936857D01*
X152141619Y-97960666D01*
X152165428Y-97984476D01*
X152189238Y-98032095D01*
X152189238Y-98174952D01*
X152165428Y-98222571D01*
X152141619Y-98246380D01*
X152094000Y-98270190D01*
X151998761Y-98270190D01*
X151951142Y-98246380D01*
X152379714Y-98246380D02*
X152427333Y-98270190D01*
X152522571Y-98270190D01*
X152570190Y-98246380D01*
X152594000Y-98198761D01*
X152594000Y-98174952D01*
X152570190Y-98127333D01*
X152522571Y-98103523D01*
X152451142Y-98103523D01*
X152403523Y-98079714D01*
X152379714Y-98032095D01*
X152379714Y-98008285D01*
X152403523Y-97960666D01*
X152451142Y-97936857D01*
X152522571Y-97936857D01*
X152570190Y-97960666D01*
X152760666Y-98460666D02*
X152784476Y-98436857D01*
X152832095Y-98365428D01*
X152855904Y-98317809D01*
X152879714Y-98246380D01*
X152903523Y-98127333D01*
X152903523Y-98032095D01*
X152879714Y-97913047D01*
X152855904Y-97841619D01*
X152832095Y-97794000D01*
X152784476Y-97722571D01*
X152760666Y-97698761D01*
X139075333Y-107247500D02*
X139042000Y-107280833D01*
X138942000Y-107314166D01*
X138875333Y-107314166D01*
X138775333Y-107280833D01*
X138708666Y-107214166D01*
X138675333Y-107147500D01*
X138642000Y-107014166D01*
X138642000Y-106914166D01*
X138675333Y-106780833D01*
X138708666Y-106714166D01*
X138775333Y-106647500D01*
X138875333Y-106614166D01*
X138942000Y-106614166D01*
X139042000Y-106647500D01*
X139075333Y-106680833D01*
X139742000Y-107314166D02*
X139342000Y-107314166D01*
X139542000Y-107314166D02*
X139542000Y-106614166D01*
X139475333Y-106714166D01*
X139408666Y-106780833D01*
X139342000Y-106814166D01*
X149235333Y-102678666D02*
X149002000Y-102345333D01*
X148835333Y-102678666D02*
X148835333Y-101978666D01*
X149102000Y-101978666D01*
X149168666Y-102012000D01*
X149202000Y-102045333D01*
X149235333Y-102112000D01*
X149235333Y-102212000D01*
X149202000Y-102278666D01*
X149168666Y-102312000D01*
X149102000Y-102345333D01*
X148835333Y-102345333D01*
X149902000Y-102678666D02*
X149502000Y-102678666D01*
X149702000Y-102678666D02*
X149702000Y-101978666D01*
X149635333Y-102078666D01*
X149568666Y-102145333D01*
X149502000Y-102178666D01*
X157650666Y-105890190D02*
X157484000Y-105652095D01*
X157364952Y-105890190D02*
X157364952Y-105390190D01*
X157555428Y-105390190D01*
X157603047Y-105414000D01*
X157626857Y-105437809D01*
X157650666Y-105485428D01*
X157650666Y-105556857D01*
X157626857Y-105604476D01*
X157603047Y-105628285D01*
X157555428Y-105652095D01*
X157364952Y-105652095D01*
X157841142Y-105437809D02*
X157864952Y-105414000D01*
X157912571Y-105390190D01*
X158031619Y-105390190D01*
X158079238Y-105414000D01*
X158103047Y-105437809D01*
X158126857Y-105485428D01*
X158126857Y-105533047D01*
X158103047Y-105604476D01*
X157817333Y-105890190D01*
X158126857Y-105890190D01*
X157650666Y-100937190D02*
X157484000Y-100699095D01*
X157364952Y-100937190D02*
X157364952Y-100437190D01*
X157555428Y-100437190D01*
X157603047Y-100461000D01*
X157626857Y-100484809D01*
X157650666Y-100532428D01*
X157650666Y-100603857D01*
X157626857Y-100651476D01*
X157603047Y-100675285D01*
X157555428Y-100699095D01*
X157364952Y-100699095D01*
X157817333Y-100437190D02*
X158126857Y-100437190D01*
X157960190Y-100627666D01*
X158031619Y-100627666D01*
X158079238Y-100651476D01*
X158103047Y-100675285D01*
X158126857Y-100722904D01*
X158126857Y-100841952D01*
X158103047Y-100889571D01*
X158079238Y-100913380D01*
X158031619Y-100937190D01*
X157888761Y-100937190D01*
X157841142Y-100913380D01*
X157817333Y-100889571D01*
X139928666Y-98168666D02*
X139928666Y-98735333D01*
X139962000Y-98802000D01*
X139995333Y-98835333D01*
X140062000Y-98868666D01*
X140195333Y-98868666D01*
X140262000Y-98835333D01*
X140295333Y-98802000D01*
X140328666Y-98735333D01*
X140328666Y-98168666D01*
X141028666Y-98868666D02*
X140628666Y-98868666D01*
X140828666Y-98868666D02*
X140828666Y-98168666D01*
X140762000Y-98268666D01*
X140695333Y-98335333D01*
X140628666Y-98368666D01*
X138113097Y-93137778D02*
X138113097Y-92537778D01*
X138398812Y-93137778D02*
X138398812Y-92537778D01*
X138741669Y-93137778D01*
X138741669Y-92537778D01*
X138998812Y-92966350D02*
X139284526Y-92966350D01*
X138941669Y-93137778D02*
X139141669Y-92537778D01*
X139341669Y-93137778D01*
X139855955Y-93137778D02*
X139513097Y-93137778D01*
X139684526Y-93137778D02*
X139684526Y-92537778D01*
X139627383Y-92623492D01*
X139570240Y-92680635D01*
X139513097Y-92709207D01*
X140370240Y-92537778D02*
X140255955Y-92537778D01*
X140198812Y-92566350D01*
X140170240Y-92594921D01*
X140113097Y-92680635D01*
X140084526Y-92794921D01*
X140084526Y-93023492D01*
X140113097Y-93080635D01*
X140141669Y-93109207D01*
X140198812Y-93137778D01*
X140313097Y-93137778D01*
X140370240Y-93109207D01*
X140398812Y-93080635D01*
X140427383Y-93023492D01*
X140427383Y-92880635D01*
X140398812Y-92823492D01*
X140370240Y-92794921D01*
X140313097Y-92766350D01*
X140198812Y-92766350D01*
X140141669Y-92794921D01*
X140113097Y-92823492D01*
X140084526Y-92880635D01*
X140713097Y-93137778D02*
X140827383Y-93137778D01*
X140884526Y-93109207D01*
X140913097Y-93080635D01*
X140970240Y-92994921D01*
X140998812Y-92880635D01*
X140998812Y-92652064D01*
X140970240Y-92594921D01*
X140941669Y-92566350D01*
X140884526Y-92537778D01*
X140770240Y-92537778D01*
X140713097Y-92566350D01*
X140684526Y-92594921D01*
X140655955Y-92652064D01*
X140655955Y-92794921D01*
X140684526Y-92852064D01*
X140713097Y-92880635D01*
X140770240Y-92909207D01*
X140884526Y-92909207D01*
X140941669Y-92880635D01*
X140970240Y-92852064D01*
X140998812Y-92794921D01*
X141913097Y-92823492D02*
X141998812Y-92852064D01*
X142027383Y-92880635D01*
X142055955Y-92937778D01*
X142055955Y-93023492D01*
X142027383Y-93080635D01*
X141998812Y-93109207D01*
X141941669Y-93137778D01*
X141713097Y-93137778D01*
X141713097Y-92537778D01*
X141913097Y-92537778D01*
X141970240Y-92566350D01*
X141998812Y-92594921D01*
X142027383Y-92652064D01*
X142027383Y-92709207D01*
X141998812Y-92766350D01*
X141970240Y-92794921D01*
X141913097Y-92823492D01*
X141713097Y-92823492D01*
X142313097Y-93137778D02*
X142313097Y-92737778D01*
X142313097Y-92852064D02*
X142341669Y-92794921D01*
X142370240Y-92766350D01*
X142427383Y-92737778D01*
X142484526Y-92737778D01*
X142913097Y-93109207D02*
X142855955Y-93137778D01*
X142741669Y-93137778D01*
X142684526Y-93109207D01*
X142655955Y-93052064D01*
X142655955Y-92823492D01*
X142684526Y-92766350D01*
X142741669Y-92737778D01*
X142855955Y-92737778D01*
X142913097Y-92766350D01*
X142941669Y-92823492D01*
X142941669Y-92880635D01*
X142655955Y-92937778D01*
X143455955Y-93137778D02*
X143455955Y-92823492D01*
X143427383Y-92766350D01*
X143370240Y-92737778D01*
X143255955Y-92737778D01*
X143198812Y-92766350D01*
X143455955Y-93109207D02*
X143398812Y-93137778D01*
X143255955Y-93137778D01*
X143198812Y-93109207D01*
X143170240Y-93052064D01*
X143170240Y-92994921D01*
X143198812Y-92937778D01*
X143255955Y-92909207D01*
X143398812Y-92909207D01*
X143455955Y-92880635D01*
X143741669Y-93137778D02*
X143741669Y-92537778D01*
X143798812Y-92909207D02*
X143970240Y-93137778D01*
X143970240Y-92737778D02*
X143741669Y-92966350D01*
X144313097Y-93137778D02*
X144255955Y-93109207D01*
X144227383Y-93080635D01*
X144198812Y-93023492D01*
X144198812Y-92852064D01*
X144227383Y-92794921D01*
X144255955Y-92766350D01*
X144313097Y-92737778D01*
X144398812Y-92737778D01*
X144455955Y-92766350D01*
X144484526Y-92794921D01*
X144513097Y-92852064D01*
X144513097Y-93023492D01*
X144484526Y-93080635D01*
X144455955Y-93109207D01*
X144398812Y-93137778D01*
X144313097Y-93137778D01*
X145027383Y-92737778D02*
X145027383Y-93137778D01*
X144770240Y-92737778D02*
X144770240Y-93052064D01*
X144798812Y-93109207D01*
X144855955Y-93137778D01*
X144941669Y-93137778D01*
X144998812Y-93109207D01*
X145027383Y-93080635D01*
X145227383Y-92737778D02*
X145455955Y-92737778D01*
X145313097Y-92537778D02*
X145313097Y-93052064D01*
X145341669Y-93109207D01*
X145398812Y-93137778D01*
X145455955Y-93137778D01*
X146084526Y-92594921D02*
X146113097Y-92566350D01*
X146170240Y-92537778D01*
X146313097Y-92537778D01*
X146370240Y-92566350D01*
X146398812Y-92594921D01*
X146427383Y-92652064D01*
X146427383Y-92709207D01*
X146398812Y-92794921D01*
X146055955Y-93137778D01*
X146427383Y-93137778D01*
X146713097Y-93109207D02*
X146713097Y-93137778D01*
X146684526Y-93194921D01*
X146655955Y-93223492D01*
X147255955Y-92537778D02*
X146970240Y-92537778D01*
X146941669Y-92823492D01*
X146970240Y-92794921D01*
X147027383Y-92766350D01*
X147170240Y-92766350D01*
X147227383Y-92794921D01*
X147255955Y-92823492D01*
X147284526Y-92880635D01*
X147284526Y-93023492D01*
X147255955Y-93080635D01*
X147227383Y-93109207D01*
X147170240Y-93137778D01*
X147027383Y-93137778D01*
X146970240Y-93109207D01*
X146941669Y-93080635D01*
X148427383Y-92509207D02*
X147913097Y-93280635D01*
X149370240Y-92537778D02*
X149084526Y-92537778D01*
X149055955Y-92823492D01*
X149084526Y-92794921D01*
X149141669Y-92766350D01*
X149284526Y-92766350D01*
X149341669Y-92794921D01*
X149370240Y-92823492D01*
X149398812Y-92880635D01*
X149398812Y-93023492D01*
X149370240Y-93080635D01*
X149341669Y-93109207D01*
X149284526Y-93137778D01*
X149141669Y-93137778D01*
X149084526Y-93109207D01*
X149055955Y-93080635D01*
X149627383Y-92966350D02*
X149913097Y-92966350D01*
X149570240Y-93137778D02*
X149770240Y-92537778D01*
X149970240Y-93137778D01*
X150798812Y-93366350D02*
X150770240Y-93337778D01*
X150713097Y-93252064D01*
X150684526Y-93194921D01*
X150655954Y-93109207D01*
X150627383Y-92966350D01*
X150627383Y-92852064D01*
X150655954Y-92709207D01*
X150684526Y-92623492D01*
X150713097Y-92566350D01*
X150770240Y-92480635D01*
X150798812Y-92452064D01*
X150998812Y-93109207D02*
X151055954Y-93137778D01*
X151170240Y-93137778D01*
X151227383Y-93109207D01*
X151255954Y-93052064D01*
X151255954Y-93023492D01*
X151227383Y-92966350D01*
X151170240Y-92937778D01*
X151084526Y-92937778D01*
X151027383Y-92909207D01*
X150998812Y-92852064D01*
X150998812Y-92823492D01*
X151027383Y-92766350D01*
X151084526Y-92737778D01*
X151170240Y-92737778D01*
X151227383Y-92766350D01*
X151513097Y-93137778D02*
X151513097Y-92537778D01*
X151770240Y-93137778D02*
X151770240Y-92823492D01*
X151741669Y-92766350D01*
X151684526Y-92737778D01*
X151598812Y-92737778D01*
X151541669Y-92766350D01*
X151513097Y-92794921D01*
X152141669Y-93137778D02*
X152084526Y-93109207D01*
X152055955Y-93080635D01*
X152027383Y-93023492D01*
X152027383Y-92852064D01*
X152055955Y-92794921D01*
X152084526Y-92766350D01*
X152141669Y-92737778D01*
X152227383Y-92737778D01*
X152284526Y-92766350D01*
X152313097Y-92794921D01*
X152341669Y-92852064D01*
X152341669Y-93023492D01*
X152313097Y-93080635D01*
X152284526Y-93109207D01*
X152227383Y-93137778D01*
X152141669Y-93137778D01*
X152598812Y-93137778D02*
X152598812Y-92737778D01*
X152598812Y-92852064D02*
X152627383Y-92794921D01*
X152655955Y-92766350D01*
X152713097Y-92737778D01*
X152770240Y-92737778D01*
X152884526Y-92737778D02*
X153113097Y-92737778D01*
X152970240Y-92537778D02*
X152970240Y-93052064D01*
X152998812Y-93109207D01*
X153055955Y-93137778D01*
X153113097Y-93137778D01*
X153770240Y-92737778D02*
X153770240Y-93337778D01*
X153770240Y-92766350D02*
X153827383Y-92737778D01*
X153941669Y-92737778D01*
X153998812Y-92766350D01*
X154027383Y-92794921D01*
X154055955Y-92852064D01*
X154055955Y-93023492D01*
X154027383Y-93080635D01*
X153998812Y-93109207D01*
X153941669Y-93137778D01*
X153827383Y-93137778D01*
X153770240Y-93109207D01*
X154570240Y-93137778D02*
X154570240Y-92823492D01*
X154541669Y-92766350D01*
X154484526Y-92737778D01*
X154370240Y-92737778D01*
X154313097Y-92766350D01*
X154570240Y-93109207D02*
X154513097Y-93137778D01*
X154370240Y-93137778D01*
X154313097Y-93109207D01*
X154284526Y-93052064D01*
X154284526Y-92994921D01*
X154313097Y-92937778D01*
X154370240Y-92909207D01*
X154513097Y-92909207D01*
X154570240Y-92880635D01*
X155113097Y-93137778D02*
X155113097Y-92537778D01*
X155113097Y-93109207D02*
X155055955Y-93137778D01*
X154941669Y-93137778D01*
X154884526Y-93109207D01*
X154855955Y-93080635D01*
X154827383Y-93023492D01*
X154827383Y-92852064D01*
X154855955Y-92794921D01*
X154884526Y-92766350D01*
X154941669Y-92737778D01*
X155055955Y-92737778D01*
X155113097Y-92766350D01*
X156027383Y-92537778D02*
X156027383Y-92966350D01*
X155998812Y-93052064D01*
X155941669Y-93109207D01*
X155855955Y-93137778D01*
X155798812Y-93137778D01*
X156313097Y-93137778D02*
X156313097Y-92537778D01*
X156541669Y-92537778D01*
X156598812Y-92566350D01*
X156627383Y-92594921D01*
X156655955Y-92652064D01*
X156655955Y-92737778D01*
X156627383Y-92794921D01*
X156598812Y-92823492D01*
X156541669Y-92852064D01*
X156313097Y-92852064D01*
X157227383Y-93137778D02*
X156884526Y-93137778D01*
X157055955Y-93137778D02*
X157055955Y-92537778D01*
X156998812Y-92623492D01*
X156941669Y-92680635D01*
X156884526Y-92709207D01*
X157427383Y-93366350D02*
X157455955Y-93337778D01*
X157513097Y-93252064D01*
X157541669Y-93194921D01*
X157570240Y-93109207D01*
X157598812Y-92966350D01*
X157598812Y-92852064D01*
X157570240Y-92709207D01*
X157541669Y-92623492D01*
X157513097Y-92566350D01*
X157455955Y-92480635D01*
X157427383Y-92452064D01*
D14*
X158079333Y-102342190D02*
X158079333Y-102699333D01*
X158055523Y-102770761D01*
X158007904Y-102818380D01*
X157936476Y-102842190D01*
X157888857Y-102842190D01*
X158317428Y-102842190D02*
X158317428Y-102342190D01*
X158507904Y-102342190D01*
X158555523Y-102366000D01*
X158579333Y-102389809D01*
X158603142Y-102437428D01*
X158603142Y-102508857D01*
X158579333Y-102556476D01*
X158555523Y-102580285D01*
X158507904Y-102604095D01*
X158317428Y-102604095D01*
X159079333Y-102842190D02*
X158793619Y-102842190D01*
X158936476Y-102842190D02*
X158936476Y-102342190D01*
X158888857Y-102413619D01*
X158841238Y-102461238D01*
X158793619Y-102485047D01*
X158400761Y-103104190D02*
X158162666Y-103104190D01*
X158138857Y-103342285D01*
X158162666Y-103318476D01*
X158210285Y-103294666D01*
X158329333Y-103294666D01*
X158376952Y-103318476D01*
X158400761Y-103342285D01*
X158424571Y-103389904D01*
X158424571Y-103508952D01*
X158400761Y-103556571D01*
X158376952Y-103580380D01*
X158329333Y-103604190D01*
X158210285Y-103604190D01*
X158162666Y-103580380D01*
X158138857Y-103556571D01*
X158615047Y-103461333D02*
X158853142Y-103461333D01*
X158567428Y-103604190D02*
X158734095Y-103104190D01*
X158900761Y-103604190D01*
D15*
X138192000Y-106181000D02*
X140192000Y-106181000D01*
X140192000Y-104131000D02*
X138192000Y-104131000D01*
X146752000Y-103077000D02*
X151952000Y-103077000D01*
X151952000Y-106727000D02*
X146752000Y-106727000D01*
X154900000Y-106164000D02*
X154900000Y-105164000D01*
X156250000Y-105164000D02*
X156250000Y-106164000D01*
X156250000Y-100211000D02*
X156250000Y-101211000D01*
X154900000Y-101211000D02*
X154900000Y-100211000D01*
D16*
X138852000Y-100192000D02*
X138852000Y-102642000D01*
X142072000Y-101992000D02*
X142072000Y-100192000D01*
D15*
X159423100Y-94335600D02*
X159423100Y-93065600D01*
X159423100Y-113385600D02*
X136563100Y-113385600D01*
X159423100Y-113385600D02*
X159423100Y-94335600D01*
X136563100Y-94335600D02*
X136563100Y-91795600D01*
X136563100Y-91795600D02*
X159423100Y-91795600D01*
X136563100Y-94335600D02*
X136563100Y-113385600D01*
X159423100Y-91795600D02*
X159423100Y-94335600D01*
D17*
X145253430Y-103236848D02*
X145252811Y-103323931D01*
X145252811Y-103323931D02*
X144801086Y-103782891D01*
X144801086Y-103782891D02*
X144349361Y-104241852D01*
X144349361Y-104241852D02*
X144349032Y-104452471D01*
X144349032Y-104452471D02*
X144348703Y-104663089D01*
X144348703Y-104663089D02*
X144073610Y-104663089D01*
X144073610Y-104663089D02*
X144066522Y-104716530D01*
X144066522Y-104716530D02*
X144063838Y-104740888D01*
X144063838Y-104740888D02*
X144059313Y-104786759D01*
X144059313Y-104786759D02*
X144053191Y-104851405D01*
X144053191Y-104851405D02*
X144045712Y-104932091D01*
X144045712Y-104932091D02*
X144037119Y-105026081D01*
X144037119Y-105026081D02*
X144027654Y-105130637D01*
X144027654Y-105130637D02*
X144017558Y-105243025D01*
X144017558Y-105243025D02*
X144007074Y-105360507D01*
X144007074Y-105360507D02*
X143996444Y-105480348D01*
X143996444Y-105480348D02*
X143985909Y-105599811D01*
X143985909Y-105599811D02*
X143975713Y-105716159D01*
X143975713Y-105716159D02*
X143966095Y-105826657D01*
X143966095Y-105826657D02*
X143957300Y-105928569D01*
X143957300Y-105928569D02*
X143949568Y-106019158D01*
X143949568Y-106019158D02*
X143943142Y-106095687D01*
X143943142Y-106095687D02*
X143938263Y-106155421D01*
X143938263Y-106155421D02*
X143935175Y-106195624D01*
X143935175Y-106195624D02*
X143934117Y-106213559D01*
X143934117Y-106213559D02*
X143934118Y-106213644D01*
X143934118Y-106213644D02*
X143941827Y-106228035D01*
X143941827Y-106228035D02*
X143964981Y-106257748D01*
X143964981Y-106257748D02*
X144003895Y-106303131D01*
X144003895Y-106303131D02*
X144058884Y-106364529D01*
X144058884Y-106364529D02*
X144130264Y-106442288D01*
X144130264Y-106442288D02*
X144218349Y-106536754D01*
X144218349Y-106536754D02*
X144323454Y-106648272D01*
X144323454Y-106648272D02*
X144445895Y-106777188D01*
X144445895Y-106777188D02*
X144480310Y-106813287D01*
X144480310Y-106813287D02*
X145026137Y-107385416D01*
X145026137Y-107385416D02*
X144937881Y-107473436D01*
X144937881Y-107473436D02*
X144866485Y-107395758D01*
X144866485Y-107395758D02*
X144840366Y-107367686D01*
X144840366Y-107367686D02*
X144799566Y-107324274D01*
X144799566Y-107324274D02*
X144746777Y-107268366D01*
X144746777Y-107268366D02*
X144684691Y-107202808D01*
X144684691Y-107202808D02*
X144616000Y-107130441D01*
X144616000Y-107130441D02*
X144543396Y-107054112D01*
X144543396Y-107054112D02*
X144499960Y-107008524D01*
X144499960Y-107008524D02*
X144418416Y-106923119D01*
X144418416Y-106923119D02*
X144352504Y-106854710D01*
X144352504Y-106854710D02*
X144300544Y-106802053D01*
X144300544Y-106802053D02*
X144260855Y-106763905D01*
X144260855Y-106763905D02*
X144231757Y-106739020D01*
X144231757Y-106739020D02*
X144211569Y-106726156D01*
X144211569Y-106726156D02*
X144198610Y-106724068D01*
X144198610Y-106724068D02*
X144191200Y-106731513D01*
X144191200Y-106731513D02*
X144187658Y-106747246D01*
X144187658Y-106747246D02*
X144186303Y-106770023D01*
X144186303Y-106770023D02*
X144186121Y-106776239D01*
X144186121Y-106776239D02*
X144176703Y-106819061D01*
X144176703Y-106819061D02*
X144153497Y-106870819D01*
X144153497Y-106870819D02*
X144121136Y-106923328D01*
X144121136Y-106923328D02*
X144084252Y-106968403D01*
X144084252Y-106968403D02*
X144069493Y-106982328D01*
X144069493Y-106982328D02*
X143993767Y-107031047D01*
X143993767Y-107031047D02*
X143905308Y-107058306D01*
X143905308Y-107058306D02*
X143827100Y-107064773D01*
X143827100Y-107064773D02*
X143738468Y-107052576D01*
X143738468Y-107052576D02*
X143656612Y-107016813D01*
X143656612Y-107016813D02*
X143584164Y-106958722D01*
X143584164Y-106958722D02*
X143570797Y-106944262D01*
X143570797Y-106944262D02*
X143521918Y-106888733D01*
X143521918Y-106888733D02*
X142676326Y-106888733D01*
X142676326Y-106888733D02*
X142676326Y-107064773D01*
X142676326Y-107064773D02*
X142449990Y-107064773D01*
X142449990Y-107064773D02*
X142449990Y-106982531D01*
X142449990Y-106982531D02*
X142447150Y-106926386D01*
X142447150Y-106926386D02*
X142437607Y-106887416D01*
X142437607Y-106887416D02*
X142426009Y-106866219D01*
X142426009Y-106866219D02*
X142417723Y-106851052D01*
X142417723Y-106851052D02*
X142410627Y-106829062D01*
X142410627Y-106829062D02*
X142404252Y-106796987D01*
X142404252Y-106796987D02*
X142398128Y-106751569D01*
X142398128Y-106751569D02*
X142391784Y-106689548D01*
X142391784Y-106689548D02*
X142384750Y-106607662D01*
X142384750Y-106607662D02*
X142379934Y-106546746D01*
X142379934Y-106546746D02*
X142357839Y-106261343D01*
X142357839Y-106261343D02*
X141815435Y-106810805D01*
X141815435Y-106810805D02*
X141717363Y-106910228D01*
X141717363Y-106910228D02*
X141623216Y-107005815D01*
X141623216Y-107005815D02*
X141534715Y-107095810D01*
X141534715Y-107095810D02*
X141453580Y-107178457D01*
X141453580Y-107178457D02*
X141381531Y-107252001D01*
X141381531Y-107252001D02*
X141320288Y-107314684D01*
X141320288Y-107314684D02*
X141271573Y-107364752D01*
X141271573Y-107364752D02*
X141237104Y-107400448D01*
X141237104Y-107400448D02*
X141218621Y-107419995D01*
X141218621Y-107419995D02*
X141188257Y-107450944D01*
X141188257Y-107450944D02*
X141162929Y-107472530D01*
X141162929Y-107472530D02*
X141149305Y-107479723D01*
X141149305Y-107479723D02*
X141131905Y-107471297D01*
X141131905Y-107471297D02*
X141106540Y-107450245D01*
X141106540Y-107450245D02*
X141097942Y-107441671D01*
X141097942Y-107441671D02*
X141061486Y-107403620D01*
X141061486Y-107403620D02*
X141262198Y-107199658D01*
X141262198Y-107199658D02*
X141313404Y-107147699D01*
X141313404Y-107147699D02*
X141379431Y-107080820D01*
X141379431Y-107080820D02*
X141457382Y-107001950D01*
X141457382Y-107001950D02*
X141544362Y-106914014D01*
X141544362Y-106914014D02*
X141637474Y-106819941D01*
X141637474Y-106819941D02*
X141733821Y-106722658D01*
X141733821Y-106722658D02*
X141830508Y-106625093D01*
X141830508Y-106625093D02*
X141899866Y-106555145D01*
X141899866Y-106555145D02*
X142005297Y-106448550D01*
X142005297Y-106448550D02*
X142093871Y-106358307D01*
X142093871Y-106358307D02*
X142166719Y-106283192D01*
X142166719Y-106283192D02*
X142224977Y-106221986D01*
X142224977Y-106221986D02*
X142269775Y-106173466D01*
X142269775Y-106173466D02*
X142291979Y-106148129D01*
X142291979Y-106148129D02*
X142470276Y-106148129D01*
X142470276Y-106148129D02*
X142492599Y-106433555D01*
X142492599Y-106433555D02*
X142499331Y-106517219D01*
X142499331Y-106517219D02*
X142505843Y-106593727D01*
X142505843Y-106593727D02*
X142511766Y-106659081D01*
X142511766Y-106659081D02*
X142516732Y-106709281D01*
X142516732Y-106709281D02*
X142520371Y-106740329D01*
X142520371Y-106740329D02*
X142521542Y-106747273D01*
X142521542Y-106747273D02*
X142528162Y-106775565D01*
X142528162Y-106775565D02*
X143477636Y-106775565D01*
X143477636Y-106775565D02*
X143483974Y-106696606D01*
X143483974Y-106696606D02*
X143503110Y-106603315D01*
X143503110Y-106603315D02*
X143543154Y-106520791D01*
X143543154Y-106520791D02*
X143601582Y-106452038D01*
X143601582Y-106452038D02*
X143675871Y-106400063D01*
X143675871Y-106400063D02*
X143759252Y-106368863D01*
X143759252Y-106368863D02*
X143786302Y-106354228D01*
X143786302Y-106354228D02*
X143799844Y-106322819D01*
X143799844Y-106322819D02*
X143800128Y-106321434D01*
X143800128Y-106321434D02*
X143801753Y-106308174D01*
X143801753Y-106308174D02*
X143799744Y-106294595D01*
X143799744Y-106294595D02*
X143792142Y-106278181D01*
X143792142Y-106278181D02*
X143776984Y-106256411D01*
X143776984Y-106256411D02*
X143752312Y-106226767D01*
X143752312Y-106226767D02*
X143716164Y-106186732D01*
X143716164Y-106186732D02*
X143666580Y-106133785D01*
X143666580Y-106133785D02*
X143601599Y-106065409D01*
X143601599Y-106065409D02*
X143597401Y-106061005D01*
X143597401Y-106061005D02*
X143527507Y-105987611D01*
X143527507Y-105987611D02*
X143453200Y-105909437D01*
X143453200Y-105909437D02*
X143379586Y-105831864D01*
X143379586Y-105831864D02*
X143311771Y-105760275D01*
X143311771Y-105760275D02*
X143254860Y-105700051D01*
X143254860Y-105700051D02*
X143242168Y-105686587D01*
X143242168Y-105686587D02*
X143193513Y-105635820D01*
X143193513Y-105635820D02*
X143150291Y-105592375D01*
X143150291Y-105592375D02*
X143115605Y-105559241D01*
X143115605Y-105559241D02*
X143092556Y-105539405D01*
X143092556Y-105539405D02*
X143084818Y-105535046D01*
X143084818Y-105535046D02*
X143073278Y-105544170D01*
X143073278Y-105544170D02*
X143046290Y-105569200D01*
X143046290Y-105569200D02*
X143005979Y-105608052D01*
X143005979Y-105608052D02*
X142954471Y-105658643D01*
X142954471Y-105658643D02*
X142893891Y-105718888D01*
X142893891Y-105718888D02*
X142826364Y-105786704D01*
X142826364Y-105786704D02*
X142771174Y-105842565D01*
X142771174Y-105842565D02*
X142470276Y-106148129D01*
X142470276Y-106148129D02*
X142291979Y-106148129D01*
X142291979Y-106148129D02*
X142302249Y-106136411D01*
X142302249Y-106136411D02*
X142323529Y-106109599D01*
X142323529Y-106109599D02*
X142334749Y-106091808D01*
X142334749Y-106091808D02*
X142337246Y-106083570D01*
X142337246Y-106083570D02*
X142336300Y-106065590D01*
X142336300Y-106065590D02*
X142333427Y-106024892D01*
X142333427Y-106024892D02*
X142328813Y-105963819D01*
X142328813Y-105963819D02*
X142322642Y-105884713D01*
X142322642Y-105884713D02*
X142315102Y-105789914D01*
X142315102Y-105789914D02*
X142306379Y-105681767D01*
X142306379Y-105681767D02*
X142296657Y-105562612D01*
X142296657Y-105562612D02*
X142286124Y-105434791D01*
X142286124Y-105434791D02*
X142277635Y-105332635D01*
X142277635Y-105332635D02*
X142229604Y-104756674D01*
X142229604Y-104756674D02*
X142353195Y-104756674D01*
X142353195Y-104756674D02*
X142353727Y-104769104D01*
X142353727Y-104769104D02*
X142356231Y-104804110D01*
X142356231Y-104804110D02*
X142360504Y-104859215D01*
X142360504Y-104859215D02*
X142366347Y-104931943D01*
X142366347Y-104931943D02*
X142373557Y-105019814D01*
X142373557Y-105019814D02*
X142381934Y-105120351D01*
X142381934Y-105120351D02*
X142391277Y-105231077D01*
X142391277Y-105231077D02*
X142400242Y-105336205D01*
X142400242Y-105336205D02*
X142410398Y-105455483D01*
X142410398Y-105455483D02*
X142419858Y-105568080D01*
X142419858Y-105568080D02*
X142428404Y-105671305D01*
X142428404Y-105671305D02*
X142435821Y-105762473D01*
X142435821Y-105762473D02*
X142441892Y-105838895D01*
X142441892Y-105838895D02*
X142446399Y-105897883D01*
X142446399Y-105897883D02*
X142449127Y-105936749D01*
X142449127Y-105936749D02*
X142449884Y-105951844D01*
X142449884Y-105951844D02*
X142451065Y-105961238D01*
X142451065Y-105961238D02*
X142455744Y-105964966D01*
X142455744Y-105964966D02*
X142465724Y-105961471D01*
X142465724Y-105961471D02*
X142482810Y-105949199D01*
X142482810Y-105949199D02*
X142508804Y-105926594D01*
X142508804Y-105926594D02*
X142545510Y-105892100D01*
X142545510Y-105892100D02*
X142594733Y-105844162D01*
X142594733Y-105844162D02*
X142658274Y-105781224D01*
X142658274Y-105781224D02*
X142725695Y-105713968D01*
X142725695Y-105713968D02*
X143001399Y-105438477D01*
X143001399Y-105438477D02*
X142999467Y-105436406D01*
X142999467Y-105436406D02*
X143181710Y-105436406D01*
X143181710Y-105436406D02*
X143190016Y-105447780D01*
X143190016Y-105447780D02*
X143213267Y-105474563D01*
X143213267Y-105474563D02*
X143249135Y-105514292D01*
X143249135Y-105514292D02*
X143295287Y-105564507D01*
X143295287Y-105564507D02*
X143349394Y-105622746D01*
X143349394Y-105622746D02*
X143409126Y-105686547D01*
X143409126Y-105686547D02*
X143472152Y-105753449D01*
X143472152Y-105753449D02*
X143536142Y-105820990D01*
X143536142Y-105820990D02*
X143598764Y-105886710D01*
X143598764Y-105886710D02*
X143657690Y-105948146D01*
X143657690Y-105948146D02*
X143710588Y-106002837D01*
X143710588Y-106002837D02*
X143755128Y-106048322D01*
X143755128Y-106048322D02*
X143788980Y-106082138D01*
X143788980Y-106082138D02*
X143809812Y-106101826D01*
X143809812Y-106101826D02*
X143815494Y-106105837D01*
X143815494Y-106105837D02*
X143817366Y-106092891D01*
X143817366Y-106092891D02*
X143821254Y-106057134D01*
X143821254Y-106057134D02*
X143826943Y-106000804D01*
X143826943Y-106000804D02*
X143834219Y-105926140D01*
X143834219Y-105926140D02*
X143842869Y-105835380D01*
X143842869Y-105835380D02*
X143852678Y-105730762D01*
X143852678Y-105730762D02*
X143863434Y-105614526D01*
X143863434Y-105614526D02*
X143874921Y-105488908D01*
X143874921Y-105488908D02*
X143884093Y-105387618D01*
X143884093Y-105387618D02*
X143895826Y-105256279D01*
X143895826Y-105256279D02*
X143906665Y-105132552D01*
X143906665Y-105132552D02*
X143916430Y-105018681D01*
X143916430Y-105018681D02*
X143924937Y-104916911D01*
X143924937Y-104916911D02*
X143932005Y-104829487D01*
X143932005Y-104829487D02*
X143937451Y-104758653D01*
X143937451Y-104758653D02*
X143941092Y-104706653D01*
X143941092Y-104706653D02*
X143942747Y-104675732D01*
X143942747Y-104675732D02*
X143942558Y-104667703D01*
X143942558Y-104667703D02*
X143932666Y-104674854D01*
X143932666Y-104674854D02*
X143907476Y-104697841D01*
X143907476Y-104697841D02*
X143869190Y-104734439D01*
X143869190Y-104734439D02*
X143820011Y-104782422D01*
X143820011Y-104782422D02*
X143762139Y-104839566D01*
X143762139Y-104839566D02*
X143697778Y-104903647D01*
X143697778Y-104903647D02*
X143629129Y-104972438D01*
X143629129Y-104972438D02*
X143558395Y-105043716D01*
X143558395Y-105043716D02*
X143487778Y-105115255D01*
X143487778Y-105115255D02*
X143419480Y-105184830D01*
X143419480Y-105184830D02*
X143355704Y-105250217D01*
X143355704Y-105250217D02*
X143298650Y-105309191D01*
X143298650Y-105309191D02*
X143250522Y-105359527D01*
X143250522Y-105359527D02*
X143213522Y-105398999D01*
X143213522Y-105398999D02*
X143189852Y-105425383D01*
X143189852Y-105425383D02*
X143181710Y-105436406D01*
X143181710Y-105436406D02*
X142999467Y-105436406D01*
X142999467Y-105436406D02*
X142898591Y-105328295D01*
X142898591Y-105328295D02*
X142846232Y-105272377D01*
X142846232Y-105272377D02*
X142787465Y-105209948D01*
X142787465Y-105209948D02*
X142724615Y-105143443D01*
X142724615Y-105143443D02*
X142660005Y-105075298D01*
X142660005Y-105075298D02*
X142595958Y-105007948D01*
X142595958Y-105007948D02*
X142534797Y-104943828D01*
X142534797Y-104943828D02*
X142478847Y-104885372D01*
X142478847Y-104885372D02*
X142430430Y-104835018D01*
X142430430Y-104835018D02*
X142391870Y-104795198D01*
X142391870Y-104795198D02*
X142365491Y-104768350D01*
X142365491Y-104768350D02*
X142353616Y-104756908D01*
X142353616Y-104756908D02*
X142353195Y-104756674D01*
X142353195Y-104756674D02*
X142229604Y-104756674D01*
X142229604Y-104756674D02*
X142217599Y-104612726D01*
X142217599Y-104612726D02*
X141617062Y-103981158D01*
X141617062Y-103981158D02*
X141016525Y-103349589D01*
X141016525Y-103349589D02*
X141016966Y-103261315D01*
X141016966Y-103261315D02*
X141017408Y-103173040D01*
X141017408Y-103173040D02*
X141114417Y-103276666D01*
X141114417Y-103276666D02*
X141168709Y-103334463D01*
X141168709Y-103334463D02*
X141232808Y-103402368D01*
X141232808Y-103402368D02*
X141304984Y-103478572D01*
X141304984Y-103478572D02*
X141383508Y-103561269D01*
X141383508Y-103561269D02*
X141466651Y-103648653D01*
X141466651Y-103648653D02*
X141552681Y-103738915D01*
X141552681Y-103738915D02*
X141639870Y-103830250D01*
X141639870Y-103830250D02*
X141726487Y-103920849D01*
X141726487Y-103920849D02*
X141810803Y-104008907D01*
X141810803Y-104008907D02*
X141891088Y-104092615D01*
X141891088Y-104092615D02*
X141965613Y-104170167D01*
X141965613Y-104170167D02*
X142032646Y-104239757D01*
X142032646Y-104239757D02*
X142090459Y-104299576D01*
X142090459Y-104299576D02*
X142137321Y-104347818D01*
X142137321Y-104347818D02*
X142171504Y-104382676D01*
X142171504Y-104382676D02*
X142191276Y-104402343D01*
X142191276Y-104402343D02*
X142195610Y-104406116D01*
X142195610Y-104406116D02*
X142195908Y-104392992D01*
X142195908Y-104392992D02*
X142194269Y-104359389D01*
X142194269Y-104359389D02*
X142190977Y-104309880D01*
X142190977Y-104309880D02*
X142186318Y-104249037D01*
X142186318Y-104249037D02*
X142184318Y-104224732D01*
X142184318Y-104224732D02*
X142169423Y-104046951D01*
X142169423Y-104046951D02*
X142286045Y-104046951D01*
X142286045Y-104046951D02*
X142292066Y-104075243D01*
X142292066Y-104075243D02*
X142295137Y-104097618D01*
X142295137Y-104097618D02*
X142299452Y-104139717D01*
X142299452Y-104139717D02*
X142304512Y-104196178D01*
X142304512Y-104196178D02*
X142309819Y-104261635D01*
X142309819Y-104261635D02*
X142311656Y-104285862D01*
X142311656Y-104285862D02*
X142317073Y-104355421D01*
X142317073Y-104355421D02*
X142322541Y-104420018D01*
X142322541Y-104420018D02*
X142327512Y-104473548D01*
X142327512Y-104473548D02*
X142331439Y-104509910D01*
X142331439Y-104509910D02*
X142332325Y-104516509D01*
X142332325Y-104516509D02*
X142335666Y-104530056D01*
X142335666Y-104530056D02*
X142342899Y-104545914D01*
X142342899Y-104545914D02*
X142355560Y-104565861D01*
X142355560Y-104565861D02*
X142375189Y-104591673D01*
X142375189Y-104591673D02*
X142403322Y-104625129D01*
X142403322Y-104625129D02*
X142441498Y-104668007D01*
X142441498Y-104668007D02*
X142491254Y-104722083D01*
X142491254Y-104722083D02*
X142554129Y-104789136D01*
X142554129Y-104789136D02*
X142631659Y-104870943D01*
X142631659Y-104870943D02*
X142710749Y-104953950D01*
X142710749Y-104953950D02*
X142789436Y-105036094D01*
X142789436Y-105036094D02*
X142862888Y-105112169D01*
X142862888Y-105112169D02*
X142929276Y-105180325D01*
X142929276Y-105180325D02*
X142986773Y-105238712D01*
X142986773Y-105238712D02*
X143033549Y-105285481D01*
X143033549Y-105285481D02*
X143067776Y-105318782D01*
X143067776Y-105318782D02*
X143087627Y-105336767D01*
X143087627Y-105336767D02*
X143091860Y-105339442D01*
X143091860Y-105339442D02*
X143102997Y-105329741D01*
X143102997Y-105329741D02*
X143129029Y-105304441D01*
X143129029Y-105304441D02*
X143167430Y-105266082D01*
X143167430Y-105266082D02*
X143215672Y-105217200D01*
X143215672Y-105217200D02*
X143271230Y-105160334D01*
X143271230Y-105160334D02*
X143311408Y-105118906D01*
X143311408Y-105118906D02*
X143521169Y-104902000D01*
X143521169Y-104902000D02*
X142902663Y-104902000D01*
X142902663Y-104902000D02*
X142902663Y-104663089D01*
X142902663Y-104663089D02*
X143657119Y-104663089D01*
X143657119Y-104663089D02*
X143657119Y-104769542D01*
X143657119Y-104769542D02*
X143795435Y-104631654D01*
X143795435Y-104631654D02*
X143893553Y-104533840D01*
X143893553Y-104533840D02*
X144084643Y-104533840D01*
X144084643Y-104533840D02*
X144086471Y-104549270D01*
X144086471Y-104549270D02*
X144095723Y-104557867D01*
X144095723Y-104557867D02*
X144118050Y-104561613D01*
X144118050Y-104561613D02*
X144159105Y-104562489D01*
X144159105Y-104562489D02*
X144166376Y-104562495D01*
X144166376Y-104562495D02*
X144248109Y-104562495D01*
X144248109Y-104562495D02*
X144248109Y-104343172D01*
X144248109Y-104343172D02*
X144166376Y-104424179D01*
X144166376Y-104424179D02*
X144120270Y-104473428D01*
X144120270Y-104473428D02*
X144092694Y-104511159D01*
X144092694Y-104511159D02*
X144084643Y-104533840D01*
X144084643Y-104533840D02*
X143893553Y-104533840D01*
X143893553Y-104533840D02*
X143933752Y-104493766D01*
X143933752Y-104493766D02*
X143933752Y-104370952D01*
X143933752Y-104370952D02*
X143934137Y-104314450D01*
X143934137Y-104314450D02*
X143935900Y-104278505D01*
X143935900Y-104278505D02*
X143939950Y-104258530D01*
X143939950Y-104258530D02*
X143947199Y-104249937D01*
X143947199Y-104249937D02*
X143958130Y-104248139D01*
X143958130Y-104248139D02*
X143970288Y-104245498D01*
X143970288Y-104245498D02*
X143979273Y-104234912D01*
X143979273Y-104234912D02*
X143986174Y-104212381D01*
X143986174Y-104212381D02*
X143992076Y-104173909D01*
X143992076Y-104173909D02*
X143998065Y-104115498D01*
X143998065Y-104115498D02*
X143999987Y-104094104D01*
X143999987Y-104094104D02*
X144004148Y-104046951D01*
X144004148Y-104046951D02*
X142286045Y-104046951D01*
X142286045Y-104046951D02*
X142169423Y-104046951D01*
X142169423Y-104046951D02*
X142009891Y-104046951D01*
X142009891Y-104046951D02*
X142009891Y-103933782D01*
X142009891Y-103933782D02*
X142077686Y-103933782D01*
X142077686Y-103933782D02*
X142117338Y-103932696D01*
X142117338Y-103932696D02*
X142138884Y-103927454D01*
X142138884Y-103927454D02*
X142141520Y-103924334D01*
X142141520Y-103924334D02*
X142280384Y-103924334D01*
X142280384Y-103924334D02*
X142287692Y-103931462D01*
X142287692Y-103931462D02*
X142313007Y-103933662D01*
X142313007Y-103933662D02*
X142330092Y-103933782D01*
X142330092Y-103933782D02*
X142387119Y-103933782D01*
X142387119Y-103933782D02*
X142599779Y-103933782D01*
X142599779Y-103933782D02*
X144014302Y-103933782D01*
X144014302Y-103933782D02*
X143966458Y-103884786D01*
X143966458Y-103884786D02*
X143892150Y-103824324D01*
X143892150Y-103824324D02*
X143800184Y-103777691D01*
X143800184Y-103777691D02*
X143689002Y-103744249D01*
X143689002Y-103744249D02*
X143578529Y-103725753D01*
X143578529Y-103725753D02*
X143506227Y-103717122D01*
X143506227Y-103717122D02*
X143506227Y-103808040D01*
X143506227Y-103808040D02*
X142927812Y-103808040D01*
X142927812Y-103808040D02*
X142927812Y-103704893D01*
X142927812Y-103704893D02*
X142842935Y-103713496D01*
X142842935Y-103713496D02*
X142783632Y-103720756D01*
X142783632Y-103720756D02*
X142720449Y-103730379D01*
X142720449Y-103730379D02*
X142682614Y-103737252D01*
X142682614Y-103737252D02*
X142607168Y-103752407D01*
X142607168Y-103752407D02*
X142603474Y-103843095D01*
X142603474Y-103843095D02*
X142599779Y-103933782D01*
X142599779Y-103933782D02*
X142387119Y-103933782D01*
X142387119Y-103933782D02*
X142387119Y-103883485D01*
X142387119Y-103883485D02*
X142385456Y-103851976D01*
X142385456Y-103851976D02*
X142381303Y-103834463D01*
X142381303Y-103834463D02*
X142379629Y-103833188D01*
X142379629Y-103833188D02*
X142361013Y-103841254D01*
X142361013Y-103841254D02*
X142333817Y-103860820D01*
X142333817Y-103860820D02*
X142306552Y-103884944D01*
X142306552Y-103884944D02*
X142287733Y-103906682D01*
X142287733Y-103906682D02*
X142286057Y-103909508D01*
X142286057Y-103909508D02*
X142280384Y-103924334D01*
X142280384Y-103924334D02*
X142141520Y-103924334D01*
X142141520Y-103924334D02*
X142149338Y-103915081D01*
X142149338Y-103915081D02*
X142153558Y-103901604D01*
X142153558Y-103901604D02*
X142170781Y-103866627D01*
X142170781Y-103866627D02*
X142203862Y-103824579D01*
X142203862Y-103824579D02*
X142247107Y-103781356D01*
X142247107Y-103781356D02*
X142294826Y-103742854D01*
X142294826Y-103742854D02*
X142326170Y-103722801D01*
X142326170Y-103722801D02*
X142361877Y-103700851D01*
X142361877Y-103700851D02*
X142380181Y-103682411D01*
X142380181Y-103682411D02*
X142386612Y-103660668D01*
X142386612Y-103660668D02*
X142387106Y-103647718D01*
X142387106Y-103647718D02*
X142387106Y-103644575D01*
X142387106Y-103644575D02*
X143028406Y-103644575D01*
X143028406Y-103644575D02*
X143028406Y-103707446D01*
X143028406Y-103707446D02*
X143405633Y-103707446D01*
X143405633Y-103707446D02*
X143405633Y-103644575D01*
X143405633Y-103644575D02*
X143028406Y-103644575D01*
X143028406Y-103644575D02*
X142387106Y-103644575D01*
X142387106Y-103644575D02*
X142387119Y-103606852D01*
X142387119Y-103606852D02*
X142492952Y-103606852D01*
X142492952Y-103606852D02*
X142541645Y-103608029D01*
X142541645Y-103608029D02*
X142579595Y-103611165D01*
X142579595Y-103611165D02*
X142600692Y-103615671D01*
X142600692Y-103615671D02*
X142602977Y-103617495D01*
X142602977Y-103617495D02*
X142616359Y-103620295D01*
X142616359Y-103620295D02*
X142648926Y-103619148D01*
X142648926Y-103619148D02*
X142695084Y-103614393D01*
X142695084Y-103614393D02*
X142726624Y-103610003D01*
X142726624Y-103610003D02*
X142783812Y-103601378D01*
X142783812Y-103601378D02*
X142836114Y-103593591D01*
X142836114Y-103593591D02*
X142875418Y-103587847D01*
X142875418Y-103587847D02*
X142886945Y-103586215D01*
X142886945Y-103586215D02*
X142917063Y-103576888D01*
X142917063Y-103576888D02*
X142927812Y-103562272D01*
X142927812Y-103562272D02*
X142931080Y-103556320D01*
X142931080Y-103556320D02*
X142942770Y-103551778D01*
X142942770Y-103551778D02*
X142965712Y-103548470D01*
X142965712Y-103548470D02*
X143002735Y-103546215D01*
X143002735Y-103546215D02*
X143056668Y-103544834D01*
X143056668Y-103544834D02*
X143130340Y-103544150D01*
X143130340Y-103544150D02*
X143217020Y-103543980D01*
X143217020Y-103543980D02*
X143309529Y-103544077D01*
X143309529Y-103544077D02*
X143379906Y-103544530D01*
X143379906Y-103544530D02*
X143431164Y-103545590D01*
X143431164Y-103545590D02*
X143466320Y-103547503D01*
X143466320Y-103547503D02*
X143488389Y-103550519D01*
X143488389Y-103550519D02*
X143500385Y-103554885D01*
X143500385Y-103554885D02*
X143505324Y-103560849D01*
X143505324Y-103560849D02*
X143506227Y-103567784D01*
X143506227Y-103567784D02*
X143513921Y-103589795D01*
X143513921Y-103589795D02*
X143539121Y-103602321D01*
X143539121Y-103602321D02*
X143585009Y-103606788D01*
X143585009Y-103606788D02*
X143593264Y-103606852D01*
X143593264Y-103606852D02*
X143670973Y-103614868D01*
X143670973Y-103614868D02*
X143759233Y-103636936D01*
X143759233Y-103636936D02*
X143850085Y-103670084D01*
X143850085Y-103670084D02*
X143935570Y-103711339D01*
X143935570Y-103711339D02*
X144007726Y-103757731D01*
X144007726Y-103757731D02*
X144017072Y-103765082D01*
X144017072Y-103765082D02*
X144047533Y-103788998D01*
X144047533Y-103788998D02*
X144065572Y-103798576D01*
X144065572Y-103798576D02*
X144078169Y-103795480D01*
X144078169Y-103795480D02*
X144091100Y-103782704D01*
X144091100Y-103782704D02*
X144129293Y-103757678D01*
X144129293Y-103757678D02*
X144178998Y-103748071D01*
X144178998Y-103748071D02*
X144232524Y-103753067D01*
X144232524Y-103753067D02*
X144282178Y-103771851D01*
X144282178Y-103771851D02*
X144320267Y-103803606D01*
X144320267Y-103803606D02*
X144323025Y-103807297D01*
X144323025Y-103807297D02*
X144351526Y-103866575D01*
X144351526Y-103866575D02*
X144356828Y-103927934D01*
X144356828Y-103927934D02*
X144339518Y-103986427D01*
X144339518Y-103986427D02*
X144300180Y-104037104D01*
X144300180Y-104037104D02*
X144295370Y-104041289D01*
X144295370Y-104041289D02*
X144267440Y-104061167D01*
X144267440Y-104061167D02*
X144239102Y-104069921D01*
X144239102Y-104069921D02*
X144199263Y-104070553D01*
X144199263Y-104070553D02*
X144189311Y-104069992D01*
X144189311Y-104069992D02*
X144150332Y-104068562D01*
X144150332Y-104068562D02*
X144130254Y-104071839D01*
X144130254Y-104071839D02*
X144122985Y-104081728D01*
X144122985Y-104081728D02*
X144122240Y-104090961D01*
X144122240Y-104090961D02*
X144120716Y-104117744D01*
X144120716Y-104117744D02*
X144116935Y-104158025D01*
X144116935Y-104158025D02*
X144114218Y-104182124D01*
X144114218Y-104182124D02*
X144110277Y-104220401D01*
X144110277Y-104220401D02*
X144111916Y-104239996D01*
X144111916Y-104239996D02*
X144121421Y-104247158D01*
X144121421Y-104247158D02*
X144138351Y-104248139D01*
X144138351Y-104248139D02*
X144148392Y-104244901D01*
X144148392Y-104244901D02*
X144164590Y-104234420D01*
X144164590Y-104234420D02*
X144188145Y-104215548D01*
X144188145Y-104215548D02*
X144220257Y-104187135D01*
X144220257Y-104187135D02*
X144262128Y-104148035D01*
X144262128Y-104148035D02*
X144314957Y-104097097D01*
X144314957Y-104097097D02*
X144379945Y-104033173D01*
X144379945Y-104033173D02*
X144458291Y-103955114D01*
X144458291Y-103955114D02*
X144551197Y-103861772D01*
X144551197Y-103861772D02*
X144659863Y-103751998D01*
X144659863Y-103751998D02*
X144712231Y-103698952D01*
X144712231Y-103698952D02*
X145254049Y-103149767D01*
X145254049Y-103149767D02*
X145253430Y-103236848D01*
X145253430Y-103236848D02*
X145253430Y-103236848D01*
G36*
X142323529Y-106109599D02*
G01*
X142334749Y-106091808D01*
X142337246Y-106083570D01*
X142336300Y-106065590D01*
X142333427Y-106024892D01*
X142328813Y-105963819D01*
X142322642Y-105884713D01*
X142315102Y-105789914D01*
X142306379Y-105681767D01*
X142296657Y-105562612D01*
X142286124Y-105434791D01*
X142277635Y-105332635D01*
X142229604Y-104756674D01*
X142353195Y-104756674D01*
X142353727Y-104769104D01*
X142356231Y-104804110D01*
X142360504Y-104859215D01*
X142366347Y-104931943D01*
X142373557Y-105019814D01*
X142381934Y-105120351D01*
X142391277Y-105231077D01*
X142400242Y-105336205D01*
X142410398Y-105455483D01*
X142419858Y-105568080D01*
X142428404Y-105671305D01*
X142435821Y-105762473D01*
X142441892Y-105838895D01*
X142446399Y-105897883D01*
X142449127Y-105936749D01*
X142449884Y-105951844D01*
X142451065Y-105961238D01*
X142455744Y-105964966D01*
X142465724Y-105961471D01*
X142482810Y-105949199D01*
X142508804Y-105926594D01*
X142545510Y-105892100D01*
X142594733Y-105844162D01*
X142658274Y-105781224D01*
X142725695Y-105713968D01*
X143001399Y-105438477D01*
X142999467Y-105436406D01*
X143181710Y-105436406D01*
X143190016Y-105447780D01*
X143213267Y-105474563D01*
X143249135Y-105514292D01*
X143295287Y-105564507D01*
X143349394Y-105622746D01*
X143409126Y-105686547D01*
X143472152Y-105753449D01*
X143536142Y-105820990D01*
X143598764Y-105886710D01*
X143657690Y-105948146D01*
X143710588Y-106002837D01*
X143755128Y-106048322D01*
X143788980Y-106082138D01*
X143809812Y-106101826D01*
X143815494Y-106105837D01*
X143817366Y-106092891D01*
X143821254Y-106057134D01*
X143826943Y-106000804D01*
X143834219Y-105926140D01*
X143842869Y-105835380D01*
X143852678Y-105730762D01*
X143863434Y-105614526D01*
X143874921Y-105488908D01*
X143884093Y-105387618D01*
X143895826Y-105256279D01*
X143906665Y-105132552D01*
X143916430Y-105018681D01*
X143924937Y-104916911D01*
X143932005Y-104829487D01*
X143937451Y-104758653D01*
X143941092Y-104706653D01*
X143942747Y-104675732D01*
X143942558Y-104667703D01*
X143932666Y-104674854D01*
X143907476Y-104697841D01*
X143869190Y-104734439D01*
X143820011Y-104782422D01*
X143762139Y-104839566D01*
X143697778Y-104903647D01*
X143629129Y-104972438D01*
X143558395Y-105043716D01*
X143487778Y-105115255D01*
X143419480Y-105184830D01*
X143355704Y-105250217D01*
X143298650Y-105309191D01*
X143250522Y-105359527D01*
X143213522Y-105398999D01*
X143189852Y-105425383D01*
X143181710Y-105436406D01*
X142999467Y-105436406D01*
X142898591Y-105328295D01*
X142846232Y-105272377D01*
X142787465Y-105209948D01*
X142724615Y-105143443D01*
X142660005Y-105075298D01*
X142595958Y-105007948D01*
X142534797Y-104943828D01*
X142478847Y-104885372D01*
X142430430Y-104835018D01*
X142391870Y-104795198D01*
X142365491Y-104768350D01*
X142353616Y-104756908D01*
X142353195Y-104756674D01*
X142229604Y-104756674D01*
X142217599Y-104612726D01*
X141617062Y-103981158D01*
X141016525Y-103349589D01*
X141016966Y-103261315D01*
X141017408Y-103173040D01*
X141114417Y-103276666D01*
X141168709Y-103334463D01*
X141232808Y-103402368D01*
X141304984Y-103478572D01*
X141383508Y-103561269D01*
X141466651Y-103648653D01*
X141552681Y-103738915D01*
X141639870Y-103830250D01*
X141726487Y-103920849D01*
X141810803Y-104008907D01*
X141891088Y-104092615D01*
X141965613Y-104170167D01*
X142032646Y-104239757D01*
X142090459Y-104299576D01*
X142137321Y-104347818D01*
X142171504Y-104382676D01*
X142191276Y-104402343D01*
X142195610Y-104406116D01*
X142195908Y-104392992D01*
X142194269Y-104359389D01*
X142190977Y-104309880D01*
X142186318Y-104249037D01*
X142184318Y-104224732D01*
X142169423Y-104046951D01*
X142286045Y-104046951D01*
X142292066Y-104075243D01*
X142295137Y-104097618D01*
X142299452Y-104139717D01*
X142304512Y-104196178D01*
X142309819Y-104261635D01*
X142311656Y-104285862D01*
X142317073Y-104355421D01*
X142322541Y-104420018D01*
X142327512Y-104473548D01*
X142331439Y-104509910D01*
X142332325Y-104516509D01*
X142335666Y-104530056D01*
X142342899Y-104545914D01*
X142355560Y-104565861D01*
X142375189Y-104591673D01*
X142403322Y-104625129D01*
X142441498Y-104668007D01*
X142491254Y-104722083D01*
X142554129Y-104789136D01*
X142631659Y-104870943D01*
X142710749Y-104953950D01*
X142789436Y-105036094D01*
X142862888Y-105112169D01*
X142929276Y-105180325D01*
X142986773Y-105238712D01*
X143033549Y-105285481D01*
X143067776Y-105318782D01*
X143087627Y-105336767D01*
X143091860Y-105339442D01*
X143102997Y-105329741D01*
X143129029Y-105304441D01*
X143167430Y-105266082D01*
X143215672Y-105217200D01*
X143271230Y-105160334D01*
X143311408Y-105118906D01*
X143521169Y-104902000D01*
X142902663Y-104902000D01*
X142902663Y-104663089D01*
X143657119Y-104663089D01*
X143657119Y-104769542D01*
X143795435Y-104631654D01*
X143893553Y-104533840D01*
X144084643Y-104533840D01*
X144086471Y-104549270D01*
X144095723Y-104557867D01*
X144118050Y-104561613D01*
X144159105Y-104562489D01*
X144166376Y-104562495D01*
X144248109Y-104562495D01*
X144248109Y-104343172D01*
X144166376Y-104424179D01*
X144120270Y-104473428D01*
X144092694Y-104511159D01*
X144084643Y-104533840D01*
X143893553Y-104533840D01*
X143933752Y-104493766D01*
X143933752Y-104370952D01*
X143934137Y-104314450D01*
X143935900Y-104278505D01*
X143939950Y-104258530D01*
X143947199Y-104249937D01*
X143958130Y-104248139D01*
X143970288Y-104245498D01*
X143979273Y-104234912D01*
X143986174Y-104212381D01*
X143992076Y-104173909D01*
X143998065Y-104115498D01*
X143999987Y-104094104D01*
X144004148Y-104046951D01*
X142286045Y-104046951D01*
X142169423Y-104046951D01*
X142009891Y-104046951D01*
X142009891Y-103933782D01*
X142077686Y-103933782D01*
X142117338Y-103932696D01*
X142138884Y-103927454D01*
X142141520Y-103924334D01*
X142280384Y-103924334D01*
X142287692Y-103931462D01*
X142313007Y-103933662D01*
X142330092Y-103933782D01*
X142387119Y-103933782D01*
X142599779Y-103933782D01*
X144014302Y-103933782D01*
X143966458Y-103884786D01*
X143892150Y-103824324D01*
X143800184Y-103777691D01*
X143689002Y-103744249D01*
X143578529Y-103725753D01*
X143506227Y-103717122D01*
X143506227Y-103808040D01*
X142927812Y-103808040D01*
X142927812Y-103704893D01*
X142842935Y-103713496D01*
X142783632Y-103720756D01*
X142720449Y-103730379D01*
X142682614Y-103737252D01*
X142607168Y-103752407D01*
X142603474Y-103843095D01*
X142599779Y-103933782D01*
X142387119Y-103933782D01*
X142387119Y-103883485D01*
X142385456Y-103851976D01*
X142381303Y-103834463D01*
X142379629Y-103833188D01*
X142361013Y-103841254D01*
X142333817Y-103860820D01*
X142306552Y-103884944D01*
X142287733Y-103906682D01*
X142286057Y-103909508D01*
X142280384Y-103924334D01*
X142141520Y-103924334D01*
X142149338Y-103915081D01*
X142153558Y-103901604D01*
X142170781Y-103866627D01*
X142203862Y-103824579D01*
X142247107Y-103781356D01*
X142294826Y-103742854D01*
X142326170Y-103722801D01*
X142361877Y-103700851D01*
X142380181Y-103682411D01*
X142386612Y-103660668D01*
X142387106Y-103647718D01*
X142387106Y-103644575D01*
X143028406Y-103644575D01*
X143028406Y-103707446D01*
X143405633Y-103707446D01*
X143405633Y-103644575D01*
X143028406Y-103644575D01*
X142387106Y-103644575D01*
X142387119Y-103606852D01*
X142492952Y-103606852D01*
X142541645Y-103608029D01*
X142579595Y-103611165D01*
X142600692Y-103615671D01*
X142602977Y-103617495D01*
X142616359Y-103620295D01*
X142648926Y-103619148D01*
X142695084Y-103614393D01*
X142726624Y-103610003D01*
X142783812Y-103601378D01*
X142836114Y-103593591D01*
X142875418Y-103587847D01*
X142886945Y-103586215D01*
X142917063Y-103576888D01*
X142927812Y-103562272D01*
X142931080Y-103556320D01*
X142942770Y-103551778D01*
X142965712Y-103548470D01*
X143002735Y-103546215D01*
X143056668Y-103544834D01*
X143130340Y-103544150D01*
X143217020Y-103543980D01*
X143309529Y-103544077D01*
X143379906Y-103544530D01*
X143431164Y-103545590D01*
X143466320Y-103547503D01*
X143488389Y-103550519D01*
X143500385Y-103554885D01*
X143505324Y-103560849D01*
X143506227Y-103567784D01*
X143513921Y-103589795D01*
X143539121Y-103602321D01*
X143585009Y-103606788D01*
X143593264Y-103606852D01*
X143670973Y-103614868D01*
X143759233Y-103636936D01*
X143850085Y-103670084D01*
X143935570Y-103711339D01*
X144007726Y-103757731D01*
X144017072Y-103765082D01*
X144047533Y-103788998D01*
X144065572Y-103798576D01*
X144078169Y-103795480D01*
X144091100Y-103782704D01*
X144129293Y-103757678D01*
X144178998Y-103748071D01*
X144232524Y-103753067D01*
X144282178Y-103771851D01*
X144320267Y-103803606D01*
X144323025Y-103807297D01*
X144351526Y-103866575D01*
X144356828Y-103927934D01*
X144339518Y-103986427D01*
X144300180Y-104037104D01*
X144295370Y-104041289D01*
X144267440Y-104061167D01*
X144239102Y-104069921D01*
X144199263Y-104070553D01*
X144189311Y-104069992D01*
X144150332Y-104068562D01*
X144130254Y-104071839D01*
X144122985Y-104081728D01*
X144122240Y-104090961D01*
X144120716Y-104117744D01*
X144116935Y-104158025D01*
X144114218Y-104182124D01*
X144110277Y-104220401D01*
X144111916Y-104239996D01*
X144121421Y-104247158D01*
X144138351Y-104248139D01*
X144148392Y-104244901D01*
X144164590Y-104234420D01*
X144188145Y-104215548D01*
X144220257Y-104187135D01*
X144262128Y-104148035D01*
X144314957Y-104097097D01*
X144379945Y-104033173D01*
X144458291Y-103955114D01*
X144551197Y-103861772D01*
X144659863Y-103751998D01*
X144712231Y-103698952D01*
X145254049Y-103149767D01*
X145253430Y-103236848D01*
X145252811Y-103323931D01*
X144801086Y-103782891D01*
X144349361Y-104241852D01*
X144349032Y-104452471D01*
X144348703Y-104663089D01*
X144073610Y-104663089D01*
X144066522Y-104716530D01*
X144063838Y-104740888D01*
X144059313Y-104786759D01*
X144053191Y-104851405D01*
X144045712Y-104932091D01*
X144037119Y-105026081D01*
X144027654Y-105130637D01*
X144017558Y-105243025D01*
X144007074Y-105360507D01*
X143996444Y-105480348D01*
X143985909Y-105599811D01*
X143975713Y-105716159D01*
X143966095Y-105826657D01*
X143957300Y-105928569D01*
X143949568Y-106019158D01*
X143943142Y-106095687D01*
X143938263Y-106155421D01*
X143935175Y-106195624D01*
X143934117Y-106213559D01*
X143934118Y-106213644D01*
X143941827Y-106228035D01*
X143964981Y-106257748D01*
X144003895Y-106303131D01*
X144058884Y-106364529D01*
X144130264Y-106442288D01*
X144218349Y-106536754D01*
X144323454Y-106648272D01*
X144445895Y-106777188D01*
X144480310Y-106813287D01*
X145026137Y-107385416D01*
X144937881Y-107473436D01*
X144866485Y-107395758D01*
X144840366Y-107367686D01*
X144799566Y-107324274D01*
X144746777Y-107268366D01*
X144684691Y-107202808D01*
X144616000Y-107130441D01*
X144543396Y-107054112D01*
X144499960Y-107008524D01*
X144418416Y-106923119D01*
X144352504Y-106854710D01*
X144300544Y-106802053D01*
X144260855Y-106763905D01*
X144231757Y-106739020D01*
X144211569Y-106726156D01*
X144198610Y-106724068D01*
X144191200Y-106731513D01*
X144187658Y-106747246D01*
X144186303Y-106770023D01*
X144186121Y-106776239D01*
X144176703Y-106819061D01*
X144153497Y-106870819D01*
X144121136Y-106923328D01*
X144084252Y-106968403D01*
X144069493Y-106982328D01*
X143993767Y-107031047D01*
X143905308Y-107058306D01*
X143827100Y-107064773D01*
X143738468Y-107052576D01*
X143656612Y-107016813D01*
X143584164Y-106958722D01*
X143570797Y-106944262D01*
X143521918Y-106888733D01*
X142676326Y-106888733D01*
X142676326Y-107064773D01*
X142449990Y-107064773D01*
X142449990Y-106982531D01*
X142447150Y-106926386D01*
X142437607Y-106887416D01*
X142426009Y-106866219D01*
X142417723Y-106851052D01*
X142410627Y-106829062D01*
X142404252Y-106796987D01*
X142398128Y-106751569D01*
X142391784Y-106689548D01*
X142384750Y-106607662D01*
X142379934Y-106546746D01*
X142357839Y-106261343D01*
X141815435Y-106810805D01*
X141717363Y-106910228D01*
X141623216Y-107005815D01*
X141534715Y-107095810D01*
X141453580Y-107178457D01*
X141381531Y-107252001D01*
X141320288Y-107314684D01*
X141271573Y-107364752D01*
X141237104Y-107400448D01*
X141218621Y-107419995D01*
X141188257Y-107450944D01*
X141162929Y-107472530D01*
X141149305Y-107479723D01*
X141131905Y-107471297D01*
X141106540Y-107450245D01*
X141097942Y-107441671D01*
X141061486Y-107403620D01*
X141262198Y-107199658D01*
X141313404Y-107147699D01*
X141379431Y-107080820D01*
X141457382Y-107001950D01*
X141544362Y-106914014D01*
X141637474Y-106819941D01*
X141733821Y-106722658D01*
X141830508Y-106625093D01*
X141899866Y-106555145D01*
X142005297Y-106448550D01*
X142093871Y-106358307D01*
X142166719Y-106283192D01*
X142224977Y-106221986D01*
X142269775Y-106173466D01*
X142291979Y-106148129D01*
X142470276Y-106148129D01*
X142492599Y-106433555D01*
X142499331Y-106517219D01*
X142505843Y-106593727D01*
X142511766Y-106659081D01*
X142516732Y-106709281D01*
X142520371Y-106740329D01*
X142521542Y-106747273D01*
X142528162Y-106775565D01*
X143477636Y-106775565D01*
X143483974Y-106696606D01*
X143503110Y-106603315D01*
X143543154Y-106520791D01*
X143601582Y-106452038D01*
X143675871Y-106400063D01*
X143759252Y-106368863D01*
X143786302Y-106354228D01*
X143799844Y-106322819D01*
X143800128Y-106321434D01*
X143801753Y-106308174D01*
X143799744Y-106294595D01*
X143792142Y-106278181D01*
X143776984Y-106256411D01*
X143752312Y-106226767D01*
X143716164Y-106186732D01*
X143666580Y-106133785D01*
X143601599Y-106065409D01*
X143597401Y-106061005D01*
X143527507Y-105987611D01*
X143453200Y-105909437D01*
X143379586Y-105831864D01*
X143311771Y-105760275D01*
X143254860Y-105700051D01*
X143242168Y-105686587D01*
X143193513Y-105635820D01*
X143150291Y-105592375D01*
X143115605Y-105559241D01*
X143092556Y-105539405D01*
X143084818Y-105535046D01*
X143073278Y-105544170D01*
X143046290Y-105569200D01*
X143005979Y-105608052D01*
X142954471Y-105658643D01*
X142893891Y-105718888D01*
X142826364Y-105786704D01*
X142771174Y-105842565D01*
X142470276Y-106148129D01*
X142291979Y-106148129D01*
X142302249Y-106136411D01*
X142323529Y-106109599D01*
G37*
X142323529Y-106109599D02*
X142334749Y-106091808D01*
X142337246Y-106083570D01*
X142336300Y-106065590D01*
X142333427Y-106024892D01*
X142328813Y-105963819D01*
X142322642Y-105884713D01*
X142315102Y-105789914D01*
X142306379Y-105681767D01*
X142296657Y-105562612D01*
X142286124Y-105434791D01*
X142277635Y-105332635D01*
X142229604Y-104756674D01*
X142353195Y-104756674D01*
X142353727Y-104769104D01*
X142356231Y-104804110D01*
X142360504Y-104859215D01*
X142366347Y-104931943D01*
X142373557Y-105019814D01*
X142381934Y-105120351D01*
X142391277Y-105231077D01*
X142400242Y-105336205D01*
X142410398Y-105455483D01*
X142419858Y-105568080D01*
X142428404Y-105671305D01*
X142435821Y-105762473D01*
X142441892Y-105838895D01*
X142446399Y-105897883D01*
X142449127Y-105936749D01*
X142449884Y-105951844D01*
X142451065Y-105961238D01*
X142455744Y-105964966D01*
X142465724Y-105961471D01*
X142482810Y-105949199D01*
X142508804Y-105926594D01*
X142545510Y-105892100D01*
X142594733Y-105844162D01*
X142658274Y-105781224D01*
X142725695Y-105713968D01*
X143001399Y-105438477D01*
X142999467Y-105436406D01*
X143181710Y-105436406D01*
X143190016Y-105447780D01*
X143213267Y-105474563D01*
X143249135Y-105514292D01*
X143295287Y-105564507D01*
X143349394Y-105622746D01*
X143409126Y-105686547D01*
X143472152Y-105753449D01*
X143536142Y-105820990D01*
X143598764Y-105886710D01*
X143657690Y-105948146D01*
X143710588Y-106002837D01*
X143755128Y-106048322D01*
X143788980Y-106082138D01*
X143809812Y-106101826D01*
X143815494Y-106105837D01*
X143817366Y-106092891D01*
X143821254Y-106057134D01*
X143826943Y-106000804D01*
X143834219Y-105926140D01*
X143842869Y-105835380D01*
X143852678Y-105730762D01*
X143863434Y-105614526D01*
X143874921Y-105488908D01*
X143884093Y-105387618D01*
X143895826Y-105256279D01*
X143906665Y-105132552D01*
X143916430Y-105018681D01*
X143924937Y-104916911D01*
X143932005Y-104829487D01*
X143937451Y-104758653D01*
X143941092Y-104706653D01*
X143942747Y-104675732D01*
X143942558Y-104667703D01*
X143932666Y-104674854D01*
X143907476Y-104697841D01*
X143869190Y-104734439D01*
X143820011Y-104782422D01*
X143762139Y-104839566D01*
X143697778Y-104903647D01*
X143629129Y-104972438D01*
X143558395Y-105043716D01*
X143487778Y-105115255D01*
X143419480Y-105184830D01*
X143355704Y-105250217D01*
X143298650Y-105309191D01*
X143250522Y-105359527D01*
X143213522Y-105398999D01*
X143189852Y-105425383D01*
X143181710Y-105436406D01*
X142999467Y-105436406D01*
X142898591Y-105328295D01*
X142846232Y-105272377D01*
X142787465Y-105209948D01*
X142724615Y-105143443D01*
X142660005Y-105075298D01*
X142595958Y-105007948D01*
X142534797Y-104943828D01*
X142478847Y-104885372D01*
X142430430Y-104835018D01*
X142391870Y-104795198D01*
X142365491Y-104768350D01*
X142353616Y-104756908D01*
X142353195Y-104756674D01*
X142229604Y-104756674D01*
X142217599Y-104612726D01*
X141617062Y-103981158D01*
X141016525Y-103349589D01*
X141016966Y-103261315D01*
X141017408Y-103173040D01*
X141114417Y-103276666D01*
X141168709Y-103334463D01*
X141232808Y-103402368D01*
X141304984Y-103478572D01*
X141383508Y-103561269D01*
X141466651Y-103648653D01*
X141552681Y-103738915D01*
X141639870Y-103830250D01*
X141726487Y-103920849D01*
X141810803Y-104008907D01*
X141891088Y-104092615D01*
X141965613Y-104170167D01*
X142032646Y-104239757D01*
X142090459Y-104299576D01*
X142137321Y-104347818D01*
X142171504Y-104382676D01*
X142191276Y-104402343D01*
X142195610Y-104406116D01*
X142195908Y-104392992D01*
X142194269Y-104359389D01*
X142190977Y-104309880D01*
X142186318Y-104249037D01*
X142184318Y-104224732D01*
X142169423Y-104046951D01*
X142286045Y-104046951D01*
X142292066Y-104075243D01*
X142295137Y-104097618D01*
X142299452Y-104139717D01*
X142304512Y-104196178D01*
X142309819Y-104261635D01*
X142311656Y-104285862D01*
X142317073Y-104355421D01*
X142322541Y-104420018D01*
X142327512Y-104473548D01*
X142331439Y-104509910D01*
X142332325Y-104516509D01*
X142335666Y-104530056D01*
X142342899Y-104545914D01*
X142355560Y-104565861D01*
X142375189Y-104591673D01*
X142403322Y-104625129D01*
X142441498Y-104668007D01*
X142491254Y-104722083D01*
X142554129Y-104789136D01*
X142631659Y-104870943D01*
X142710749Y-104953950D01*
X142789436Y-105036094D01*
X142862888Y-105112169D01*
X142929276Y-105180325D01*
X142986773Y-105238712D01*
X143033549Y-105285481D01*
X143067776Y-105318782D01*
X143087627Y-105336767D01*
X143091860Y-105339442D01*
X143102997Y-105329741D01*
X143129029Y-105304441D01*
X143167430Y-105266082D01*
X143215672Y-105217200D01*
X143271230Y-105160334D01*
X143311408Y-105118906D01*
X143521169Y-104902000D01*
X142902663Y-104902000D01*
X142902663Y-104663089D01*
X143657119Y-104663089D01*
X143657119Y-104769542D01*
X143795435Y-104631654D01*
X143893553Y-104533840D01*
X144084643Y-104533840D01*
X144086471Y-104549270D01*
X144095723Y-104557867D01*
X144118050Y-104561613D01*
X144159105Y-104562489D01*
X144166376Y-104562495D01*
X144248109Y-104562495D01*
X144248109Y-104343172D01*
X144166376Y-104424179D01*
X144120270Y-104473428D01*
X144092694Y-104511159D01*
X144084643Y-104533840D01*
X143893553Y-104533840D01*
X143933752Y-104493766D01*
X143933752Y-104370952D01*
X143934137Y-104314450D01*
X143935900Y-104278505D01*
X143939950Y-104258530D01*
X143947199Y-104249937D01*
X143958130Y-104248139D01*
X143970288Y-104245498D01*
X143979273Y-104234912D01*
X143986174Y-104212381D01*
X143992076Y-104173909D01*
X143998065Y-104115498D01*
X143999987Y-104094104D01*
X144004148Y-104046951D01*
X142286045Y-104046951D01*
X142169423Y-104046951D01*
X142009891Y-104046951D01*
X142009891Y-103933782D01*
X142077686Y-103933782D01*
X142117338Y-103932696D01*
X142138884Y-103927454D01*
X142141520Y-103924334D01*
X142280384Y-103924334D01*
X142287692Y-103931462D01*
X142313007Y-103933662D01*
X142330092Y-103933782D01*
X142387119Y-103933782D01*
X142599779Y-103933782D01*
X144014302Y-103933782D01*
X143966458Y-103884786D01*
X143892150Y-103824324D01*
X143800184Y-103777691D01*
X143689002Y-103744249D01*
X143578529Y-103725753D01*
X143506227Y-103717122D01*
X143506227Y-103808040D01*
X142927812Y-103808040D01*
X142927812Y-103704893D01*
X142842935Y-103713496D01*
X142783632Y-103720756D01*
X142720449Y-103730379D01*
X142682614Y-103737252D01*
X142607168Y-103752407D01*
X142603474Y-103843095D01*
X142599779Y-103933782D01*
X142387119Y-103933782D01*
X142387119Y-103883485D01*
X142385456Y-103851976D01*
X142381303Y-103834463D01*
X142379629Y-103833188D01*
X142361013Y-103841254D01*
X142333817Y-103860820D01*
X142306552Y-103884944D01*
X142287733Y-103906682D01*
X142286057Y-103909508D01*
X142280384Y-103924334D01*
X142141520Y-103924334D01*
X142149338Y-103915081D01*
X142153558Y-103901604D01*
X142170781Y-103866627D01*
X142203862Y-103824579D01*
X142247107Y-103781356D01*
X142294826Y-103742854D01*
X142326170Y-103722801D01*
X142361877Y-103700851D01*
X142380181Y-103682411D01*
X142386612Y-103660668D01*
X142387106Y-103647718D01*
X142387106Y-103644575D01*
X143028406Y-103644575D01*
X143028406Y-103707446D01*
X143405633Y-103707446D01*
X143405633Y-103644575D01*
X143028406Y-103644575D01*
X142387106Y-103644575D01*
X142387119Y-103606852D01*
X142492952Y-103606852D01*
X142541645Y-103608029D01*
X142579595Y-103611165D01*
X142600692Y-103615671D01*
X142602977Y-103617495D01*
X142616359Y-103620295D01*
X142648926Y-103619148D01*
X142695084Y-103614393D01*
X142726624Y-103610003D01*
X142783812Y-103601378D01*
X142836114Y-103593591D01*
X142875418Y-103587847D01*
X142886945Y-103586215D01*
X142917063Y-103576888D01*
X142927812Y-103562272D01*
X142931080Y-103556320D01*
X142942770Y-103551778D01*
X142965712Y-103548470D01*
X143002735Y-103546215D01*
X143056668Y-103544834D01*
X143130340Y-103544150D01*
X143217020Y-103543980D01*
X143309529Y-103544077D01*
X143379906Y-103544530D01*
X143431164Y-103545590D01*
X143466320Y-103547503D01*
X143488389Y-103550519D01*
X143500385Y-103554885D01*
X143505324Y-103560849D01*
X143506227Y-103567784D01*
X143513921Y-103589795D01*
X143539121Y-103602321D01*
X143585009Y-103606788D01*
X143593264Y-103606852D01*
X143670973Y-103614868D01*
X143759233Y-103636936D01*
X143850085Y-103670084D01*
X143935570Y-103711339D01*
X144007726Y-103757731D01*
X144017072Y-103765082D01*
X144047533Y-103788998D01*
X144065572Y-103798576D01*
X144078169Y-103795480D01*
X144091100Y-103782704D01*
X144129293Y-103757678D01*
X144178998Y-103748071D01*
X144232524Y-103753067D01*
X144282178Y-103771851D01*
X144320267Y-103803606D01*
X144323025Y-103807297D01*
X144351526Y-103866575D01*
X144356828Y-103927934D01*
X144339518Y-103986427D01*
X144300180Y-104037104D01*
X144295370Y-104041289D01*
X144267440Y-104061167D01*
X144239102Y-104069921D01*
X144199263Y-104070553D01*
X144189311Y-104069992D01*
X144150332Y-104068562D01*
X144130254Y-104071839D01*
X144122985Y-104081728D01*
X144122240Y-104090961D01*
X144120716Y-104117744D01*
X144116935Y-104158025D01*
X144114218Y-104182124D01*
X144110277Y-104220401D01*
X144111916Y-104239996D01*
X144121421Y-104247158D01*
X144138351Y-104248139D01*
X144148392Y-104244901D01*
X144164590Y-104234420D01*
X144188145Y-104215548D01*
X144220257Y-104187135D01*
X144262128Y-104148035D01*
X144314957Y-104097097D01*
X144379945Y-104033173D01*
X144458291Y-103955114D01*
X144551197Y-103861772D01*
X144659863Y-103751998D01*
X144712231Y-103698952D01*
X145254049Y-103149767D01*
X145253430Y-103236848D01*
X145252811Y-103323931D01*
X144801086Y-103782891D01*
X144349361Y-104241852D01*
X144349032Y-104452471D01*
X144348703Y-104663089D01*
X144073610Y-104663089D01*
X144066522Y-104716530D01*
X144063838Y-104740888D01*
X144059313Y-104786759D01*
X144053191Y-104851405D01*
X144045712Y-104932091D01*
X144037119Y-105026081D01*
X144027654Y-105130637D01*
X144017558Y-105243025D01*
X144007074Y-105360507D01*
X143996444Y-105480348D01*
X143985909Y-105599811D01*
X143975713Y-105716159D01*
X143966095Y-105826657D01*
X143957300Y-105928569D01*
X143949568Y-106019158D01*
X143943142Y-106095687D01*
X143938263Y-106155421D01*
X143935175Y-106195624D01*
X143934117Y-106213559D01*
X143934118Y-106213644D01*
X143941827Y-106228035D01*
X143964981Y-106257748D01*
X144003895Y-106303131D01*
X144058884Y-106364529D01*
X144130264Y-106442288D01*
X144218349Y-106536754D01*
X144323454Y-106648272D01*
X144445895Y-106777188D01*
X144480310Y-106813287D01*
X145026137Y-107385416D01*
X144937881Y-107473436D01*
X144866485Y-107395758D01*
X144840366Y-107367686D01*
X144799566Y-107324274D01*
X144746777Y-107268366D01*
X144684691Y-107202808D01*
X144616000Y-107130441D01*
X144543396Y-107054112D01*
X144499960Y-107008524D01*
X144418416Y-106923119D01*
X144352504Y-106854710D01*
X144300544Y-106802053D01*
X144260855Y-106763905D01*
X144231757Y-106739020D01*
X144211569Y-106726156D01*
X144198610Y-106724068D01*
X144191200Y-106731513D01*
X144187658Y-106747246D01*
X144186303Y-106770023D01*
X144186121Y-106776239D01*
X144176703Y-106819061D01*
X144153497Y-106870819D01*
X144121136Y-106923328D01*
X144084252Y-106968403D01*
X144069493Y-106982328D01*
X143993767Y-107031047D01*
X143905308Y-107058306D01*
X143827100Y-107064773D01*
X143738468Y-107052576D01*
X143656612Y-107016813D01*
X143584164Y-106958722D01*
X143570797Y-106944262D01*
X143521918Y-106888733D01*
X142676326Y-106888733D01*
X142676326Y-107064773D01*
X142449990Y-107064773D01*
X142449990Y-106982531D01*
X142447150Y-106926386D01*
X142437607Y-106887416D01*
X142426009Y-106866219D01*
X142417723Y-106851052D01*
X142410627Y-106829062D01*
X142404252Y-106796987D01*
X142398128Y-106751569D01*
X142391784Y-106689548D01*
X142384750Y-106607662D01*
X142379934Y-106546746D01*
X142357839Y-106261343D01*
X141815435Y-106810805D01*
X141717363Y-106910228D01*
X141623216Y-107005815D01*
X141534715Y-107095810D01*
X141453580Y-107178457D01*
X141381531Y-107252001D01*
X141320288Y-107314684D01*
X141271573Y-107364752D01*
X141237104Y-107400448D01*
X141218621Y-107419995D01*
X141188257Y-107450944D01*
X141162929Y-107472530D01*
X141149305Y-107479723D01*
X141131905Y-107471297D01*
X141106540Y-107450245D01*
X141097942Y-107441671D01*
X141061486Y-107403620D01*
X141262198Y-107199658D01*
X141313404Y-107147699D01*
X141379431Y-107080820D01*
X141457382Y-107001950D01*
X141544362Y-106914014D01*
X141637474Y-106819941D01*
X141733821Y-106722658D01*
X141830508Y-106625093D01*
X141899866Y-106555145D01*
X142005297Y-106448550D01*
X142093871Y-106358307D01*
X142166719Y-106283192D01*
X142224977Y-106221986D01*
X142269775Y-106173466D01*
X142291979Y-106148129D01*
X142470276Y-106148129D01*
X142492599Y-106433555D01*
X142499331Y-106517219D01*
X142505843Y-106593727D01*
X142511766Y-106659081D01*
X142516732Y-106709281D01*
X142520371Y-106740329D01*
X142521542Y-106747273D01*
X142528162Y-106775565D01*
X143477636Y-106775565D01*
X143483974Y-106696606D01*
X143503110Y-106603315D01*
X143543154Y-106520791D01*
X143601582Y-106452038D01*
X143675871Y-106400063D01*
X143759252Y-106368863D01*
X143786302Y-106354228D01*
X143799844Y-106322819D01*
X143800128Y-106321434D01*
X143801753Y-106308174D01*
X143799744Y-106294595D01*
X143792142Y-106278181D01*
X143776984Y-106256411D01*
X143752312Y-106226767D01*
X143716164Y-106186732D01*
X143666580Y-106133785D01*
X143601599Y-106065409D01*
X143597401Y-106061005D01*
X143527507Y-105987611D01*
X143453200Y-105909437D01*
X143379586Y-105831864D01*
X143311771Y-105760275D01*
X143254860Y-105700051D01*
X143242168Y-105686587D01*
X143193513Y-105635820D01*
X143150291Y-105592375D01*
X143115605Y-105559241D01*
X143092556Y-105539405D01*
X143084818Y-105535046D01*
X143073278Y-105544170D01*
X143046290Y-105569200D01*
X143005979Y-105608052D01*
X142954471Y-105658643D01*
X142893891Y-105718888D01*
X142826364Y-105786704D01*
X142771174Y-105842565D01*
X142470276Y-106148129D01*
X142291979Y-106148129D01*
X142302249Y-106136411D01*
X142323529Y-106109599D01*
X144876822Y-109189822D02*
X141356029Y-109189822D01*
X141356029Y-109189822D02*
X141356029Y-108322198D01*
X141356029Y-108322198D02*
X144876822Y-108322198D01*
X144876822Y-108322198D02*
X144876822Y-109189822D01*
X144876822Y-109189822D02*
X144876822Y-109189822D01*
G36*
X144876822Y-109189822D02*
G01*
X141356029Y-109189822D01*
X141356029Y-108322198D01*
X144876822Y-108322198D01*
X144876822Y-109189822D01*
G37*
X144876822Y-109189822D02*
X141356029Y-109189822D01*
X141356029Y-108322198D01*
X144876822Y-108322198D01*
X144876822Y-109189822D01*
D16*
X154810000Y-104174800D02*
X154810000Y-102174800D01*
X157610000Y-102174800D02*
X157610000Y-104174800D01*
X154810000Y-102174800D02*
X157610000Y-102174800D01*
X157610000Y-104174800D02*
X154810000Y-104174800D01*
D18*
X156883100Y-110845600D03*
X156883100Y-95097600D03*
X139103100Y-110845600D03*
X139103100Y-95097600D03*
M02*
